G04*
G04 #@! TF.GenerationSoftware,Altium Limited,Altium Designer,26.3.0 (6)*
G04*
G04 Layer_Color=16777215*
%FSLAX44Y44*%
%MOMM*%
G71*
G04*
G04 #@! TF.SameCoordinates,A5D2DF9F-5289-4556-85AE-B0E70FB24680*
G04*
G04*
G04 #@! TF.FilePolarity,Positive*
G04*
G01*
G75*
G36*
X-58924Y-138562D02*
X-60702D01*
X-60746Y-138556D01*
X-60796D01*
X-60912Y-138551D01*
X-61034Y-138534D01*
X-61167Y-138518D01*
X-61289Y-138490D01*
X-61350Y-138473D01*
X-61399Y-138456D01*
X-61405D01*
X-61410Y-138451D01*
X-61444Y-138434D01*
X-61494Y-138412D01*
X-61554Y-138373D01*
X-61621Y-138324D01*
X-61693Y-138257D01*
X-61759Y-138180D01*
X-61826Y-138091D01*
Y-138086D01*
X-61831Y-138080D01*
X-61853Y-138047D01*
X-61876Y-137991D01*
X-61909Y-137919D01*
X-61937Y-137836D01*
X-61964Y-137737D01*
X-61981Y-137632D01*
X-61986Y-137515D01*
Y-137510D01*
Y-137499D01*
Y-137477D01*
X-61981Y-137449D01*
Y-137410D01*
X-61975Y-137371D01*
X-61953Y-137277D01*
X-61920Y-137166D01*
X-61876Y-137050D01*
X-61809Y-136934D01*
X-61765Y-136878D01*
X-61721Y-136823D01*
X-61715Y-136818D01*
X-61709Y-136812D01*
X-61693Y-136795D01*
X-61671Y-136779D01*
X-61643Y-136757D01*
X-61610Y-136735D01*
X-61566Y-136707D01*
X-61521Y-136674D01*
X-61466Y-136646D01*
X-61405Y-136618D01*
X-61339Y-136585D01*
X-61267Y-136557D01*
X-61184Y-136535D01*
X-61100Y-136507D01*
X-61006Y-136491D01*
X-60907Y-136474D01*
X-60918Y-136469D01*
X-60940Y-136458D01*
X-60973Y-136435D01*
X-61017Y-136413D01*
X-61117Y-136352D01*
X-61167Y-136314D01*
X-61211Y-136280D01*
X-61222Y-136269D01*
X-61250Y-136242D01*
X-61294Y-136197D01*
X-61350Y-136142D01*
X-61410Y-136065D01*
X-61483Y-135981D01*
X-61554Y-135882D01*
X-61632Y-135771D01*
X-62291Y-134730D01*
X-61660D01*
X-61156Y-135527D01*
Y-135533D01*
X-61145Y-135544D01*
X-61134Y-135561D01*
X-61117Y-135583D01*
X-61078Y-135644D01*
X-61028Y-135721D01*
X-60967Y-135804D01*
X-60907Y-135893D01*
X-60846Y-135976D01*
X-60790Y-136053D01*
X-60785Y-136059D01*
X-60768Y-136081D01*
X-60740Y-136114D01*
X-60702Y-136153D01*
X-60619Y-136236D01*
X-60574Y-136275D01*
X-60530Y-136308D01*
X-60525Y-136314D01*
X-60514Y-136319D01*
X-60491Y-136330D01*
X-60458Y-136347D01*
X-60425Y-136363D01*
X-60386Y-136380D01*
X-60297Y-136408D01*
X-60292D01*
X-60281Y-136413D01*
X-60259D01*
X-60231Y-136419D01*
X-60192Y-136424D01*
X-60148D01*
X-60087Y-136430D01*
X-59434D01*
Y-134730D01*
X-58924D01*
Y-138562D01*
D02*
G37*
G36*
X-63891Y-137726D02*
X-63886Y-137720D01*
X-63858Y-137698D01*
X-63825Y-137665D01*
X-63769Y-137626D01*
X-63709Y-137576D01*
X-63631Y-137521D01*
X-63542Y-137460D01*
X-63443Y-137399D01*
X-63437D01*
X-63432Y-137393D01*
X-63398Y-137371D01*
X-63343Y-137344D01*
X-63277Y-137310D01*
X-63199Y-137272D01*
X-63116Y-137233D01*
X-63033Y-137194D01*
X-62950Y-137161D01*
Y-137615D01*
X-62955D01*
X-62966Y-137626D01*
X-62989Y-137632D01*
X-63016Y-137648D01*
X-63050Y-137665D01*
X-63088Y-137687D01*
X-63182Y-137742D01*
X-63293Y-137803D01*
X-63404Y-137881D01*
X-63520Y-137969D01*
X-63636Y-138063D01*
X-63642Y-138069D01*
X-63647Y-138075D01*
X-63664Y-138091D01*
X-63686Y-138108D01*
X-63736Y-138163D01*
X-63803Y-138230D01*
X-63869Y-138307D01*
X-63941Y-138396D01*
X-64002Y-138484D01*
X-64057Y-138578D01*
X-64362D01*
Y-134730D01*
X-63891D01*
Y-137726D01*
D02*
G37*
G36*
X84593Y-53456D02*
X84649D01*
X84704Y-53461D01*
X84776Y-53467D01*
X84848Y-53478D01*
X85008Y-53505D01*
X85186Y-53544D01*
X85363Y-53600D01*
X85535Y-53677D01*
X85540Y-53682D01*
X85557Y-53688D01*
X85579Y-53699D01*
X85606Y-53721D01*
X85645Y-53744D01*
X85690Y-53771D01*
X85789Y-53843D01*
X85900Y-53937D01*
X86011Y-54048D01*
X86122Y-54175D01*
X86216Y-54325D01*
X86221Y-54330D01*
X86227Y-54347D01*
X86238Y-54369D01*
X86254Y-54397D01*
X86271Y-54441D01*
X86288Y-54485D01*
X86310Y-54541D01*
X86332Y-54602D01*
X86354Y-54668D01*
X86376Y-54740D01*
X86409Y-54895D01*
X86437Y-55072D01*
X86448Y-55255D01*
Y-55311D01*
X86443Y-55349D01*
X86437Y-55399D01*
X86432Y-55460D01*
X86426Y-55521D01*
X86409Y-55593D01*
X86376Y-55742D01*
X86326Y-55908D01*
X86293Y-55992D01*
X86254Y-56069D01*
X86205Y-56147D01*
X86155Y-56224D01*
X86149Y-56230D01*
X86144Y-56241D01*
X86127Y-56263D01*
X86099Y-56291D01*
X86072Y-56318D01*
X86033Y-56357D01*
X85989Y-56396D01*
X85944Y-56440D01*
X85889Y-56484D01*
X85822Y-56529D01*
X85756Y-56578D01*
X85684Y-56623D01*
X85601Y-56662D01*
X85518Y-56706D01*
X85429Y-56739D01*
X85330Y-56772D01*
X85213Y-56274D01*
X85219D01*
X85230Y-56268D01*
X85252Y-56257D01*
X85280Y-56246D01*
X85313Y-56235D01*
X85357Y-56219D01*
X85446Y-56174D01*
X85546Y-56119D01*
X85645Y-56052D01*
X85739Y-55969D01*
X85822Y-55881D01*
X85834Y-55870D01*
X85856Y-55837D01*
X85883Y-55781D01*
X85922Y-55709D01*
X85955Y-55615D01*
X85989Y-55510D01*
X86011Y-55382D01*
X86016Y-55244D01*
Y-55200D01*
X86011Y-55172D01*
Y-55133D01*
X86005Y-55089D01*
X85989Y-54984D01*
X85967Y-54868D01*
X85928Y-54746D01*
X85872Y-54618D01*
X85800Y-54502D01*
Y-54496D01*
X85789Y-54491D01*
X85762Y-54452D01*
X85717Y-54402D01*
X85651Y-54342D01*
X85568Y-54269D01*
X85474Y-54203D01*
X85357Y-54142D01*
X85230Y-54087D01*
X85225D01*
X85213Y-54081D01*
X85197Y-54076D01*
X85169Y-54070D01*
X85136Y-54059D01*
X85097Y-54048D01*
X85003Y-54031D01*
X84892Y-54009D01*
X84770Y-53987D01*
X84637Y-53976D01*
X84494Y-53970D01*
X84488D01*
X84471D01*
X84444D01*
X84410D01*
X84372Y-53976D01*
X84322D01*
X84267Y-53982D01*
X84206Y-53987D01*
X84073Y-54004D01*
X83929Y-54031D01*
X83785Y-54065D01*
X83641Y-54109D01*
X83635D01*
X83624Y-54114D01*
X83608Y-54125D01*
X83580Y-54137D01*
X83513Y-54170D01*
X83436Y-54220D01*
X83347Y-54281D01*
X83253Y-54358D01*
X83170Y-54447D01*
X83093Y-54552D01*
Y-54557D01*
X83087Y-54569D01*
X83076Y-54585D01*
X83065Y-54607D01*
X83054Y-54635D01*
X83037Y-54668D01*
X83004Y-54746D01*
X82971Y-54845D01*
X82943Y-54956D01*
X82921Y-55078D01*
X82915Y-55205D01*
Y-55244D01*
X82921Y-55277D01*
Y-55316D01*
X82927Y-55355D01*
X82949Y-55454D01*
X82976Y-55571D01*
X83021Y-55687D01*
X83082Y-55809D01*
X83115Y-55870D01*
X83159Y-55925D01*
X83165Y-55931D01*
X83170Y-55936D01*
X83187Y-55953D01*
X83203Y-55975D01*
X83231Y-55997D01*
X83264Y-56025D01*
X83298Y-56058D01*
X83342Y-56086D01*
X83392Y-56119D01*
X83447Y-56158D01*
X83502Y-56191D01*
X83569Y-56224D01*
X83641Y-56252D01*
X83718Y-56280D01*
X83801Y-56307D01*
X83890Y-56329D01*
X83763Y-56839D01*
X83757D01*
X83735Y-56833D01*
X83702Y-56822D01*
X83657Y-56806D01*
X83608Y-56789D01*
X83547Y-56767D01*
X83480Y-56739D01*
X83408Y-56706D01*
X83253Y-56628D01*
X83098Y-56529D01*
X83021Y-56468D01*
X82943Y-56407D01*
X82877Y-56340D01*
X82810Y-56263D01*
X82805Y-56257D01*
X82794Y-56246D01*
X82783Y-56219D01*
X82760Y-56191D01*
X82733Y-56147D01*
X82705Y-56102D01*
X82677Y-56041D01*
X82650Y-55981D01*
X82616Y-55908D01*
X82589Y-55831D01*
X82561Y-55748D01*
X82533Y-55659D01*
X82511Y-55565D01*
X82500Y-55465D01*
X82489Y-55360D01*
X82484Y-55250D01*
Y-55189D01*
X82489Y-55144D01*
Y-55094D01*
X82495Y-55034D01*
X82506Y-54967D01*
X82517Y-54890D01*
X82544Y-54729D01*
X82589Y-54563D01*
X82650Y-54397D01*
X82688Y-54319D01*
X82733Y-54242D01*
X82738Y-54236D01*
X82744Y-54225D01*
X82760Y-54203D01*
X82783Y-54181D01*
X82805Y-54148D01*
X82838Y-54109D01*
X82877Y-54065D01*
X82921Y-54020D01*
X82971Y-53976D01*
X83021Y-53926D01*
X83148Y-53826D01*
X83298Y-53732D01*
X83464Y-53649D01*
X83469D01*
X83486Y-53638D01*
X83513Y-53633D01*
X83547Y-53616D01*
X83591Y-53605D01*
X83646Y-53588D01*
X83707Y-53566D01*
X83774Y-53550D01*
X83846Y-53533D01*
X83929Y-53511D01*
X84100Y-53483D01*
X84294Y-53461D01*
X84494Y-53450D01*
X84499D01*
X84521D01*
X84555D01*
X84593Y-53456D01*
D02*
G37*
G36*
X85435Y-57636D02*
X85446Y-57647D01*
X85451Y-57669D01*
X85468Y-57697D01*
X85485Y-57730D01*
X85507Y-57769D01*
X85562Y-57863D01*
X85623Y-57974D01*
X85701Y-58085D01*
X85789Y-58201D01*
X85883Y-58317D01*
X85889Y-58323D01*
X85894Y-58328D01*
X85911Y-58345D01*
X85928Y-58367D01*
X85983Y-58417D01*
X86049Y-58483D01*
X86127Y-58550D01*
X86216Y-58622D01*
X86304Y-58683D01*
X86398Y-58738D01*
Y-59043D01*
X82550D01*
Y-58572D01*
X85546D01*
X85540Y-58566D01*
X85518Y-58539D01*
X85485Y-58505D01*
X85446Y-58450D01*
X85396Y-58389D01*
X85341Y-58312D01*
X85280Y-58223D01*
X85219Y-58123D01*
Y-58118D01*
X85213Y-58112D01*
X85191Y-58079D01*
X85164Y-58024D01*
X85130Y-57957D01*
X85092Y-57880D01*
X85053Y-57797D01*
X85014Y-57714D01*
X84981Y-57631D01*
X85435D01*
Y-57636D01*
D02*
G37*
G36*
Y-60615D02*
X85446Y-60626D01*
X85451Y-60648D01*
X85468Y-60676D01*
X85485Y-60709D01*
X85507Y-60748D01*
X85562Y-60842D01*
X85623Y-60953D01*
X85701Y-61064D01*
X85789Y-61180D01*
X85883Y-61296D01*
X85889Y-61302D01*
X85894Y-61307D01*
X85911Y-61324D01*
X85928Y-61346D01*
X85983Y-61396D01*
X86049Y-61462D01*
X86127Y-61529D01*
X86216Y-61601D01*
X86304Y-61662D01*
X86398Y-61717D01*
Y-62022D01*
X82550D01*
Y-61551D01*
X85546D01*
X85540Y-61545D01*
X85518Y-61518D01*
X85485Y-61484D01*
X85446Y-61429D01*
X85396Y-61368D01*
X85341Y-61291D01*
X85280Y-61202D01*
X85219Y-61102D01*
Y-61097D01*
X85213Y-61091D01*
X85191Y-61058D01*
X85164Y-61003D01*
X85130Y-60936D01*
X85092Y-60859D01*
X85053Y-60776D01*
X85014Y-60693D01*
X84981Y-60610D01*
X85435D01*
Y-60615D01*
D02*
G37*
G36*
X311Y8599D02*
X356Y8594D01*
X406Y8583D01*
X461Y8572D01*
X522Y8560D01*
X655Y8516D01*
X727Y8483D01*
X793Y8450D01*
X865Y8405D01*
X937Y8356D01*
X1009Y8300D01*
X1076Y8234D01*
X1081Y8228D01*
X1092Y8217D01*
X1109Y8195D01*
X1131Y8167D01*
X1159Y8134D01*
X1186Y8090D01*
X1220Y8040D01*
X1247Y7979D01*
X1280Y7918D01*
X1314Y7846D01*
X1341Y7774D01*
X1369Y7691D01*
X1391Y7602D01*
X1408Y7508D01*
X1419Y7414D01*
X1424Y7309D01*
Y7259D01*
X1419Y7226D01*
X1413Y7182D01*
X1408Y7132D01*
X1397Y7077D01*
X1386Y7016D01*
X1352Y6883D01*
X1297Y6744D01*
X1264Y6672D01*
X1225Y6606D01*
X1175Y6539D01*
X1125Y6473D01*
X1120Y6467D01*
X1109Y6456D01*
X1092Y6440D01*
X1070Y6423D01*
X1042Y6395D01*
X1003Y6368D01*
X965Y6334D01*
X915Y6301D01*
X860Y6268D01*
X804Y6235D01*
X671Y6174D01*
X516Y6124D01*
X433Y6108D01*
X345Y6096D01*
X284Y6567D01*
X289D01*
X300Y6573D01*
X322Y6578D01*
X350Y6584D01*
X383Y6589D01*
X422Y6600D01*
X505Y6628D01*
X605Y6667D01*
X699Y6716D01*
X788Y6772D01*
X865Y6838D01*
X871Y6849D01*
X893Y6872D01*
X921Y6916D01*
X948Y6971D01*
X981Y7038D01*
X1009Y7121D01*
X1031Y7215D01*
X1037Y7315D01*
Y7348D01*
X1031Y7370D01*
X1026Y7431D01*
X1009Y7508D01*
X981Y7597D01*
X943Y7691D01*
X887Y7785D01*
X810Y7874D01*
X799Y7885D01*
X765Y7913D01*
X716Y7946D01*
X649Y7990D01*
X566Y8034D01*
X472Y8068D01*
X361Y8095D01*
X239Y8106D01*
X234D01*
X223D01*
X206D01*
X184Y8101D01*
X123Y8095D01*
X51Y8079D01*
X-37Y8056D01*
X-126Y8018D01*
X-215Y7962D01*
X-298Y7890D01*
X-309Y7879D01*
X-331Y7852D01*
X-364Y7807D01*
X-403Y7746D01*
X-442Y7669D01*
X-475Y7575D01*
X-497Y7470D01*
X-508Y7353D01*
Y7304D01*
X-503Y7265D01*
X-497Y7215D01*
X-486Y7160D01*
X-475Y7093D01*
X-458Y7021D01*
X-874Y7077D01*
Y7104D01*
X-868Y7126D01*
Y7198D01*
X-879Y7259D01*
X-890Y7331D01*
X-907Y7414D01*
X-935Y7508D01*
X-973Y7597D01*
X-1023Y7691D01*
Y7697D01*
X-1029Y7702D01*
X-1051Y7730D01*
X-1089Y7769D01*
X-1139Y7813D01*
X-1211Y7857D01*
X-1294Y7896D01*
X-1389Y7924D01*
X-1444Y7935D01*
X-1505D01*
X-1510D01*
X-1516D01*
X-1549D01*
X-1593Y7924D01*
X-1654Y7913D01*
X-1721Y7890D01*
X-1793Y7863D01*
X-1865Y7818D01*
X-1931Y7757D01*
X-1937Y7752D01*
X-1959Y7724D01*
X-1987Y7686D01*
X-2020Y7636D01*
X-2048Y7569D01*
X-2075Y7492D01*
X-2097Y7403D01*
X-2103Y7304D01*
Y7259D01*
X-2092Y7209D01*
X-2081Y7143D01*
X-2059Y7071D01*
X-2031Y6999D01*
X-1987Y6921D01*
X-1931Y6849D01*
X-1926Y6844D01*
X-1898Y6822D01*
X-1859Y6788D01*
X-1804Y6750D01*
X-1732Y6711D01*
X-1643Y6672D01*
X-1538Y6639D01*
X-1416Y6617D01*
X-1499Y6146D01*
X-1505D01*
X-1521Y6152D01*
X-1544Y6157D01*
X-1577Y6163D01*
X-1616Y6174D01*
X-1660Y6191D01*
X-1765Y6224D01*
X-1887Y6279D01*
X-2009Y6346D01*
X-2125Y6429D01*
X-2230Y6534D01*
X-2236Y6539D01*
X-2241Y6550D01*
X-2252Y6567D01*
X-2269Y6589D01*
X-2291Y6617D01*
X-2313Y6656D01*
X-2335Y6694D01*
X-2363Y6744D01*
X-2407Y6855D01*
X-2452Y6982D01*
X-2479Y7132D01*
X-2490Y7209D01*
Y7348D01*
X-2485Y7409D01*
X-2474Y7481D01*
X-2457Y7569D01*
X-2430Y7669D01*
X-2396Y7769D01*
X-2352Y7868D01*
Y7874D01*
X-2347Y7879D01*
X-2330Y7913D01*
X-2297Y7962D01*
X-2258Y8018D01*
X-2202Y8084D01*
X-2142Y8151D01*
X-2070Y8217D01*
X-1987Y8273D01*
X-1975Y8278D01*
X-1948Y8295D01*
X-1898Y8317D01*
X-1837Y8345D01*
X-1765Y8372D01*
X-1682Y8394D01*
X-1588Y8411D01*
X-1494Y8417D01*
X-1483D01*
X-1450D01*
X-1405Y8411D01*
X-1344Y8400D01*
X-1272Y8383D01*
X-1195Y8356D01*
X-1117Y8322D01*
X-1040Y8278D01*
X-1029Y8273D01*
X-1006Y8256D01*
X-968Y8223D01*
X-923Y8178D01*
X-874Y8123D01*
X-818Y8056D01*
X-768Y7979D01*
X-719Y7885D01*
Y7890D01*
X-713Y7901D01*
X-707Y7918D01*
X-702Y7940D01*
X-680Y8001D01*
X-647Y8079D01*
X-602Y8167D01*
X-547Y8256D01*
X-475Y8339D01*
X-392Y8417D01*
X-381Y8422D01*
X-347Y8444D01*
X-292Y8477D01*
X-220Y8511D01*
X-132Y8544D01*
X-26Y8577D01*
X95Y8599D01*
X228Y8605D01*
X234D01*
X250D01*
X278D01*
X311Y8599D01*
D02*
G37*
G36*
X173Y5653D02*
X206Y5642D01*
X250Y5626D01*
X300Y5609D01*
X361Y5587D01*
X428Y5559D01*
X500Y5526D01*
X655Y5448D01*
X810Y5349D01*
X887Y5288D01*
X965Y5227D01*
X1031Y5161D01*
X1098Y5083D01*
X1103Y5077D01*
X1114Y5066D01*
X1125Y5039D01*
X1147Y5011D01*
X1175Y4967D01*
X1203Y4922D01*
X1231Y4862D01*
X1258Y4801D01*
X1292Y4729D01*
X1319Y4651D01*
X1347Y4568D01*
X1374Y4480D01*
X1397Y4385D01*
X1408Y4286D01*
X1419Y4180D01*
X1424Y4070D01*
Y4009D01*
X1419Y3965D01*
Y3915D01*
X1413Y3854D01*
X1402Y3787D01*
X1391Y3710D01*
X1363Y3549D01*
X1319Y3383D01*
X1258Y3217D01*
X1220Y3140D01*
X1175Y3062D01*
X1170Y3056D01*
X1164Y3045D01*
X1147Y3023D01*
X1125Y3001D01*
X1103Y2968D01*
X1070Y2929D01*
X1031Y2885D01*
X987Y2840D01*
X937Y2796D01*
X887Y2746D01*
X760Y2647D01*
X610Y2553D01*
X444Y2470D01*
X439D01*
X422Y2458D01*
X394Y2453D01*
X361Y2436D01*
X317Y2425D01*
X261Y2409D01*
X201Y2386D01*
X134Y2370D01*
X62Y2353D01*
X-21Y2331D01*
X-192Y2303D01*
X-386Y2281D01*
X-586Y2270D01*
X-591D01*
X-613D01*
X-647D01*
X-685Y2276D01*
X-741D01*
X-796Y2281D01*
X-868Y2287D01*
X-940Y2298D01*
X-1101Y2325D01*
X-1278Y2364D01*
X-1455Y2420D01*
X-1627Y2497D01*
X-1632Y2503D01*
X-1649Y2508D01*
X-1671Y2519D01*
X-1699Y2542D01*
X-1737Y2564D01*
X-1782Y2591D01*
X-1881Y2663D01*
X-1992Y2757D01*
X-2103Y2868D01*
X-2214Y2995D01*
X-2308Y3145D01*
X-2313Y3151D01*
X-2319Y3167D01*
X-2330Y3189D01*
X-2347Y3217D01*
X-2363Y3261D01*
X-2380Y3306D01*
X-2402Y3361D01*
X-2424Y3422D01*
X-2446Y3488D01*
X-2468Y3560D01*
X-2501Y3715D01*
X-2529Y3893D01*
X-2540Y4075D01*
Y4131D01*
X-2535Y4169D01*
X-2529Y4219D01*
X-2524Y4280D01*
X-2518Y4341D01*
X-2501Y4413D01*
X-2468Y4563D01*
X-2419Y4729D01*
X-2385Y4812D01*
X-2347Y4889D01*
X-2297Y4967D01*
X-2247Y5044D01*
X-2241Y5050D01*
X-2236Y5061D01*
X-2219Y5083D01*
X-2191Y5111D01*
X-2164Y5138D01*
X-2125Y5177D01*
X-2081Y5216D01*
X-2036Y5260D01*
X-1981Y5305D01*
X-1915Y5349D01*
X-1848Y5399D01*
X-1776Y5443D01*
X-1693Y5482D01*
X-1610Y5526D01*
X-1521Y5559D01*
X-1422Y5592D01*
X-1305Y5094D01*
X-1311D01*
X-1322Y5089D01*
X-1344Y5077D01*
X-1372Y5066D01*
X-1405Y5055D01*
X-1450Y5039D01*
X-1538Y4994D01*
X-1638Y4939D01*
X-1737Y4873D01*
X-1831Y4790D01*
X-1915Y4701D01*
X-1926Y4690D01*
X-1948Y4657D01*
X-1975Y4601D01*
X-2014Y4529D01*
X-2048Y4435D01*
X-2081Y4330D01*
X-2103Y4203D01*
X-2108Y4064D01*
Y4020D01*
X-2103Y3992D01*
Y3954D01*
X-2097Y3909D01*
X-2081Y3804D01*
X-2059Y3688D01*
X-2020Y3566D01*
X-1964Y3438D01*
X-1892Y3322D01*
Y3317D01*
X-1881Y3311D01*
X-1854Y3272D01*
X-1809Y3223D01*
X-1743Y3162D01*
X-1660Y3090D01*
X-1566Y3023D01*
X-1450Y2962D01*
X-1322Y2907D01*
X-1317D01*
X-1305Y2901D01*
X-1289Y2896D01*
X-1261Y2890D01*
X-1228Y2879D01*
X-1189Y2868D01*
X-1095Y2852D01*
X-984Y2829D01*
X-862Y2807D01*
X-730Y2796D01*
X-586Y2791D01*
X-580D01*
X-564D01*
X-536D01*
X-503D01*
X-464Y2796D01*
X-414D01*
X-359Y2802D01*
X-298Y2807D01*
X-165Y2824D01*
X-21Y2852D01*
X123Y2885D01*
X267Y2929D01*
X273D01*
X284Y2935D01*
X300Y2946D01*
X328Y2957D01*
X394Y2990D01*
X472Y3040D01*
X561Y3101D01*
X655Y3178D01*
X738Y3267D01*
X815Y3372D01*
Y3378D01*
X821Y3389D01*
X832Y3405D01*
X843Y3428D01*
X854Y3455D01*
X871Y3488D01*
X904Y3566D01*
X937Y3666D01*
X965Y3776D01*
X987Y3898D01*
X993Y4026D01*
Y4064D01*
X987Y4098D01*
Y4136D01*
X981Y4175D01*
X959Y4275D01*
X931Y4391D01*
X887Y4507D01*
X826Y4629D01*
X793Y4690D01*
X749Y4745D01*
X743Y4751D01*
X738Y4756D01*
X721Y4773D01*
X705Y4795D01*
X677Y4817D01*
X644Y4845D01*
X610Y4878D01*
X566Y4906D01*
X516Y4939D01*
X461Y4978D01*
X406Y5011D01*
X339Y5044D01*
X267Y5072D01*
X190Y5100D01*
X106Y5127D01*
X18Y5149D01*
X145Y5659D01*
X151D01*
X173Y5653D01*
D02*
G37*
G36*
X22693Y8068D02*
X23612D01*
Y7597D01*
X22693D01*
Y5930D01*
X22261D01*
X19780Y7685D01*
Y8068D01*
X22261D01*
Y8588D01*
X22693D01*
Y8068D01*
D02*
G37*
G36*
X22427Y5653D02*
X22460Y5642D01*
X22504Y5626D01*
X22554Y5609D01*
X22615Y5587D01*
X22682Y5559D01*
X22754Y5526D01*
X22909Y5448D01*
X23064Y5349D01*
X23141Y5288D01*
X23219Y5227D01*
X23285Y5161D01*
X23352Y5083D01*
X23357Y5077D01*
X23368Y5066D01*
X23379Y5039D01*
X23401Y5011D01*
X23429Y4967D01*
X23457Y4922D01*
X23484Y4862D01*
X23512Y4801D01*
X23545Y4729D01*
X23573Y4651D01*
X23601Y4568D01*
X23628Y4480D01*
X23651Y4385D01*
X23662Y4286D01*
X23673Y4180D01*
X23678Y4070D01*
Y4009D01*
X23673Y3965D01*
Y3915D01*
X23667Y3854D01*
X23656Y3787D01*
X23645Y3710D01*
X23617Y3549D01*
X23573Y3383D01*
X23512Y3217D01*
X23473Y3140D01*
X23429Y3062D01*
X23424Y3056D01*
X23418Y3045D01*
X23401Y3023D01*
X23379Y3001D01*
X23357Y2968D01*
X23324Y2929D01*
X23285Y2885D01*
X23241Y2840D01*
X23191Y2796D01*
X23141Y2746D01*
X23014Y2647D01*
X22864Y2553D01*
X22698Y2470D01*
X22693D01*
X22676Y2458D01*
X22648Y2453D01*
X22615Y2436D01*
X22571Y2425D01*
X22515Y2409D01*
X22455Y2386D01*
X22388Y2370D01*
X22316Y2353D01*
X22233Y2331D01*
X22061Y2303D01*
X21868Y2281D01*
X21668Y2270D01*
X21663D01*
X21641D01*
X21607D01*
X21569Y2276D01*
X21513D01*
X21458Y2281D01*
X21386Y2287D01*
X21314Y2298D01*
X21153Y2325D01*
X20976Y2364D01*
X20799Y2420D01*
X20627Y2497D01*
X20622Y2503D01*
X20605Y2508D01*
X20583Y2519D01*
X20555Y2542D01*
X20517Y2564D01*
X20472Y2591D01*
X20373Y2663D01*
X20262Y2757D01*
X20151Y2868D01*
X20040Y2995D01*
X19946Y3145D01*
X19941Y3151D01*
X19935Y3167D01*
X19924Y3189D01*
X19907Y3217D01*
X19891Y3261D01*
X19874Y3306D01*
X19852Y3361D01*
X19830Y3422D01*
X19808Y3488D01*
X19786Y3560D01*
X19752Y3715D01*
X19725Y3893D01*
X19714Y4075D01*
Y4131D01*
X19719Y4169D01*
X19725Y4219D01*
X19730Y4280D01*
X19736Y4341D01*
X19752Y4413D01*
X19786Y4563D01*
X19835Y4729D01*
X19869Y4812D01*
X19907Y4889D01*
X19957Y4967D01*
X20007Y5044D01*
X20013Y5050D01*
X20018Y5061D01*
X20035Y5083D01*
X20062Y5111D01*
X20090Y5138D01*
X20129Y5177D01*
X20173Y5216D01*
X20217Y5260D01*
X20273Y5304D01*
X20339Y5349D01*
X20406Y5399D01*
X20478Y5443D01*
X20561Y5482D01*
X20644Y5526D01*
X20732Y5559D01*
X20832Y5592D01*
X20948Y5094D01*
X20943D01*
X20932Y5089D01*
X20910Y5077D01*
X20882Y5066D01*
X20849Y5055D01*
X20804Y5039D01*
X20716Y4994D01*
X20616Y4939D01*
X20517Y4873D01*
X20422Y4790D01*
X20339Y4701D01*
X20328Y4690D01*
X20306Y4657D01*
X20278Y4601D01*
X20240Y4529D01*
X20206Y4435D01*
X20173Y4330D01*
X20151Y4203D01*
X20145Y4064D01*
Y4020D01*
X20151Y3992D01*
Y3954D01*
X20157Y3909D01*
X20173Y3804D01*
X20195Y3688D01*
X20234Y3566D01*
X20289Y3438D01*
X20361Y3322D01*
Y3317D01*
X20373Y3311D01*
X20400Y3272D01*
X20445Y3223D01*
X20511Y3162D01*
X20594Y3090D01*
X20688Y3023D01*
X20804Y2962D01*
X20932Y2907D01*
X20937D01*
X20948Y2901D01*
X20965Y2896D01*
X20993Y2890D01*
X21026Y2879D01*
X21065Y2868D01*
X21159Y2852D01*
X21270Y2829D01*
X21391Y2807D01*
X21524Y2796D01*
X21668Y2791D01*
X21674D01*
X21690D01*
X21718D01*
X21751D01*
X21790Y2796D01*
X21840D01*
X21895Y2802D01*
X21956Y2807D01*
X22089Y2824D01*
X22233Y2852D01*
X22377Y2885D01*
X22521Y2929D01*
X22527D01*
X22538Y2935D01*
X22554Y2946D01*
X22582Y2957D01*
X22648Y2990D01*
X22726Y3040D01*
X22814Y3101D01*
X22909Y3178D01*
X22992Y3267D01*
X23069Y3372D01*
Y3378D01*
X23075Y3389D01*
X23086Y3405D01*
X23097Y3427D01*
X23108Y3455D01*
X23124Y3488D01*
X23158Y3566D01*
X23191Y3665D01*
X23219Y3776D01*
X23241Y3898D01*
X23246Y4025D01*
Y4064D01*
X23241Y4097D01*
Y4136D01*
X23235Y4175D01*
X23213Y4275D01*
X23185Y4391D01*
X23141Y4507D01*
X23080Y4629D01*
X23047Y4690D01*
X23003Y4745D01*
X22997Y4751D01*
X22992Y4756D01*
X22975Y4773D01*
X22958Y4795D01*
X22931Y4817D01*
X22898Y4845D01*
X22864Y4878D01*
X22820Y4906D01*
X22770Y4939D01*
X22715Y4978D01*
X22659Y5011D01*
X22593Y5044D01*
X22521Y5072D01*
X22443Y5100D01*
X22360Y5127D01*
X22272Y5149D01*
X22399Y5659D01*
X22405D01*
X22427Y5653D01*
D02*
G37*
G36*
X18493Y84438D02*
X17984D01*
Y87816D01*
X16096D01*
Y88270D01*
X18493D01*
Y84438D01*
D02*
G37*
G36*
X14385Y85274D02*
X14390Y85280D01*
X14418Y85302D01*
X14451Y85335D01*
X14506Y85374D01*
X14567Y85424D01*
X14645Y85479D01*
X14734Y85540D01*
X14833Y85601D01*
X14839D01*
X14844Y85607D01*
X14878Y85629D01*
X14933Y85656D01*
X14999Y85690D01*
X15077Y85728D01*
X15160Y85767D01*
X15243Y85806D01*
X15326Y85839D01*
Y85385D01*
X15321D01*
X15309Y85374D01*
X15287Y85368D01*
X15260Y85352D01*
X15226Y85335D01*
X15188Y85313D01*
X15093Y85258D01*
X14983Y85197D01*
X14872Y85119D01*
X14756Y85031D01*
X14639Y84937D01*
X14634Y84931D01*
X14628Y84925D01*
X14612Y84909D01*
X14590Y84892D01*
X14540Y84837D01*
X14473Y84770D01*
X14407Y84693D01*
X14335Y84604D01*
X14274Y84516D01*
X14219Y84422D01*
X13914D01*
Y88270D01*
X14385D01*
Y85274D01*
D02*
G37*
G36*
X-65187Y-103751D02*
X-65115Y-103762D01*
X-65026Y-103779D01*
X-64927Y-103806D01*
X-64827Y-103840D01*
X-64727Y-103884D01*
X-64722D01*
X-64716Y-103889D01*
X-64683Y-103906D01*
X-64633Y-103939D01*
X-64578Y-103978D01*
X-64511Y-104033D01*
X-64445Y-104094D01*
X-64379Y-104166D01*
X-64323Y-104249D01*
X-64318Y-104260D01*
X-64301Y-104288D01*
X-64279Y-104338D01*
X-64251Y-104399D01*
X-64223Y-104471D01*
X-64201Y-104554D01*
X-64185Y-104648D01*
X-64179Y-104742D01*
Y-104753D01*
Y-104786D01*
X-64185Y-104831D01*
X-64196Y-104892D01*
X-64212Y-104964D01*
X-64240Y-105041D01*
X-64273Y-105119D01*
X-64318Y-105196D01*
X-64323Y-105207D01*
X-64340Y-105229D01*
X-64373Y-105268D01*
X-64417Y-105312D01*
X-64473Y-105362D01*
X-64539Y-105418D01*
X-64617Y-105467D01*
X-64711Y-105517D01*
X-64705D01*
X-64694Y-105523D01*
X-64678Y-105528D01*
X-64655Y-105534D01*
X-64594Y-105556D01*
X-64517Y-105589D01*
X-64428Y-105633D01*
X-64340Y-105689D01*
X-64257Y-105761D01*
X-64179Y-105844D01*
X-64174Y-105855D01*
X-64152Y-105888D01*
X-64118Y-105944D01*
X-64085Y-106016D01*
X-64052Y-106104D01*
X-64019Y-106209D01*
X-63997Y-106331D01*
X-63991Y-106464D01*
Y-106470D01*
Y-106486D01*
Y-106514D01*
X-63997Y-106547D01*
X-64002Y-106592D01*
X-64013Y-106641D01*
X-64024Y-106697D01*
X-64035Y-106758D01*
X-64080Y-106890D01*
X-64113Y-106962D01*
X-64146Y-107029D01*
X-64190Y-107101D01*
X-64240Y-107173D01*
X-64296Y-107245D01*
X-64362Y-107311D01*
X-64367Y-107317D01*
X-64379Y-107328D01*
X-64401Y-107345D01*
X-64428Y-107367D01*
X-64462Y-107394D01*
X-64506Y-107422D01*
X-64556Y-107455D01*
X-64617Y-107483D01*
X-64678Y-107516D01*
X-64750Y-107549D01*
X-64822Y-107577D01*
X-64905Y-107605D01*
X-64993Y-107627D01*
X-65087Y-107643D01*
X-65181Y-107655D01*
X-65287Y-107660D01*
X-65336D01*
X-65370Y-107655D01*
X-65414Y-107649D01*
X-65464Y-107643D01*
X-65519Y-107632D01*
X-65580Y-107621D01*
X-65713Y-107588D01*
X-65851Y-107533D01*
X-65923Y-107500D01*
X-65990Y-107461D01*
X-66056Y-107411D01*
X-66123Y-107361D01*
X-66128Y-107356D01*
X-66139Y-107345D01*
X-66156Y-107328D01*
X-66173Y-107306D01*
X-66200Y-107278D01*
X-66228Y-107239D01*
X-66261Y-107200D01*
X-66294Y-107151D01*
X-66328Y-107095D01*
X-66361Y-107040D01*
X-66422Y-106907D01*
X-66472Y-106752D01*
X-66488Y-106669D01*
X-66499Y-106580D01*
X-66029Y-106519D01*
Y-106525D01*
X-66023Y-106536D01*
X-66018Y-106558D01*
X-66012Y-106586D01*
X-66006Y-106619D01*
X-65995Y-106658D01*
X-65968Y-106741D01*
X-65929Y-106841D01*
X-65879Y-106935D01*
X-65824Y-107023D01*
X-65757Y-107101D01*
X-65746Y-107106D01*
X-65724Y-107129D01*
X-65680Y-107156D01*
X-65624Y-107184D01*
X-65558Y-107217D01*
X-65475Y-107245D01*
X-65381Y-107267D01*
X-65281Y-107273D01*
X-65248D01*
X-65226Y-107267D01*
X-65165Y-107261D01*
X-65087Y-107245D01*
X-64999Y-107217D01*
X-64905Y-107178D01*
X-64811Y-107123D01*
X-64722Y-107045D01*
X-64711Y-107034D01*
X-64683Y-107001D01*
X-64650Y-106951D01*
X-64606Y-106885D01*
X-64561Y-106802D01*
X-64528Y-106708D01*
X-64500Y-106597D01*
X-64489Y-106475D01*
Y-106470D01*
Y-106459D01*
Y-106442D01*
X-64495Y-106420D01*
X-64500Y-106359D01*
X-64517Y-106287D01*
X-64539Y-106198D01*
X-64578Y-106110D01*
X-64633Y-106021D01*
X-64705Y-105938D01*
X-64716Y-105927D01*
X-64744Y-105905D01*
X-64788Y-105872D01*
X-64849Y-105833D01*
X-64927Y-105794D01*
X-65021Y-105761D01*
X-65126Y-105739D01*
X-65242Y-105728D01*
X-65292D01*
X-65331Y-105733D01*
X-65381Y-105739D01*
X-65436Y-105750D01*
X-65503Y-105761D01*
X-65575Y-105778D01*
X-65519Y-105362D01*
X-65491D01*
X-65469Y-105368D01*
X-65397D01*
X-65336Y-105357D01*
X-65265Y-105346D01*
X-65181Y-105329D01*
X-65087Y-105301D01*
X-64999Y-105262D01*
X-64905Y-105213D01*
X-64899D01*
X-64893Y-105207D01*
X-64866Y-105185D01*
X-64827Y-105146D01*
X-64783Y-105096D01*
X-64738Y-105024D01*
X-64700Y-104941D01*
X-64672Y-104847D01*
X-64661Y-104792D01*
Y-104731D01*
Y-104725D01*
Y-104720D01*
Y-104687D01*
X-64672Y-104642D01*
X-64683Y-104581D01*
X-64705Y-104515D01*
X-64733Y-104443D01*
X-64777Y-104371D01*
X-64838Y-104305D01*
X-64844Y-104299D01*
X-64871Y-104277D01*
X-64910Y-104249D01*
X-64960Y-104216D01*
X-65026Y-104188D01*
X-65104Y-104161D01*
X-65192Y-104138D01*
X-65292Y-104133D01*
X-65336D01*
X-65386Y-104144D01*
X-65453Y-104155D01*
X-65525Y-104177D01*
X-65597Y-104205D01*
X-65674Y-104249D01*
X-65746Y-104305D01*
X-65752Y-104310D01*
X-65774Y-104338D01*
X-65807Y-104377D01*
X-65846Y-104432D01*
X-65885Y-104504D01*
X-65923Y-104593D01*
X-65957Y-104698D01*
X-65979Y-104820D01*
X-66449Y-104736D01*
Y-104731D01*
X-66444Y-104714D01*
X-66438Y-104692D01*
X-66433Y-104659D01*
X-66422Y-104620D01*
X-66405Y-104576D01*
X-66372Y-104471D01*
X-66317Y-104349D01*
X-66250Y-104227D01*
X-66167Y-104111D01*
X-66062Y-104006D01*
X-66056Y-104000D01*
X-66045Y-103995D01*
X-66029Y-103983D01*
X-66006Y-103967D01*
X-65979Y-103945D01*
X-65940Y-103923D01*
X-65901Y-103900D01*
X-65851Y-103873D01*
X-65741Y-103828D01*
X-65613Y-103784D01*
X-65464Y-103756D01*
X-65386Y-103745D01*
X-65248D01*
X-65187Y-103751D01*
D02*
G37*
G36*
X-68349Y-103767D02*
X-68299D01*
X-68183Y-103773D01*
X-68061Y-103790D01*
X-67928Y-103806D01*
X-67806Y-103834D01*
X-67745Y-103850D01*
X-67695Y-103867D01*
X-67690D01*
X-67684Y-103873D01*
X-67651Y-103889D01*
X-67601Y-103912D01*
X-67540Y-103950D01*
X-67474Y-104000D01*
X-67402Y-104066D01*
X-67335Y-104144D01*
X-67269Y-104233D01*
Y-104238D01*
X-67263Y-104244D01*
X-67241Y-104277D01*
X-67219Y-104332D01*
X-67186Y-104404D01*
X-67158Y-104487D01*
X-67130Y-104587D01*
X-67114Y-104692D01*
X-67108Y-104809D01*
Y-104814D01*
Y-104825D01*
Y-104847D01*
X-67114Y-104875D01*
Y-104914D01*
X-67119Y-104952D01*
X-67142Y-105047D01*
X-67175Y-105157D01*
X-67219Y-105274D01*
X-67286Y-105390D01*
X-67330Y-105445D01*
X-67374Y-105501D01*
X-67380Y-105506D01*
X-67385Y-105512D01*
X-67402Y-105528D01*
X-67424Y-105545D01*
X-67452Y-105567D01*
X-67485Y-105589D01*
X-67529Y-105617D01*
X-67573Y-105650D01*
X-67629Y-105678D01*
X-67690Y-105705D01*
X-67756Y-105739D01*
X-67828Y-105766D01*
X-67911Y-105789D01*
X-67994Y-105816D01*
X-68088Y-105833D01*
X-68188Y-105850D01*
X-68177Y-105855D01*
X-68155Y-105866D01*
X-68122Y-105888D01*
X-68077Y-105910D01*
X-67978Y-105971D01*
X-67928Y-106010D01*
X-67884Y-106043D01*
X-67873Y-106054D01*
X-67845Y-106082D01*
X-67801Y-106126D01*
X-67745Y-106182D01*
X-67684Y-106259D01*
X-67612Y-106342D01*
X-67540Y-106442D01*
X-67463Y-106553D01*
X-66804Y-107594D01*
X-67435D01*
X-67939Y-106796D01*
Y-106791D01*
X-67950Y-106780D01*
X-67961Y-106763D01*
X-67978Y-106741D01*
X-68017Y-106680D01*
X-68066Y-106602D01*
X-68127Y-106519D01*
X-68188Y-106431D01*
X-68249Y-106348D01*
X-68304Y-106270D01*
X-68310Y-106265D01*
X-68327Y-106243D01*
X-68354Y-106209D01*
X-68393Y-106171D01*
X-68476Y-106088D01*
X-68520Y-106049D01*
X-68565Y-106016D01*
X-68570Y-106010D01*
X-68581Y-106004D01*
X-68603Y-105993D01*
X-68637Y-105977D01*
X-68670Y-105960D01*
X-68709Y-105944D01*
X-68797Y-105916D01*
X-68803D01*
X-68814Y-105910D01*
X-68836D01*
X-68864Y-105905D01*
X-68903Y-105899D01*
X-68947D01*
X-69008Y-105894D01*
X-69661D01*
Y-107594D01*
X-70170D01*
Y-103762D01*
X-68393D01*
X-68349Y-103767D01*
D02*
G37*
G36*
X-58966Y-37954D02*
X-58910D01*
X-58855Y-37960D01*
X-58783Y-37966D01*
X-58711Y-37977D01*
X-58551Y-38004D01*
X-58373Y-38043D01*
X-58196Y-38098D01*
X-58024Y-38176D01*
X-58019Y-38181D01*
X-58002Y-38187D01*
X-57980Y-38198D01*
X-57952Y-38220D01*
X-57914Y-38242D01*
X-57869Y-38270D01*
X-57770Y-38342D01*
X-57659Y-38436D01*
X-57548Y-38547D01*
X-57438Y-38674D01*
X-57343Y-38824D01*
X-57338Y-38829D01*
X-57332Y-38846D01*
X-57321Y-38868D01*
X-57305Y-38896D01*
X-57288Y-38940D01*
X-57271Y-38984D01*
X-57249Y-39040D01*
X-57227Y-39101D01*
X-57205Y-39167D01*
X-57183Y-39239D01*
X-57150Y-39394D01*
X-57122Y-39571D01*
X-57111Y-39754D01*
Y-39809D01*
X-57116Y-39848D01*
X-57122Y-39898D01*
X-57127Y-39959D01*
X-57133Y-40020D01*
X-57150Y-40092D01*
X-57183Y-40241D01*
X-57233Y-40407D01*
X-57266Y-40490D01*
X-57305Y-40568D01*
X-57354Y-40645D01*
X-57404Y-40723D01*
X-57410Y-40729D01*
X-57415Y-40740D01*
X-57432Y-40762D01*
X-57460Y-40789D01*
X-57487Y-40817D01*
X-57526Y-40856D01*
X-57570Y-40895D01*
X-57615Y-40939D01*
X-57670Y-40983D01*
X-57737Y-41027D01*
X-57803Y-41077D01*
X-57875Y-41122D01*
X-57958Y-41160D01*
X-58041Y-41205D01*
X-58130Y-41238D01*
X-58229Y-41271D01*
X-58346Y-40773D01*
X-58340D01*
X-58329Y-40767D01*
X-58307Y-40756D01*
X-58279Y-40745D01*
X-58246Y-40734D01*
X-58202Y-40717D01*
X-58113Y-40673D01*
X-58013Y-40618D01*
X-57914Y-40551D01*
X-57820Y-40468D01*
X-57737Y-40380D01*
X-57725Y-40369D01*
X-57703Y-40335D01*
X-57676Y-40280D01*
X-57637Y-40208D01*
X-57604Y-40114D01*
X-57570Y-40009D01*
X-57548Y-39881D01*
X-57543Y-39743D01*
Y-39699D01*
X-57548Y-39671D01*
Y-39632D01*
X-57554Y-39588D01*
X-57570Y-39483D01*
X-57593Y-39366D01*
X-57631Y-39244D01*
X-57687Y-39117D01*
X-57759Y-39001D01*
Y-38995D01*
X-57770Y-38990D01*
X-57797Y-38951D01*
X-57842Y-38901D01*
X-57908Y-38840D01*
X-57991Y-38768D01*
X-58085Y-38702D01*
X-58202Y-38641D01*
X-58329Y-38586D01*
X-58334D01*
X-58346Y-38580D01*
X-58362Y-38575D01*
X-58390Y-38569D01*
X-58423Y-38558D01*
X-58462Y-38547D01*
X-58556Y-38530D01*
X-58667Y-38508D01*
X-58789Y-38486D01*
X-58921Y-38475D01*
X-59065Y-38469D01*
X-59071D01*
X-59088D01*
X-59115D01*
X-59149D01*
X-59187Y-38475D01*
X-59237D01*
X-59292Y-38480D01*
X-59353Y-38486D01*
X-59486Y-38503D01*
X-59630Y-38530D01*
X-59774Y-38563D01*
X-59918Y-38608D01*
X-59924D01*
X-59935Y-38613D01*
X-59951Y-38624D01*
X-59979Y-38635D01*
X-60045Y-38669D01*
X-60123Y-38719D01*
X-60212Y-38779D01*
X-60306Y-38857D01*
X-60389Y-38946D01*
X-60466Y-39051D01*
Y-39056D01*
X-60472Y-39067D01*
X-60483Y-39084D01*
X-60494Y-39106D01*
X-60505Y-39134D01*
X-60522Y-39167D01*
X-60555Y-39244D01*
X-60588Y-39344D01*
X-60616Y-39455D01*
X-60638Y-39577D01*
X-60644Y-39704D01*
Y-39743D01*
X-60638Y-39776D01*
Y-39815D01*
X-60633Y-39854D01*
X-60610Y-39953D01*
X-60583Y-40070D01*
X-60538Y-40186D01*
X-60477Y-40308D01*
X-60444Y-40369D01*
X-60400Y-40424D01*
X-60394Y-40430D01*
X-60389Y-40435D01*
X-60372Y-40452D01*
X-60356Y-40474D01*
X-60328Y-40496D01*
X-60295Y-40524D01*
X-60262Y-40557D01*
X-60217Y-40585D01*
X-60167Y-40618D01*
X-60112Y-40656D01*
X-60057Y-40690D01*
X-59990Y-40723D01*
X-59918Y-40751D01*
X-59841Y-40778D01*
X-59758Y-40806D01*
X-59669Y-40828D01*
X-59796Y-41338D01*
X-59802D01*
X-59824Y-41332D01*
X-59857Y-41321D01*
X-59902Y-41304D01*
X-59951Y-41288D01*
X-60012Y-41266D01*
X-60079Y-41238D01*
X-60151Y-41205D01*
X-60306Y-41127D01*
X-60461Y-41027D01*
X-60538Y-40967D01*
X-60616Y-40906D01*
X-60682Y-40839D01*
X-60749Y-40762D01*
X-60754Y-40756D01*
X-60765Y-40745D01*
X-60776Y-40717D01*
X-60799Y-40690D01*
X-60826Y-40645D01*
X-60854Y-40601D01*
X-60882Y-40540D01*
X-60909Y-40479D01*
X-60943Y-40407D01*
X-60970Y-40330D01*
X-60998Y-40247D01*
X-61026Y-40158D01*
X-61048Y-40064D01*
X-61059Y-39964D01*
X-61070Y-39859D01*
X-61075Y-39748D01*
Y-39688D01*
X-61070Y-39643D01*
Y-39593D01*
X-61064Y-39532D01*
X-61053Y-39466D01*
X-61042Y-39388D01*
X-61014Y-39228D01*
X-60970Y-39062D01*
X-60909Y-38896D01*
X-60871Y-38818D01*
X-60826Y-38741D01*
X-60821Y-38735D01*
X-60815Y-38724D01*
X-60799Y-38702D01*
X-60776Y-38680D01*
X-60754Y-38647D01*
X-60721Y-38608D01*
X-60682Y-38563D01*
X-60638Y-38519D01*
X-60588Y-38475D01*
X-60538Y-38425D01*
X-60411Y-38325D01*
X-60262Y-38231D01*
X-60095Y-38148D01*
X-60090D01*
X-60073Y-38137D01*
X-60045Y-38132D01*
X-60012Y-38115D01*
X-59968Y-38104D01*
X-59913Y-38087D01*
X-59852Y-38065D01*
X-59785Y-38049D01*
X-59713Y-38032D01*
X-59630Y-38010D01*
X-59459Y-37982D01*
X-59265Y-37960D01*
X-59065Y-37949D01*
X-59060D01*
X-59038D01*
X-59005D01*
X-58966Y-37954D01*
D02*
G37*
G36*
X-58362Y-41775D02*
X-58312Y-41781D01*
X-58252Y-41786D01*
X-58191Y-41797D01*
X-58119Y-41814D01*
X-57975Y-41853D01*
X-57897Y-41880D01*
X-57814Y-41913D01*
X-57737Y-41952D01*
X-57664Y-42002D01*
X-57587Y-42052D01*
X-57521Y-42113D01*
X-57515Y-42118D01*
X-57504Y-42129D01*
X-57487Y-42146D01*
X-57465Y-42174D01*
X-57438Y-42207D01*
X-57404Y-42251D01*
X-57377Y-42295D01*
X-57338Y-42351D01*
X-57305Y-42406D01*
X-57277Y-42473D01*
X-57216Y-42622D01*
X-57194Y-42700D01*
X-57177Y-42788D01*
X-57166Y-42877D01*
X-57161Y-42971D01*
Y-43010D01*
X-57166Y-43038D01*
Y-43065D01*
X-57172Y-43104D01*
X-57188Y-43198D01*
X-57210Y-43303D01*
X-57249Y-43420D01*
X-57299Y-43536D01*
X-57365Y-43652D01*
Y-43658D01*
X-57377Y-43663D01*
X-57388Y-43680D01*
X-57404Y-43702D01*
X-57449Y-43757D01*
X-57509Y-43829D01*
X-57593Y-43901D01*
X-57692Y-43984D01*
X-57808Y-44056D01*
X-57941Y-44123D01*
X-57947D01*
X-57958Y-44128D01*
X-57980Y-44139D01*
X-58008Y-44151D01*
X-58047Y-44162D01*
X-58096Y-44178D01*
X-58152Y-44189D01*
X-58213Y-44206D01*
X-58285Y-44222D01*
X-58368Y-44239D01*
X-58456Y-44250D01*
X-58551Y-44261D01*
X-58656Y-44272D01*
X-58766Y-44283D01*
X-58888Y-44289D01*
X-59016D01*
X-59021D01*
X-59049D01*
X-59088D01*
X-59137D01*
X-59198Y-44283D01*
X-59270D01*
X-59353Y-44278D01*
X-59436Y-44267D01*
X-59625Y-44250D01*
X-59824Y-44222D01*
X-60012Y-44184D01*
X-60106Y-44156D01*
X-60189Y-44128D01*
X-60195D01*
X-60206Y-44123D01*
X-60228Y-44112D01*
X-60262Y-44101D01*
X-60295Y-44084D01*
X-60339Y-44062D01*
X-60433Y-44007D01*
X-60538Y-43940D01*
X-60649Y-43863D01*
X-60754Y-43763D01*
X-60848Y-43652D01*
Y-43647D01*
X-60859Y-43636D01*
X-60871Y-43619D01*
X-60882Y-43597D01*
X-60898Y-43564D01*
X-60920Y-43530D01*
X-60943Y-43486D01*
X-60959Y-43442D01*
X-61003Y-43337D01*
X-61042Y-43209D01*
X-61064Y-43071D01*
X-61075Y-42916D01*
Y-42871D01*
X-61070Y-42844D01*
Y-42805D01*
X-61064Y-42761D01*
X-61042Y-42656D01*
X-61014Y-42539D01*
X-60970Y-42417D01*
X-60909Y-42295D01*
X-60871Y-42235D01*
X-60826Y-42179D01*
X-60821Y-42174D01*
X-60815Y-42168D01*
X-60799Y-42152D01*
X-60782Y-42135D01*
X-60754Y-42113D01*
X-60721Y-42085D01*
X-60644Y-42030D01*
X-60544Y-41974D01*
X-60422Y-41919D01*
X-60284Y-41875D01*
X-60123Y-41842D01*
X-60084Y-42295D01*
X-60090D01*
X-60101Y-42301D01*
X-60112D01*
X-60134Y-42307D01*
X-60195Y-42323D01*
X-60262Y-42345D01*
X-60339Y-42373D01*
X-60416Y-42412D01*
X-60489Y-42456D01*
X-60549Y-42512D01*
X-60555Y-42517D01*
X-60572Y-42539D01*
X-60594Y-42578D01*
X-60616Y-42622D01*
X-60644Y-42683D01*
X-60666Y-42755D01*
X-60682Y-42838D01*
X-60688Y-42927D01*
Y-42965D01*
X-60682Y-43004D01*
X-60677Y-43054D01*
X-60666Y-43115D01*
X-60649Y-43176D01*
X-60627Y-43242D01*
X-60594Y-43303D01*
X-60588Y-43309D01*
X-60577Y-43331D01*
X-60555Y-43364D01*
X-60522Y-43397D01*
X-60483Y-43442D01*
X-60439Y-43486D01*
X-60389Y-43530D01*
X-60328Y-43575D01*
X-60322Y-43580D01*
X-60295Y-43591D01*
X-60256Y-43613D01*
X-60206Y-43636D01*
X-60140Y-43663D01*
X-60062Y-43691D01*
X-59974Y-43719D01*
X-59874Y-43746D01*
X-59868D01*
X-59863Y-43752D01*
X-59846D01*
X-59824Y-43757D01*
X-59769Y-43768D01*
X-59697Y-43785D01*
X-59608Y-43796D01*
X-59514Y-43807D01*
X-59409Y-43813D01*
X-59298Y-43818D01*
X-59292D01*
X-59276D01*
X-59248D01*
X-59204D01*
X-59215Y-43813D01*
X-59243Y-43791D01*
X-59281Y-43757D01*
X-59337Y-43719D01*
X-59392Y-43663D01*
X-59453Y-43597D01*
X-59514Y-43519D01*
X-59569Y-43431D01*
X-59575Y-43420D01*
X-59591Y-43386D01*
X-59614Y-43337D01*
X-59636Y-43276D01*
X-59664Y-43193D01*
X-59686Y-43104D01*
X-59702Y-43004D01*
X-59708Y-42899D01*
Y-42855D01*
X-59702Y-42822D01*
X-59697Y-42777D01*
X-59691Y-42733D01*
X-59680Y-42678D01*
X-59664Y-42622D01*
X-59625Y-42495D01*
X-59597Y-42428D01*
X-59564Y-42362D01*
X-59525Y-42290D01*
X-59475Y-42224D01*
X-59425Y-42157D01*
X-59364Y-42096D01*
X-59359Y-42091D01*
X-59348Y-42080D01*
X-59331Y-42069D01*
X-59303Y-42046D01*
X-59265Y-42019D01*
X-59226Y-41991D01*
X-59176Y-41963D01*
X-59121Y-41936D01*
X-59060Y-41902D01*
X-58994Y-41875D01*
X-58916Y-41847D01*
X-58838Y-41819D01*
X-58750Y-41797D01*
X-58656Y-41786D01*
X-58562Y-41775D01*
X-58456Y-41769D01*
X-58451D01*
X-58429D01*
X-58401D01*
X-58362Y-41775D01*
D02*
G37*
G36*
X-71309Y-37954D02*
X-71254D01*
X-71199Y-37960D01*
X-71127Y-37966D01*
X-71055Y-37977D01*
X-70894Y-38004D01*
X-70717Y-38043D01*
X-70540Y-38098D01*
X-70368Y-38176D01*
X-70362Y-38181D01*
X-70346Y-38187D01*
X-70324Y-38198D01*
X-70296Y-38220D01*
X-70257Y-38242D01*
X-70213Y-38270D01*
X-70113Y-38342D01*
X-70002Y-38436D01*
X-69892Y-38547D01*
X-69781Y-38674D01*
X-69687Y-38824D01*
X-69681Y-38829D01*
X-69676Y-38846D01*
X-69665Y-38868D01*
X-69648Y-38896D01*
X-69632Y-38940D01*
X-69615Y-38984D01*
X-69593Y-39040D01*
X-69571Y-39101D01*
X-69549Y-39167D01*
X-69526Y-39239D01*
X-69493Y-39394D01*
X-69465Y-39571D01*
X-69454Y-39754D01*
Y-39809D01*
X-69460Y-39848D01*
X-69465Y-39898D01*
X-69471Y-39959D01*
X-69476Y-40020D01*
X-69493Y-40092D01*
X-69526Y-40241D01*
X-69576Y-40407D01*
X-69609Y-40490D01*
X-69648Y-40568D01*
X-69698Y-40645D01*
X-69748Y-40723D01*
X-69753Y-40729D01*
X-69759Y-40740D01*
X-69776Y-40762D01*
X-69803Y-40789D01*
X-69831Y-40817D01*
X-69870Y-40856D01*
X-69914Y-40895D01*
X-69958Y-40939D01*
X-70014Y-40983D01*
X-70080Y-41027D01*
X-70146Y-41077D01*
X-70219Y-41122D01*
X-70301Y-41160D01*
X-70385Y-41205D01*
X-70473Y-41238D01*
X-70573Y-41271D01*
X-70689Y-40773D01*
X-70684D01*
X-70672Y-40767D01*
X-70650Y-40756D01*
X-70623Y-40745D01*
X-70589Y-40734D01*
X-70545Y-40717D01*
X-70457Y-40673D01*
X-70357Y-40618D01*
X-70257Y-40551D01*
X-70163Y-40468D01*
X-70080Y-40380D01*
X-70069Y-40369D01*
X-70047Y-40335D01*
X-70019Y-40280D01*
X-69980Y-40208D01*
X-69947Y-40114D01*
X-69914Y-40009D01*
X-69892Y-39881D01*
X-69886Y-39743D01*
Y-39699D01*
X-69892Y-39671D01*
Y-39632D01*
X-69897Y-39588D01*
X-69914Y-39483D01*
X-69936Y-39366D01*
X-69975Y-39244D01*
X-70030Y-39117D01*
X-70102Y-39001D01*
Y-38995D01*
X-70113Y-38990D01*
X-70141Y-38951D01*
X-70185Y-38901D01*
X-70252Y-38840D01*
X-70335Y-38768D01*
X-70429Y-38702D01*
X-70545Y-38641D01*
X-70672Y-38586D01*
X-70678D01*
X-70689Y-38580D01*
X-70706Y-38575D01*
X-70733Y-38569D01*
X-70767Y-38558D01*
X-70805Y-38547D01*
X-70900Y-38530D01*
X-71010Y-38508D01*
X-71132Y-38486D01*
X-71265Y-38475D01*
X-71409Y-38469D01*
X-71414D01*
X-71431D01*
X-71459D01*
X-71492D01*
X-71531Y-38475D01*
X-71581D01*
X-71636Y-38480D01*
X-71697Y-38486D01*
X-71830Y-38503D01*
X-71974Y-38530D01*
X-72118Y-38563D01*
X-72262Y-38608D01*
X-72267D01*
X-72278Y-38613D01*
X-72295Y-38624D01*
X-72323Y-38635D01*
X-72389Y-38669D01*
X-72467Y-38719D01*
X-72555Y-38779D01*
X-72649Y-38857D01*
X-72732Y-38946D01*
X-72810Y-39051D01*
Y-39056D01*
X-72815Y-39067D01*
X-72826Y-39084D01*
X-72838Y-39106D01*
X-72849Y-39134D01*
X-72865Y-39167D01*
X-72899Y-39244D01*
X-72932Y-39344D01*
X-72959Y-39455D01*
X-72982Y-39577D01*
X-72987Y-39704D01*
Y-39743D01*
X-72982Y-39776D01*
Y-39815D01*
X-72976Y-39854D01*
X-72954Y-39953D01*
X-72926Y-40070D01*
X-72882Y-40186D01*
X-72821Y-40308D01*
X-72788Y-40369D01*
X-72743Y-40424D01*
X-72738Y-40430D01*
X-72732Y-40435D01*
X-72716Y-40452D01*
X-72699Y-40474D01*
X-72671Y-40496D01*
X-72638Y-40524D01*
X-72605Y-40557D01*
X-72561Y-40585D01*
X-72511Y-40618D01*
X-72456Y-40656D01*
X-72400Y-40690D01*
X-72334Y-40723D01*
X-72262Y-40751D01*
X-72184Y-40778D01*
X-72101Y-40806D01*
X-72013Y-40828D01*
X-72140Y-41338D01*
X-72145D01*
X-72168Y-41332D01*
X-72201Y-41321D01*
X-72245Y-41304D01*
X-72295Y-41288D01*
X-72356Y-41266D01*
X-72422Y-41238D01*
X-72494Y-41205D01*
X-72649Y-41127D01*
X-72804Y-41027D01*
X-72882Y-40967D01*
X-72959Y-40906D01*
X-73026Y-40839D01*
X-73092Y-40762D01*
X-73098Y-40756D01*
X-73109Y-40745D01*
X-73120Y-40717D01*
X-73142Y-40690D01*
X-73170Y-40645D01*
X-73197Y-40601D01*
X-73225Y-40540D01*
X-73253Y-40479D01*
X-73286Y-40407D01*
X-73314Y-40330D01*
X-73341Y-40247D01*
X-73369Y-40158D01*
X-73391Y-40064D01*
X-73402Y-39964D01*
X-73413Y-39859D01*
X-73419Y-39748D01*
Y-39688D01*
X-73413Y-39643D01*
Y-39593D01*
X-73408Y-39532D01*
X-73397Y-39466D01*
X-73386Y-39388D01*
X-73358Y-39228D01*
X-73314Y-39062D01*
X-73253Y-38896D01*
X-73214Y-38818D01*
X-73170Y-38741D01*
X-73164Y-38735D01*
X-73159Y-38724D01*
X-73142Y-38702D01*
X-73120Y-38680D01*
X-73098Y-38647D01*
X-73065Y-38608D01*
X-73026Y-38563D01*
X-72982Y-38519D01*
X-72932Y-38475D01*
X-72882Y-38425D01*
X-72755Y-38325D01*
X-72605Y-38231D01*
X-72439Y-38148D01*
X-72433D01*
X-72417Y-38137D01*
X-72389Y-38132D01*
X-72356Y-38115D01*
X-72312Y-38104D01*
X-72256Y-38087D01*
X-72195Y-38065D01*
X-72129Y-38049D01*
X-72057Y-38032D01*
X-71974Y-38010D01*
X-71802Y-37982D01*
X-71608Y-37960D01*
X-71409Y-37949D01*
X-71403D01*
X-71381D01*
X-71348D01*
X-71309Y-37954D01*
D02*
G37*
G36*
X-72190Y-41769D02*
X-72157D01*
X-72118Y-41775D01*
X-72029Y-41786D01*
X-71929Y-41808D01*
X-71830Y-41842D01*
X-71725Y-41891D01*
X-71625Y-41952D01*
X-71619D01*
X-71614Y-41963D01*
X-71586Y-41986D01*
X-71542Y-42030D01*
X-71487Y-42091D01*
X-71431Y-42168D01*
X-71370Y-42262D01*
X-71320Y-42368D01*
X-71282Y-42495D01*
Y-42489D01*
X-71276Y-42484D01*
X-71270Y-42467D01*
X-71259Y-42445D01*
X-71237Y-42395D01*
X-71204Y-42329D01*
X-71160Y-42257D01*
X-71104Y-42185D01*
X-71044Y-42118D01*
X-70977Y-42057D01*
X-70966Y-42052D01*
X-70944Y-42035D01*
X-70900Y-42013D01*
X-70844Y-41991D01*
X-70772Y-41963D01*
X-70689Y-41941D01*
X-70595Y-41925D01*
X-70495Y-41919D01*
X-70490D01*
X-70479D01*
X-70457D01*
X-70423Y-41925D01*
X-70390Y-41930D01*
X-70346Y-41936D01*
X-70252Y-41958D01*
X-70141Y-41991D01*
X-70025Y-42046D01*
X-69964Y-42080D01*
X-69903Y-42118D01*
X-69847Y-42168D01*
X-69792Y-42218D01*
X-69787Y-42224D01*
X-69781Y-42235D01*
X-69764Y-42251D01*
X-69748Y-42273D01*
X-69726Y-42301D01*
X-69703Y-42340D01*
X-69676Y-42384D01*
X-69648Y-42428D01*
X-69620Y-42484D01*
X-69593Y-42545D01*
X-69571Y-42611D01*
X-69549Y-42683D01*
X-69515Y-42838D01*
X-69510Y-42927D01*
X-69504Y-43015D01*
Y-43065D01*
X-69510Y-43098D01*
X-69515Y-43143D01*
X-69521Y-43193D01*
X-69526Y-43248D01*
X-69543Y-43303D01*
X-69576Y-43436D01*
X-69626Y-43569D01*
X-69659Y-43636D01*
X-69698Y-43702D01*
X-69748Y-43763D01*
X-69798Y-43824D01*
X-69803Y-43829D01*
X-69809Y-43835D01*
X-69825Y-43851D01*
X-69847Y-43874D01*
X-69881Y-43896D01*
X-69914Y-43924D01*
X-69997Y-43979D01*
X-70102Y-44034D01*
X-70224Y-44084D01*
X-70362Y-44123D01*
X-70434Y-44128D01*
X-70512Y-44134D01*
X-70518D01*
X-70523D01*
X-70556D01*
X-70606Y-44128D01*
X-70667Y-44117D01*
X-70745Y-44101D01*
X-70822Y-44073D01*
X-70900Y-44040D01*
X-70977Y-43990D01*
X-70988Y-43984D01*
X-71010Y-43962D01*
X-71044Y-43929D01*
X-71088Y-43885D01*
X-71138Y-43824D01*
X-71188Y-43752D01*
X-71237Y-43669D01*
X-71282Y-43569D01*
Y-43575D01*
X-71287Y-43586D01*
X-71293Y-43602D01*
X-71304Y-43625D01*
X-71332Y-43691D01*
X-71370Y-43768D01*
X-71426Y-43851D01*
X-71487Y-43940D01*
X-71564Y-44023D01*
X-71653Y-44101D01*
X-71658D01*
X-71664Y-44106D01*
X-71697Y-44128D01*
X-71752Y-44162D01*
X-71824Y-44195D01*
X-71913Y-44228D01*
X-72018Y-44261D01*
X-72134Y-44283D01*
X-72262Y-44289D01*
X-72267D01*
X-72284D01*
X-72312D01*
X-72345Y-44283D01*
X-72383Y-44278D01*
X-72433Y-44272D01*
X-72489Y-44261D01*
X-72550Y-44245D01*
X-72677Y-44206D01*
X-72749Y-44178D01*
X-72815Y-44139D01*
X-72887Y-44101D01*
X-72954Y-44056D01*
X-73020Y-44001D01*
X-73087Y-43940D01*
X-73092Y-43935D01*
X-73103Y-43924D01*
X-73120Y-43907D01*
X-73137Y-43879D01*
X-73164Y-43840D01*
X-73192Y-43802D01*
X-73220Y-43752D01*
X-73253Y-43696D01*
X-73286Y-43636D01*
X-73314Y-43564D01*
X-73341Y-43486D01*
X-73369Y-43408D01*
X-73386Y-43320D01*
X-73402Y-43226D01*
X-73413Y-43132D01*
X-73419Y-43026D01*
Y-42971D01*
X-73413Y-42932D01*
X-73408Y-42882D01*
X-73402Y-42827D01*
X-73391Y-42766D01*
X-73375Y-42700D01*
X-73336Y-42550D01*
X-73308Y-42473D01*
X-73281Y-42401D01*
X-73242Y-42323D01*
X-73197Y-42246D01*
X-73148Y-42174D01*
X-73087Y-42107D01*
X-73081Y-42102D01*
X-73070Y-42091D01*
X-73053Y-42074D01*
X-73026Y-42052D01*
X-72993Y-42030D01*
X-72954Y-41996D01*
X-72910Y-41969D01*
X-72854Y-41936D01*
X-72799Y-41902D01*
X-72732Y-41875D01*
X-72594Y-41819D01*
X-72511Y-41797D01*
X-72428Y-41781D01*
X-72339Y-41769D01*
X-72251Y-41764D01*
X-72245D01*
X-72234D01*
X-72212D01*
X-72190Y-41769D01*
D02*
G37*
G36*
X-65356Y-78893D02*
X-65345Y-78904D01*
X-65323Y-78926D01*
X-65289Y-78948D01*
X-65251Y-78982D01*
X-65206Y-79026D01*
X-65151Y-79070D01*
X-65085Y-79120D01*
X-65018Y-79170D01*
X-64941Y-79231D01*
X-64852Y-79292D01*
X-64763Y-79353D01*
X-64664Y-79419D01*
X-64559Y-79486D01*
X-64442Y-79552D01*
X-64326Y-79619D01*
X-64320Y-79624D01*
X-64298Y-79635D01*
X-64265Y-79652D01*
X-64215Y-79679D01*
X-64154Y-79707D01*
X-64088Y-79740D01*
X-64010Y-79779D01*
X-63922Y-79818D01*
X-63822Y-79862D01*
X-63722Y-79912D01*
X-63612Y-79956D01*
X-63495Y-80001D01*
X-63257Y-80089D01*
X-63003Y-80172D01*
X-62997D01*
X-62980Y-80178D01*
X-62953Y-80183D01*
X-62920Y-80194D01*
X-62875Y-80205D01*
X-62820Y-80217D01*
X-62759Y-80233D01*
X-62692Y-80244D01*
X-62615Y-80261D01*
X-62532Y-80277D01*
X-62355Y-80305D01*
X-62161Y-80333D01*
X-61950Y-80349D01*
Y-80831D01*
X-61956D01*
X-61973D01*
X-61995D01*
X-62028Y-80826D01*
X-62072D01*
X-62128Y-80820D01*
X-62189Y-80815D01*
X-62255Y-80809D01*
X-62333Y-80798D01*
X-62410Y-80787D01*
X-62504Y-80770D01*
X-62598Y-80754D01*
X-62698Y-80737D01*
X-62809Y-80715D01*
X-63036Y-80660D01*
X-63041D01*
X-63063Y-80654D01*
X-63097Y-80643D01*
X-63147Y-80626D01*
X-63202Y-80610D01*
X-63268Y-80588D01*
X-63346Y-80565D01*
X-63429Y-80532D01*
X-63523Y-80499D01*
X-63617Y-80466D01*
X-63828Y-80383D01*
X-64049Y-80283D01*
X-64271Y-80172D01*
X-64276Y-80167D01*
X-64298Y-80156D01*
X-64326Y-80139D01*
X-64370Y-80117D01*
X-64420Y-80089D01*
X-64481Y-80050D01*
X-64547Y-80012D01*
X-64619Y-79967D01*
X-64780Y-79862D01*
X-64946Y-79751D01*
X-65118Y-79624D01*
X-65278Y-79491D01*
Y-81368D01*
X-65732D01*
Y-78888D01*
X-65361D01*
X-65356Y-78893D01*
D02*
G37*
G36*
X-63135Y-81839D02*
X-63102Y-81850D01*
X-63058Y-81867D01*
X-63008Y-81883D01*
X-62947Y-81905D01*
X-62881Y-81933D01*
X-62809Y-81966D01*
X-62654Y-82044D01*
X-62499Y-82143D01*
X-62421Y-82204D01*
X-62344Y-82265D01*
X-62277Y-82332D01*
X-62211Y-82409D01*
X-62205Y-82415D01*
X-62194Y-82426D01*
X-62183Y-82454D01*
X-62161Y-82481D01*
X-62133Y-82526D01*
X-62105Y-82570D01*
X-62078Y-82631D01*
X-62050Y-82692D01*
X-62017Y-82764D01*
X-61989Y-82841D01*
X-61961Y-82924D01*
X-61934Y-83013D01*
X-61912Y-83107D01*
X-61901Y-83207D01*
X-61890Y-83312D01*
X-61884Y-83423D01*
Y-83483D01*
X-61890Y-83528D01*
Y-83578D01*
X-61895Y-83638D01*
X-61906Y-83705D01*
X-61917Y-83783D01*
X-61945Y-83943D01*
X-61989Y-84109D01*
X-62050Y-84275D01*
X-62089Y-84353D01*
X-62133Y-84430D01*
X-62139Y-84436D01*
X-62144Y-84447D01*
X-62161Y-84469D01*
X-62183Y-84491D01*
X-62205Y-84524D01*
X-62238Y-84563D01*
X-62277Y-84607D01*
X-62321Y-84652D01*
X-62371Y-84696D01*
X-62421Y-84746D01*
X-62548Y-84846D01*
X-62698Y-84940D01*
X-62864Y-85023D01*
X-62870D01*
X-62886Y-85034D01*
X-62914Y-85039D01*
X-62947Y-85056D01*
X-62991Y-85067D01*
X-63047Y-85084D01*
X-63108Y-85106D01*
X-63174Y-85122D01*
X-63246Y-85139D01*
X-63329Y-85161D01*
X-63501Y-85189D01*
X-63695Y-85211D01*
X-63894Y-85222D01*
X-63899D01*
X-63922D01*
X-63955D01*
X-63994Y-85217D01*
X-64049D01*
X-64104Y-85211D01*
X-64176Y-85205D01*
X-64248Y-85195D01*
X-64409Y-85167D01*
X-64586Y-85128D01*
X-64763Y-85073D01*
X-64935Y-84995D01*
X-64941Y-84990D01*
X-64957Y-84984D01*
X-64979Y-84973D01*
X-65007Y-84951D01*
X-65046Y-84929D01*
X-65090Y-84901D01*
X-65190Y-84829D01*
X-65300Y-84735D01*
X-65411Y-84624D01*
X-65522Y-84497D01*
X-65616Y-84347D01*
X-65622Y-84342D01*
X-65627Y-84325D01*
X-65638Y-84303D01*
X-65655Y-84275D01*
X-65671Y-84231D01*
X-65688Y-84187D01*
X-65710Y-84131D01*
X-65732Y-84070D01*
X-65754Y-84004D01*
X-65777Y-83932D01*
X-65810Y-83777D01*
X-65838Y-83600D01*
X-65849Y-83417D01*
Y-83362D01*
X-65843Y-83323D01*
X-65838Y-83273D01*
X-65832Y-83212D01*
X-65827Y-83151D01*
X-65810Y-83079D01*
X-65777Y-82930D01*
X-65727Y-82764D01*
X-65694Y-82681D01*
X-65655Y-82603D01*
X-65605Y-82526D01*
X-65555Y-82448D01*
X-65550Y-82443D01*
X-65544Y-82431D01*
X-65528Y-82409D01*
X-65500Y-82382D01*
X-65472Y-82354D01*
X-65433Y-82315D01*
X-65389Y-82276D01*
X-65345Y-82232D01*
X-65289Y-82188D01*
X-65223Y-82143D01*
X-65156Y-82094D01*
X-65085Y-82049D01*
X-65001Y-82011D01*
X-64918Y-81966D01*
X-64830Y-81933D01*
X-64730Y-81900D01*
X-64614Y-82398D01*
X-64619D01*
X-64630Y-82404D01*
X-64653Y-82415D01*
X-64680Y-82426D01*
X-64714Y-82437D01*
X-64758Y-82454D01*
X-64846Y-82498D01*
X-64946Y-82553D01*
X-65046Y-82620D01*
X-65140Y-82703D01*
X-65223Y-82791D01*
X-65234Y-82802D01*
X-65256Y-82836D01*
X-65284Y-82891D01*
X-65323Y-82963D01*
X-65356Y-83057D01*
X-65389Y-83162D01*
X-65411Y-83290D01*
X-65417Y-83428D01*
Y-83472D01*
X-65411Y-83500D01*
Y-83539D01*
X-65406Y-83583D01*
X-65389Y-83688D01*
X-65367Y-83805D01*
X-65328Y-83926D01*
X-65273Y-84054D01*
X-65201Y-84170D01*
Y-84176D01*
X-65190Y-84181D01*
X-65162Y-84220D01*
X-65118Y-84270D01*
X-65051Y-84331D01*
X-64968Y-84403D01*
X-64874Y-84469D01*
X-64758Y-84530D01*
X-64630Y-84585D01*
X-64625D01*
X-64614Y-84591D01*
X-64597Y-84597D01*
X-64570Y-84602D01*
X-64536Y-84613D01*
X-64498Y-84624D01*
X-64403Y-84641D01*
X-64293Y-84663D01*
X-64171Y-84685D01*
X-64038Y-84696D01*
X-63894Y-84702D01*
X-63889D01*
X-63872D01*
X-63844D01*
X-63811D01*
X-63772Y-84696D01*
X-63722D01*
X-63667Y-84691D01*
X-63606Y-84685D01*
X-63473Y-84668D01*
X-63329Y-84641D01*
X-63185Y-84607D01*
X-63041Y-84563D01*
X-63036D01*
X-63025Y-84558D01*
X-63008Y-84547D01*
X-62980Y-84536D01*
X-62914Y-84502D01*
X-62836Y-84452D01*
X-62748Y-84392D01*
X-62654Y-84314D01*
X-62571Y-84226D01*
X-62493Y-84120D01*
Y-84115D01*
X-62488Y-84104D01*
X-62477Y-84087D01*
X-62465Y-84065D01*
X-62454Y-84037D01*
X-62438Y-84004D01*
X-62404Y-83926D01*
X-62371Y-83827D01*
X-62344Y-83716D01*
X-62321Y-83594D01*
X-62316Y-83467D01*
Y-83428D01*
X-62321Y-83395D01*
Y-83356D01*
X-62327Y-83317D01*
X-62349Y-83218D01*
X-62377Y-83101D01*
X-62421Y-82985D01*
X-62482Y-82863D01*
X-62515Y-82802D01*
X-62559Y-82747D01*
X-62565Y-82741D01*
X-62571Y-82736D01*
X-62587Y-82719D01*
X-62604Y-82697D01*
X-62632Y-82675D01*
X-62665Y-82647D01*
X-62698Y-82614D01*
X-62742Y-82586D01*
X-62792Y-82553D01*
X-62847Y-82514D01*
X-62903Y-82481D01*
X-62969Y-82448D01*
X-63041Y-82420D01*
X-63119Y-82393D01*
X-63202Y-82365D01*
X-63290Y-82343D01*
X-63163Y-81833D01*
X-63158D01*
X-63135Y-81839D01*
D02*
G37*
G36*
X-77190Y-78893D02*
X-77157D01*
X-77068Y-78910D01*
X-76963Y-78926D01*
X-76852Y-78954D01*
X-76731Y-78993D01*
X-76614Y-79048D01*
X-76609D01*
X-76603Y-79054D01*
X-76587Y-79065D01*
X-76564Y-79076D01*
X-76509Y-79109D01*
X-76437Y-79159D01*
X-76360Y-79220D01*
X-76282Y-79292D01*
X-76205Y-79380D01*
X-76138Y-79475D01*
Y-79480D01*
X-76133Y-79486D01*
X-76122Y-79502D01*
X-76116Y-79524D01*
X-76088Y-79580D01*
X-76061Y-79652D01*
X-76027Y-79746D01*
X-76005Y-79851D01*
X-75983Y-79967D01*
X-75978Y-80095D01*
Y-80122D01*
X-75983Y-80150D01*
Y-80194D01*
X-75989Y-80244D01*
X-76000Y-80300D01*
X-76016Y-80366D01*
X-76033Y-80433D01*
X-76055Y-80510D01*
X-76083Y-80588D01*
X-76116Y-80665D01*
X-76160Y-80748D01*
X-76210Y-80826D01*
X-76266Y-80903D01*
X-76332Y-80981D01*
X-76409Y-81053D01*
X-76415Y-81058D01*
X-76432Y-81069D01*
X-76454Y-81086D01*
X-76493Y-81108D01*
X-76542Y-81141D01*
X-76598Y-81169D01*
X-76670Y-81202D01*
X-76747Y-81235D01*
X-76841Y-81274D01*
X-76947Y-81307D01*
X-77063Y-81335D01*
X-77190Y-81363D01*
X-77334Y-81390D01*
X-77489Y-81407D01*
X-77655Y-81418D01*
X-77832Y-81424D01*
X-77838D01*
X-77844D01*
X-77860D01*
X-77882D01*
X-77938Y-81418D01*
X-78015D01*
X-78104Y-81413D01*
X-78209Y-81402D01*
X-78325Y-81390D01*
X-78453Y-81374D01*
X-78580Y-81352D01*
X-78719Y-81324D01*
X-78851Y-81291D01*
X-78984Y-81252D01*
X-79112Y-81202D01*
X-79233Y-81147D01*
X-79350Y-81086D01*
X-79449Y-81014D01*
X-79455Y-81008D01*
X-79466Y-80997D01*
X-79488Y-80975D01*
X-79521Y-80947D01*
X-79555Y-80914D01*
X-79588Y-80870D01*
X-79632Y-80815D01*
X-79671Y-80759D01*
X-79710Y-80693D01*
X-79754Y-80621D01*
X-79787Y-80538D01*
X-79826Y-80455D01*
X-79854Y-80360D01*
X-79876Y-80261D01*
X-79887Y-80156D01*
X-79892Y-80045D01*
Y-80001D01*
X-79887Y-79967D01*
Y-79929D01*
X-79881Y-79884D01*
X-79859Y-79779D01*
X-79831Y-79663D01*
X-79787Y-79541D01*
X-79721Y-79419D01*
X-79682Y-79358D01*
X-79638Y-79303D01*
X-79632Y-79297D01*
X-79627Y-79292D01*
X-79610Y-79275D01*
X-79593Y-79259D01*
X-79566Y-79231D01*
X-79532Y-79209D01*
X-79455Y-79148D01*
X-79355Y-79087D01*
X-79233Y-79032D01*
X-79095Y-78982D01*
X-78940Y-78948D01*
X-78901Y-79419D01*
X-78907D01*
X-78912Y-79425D01*
X-78945Y-79430D01*
X-78995Y-79447D01*
X-79056Y-79469D01*
X-79123Y-79491D01*
X-79189Y-79524D01*
X-79250Y-79563D01*
X-79300Y-79602D01*
X-79311Y-79613D01*
X-79333Y-79635D01*
X-79366Y-79674D01*
X-79405Y-79729D01*
X-79438Y-79801D01*
X-79472Y-79879D01*
X-79494Y-79973D01*
X-79505Y-80073D01*
Y-80111D01*
X-79499Y-80156D01*
X-79488Y-80205D01*
X-79472Y-80272D01*
X-79449Y-80338D01*
X-79422Y-80405D01*
X-79377Y-80471D01*
X-79372Y-80482D01*
X-79350Y-80510D01*
X-79311Y-80549D01*
X-79256Y-80599D01*
X-79189Y-80654D01*
X-79112Y-80715D01*
X-79012Y-80770D01*
X-78901Y-80826D01*
X-78896D01*
X-78885Y-80831D01*
X-78868Y-80837D01*
X-78846Y-80848D01*
X-78813Y-80853D01*
X-78774Y-80864D01*
X-78730Y-80876D01*
X-78674Y-80886D01*
X-78613Y-80903D01*
X-78547Y-80914D01*
X-78475Y-80925D01*
X-78397Y-80931D01*
X-78309Y-80942D01*
X-78220Y-80947D01*
X-78120Y-80953D01*
X-78021D01*
X-78026Y-80947D01*
X-78060Y-80925D01*
X-78104Y-80886D01*
X-78159Y-80837D01*
X-78226Y-80781D01*
X-78287Y-80709D01*
X-78348Y-80632D01*
X-78403Y-80543D01*
Y-80538D01*
X-78408Y-80532D01*
X-78425Y-80499D01*
X-78442Y-80449D01*
X-78469Y-80383D01*
X-78491Y-80305D01*
X-78508Y-80217D01*
X-78525Y-80122D01*
X-78530Y-80023D01*
Y-79978D01*
X-78525Y-79945D01*
X-78519Y-79901D01*
X-78514Y-79857D01*
X-78502Y-79801D01*
X-78486Y-79746D01*
X-78447Y-79619D01*
X-78419Y-79552D01*
X-78381Y-79486D01*
X-78342Y-79419D01*
X-78298Y-79347D01*
X-78242Y-79281D01*
X-78181Y-79220D01*
X-78176Y-79214D01*
X-78165Y-79203D01*
X-78148Y-79187D01*
X-78120Y-79170D01*
X-78082Y-79142D01*
X-78043Y-79115D01*
X-77993Y-79087D01*
X-77938Y-79054D01*
X-77877Y-79021D01*
X-77810Y-78993D01*
X-77733Y-78965D01*
X-77655Y-78937D01*
X-77572Y-78921D01*
X-77478Y-78904D01*
X-77384Y-78893D01*
X-77284Y-78888D01*
X-77279D01*
X-77268D01*
X-77251D01*
X-77223D01*
X-77190Y-78893D01*
D02*
G37*
G36*
X-77229Y-81839D02*
X-77196Y-81850D01*
X-77151Y-81867D01*
X-77102Y-81883D01*
X-77041Y-81905D01*
X-76974Y-81933D01*
X-76902Y-81966D01*
X-76747Y-82044D01*
X-76592Y-82143D01*
X-76515Y-82204D01*
X-76437Y-82265D01*
X-76371Y-82332D01*
X-76304Y-82409D01*
X-76299Y-82415D01*
X-76288Y-82426D01*
X-76277Y-82454D01*
X-76254Y-82481D01*
X-76227Y-82526D01*
X-76199Y-82570D01*
X-76171Y-82631D01*
X-76144Y-82692D01*
X-76110Y-82764D01*
X-76083Y-82841D01*
X-76055Y-82924D01*
X-76027Y-83013D01*
X-76005Y-83107D01*
X-75994Y-83207D01*
X-75983Y-83312D01*
X-75978Y-83423D01*
Y-83483D01*
X-75983Y-83528D01*
Y-83578D01*
X-75989Y-83638D01*
X-76000Y-83705D01*
X-76011Y-83783D01*
X-76038Y-83943D01*
X-76083Y-84109D01*
X-76144Y-84275D01*
X-76182Y-84353D01*
X-76227Y-84430D01*
X-76232Y-84436D01*
X-76238Y-84447D01*
X-76254Y-84469D01*
X-76277Y-84491D01*
X-76299Y-84524D01*
X-76332Y-84563D01*
X-76371Y-84607D01*
X-76415Y-84652D01*
X-76465Y-84696D01*
X-76515Y-84746D01*
X-76642Y-84846D01*
X-76792Y-84940D01*
X-76958Y-85023D01*
X-76963D01*
X-76980Y-85034D01*
X-77007Y-85039D01*
X-77041Y-85056D01*
X-77085Y-85067D01*
X-77140Y-85084D01*
X-77201Y-85106D01*
X-77268Y-85122D01*
X-77340Y-85139D01*
X-77423Y-85161D01*
X-77594Y-85189D01*
X-77788Y-85211D01*
X-77988Y-85222D01*
X-77993D01*
X-78015D01*
X-78049D01*
X-78087Y-85217D01*
X-78143D01*
X-78198Y-85211D01*
X-78270Y-85205D01*
X-78342Y-85195D01*
X-78502Y-85167D01*
X-78680Y-85128D01*
X-78857Y-85073D01*
X-79029Y-84995D01*
X-79034Y-84990D01*
X-79051Y-84984D01*
X-79073Y-84973D01*
X-79100Y-84951D01*
X-79139Y-84929D01*
X-79184Y-84901D01*
X-79283Y-84829D01*
X-79394Y-84735D01*
X-79505Y-84624D01*
X-79616Y-84497D01*
X-79710Y-84347D01*
X-79715Y-84342D01*
X-79721Y-84325D01*
X-79732Y-84303D01*
X-79748Y-84275D01*
X-79765Y-84231D01*
X-79782Y-84187D01*
X-79804Y-84131D01*
X-79826Y-84070D01*
X-79848Y-84004D01*
X-79870Y-83932D01*
X-79903Y-83777D01*
X-79931Y-83600D01*
X-79942Y-83417D01*
Y-83362D01*
X-79937Y-83323D01*
X-79931Y-83273D01*
X-79926Y-83212D01*
X-79920Y-83151D01*
X-79903Y-83079D01*
X-79870Y-82930D01*
X-79820Y-82764D01*
X-79787Y-82681D01*
X-79748Y-82603D01*
X-79699Y-82526D01*
X-79649Y-82448D01*
X-79643Y-82443D01*
X-79638Y-82431D01*
X-79621Y-82409D01*
X-79593Y-82382D01*
X-79566Y-82354D01*
X-79527Y-82315D01*
X-79483Y-82276D01*
X-79438Y-82232D01*
X-79383Y-82188D01*
X-79317Y-82143D01*
X-79250Y-82094D01*
X-79178Y-82049D01*
X-79095Y-82011D01*
X-79012Y-81966D01*
X-78923Y-81933D01*
X-78824Y-81900D01*
X-78707Y-82398D01*
X-78713D01*
X-78724Y-82404D01*
X-78746Y-82415D01*
X-78774Y-82426D01*
X-78807Y-82437D01*
X-78851Y-82454D01*
X-78940Y-82498D01*
X-79040Y-82553D01*
X-79139Y-82620D01*
X-79233Y-82703D01*
X-79317Y-82791D01*
X-79328Y-82802D01*
X-79350Y-82836D01*
X-79377Y-82891D01*
X-79416Y-82963D01*
X-79449Y-83057D01*
X-79483Y-83162D01*
X-79505Y-83290D01*
X-79510Y-83428D01*
Y-83472D01*
X-79505Y-83500D01*
Y-83539D01*
X-79499Y-83583D01*
X-79483Y-83688D01*
X-79460Y-83805D01*
X-79422Y-83926D01*
X-79366Y-84054D01*
X-79294Y-84170D01*
Y-84176D01*
X-79283Y-84181D01*
X-79256Y-84220D01*
X-79211Y-84270D01*
X-79145Y-84331D01*
X-79062Y-84403D01*
X-78968Y-84469D01*
X-78851Y-84530D01*
X-78724Y-84585D01*
X-78719D01*
X-78707Y-84591D01*
X-78691Y-84597D01*
X-78663Y-84602D01*
X-78630Y-84613D01*
X-78591Y-84624D01*
X-78497Y-84641D01*
X-78386Y-84663D01*
X-78264Y-84685D01*
X-78131Y-84696D01*
X-77988Y-84702D01*
X-77982D01*
X-77965D01*
X-77938D01*
X-77905D01*
X-77866Y-84696D01*
X-77816D01*
X-77761Y-84691D01*
X-77700Y-84685D01*
X-77567Y-84668D01*
X-77423Y-84641D01*
X-77279Y-84607D01*
X-77135Y-84563D01*
X-77129D01*
X-77118Y-84558D01*
X-77102Y-84547D01*
X-77074Y-84536D01*
X-77007Y-84502D01*
X-76930Y-84452D01*
X-76841Y-84392D01*
X-76747Y-84314D01*
X-76664Y-84226D01*
X-76587Y-84120D01*
Y-84115D01*
X-76581Y-84104D01*
X-76570Y-84087D01*
X-76559Y-84065D01*
X-76548Y-84037D01*
X-76531Y-84004D01*
X-76498Y-83926D01*
X-76465Y-83827D01*
X-76437Y-83716D01*
X-76415Y-83594D01*
X-76409Y-83467D01*
Y-83428D01*
X-76415Y-83395D01*
Y-83356D01*
X-76420Y-83317D01*
X-76443Y-83218D01*
X-76470Y-83101D01*
X-76515Y-82985D01*
X-76576Y-82863D01*
X-76609Y-82802D01*
X-76653Y-82747D01*
X-76659Y-82741D01*
X-76664Y-82736D01*
X-76681Y-82719D01*
X-76697Y-82697D01*
X-76725Y-82675D01*
X-76758Y-82647D01*
X-76792Y-82614D01*
X-76836Y-82586D01*
X-76886Y-82553D01*
X-76941Y-82514D01*
X-76996Y-82481D01*
X-77063Y-82448D01*
X-77135Y-82420D01*
X-77212Y-82393D01*
X-77295Y-82365D01*
X-77384Y-82343D01*
X-77257Y-81833D01*
X-77251D01*
X-77229Y-81839D01*
D02*
G37*
G36*
X47523Y-53456D02*
X47579D01*
X47634Y-53461D01*
X47706Y-53467D01*
X47778Y-53478D01*
X47938Y-53505D01*
X48116Y-53544D01*
X48293Y-53600D01*
X48465Y-53677D01*
X48470Y-53682D01*
X48487Y-53688D01*
X48509Y-53699D01*
X48537Y-53721D01*
X48575Y-53744D01*
X48620Y-53771D01*
X48719Y-53843D01*
X48830Y-53937D01*
X48941Y-54048D01*
X49051Y-54175D01*
X49146Y-54325D01*
X49151Y-54330D01*
X49157Y-54347D01*
X49168Y-54369D01*
X49184Y-54397D01*
X49201Y-54441D01*
X49218Y-54485D01*
X49240Y-54541D01*
X49262Y-54602D01*
X49284Y-54668D01*
X49306Y-54740D01*
X49339Y-54895D01*
X49367Y-55072D01*
X49378Y-55255D01*
Y-55311D01*
X49373Y-55349D01*
X49367Y-55399D01*
X49362Y-55460D01*
X49356Y-55521D01*
X49339Y-55593D01*
X49306Y-55742D01*
X49256Y-55908D01*
X49223Y-55992D01*
X49184Y-56069D01*
X49135Y-56147D01*
X49085Y-56224D01*
X49079Y-56230D01*
X49074Y-56241D01*
X49057Y-56263D01*
X49029Y-56291D01*
X49002Y-56318D01*
X48963Y-56357D01*
X48919Y-56396D01*
X48874Y-56440D01*
X48819Y-56484D01*
X48752Y-56529D01*
X48686Y-56578D01*
X48614Y-56623D01*
X48531Y-56662D01*
X48448Y-56706D01*
X48359Y-56739D01*
X48260Y-56772D01*
X48143Y-56274D01*
X48149D01*
X48160Y-56268D01*
X48182Y-56257D01*
X48210Y-56246D01*
X48243Y-56235D01*
X48287Y-56219D01*
X48376Y-56174D01*
X48476Y-56119D01*
X48575Y-56052D01*
X48669Y-55969D01*
X48752Y-55881D01*
X48764Y-55870D01*
X48786Y-55837D01*
X48813Y-55781D01*
X48852Y-55709D01*
X48885Y-55615D01*
X48919Y-55510D01*
X48941Y-55382D01*
X48946Y-55244D01*
Y-55200D01*
X48941Y-55172D01*
Y-55133D01*
X48935Y-55089D01*
X48919Y-54984D01*
X48896Y-54868D01*
X48858Y-54746D01*
X48802Y-54618D01*
X48730Y-54502D01*
Y-54496D01*
X48719Y-54491D01*
X48692Y-54452D01*
X48647Y-54402D01*
X48581Y-54342D01*
X48498Y-54269D01*
X48404Y-54203D01*
X48287Y-54142D01*
X48160Y-54087D01*
X48155D01*
X48143Y-54081D01*
X48127Y-54076D01*
X48099Y-54070D01*
X48066Y-54059D01*
X48027Y-54048D01*
X47933Y-54031D01*
X47822Y-54009D01*
X47700Y-53987D01*
X47568Y-53976D01*
X47424Y-53970D01*
X47418D01*
X47401D01*
X47374D01*
X47340D01*
X47302Y-53976D01*
X47252D01*
X47197Y-53982D01*
X47136Y-53987D01*
X47003Y-54004D01*
X46859Y-54031D01*
X46715Y-54065D01*
X46571Y-54109D01*
X46565D01*
X46554Y-54114D01*
X46538Y-54125D01*
X46510Y-54137D01*
X46444Y-54170D01*
X46366Y-54220D01*
X46277Y-54281D01*
X46183Y-54358D01*
X46100Y-54447D01*
X46023Y-54552D01*
Y-54557D01*
X46017Y-54569D01*
X46006Y-54585D01*
X45995Y-54607D01*
X45984Y-54635D01*
X45967Y-54668D01*
X45934Y-54746D01*
X45901Y-54845D01*
X45873Y-54956D01*
X45851Y-55078D01*
X45845Y-55205D01*
Y-55244D01*
X45851Y-55277D01*
Y-55316D01*
X45857Y-55355D01*
X45879Y-55454D01*
X45906Y-55571D01*
X45951Y-55687D01*
X46012Y-55809D01*
X46045Y-55870D01*
X46089Y-55925D01*
X46095Y-55931D01*
X46100Y-55936D01*
X46117Y-55953D01*
X46133Y-55975D01*
X46161Y-55997D01*
X46194Y-56025D01*
X46227Y-56058D01*
X46272Y-56086D01*
X46322Y-56119D01*
X46377Y-56158D01*
X46432Y-56191D01*
X46499Y-56224D01*
X46571Y-56252D01*
X46648Y-56280D01*
X46731Y-56307D01*
X46820Y-56329D01*
X46693Y-56839D01*
X46687D01*
X46665Y-56833D01*
X46632Y-56822D01*
X46588Y-56806D01*
X46538Y-56789D01*
X46477Y-56767D01*
X46410Y-56739D01*
X46338Y-56706D01*
X46183Y-56628D01*
X46028Y-56529D01*
X45951Y-56468D01*
X45873Y-56407D01*
X45807Y-56340D01*
X45740Y-56263D01*
X45735Y-56257D01*
X45724Y-56246D01*
X45713Y-56219D01*
X45690Y-56191D01*
X45663Y-56147D01*
X45635Y-56102D01*
X45607Y-56041D01*
X45580Y-55981D01*
X45546Y-55908D01*
X45519Y-55831D01*
X45491Y-55748D01*
X45463Y-55659D01*
X45441Y-55565D01*
X45430Y-55465D01*
X45419Y-55360D01*
X45414Y-55250D01*
Y-55189D01*
X45419Y-55144D01*
Y-55094D01*
X45425Y-55034D01*
X45436Y-54967D01*
X45447Y-54890D01*
X45475Y-54729D01*
X45519Y-54563D01*
X45580Y-54397D01*
X45619Y-54319D01*
X45663Y-54242D01*
X45668Y-54236D01*
X45674Y-54225D01*
X45690Y-54203D01*
X45713Y-54181D01*
X45735Y-54148D01*
X45768Y-54109D01*
X45807Y-54065D01*
X45851Y-54020D01*
X45901Y-53976D01*
X45951Y-53926D01*
X46078Y-53826D01*
X46227Y-53732D01*
X46394Y-53649D01*
X46399D01*
X46416Y-53638D01*
X46444Y-53633D01*
X46477Y-53616D01*
X46521Y-53605D01*
X46576Y-53588D01*
X46637Y-53566D01*
X46704Y-53550D01*
X46776Y-53533D01*
X46859Y-53511D01*
X47030Y-53483D01*
X47224Y-53461D01*
X47424Y-53450D01*
X47429D01*
X47451D01*
X47484D01*
X47523Y-53456D01*
D02*
G37*
G36*
X48365Y-57636D02*
X48376Y-57647D01*
X48382Y-57669D01*
X48398Y-57697D01*
X48415Y-57730D01*
X48437Y-57769D01*
X48492Y-57863D01*
X48553Y-57974D01*
X48631Y-58085D01*
X48719Y-58201D01*
X48813Y-58317D01*
X48819Y-58323D01*
X48825Y-58328D01*
X48841Y-58345D01*
X48858Y-58367D01*
X48913Y-58417D01*
X48980Y-58483D01*
X49057Y-58550D01*
X49146Y-58622D01*
X49234Y-58683D01*
X49328Y-58738D01*
Y-59043D01*
X45480D01*
Y-58572D01*
X48476D01*
X48470Y-58566D01*
X48448Y-58539D01*
X48415Y-58505D01*
X48376Y-58450D01*
X48326Y-58389D01*
X48271Y-58312D01*
X48210Y-58223D01*
X48149Y-58123D01*
Y-58118D01*
X48143Y-58112D01*
X48121Y-58079D01*
X48094Y-58024D01*
X48060Y-57957D01*
X48022Y-57880D01*
X47983Y-57797D01*
X47944Y-57714D01*
X47911Y-57631D01*
X48365D01*
Y-57636D01*
D02*
G37*
G36*
X47540Y-60255D02*
X47606D01*
X47678Y-60261D01*
X47761Y-60266D01*
X47933Y-60283D01*
X48116Y-60311D01*
X48299Y-60344D01*
X48382Y-60366D01*
X48465Y-60388D01*
X48470D01*
X48481Y-60394D01*
X48503Y-60405D01*
X48531Y-60416D01*
X48570Y-60427D01*
X48608Y-60449D01*
X48703Y-60493D01*
X48802Y-60549D01*
X48907Y-60621D01*
X49013Y-60704D01*
X49101Y-60803D01*
Y-60809D01*
X49112Y-60814D01*
X49124Y-60831D01*
X49135Y-60853D01*
X49157Y-60881D01*
X49173Y-60914D01*
X49218Y-60997D01*
X49256Y-61097D01*
X49295Y-61213D01*
X49317Y-61352D01*
X49328Y-61501D01*
Y-61551D01*
X49323Y-61612D01*
X49312Y-61684D01*
X49295Y-61767D01*
X49273Y-61856D01*
X49245Y-61950D01*
X49201Y-62038D01*
Y-62044D01*
X49195Y-62049D01*
X49179Y-62077D01*
X49151Y-62121D01*
X49112Y-62177D01*
X49057Y-62238D01*
X48996Y-62304D01*
X48924Y-62365D01*
X48841Y-62426D01*
X48830Y-62431D01*
X48802Y-62453D01*
X48752Y-62476D01*
X48681Y-62514D01*
X48597Y-62548D01*
X48503Y-62592D01*
X48393Y-62631D01*
X48271Y-62664D01*
X48265D01*
X48254Y-62669D01*
X48238Y-62675D01*
X48210Y-62681D01*
X48177Y-62686D01*
X48138Y-62692D01*
X48088Y-62703D01*
X48033Y-62708D01*
X47972Y-62719D01*
X47905Y-62725D01*
X47828Y-62730D01*
X47750Y-62741D01*
X47662Y-62747D01*
X47573D01*
X47473Y-62752D01*
X47368D01*
X47363D01*
X47340D01*
X47302D01*
X47257D01*
X47197Y-62747D01*
X47130D01*
X47058Y-62741D01*
X46981Y-62736D01*
X46803Y-62719D01*
X46621Y-62692D01*
X46444Y-62658D01*
X46360Y-62636D01*
X46277Y-62608D01*
X46272D01*
X46261Y-62603D01*
X46239Y-62592D01*
X46211Y-62581D01*
X46172Y-62570D01*
X46133Y-62548D01*
X46039Y-62503D01*
X45940Y-62448D01*
X45829Y-62376D01*
X45729Y-62293D01*
X45635Y-62193D01*
Y-62188D01*
X45624Y-62182D01*
X45613Y-62165D01*
X45602Y-62143D01*
X45585Y-62116D01*
X45563Y-62088D01*
X45524Y-62005D01*
X45486Y-61905D01*
X45447Y-61789D01*
X45425Y-61651D01*
X45414Y-61501D01*
Y-61446D01*
X45419Y-61407D01*
X45425Y-61363D01*
X45436Y-61307D01*
X45447Y-61246D01*
X45463Y-61180D01*
X45486Y-61114D01*
X45508Y-61041D01*
X45541Y-60970D01*
X45580Y-60897D01*
X45624Y-60826D01*
X45679Y-60753D01*
X45740Y-60687D01*
X45807Y-60626D01*
X45812Y-60621D01*
X45829Y-60610D01*
X45857Y-60593D01*
X45901Y-60565D01*
X45951Y-60538D01*
X46017Y-60510D01*
X46095Y-60471D01*
X46183Y-60438D01*
X46283Y-60405D01*
X46399Y-60371D01*
X46527Y-60338D01*
X46670Y-60311D01*
X46826Y-60283D01*
X46992Y-60266D01*
X47174Y-60255D01*
X47368Y-60250D01*
X47374D01*
X47396D01*
X47435D01*
X47479D01*
X47540Y-60255D01*
D02*
G37*
G36*
X-18129Y-30979D02*
X-18079D01*
X-18018Y-30985D01*
X-17952Y-30996D01*
X-17874Y-31007D01*
X-17714Y-31034D01*
X-17548Y-31079D01*
X-17382Y-31140D01*
X-17304Y-31178D01*
X-17227Y-31223D01*
X-17221Y-31228D01*
X-17210Y-31234D01*
X-17188Y-31250D01*
X-17166Y-31272D01*
X-17133Y-31295D01*
X-17094Y-31328D01*
X-17049Y-31367D01*
X-17005Y-31411D01*
X-16961Y-31461D01*
X-16911Y-31511D01*
X-16811Y-31638D01*
X-16717Y-31788D01*
X-16634Y-31954D01*
Y-31959D01*
X-16623Y-31976D01*
X-16618Y-32003D01*
X-16601Y-32037D01*
X-16590Y-32081D01*
X-16573Y-32136D01*
X-16551Y-32197D01*
X-16535Y-32264D01*
X-16518Y-32336D01*
X-16496Y-32419D01*
X-16468Y-32590D01*
X-16446Y-32784D01*
X-16435Y-32984D01*
Y-32989D01*
Y-33011D01*
Y-33044D01*
X-16440Y-33083D01*
Y-33139D01*
X-16446Y-33194D01*
X-16451Y-33266D01*
X-16463Y-33338D01*
X-16490Y-33498D01*
X-16529Y-33676D01*
X-16584Y-33853D01*
X-16662Y-34025D01*
X-16667Y-34030D01*
X-16673Y-34047D01*
X-16684Y-34069D01*
X-16706Y-34097D01*
X-16728Y-34135D01*
X-16756Y-34180D01*
X-16828Y-34279D01*
X-16922Y-34390D01*
X-17033Y-34501D01*
X-17160Y-34611D01*
X-17310Y-34706D01*
X-17315Y-34711D01*
X-17332Y-34717D01*
X-17354Y-34728D01*
X-17382Y-34744D01*
X-17426Y-34761D01*
X-17470Y-34778D01*
X-17526Y-34800D01*
X-17587Y-34822D01*
X-17653Y-34844D01*
X-17725Y-34866D01*
X-17880Y-34899D01*
X-18057Y-34927D01*
X-18240Y-34938D01*
X-18295D01*
X-18334Y-34933D01*
X-18384Y-34927D01*
X-18445Y-34922D01*
X-18506Y-34916D01*
X-18578Y-34899D01*
X-18727Y-34866D01*
X-18893Y-34816D01*
X-18976Y-34783D01*
X-19054Y-34744D01*
X-19131Y-34694D01*
X-19209Y-34645D01*
X-19215Y-34639D01*
X-19226Y-34634D01*
X-19248Y-34617D01*
X-19275Y-34589D01*
X-19303Y-34562D01*
X-19342Y-34523D01*
X-19381Y-34479D01*
X-19425Y-34434D01*
X-19469Y-34379D01*
X-19514Y-34313D01*
X-19563Y-34246D01*
X-19608Y-34174D01*
X-19646Y-34091D01*
X-19691Y-34008D01*
X-19724Y-33919D01*
X-19757Y-33820D01*
X-19259Y-33703D01*
Y-33709D01*
X-19253Y-33720D01*
X-19242Y-33742D01*
X-19231Y-33770D01*
X-19220Y-33803D01*
X-19203Y-33847D01*
X-19159Y-33936D01*
X-19104Y-34036D01*
X-19037Y-34135D01*
X-18954Y-34229D01*
X-18866Y-34313D01*
X-18855Y-34323D01*
X-18821Y-34346D01*
X-18766Y-34373D01*
X-18694Y-34412D01*
X-18600Y-34445D01*
X-18495Y-34479D01*
X-18367Y-34501D01*
X-18229Y-34506D01*
X-18185D01*
X-18157Y-34501D01*
X-18118D01*
X-18074Y-34495D01*
X-17969Y-34479D01*
X-17852Y-34456D01*
X-17731Y-34418D01*
X-17603Y-34362D01*
X-17487Y-34290D01*
X-17481D01*
X-17476Y-34279D01*
X-17437Y-34251D01*
X-17387Y-34207D01*
X-17326Y-34141D01*
X-17254Y-34058D01*
X-17188Y-33964D01*
X-17127Y-33847D01*
X-17072Y-33720D01*
Y-33714D01*
X-17066Y-33703D01*
X-17061Y-33687D01*
X-17055Y-33659D01*
X-17044Y-33626D01*
X-17033Y-33587D01*
X-17016Y-33493D01*
X-16994Y-33382D01*
X-16972Y-33260D01*
X-16961Y-33128D01*
X-16955Y-32984D01*
Y-32978D01*
Y-32961D01*
Y-32934D01*
Y-32901D01*
X-16961Y-32862D01*
Y-32812D01*
X-16966Y-32757D01*
X-16972Y-32696D01*
X-16989Y-32563D01*
X-17016Y-32419D01*
X-17049Y-32275D01*
X-17094Y-32131D01*
Y-32125D01*
X-17099Y-32114D01*
X-17110Y-32098D01*
X-17121Y-32070D01*
X-17155Y-32003D01*
X-17205Y-31926D01*
X-17265Y-31837D01*
X-17343Y-31743D01*
X-17432Y-31660D01*
X-17537Y-31583D01*
X-17542D01*
X-17553Y-31577D01*
X-17570Y-31566D01*
X-17592Y-31555D01*
X-17620Y-31544D01*
X-17653Y-31527D01*
X-17731Y-31494D01*
X-17830Y-31461D01*
X-17941Y-31433D01*
X-18063Y-31411D01*
X-18190Y-31405D01*
X-18229D01*
X-18262Y-31411D01*
X-18301D01*
X-18340Y-31416D01*
X-18439Y-31439D01*
X-18556Y-31466D01*
X-18672Y-31511D01*
X-18794Y-31572D01*
X-18855Y-31605D01*
X-18910Y-31649D01*
X-18915Y-31655D01*
X-18921Y-31660D01*
X-18938Y-31677D01*
X-18960Y-31693D01*
X-18982Y-31721D01*
X-19010Y-31754D01*
X-19043Y-31788D01*
X-19071Y-31832D01*
X-19104Y-31882D01*
X-19143Y-31937D01*
X-19176Y-31992D01*
X-19209Y-32059D01*
X-19237Y-32131D01*
X-19264Y-32208D01*
X-19292Y-32291D01*
X-19314Y-32380D01*
X-19824Y-32253D01*
Y-32247D01*
X-19818Y-32225D01*
X-19807Y-32192D01*
X-19790Y-32147D01*
X-19774Y-32098D01*
X-19752Y-32037D01*
X-19724Y-31970D01*
X-19691Y-31898D01*
X-19613Y-31743D01*
X-19514Y-31588D01*
X-19453Y-31511D01*
X-19392Y-31433D01*
X-19325Y-31367D01*
X-19248Y-31300D01*
X-19242Y-31295D01*
X-19231Y-31284D01*
X-19203Y-31272D01*
X-19176Y-31250D01*
X-19131Y-31223D01*
X-19087Y-31195D01*
X-19026Y-31167D01*
X-18965Y-31140D01*
X-18893Y-31106D01*
X-18816Y-31079D01*
X-18733Y-31051D01*
X-18644Y-31023D01*
X-18550Y-31001D01*
X-18450Y-30990D01*
X-18345Y-30979D01*
X-18234Y-30973D01*
X-18174D01*
X-18129Y-30979D01*
D02*
G37*
G36*
X-21557Y-34036D02*
X-21551Y-34030D01*
X-21524Y-34008D01*
X-21490Y-33975D01*
X-21435Y-33936D01*
X-21374Y-33886D01*
X-21297Y-33831D01*
X-21208Y-33770D01*
X-21108Y-33709D01*
X-21103D01*
X-21097Y-33703D01*
X-21064Y-33681D01*
X-21009Y-33654D01*
X-20942Y-33620D01*
X-20865Y-33582D01*
X-20782Y-33543D01*
X-20698Y-33504D01*
X-20615Y-33471D01*
Y-33925D01*
X-20621D01*
X-20632Y-33936D01*
X-20654Y-33942D01*
X-20682Y-33958D01*
X-20715Y-33975D01*
X-20754Y-33997D01*
X-20848Y-34052D01*
X-20959Y-34113D01*
X-21070Y-34191D01*
X-21186Y-34279D01*
X-21302Y-34373D01*
X-21308Y-34379D01*
X-21313Y-34384D01*
X-21330Y-34401D01*
X-21352Y-34418D01*
X-21402Y-34473D01*
X-21468Y-34539D01*
X-21535Y-34617D01*
X-21607Y-34706D01*
X-21667Y-34794D01*
X-21723Y-34888D01*
X-22027D01*
Y-31040D01*
X-21557D01*
Y-34036D01*
D02*
G37*
G36*
X-35419Y-125677D02*
X-34500D01*
Y-126148D01*
X-35419D01*
Y-127815D01*
X-35851D01*
X-38332Y-126060D01*
Y-125677D01*
X-35851D01*
Y-125157D01*
X-35419D01*
Y-125677D01*
D02*
G37*
G36*
X-34500Y-128584D02*
X-35297Y-129088D01*
X-35303D01*
X-35314Y-129099D01*
X-35331Y-129110D01*
X-35353Y-129127D01*
X-35414Y-129166D01*
X-35491Y-129216D01*
X-35574Y-129277D01*
X-35663Y-129338D01*
X-35746Y-129398D01*
X-35823Y-129454D01*
X-35829Y-129459D01*
X-35851Y-129476D01*
X-35884Y-129504D01*
X-35923Y-129542D01*
X-36006Y-129625D01*
X-36045Y-129670D01*
X-36078Y-129714D01*
X-36084Y-129720D01*
X-36089Y-129731D01*
X-36100Y-129753D01*
X-36117Y-129786D01*
X-36133Y-129819D01*
X-36150Y-129858D01*
X-36178Y-129947D01*
Y-129952D01*
X-36183Y-129963D01*
Y-129985D01*
X-36189Y-130013D01*
X-36194Y-130052D01*
Y-130096D01*
X-36200Y-130157D01*
Y-130810D01*
X-34500D01*
Y-131320D01*
X-38332D01*
Y-129542D01*
X-38326Y-129498D01*
Y-129448D01*
X-38321Y-129332D01*
X-38304Y-129210D01*
X-38287Y-129077D01*
X-38260Y-128955D01*
X-38243Y-128895D01*
X-38227Y-128845D01*
Y-128839D01*
X-38221Y-128834D01*
X-38204Y-128800D01*
X-38182Y-128751D01*
X-38143Y-128690D01*
X-38094Y-128623D01*
X-38027Y-128551D01*
X-37950Y-128485D01*
X-37861Y-128418D01*
X-37856D01*
X-37850Y-128413D01*
X-37817Y-128391D01*
X-37761Y-128369D01*
X-37689Y-128335D01*
X-37606Y-128308D01*
X-37507Y-128280D01*
X-37402Y-128263D01*
X-37285Y-128258D01*
X-37280D01*
X-37269D01*
X-37246D01*
X-37219Y-128263D01*
X-37180D01*
X-37141Y-128269D01*
X-37047Y-128291D01*
X-36936Y-128324D01*
X-36820Y-128369D01*
X-36704Y-128435D01*
X-36648Y-128479D01*
X-36593Y-128524D01*
X-36588Y-128529D01*
X-36582Y-128535D01*
X-36565Y-128551D01*
X-36549Y-128573D01*
X-36527Y-128601D01*
X-36504Y-128634D01*
X-36477Y-128679D01*
X-36444Y-128723D01*
X-36416Y-128778D01*
X-36388Y-128839D01*
X-36355Y-128906D01*
X-36327Y-128978D01*
X-36305Y-129061D01*
X-36277Y-129144D01*
X-36261Y-129238D01*
X-36244Y-129338D01*
X-36239Y-129326D01*
X-36228Y-129304D01*
X-36205Y-129271D01*
X-36183Y-129227D01*
X-36123Y-129127D01*
X-36084Y-129077D01*
X-36051Y-129033D01*
X-36039Y-129022D01*
X-36012Y-128994D01*
X-35967Y-128950D01*
X-35912Y-128895D01*
X-35835Y-128834D01*
X-35752Y-128762D01*
X-35652Y-128690D01*
X-35541Y-128612D01*
X-34500Y-127953D01*
Y-128584D01*
D02*
G37*
%LPC*%
G36*
X-59434Y-136867D02*
X-60574D01*
X-60641Y-136873D01*
X-60718Y-136878D01*
X-60807Y-136884D01*
X-60896Y-136895D01*
X-60984Y-136912D01*
X-61062Y-136934D01*
X-61073Y-136939D01*
X-61095Y-136950D01*
X-61128Y-136967D01*
X-61172Y-136989D01*
X-61222Y-137022D01*
X-61272Y-137061D01*
X-61322Y-137111D01*
X-61361Y-137166D01*
X-61366Y-137172D01*
X-61377Y-137194D01*
X-61394Y-137227D01*
X-61416Y-137272D01*
X-61433Y-137321D01*
X-61449Y-137377D01*
X-61460Y-137443D01*
X-61466Y-137510D01*
Y-137515D01*
Y-137521D01*
X-61460Y-137554D01*
X-61455Y-137604D01*
X-61444Y-137670D01*
X-61416Y-137737D01*
X-61383Y-137814D01*
X-61333Y-137886D01*
X-61267Y-137958D01*
X-61255Y-137964D01*
X-61228Y-137986D01*
X-61184Y-138014D01*
X-61111Y-138047D01*
X-61028Y-138080D01*
X-60918Y-138108D01*
X-60790Y-138130D01*
X-60641Y-138135D01*
X-59434D01*
Y-136867D01*
D02*
G37*
G36*
X22261Y7597D02*
X20544D01*
X22261Y6390D01*
Y7597D01*
D02*
G37*
G36*
X-68454Y-104188D02*
X-69661D01*
Y-105456D01*
X-68520D01*
X-68454Y-105451D01*
X-68376Y-105445D01*
X-68288Y-105440D01*
X-68199Y-105429D01*
X-68111Y-105412D01*
X-68033Y-105390D01*
X-68022Y-105384D01*
X-68000Y-105373D01*
X-67967Y-105357D01*
X-67922Y-105335D01*
X-67873Y-105301D01*
X-67823Y-105262D01*
X-67773Y-105213D01*
X-67734Y-105157D01*
X-67729Y-105152D01*
X-67717Y-105130D01*
X-67701Y-105096D01*
X-67679Y-105052D01*
X-67662Y-105002D01*
X-67646Y-104947D01*
X-67634Y-104881D01*
X-67629Y-104814D01*
Y-104809D01*
Y-104803D01*
X-67634Y-104770D01*
X-67640Y-104720D01*
X-67651Y-104653D01*
X-67679Y-104587D01*
X-67712Y-104509D01*
X-67762Y-104438D01*
X-67828Y-104366D01*
X-67839Y-104360D01*
X-67867Y-104338D01*
X-67911Y-104310D01*
X-67983Y-104277D01*
X-68066Y-104244D01*
X-68177Y-104216D01*
X-68304Y-104194D01*
X-68454Y-104188D01*
D02*
G37*
G36*
X-58473Y-42251D02*
X-58478D01*
X-58490D01*
X-58506D01*
X-58534Y-42257D01*
X-58567D01*
X-58600Y-42262D01*
X-58683Y-42279D01*
X-58777Y-42307D01*
X-58877Y-42340D01*
X-58977Y-42395D01*
X-59065Y-42467D01*
X-59076Y-42478D01*
X-59099Y-42506D01*
X-59137Y-42556D01*
X-59176Y-42617D01*
X-59220Y-42700D01*
X-59259Y-42794D01*
X-59281Y-42899D01*
X-59292Y-43015D01*
Y-43049D01*
X-59287Y-43071D01*
X-59281Y-43132D01*
X-59265Y-43204D01*
X-59237Y-43292D01*
X-59198Y-43381D01*
X-59143Y-43469D01*
X-59065Y-43552D01*
X-59054Y-43564D01*
X-59021Y-43586D01*
X-58971Y-43619D01*
X-58899Y-43663D01*
X-58811Y-43702D01*
X-58706Y-43735D01*
X-58578Y-43757D01*
X-58434Y-43768D01*
X-58429D01*
X-58418D01*
X-58395D01*
X-58368Y-43763D01*
X-58329D01*
X-58290Y-43757D01*
X-58202Y-43741D01*
X-58096Y-43719D01*
X-57986Y-43680D01*
X-57881Y-43625D01*
X-57786Y-43552D01*
X-57781D01*
X-57775Y-43541D01*
X-57748Y-43514D01*
X-57709Y-43469D01*
X-57664Y-43408D01*
X-57626Y-43331D01*
X-57587Y-43242D01*
X-57559Y-43143D01*
X-57548Y-43087D01*
Y-42999D01*
X-57554Y-42977D01*
X-57559Y-42916D01*
X-57582Y-42844D01*
X-57609Y-42755D01*
X-57659Y-42661D01*
X-57720Y-42567D01*
X-57764Y-42523D01*
X-57808Y-42478D01*
X-57814D01*
X-57820Y-42467D01*
X-57836Y-42456D01*
X-57853Y-42445D01*
X-57908Y-42406D01*
X-57986Y-42368D01*
X-58080Y-42323D01*
X-58196Y-42284D01*
X-58329Y-42262D01*
X-58473Y-42251D01*
D02*
G37*
G36*
X-70484Y-42401D02*
X-70490D01*
X-70495D01*
X-70529Y-42406D01*
X-70578Y-42412D01*
X-70639Y-42423D01*
X-70711Y-42445D01*
X-70783Y-42473D01*
X-70861Y-42517D01*
X-70927Y-42572D01*
X-70933Y-42578D01*
X-70955Y-42606D01*
X-70983Y-42644D01*
X-71010Y-42694D01*
X-71044Y-42761D01*
X-71071Y-42838D01*
X-71093Y-42927D01*
X-71099Y-43026D01*
Y-43038D01*
X-71093Y-43071D01*
X-71088Y-43121D01*
X-71077Y-43187D01*
X-71055Y-43259D01*
X-71027Y-43331D01*
X-70983Y-43408D01*
X-70927Y-43475D01*
X-70922Y-43481D01*
X-70894Y-43503D01*
X-70861Y-43530D01*
X-70811Y-43564D01*
X-70750Y-43597D01*
X-70678Y-43625D01*
X-70595Y-43647D01*
X-70506Y-43652D01*
X-70501D01*
X-70495D01*
X-70462D01*
X-70412Y-43641D01*
X-70351Y-43630D01*
X-70285Y-43608D01*
X-70213Y-43575D01*
X-70141Y-43530D01*
X-70069Y-43469D01*
X-70063Y-43464D01*
X-70041Y-43436D01*
X-70014Y-43397D01*
X-69980Y-43348D01*
X-69947Y-43281D01*
X-69920Y-43209D01*
X-69897Y-43121D01*
X-69892Y-43026D01*
Y-42982D01*
X-69903Y-42932D01*
X-69914Y-42866D01*
X-69936Y-42794D01*
X-69964Y-42716D01*
X-70008Y-42644D01*
X-70069Y-42572D01*
X-70075Y-42567D01*
X-70097Y-42545D01*
X-70135Y-42517D01*
X-70185Y-42489D01*
X-70246Y-42456D01*
X-70318Y-42428D01*
X-70396Y-42406D01*
X-70484Y-42401D01*
D02*
G37*
G36*
X-72251Y-42246D02*
X-72262D01*
X-72284D01*
X-72323Y-42251D01*
X-72372Y-42257D01*
X-72433Y-42268D01*
X-72500Y-42284D01*
X-72566Y-42307D01*
X-72638Y-42334D01*
X-72644Y-42340D01*
X-72671Y-42351D01*
X-72705Y-42373D01*
X-72743Y-42406D01*
X-72793Y-42445D01*
X-72843Y-42495D01*
X-72887Y-42550D01*
X-72932Y-42617D01*
X-72937Y-42628D01*
X-72948Y-42650D01*
X-72965Y-42689D01*
X-72982Y-42738D01*
X-72998Y-42799D01*
X-73015Y-42871D01*
X-73026Y-42949D01*
X-73031Y-43026D01*
Y-43060D01*
X-73026Y-43082D01*
X-73020Y-43148D01*
X-73004Y-43226D01*
X-72976Y-43314D01*
X-72943Y-43408D01*
X-72887Y-43497D01*
X-72815Y-43586D01*
X-72804Y-43597D01*
X-72777Y-43619D01*
X-72727Y-43658D01*
X-72666Y-43696D01*
X-72588Y-43735D01*
X-72494Y-43774D01*
X-72383Y-43796D01*
X-72267Y-43807D01*
X-72262D01*
X-72251D01*
X-72234D01*
X-72212Y-43802D01*
X-72151Y-43796D01*
X-72068Y-43780D01*
X-71985Y-43752D01*
X-71891Y-43713D01*
X-71797Y-43658D01*
X-71708Y-43580D01*
X-71697Y-43569D01*
X-71675Y-43541D01*
X-71636Y-43492D01*
X-71592Y-43425D01*
X-71553Y-43342D01*
X-71514Y-43242D01*
X-71492Y-43132D01*
X-71481Y-43010D01*
Y-42977D01*
X-71487Y-42955D01*
X-71492Y-42894D01*
X-71509Y-42816D01*
X-71536Y-42727D01*
X-71575Y-42639D01*
X-71631Y-42545D01*
X-71702Y-42462D01*
X-71714Y-42451D01*
X-71741Y-42428D01*
X-71791Y-42395D01*
X-71852Y-42357D01*
X-71935Y-42312D01*
X-72029Y-42279D01*
X-72134Y-42257D01*
X-72251Y-42246D01*
D02*
G37*
G36*
X-77257Y-79369D02*
X-77262D01*
X-77273D01*
X-77295D01*
X-77323Y-79375D01*
X-77356D01*
X-77395Y-79380D01*
X-77484Y-79397D01*
X-77583Y-79419D01*
X-77688Y-79458D01*
X-77788Y-79513D01*
X-77882Y-79585D01*
X-77893Y-79596D01*
X-77921Y-79624D01*
X-77954Y-79668D01*
X-77999Y-79729D01*
X-78043Y-79807D01*
X-78076Y-79895D01*
X-78104Y-80001D01*
X-78115Y-80117D01*
Y-80150D01*
X-78109Y-80172D01*
X-78104Y-80228D01*
X-78087Y-80305D01*
X-78060Y-80388D01*
X-78015Y-80482D01*
X-77960Y-80571D01*
X-77882Y-80660D01*
X-77871Y-80671D01*
X-77844Y-80693D01*
X-77794Y-80731D01*
X-77722Y-80770D01*
X-77639Y-80809D01*
X-77533Y-80848D01*
X-77417Y-80870D01*
X-77284Y-80881D01*
X-77273D01*
X-77246D01*
X-77196Y-80876D01*
X-77135Y-80870D01*
X-77063Y-80859D01*
X-76985Y-80837D01*
X-76902Y-80815D01*
X-76819Y-80781D01*
X-76808Y-80776D01*
X-76780Y-80759D01*
X-76742Y-80737D01*
X-76692Y-80704D01*
X-76642Y-80665D01*
X-76581Y-80615D01*
X-76531Y-80560D01*
X-76481Y-80493D01*
X-76476Y-80482D01*
X-76465Y-80460D01*
X-76443Y-80421D01*
X-76426Y-80372D01*
X-76404Y-80316D01*
X-76382Y-80250D01*
X-76371Y-80178D01*
X-76365Y-80100D01*
Y-80073D01*
X-76371Y-80050D01*
X-76376Y-79995D01*
X-76393Y-79923D01*
X-76426Y-79845D01*
X-76465Y-79757D01*
X-76526Y-79668D01*
X-76559Y-79624D01*
X-76603Y-79585D01*
X-76609D01*
X-76614Y-79574D01*
X-76648Y-79552D01*
X-76703Y-79519D01*
X-76775Y-79475D01*
X-76869Y-79436D01*
X-76980Y-79403D01*
X-77107Y-79380D01*
X-77257Y-79369D01*
D02*
G37*
G36*
X47368Y-60731D02*
X47357D01*
X47329D01*
X47280D01*
X47213Y-60737D01*
X47141D01*
X47053Y-60743D01*
X46958Y-60748D01*
X46859Y-60759D01*
X46643Y-60787D01*
X46538Y-60803D01*
X46438Y-60826D01*
X46344Y-60848D01*
X46255Y-60881D01*
X46178Y-60914D01*
X46111Y-60953D01*
X46106D01*
X46100Y-60964D01*
X46061Y-60992D01*
X46012Y-61041D01*
X45956Y-61102D01*
X45901Y-61185D01*
X45851Y-61280D01*
X45812Y-61385D01*
X45807Y-61440D01*
X45801Y-61501D01*
Y-61534D01*
X45807Y-61556D01*
X45818Y-61612D01*
X45840Y-61689D01*
X45879Y-61772D01*
X45934Y-61866D01*
X45967Y-61911D01*
X46012Y-61955D01*
X46056Y-61999D01*
X46111Y-62044D01*
X46117D01*
X46128Y-62055D01*
X46144Y-62066D01*
X46172Y-62077D01*
X46211Y-62099D01*
X46261Y-62116D01*
X46316Y-62138D01*
X46383Y-62160D01*
X46466Y-62177D01*
X46554Y-62199D01*
X46659Y-62221D01*
X46770Y-62238D01*
X46903Y-62249D01*
X47042Y-62260D01*
X47197Y-62271D01*
X47368D01*
X47374D01*
X47379D01*
X47407D01*
X47457D01*
X47523Y-62265D01*
X47595D01*
X47684Y-62260D01*
X47778Y-62254D01*
X47883Y-62243D01*
X48094Y-62215D01*
X48199Y-62199D01*
X48299Y-62177D01*
X48393Y-62154D01*
X48481Y-62121D01*
X48559Y-62088D01*
X48625Y-62049D01*
X48631D01*
X48636Y-62038D01*
X48653Y-62027D01*
X48675Y-62010D01*
X48725Y-61961D01*
X48786Y-61900D01*
X48841Y-61817D01*
X48891Y-61723D01*
X48913Y-61673D01*
X48930Y-61617D01*
X48935Y-61556D01*
X48941Y-61495D01*
Y-61462D01*
X48935Y-61440D01*
X48924Y-61379D01*
X48907Y-61307D01*
X48874Y-61224D01*
X48825Y-61136D01*
X48791Y-61091D01*
X48758Y-61047D01*
X48714Y-61008D01*
X48664Y-60970D01*
X48658D01*
X48647Y-60958D01*
X48625Y-60947D01*
X48597Y-60931D01*
X48553Y-60914D01*
X48503Y-60892D01*
X48442Y-60875D01*
X48370Y-60853D01*
X48287Y-60831D01*
X48193Y-60809D01*
X48088Y-60787D01*
X47972Y-60770D01*
X47839Y-60753D01*
X47695Y-60743D01*
X47540Y-60737D01*
X47368Y-60731D01*
D02*
G37*
G36*
X-35851Y-126148D02*
X-37568D01*
X-35851Y-127355D01*
Y-126148D01*
D02*
G37*
G36*
X-37280Y-128778D02*
X-37285D01*
X-37291D01*
X-37324Y-128784D01*
X-37374Y-128789D01*
X-37440Y-128800D01*
X-37507Y-128828D01*
X-37584Y-128861D01*
X-37656Y-128911D01*
X-37728Y-128978D01*
X-37734Y-128989D01*
X-37756Y-129016D01*
X-37784Y-129061D01*
X-37817Y-129133D01*
X-37850Y-129216D01*
X-37878Y-129326D01*
X-37900Y-129454D01*
X-37905Y-129603D01*
Y-130810D01*
X-36637D01*
Y-129670D01*
X-36643Y-129603D01*
X-36648Y-129526D01*
X-36654Y-129437D01*
X-36665Y-129349D01*
X-36682Y-129260D01*
X-36704Y-129183D01*
X-36709Y-129171D01*
X-36720Y-129149D01*
X-36737Y-129116D01*
X-36759Y-129072D01*
X-36793Y-129022D01*
X-36831Y-128972D01*
X-36881Y-128922D01*
X-36936Y-128883D01*
X-36942Y-128878D01*
X-36964Y-128867D01*
X-36997Y-128850D01*
X-37042Y-128828D01*
X-37092Y-128812D01*
X-37147Y-128795D01*
X-37213Y-128784D01*
X-37280Y-128778D01*
D02*
G37*
%LPD*%
M02*
