G04*
G04 #@! TF.GenerationSoftware,Altium Limited,Altium Designer,26.3.0 (6)*
G04*
G04 Layer_Physical_Order=2*
G04 Layer_Color=16711680*
%FSLAX44Y44*%
%MOMM*%
G71*
G04*
G04 #@! TF.SameCoordinates,A5D2DF9F-5289-4556-85AE-B0E70FB24680*
G04*
G04*
G04 #@! TF.FilePolarity,Positive*
G04*
G01*
G75*
%ADD11C,0.2540*%
%ADD33C,0.6300*%
%ADD46C,1.2000*%
%ADD47C,1.5000*%
%ADD51R,6.0000X6.0000*%
%ADD52C,6.0000*%
%ADD53C,1.5240*%
%ADD54C,0.6000*%
%ADD55C,0.5080*%
G36*
X85186Y28814D02*
X86000Y28000D01*
X84000Y26000D01*
X45000D01*
Y59000D01*
Y68000D01*
X46000Y69000D01*
X85186D01*
Y28814D01*
D02*
G37*
G36*
X-3984Y-41250D02*
X-42466D01*
X-45000Y-38716D01*
Y-16000D01*
Y-12000D01*
X-3984D01*
Y-41250D01*
D02*
G37*
G36*
X148210Y-133039D02*
X-46662D01*
X-46735Y-132862D01*
X-47635Y-131962D01*
X-47635Y-64012D01*
X-27462Y-43840D01*
X-23984D01*
Y-46021D01*
X153D01*
Y-7003D01*
X21556Y14400D01*
X148210D01*
Y-133039D01*
D02*
G37*
G36*
X-122430Y-115306D02*
X-155000D01*
Y-90817D01*
X-122430D01*
Y-115306D01*
D02*
G37*
%LPC*%
G36*
X55873Y59319D02*
X55235Y59055D01*
X53677Y57497D01*
X53412Y56859D01*
X55873D01*
Y59319D01*
D02*
G37*
G36*
X73034Y59180D02*
Y56719D01*
X75495D01*
X75231Y57357D01*
X73672Y58915D01*
X73034Y59180D01*
D02*
G37*
G36*
X55873Y39876D02*
X53412D01*
X53677Y39238D01*
X55235Y37679D01*
X55873Y37415D01*
Y39876D01*
D02*
G37*
G36*
X76004Y39498D02*
X73543D01*
Y37037D01*
X74181Y37301D01*
X75740Y38860D01*
X76004Y39498D01*
D02*
G37*
G36*
X60873Y59319D02*
Y54359D01*
X58373D01*
Y51859D01*
X53412D01*
X53677Y51220D01*
X55235Y49662D01*
Y47072D01*
X53677Y45514D01*
X53412Y44876D01*
X58373D01*
Y42376D01*
X60873D01*
Y37415D01*
X61511Y37679D01*
X63070Y39238D01*
X63255Y39685D01*
X66005D01*
X66347Y38860D01*
X67905Y37301D01*
X68543Y37037D01*
Y41998D01*
X71043D01*
Y44498D01*
X76004D01*
X75740Y45136D01*
X74181Y46694D01*
X73832Y46839D01*
X73672Y49522D01*
X75231Y51080D01*
X75495Y51719D01*
X70534D01*
Y54219D01*
X68034D01*
Y59180D01*
X67396Y58915D01*
X65838Y57357D01*
X63108Y57404D01*
X63070Y57497D01*
X61511Y59055D01*
X60873Y59319D01*
D02*
G37*
G36*
X-25905Y-15129D02*
X-27773Y-15903D01*
X-29331Y-17462D01*
X-31970D01*
X-33528Y-15903D01*
X-35396Y-15129D01*
Y-20600D01*
Y-26070D01*
X-33528Y-25296D01*
X-31970Y-23738D01*
X-29331D01*
X-27773Y-25296D01*
X-25905Y-26070D01*
Y-20600D01*
Y-15129D01*
D02*
G37*
G36*
X-13405D02*
X-15274Y-15903D01*
X-16832Y-17462D01*
X-17011Y-17893D01*
X-19760D01*
X-19938Y-17462D01*
X-21497Y-15903D01*
X-23365Y-15129D01*
Y-20600D01*
Y-26070D01*
X-21497Y-25296D01*
X-19938Y-23738D01*
X-19760Y-23307D01*
X-17011D01*
X-16832Y-23738D01*
X-15274Y-25296D01*
X-15015Y-25404D01*
Y-28153D01*
X-15274Y-28260D01*
X-16832Y-29819D01*
X-17606Y-31687D01*
X-6665D01*
X-7439Y-29819D01*
X-8997Y-28260D01*
X-9256Y-28153D01*
Y-25404D01*
X-8997Y-25296D01*
X-7439Y-23738D01*
X-6665Y-21870D01*
X-12135D01*
Y-20600D01*
X-13405D01*
Y-15129D01*
D02*
G37*
G36*
X-10865D02*
Y-19330D01*
X-6665D01*
X-7439Y-17462D01*
X-8997Y-15903D01*
X-10865Y-15129D01*
D02*
G37*
G36*
X-37936D02*
X-39804Y-15903D01*
X-41363Y-17462D01*
X-42137Y-19330D01*
X-37936D01*
Y-15129D01*
D02*
G37*
G36*
Y-21870D02*
X-42137D01*
X-41363Y-23738D01*
X-39804Y-25296D01*
X-37936Y-26070D01*
Y-21870D01*
D02*
G37*
G36*
X-6665Y-34227D02*
X-10865D01*
Y-38427D01*
X-8997Y-37654D01*
X-7439Y-36095D01*
X-6665Y-34227D01*
D02*
G37*
G36*
X-13405D02*
X-17606D01*
X-16832Y-36095D01*
X-15274Y-37654D01*
X-13405Y-38427D01*
Y-34227D01*
D02*
G37*
G36*
X28027Y-7841D02*
Y-10302D01*
X30488D01*
X30224Y-9664D01*
X28666Y-8105D01*
X28027Y-7841D01*
D02*
G37*
G36*
X23027D02*
X22389Y-8105D01*
X20831Y-9664D01*
X20566Y-10302D01*
X23027D01*
Y-7841D01*
D02*
G37*
G36*
X12235D02*
Y-10302D01*
X14696D01*
X14431Y-9664D01*
X12873Y-8105D01*
X12235Y-7841D01*
D02*
G37*
G36*
X7235D02*
X6597Y-8105D01*
X5038Y-9664D01*
X4774Y-10302D01*
X7235D01*
Y-7841D01*
D02*
G37*
G36*
X30488Y-15302D02*
X28027D01*
Y-17763D01*
X28666Y-17498D01*
X30224Y-15940D01*
X30488Y-15302D01*
D02*
G37*
G36*
X23027D02*
X20566D01*
X20831Y-15940D01*
X22389Y-17498D01*
X23027Y-17763D01*
Y-15302D01*
D02*
G37*
G36*
X14696D02*
X12235D01*
Y-17763D01*
X12873Y-17498D01*
X14431Y-15940D01*
X14696Y-15302D01*
D02*
G37*
G36*
X7235D02*
X4774D01*
X5038Y-15940D01*
X6597Y-17498D01*
X7235Y-17763D01*
Y-15302D01*
D02*
G37*
G36*
X27389Y-24349D02*
Y-26810D01*
X29850D01*
X29586Y-26172D01*
X28027Y-24613D01*
X27389Y-24349D01*
D02*
G37*
G36*
X22389D02*
X21751Y-24613D01*
X20193Y-26172D01*
X19928Y-26810D01*
X22389D01*
Y-24349D01*
D02*
G37*
G36*
X12338D02*
Y-26810D01*
X14799D01*
X14534Y-26172D01*
X12976Y-24613D01*
X12338Y-24349D01*
D02*
G37*
G36*
X7338D02*
X6700Y-24613D01*
X5141Y-26172D01*
X4877Y-26810D01*
X7338D01*
Y-24349D01*
D02*
G37*
G36*
X29850Y-31810D02*
X27389D01*
Y-34271D01*
X28027Y-34007D01*
X29586Y-32448D01*
X29850Y-31810D01*
D02*
G37*
G36*
X22389D02*
X19928D01*
X20193Y-32448D01*
X21751Y-34007D01*
X22389Y-34271D01*
Y-31810D01*
D02*
G37*
G36*
X14799D02*
X12338D01*
Y-34271D01*
X12976Y-34007D01*
X14534Y-32448D01*
X14799Y-31810D01*
D02*
G37*
G36*
X7338D02*
X4877D01*
X5141Y-32448D01*
X6700Y-34007D01*
X7338Y-34271D01*
Y-31810D01*
D02*
G37*
G36*
X101826Y-81460D02*
X98174D01*
X94592Y-82172D01*
X91218Y-83570D01*
X88181Y-85599D01*
X85599Y-88181D01*
X83570Y-91218D01*
X82172Y-94592D01*
X81460Y-98174D01*
Y-101826D01*
X82172Y-105408D01*
X83570Y-108782D01*
X85599Y-111819D01*
X88181Y-114401D01*
X91218Y-116430D01*
X94592Y-117828D01*
X98174Y-118540D01*
X101826D01*
X105408Y-117828D01*
X108782Y-116430D01*
X111819Y-114401D01*
X114401Y-111819D01*
X116430Y-108782D01*
X117828Y-105408D01*
X118540Y-101826D01*
Y-98174D01*
X117828Y-94592D01*
X116430Y-91218D01*
X114401Y-88181D01*
X111819Y-85599D01*
X108782Y-83570D01*
X105408Y-82172D01*
X101826Y-81460D01*
D02*
G37*
%LPD*%
D11*
X-69891Y-117541D02*
Y-100000D01*
X-55239Y-85348D01*
X-69891Y-117541D02*
X-51432Y-136000D01*
D33*
X2516Y-55000D02*
D03*
Y-68000D02*
D03*
X-10484D02*
D03*
Y-55000D02*
D03*
X2516Y-81000D02*
D03*
X-10484D02*
D03*
D46*
X-20135Y-27810D02*
Y-15109D01*
X45207Y40291D02*
X53164Y32334D01*
X-20135Y-15109D02*
X35266Y40291D01*
X45207D01*
D47*
X-142609Y-103574D02*
X-129435Y-90400D01*
Y-50441D01*
X-37049Y193583D02*
X-35814Y194818D01*
X-37049Y138314D02*
Y193583D01*
X-56739Y22255D02*
Y118624D01*
X-37049Y138314D01*
X-129435Y-50441D02*
X-56739Y22255D01*
X36186Y87331D02*
Y194818D01*
X-63946Y-12802D02*
X36186Y87331D01*
X-63946Y-34090D02*
Y-12802D01*
Y-34090D02*
X-30037Y-68000D01*
D51*
X-35814Y194818D02*
D03*
D52*
X36186D02*
D03*
D53*
X100000Y-100000D02*
D03*
X-100000D02*
D03*
X100000Y100000D02*
D03*
X-100000D02*
D03*
D54*
X-127946Y-108306D02*
D03*
X-128000Y-97146D02*
D03*
X-139000D02*
D03*
X-149463D02*
D03*
X-138946Y-108306D02*
D03*
X-149409Y-108344D02*
D03*
X25527Y-12802D02*
D03*
X24889Y-29310D02*
D03*
X9735Y-12802D02*
D03*
X9838Y-29310D02*
D03*
X70534Y54219D02*
D03*
X-51432Y-136000D02*
D03*
X-12135Y-20600D02*
D03*
X71043Y41998D02*
D03*
X-36666Y-20600D02*
D03*
X58373Y42376D02*
D03*
X-12135Y-32957D02*
D03*
X-24635Y-20600D02*
D03*
X58373Y54359D02*
D03*
D55*
X-55239Y-85348D02*
D03*
M02*
