G04*
G04 #@! TF.GenerationSoftware,Altium Limited,Altium Designer,26.3.0 (6)*
G04*
G04 Layer_Color=16711935*
%FSLAX44Y44*%
%MOMM*%
G71*
G04*
G04 #@! TF.SameCoordinates,A5D2DF9F-5289-4556-85AE-B0E70FB24680*
G04*
G04*
G04 #@! TF.FilePolarity,Positive*
G04*
G01*
G75*
%ADD12C,0.2000*%
%ADD13C,0.1270*%
%ADD56C,0.1000*%
G36*
X-76792Y11275D02*
X-76699D01*
X-76607Y11266D01*
X-76486Y11257D01*
X-76366Y11238D01*
X-76098Y11192D01*
X-75802Y11127D01*
X-75506Y11035D01*
X-75220Y10905D01*
X-75210Y10896D01*
X-75183Y10887D01*
X-75146Y10868D01*
X-75100Y10831D01*
X-75035Y10794D01*
X-74961Y10748D01*
X-74795Y10628D01*
X-74610Y10471D01*
X-74425Y10286D01*
X-74240Y10073D01*
X-74083Y9823D01*
X-74073Y9814D01*
X-74064Y9786D01*
X-74046Y9750D01*
X-74018Y9703D01*
X-73990Y9629D01*
X-73962Y9555D01*
X-73925Y9463D01*
X-73888Y9361D01*
X-73851Y9250D01*
X-73815Y9130D01*
X-73759Y8871D01*
X-73713Y8575D01*
X-73694Y8270D01*
Y8178D01*
X-73703Y8113D01*
X-73713Y8030D01*
X-73722Y7928D01*
X-73731Y7826D01*
X-73759Y7706D01*
X-73815Y7457D01*
X-73898Y7179D01*
X-73953Y7041D01*
X-74018Y6911D01*
X-74101Y6782D01*
X-74184Y6652D01*
X-74194Y6643D01*
X-74203Y6625D01*
X-74230Y6587D01*
X-74277Y6541D01*
X-74323Y6495D01*
X-74388Y6430D01*
X-74462Y6366D01*
X-74536Y6292D01*
X-74628Y6218D01*
X-74739Y6144D01*
X-74850Y6061D01*
X-74970Y5987D01*
X-75109Y5922D01*
X-75248Y5848D01*
X-75395Y5792D01*
X-75562Y5737D01*
X-75756Y6569D01*
X-75747D01*
X-75728Y6578D01*
X-75691Y6597D01*
X-75645Y6615D01*
X-75590Y6634D01*
X-75516Y6661D01*
X-75368Y6736D01*
X-75201Y6828D01*
X-75035Y6939D01*
X-74878Y7078D01*
X-74739Y7225D01*
X-74721Y7244D01*
X-74683Y7300D01*
X-74637Y7392D01*
X-74573Y7512D01*
X-74517Y7669D01*
X-74462Y7845D01*
X-74425Y8058D01*
X-74415Y8289D01*
Y8363D01*
X-74425Y8409D01*
Y8474D01*
X-74434Y8548D01*
X-74462Y8723D01*
X-74499Y8917D01*
X-74563Y9121D01*
X-74656Y9334D01*
X-74776Y9528D01*
Y9537D01*
X-74795Y9546D01*
X-74841Y9611D01*
X-74915Y9694D01*
X-75026Y9796D01*
X-75164Y9916D01*
X-75321Y10027D01*
X-75516Y10129D01*
X-75728Y10221D01*
X-75738D01*
X-75756Y10230D01*
X-75784Y10240D01*
X-75830Y10249D01*
X-75886Y10267D01*
X-75950Y10286D01*
X-76107Y10314D01*
X-76292Y10351D01*
X-76496Y10388D01*
X-76718Y10406D01*
X-76958Y10415D01*
X-76967D01*
X-76995D01*
X-77041D01*
X-77097D01*
X-77161Y10406D01*
X-77245D01*
X-77337Y10397D01*
X-77439Y10388D01*
X-77661Y10360D01*
X-77901Y10314D01*
X-78141Y10258D01*
X-78382Y10184D01*
X-78391D01*
X-78410Y10175D01*
X-78437Y10156D01*
X-78484Y10138D01*
X-78594Y10082D01*
X-78724Y9999D01*
X-78872Y9898D01*
X-79029Y9768D01*
X-79168Y9620D01*
X-79297Y9444D01*
Y9435D01*
X-79306Y9417D01*
X-79325Y9389D01*
X-79343Y9352D01*
X-79362Y9306D01*
X-79390Y9250D01*
X-79445Y9121D01*
X-79500Y8954D01*
X-79547Y8770D01*
X-79584Y8566D01*
X-79593Y8353D01*
Y8289D01*
X-79584Y8233D01*
Y8169D01*
X-79574Y8104D01*
X-79538Y7937D01*
X-79491Y7743D01*
X-79417Y7549D01*
X-79316Y7346D01*
X-79260Y7244D01*
X-79186Y7151D01*
X-79177Y7142D01*
X-79168Y7133D01*
X-79140Y7105D01*
X-79112Y7068D01*
X-79066Y7031D01*
X-79011Y6985D01*
X-78955Y6930D01*
X-78881Y6883D01*
X-78798Y6828D01*
X-78705Y6763D01*
X-78613Y6708D01*
X-78502Y6652D01*
X-78382Y6606D01*
X-78252Y6560D01*
X-78114Y6514D01*
X-77966Y6477D01*
X-78178Y5626D01*
X-78188D01*
X-78225Y5635D01*
X-78280Y5654D01*
X-78354Y5681D01*
X-78437Y5709D01*
X-78539Y5746D01*
X-78650Y5792D01*
X-78770Y5848D01*
X-79029Y5977D01*
X-79288Y6144D01*
X-79417Y6245D01*
X-79547Y6347D01*
X-79658Y6458D01*
X-79769Y6587D01*
X-79778Y6597D01*
X-79796Y6615D01*
X-79815Y6661D01*
X-79852Y6708D01*
X-79898Y6782D01*
X-79944Y6856D01*
X-79991Y6957D01*
X-80037Y7059D01*
X-80092Y7179D01*
X-80138Y7309D01*
X-80185Y7447D01*
X-80231Y7595D01*
X-80268Y7753D01*
X-80286Y7919D01*
X-80305Y8095D01*
X-80314Y8280D01*
Y8381D01*
X-80305Y8455D01*
Y8538D01*
X-80296Y8640D01*
X-80277Y8751D01*
X-80259Y8880D01*
X-80212Y9149D01*
X-80138Y9426D01*
X-80037Y9703D01*
X-79972Y9833D01*
X-79898Y9962D01*
X-79889Y9971D01*
X-79880Y9990D01*
X-79852Y10027D01*
X-79815Y10064D01*
X-79778Y10119D01*
X-79722Y10184D01*
X-79658Y10258D01*
X-79584Y10332D01*
X-79500Y10406D01*
X-79417Y10489D01*
X-79205Y10656D01*
X-78955Y10813D01*
X-78678Y10951D01*
X-78668D01*
X-78641Y10970D01*
X-78594Y10979D01*
X-78539Y11007D01*
X-78465Y11025D01*
X-78373Y11053D01*
X-78271Y11090D01*
X-78160Y11118D01*
X-78040Y11146D01*
X-77901Y11183D01*
X-77614Y11229D01*
X-77291Y11266D01*
X-76958Y11284D01*
X-76949D01*
X-76912D01*
X-76856D01*
X-76792Y11275D01*
D02*
G37*
G36*
X-75386Y4295D02*
X-75368Y4276D01*
X-75359Y4239D01*
X-75331Y4193D01*
X-75303Y4137D01*
X-75266Y4073D01*
X-75174Y3916D01*
X-75072Y3731D01*
X-74942Y3546D01*
X-74795Y3352D01*
X-74637Y3157D01*
X-74628Y3148D01*
X-74619Y3139D01*
X-74591Y3111D01*
X-74563Y3074D01*
X-74471Y2991D01*
X-74360Y2880D01*
X-74230Y2769D01*
X-74083Y2649D01*
X-73935Y2547D01*
X-73777Y2455D01*
Y1946D01*
X-80203D01*
Y2732D01*
X-75201D01*
X-75210Y2741D01*
X-75248Y2788D01*
X-75303Y2843D01*
X-75368Y2936D01*
X-75451Y3037D01*
X-75543Y3167D01*
X-75645Y3315D01*
X-75747Y3481D01*
Y3490D01*
X-75756Y3499D01*
X-75793Y3555D01*
X-75839Y3647D01*
X-75895Y3758D01*
X-75959Y3888D01*
X-76024Y4026D01*
X-76089Y4165D01*
X-76144Y4304D01*
X-75386D01*
Y4295D01*
D02*
G37*
G36*
X-80028Y32D02*
X-79944Y23D01*
X-79852Y5D01*
X-79759Y-14D01*
X-79658Y-51D01*
X-79648D01*
X-79639Y-60D01*
X-79584Y-78D01*
X-79500Y-115D01*
X-79390Y-171D01*
X-79260Y-245D01*
X-79112Y-337D01*
X-78964Y-439D01*
X-78807Y-569D01*
X-78798D01*
X-78789Y-587D01*
X-78733Y-633D01*
X-78650Y-716D01*
X-78530Y-837D01*
X-78391Y-975D01*
X-78225Y-1151D01*
X-78040Y-1364D01*
X-77846Y-1595D01*
X-77836Y-1604D01*
X-77809Y-1641D01*
X-77762Y-1697D01*
X-77707Y-1761D01*
X-77633Y-1844D01*
X-77550Y-1946D01*
X-77457Y-2048D01*
X-77355Y-2168D01*
X-77134Y-2399D01*
X-76912Y-2630D01*
X-76801Y-2741D01*
X-76690Y-2843D01*
X-76588Y-2935D01*
X-76486Y-3009D01*
X-76477D01*
X-76468Y-3028D01*
X-76440Y-3046D01*
X-76403Y-3065D01*
X-76301Y-3130D01*
X-76181Y-3203D01*
X-76033Y-3268D01*
X-75876Y-3333D01*
X-75701Y-3370D01*
X-75534Y-3388D01*
X-75525D01*
X-75516D01*
X-75460Y-3379D01*
X-75368Y-3370D01*
X-75266Y-3342D01*
X-75137Y-3305D01*
X-75007Y-3241D01*
X-74878Y-3157D01*
X-74748Y-3046D01*
X-74730Y-3028D01*
X-74693Y-2982D01*
X-74647Y-2917D01*
X-74582Y-2815D01*
X-74526Y-2686D01*
X-74471Y-2538D01*
X-74434Y-2362D01*
X-74425Y-2168D01*
Y-2113D01*
X-74434Y-2076D01*
X-74443Y-1965D01*
X-74471Y-1835D01*
X-74508Y-1697D01*
X-74573Y-1539D01*
X-74656Y-1391D01*
X-74767Y-1253D01*
X-74785Y-1234D01*
X-74832Y-1197D01*
X-74905Y-1142D01*
X-75016Y-1086D01*
X-75146Y-1022D01*
X-75312Y-966D01*
X-75497Y-929D01*
X-75710Y-911D01*
X-75627Y-106D01*
X-75617D01*
X-75590Y-115D01*
X-75543D01*
X-75479Y-125D01*
X-75405Y-143D01*
X-75321Y-162D01*
X-75220Y-190D01*
X-75118Y-217D01*
X-74896Y-291D01*
X-74674Y-402D01*
X-74563Y-467D01*
X-74452Y-550D01*
X-74351Y-633D01*
X-74258Y-726D01*
X-74249Y-735D01*
X-74240Y-754D01*
X-74212Y-781D01*
X-74184Y-827D01*
X-74147Y-883D01*
X-74110Y-948D01*
X-74064Y-1022D01*
X-74018Y-1114D01*
X-73972Y-1216D01*
X-73925Y-1327D01*
X-73888Y-1447D01*
X-73851Y-1576D01*
X-73824Y-1715D01*
X-73796Y-1863D01*
X-73787Y-2020D01*
X-73777Y-2186D01*
Y-2279D01*
X-73787Y-2344D01*
X-73796Y-2418D01*
X-73805Y-2510D01*
X-73824Y-2612D01*
X-73842Y-2713D01*
X-73907Y-2954D01*
X-73999Y-3194D01*
X-74055Y-3314D01*
X-74120Y-3435D01*
X-74203Y-3546D01*
X-74295Y-3647D01*
X-74304Y-3657D01*
X-74314Y-3675D01*
X-74351Y-3694D01*
X-74388Y-3731D01*
X-74434Y-3777D01*
X-74499Y-3823D01*
X-74563Y-3869D01*
X-74647Y-3925D01*
X-74822Y-4017D01*
X-75044Y-4110D01*
X-75155Y-4147D01*
X-75285Y-4165D01*
X-75414Y-4184D01*
X-75553Y-4193D01*
X-75571D01*
X-75617D01*
X-75691Y-4184D01*
X-75793Y-4174D01*
X-75904Y-4156D01*
X-76033Y-4119D01*
X-76172Y-4082D01*
X-76311Y-4026D01*
X-76329Y-4017D01*
X-76375Y-3999D01*
X-76449Y-3962D01*
X-76551Y-3906D01*
X-76662Y-3832D01*
X-76801Y-3740D01*
X-76940Y-3629D01*
X-77097Y-3499D01*
X-77115Y-3481D01*
X-77171Y-3435D01*
X-77217Y-3388D01*
X-77263Y-3342D01*
X-77319Y-3287D01*
X-77393Y-3213D01*
X-77467Y-3139D01*
X-77550Y-3046D01*
X-77642Y-2954D01*
X-77744Y-2843D01*
X-77846Y-2723D01*
X-77966Y-2593D01*
X-78086Y-2445D01*
X-78215Y-2298D01*
X-78225Y-2288D01*
X-78243Y-2270D01*
X-78271Y-2233D01*
X-78308Y-2186D01*
X-78363Y-2131D01*
X-78419Y-2066D01*
X-78539Y-1918D01*
X-78678Y-1761D01*
X-78816Y-1613D01*
X-78937Y-1484D01*
X-78983Y-1428D01*
X-79029Y-1382D01*
X-79038Y-1373D01*
X-79066Y-1345D01*
X-79103Y-1308D01*
X-79158Y-1262D01*
X-79223Y-1216D01*
X-79288Y-1160D01*
X-79445Y-1049D01*
Y-4202D01*
X-80203D01*
Y42D01*
X-80194D01*
X-80157D01*
X-80101D01*
X-80028Y32D01*
D02*
G37*
G36*
X1045Y-65189D02*
Y-65199D01*
Y-65236D01*
Y-65282D01*
Y-65347D01*
X1036Y-65430D01*
Y-65522D01*
X1027Y-65633D01*
X1018Y-65744D01*
X990Y-65994D01*
X953Y-66253D01*
X897Y-66502D01*
X861Y-66623D01*
X824Y-66733D01*
Y-66743D01*
X814Y-66761D01*
X796Y-66789D01*
X777Y-66826D01*
X722Y-66928D01*
X639Y-67057D01*
X528Y-67205D01*
X398Y-67353D01*
X232Y-67510D01*
X28Y-67649D01*
X19D01*
X1Y-67667D01*
X-27Y-67677D01*
X-73Y-67704D01*
X-129Y-67732D01*
X-203Y-67760D01*
X-277Y-67787D01*
X-369Y-67825D01*
X-471Y-67861D01*
X-582Y-67889D01*
X-702Y-67917D01*
X-841Y-67945D01*
X-979Y-67963D01*
X-1127Y-67982D01*
X-1460Y-68000D01*
X-1543D01*
X-1608Y-67991D01*
X-1682D01*
X-1774Y-67982D01*
X-1876Y-67972D01*
X-1978Y-67963D01*
X-2209Y-67926D01*
X-2459Y-67871D01*
X-2699Y-67797D01*
X-2930Y-67695D01*
X-2939D01*
X-2958Y-67677D01*
X-2986Y-67658D01*
X-3023Y-67639D01*
X-3124Y-67566D01*
X-3244Y-67464D01*
X-3383Y-67334D01*
X-3513Y-67186D01*
X-3642Y-67002D01*
X-3744Y-66798D01*
Y-66789D01*
X-3753Y-66771D01*
X-3762Y-66733D01*
X-3781Y-66687D01*
X-3799Y-66632D01*
X-3818Y-66558D01*
X-3846Y-66475D01*
X-3864Y-66373D01*
X-3882Y-66262D01*
X-3910Y-66142D01*
X-3929Y-66012D01*
X-3947Y-65874D01*
X-3966Y-65717D01*
X-3975Y-65550D01*
X-3984Y-65374D01*
Y-65189D01*
Y-61491D01*
X-3133D01*
Y-65189D01*
Y-65199D01*
Y-65226D01*
Y-65273D01*
Y-65328D01*
X-3124Y-65393D01*
Y-65476D01*
X-3115Y-65652D01*
X-3097Y-65855D01*
X-3069Y-66059D01*
X-3032Y-66253D01*
X-3013Y-66336D01*
X-2986Y-66419D01*
X-2976Y-66438D01*
X-2958Y-66484D01*
X-2912Y-66549D01*
X-2856Y-66641D01*
X-2792Y-66733D01*
X-2699Y-66835D01*
X-2588Y-66937D01*
X-2459Y-67020D01*
X-2440Y-67029D01*
X-2394Y-67057D01*
X-2311Y-67085D01*
X-2200Y-67122D01*
X-2070Y-67168D01*
X-1904Y-67196D01*
X-1728Y-67224D01*
X-1534Y-67233D01*
X-1442D01*
X-1386Y-67224D01*
X-1303D01*
X-1220Y-67214D01*
X-1016Y-67177D01*
X-794Y-67131D01*
X-582Y-67057D01*
X-378Y-66955D01*
X-286Y-66891D01*
X-203Y-66817D01*
X-193Y-66807D01*
X-184Y-66798D01*
X-166Y-66771D01*
X-138Y-66733D01*
X-110Y-66678D01*
X-73Y-66623D01*
X-36Y-66539D01*
X1Y-66456D01*
X38Y-66354D01*
X65Y-66234D01*
X102Y-66095D01*
X130Y-65948D01*
X158Y-65781D01*
X176Y-65606D01*
X195Y-65402D01*
Y-65189D01*
Y-61491D01*
X1045D01*
Y-65189D01*
D02*
G37*
G36*
X5095Y-67889D02*
X4309D01*
Y-62887D01*
X4300Y-62896D01*
X4254Y-62934D01*
X4198Y-62989D01*
X4106Y-63054D01*
X4004Y-63137D01*
X3875Y-63229D01*
X3727Y-63331D01*
X3560Y-63433D01*
X3551D01*
X3542Y-63442D01*
X3486Y-63479D01*
X3394Y-63525D01*
X3283Y-63581D01*
X3153Y-63645D01*
X3015Y-63710D01*
X2876Y-63775D01*
X2737Y-63830D01*
Y-63072D01*
X2747D01*
X2765Y-63054D01*
X2802Y-63045D01*
X2848Y-63017D01*
X2904Y-62989D01*
X2968Y-62952D01*
X3126Y-62860D01*
X3311Y-62758D01*
X3496Y-62628D01*
X3690Y-62481D01*
X3884Y-62323D01*
X3893Y-62314D01*
X3902Y-62305D01*
X3930Y-62277D01*
X3967Y-62249D01*
X4050Y-62157D01*
X4161Y-62046D01*
X4272Y-61916D01*
X4392Y-61769D01*
X4494Y-61621D01*
X4586Y-61463D01*
X5095D01*
Y-67889D01*
D02*
G37*
D12*
X-116814Y54784D02*
X-43814D01*
X-116814Y-32216D02*
Y54784D01*
Y-32216D02*
X-43814D01*
Y54784D01*
X-44734Y-41250D02*
X36766D01*
Y-94750D02*
Y-41250D01*
X-44734Y-94750D02*
X36766D01*
X-44734D02*
Y-41250D01*
D13*
X-77314Y235318D02*
X49686D01*
X77686Y178818D02*
Y210818D01*
X-77314Y154318D02*
X49686D01*
X-77314D02*
Y235318D01*
X49686Y154318D02*
X77686Y178818D01*
X49686Y235318D02*
X77686Y210818D01*
X85186Y194818D02*
X95186D01*
X-94814D02*
X-84814D01*
X-89814Y189818D02*
Y199818D01*
D56*
X-76874Y-133250D02*
X-66374D01*
X-76874Y-138750D02*
X-66374D01*
X-76874D02*
Y-133250D01*
X-66374Y-138750D02*
Y-133250D01*
X80820Y-71650D02*
Y-60650D01*
X86820Y-71650D02*
Y-60650D01*
X80820Y-71650D02*
X86820D01*
X80820Y-60650D02*
X86820D01*
X-7162Y3970D02*
X7338D01*
X-7162Y25970D02*
X7338D01*
X-7162Y3970D02*
Y25970D01*
X7338Y3970D02*
Y25970D01*
X15092Y3970D02*
X29592D01*
X15092Y25970D02*
X29592D01*
X15092Y3970D02*
Y25970D01*
X29592Y3970D02*
Y25970D01*
X44000Y-96870D02*
Y-86370D01*
X49500Y-96870D02*
Y-86370D01*
X44000Y-96870D02*
X49500D01*
X44000Y-86370D02*
X49500D01*
X43523Y53500D02*
Y120500D01*
X-34477Y53500D02*
X43523D01*
X-34477D02*
Y120500D01*
X43523D01*
X-17154Y-3030D02*
Y30970D01*
X-35154Y-3030D02*
Y30970D01*
X-17154D01*
X-35154Y-3030D02*
X-17154D01*
X-62720Y-109074D02*
Y-103574D01*
X-52221Y-109074D02*
Y-103574D01*
X-62720D02*
X-52221D01*
X-62720Y-109074D02*
X-52221D01*
X-62739Y-45149D02*
X-56739D01*
X-62739Y-56149D02*
X-56739D01*
Y-45149D01*
X-62739Y-56149D02*
Y-45149D01*
X-75083D02*
X-69082D01*
X-75083Y-56149D02*
X-69082D01*
Y-45149D01*
X-75083Y-56149D02*
Y-45149D01*
X-66220Y-78022D02*
X-60220D01*
X-66220Y-67022D02*
X-60220D01*
X-66220Y-78022D02*
Y-67022D01*
X-60220Y-78022D02*
Y-67022D01*
X-80314Y-78022D02*
X-74314D01*
X-80314Y-67022D02*
X-74314D01*
X-80314Y-78022D02*
Y-67022D01*
X-74314Y-78022D02*
Y-67022D01*
X43750Y-60650D02*
X49750D01*
X43750Y-71650D02*
X49750D01*
Y-60650D01*
X43750Y-71650D02*
Y-60650D01*
X60343Y-88870D02*
X70843D01*
X60343Y-94370D02*
X70843D01*
X60343D02*
Y-88870D01*
X70843Y-94370D02*
Y-88870D01*
X-23635Y-35310D02*
Y-29310D01*
X-34635Y-35310D02*
Y-29310D01*
Y-35310D02*
X-23635D01*
X-34635Y-29310D02*
X-23635D01*
X60174Y-70250D02*
X70674D01*
X60174Y-75750D02*
X70674D01*
X60174D02*
Y-70250D01*
X70674Y-75750D02*
Y-70250D01*
X-41750Y-118824D02*
X-36250D01*
X-41750Y-108324D02*
X-36250D01*
X-41750Y-118824D02*
Y-108324D01*
X-36250Y-118824D02*
Y-108324D01*
M02*
