G04*
G04 #@! TF.GenerationSoftware,Altium Limited,Altium Designer,26.3.0 (6)*
G04*
G04 Layer_Color=65535*
%FSLAX44Y44*%
%MOMM*%
G71*
G04*
G04 #@! TF.SameCoordinates,A5D2DF9F-5289-4556-85AE-B0E70FB24680*
G04*
G04*
G04 #@! TF.FilePolarity,Positive*
G04*
G01*
G75*
%ADD10C,0.2500*%
%ADD11C,0.2540*%
%ADD12C,0.2000*%
%ADD13C,0.1270*%
%ADD14C,0.1500*%
%ADD15C,0.1200*%
G36*
X23226Y-122807D02*
Y-122905D01*
X23128D01*
Y-122709D01*
X23226D01*
Y-122807D01*
D02*
G37*
G36*
X20092Y-123003D02*
X19994D01*
Y-122905D01*
X20092D01*
Y-123003D01*
D02*
G37*
G36*
X1881Y-122709D02*
X2272D01*
Y-122807D01*
X2468D01*
Y-122905D01*
X2664D01*
Y-123003D01*
X2762D01*
Y-123101D01*
X2860D01*
Y-123198D01*
X2958D01*
Y-123394D01*
X3056D01*
Y-123492D01*
X3154D01*
Y-123884D01*
X2664D01*
Y-123688D01*
X2566D01*
Y-123492D01*
X2468D01*
Y-123394D01*
X2370D01*
Y-123296D01*
X2174D01*
Y-123198D01*
X1881D01*
Y-123101D01*
X1293D01*
Y-123198D01*
X1000D01*
Y-123296D01*
X902D01*
Y-123394D01*
X804D01*
Y-123492D01*
X706D01*
Y-123590D01*
X608D01*
Y-123688D01*
X510D01*
Y-123982D01*
X412D01*
Y-124765D01*
X510D01*
Y-124961D01*
X608D01*
Y-125157D01*
X706D01*
Y-125255D01*
X804D01*
Y-125353D01*
X902D01*
Y-125450D01*
X1098D01*
Y-125548D01*
X1391D01*
Y-125646D01*
X1881D01*
Y-125548D01*
X2174D01*
Y-125450D01*
X2272D01*
Y-125353D01*
X2370D01*
Y-125255D01*
X2468D01*
Y-125157D01*
X2566D01*
Y-125059D01*
X2664D01*
Y-124961D01*
X1489D01*
Y-124863D01*
X1391D01*
Y-124471D01*
X3252D01*
Y-124765D01*
X3154D01*
Y-125059D01*
X3056D01*
Y-125255D01*
X2958D01*
Y-125450D01*
X2860D01*
Y-125548D01*
X2762D01*
Y-125646D01*
X2664D01*
Y-125744D01*
X2468D01*
Y-125842D01*
X2370D01*
Y-125940D01*
X2077D01*
Y-126038D01*
X1000D01*
Y-125940D01*
X804D01*
Y-125842D01*
X608D01*
Y-125744D01*
X510D01*
Y-125646D01*
X412D01*
Y-125548D01*
X314D01*
Y-125450D01*
X216D01*
Y-125255D01*
X118D01*
Y-125059D01*
X21D01*
Y-124863D01*
Y-124765D01*
X-77D01*
Y-123982D01*
X21D01*
Y-123590D01*
X118D01*
Y-123394D01*
X216D01*
Y-123296D01*
X314D01*
Y-123198D01*
X412D01*
Y-123101D01*
X510D01*
Y-123003D01*
X608D01*
Y-122905D01*
X804D01*
Y-122807D01*
X1000D01*
Y-122709D01*
X1293D01*
Y-122611D01*
X1881D01*
Y-122709D01*
D02*
G37*
G36*
X7853Y-126038D02*
X7364D01*
Y-124569D01*
X5895D01*
Y-126038D01*
X5406D01*
Y-122709D01*
X5895D01*
Y-122807D01*
Y-122905D01*
Y-124080D01*
X7364D01*
Y-122709D01*
X7853D01*
Y-126038D01*
D02*
G37*
G36*
X27534Y-113603D02*
X27631D01*
Y-114387D01*
X27729D01*
Y-115170D01*
X27827D01*
Y-116051D01*
X27925D01*
Y-116834D01*
X28023D01*
Y-117618D01*
X28121D01*
Y-118401D01*
X28219D01*
Y-119184D01*
X28317D01*
Y-119967D01*
X28415D01*
Y-120751D01*
X28513D01*
Y-121534D01*
X28611D01*
Y-121632D01*
X28513D01*
Y-121730D01*
X28023D01*
Y-121828D01*
X27436D01*
Y-121926D01*
X26750D01*
Y-122024D01*
X26163D01*
Y-122121D01*
X25967D01*
Y-122415D01*
X25869D01*
Y-122709D01*
X25771D01*
Y-123003D01*
X25673D01*
Y-123296D01*
X25575D01*
Y-123590D01*
X25477D01*
Y-123982D01*
X25380D01*
Y-124276D01*
X25282D01*
Y-124569D01*
X25184D01*
Y-124863D01*
X25086D01*
Y-125059D01*
X24988D01*
Y-124863D01*
X24890D01*
Y-124667D01*
X24792D01*
Y-124471D01*
X24694D01*
Y-124276D01*
X24596D01*
Y-124080D01*
X24498D01*
Y-123884D01*
X24400D01*
Y-123688D01*
X24302D01*
Y-123492D01*
X24205D01*
Y-123296D01*
X24107D01*
Y-123101D01*
X24009D01*
Y-122905D01*
X24107D01*
Y-122807D01*
X24302D01*
Y-122709D01*
X24498D01*
Y-122611D01*
X24694D01*
Y-122513D01*
X24890D01*
Y-122415D01*
X25086D01*
Y-122317D01*
X25282D01*
Y-122219D01*
X24988D01*
Y-122317D01*
X24400D01*
Y-122415D01*
X23813D01*
Y-122317D01*
X23911D01*
Y-122121D01*
X24009D01*
Y-121828D01*
X24107D01*
Y-121632D01*
X24205D01*
Y-121338D01*
X24302D01*
Y-121142D01*
X24400D01*
Y-120849D01*
X24498D01*
Y-120653D01*
X24596D01*
Y-120359D01*
X24694D01*
Y-120163D01*
X24792D01*
Y-119869D01*
X24890D01*
Y-119674D01*
X24988D01*
Y-119380D01*
X25086D01*
Y-119184D01*
X25184D01*
Y-118890D01*
X25282D01*
Y-118695D01*
X25380D01*
Y-118401D01*
X25477D01*
Y-118205D01*
X25575D01*
Y-117911D01*
X25673D01*
Y-117716D01*
X25771D01*
Y-117422D01*
X25869D01*
Y-117226D01*
X25967D01*
Y-116932D01*
X26065D01*
Y-116638D01*
X26163D01*
Y-116443D01*
X26261D01*
Y-116149D01*
X26359D01*
Y-115953D01*
X26457D01*
Y-115659D01*
X26555D01*
Y-115463D01*
X26652D01*
Y-115170D01*
X26555D01*
Y-115366D01*
X26457D01*
Y-115561D01*
X26359D01*
Y-115757D01*
X26261D01*
Y-115953D01*
X26163D01*
Y-116051D01*
X26065D01*
Y-116247D01*
X25967D01*
Y-116443D01*
X25869D01*
Y-116638D01*
X25771D01*
Y-116834D01*
X25673D01*
Y-117030D01*
X25575D01*
Y-117128D01*
X25477D01*
Y-117324D01*
X25380D01*
Y-117520D01*
X25282D01*
Y-117716D01*
X25184D01*
Y-117911D01*
X25086D01*
Y-118009D01*
X24988D01*
Y-118205D01*
X24890D01*
Y-118401D01*
X24792D01*
Y-118597D01*
X24694D01*
Y-118792D01*
X24596D01*
Y-118988D01*
X24498D01*
Y-119086D01*
X24400D01*
Y-119282D01*
X24302D01*
Y-119478D01*
X24205D01*
Y-119674D01*
X24107D01*
Y-119869D01*
X24009D01*
Y-120065D01*
X23911D01*
Y-120163D01*
X23813D01*
Y-120359D01*
X23715D01*
Y-120555D01*
X23617D01*
Y-120751D01*
X23519D01*
Y-120947D01*
X23421D01*
Y-121045D01*
X23323D01*
Y-121240D01*
X23226D01*
Y-121436D01*
X23128D01*
Y-121632D01*
X23030D01*
Y-121828D01*
X22932D01*
Y-122024D01*
X22834D01*
Y-122121D01*
X22736D01*
Y-122317D01*
X22638D01*
Y-122513D01*
X22442D01*
Y-122611D01*
X21855D01*
Y-122709D01*
X21267D01*
Y-122807D01*
X20680D01*
Y-122905D01*
X20092D01*
Y-122709D01*
X20190D01*
Y-122611D01*
X20288D01*
Y-122513D01*
X20386D01*
Y-122317D01*
X20484D01*
Y-122219D01*
X20582D01*
Y-122121D01*
X20680D01*
Y-121926D01*
X20778D01*
Y-121828D01*
X20876D01*
Y-121730D01*
X20973D01*
Y-121534D01*
X21071D01*
Y-121436D01*
X21169D01*
Y-121338D01*
X21267D01*
Y-121240D01*
X21365D01*
Y-121045D01*
X21463D01*
Y-120947D01*
X21561D01*
Y-120849D01*
X21659D01*
Y-120653D01*
X21757D01*
Y-120555D01*
X21855D01*
Y-120457D01*
X21953D01*
Y-120261D01*
X22051D01*
Y-120163D01*
X22148D01*
Y-120065D01*
X22246D01*
Y-119869D01*
X22344D01*
Y-119772D01*
X22442D01*
Y-119674D01*
X22540D01*
Y-119478D01*
X22638D01*
Y-119380D01*
X22736D01*
Y-119282D01*
X22834D01*
Y-119086D01*
X22932D01*
Y-118988D01*
X23030D01*
Y-118890D01*
X23128D01*
Y-118695D01*
X23226D01*
Y-118597D01*
X23323D01*
Y-118499D01*
X23421D01*
Y-118401D01*
X23519D01*
Y-118205D01*
X23617D01*
Y-118107D01*
X23715D01*
Y-118009D01*
X23813D01*
Y-117813D01*
X23911D01*
Y-117716D01*
X24009D01*
Y-117618D01*
X24107D01*
Y-117422D01*
X24205D01*
Y-117324D01*
X24302D01*
Y-117226D01*
X24400D01*
Y-117030D01*
X24498D01*
Y-116932D01*
X24596D01*
Y-116834D01*
X24694D01*
Y-116638D01*
X24792D01*
Y-116541D01*
X24890D01*
Y-116443D01*
X24988D01*
Y-116247D01*
X25086D01*
Y-116149D01*
X25184D01*
Y-116051D01*
X25282D01*
Y-115953D01*
X25380D01*
Y-115757D01*
X25477D01*
Y-115659D01*
X25575D01*
Y-115561D01*
X25673D01*
Y-115366D01*
X25771D01*
Y-115268D01*
X25869D01*
Y-115170D01*
X25967D01*
Y-114974D01*
X26065D01*
Y-114876D01*
X26163D01*
Y-114778D01*
X26261D01*
Y-114582D01*
X26359D01*
Y-114484D01*
X26457D01*
Y-114387D01*
X26555D01*
Y-114191D01*
X26652D01*
Y-114093D01*
X26750D01*
Y-113995D01*
X26848D01*
Y-113799D01*
X26946D01*
Y-113701D01*
X27044D01*
Y-113603D01*
X27142D01*
Y-113407D01*
X27240D01*
Y-113309D01*
X27338D01*
Y-113212D01*
X27436D01*
Y-113114D01*
X27534D01*
Y-113603D01*
D02*
G37*
G36*
X-3211Y-122807D02*
X-3113D01*
Y-123101D01*
X-3015D01*
Y-123296D01*
X-2917D01*
Y-123590D01*
X-2819D01*
Y-123786D01*
X-2721D01*
Y-124080D01*
X-2623D01*
Y-124276D01*
X-2525D01*
Y-124569D01*
X-2427D01*
Y-124765D01*
X-2329D01*
Y-125059D01*
X-2231D01*
Y-125353D01*
X-2133D01*
Y-125548D01*
X-2036D01*
Y-125842D01*
X-1938D01*
Y-126038D01*
X-2427D01*
Y-125842D01*
X-2525D01*
Y-125646D01*
X-2623D01*
Y-125353D01*
X-2721D01*
Y-125157D01*
X-2819D01*
Y-125059D01*
X-4092D01*
Y-125255D01*
X-4190D01*
Y-125548D01*
X-4288D01*
Y-125744D01*
X-4385D01*
Y-126038D01*
X-4973D01*
Y-125940D01*
X-4875D01*
Y-125744D01*
X-4777D01*
Y-125450D01*
X-4679D01*
Y-125255D01*
X-4581D01*
Y-124961D01*
X-4483D01*
Y-124765D01*
X-4385D01*
Y-124471D01*
X-4288D01*
Y-124276D01*
X-4190D01*
Y-123982D01*
X-4092D01*
Y-123688D01*
X-3994D01*
Y-123492D01*
X-3896D01*
Y-123198D01*
X-3798D01*
Y-123003D01*
X-3700D01*
Y-122709D01*
X-3602D01*
Y-122611D01*
X-3211D01*
Y-122807D01*
D02*
G37*
G36*
X-77Y-127507D02*
X314D01*
Y-127605D01*
X706D01*
Y-127703D01*
X902D01*
Y-127800D01*
X1195D01*
Y-127898D01*
X1293D01*
Y-127996D01*
X1489D01*
Y-128094D01*
X1685D01*
Y-128192D01*
X1783D01*
Y-128290D01*
X1881D01*
Y-128388D01*
X1979D01*
Y-128486D01*
X2077D01*
Y-128584D01*
X2174D01*
Y-128682D01*
X2272D01*
Y-128779D01*
X2370D01*
Y-128877D01*
X2468D01*
Y-129073D01*
X2566D01*
Y-129269D01*
X2664D01*
Y-129465D01*
X2762D01*
Y-129661D01*
X2860D01*
Y-130052D01*
X2958D01*
Y-130346D01*
X1979D01*
Y-130444D01*
X1391D01*
Y-130346D01*
X1293D01*
Y-130052D01*
X1195D01*
Y-129857D01*
X1098D01*
Y-129759D01*
X1000D01*
Y-129661D01*
X902D01*
Y-129563D01*
X804D01*
Y-129465D01*
X706D01*
Y-129367D01*
X510D01*
Y-129269D01*
X314D01*
Y-129171D01*
X21D01*
Y-129073D01*
X-371D01*
Y-128975D01*
X-1448D01*
Y-129073D01*
X-1840D01*
Y-129171D01*
X-2133D01*
Y-129269D01*
X-2329D01*
Y-129367D01*
X-2525D01*
Y-129465D01*
X-2623D01*
Y-129563D01*
X-2721D01*
Y-129661D01*
X-2819D01*
Y-129759D01*
X-2917D01*
Y-129857D01*
X-3015D01*
Y-129954D01*
X-3113D01*
Y-130150D01*
X-3211D01*
Y-130640D01*
X-3309D01*
Y-130836D01*
X-3211D01*
Y-131325D01*
X-3113D01*
Y-131521D01*
X-3015D01*
Y-131619D01*
X-2917D01*
Y-131717D01*
X-2819D01*
Y-131815D01*
X-2623D01*
Y-131913D01*
X-2525D01*
Y-132011D01*
X-2231D01*
Y-132108D01*
X-1840D01*
Y-132206D01*
X-1252D01*
Y-132304D01*
X-371D01*
Y-132402D01*
X216D01*
Y-132500D01*
X608D01*
Y-132598D01*
X1000D01*
Y-132696D01*
X1293D01*
Y-132794D01*
X1489D01*
Y-132892D01*
X1685D01*
Y-132990D01*
X1881D01*
Y-133088D01*
X2077D01*
Y-133186D01*
X2174D01*
Y-133283D01*
X2370D01*
Y-133381D01*
X2468D01*
Y-133479D01*
X2566D01*
Y-133577D01*
X2664D01*
Y-133675D01*
X2762D01*
Y-133871D01*
X2860D01*
Y-133969D01*
X2958D01*
Y-134165D01*
X3056D01*
Y-134458D01*
X3154D01*
Y-134752D01*
X3252D01*
Y-136123D01*
X3154D01*
Y-136417D01*
X3056D01*
Y-136710D01*
X2958D01*
Y-136906D01*
X2860D01*
Y-137102D01*
X2762D01*
Y-137200D01*
X2664D01*
Y-137298D01*
X2566D01*
Y-137494D01*
X2468D01*
Y-137591D01*
X2370D01*
Y-137689D01*
X2272D01*
Y-137787D01*
X2077D01*
Y-137885D01*
X1979D01*
Y-137983D01*
X1881D01*
Y-138081D01*
X1685D01*
Y-138179D01*
X1587D01*
Y-138277D01*
X1391D01*
Y-138375D01*
X1195D01*
Y-138473D01*
X902D01*
Y-138571D01*
X706D01*
Y-138668D01*
X314D01*
Y-138766D01*
X-175D01*
Y-138864D01*
X-1644D01*
Y-138766D01*
X-2133D01*
Y-138668D01*
X-2427D01*
Y-138571D01*
X-2721D01*
Y-138473D01*
X-2917D01*
Y-138375D01*
X-3113D01*
Y-138277D01*
X-3309D01*
Y-138179D01*
X-3504D01*
Y-138081D01*
X-3602D01*
Y-137983D01*
X-3700D01*
Y-137885D01*
X-3896D01*
Y-137787D01*
X-3994D01*
Y-137689D01*
X-4092D01*
Y-137591D01*
X-4190D01*
Y-137494D01*
X-4288D01*
Y-137396D01*
X-4385D01*
Y-137200D01*
X-4483D01*
Y-137102D01*
X-4581D01*
Y-136906D01*
X-4679D01*
Y-136710D01*
X-4777D01*
Y-136417D01*
X-4875D01*
Y-136025D01*
X-4973D01*
Y-135535D01*
X-3309D01*
Y-135927D01*
X-3211D01*
Y-136221D01*
X-3113D01*
Y-136319D01*
X-3015D01*
Y-136417D01*
X-2917D01*
Y-136515D01*
X-2819D01*
Y-136612D01*
X-2721D01*
Y-136710D01*
X-2623D01*
Y-136808D01*
X-2427D01*
Y-136906D01*
X-2329D01*
Y-137004D01*
X-2036D01*
Y-137102D01*
X-1742D01*
Y-137200D01*
X-1252D01*
Y-137298D01*
X-469D01*
Y-137200D01*
X21D01*
Y-137102D01*
X314D01*
Y-137004D01*
X510D01*
Y-136906D01*
X706D01*
Y-136808D01*
X902D01*
Y-136710D01*
X1000D01*
Y-136612D01*
X1098D01*
Y-136515D01*
X1195D01*
Y-136417D01*
X1293D01*
Y-136319D01*
X1391D01*
Y-136221D01*
X1489D01*
Y-136025D01*
X1587D01*
Y-135633D01*
X1685D01*
Y-135242D01*
X1587D01*
Y-134850D01*
X1489D01*
Y-134654D01*
X1391D01*
Y-134556D01*
X1293D01*
Y-134458D01*
X1098D01*
Y-134360D01*
X1000D01*
Y-134263D01*
X706D01*
Y-134165D01*
X412D01*
Y-134067D01*
X-175D01*
Y-133969D01*
X-959D01*
Y-133871D01*
X-1742D01*
Y-133773D01*
X-2231D01*
Y-133675D01*
X-2623D01*
Y-133577D01*
X-2917D01*
Y-133479D01*
X-3211D01*
Y-133381D01*
X-3406D01*
Y-133283D01*
X-3602D01*
Y-133186D01*
X-3700D01*
Y-133088D01*
X-3896D01*
Y-132990D01*
X-3994D01*
Y-132892D01*
X-4092D01*
Y-132794D01*
X-4190D01*
Y-132696D01*
X-4288D01*
Y-132598D01*
X-4385D01*
Y-132402D01*
X-4483D01*
Y-132206D01*
X-4581D01*
Y-132011D01*
X-4679D01*
Y-131815D01*
X-4777D01*
Y-131325D01*
X-4875D01*
Y-130150D01*
X-4777D01*
Y-129759D01*
X-4679D01*
Y-129563D01*
X-4581D01*
Y-129367D01*
X-4483D01*
Y-129171D01*
X-4385D01*
Y-128975D01*
X-4288D01*
Y-128877D01*
X-4190D01*
Y-128779D01*
X-4092D01*
Y-128682D01*
X-3994D01*
Y-128584D01*
X-3896D01*
Y-128486D01*
X-3798D01*
Y-128388D01*
X-3700D01*
Y-128290D01*
X-3602D01*
Y-128192D01*
X-3406D01*
Y-128094D01*
X-3309D01*
Y-127996D01*
X-3113D01*
Y-127898D01*
X-2917D01*
Y-127800D01*
X-2721D01*
Y-127703D01*
X-2427D01*
Y-127605D01*
X-2036D01*
Y-127507D01*
X-1546D01*
Y-127409D01*
X-77D01*
Y-127507D01*
D02*
G37*
G36*
X11378D02*
X11770D01*
Y-127605D01*
X12162D01*
Y-127703D01*
X12455D01*
Y-127800D01*
X12651D01*
Y-127898D01*
X12847D01*
Y-127996D01*
X13043D01*
Y-128094D01*
X13239D01*
Y-128192D01*
X13434D01*
Y-128290D01*
X13532D01*
Y-128388D01*
X13728D01*
Y-128486D01*
X13826D01*
Y-128584D01*
X13924D01*
Y-128682D01*
X14022D01*
Y-128779D01*
X14218D01*
Y-128877D01*
X14316D01*
Y-128975D01*
X14413D01*
Y-129073D01*
X14511D01*
Y-129171D01*
X14609D01*
Y-129269D01*
X14707D01*
Y-129465D01*
X14805D01*
Y-129563D01*
X14903D01*
Y-129661D01*
X15001D01*
Y-129759D01*
X14805D01*
Y-129857D01*
X14707D01*
Y-129954D01*
X14511D01*
Y-130052D01*
X14316D01*
Y-130150D01*
X14120D01*
Y-130248D01*
X14022D01*
Y-130346D01*
X13826D01*
Y-130444D01*
X13630D01*
Y-130542D01*
X13532D01*
Y-130444D01*
X13434D01*
Y-130346D01*
X13336D01*
Y-130248D01*
X13239D01*
Y-130150D01*
X13141D01*
Y-130052D01*
X13043D01*
Y-129954D01*
X12945D01*
Y-129857D01*
X12847D01*
Y-129759D01*
X12651D01*
Y-129661D01*
X12553D01*
Y-129563D01*
X12357D01*
Y-129465D01*
X12162D01*
Y-129367D01*
X11966D01*
Y-129269D01*
X11672D01*
Y-129171D01*
X11378D01*
Y-129073D01*
X10791D01*
Y-128975D01*
X9909D01*
Y-129073D01*
X9420D01*
Y-129171D01*
X9126D01*
Y-129269D01*
X8832D01*
Y-129367D01*
X8637D01*
Y-129465D01*
X8441D01*
Y-129563D01*
X8245D01*
Y-129661D01*
X8147D01*
Y-129759D01*
X7951D01*
Y-129857D01*
X7853D01*
Y-129954D01*
X7756D01*
Y-130052D01*
X7658D01*
Y-130150D01*
X7560D01*
Y-130248D01*
X7462D01*
Y-130346D01*
X7364D01*
Y-130444D01*
X7266D01*
Y-130542D01*
X7168D01*
Y-130640D01*
X7070D01*
Y-130836D01*
X6972D01*
Y-130934D01*
X6874D01*
Y-131129D01*
X6776D01*
Y-131325D01*
X6679D01*
Y-131521D01*
X6581D01*
Y-131717D01*
X6483D01*
Y-132011D01*
X6385D01*
Y-132500D01*
X6287D01*
Y-132892D01*
X5504D01*
Y-132990D01*
X4622D01*
Y-132794D01*
X4720D01*
Y-132011D01*
X4818D01*
Y-131619D01*
X4916D01*
Y-131325D01*
X5014D01*
Y-131031D01*
X5112D01*
Y-130836D01*
X5210D01*
Y-130542D01*
X5308D01*
Y-130444D01*
X5406D01*
Y-130248D01*
X5504D01*
Y-130052D01*
X5601D01*
Y-129954D01*
X5699D01*
Y-129759D01*
X5797D01*
Y-129661D01*
X5895D01*
Y-129465D01*
X5993D01*
Y-129367D01*
X6091D01*
Y-129269D01*
X6189D01*
Y-129171D01*
X6287D01*
Y-129073D01*
X6385D01*
Y-128975D01*
X6483D01*
Y-128877D01*
X6581D01*
Y-128779D01*
X6679D01*
Y-128682D01*
X6776D01*
Y-128584D01*
X6972D01*
Y-128486D01*
X7070D01*
Y-128388D01*
X7168D01*
Y-128290D01*
X7364D01*
Y-128192D01*
X7560D01*
Y-128094D01*
X7658D01*
Y-127996D01*
X7853D01*
Y-127898D01*
X8147D01*
Y-127800D01*
X8343D01*
Y-127703D01*
X8637D01*
Y-127605D01*
X8930D01*
Y-127507D01*
X9420D01*
Y-127409D01*
X11378D01*
Y-127507D01*
D02*
G37*
G36*
X41437Y-127605D02*
X41927D01*
Y-127703D01*
X42220D01*
Y-127800D01*
X42514D01*
Y-127898D01*
X42710D01*
Y-127996D01*
X42906D01*
Y-128094D01*
X43004D01*
Y-128192D01*
X43199D01*
Y-128290D01*
X43297D01*
Y-128388D01*
X43395D01*
Y-128486D01*
X43493D01*
Y-128584D01*
X43591D01*
Y-128682D01*
X43689D01*
Y-128779D01*
X43787D01*
Y-128975D01*
X43885D01*
Y-129073D01*
X43983D01*
Y-129269D01*
X44081D01*
Y-129465D01*
X44179D01*
Y-129661D01*
X44276D01*
Y-129954D01*
X44374D01*
Y-130346D01*
X44472D01*
Y-131913D01*
X44374D01*
Y-132206D01*
X44276D01*
Y-132500D01*
X44179D01*
Y-132696D01*
X44081D01*
Y-132892D01*
X43983D01*
Y-133088D01*
X43885D01*
Y-133186D01*
X43787D01*
Y-133381D01*
X43689D01*
Y-133479D01*
X43591D01*
Y-133577D01*
X43493D01*
Y-133675D01*
X43395D01*
Y-133773D01*
X43297D01*
Y-133871D01*
X43102D01*
Y-133969D01*
X43004D01*
Y-134067D01*
X42808D01*
Y-134165D01*
X42612D01*
Y-134263D01*
X42416D01*
Y-134360D01*
X42122D01*
Y-134458D01*
X41731D01*
Y-134556D01*
X41633D01*
Y-134654D01*
X41731D01*
Y-134752D01*
X41829D01*
Y-134850D01*
X41927D01*
Y-135046D01*
X42024D01*
Y-135144D01*
X42122D01*
Y-135242D01*
X42220D01*
Y-135340D01*
X42318D01*
Y-135437D01*
X42416D01*
Y-135633D01*
X42514D01*
Y-135731D01*
X42612D01*
Y-135829D01*
X42710D01*
Y-135927D01*
X42808D01*
Y-136025D01*
X42906D01*
Y-136123D01*
X43004D01*
Y-136319D01*
X43102D01*
Y-136417D01*
X43199D01*
Y-136515D01*
X43297D01*
Y-136612D01*
X43395D01*
Y-136710D01*
X43493D01*
Y-136906D01*
X43591D01*
Y-137004D01*
X43689D01*
Y-137102D01*
X43787D01*
Y-137200D01*
X43885D01*
Y-137298D01*
X43983D01*
Y-137494D01*
X44081D01*
Y-137591D01*
X44179D01*
Y-137689D01*
X44276D01*
Y-137787D01*
X44374D01*
Y-137885D01*
X44472D01*
Y-138081D01*
X44570D01*
Y-138179D01*
X44668D01*
Y-138277D01*
X44766D01*
Y-138375D01*
X44864D01*
Y-138473D01*
X44962D01*
Y-138571D01*
X45060D01*
Y-138766D01*
X43004D01*
Y-138668D01*
X42906D01*
Y-138571D01*
X42808D01*
Y-138473D01*
X42710D01*
Y-138277D01*
X42612D01*
Y-138179D01*
X42514D01*
Y-138081D01*
X42416D01*
Y-137983D01*
X42318D01*
Y-137885D01*
X42220D01*
Y-137689D01*
X42122D01*
Y-137591D01*
X42024D01*
Y-137494D01*
X41927D01*
Y-137396D01*
X41829D01*
Y-137200D01*
X41731D01*
Y-137102D01*
X41633D01*
Y-137004D01*
X41535D01*
Y-136906D01*
X41437D01*
Y-136808D01*
X41339D01*
Y-136612D01*
X41241D01*
Y-136515D01*
X41143D01*
Y-136417D01*
X41045D01*
Y-136319D01*
X40947D01*
Y-136221D01*
X40849D01*
Y-136025D01*
X40752D01*
Y-135927D01*
X40654D01*
Y-135829D01*
X40556D01*
Y-135731D01*
X40458D01*
Y-135633D01*
X40360D01*
Y-135437D01*
X40262D01*
Y-135340D01*
X40164D01*
Y-135242D01*
X40066D01*
Y-135144D01*
X39968D01*
Y-135046D01*
X39870D01*
Y-134850D01*
X39773D01*
Y-134752D01*
X39675D01*
Y-134654D01*
X39577D01*
Y-134556D01*
X39479D01*
Y-134458D01*
X39381D01*
Y-134263D01*
X39283D01*
Y-134165D01*
X39185D01*
Y-134067D01*
X39087D01*
Y-133969D01*
X38989D01*
Y-133088D01*
X41241D01*
Y-132990D01*
X41633D01*
Y-132892D01*
X41829D01*
Y-132794D01*
X42024D01*
Y-132696D01*
X42220D01*
Y-132598D01*
X42318D01*
Y-132500D01*
X42416D01*
Y-132402D01*
X42514D01*
Y-132206D01*
X42612D01*
Y-132108D01*
X42710D01*
Y-131815D01*
X42808D01*
Y-131521D01*
X42906D01*
Y-130738D01*
X42808D01*
Y-130346D01*
X42710D01*
Y-130150D01*
X42612D01*
Y-129954D01*
X42514D01*
Y-129857D01*
X42416D01*
Y-129759D01*
X42318D01*
Y-129661D01*
X42220D01*
Y-129563D01*
X42122D01*
Y-129465D01*
X41927D01*
Y-129367D01*
X41731D01*
Y-129269D01*
X41437D01*
Y-129171D01*
X38304D01*
Y-138766D01*
X36737D01*
Y-127507D01*
X41437D01*
Y-127605D01*
D02*
G37*
G36*
X31254D02*
X31352D01*
Y-127800D01*
X31450D01*
Y-128094D01*
X31548D01*
Y-128290D01*
X31646D01*
Y-128584D01*
X31744D01*
Y-128779D01*
X31842D01*
Y-129073D01*
X31940D01*
Y-129269D01*
X32037D01*
Y-129563D01*
X32135D01*
Y-129759D01*
X32233D01*
Y-130052D01*
X32331D01*
Y-130346D01*
X32429D01*
Y-130542D01*
X32527D01*
Y-130836D01*
X32625D01*
Y-131031D01*
X32723D01*
Y-131325D01*
X32821D01*
Y-131521D01*
X32919D01*
Y-131815D01*
X33017D01*
Y-132011D01*
X33115D01*
Y-132304D01*
X33212D01*
Y-132500D01*
X33310D01*
Y-132794D01*
X33408D01*
Y-132990D01*
X33506D01*
Y-133283D01*
X33604D01*
Y-133479D01*
X33702D01*
Y-133773D01*
X33800D01*
Y-133969D01*
X33898D01*
Y-134263D01*
X33996D01*
Y-134458D01*
X34094D01*
Y-134752D01*
X34192D01*
Y-135046D01*
X34290D01*
Y-135242D01*
X34387D01*
Y-135535D01*
X34485D01*
Y-135731D01*
X34583D01*
Y-136025D01*
X34681D01*
Y-136221D01*
X34779D01*
Y-136515D01*
X34877D01*
Y-136710D01*
X34975D01*
Y-137004D01*
X35073D01*
Y-137200D01*
X35171D01*
Y-137494D01*
X35269D01*
Y-137689D01*
X35366D01*
Y-137983D01*
X35464D01*
Y-138179D01*
X35562D01*
Y-138473D01*
X35660D01*
Y-138668D01*
X35758D01*
Y-138766D01*
X33996D01*
Y-138571D01*
X33898D01*
Y-138375D01*
X33800D01*
Y-138179D01*
X33702D01*
Y-137885D01*
X33604D01*
Y-137689D01*
X33506D01*
Y-137396D01*
X33408D01*
Y-137200D01*
X33310D01*
Y-136906D01*
X33212D01*
Y-136710D01*
X33115D01*
Y-136417D01*
X33017D01*
Y-136221D01*
X32919D01*
Y-135927D01*
X32821D01*
Y-135731D01*
X32723D01*
Y-135535D01*
X32625D01*
Y-135437D01*
X28611D01*
Y-135535D01*
X28513D01*
Y-135829D01*
X28415D01*
Y-136025D01*
X28317D01*
Y-136319D01*
X28219D01*
Y-136515D01*
X28121D01*
Y-136710D01*
X28023D01*
Y-137004D01*
X27925D01*
Y-137200D01*
X27827D01*
Y-137494D01*
X27729D01*
Y-137689D01*
X27631D01*
Y-137983D01*
X27534D01*
Y-138179D01*
X27436D01*
Y-138473D01*
X27338D01*
Y-138668D01*
X27240D01*
Y-138766D01*
X25575D01*
Y-138473D01*
X25673D01*
Y-138277D01*
X25771D01*
Y-137983D01*
X25869D01*
Y-137787D01*
X25967D01*
Y-137494D01*
X26065D01*
Y-137298D01*
X26163D01*
Y-137004D01*
X26261D01*
Y-136808D01*
X26359D01*
Y-136515D01*
X26457D01*
Y-136319D01*
X26555D01*
Y-136025D01*
X26652D01*
Y-135829D01*
X26750D01*
Y-135535D01*
X26848D01*
Y-135340D01*
X26946D01*
Y-135046D01*
X27044D01*
Y-134850D01*
X27142D01*
Y-134556D01*
X27240D01*
Y-134360D01*
X27338D01*
Y-134067D01*
X27436D01*
Y-133773D01*
X27534D01*
Y-133577D01*
X27631D01*
Y-133283D01*
X27729D01*
Y-133088D01*
X27827D01*
Y-132794D01*
X27925D01*
Y-132598D01*
X28023D01*
Y-132304D01*
X28121D01*
Y-132108D01*
X28219D01*
Y-131815D01*
X28317D01*
Y-131619D01*
X28415D01*
Y-131325D01*
X28513D01*
Y-131129D01*
X28611D01*
Y-130836D01*
X28709D01*
Y-130640D01*
X28806D01*
Y-130346D01*
X28904D01*
Y-130150D01*
X29002D01*
Y-129857D01*
X29100D01*
Y-129661D01*
X29198D01*
Y-129367D01*
X29296D01*
Y-129073D01*
X29394D01*
Y-128877D01*
X29492D01*
Y-128584D01*
X29590D01*
Y-128388D01*
X29688D01*
Y-128094D01*
X29786D01*
Y-127898D01*
X29883D01*
Y-127605D01*
X29981D01*
Y-127409D01*
X31254D01*
Y-127605D01*
D02*
G37*
G36*
X19505Y-137200D02*
X24792D01*
Y-138766D01*
X17938D01*
Y-131619D01*
X18036D01*
Y-131521D01*
X18134D01*
Y-131423D01*
X18330D01*
Y-131325D01*
X18428D01*
Y-131227D01*
X18526D01*
Y-131129D01*
X18624D01*
Y-131031D01*
X18722D01*
Y-130934D01*
X18820D01*
Y-130836D01*
X18917D01*
Y-130738D01*
X19015D01*
Y-130640D01*
X19113D01*
Y-130542D01*
X19211D01*
Y-130444D01*
X19309D01*
Y-130346D01*
X19407D01*
Y-130248D01*
X19505D01*
Y-137200D01*
D02*
G37*
G36*
X23128Y-123198D02*
X23030D01*
Y-123492D01*
X22932D01*
Y-123688D01*
X22834D01*
Y-123982D01*
X22736D01*
Y-124178D01*
X22638D01*
Y-124374D01*
X22540D01*
Y-124569D01*
X22442D01*
Y-124765D01*
X22344D01*
Y-125059D01*
X22246D01*
Y-125255D01*
X22148D01*
Y-125353D01*
X22051D01*
Y-125548D01*
X21953D01*
Y-125744D01*
X21855D01*
Y-125940D01*
X21757D01*
Y-126136D01*
X21659D01*
Y-126234D01*
X21561D01*
Y-126430D01*
X21463D01*
Y-126625D01*
X21365D01*
Y-126723D01*
X21267D01*
Y-126919D01*
X21169D01*
Y-127017D01*
X21071D01*
Y-127213D01*
X20973D01*
Y-127311D01*
X20876D01*
Y-127507D01*
X20778D01*
Y-127605D01*
X20680D01*
Y-127703D01*
X20582D01*
Y-127898D01*
X20484D01*
Y-127996D01*
X20386D01*
Y-128094D01*
X20288D01*
Y-128290D01*
X20190D01*
Y-128388D01*
X20092D01*
Y-128486D01*
X19994D01*
Y-128584D01*
X19897D01*
Y-128779D01*
X19799D01*
Y-128877D01*
X19701D01*
Y-128975D01*
X19603D01*
Y-129073D01*
X19505D01*
Y-129171D01*
X19407D01*
Y-129269D01*
X19309D01*
Y-129367D01*
X19211D01*
Y-129563D01*
X19113D01*
Y-129661D01*
X19015D01*
Y-129759D01*
X18917D01*
Y-129857D01*
X18820D01*
Y-129954D01*
X18722D01*
Y-130052D01*
X18624D01*
Y-130150D01*
X18526D01*
Y-130248D01*
X18428D01*
Y-130346D01*
X18330D01*
Y-130444D01*
X18232D01*
Y-130542D01*
X18134D01*
Y-130640D01*
X18036D01*
Y-130738D01*
X17938D01*
Y-130836D01*
X17743D01*
Y-130934D01*
X17644D01*
Y-131031D01*
X17547D01*
Y-131129D01*
X17449D01*
Y-131227D01*
X17351D01*
Y-131325D01*
X17253D01*
Y-131423D01*
X17155D01*
Y-131521D01*
X16959D01*
Y-131619D01*
X16861D01*
Y-131717D01*
X16763D01*
Y-131815D01*
X16665D01*
Y-131913D01*
X16567D01*
Y-132011D01*
X16372D01*
Y-132108D01*
X16274D01*
Y-132206D01*
X16176D01*
Y-132304D01*
X16078D01*
Y-134165D01*
X15980D01*
Y-134556D01*
X15882D01*
Y-134948D01*
X15784D01*
Y-135144D01*
X15686D01*
Y-135437D01*
X15588D01*
Y-135633D01*
X15490D01*
Y-135829D01*
X15393D01*
Y-136025D01*
X15295D01*
Y-136221D01*
X15197D01*
Y-136319D01*
X15099D01*
Y-136515D01*
X15001D01*
Y-136612D01*
X14903D01*
Y-136710D01*
X14805D01*
Y-136906D01*
X14707D01*
Y-137004D01*
X14609D01*
Y-137102D01*
X14511D01*
Y-137200D01*
X14413D01*
Y-137298D01*
X14316D01*
Y-137396D01*
X14218D01*
Y-137494D01*
X14120D01*
Y-137591D01*
X14022D01*
Y-137689D01*
X13826D01*
Y-137787D01*
X13728D01*
Y-137885D01*
X13630D01*
Y-137983D01*
X13434D01*
Y-138081D01*
X13239D01*
Y-138179D01*
X13141D01*
Y-138277D01*
X12945D01*
Y-138375D01*
X12749D01*
Y-138473D01*
X12455D01*
Y-138571D01*
X12259D01*
Y-138668D01*
X11868D01*
Y-138766D01*
X11476D01*
Y-138864D01*
X10595D01*
Y-138962D01*
X10105D01*
Y-138864D01*
X9322D01*
Y-138766D01*
X8832D01*
Y-138668D01*
X8539D01*
Y-138571D01*
X8245D01*
Y-138473D01*
X8049D01*
Y-138375D01*
X7853D01*
Y-138277D01*
X7658D01*
Y-138179D01*
X7462D01*
Y-138081D01*
X7364D01*
Y-137983D01*
X7168D01*
Y-137885D01*
X7070D01*
Y-137787D01*
X6874D01*
Y-137689D01*
X6776D01*
Y-137591D01*
X6679D01*
Y-137494D01*
X6581D01*
Y-137396D01*
X6483D01*
Y-137298D01*
X6385D01*
Y-137200D01*
X6287D01*
Y-137102D01*
X6189D01*
Y-137004D01*
X6091D01*
Y-136906D01*
X5993D01*
Y-136808D01*
X5895D01*
Y-136612D01*
X5797D01*
Y-136515D01*
X5699D01*
Y-136319D01*
X5601D01*
Y-136221D01*
X5504D01*
Y-136025D01*
X5406D01*
Y-135927D01*
X5308D01*
Y-135731D01*
X5210D01*
Y-135535D01*
X5112D01*
Y-135242D01*
X5014D01*
Y-134948D01*
X4916D01*
Y-134654D01*
X4818D01*
Y-134165D01*
X4720D01*
Y-133675D01*
X5699D01*
Y-133577D01*
X6483D01*
Y-133479D01*
X7070D01*
Y-133381D01*
X7560D01*
Y-133283D01*
X8049D01*
Y-133186D01*
X8441D01*
Y-133088D01*
X8832D01*
Y-132990D01*
X9224D01*
Y-132892D01*
X9616D01*
Y-132794D01*
X9909D01*
Y-132696D01*
X10203D01*
Y-132598D01*
X10497D01*
Y-132500D01*
X10791D01*
Y-132402D01*
X11085D01*
Y-132304D01*
X11378D01*
Y-132206D01*
X11574D01*
Y-132108D01*
X11868D01*
Y-132011D01*
X12064D01*
Y-131913D01*
X12357D01*
Y-131815D01*
X12553D01*
Y-131717D01*
X12749D01*
Y-131619D01*
X12945D01*
Y-131521D01*
X13239D01*
Y-131423D01*
X13434D01*
Y-131325D01*
X13630D01*
Y-131227D01*
X13826D01*
Y-131129D01*
X14022D01*
Y-131031D01*
X14218D01*
Y-130934D01*
X14413D01*
Y-130836D01*
X14511D01*
Y-130738D01*
X14707D01*
Y-130640D01*
X14903D01*
Y-130542D01*
X15099D01*
Y-130444D01*
X15197D01*
Y-130346D01*
X15393D01*
Y-130248D01*
X15588D01*
Y-130150D01*
X15686D01*
Y-130052D01*
X15882D01*
Y-129954D01*
X16078D01*
Y-129857D01*
X16176D01*
Y-129759D01*
X16372D01*
Y-129661D01*
X16470D01*
Y-129563D01*
X16665D01*
Y-129465D01*
X16763D01*
Y-129367D01*
X16959D01*
Y-129269D01*
X17057D01*
Y-129171D01*
X17253D01*
Y-129073D01*
X17351D01*
Y-128975D01*
X17449D01*
Y-128877D01*
X17644D01*
Y-128779D01*
X17743D01*
Y-128682D01*
X17840D01*
Y-128584D01*
X18036D01*
Y-128486D01*
X18134D01*
Y-128388D01*
X18232D01*
Y-128290D01*
X18330D01*
Y-128192D01*
X18526D01*
Y-128094D01*
X18624D01*
Y-127996D01*
X18722D01*
Y-127898D01*
X18820D01*
Y-127800D01*
X18917D01*
Y-127703D01*
X19015D01*
Y-127605D01*
X19211D01*
Y-127507D01*
X19309D01*
Y-127409D01*
X19407D01*
Y-127311D01*
X19505D01*
Y-127213D01*
X19603D01*
Y-127115D01*
X19701D01*
Y-127017D01*
X19799D01*
Y-126919D01*
X19897D01*
Y-126821D01*
X19994D01*
Y-126723D01*
X20092D01*
Y-126625D01*
X20190D01*
Y-126528D01*
X20288D01*
Y-126430D01*
X20386D01*
Y-126332D01*
X20484D01*
Y-126234D01*
X20582D01*
Y-126136D01*
X20680D01*
Y-126038D01*
X20778D01*
Y-125940D01*
X20876D01*
Y-125842D01*
X20973D01*
Y-125646D01*
X21071D01*
Y-125548D01*
X21169D01*
Y-125450D01*
X21267D01*
Y-125353D01*
X21365D01*
Y-125255D01*
X21463D01*
Y-125157D01*
X21561D01*
Y-124961D01*
X21659D01*
Y-124863D01*
X21757D01*
Y-124765D01*
X21855D01*
Y-124667D01*
X21953D01*
Y-124471D01*
X22051D01*
Y-124374D01*
X22148D01*
Y-124178D01*
X22246D01*
Y-124080D01*
X22344D01*
Y-123982D01*
X22442D01*
Y-123786D01*
X22540D01*
Y-123688D01*
X22638D01*
Y-123492D01*
X22736D01*
Y-123394D01*
X22834D01*
Y-123198D01*
X22932D01*
Y-123101D01*
X23030D01*
Y-122905D01*
X23128D01*
Y-123198D01*
D02*
G37*
G36*
X41241Y-142193D02*
Y-142291D01*
Y-143564D01*
X40849D01*
Y-143466D01*
X40752D01*
Y-143368D01*
X40654D01*
Y-143173D01*
X40556D01*
Y-143075D01*
X40458D01*
Y-142879D01*
X40360D01*
Y-142781D01*
X40262D01*
Y-142683D01*
X40164D01*
Y-142487D01*
X40066D01*
Y-142389D01*
X39968D01*
Y-142193D01*
X39870D01*
Y-142095D01*
X39773D01*
Y-141900D01*
X39675D01*
Y-141802D01*
X39577D01*
Y-141606D01*
X39479D01*
Y-141508D01*
X39381D01*
Y-141410D01*
X39283D01*
Y-143564D01*
X38891D01*
Y-140431D01*
X39283D01*
Y-140627D01*
X39381D01*
Y-140725D01*
X39479D01*
Y-140823D01*
X39577D01*
Y-141018D01*
X39675D01*
Y-141116D01*
X39773D01*
Y-141312D01*
X39870D01*
Y-141410D01*
X39968D01*
Y-141606D01*
X40066D01*
Y-141704D01*
X40164D01*
Y-141900D01*
X40262D01*
Y-141997D01*
X40360D01*
Y-142095D01*
X40458D01*
Y-142291D01*
X40556D01*
Y-142389D01*
X40654D01*
Y-142585D01*
X40752D01*
Y-140431D01*
X41241D01*
Y-142193D01*
D02*
G37*
G36*
X45158Y-140920D02*
X43689D01*
Y-141802D01*
X45158D01*
Y-142193D01*
X43689D01*
Y-143075D01*
X45158D01*
Y-143564D01*
X43297D01*
Y-140431D01*
X45158D01*
Y-140920D01*
D02*
G37*
G36*
X35856Y-140627D02*
X35954D01*
Y-140823D01*
X36052D01*
Y-141116D01*
X36150D01*
Y-141312D01*
X36248D01*
Y-141606D01*
X36346D01*
Y-141802D01*
X36444D01*
Y-142095D01*
X36541D01*
Y-142291D01*
X36639D01*
Y-142585D01*
X36737D01*
Y-142781D01*
X36835D01*
Y-143075D01*
X36933D01*
Y-143368D01*
X37031D01*
Y-143564D01*
X36639D01*
Y-143466D01*
X36541D01*
Y-143270D01*
X36444D01*
Y-143075D01*
X36346D01*
Y-142781D01*
X36248D01*
Y-142683D01*
X36150D01*
Y-142585D01*
X35171D01*
Y-142683D01*
X35073D01*
Y-142781D01*
X34975D01*
Y-143075D01*
X34877D01*
Y-143270D01*
X34779D01*
Y-143564D01*
X34290D01*
Y-143368D01*
X34387D01*
Y-143075D01*
X34485D01*
Y-142781D01*
X34583D01*
Y-142585D01*
X34681D01*
Y-142291D01*
X34779D01*
Y-142095D01*
X34877D01*
Y-141802D01*
X34975D01*
Y-141606D01*
X35073D01*
Y-141312D01*
X35171D01*
Y-141116D01*
X35269D01*
Y-140823D01*
X35366D01*
Y-140627D01*
X35464D01*
Y-140431D01*
X35856D01*
Y-140627D01*
D02*
G37*
G36*
X31058Y-143075D02*
X32527D01*
Y-143564D01*
X30569D01*
Y-140431D01*
X31058D01*
Y-143075D01*
D02*
G37*
G36*
X27925Y-140529D02*
X28219D01*
Y-140627D01*
X28317D01*
Y-140725D01*
X28415D01*
Y-140823D01*
X28513D01*
Y-141018D01*
X28611D01*
Y-141900D01*
X28513D01*
Y-142095D01*
X28415D01*
Y-142193D01*
X28317D01*
Y-142291D01*
X28219D01*
Y-142389D01*
X28023D01*
Y-142487D01*
X26946D01*
Y-143564D01*
X26457D01*
Y-140431D01*
X27925D01*
Y-140529D01*
D02*
G37*
%LPC*%
G36*
X26848Y-114876D02*
X26750D01*
Y-114974D01*
X26848D01*
Y-114876D01*
D02*
G37*
G36*
X26750Y-114974D02*
X26652D01*
Y-115170D01*
X26750D01*
Y-114974D01*
D02*
G37*
G36*
X-3406Y-123492D02*
X-3504D01*
Y-123786D01*
X-3602D01*
Y-123884D01*
Y-123982D01*
X-3700D01*
Y-124276D01*
X-3798D01*
Y-124569D01*
X-3015D01*
Y-124374D01*
X-3113D01*
Y-124080D01*
X-3211D01*
Y-123786D01*
X-3309D01*
Y-123590D01*
X-3406D01*
Y-123492D01*
D02*
G37*
G36*
X30667Y-130052D02*
X30569D01*
Y-130150D01*
Y-130248D01*
X30471D01*
Y-130542D01*
X30373D01*
Y-130836D01*
X30275D01*
Y-131129D01*
X30177D01*
Y-131423D01*
X30079D01*
Y-131619D01*
X29981D01*
Y-131913D01*
X29883D01*
Y-132206D01*
X29786D01*
Y-132500D01*
X29688D01*
Y-132794D01*
X29590D01*
Y-133088D01*
X29492D01*
Y-133283D01*
X29394D01*
Y-133577D01*
X29296D01*
Y-133969D01*
X32037D01*
Y-133773D01*
X31940D01*
Y-133479D01*
X31842D01*
Y-133283D01*
X31744D01*
Y-132990D01*
X31646D01*
Y-132696D01*
X31548D01*
Y-132402D01*
X31450D01*
Y-132108D01*
X31352D01*
Y-131815D01*
X31254D01*
Y-131521D01*
X31156D01*
Y-131227D01*
X31058D01*
Y-131031D01*
X30961D01*
Y-130738D01*
X30863D01*
Y-130444D01*
X30765D01*
Y-130150D01*
X30667D01*
Y-130052D01*
D02*
G37*
G36*
X14511Y-133479D02*
X14316D01*
Y-133577D01*
X14120D01*
Y-133675D01*
X14022D01*
Y-133773D01*
X13826D01*
Y-133871D01*
X13630D01*
Y-133969D01*
X13532D01*
Y-134067D01*
X13336D01*
Y-134165D01*
X13141D01*
Y-134263D01*
X12945D01*
Y-134360D01*
X12847D01*
Y-134458D01*
X12651D01*
Y-134556D01*
X12455D01*
Y-134654D01*
X12259D01*
Y-134752D01*
X12064D01*
Y-134850D01*
X11868D01*
Y-134948D01*
X11672D01*
Y-135046D01*
X11476D01*
Y-135144D01*
X11182D01*
Y-135242D01*
X10987D01*
Y-135340D01*
X10791D01*
Y-135437D01*
X10497D01*
Y-135535D01*
X10301D01*
Y-135633D01*
X10105D01*
Y-135731D01*
X9812D01*
Y-135829D01*
X9518D01*
Y-135927D01*
X9322D01*
Y-136025D01*
X9028D01*
Y-136123D01*
X8735D01*
Y-136221D01*
X8441D01*
Y-136319D01*
X8049D01*
Y-136417D01*
X7951D01*
Y-136515D01*
X8049D01*
Y-136612D01*
X8245D01*
Y-136710D01*
X8343D01*
Y-136808D01*
X8539D01*
Y-136906D01*
X8735D01*
Y-137004D01*
X9028D01*
Y-137102D01*
X9322D01*
Y-137200D01*
X9812D01*
Y-137298D01*
X10987D01*
Y-137200D01*
X11476D01*
Y-137102D01*
X11770D01*
Y-137004D01*
X11966D01*
Y-136906D01*
X12162D01*
Y-136808D01*
X12357D01*
Y-136710D01*
X12553D01*
Y-136612D01*
X12651D01*
Y-136515D01*
X12847D01*
Y-136417D01*
X12945D01*
Y-136319D01*
X13043D01*
Y-136221D01*
X13141D01*
Y-136123D01*
X13239D01*
Y-136025D01*
X13336D01*
Y-135927D01*
X13434D01*
Y-135829D01*
X13532D01*
Y-135731D01*
X13630D01*
Y-135633D01*
X13728D01*
Y-135437D01*
X13826D01*
Y-135340D01*
X13924D01*
Y-135144D01*
X14022D01*
Y-134948D01*
X14120D01*
Y-134752D01*
X14218D01*
Y-134458D01*
X14316D01*
Y-134165D01*
X14413D01*
Y-133577D01*
X14511D01*
Y-133479D01*
D02*
G37*
G36*
X35758Y-141214D02*
X35562D01*
Y-141508D01*
X35464D01*
Y-141606D01*
Y-141704D01*
Y-141802D01*
X35366D01*
Y-142095D01*
X35269D01*
Y-142193D01*
X36052D01*
Y-142095D01*
X35954D01*
Y-141802D01*
X35856D01*
Y-141508D01*
X35758D01*
Y-141214D01*
D02*
G37*
G36*
X27925Y-140920D02*
X26946D01*
Y-142095D01*
X27827D01*
Y-141997D01*
X28023D01*
Y-141900D01*
X28121D01*
Y-141704D01*
X28219D01*
Y-141214D01*
X28121D01*
Y-141116D01*
X28023D01*
Y-141018D01*
X27925D01*
Y-140920D01*
D02*
G37*
%LPD*%
D10*
X-79064Y58284D02*
G03*
X-79064Y58284I-1250J0D01*
G01*
X-31484Y-40750D02*
G03*
X-31484Y-40750I-1250J0D01*
G01*
D11*
X117230Y-42358D02*
X145170D01*
X-147215Y48926D02*
X-119275D01*
X120270Y48167D02*
X148210D01*
X-145676Y-32257D02*
X-117736D01*
X-9086Y-102127D02*
Y-108792D01*
X-7753Y-110125D01*
X-5087D01*
X-3754Y-108792D01*
Y-102127D01*
X-1088Y-110125D02*
X1578D01*
X245D01*
Y-102127D01*
X-1088Y-103460D01*
X-4808Y137999D02*
Y130001D01*
X523D01*
X3189D02*
X5855D01*
X4522D01*
Y137999D01*
X3189Y136666D01*
D12*
X-46314Y-12716D02*
Y45284D01*
X-68314Y-22716D02*
X-56314D01*
X-104314D02*
X-92314D01*
X-114314Y-12716D02*
Y45284D01*
Y-12716D02*
X-104314Y-22716D01*
X-56314D02*
X-46314Y-12716D01*
X-68564Y45284D02*
X-46314D01*
X-114314D02*
X-92064D01*
X-23984Y-39750D02*
X16016D01*
X-23984Y-96250D02*
X16016D01*
X-18154Y10470D02*
Y17470D01*
X-34154Y10470D02*
Y17470D01*
X79782Y-28100D02*
Y29900D01*
X39782Y-28100D02*
Y29900D01*
X79782D01*
D13*
X-77314Y235318D02*
X49686D01*
X77686Y178818D02*
Y210818D01*
X-77314Y154318D02*
X49686D01*
X-77314D02*
Y235318D01*
X-94814Y194818D02*
X-84814D01*
X-89814Y189818D02*
Y199818D01*
X49686Y235318D02*
X77686Y210818D01*
X49686Y154318D02*
X77686Y178818D01*
X85186Y194818D02*
X95186D01*
D14*
X-71624Y-138000D02*
Y-134000D01*
X81820Y-66150D02*
X85820D01*
X5588Y11970D02*
Y17970D01*
X-5412Y11970D02*
Y17970D01*
X27842Y11970D02*
Y17970D01*
X16842Y11970D02*
Y17970D01*
X45523Y52000D02*
Y60000D01*
X37523Y52000D02*
X45523D01*
X-36477D02*
X-28477D01*
X-36477D02*
Y60000D01*
Y122000D02*
X-28477D01*
X-36477Y114000D02*
Y122000D01*
X37523D02*
X45523D01*
Y114000D02*
Y122000D01*
X-57470Y-108324D02*
Y-104324D01*
X-61739Y-50649D02*
X-57739D01*
X-74082D02*
X-70083D01*
X-65220Y-72522D02*
X-61220D01*
X-79314D02*
X-75314D01*
X44750Y-66150D02*
X48750D01*
X-29135Y-34310D02*
Y-30310D01*
X-41000Y-113574D02*
X-37000D01*
X152409Y-28685D02*
X151242Y-29851D01*
Y-32184D01*
X152409Y-33350D01*
X157074D01*
X158240Y-32184D01*
Y-29851D01*
X157074Y-28685D01*
X154741D01*
Y-31017D01*
X158240Y-26352D02*
X151242D01*
X158240Y-21687D01*
X151242D01*
Y-19354D02*
X158240D01*
Y-15855D01*
X157074Y-14689D01*
X152409D01*
X151242Y-15855D01*
Y-19354D01*
X156241Y-72362D02*
Y-67696D01*
X153909Y-70029D02*
X158574D01*
X152742Y-60699D02*
Y-65364D01*
X156241D01*
X155075Y-63031D01*
Y-61865D01*
X156241Y-60699D01*
X158574D01*
X159740Y-61865D01*
Y-64198D01*
X158574Y-65364D01*
X152742Y-58366D02*
X157408D01*
X159740Y-56034D01*
X157408Y-53701D01*
X152742D01*
X-152669Y73649D02*
X-151502Y74815D01*
Y77148D01*
X-152669Y78314D01*
X-157334D01*
X-158500Y77148D01*
Y74815D01*
X-157334Y73649D01*
X-155001D01*
Y75981D01*
X-158500Y71316D02*
X-151502D01*
X-158500Y66651D01*
X-151502D01*
Y64318D02*
X-158500D01*
Y60820D01*
X-157334Y59653D01*
X-152669D01*
X-151502Y60820D01*
Y64318D01*
X-155001Y36284D02*
Y31619D01*
X-152669Y33952D02*
X-157334D01*
X-151502Y24621D02*
Y29286D01*
X-155001D01*
X-153835Y26954D01*
Y25788D01*
X-155001Y24621D01*
X-157334D01*
X-158500Y25788D01*
Y28120D01*
X-157334Y29286D01*
X-151502Y22289D02*
X-156167D01*
X-158500Y19956D01*
X-156167Y17623D01*
X-151502D01*
X153909Y63857D02*
X152742Y62691D01*
Y60358D01*
X153909Y59192D01*
X158574D01*
X159740Y60358D01*
Y62691D01*
X158574Y63857D01*
X156241D01*
Y61525D01*
X159740Y66190D02*
X152742D01*
X159740Y70855D01*
X152742D01*
Y73187D02*
X159740D01*
Y76686D01*
X158574Y77853D01*
X153909D01*
X152742Y76686D01*
Y73187D01*
X154741Y19765D02*
Y24430D01*
X152409Y22098D02*
X157074D01*
X151242Y31428D02*
Y26763D01*
X154741D01*
X153575Y29095D01*
Y30262D01*
X154741Y31428D01*
X157074D01*
X158240Y30262D01*
Y27929D01*
X157074Y26763D01*
X151242Y33760D02*
X155907D01*
X158240Y36093D01*
X155907Y38426D01*
X151242D01*
X-152669Y-8669D02*
X-151502Y-7503D01*
Y-5170D01*
X-152669Y-4004D01*
X-157334D01*
X-158500Y-5170D01*
Y-7503D01*
X-157334Y-8669D01*
X-155001D01*
Y-6337D01*
X-158500Y-11002D02*
X-151502D01*
X-158500Y-15667D01*
X-151502D01*
Y-18000D02*
X-158500D01*
Y-21498D01*
X-157334Y-22665D01*
X-152669D01*
X-151502Y-21498D01*
Y-18000D01*
X-153501Y-43878D02*
Y-48543D01*
X-151169Y-46210D02*
X-155834D01*
X-150002Y-55540D02*
Y-50875D01*
X-153501D01*
X-152335Y-53208D01*
Y-54374D01*
X-153501Y-55540D01*
X-155834D01*
X-157000Y-54374D01*
Y-52042D01*
X-155834Y-50875D01*
X-150002Y-57873D02*
X-154668D01*
X-157000Y-60206D01*
X-154668Y-62538D01*
X-150002D01*
X-104082Y66257D02*
X-105248Y67423D01*
X-107581D01*
X-108747Y66257D01*
Y61592D01*
X-107581Y60426D01*
X-105248D01*
X-104082Y61592D01*
X-101749Y60426D02*
X-99417D01*
X-100583D01*
Y67423D01*
X-101749Y66257D01*
X-91253Y60426D02*
X-95918D01*
X-91253Y65091D01*
Y66257D01*
X-92419Y67423D01*
X-94752D01*
X-95918Y66257D01*
X-76748Y-127499D02*
Y-120501D01*
X-73249D01*
X-72083Y-121667D01*
Y-124000D01*
X-73249Y-125166D01*
X-76748D01*
X-74415D02*
X-72083Y-127499D01*
X-69750D02*
X-67417D01*
X-68584D01*
Y-120501D01*
X-69750Y-121667D01*
X80904Y-44817D02*
X79738Y-43651D01*
X77405D01*
X76239Y-44817D01*
Y-49483D01*
X77405Y-50649D01*
X79738D01*
X80904Y-49483D01*
X83237Y-50649D02*
X85569D01*
X84403D01*
Y-43651D01*
X83237Y-44817D01*
X89068Y-50649D02*
X91401D01*
X90235D01*
Y-43651D01*
X89068Y-44817D01*
X59239Y-65149D02*
Y-58151D01*
X62737D01*
X63904Y-59317D01*
Y-61650D01*
X62737Y-62816D01*
X59239D01*
X61571D02*
X63904Y-65149D01*
X70902Y-58151D02*
X68569Y-59317D01*
X66236Y-61650D01*
Y-63983D01*
X67403Y-65149D01*
X69735D01*
X70902Y-63983D01*
Y-62816D01*
X69735Y-61650D01*
X66236D01*
X60173Y-108573D02*
Y-101575D01*
X63672D01*
X64838Y-102741D01*
Y-105074D01*
X63672Y-106240D01*
X60173D01*
X62506D02*
X64838Y-108573D01*
X71836Y-101575D02*
X67171D01*
Y-105074D01*
X69503Y-103907D01*
X70670D01*
X71836Y-105074D01*
Y-107406D01*
X70670Y-108573D01*
X68337D01*
X67171Y-107406D01*
X-30808Y-117821D02*
Y-110824D01*
X-27309D01*
X-26143Y-111990D01*
Y-114323D01*
X-27309Y-115489D01*
X-30808D01*
X-28476D02*
X-26143Y-117821D01*
X-20312D02*
Y-110824D01*
X-23810Y-114323D01*
X-19145D01*
X-81875Y-109210D02*
Y-102212D01*
X-78377D01*
X-77210Y-103379D01*
Y-105711D01*
X-78377Y-106877D01*
X-81875D01*
X-79543D02*
X-77210Y-109210D01*
X-74878Y-103379D02*
X-73711Y-102212D01*
X-71379D01*
X-70212Y-103379D01*
Y-104545D01*
X-71379Y-105711D01*
X-72545D01*
X-71379D01*
X-70212Y-106877D01*
Y-108044D01*
X-71379Y-109210D01*
X-73711D01*
X-74878Y-108044D01*
X41169Y-114323D02*
Y-107325D01*
X44667D01*
X45834Y-108491D01*
Y-110824D01*
X44667Y-111990D01*
X41169D01*
X43501D02*
X45834Y-114323D01*
X52832D02*
X48166D01*
X52832Y-109657D01*
Y-108491D01*
X51665Y-107325D01*
X49333D01*
X48166Y-108491D01*
X40192Y40969D02*
Y32971D01*
X44190D01*
X45523Y34304D01*
Y39636D01*
X44190Y40969D01*
X40192D01*
X48189Y32971D02*
X50855D01*
X49522D01*
Y40969D01*
X48189Y39636D01*
X45418Y-44817D02*
X44252Y-43651D01*
X41919D01*
X40753Y-44817D01*
Y-49483D01*
X41919Y-50649D01*
X44252D01*
X45418Y-49483D01*
X47751Y-50649D02*
X50083D01*
X48917D01*
Y-43651D01*
X47751Y-44817D01*
X53582D02*
X54748Y-43651D01*
X57081D01*
X58247Y-44817D01*
Y-49483D01*
X57081Y-50649D01*
X54748D01*
X53582Y-49483D01*
Y-44817D01*
X-47250Y-49483D02*
X-46084Y-48316D01*
Y-45984D01*
X-47250Y-44817D01*
X-51915D01*
X-53081Y-45984D01*
Y-48316D01*
X-51915Y-49483D01*
Y-51815D02*
X-53081Y-52982D01*
Y-55314D01*
X-51915Y-56480D01*
X-47250D01*
X-46084Y-55314D01*
Y-52982D01*
X-47250Y-51815D01*
X-48416D01*
X-49583Y-52982D01*
Y-56480D01*
X-81414Y-47784D02*
X-80247Y-46617D01*
Y-44285D01*
X-81414Y-43119D01*
X-86079D01*
X-87245Y-44285D01*
Y-46617D01*
X-86079Y-47784D01*
X-81414Y-50116D02*
X-80247Y-51283D01*
Y-53615D01*
X-81414Y-54781D01*
X-82580D01*
X-83746Y-53615D01*
X-84913Y-54781D01*
X-86079D01*
X-87245Y-53615D01*
Y-51283D01*
X-86079Y-50116D01*
X-84913D01*
X-83746Y-51283D01*
X-82580Y-50116D01*
X-81414D01*
X-83746Y-51283D02*
Y-53615D01*
X-67558Y-90200D02*
X-66392Y-89034D01*
Y-86701D01*
X-67558Y-85535D01*
X-72223D01*
X-73390Y-86701D01*
Y-89034D01*
X-72223Y-90200D01*
X-66392Y-92533D02*
Y-97198D01*
X-67558D01*
X-72223Y-92533D01*
X-73390D01*
X-84967Y-70404D02*
X-83800Y-69238D01*
Y-66905D01*
X-84967Y-65739D01*
X-89632D01*
X-90798Y-66905D01*
Y-69238D01*
X-89632Y-70404D01*
X-83800Y-77402D02*
X-84967Y-75069D01*
X-87299Y-72737D01*
X-89632D01*
X-90798Y-73903D01*
Y-76235D01*
X-89632Y-77402D01*
X-88466D01*
X-87299Y-76235D01*
Y-72737D01*
X21175Y39303D02*
X20009Y40469D01*
X17677D01*
X16510Y39303D01*
Y34638D01*
X17677Y33471D01*
X20009D01*
X21175Y34638D01*
X27007Y33471D02*
Y40469D01*
X23508Y36970D01*
X28173D01*
X-1078Y39303D02*
X-2245Y40469D01*
X-4577D01*
X-5743Y39303D01*
Y34638D01*
X-4577Y33471D01*
X-2245D01*
X-1078Y34638D01*
X1254Y39303D02*
X2421Y40469D01*
X4753D01*
X5919Y39303D01*
Y38136D01*
X4753Y36970D01*
X3587D01*
X4753D01*
X5919Y35804D01*
Y34638D01*
X4753Y33471D01*
X2421D01*
X1254Y34638D01*
X-27551Y46241D02*
X-28718Y47407D01*
X-31050D01*
X-32216Y46241D01*
Y41576D01*
X-31050Y40410D01*
X-28718D01*
X-27551Y41576D01*
X-20553Y40410D02*
X-25219D01*
X-20553Y45075D01*
Y46241D01*
X-21720Y47407D01*
X-24052D01*
X-25219Y46241D01*
D15*
X-41363Y-37767D02*
X-42196Y-36934D01*
X-43862D01*
X-44695Y-37767D01*
Y-41100D01*
X-43862Y-41933D01*
X-42196D01*
X-41363Y-41100D01*
X-39697Y-41933D02*
X-38031D01*
X-38864D01*
Y-36934D01*
X-39697Y-37767D01*
M02*
