G04*
G04 #@! TF.GenerationSoftware,Altium Limited,Altium Designer,26.3.0 (6)*
G04*
G04 Layer_Color=32768*
%FSLAX44Y44*%
%MOMM*%
G71*
G04*
G04 #@! TF.SameCoordinates,A5D2DF9F-5289-4556-85AE-B0E70FB24680*
G04*
G04*
G04 #@! TF.FilePolarity,Positive*
G04*
G01*
G75*
%ADD11C,0.2540*%
%ADD12C,0.2000*%
%ADD56C,0.1000*%
%ADD57C,0.0500*%
D11*
X117230Y-72838D02*
X145170D01*
Y-13148D01*
X117230D02*
X145170D01*
X117230Y-72838D02*
Y-13148D01*
X-147215Y18446D02*
X-119275D01*
Y78136D01*
X-147215D02*
X-119275D01*
X-147215Y18446D02*
Y78136D01*
X120270Y17687D02*
X148210D01*
Y77377D01*
X120270D02*
X148210D01*
X120270Y17687D02*
Y77377D01*
X-145676Y-62737D02*
X-117736D01*
Y-3047D01*
X-145676D02*
X-117736D01*
X-145676Y-62737D02*
Y-3047D01*
D12*
X-116814Y54784D02*
X-43814D01*
X-116814Y-32216D02*
Y54784D01*
Y-32216D02*
X-43814D01*
Y54784D01*
X-44734Y-41250D02*
X36766D01*
Y-94750D02*
Y-41250D01*
X-44734Y-94750D02*
X36766D01*
X-44734D02*
Y-41250D01*
D56*
X44000Y-91620D02*
X49500D01*
X46750Y-94370D02*
Y-88870D01*
X4523Y82000D02*
Y92000D01*
X-477Y87000D02*
X9523D01*
X-31154Y13970D02*
X-21154D01*
X-26154Y8970D02*
Y18970D01*
X41862Y-34520D02*
X77702D01*
X41862Y28320D02*
X77702D01*
Y-34520D02*
Y28320D01*
X41862Y-34520D02*
Y28320D01*
X65593Y-94370D02*
Y-88870D01*
X62843Y-91620D02*
X68343D01*
X65424Y-75750D02*
Y-70250D01*
X62674Y-73000D02*
X68174D01*
D57*
X-79814Y151818D02*
Y237818D01*
Y151818D02*
X80186D01*
Y237818D01*
X-79814D02*
X80186D01*
X-71624Y-138750D02*
Y-133250D01*
X-74374Y-136000D02*
X-68874D01*
X-80124Y-131500D02*
X-63124D01*
X-80124Y-140500D02*
X-63124D01*
X-80124D02*
Y-131500D01*
X-63124Y-140500D02*
Y-131500D01*
X81070Y-66150D02*
X86570D01*
X83820Y-68900D02*
Y-63400D01*
X79320Y-57150D02*
X88320D01*
X79320Y-75150D02*
X88320D01*
Y-57150D01*
X79320Y-75150D02*
Y-57150D01*
X-4912Y14970D02*
X5088D01*
X88Y9970D02*
Y19970D01*
X8588Y-30D02*
Y29970D01*
X-8412Y-30D02*
Y29970D01*
X8588D01*
X-8412Y-30D02*
X8588D01*
X17342Y14970D02*
X27342D01*
X22342Y9970D02*
Y19970D01*
X30842Y-30D02*
Y29970D01*
X13842Y-30D02*
Y29970D01*
X30842D01*
X13842Y-30D02*
X30842D01*
X41250Y-102120D02*
Y-81120D01*
X52250Y-102120D02*
Y-81120D01*
X41250Y-102120D02*
X52250D01*
X41250Y-81120D02*
X52250D01*
X-36477Y52000D02*
X45523D01*
X-36477Y122000D02*
X45523D01*
X-36477Y52000D02*
Y122000D01*
X45523Y52000D02*
Y122000D01*
X-14654Y-9030D02*
Y36970D01*
X-37654Y-9030D02*
Y36970D01*
X-14654D01*
X-37654Y-9030D02*
X-14654D01*
X-65971Y-110824D02*
Y-101824D01*
X-48970Y-110824D02*
Y-101824D01*
X-65971D02*
X-48970D01*
X-65971Y-110824D02*
X-48970D01*
X-60220Y-106324D02*
X-54721D01*
X-57470Y-109074D02*
Y-103574D01*
X-64239Y-59649D02*
Y-41649D01*
X-55239Y-59649D02*
Y-41649D01*
X-64239Y-59649D02*
X-55239D01*
X-64239Y-41649D02*
X-55239D01*
X-59739Y-53399D02*
Y-47899D01*
X-62489Y-50649D02*
X-56989D01*
X-76582Y-59649D02*
Y-41649D01*
X-67583Y-59649D02*
Y-41649D01*
X-76582Y-59649D02*
X-67583D01*
X-76582Y-41649D02*
X-67583D01*
X-72083Y-53399D02*
Y-47899D01*
X-74833Y-50649D02*
X-69332D01*
X-58720Y-81522D02*
Y-63522D01*
X-67720Y-81522D02*
Y-63522D01*
X-58720D01*
X-67720Y-81522D02*
X-58720D01*
X-63220Y-75272D02*
Y-69772D01*
X-65971Y-72522D02*
X-60470D01*
X-72814Y-81522D02*
Y-63522D01*
X-81814Y-81522D02*
Y-63522D01*
X-72814D01*
X-81814Y-81522D02*
X-72814D01*
X-77314Y-75272D02*
Y-69772D01*
X-80064Y-72522D02*
X-74564D01*
X42250Y-75150D02*
Y-57150D01*
X51250Y-75150D02*
Y-57150D01*
X42250Y-75150D02*
X51250D01*
X42250Y-57150D02*
X51250D01*
X46750Y-68900D02*
Y-63400D01*
X44000Y-66150D02*
X49500D01*
X55093Y-86120D02*
X76093D01*
X55093Y-97120D02*
X76093D01*
X55093D02*
Y-86120D01*
X76093Y-97120D02*
Y-86120D01*
X-38135Y-27810D02*
X-20135D01*
X-38135Y-36810D02*
X-20135D01*
X-38135D02*
Y-27810D01*
X-20135Y-36810D02*
Y-27810D01*
X-31885Y-32310D02*
X-26385D01*
X-29135Y-35060D02*
Y-29560D01*
X54924Y-67500D02*
X75924D01*
X54924Y-78500D02*
X75924D01*
X54924D02*
Y-67500D01*
X75924Y-78500D02*
Y-67500D01*
X-43500Y-122074D02*
X-34500D01*
X-43500Y-105074D02*
X-34500D01*
X-43500Y-122074D02*
Y-105074D01*
X-34500Y-122074D02*
Y-105074D01*
X-39000Y-116324D02*
Y-110824D01*
X-41750Y-113574D02*
X-36250D01*
M02*
