G04*
G04 #@! TF.GenerationSoftware,Altium Limited,Altium Designer,26.3.0 (6)*
G04*
G04 Layer_Physical_Order=1*
G04 Layer_Color=255*
%FSLAX44Y44*%
%MOMM*%
G71*
G04*
G04 #@! TF.SameCoordinates,A5D2DF9F-5289-4556-85AE-B0E70FB24680*
G04*
G04*
G04 #@! TF.FilePolarity,Positive*
G04*
G01*
G75*
%ADD11C,0.2540*%
%ADD19R,1.6000X3.2000*%
%ADD28R,2.2000X0.5000*%
%ADD33C,0.6300*%
%ADD35C,0.5000*%
G04:AMPARAMS|DCode=36|XSize=1.778mm|YSize=2.54mm|CornerRadius=0.4445mm|HoleSize=0mm|Usage=FLASHONLY|Rotation=90.000|XOffset=0mm|YOffset=0mm|HoleType=Round|Shape=RoundedRectangle|*
%AMROUNDEDRECTD36*
21,1,1.7780,1.6510,0,0,90.0*
21,1,0.8890,2.5400,0,0,90.0*
1,1,0.8890,0.8255,0.4445*
1,1,0.8890,0.8255,-0.4445*
1,1,0.8890,-0.8255,-0.4445*
1,1,0.8890,-0.8255,0.4445*
%
%ADD36ROUNDEDRECTD36*%
G04:AMPARAMS|DCode=37|XSize=0.55mm|YSize=0.5mm|CornerRadius=0.0625mm|HoleSize=0mm|Usage=FLASHONLY|Rotation=0.000|XOffset=0mm|YOffset=0mm|HoleType=Round|Shape=RoundedRectangle|*
%AMROUNDEDRECTD37*
21,1,0.5500,0.3750,0,0,0.0*
21,1,0.4250,0.5000,0,0,0.0*
1,1,0.1250,0.2125,-0.1875*
1,1,0.1250,-0.2125,-0.1875*
1,1,0.1250,-0.2125,0.1875*
1,1,0.1250,0.2125,0.1875*
%
%ADD37ROUNDEDRECTD37*%
G04:AMPARAMS|DCode=38|XSize=0.55mm|YSize=0.5mm|CornerRadius=0.0625mm|HoleSize=0mm|Usage=FLASHONLY|Rotation=270.000|XOffset=0mm|YOffset=0mm|HoleType=Round|Shape=RoundedRectangle|*
%AMROUNDEDRECTD38*
21,1,0.5500,0.3750,0,0,270.0*
21,1,0.4250,0.5000,0,0,270.0*
1,1,0.1250,-0.1875,-0.2125*
1,1,0.1250,-0.1875,0.2125*
1,1,0.1250,0.1875,0.2125*
1,1,0.1250,0.1875,-0.2125*
%
%ADD38ROUNDEDRECTD38*%
G04:AMPARAMS|DCode=39|XSize=1.4mm|YSize=2.4mm|CornerRadius=0.175mm|HoleSize=0mm|Usage=FLASHONLY|Rotation=270.000|XOffset=0mm|YOffset=0mm|HoleType=Round|Shape=RoundedRectangle|*
%AMROUNDEDRECTD39*
21,1,1.4000,2.0500,0,0,270.0*
21,1,1.0500,2.4000,0,0,270.0*
1,1,0.3500,-1.0250,-0.5250*
1,1,0.3500,-1.0250,0.5250*
1,1,0.3500,1.0250,0.5250*
1,1,0.3500,1.0250,-0.5250*
%
%ADD39ROUNDEDRECTD39*%
%ADD40R,0.6500X0.6500*%
G04:AMPARAMS|DCode=41|XSize=1.3mm|YSize=0.76mm|CornerRadius=0.095mm|HoleSize=0mm|Usage=FLASHONLY|Rotation=180.000|XOffset=0mm|YOffset=0mm|HoleType=Round|Shape=RoundedRectangle|*
%AMROUNDEDRECTD41*
21,1,1.3000,0.5700,0,0,180.0*
21,1,1.1100,0.7600,0,0,180.0*
1,1,0.1900,-0.5550,0.2850*
1,1,0.1900,0.5550,0.2850*
1,1,0.1900,0.5550,-0.2850*
1,1,0.1900,-0.5550,-0.2850*
%
%ADD41ROUNDEDRECTD41*%
%ADD42R,1.8000X1.3000*%
%ADD43R,2.9500X4.9000*%
%ADD44R,0.6500X0.6500*%
G04:AMPARAMS|DCode=45|XSize=2mm|YSize=3.5mm|CornerRadius=0.08mm|HoleSize=0mm|Usage=FLASHONLY|Rotation=180.000|XOffset=0mm|YOffset=0mm|HoleType=Round|Shape=RoundedRectangle|*
%AMROUNDEDRECTD45*
21,1,2.0000,3.3400,0,0,180.0*
21,1,1.8400,3.5000,0,0,180.0*
1,1,0.1600,-0.9200,1.6700*
1,1,0.1600,0.9200,1.6700*
1,1,0.1600,0.9200,-1.6700*
1,1,0.1600,-0.9200,-1.6700*
%
%ADD45ROUNDEDRECTD45*%
%ADD46C,1.2000*%
%ADD47C,1.5000*%
%ADD48C,1.0000*%
%ADD49C,0.3000*%
%ADD50C,0.7000*%
%ADD51R,6.0000X6.0000*%
%ADD52C,6.0000*%
%ADD53C,1.5240*%
%ADD54C,0.6000*%
%ADD55C,0.5080*%
G36*
X-45131Y16120D02*
X-44934Y15129D01*
X-44372Y14289D01*
X-43532Y13728D01*
X-42541Y13530D01*
X-31394D01*
X-29632Y11768D01*
X-10621Y11954D01*
X-10088Y11450D01*
X-8899Y9430D01*
X-9021Y8820D01*
Y8470D01*
X88D01*
X9196D01*
Y8820D01*
X9040Y9605D01*
X9735Y10885D01*
X11283Y11209D01*
X12710Y10904D01*
X13398Y9648D01*
X13233Y8820D01*
Y8470D01*
X22342D01*
X31450D01*
Y8621D01*
X31928Y9259D01*
X33491Y10693D01*
X34651Y10648D01*
X41862Y3507D01*
Y-9987D01*
X71708D01*
Y-13970D01*
X70032Y-16226D01*
X62282D01*
Y-25850D01*
Y-35474D01*
X69663D01*
X71059Y-37588D01*
X69984Y-39433D01*
X14716D01*
X7000Y-47150D01*
X5871Y-46021D01*
X-7596D01*
X-8648Y-43481D01*
X-2412Y-37245D01*
Y-13636D01*
X-41750D01*
Y5970D01*
X-94814D01*
X-94814Y52342D01*
X-90854D01*
Y38784D01*
X-80314D01*
X-69774D01*
Y52342D01*
X-45131Y52342D01*
Y16120D01*
D02*
G37*
G36*
X12571Y94901D02*
Y68159D01*
X34482Y46248D01*
Y16120D01*
X31412D01*
X30693Y17826D01*
X30512Y18660D01*
X31179Y19658D01*
X31450Y21020D01*
Y21370D01*
X22342D01*
X13233D01*
Y21020D01*
X13504Y19658D01*
X14171Y18660D01*
X13990Y17826D01*
X13272Y16120D01*
X9158D01*
X8439Y17827D01*
X8258Y18660D01*
X8925Y19658D01*
X9196Y21020D01*
Y21370D01*
X88D01*
X-9021D01*
Y21020D01*
X-8750Y19658D01*
X-8083Y18660D01*
X-8264Y17827D01*
X-8982Y16120D01*
X-42541D01*
X-42541Y111729D01*
X-36770Y117500D01*
X-10029D01*
X12571Y94901D01*
D02*
G37*
G36*
X81070Y7308D02*
X41704D01*
X38023Y10953D01*
Y63472D01*
X81070D01*
Y7308D01*
D02*
G37*
G36*
X-122430Y-115306D02*
X-155000D01*
Y-90817D01*
X-122430D01*
Y-115306D01*
D02*
G37*
G36*
X9838Y-113875D02*
Y-116880D01*
X8644Y-118074D01*
X-18154D01*
Y-93000D01*
Y-87050D01*
X-17724Y-86620D01*
X9838D01*
Y-113875D01*
D02*
G37*
%LPC*%
G36*
X-69774Y33784D02*
X-77814D01*
Y17744D01*
X-69774D01*
Y33784D01*
D02*
G37*
G36*
X-82814D02*
X-90854D01*
Y17744D01*
X-82814D01*
Y33784D01*
D02*
G37*
G36*
X-14614Y9010D02*
X-23654D01*
Y2470D01*
X-14614D01*
Y9010D01*
D02*
G37*
G36*
X-28654D02*
X-37694D01*
Y5970D01*
Y2470D01*
X-28654D01*
Y9010D01*
D02*
G37*
G36*
X9196Y3470D02*
X2588D01*
Y-438D01*
X5638D01*
X7000Y-167D01*
X8154Y604D01*
X8925Y1758D01*
X9196Y3120D01*
Y3470D01*
D02*
G37*
G36*
X-2412D02*
X-9021D01*
Y3120D01*
X-8750Y1758D01*
X-7978Y604D01*
X-6824Y-167D01*
X-5462Y-438D01*
X-2412D01*
Y3470D01*
D02*
G37*
G36*
X31450Y3470D02*
X24842D01*
Y-438D01*
X27892D01*
X29253Y-167D01*
X30408Y604D01*
X31179Y1758D01*
X31450Y3120D01*
Y3470D01*
D02*
G37*
G36*
X19842D02*
X13233D01*
Y3120D01*
X13504Y1758D01*
X14276Y604D01*
X15430Y-167D01*
X16792Y-438D01*
X19842D01*
Y3470D01*
D02*
G37*
G36*
X-14614Y-2530D02*
X-23654D01*
Y-9070D01*
X-14614D01*
Y-2530D01*
D02*
G37*
G36*
X-28654D02*
X-37694D01*
Y-9070D01*
X-28654D01*
Y-2530D01*
D02*
G37*
G36*
X28027Y-7841D02*
Y-10302D01*
X30488D01*
X30224Y-9664D01*
X28666Y-8105D01*
X28027Y-7841D01*
D02*
G37*
G36*
X23027D02*
X22389Y-8105D01*
X20831Y-9664D01*
X20566Y-10302D01*
X23027D01*
Y-7841D01*
D02*
G37*
G36*
X12235D02*
Y-10302D01*
X14696D01*
X14431Y-9664D01*
X12873Y-8105D01*
X12235Y-7841D01*
D02*
G37*
G36*
X7235D02*
X6597Y-8105D01*
X5038Y-9664D01*
X4774Y-10302D01*
X7235D01*
Y-7841D01*
D02*
G37*
G36*
X30488Y-15302D02*
X28027D01*
Y-17763D01*
X28666Y-17498D01*
X30224Y-15940D01*
X30488Y-15302D01*
D02*
G37*
G36*
X23027D02*
X20566D01*
X20831Y-15940D01*
X22389Y-17498D01*
X23027Y-17763D01*
Y-15302D01*
D02*
G37*
G36*
X14696D02*
X12235D01*
Y-17763D01*
X12873Y-17498D01*
X14431Y-15940D01*
X14696Y-15302D01*
D02*
G37*
G36*
X7235D02*
X4774D01*
X5038Y-15940D01*
X6597Y-17498D01*
X7235Y-17763D01*
Y-15302D01*
D02*
G37*
G36*
X57282Y-16226D02*
X49532D01*
X47858Y-16559D01*
X46439Y-17507D01*
X45491Y-18926D01*
X45158Y-20600D01*
Y-23350D01*
X57282D01*
Y-16226D01*
D02*
G37*
G36*
X27389Y-24349D02*
Y-26810D01*
X29850D01*
X29586Y-26172D01*
X28027Y-24613D01*
X27389Y-24349D01*
D02*
G37*
G36*
X22389D02*
X21751Y-24613D01*
X20193Y-26172D01*
X19928Y-26810D01*
X22389D01*
Y-24349D01*
D02*
G37*
G36*
X12338D02*
Y-26810D01*
X14799D01*
X14534Y-26172D01*
X12976Y-24613D01*
X12338Y-24349D01*
D02*
G37*
G36*
X7338D02*
X6700Y-24613D01*
X5296Y-26018D01*
X5141Y-26172D01*
X4877Y-26810D01*
X7338D01*
Y-24349D01*
D02*
G37*
G36*
X29850Y-31810D02*
X27389D01*
Y-34271D01*
X28027Y-34007D01*
X29586Y-32448D01*
X29850Y-31810D01*
D02*
G37*
G36*
X22389D02*
X19928D01*
X20193Y-32448D01*
X21751Y-34007D01*
X22389Y-34271D01*
Y-31810D01*
D02*
G37*
G36*
X14799D02*
X12338D01*
Y-34271D01*
X12976Y-34007D01*
X14534Y-32448D01*
X14799Y-31810D01*
D02*
G37*
G36*
X7338D02*
X4877D01*
X5141Y-32448D01*
X6700Y-34007D01*
X7338Y-34271D01*
Y-31810D01*
D02*
G37*
G36*
X57282Y-28350D02*
X45158D01*
Y-31100D01*
X45491Y-32774D01*
X46439Y-34193D01*
X47858Y-35141D01*
X49532Y-35474D01*
X57282D01*
Y-28350D01*
D02*
G37*
G36*
X-15777Y107105D02*
X-22477D01*
Y89500D01*
X-12371D01*
Y103700D01*
X-12630Y105003D01*
X-13369Y106108D01*
X-14474Y106846D01*
X-15777Y107105D01*
D02*
G37*
G36*
X-27477D02*
X-34177D01*
X-35480Y106846D01*
X-36585Y106108D01*
X-37323Y105003D01*
X-37582Y103700D01*
Y89500D01*
X-27477D01*
Y107105D01*
D02*
G37*
G36*
X-12371Y84500D02*
X-22477D01*
Y66895D01*
X-15777D01*
X-14474Y67154D01*
X-13369Y67892D01*
X-12630Y68997D01*
X-12371Y70300D01*
Y84500D01*
D02*
G37*
G36*
X-27477D02*
X-37582D01*
Y70300D01*
X-37323Y68997D01*
X-36585Y67892D01*
X-35480Y67154D01*
X-34177Y66895D01*
X-27477D01*
Y84500D01*
D02*
G37*
G36*
X-14614Y37010D02*
X-23654D01*
Y30470D01*
X-14614D01*
Y37010D01*
D02*
G37*
G36*
X-28654D02*
X-37694D01*
Y30470D01*
X-28654D01*
Y37010D01*
D02*
G37*
G36*
X27892Y30278D02*
X24842D01*
Y26370D01*
X31450D01*
Y26720D01*
X31179Y28082D01*
X30408Y29236D01*
X29253Y30008D01*
X27892Y30278D01*
D02*
G37*
G36*
X19842D02*
X16792D01*
X15430Y30008D01*
X14276Y29236D01*
X13504Y28082D01*
X13233Y26720D01*
Y26370D01*
X19842D01*
Y30278D01*
D02*
G37*
G36*
X5638Y30279D02*
X2588D01*
Y26370D01*
X9196D01*
Y26720D01*
X8925Y28082D01*
X8154Y29236D01*
X7000Y30008D01*
X5638Y30279D01*
D02*
G37*
G36*
X-2412D02*
X-5462D01*
X-6824Y30008D01*
X-7978Y29236D01*
X-8750Y28082D01*
X-9021Y26720D01*
Y26370D01*
X-2412D01*
Y30279D01*
D02*
G37*
G36*
X-14614Y25470D02*
X-23654D01*
Y18930D01*
X-14614D01*
Y25470D01*
D02*
G37*
G36*
X-28654D02*
X-37694D01*
Y18930D01*
X-28654D01*
Y25470D01*
D02*
G37*
G36*
X55873Y59319D02*
X55235Y59055D01*
X53677Y57497D01*
X53412Y56859D01*
X55873D01*
Y59319D01*
D02*
G37*
G36*
X73034Y59180D02*
Y56719D01*
X75495D01*
X75231Y57357D01*
X73672Y58915D01*
X73034Y59180D01*
D02*
G37*
G36*
X55873Y39876D02*
X53412D01*
X53677Y39238D01*
X55235Y37679D01*
X55873Y37415D01*
Y39876D01*
D02*
G37*
G36*
X76004Y39498D02*
X73543D01*
Y37037D01*
X74181Y37301D01*
X75740Y38860D01*
X76004Y39498D01*
D02*
G37*
G36*
X60873Y59319D02*
Y54359D01*
X58373D01*
Y51859D01*
X53412D01*
X53677Y51220D01*
X55235Y49662D01*
Y47072D01*
X53677Y45514D01*
X53412Y44876D01*
X58373D01*
Y42376D01*
X60873D01*
Y37415D01*
X61511Y37679D01*
X63070Y39238D01*
X63255Y39685D01*
X66005D01*
X66347Y38860D01*
X67905Y37301D01*
X68543Y37037D01*
Y41998D01*
X71043D01*
Y44498D01*
X76004D01*
X75740Y45136D01*
X74181Y46694D01*
X73832Y46839D01*
X73672Y49522D01*
X75231Y51080D01*
X75495Y51719D01*
X70534D01*
Y54219D01*
X68034D01*
Y59180D01*
X67396Y58915D01*
X65838Y57357D01*
X63108Y57404D01*
X63070Y57497D01*
X61511Y59055D01*
X60873Y59319D01*
D02*
G37*
G36*
X70032Y29274D02*
X62282D01*
Y22150D01*
X74406D01*
Y24900D01*
X74073Y26574D01*
X73125Y27993D01*
X71706Y28941D01*
X70032Y29274D01*
D02*
G37*
G36*
X57282D02*
X49532D01*
X47858Y28941D01*
X46439Y27993D01*
X45491Y26574D01*
X45158Y24900D01*
Y22150D01*
X57282D01*
Y29274D01*
D02*
G37*
G36*
X74406Y17150D02*
X62282D01*
Y10026D01*
X70032D01*
X71706Y10359D01*
X73125Y11307D01*
X74073Y12726D01*
X74406Y14400D01*
Y17150D01*
D02*
G37*
G36*
X57282D02*
X45158D01*
Y14400D01*
X45491Y12726D01*
X46439Y11307D01*
X47858Y10359D01*
X49532Y10026D01*
X57282D01*
Y17150D01*
D02*
G37*
%LPD*%
D11*
X-55239Y-86036D02*
Y-85348D01*
X-47891Y-94754D02*
Y-88538D01*
X-33032Y-74648D02*
X-32734Y-74350D01*
X-46403Y-87050D02*
X-32734D01*
X-39000Y-109074D02*
Y-103644D01*
X-54753Y-84862D02*
Y-79148D01*
X-55239Y-85348D02*
X-54753Y-84862D01*
X-55239Y-86036D02*
X-52970Y-88304D01*
X-47891Y-88538D02*
X-46403Y-87050D01*
X-67124Y-136000D02*
X-51432D01*
X-50253Y-74648D02*
X-33032D01*
X-54753Y-79148D02*
X-50253Y-74648D01*
X-52970Y-106324D02*
Y-88304D01*
X-47891Y-94754D02*
X-39000Y-103644D01*
D19*
X-80314Y-13716D02*
D03*
Y36284D02*
D03*
D28*
X-32734Y-61650D02*
D03*
X24766D02*
D03*
X-32734Y-48950D02*
D03*
Y-74350D02*
D03*
Y-87050D02*
D03*
X24766D02*
D03*
Y-74350D02*
D03*
Y-48950D02*
D03*
D33*
X2516Y-55000D02*
D03*
Y-68000D02*
D03*
X-10484D02*
D03*
Y-55000D02*
D03*
X2516Y-81000D02*
D03*
X-10484D02*
D03*
D35*
X95354Y-73134D02*
G03*
X96000Y-71570I-1570J1564D01*
G01*
X-138946Y-108306D02*
X-127946D01*
X-139000Y-97146D02*
X-134202D01*
X-76044Y-136000D02*
Y-94201D01*
X-90776Y-62851D02*
Y-61301D01*
Y-79469D02*
Y-62851D01*
Y-79469D02*
X-76044Y-94201D01*
X-134202Y-97146D02*
X-128000D01*
X-149463D02*
X-139000D01*
X-138965Y-108325D02*
X-138946Y-108306D01*
X-149389Y-108325D02*
X-138965D01*
X-149409Y-108344D02*
X-149389Y-108325D01*
X46750Y-61650D02*
X83820D01*
X92410D01*
X24766D02*
X46750D01*
X96000Y-71570D02*
Y-65240D01*
X92410Y-61650D02*
X96000Y-65240D01*
X78084Y-90474D02*
X95354Y-73134D01*
X72343Y-91366D02*
X77192D01*
X-28654Y-30D02*
X-26154D01*
X-47087Y-18463D02*
X-28654Y-30D01*
X-47087Y-27095D02*
Y-18463D01*
X-59739Y-39747D02*
X-47087Y-27095D01*
X-72083Y-46149D02*
X-59739D01*
X2366Y-61650D02*
X24766D01*
X-3984Y-68000D02*
X2366Y-61650D01*
X-59739Y-46149D02*
Y-39747D01*
X-50564Y-46021D02*
X-47635Y-48950D01*
X24766Y-87050D02*
X46320D01*
X-12135Y-32957D02*
Y-20600D01*
X24766Y-48950D02*
X29386D01*
X-50564Y-46021D02*
Y-41879D01*
X70424Y-73000D02*
X81220D01*
X47000Y-70650D02*
X49350Y-73000D01*
X-47635Y-48950D02*
X-32734D01*
X46500Y-70900D02*
Y-70650D01*
X46320Y-87050D02*
X46750Y-86620D01*
X-24635Y-32310D02*
Y-20600D01*
X-12135D01*
X-50564Y-41879D02*
X-40995Y-32310D01*
X43050Y-74350D02*
X46500Y-70900D01*
X-40995Y-32310D02*
X-33635D01*
X-36666Y-20600D02*
X-24635D01*
X-12406Y-32957D02*
X-12135D01*
X46500Y-70650D02*
X47000D01*
X24766Y-74350D02*
X43050D01*
X49350Y-73000D02*
X60424D01*
D36*
X131200Y-62678D02*
D03*
Y-23308D02*
D03*
X134240Y67217D02*
D03*
X-133245Y67976D02*
D03*
X-131706Y-13207D02*
D03*
X-133245Y28606D02*
D03*
X134240Y27847D02*
D03*
X-131706Y-52577D02*
D03*
D37*
X-72083Y-55149D02*
D03*
X-59739D02*
D03*
X-63220Y-68022D02*
D03*
X-77314D02*
D03*
X83820Y-61650D02*
D03*
X46750D02*
D03*
X-59739Y-46149D02*
D03*
X-63220Y-77022D02*
D03*
X-72083Y-46149D02*
D03*
X-77314Y-77022D02*
D03*
X-39000Y-118074D02*
D03*
X83820Y-70650D02*
D03*
X46750D02*
D03*
X-39000Y-109074D02*
D03*
D38*
X-76124Y-136000D02*
D03*
X-61971Y-106324D02*
D03*
X-67124Y-136000D02*
D03*
X-52970Y-106324D02*
D03*
X-24635Y-32310D02*
D03*
X-33635D02*
D03*
D39*
X59782Y-25850D02*
D03*
Y19650D02*
D03*
D40*
X70593Y-91620D02*
D03*
X60593D02*
D03*
X60424Y-73000D02*
D03*
X70424D02*
D03*
D41*
X22342Y5970D02*
D03*
X88Y5970D02*
D03*
Y23870D02*
D03*
X22342Y23870D02*
D03*
D42*
X-26154Y-30D02*
D03*
Y27970D02*
D03*
D43*
X-3984Y-68000D02*
D03*
D44*
X46750Y-96620D02*
D03*
Y-86620D02*
D03*
D45*
X-24977Y87000D02*
D03*
X34023D02*
D03*
D46*
X-134202Y-97146D02*
X-111406Y-74350D01*
X-136826Y-99770D02*
X-134202Y-97146D01*
X-83746Y-61650D02*
X-77314D01*
X-111406Y-74350D02*
X-102275D01*
X-77314Y-61650D02*
X-44734D01*
X-90430Y-54967D02*
X-83746Y-61650D01*
X-80314Y-21716D02*
Y-13716D01*
X-90430Y-31832D02*
X-80314Y-21716D01*
X-90430Y-62505D02*
Y-54967D01*
Y-31832D01*
X-90776Y-62851D02*
X-90430Y-62505D01*
X-102275Y-74350D02*
X-90776Y-62851D01*
X34023Y87000D02*
X38023Y83000D01*
X55782Y18650D02*
X73134D01*
X73275Y-48950D02*
X80322Y-41903D01*
X45523Y28909D02*
X55782Y18650D01*
X38023Y64526D02*
X45523Y57026D01*
X29766Y-48950D02*
X73275D01*
X38023Y64526D02*
Y83000D01*
X80322Y-41903D02*
Y11462D01*
X73134Y18650D02*
X80322Y11462D01*
X45523Y28909D02*
Y57026D01*
D47*
X134240Y67217D02*
Y103222D01*
Y67217D02*
X138050D01*
X108071Y129391D02*
X134240Y103222D01*
X131200Y-23308D02*
X135010D01*
X50487Y164873D02*
X85969Y129391D01*
X108071D01*
X50487Y164873D02*
Y168340D01*
X36186Y182641D02*
X50487Y168340D01*
X36186Y182641D02*
Y194818D01*
D48*
X156980Y-1338D02*
Y48287D01*
X138050Y67217D02*
X156980Y48287D01*
X135010Y-23308D02*
X156980Y-1338D01*
X-101553Y36284D02*
X-80314D01*
X-125545Y60276D02*
X-101553Y36284D01*
X-107000Y-125D02*
X-79452Y27422D01*
X-114815Y-125D02*
X-107000D01*
X-125545Y60276D02*
Y64086D01*
X-129435Y67976D02*
X-125545Y64086D01*
X-127896Y-13207D02*
X-114815Y-125D01*
X-131706Y-13207D02*
X-127896D01*
X-133245Y67976D02*
X-129435D01*
X-131706Y121160D02*
X-114680D01*
X-153183Y99684D02*
X-131706Y121160D01*
X-153970Y27388D02*
Y99684D01*
X-105838Y130001D02*
X-67978D01*
X-114680Y121160D02*
X-105838Y130001D01*
X-153970Y99684D02*
X-153183D01*
X29361Y112040D02*
X46678D01*
X110300Y23468D02*
X114190Y27359D01*
X46678Y112040D02*
X94720Y63998D01*
X110300Y23468D02*
X110300Y23468D01*
X-146Y124797D02*
X16604D01*
X29361Y112040D01*
X94720Y39048D02*
Y63998D01*
Y39048D02*
X110300Y23468D01*
X-19977Y104966D02*
X-146Y124797D01*
X-19977Y92000D02*
Y104966D01*
X133751Y27359D02*
X134240Y27847D01*
X114190Y27359D02*
X133751D01*
X130712Y-63166D02*
X131200Y-62678D01*
X114960Y-63166D02*
X130712D01*
X-37477Y99500D02*
X-29977D01*
X-153970Y27388D02*
X-134463D01*
X95186Y535D02*
X110300Y15649D01*
X95186Y-13921D02*
Y535D01*
X94720Y-46736D02*
Y-14387D01*
X-140945Y-51090D02*
X-140000Y-52035D01*
X-142609Y-51090D02*
X-140945D01*
X111150Y-63166D02*
X114960D01*
X94720Y-14387D02*
X95186Y-13921D01*
X-153970Y-39729D02*
X-142609Y-51090D01*
X94720Y-46736D02*
X111150Y-63166D01*
X-24977Y87000D02*
X-19977Y92000D01*
X110300Y15649D02*
Y23468D01*
X-29977Y99500D02*
X-24977Y94500D01*
X-67978Y130001D02*
X-37477Y99500D01*
X-134463Y27388D02*
X-133245Y28606D01*
X-153970Y-39729D02*
Y27388D01*
D49*
X77192Y-91366D02*
X78084Y-90474D01*
X70593Y-91620D02*
X72343Y-91366D01*
X-131029Y-54980D02*
X-126490Y-50441D01*
X-133245Y-54980D02*
X-131029D01*
X116104Y-74799D02*
Y-64310D01*
X114406Y-127023D02*
X131105Y-110324D01*
X55593Y-86620D02*
X60593Y-91620D01*
X46750Y-103741D02*
Y-96620D01*
Y-103741D02*
X70032Y-127023D01*
X46750Y-86620D02*
X55593D01*
X81220Y-73000D02*
X83570Y-70650D01*
X114960Y-63166D02*
X116104Y-64310D01*
X70032Y-127023D02*
X114406D01*
X131105Y-110324D02*
Y-89800D01*
X116104Y-74799D02*
X131105Y-89800D01*
X83570Y-70650D02*
X83820D01*
D50*
X-1832Y-85348D02*
X2516Y-81000D01*
X-1832Y-107825D02*
Y-85348D01*
X-4395Y-110387D02*
X-1832Y-107825D01*
X-9519Y-110387D02*
X-4395D01*
X-9519Y-115512D02*
Y-110387D01*
X-12081Y-118074D02*
X-9519Y-115512D01*
X-39000Y-118074D02*
X-12081D01*
X-63680Y-76562D02*
X-63220Y-77022D01*
X-76854Y-76562D02*
X-63680D01*
X-77314Y-77022D02*
X-76854Y-76562D01*
X-61971Y-113973D02*
X-57870Y-118074D01*
X-61971Y-113973D02*
Y-106324D01*
X-57870Y-118074D02*
X-39000D01*
X-77314Y-79610D02*
X-61971Y-94954D01*
X-77314Y-79610D02*
Y-77022D01*
X-61971Y-106324D02*
Y-94954D01*
D51*
X-35814Y194818D02*
D03*
D52*
X36186D02*
D03*
D53*
X100000Y-100000D02*
D03*
X-100000D02*
D03*
X100000Y100000D02*
D03*
X-100000D02*
D03*
D54*
X-127946Y-108306D02*
D03*
X-128000Y-97146D02*
D03*
X-139000D02*
D03*
X-149463D02*
D03*
X-138946Y-108306D02*
D03*
X-149409Y-108344D02*
D03*
X25527Y-12802D02*
D03*
X24889Y-29310D02*
D03*
X9735Y-12802D02*
D03*
X9838Y-29310D02*
D03*
X70534Y54219D02*
D03*
X-51432Y-136000D02*
D03*
X-12135Y-20600D02*
D03*
X71043Y41998D02*
D03*
X-36666Y-20600D02*
D03*
X58373Y42376D02*
D03*
X-12135Y-32957D02*
D03*
X-24635Y-20600D02*
D03*
X58373Y54359D02*
D03*
D55*
X-55239Y-85348D02*
D03*
M02*
