G04*
G04 #@! TF.GenerationSoftware,Altium Limited,Altium Designer,26.3.0 (6)*
G04*
G04 Layer_Color=13421772*
%FSLAX44Y44*%
%MOMM*%
G71*
G04*
G04 #@! TF.SameCoordinates,A5D2DF9F-5289-4556-85AE-B0E70FB24680*
G04*
G04*
G04 #@! TF.FilePolarity,Positive*
G04*
G01*
G75*
G36*
X-16605Y138387D02*
X-16414D01*
Y138195D01*
X-16223D01*
Y138004D01*
X-16031D01*
Y137621D01*
X-15840D01*
Y137430D01*
X-15648D01*
Y137238D01*
X-15457D01*
Y136855D01*
X-15266D01*
Y136664D01*
X-15074D01*
Y136473D01*
X-14883D01*
Y136090D01*
X-14691D01*
Y135899D01*
X-14500D01*
Y135707D01*
X-14309D01*
Y135324D01*
X-14117D01*
Y135133D01*
X-13926D01*
Y134941D01*
X-13734D01*
Y134559D01*
X-13543D01*
Y134367D01*
X-13352D01*
Y134176D01*
X-13160D01*
Y133793D01*
X-12969D01*
Y133602D01*
X-12777D01*
Y133410D01*
X-12586D01*
Y133027D01*
X-12394D01*
Y132836D01*
X-12203D01*
Y132645D01*
X-12012D01*
Y132453D01*
X-11820D01*
Y132070D01*
X-11629D01*
Y131879D01*
X-11437D01*
Y131687D01*
X-11246D01*
Y131305D01*
X-11055D01*
Y131113D01*
X-10863D01*
Y130922D01*
X-10672D01*
Y130539D01*
X-10480D01*
Y130348D01*
X-10289D01*
Y130156D01*
X-10098D01*
Y129774D01*
X-9906D01*
Y129582D01*
X-9715D01*
Y129391D01*
X-9523D01*
Y129008D01*
X-9332D01*
Y128816D01*
X-9141D01*
Y128625D01*
X-8949D01*
Y128242D01*
X-8758D01*
Y128051D01*
X-8566D01*
Y127859D01*
X-8375D01*
Y127668D01*
X-8184D01*
Y127285D01*
X-7992D01*
Y127094D01*
X-7801D01*
Y126902D01*
X-7609D01*
Y126520D01*
X-7418D01*
Y126328D01*
X-7227D01*
Y126137D01*
X-7035D01*
Y125754D01*
X-6844D01*
Y125562D01*
X-6652D01*
Y125371D01*
X-6461D01*
Y124988D01*
X-6270D01*
Y124797D01*
X-6078D01*
Y124606D01*
X-5887D01*
Y124223D01*
X-5695D01*
Y124031D01*
X-5504D01*
Y123840D01*
X-5312D01*
Y123457D01*
X-5121D01*
Y123266D01*
X-4930D01*
Y123074D01*
X-4738D01*
Y122691D01*
X-4547D01*
Y122500D01*
X-4355D01*
Y122309D01*
X-4164D01*
Y122117D01*
X-3973D01*
Y121734D01*
X-3781D01*
Y121543D01*
X-3590D01*
Y121352D01*
X-3398D01*
Y120969D01*
X-3207D01*
Y120777D01*
X-3016D01*
Y120586D01*
X-2824D01*
Y120203D01*
X-2633D01*
Y120012D01*
X-2441D01*
Y119820D01*
X-2250D01*
Y119438D01*
X-2059D01*
Y119246D01*
X-2250D01*
Y119438D01*
X-3398D01*
Y119629D01*
X-4547D01*
Y119820D01*
X-5695D01*
Y120012D01*
X-6844D01*
Y120203D01*
X-7227D01*
Y120586D01*
X-7418D01*
Y120969D01*
X-7609D01*
Y121160D01*
X-7801D01*
Y121543D01*
X-7992D01*
Y121926D01*
X-8184D01*
Y122309D01*
X-8375D01*
Y122691D01*
X-8566D01*
Y123074D01*
X-8758D01*
Y123266D01*
X-8949D01*
Y123648D01*
X-9141D01*
Y124031D01*
X-9332D01*
Y124414D01*
X-9523D01*
Y124797D01*
X-9715D01*
Y124988D01*
X-9906D01*
Y125371D01*
X-10098D01*
Y125754D01*
X-10289D01*
Y126137D01*
X-10480D01*
Y126520D01*
X-10672D01*
Y126902D01*
X-10863D01*
Y127094D01*
X-11055D01*
Y127477D01*
X-11246D01*
Y127859D01*
X-11437D01*
Y128242D01*
X-11629D01*
Y128625D01*
X-11820D01*
Y129008D01*
X-12012D01*
Y129199D01*
X-12203D01*
Y129582D01*
X-12394D01*
Y129965D01*
X-12586D01*
Y130348D01*
X-12777D01*
Y130730D01*
X-12969D01*
Y130922D01*
X-13160D01*
Y131305D01*
X-13352D01*
Y131687D01*
X-13543D01*
Y132070D01*
X-13734D01*
Y132453D01*
X-13926D01*
Y132836D01*
X-14117D01*
Y133027D01*
X-14309D01*
Y133410D01*
X-14500D01*
Y133793D01*
X-14691D01*
Y134176D01*
X-14883D01*
Y134559D01*
X-15074D01*
Y134941D01*
X-15266D01*
Y135133D01*
X-15457D01*
Y134941D01*
X-15266D01*
Y134559D01*
X-15074D01*
Y133984D01*
X-14883D01*
Y133602D01*
X-14691D01*
Y133027D01*
X-14500D01*
Y132645D01*
X-14309D01*
Y132070D01*
X-14117D01*
Y131687D01*
X-13926D01*
Y131113D01*
X-13734D01*
Y130539D01*
X-13543D01*
Y130156D01*
X-13352D01*
Y129582D01*
X-13160D01*
Y129199D01*
X-12969D01*
Y128625D01*
X-12777D01*
Y128242D01*
X-12586D01*
Y127668D01*
X-12394D01*
Y127285D01*
X-12203D01*
Y126711D01*
X-12012D01*
Y126328D01*
X-11820D01*
Y125754D01*
X-11629D01*
Y125371D01*
X-11437D01*
Y124797D01*
X-11246D01*
Y124414D01*
X-11055D01*
Y123840D01*
X-10863D01*
Y123457D01*
X-10672D01*
Y122883D01*
X-10480D01*
Y122500D01*
X-10289D01*
Y121926D01*
X-10098D01*
Y121543D01*
X-9906D01*
Y120969D01*
X-9715D01*
Y120586D01*
X-9523D01*
Y120395D01*
X-10672D01*
Y120586D01*
X-11820D01*
Y120777D01*
X-12394D01*
Y120586D01*
X-12012D01*
Y120395D01*
X-11629D01*
Y120203D01*
X-11246D01*
Y120012D01*
X-10863D01*
Y119820D01*
X-10480D01*
Y119629D01*
X-10098D01*
Y119438D01*
X-9906D01*
Y119055D01*
X-10098D01*
Y118672D01*
X-10289D01*
Y118289D01*
X-10480D01*
Y117906D01*
X-10672D01*
Y117523D01*
X-10863D01*
Y117141D01*
X-11055D01*
Y116758D01*
X-11246D01*
Y116375D01*
X-11437D01*
Y115992D01*
X-11629D01*
Y115609D01*
X-11820D01*
Y115227D01*
X-12012D01*
Y115609D01*
X-12203D01*
Y116184D01*
X-12394D01*
Y116758D01*
X-12586D01*
Y117332D01*
X-12777D01*
Y118098D01*
X-12969D01*
Y118672D01*
X-13160D01*
Y119246D01*
X-13352D01*
Y119820D01*
X-13543D01*
Y120395D01*
X-13734D01*
Y120969D01*
X-14117D01*
Y121160D01*
X-15266D01*
Y121352D01*
X-16605D01*
Y121543D01*
X-17754D01*
Y121734D01*
X-18711D01*
Y121926D01*
X-18902D01*
Y122117D01*
X-18711D01*
Y123648D01*
X-18520D01*
Y125180D01*
X-18328D01*
Y126711D01*
X-18137D01*
Y128242D01*
X-17945D01*
Y129774D01*
X-17754D01*
Y131305D01*
X-17563D01*
Y132836D01*
X-17371D01*
Y134559D01*
X-17180D01*
Y136090D01*
X-16988D01*
Y137621D01*
X-16797D01*
Y138578D01*
X-16605D01*
Y138387D01*
D02*
G37*
G36*
X26461Y113313D02*
X25504D01*
Y116184D01*
X22633D01*
Y113313D01*
X21676D01*
Y119820D01*
X22633D01*
Y117141D01*
X25504D01*
Y119438D01*
Y119629D01*
Y119820D01*
X26461D01*
Y113313D01*
D02*
G37*
G36*
X34500Y119820D02*
X35074D01*
Y119629D01*
X35457D01*
Y119438D01*
X35840D01*
Y119246D01*
X36031D01*
Y119055D01*
X36223D01*
Y118863D01*
X36414D01*
Y118672D01*
X36606D01*
Y118481D01*
X36797D01*
Y118098D01*
X36988D01*
Y117332D01*
X37180D01*
Y115801D01*
X36988D01*
Y115609D01*
Y115227D01*
X36797D01*
Y114844D01*
X36606D01*
Y114461D01*
X36414D01*
Y114270D01*
X36223D01*
Y114078D01*
X36031D01*
Y113887D01*
X35840D01*
Y113695D01*
X35457D01*
Y113504D01*
X35074D01*
Y113313D01*
X32969D01*
Y113504D01*
X32395D01*
Y113695D01*
X32203D01*
Y113887D01*
X31820D01*
Y114078D01*
X31629D01*
Y114270D01*
X31437D01*
Y114461D01*
X31246D01*
Y114844D01*
X31055D01*
Y115227D01*
X30863D01*
Y115801D01*
X30672D01*
Y116375D01*
X34309D01*
Y115609D01*
X34117D01*
Y115418D01*
X31820D01*
Y115227D01*
X32012D01*
Y115035D01*
X32203D01*
Y114844D01*
X32395D01*
Y114652D01*
X32586D01*
Y114461D01*
X32777D01*
Y114270D01*
X33352D01*
Y114078D01*
X34309D01*
Y114270D01*
X34883D01*
Y114461D01*
X35266D01*
Y114652D01*
X35457D01*
Y114844D01*
X35649D01*
Y115035D01*
X35840D01*
Y115418D01*
X36031D01*
Y115801D01*
X36223D01*
Y117332D01*
X36031D01*
Y117906D01*
X35840D01*
Y118098D01*
X35649D01*
Y118289D01*
X35457D01*
Y118481D01*
X35266D01*
Y118672D01*
X35074D01*
Y118863D01*
X34500D01*
Y119055D01*
X33352D01*
Y118863D01*
X32777D01*
Y118672D01*
X32395D01*
Y118481D01*
X32203D01*
Y118289D01*
X32012D01*
Y117906D01*
X31820D01*
Y117523D01*
X30863D01*
Y118289D01*
X31055D01*
Y118481D01*
X31246D01*
Y118863D01*
X31437D01*
Y119055D01*
X31629D01*
Y119246D01*
X31820D01*
Y119438D01*
X32203D01*
Y119629D01*
X32586D01*
Y119820D01*
X33352D01*
Y120012D01*
X34500D01*
Y119820D01*
D02*
G37*
G36*
X44070D02*
X44262D01*
Y119246D01*
X44453D01*
Y118863D01*
X44645D01*
Y118289D01*
X44836D01*
Y117906D01*
X45027D01*
Y117332D01*
X45219D01*
Y116758D01*
X45410D01*
Y116375D01*
X45602D01*
Y115801D01*
X45793D01*
Y115418D01*
X45984D01*
Y114844D01*
X46176D01*
Y114461D01*
X46367D01*
Y113887D01*
X46559D01*
Y113504D01*
X46750D01*
Y113313D01*
X45602D01*
Y113887D01*
X45410D01*
Y114270D01*
X45219D01*
Y114844D01*
X45027D01*
Y115227D01*
X42539D01*
Y115035D01*
X42348D01*
Y114652D01*
X42156D01*
Y114078D01*
X41965D01*
Y113695D01*
X41773D01*
Y113313D01*
X40816D01*
Y113695D01*
X41008D01*
Y114270D01*
X41199D01*
Y114652D01*
X41391D01*
Y115227D01*
X41582D01*
Y115801D01*
X41773D01*
Y116184D01*
X41965D01*
Y116758D01*
X42156D01*
Y117141D01*
X42348D01*
Y117715D01*
X42539D01*
Y118098D01*
X42730D01*
Y118672D01*
X42922D01*
Y119055D01*
X43113D01*
Y119629D01*
X43305D01*
Y120012D01*
X44070D01*
Y119820D01*
D02*
G37*
G36*
X18613Y110441D02*
X19570D01*
Y110250D01*
X20145D01*
Y110059D01*
X20719D01*
Y109867D01*
X21102D01*
Y109676D01*
X21676D01*
Y109484D01*
X22059D01*
Y109293D01*
X22250D01*
Y109102D01*
X22633D01*
Y108910D01*
X23016D01*
Y108719D01*
X23207D01*
Y108527D01*
X23398D01*
Y108336D01*
X23781D01*
Y108145D01*
X23973D01*
Y107953D01*
X24164D01*
Y107762D01*
X24355D01*
Y107570D01*
X24547D01*
Y107379D01*
X24738D01*
Y107188D01*
X24930D01*
Y106996D01*
X25121D01*
Y106805D01*
X25312D01*
Y106613D01*
X25504D01*
Y106230D01*
X25695D01*
Y106039D01*
X25887D01*
Y105656D01*
X26078D01*
Y105465D01*
X26270D01*
Y105082D01*
X26461D01*
Y104699D01*
X26652D01*
Y104508D01*
X26844D01*
Y103934D01*
X27035D01*
Y103551D01*
X27227D01*
Y102977D01*
X27418D01*
Y102402D01*
X27609D01*
Y101637D01*
X27801D01*
Y100105D01*
X27992D01*
Y99723D01*
X26270D01*
Y99914D01*
X24738D01*
Y100680D01*
X24547D01*
Y101637D01*
X24355D01*
Y102211D01*
X24164D01*
Y102594D01*
X23973D01*
Y102977D01*
X23781D01*
Y103359D01*
X23590D01*
Y103742D01*
X23398D01*
Y103934D01*
X23207D01*
Y104316D01*
X23016D01*
Y104508D01*
X22824D01*
Y104699D01*
X22633D01*
Y104891D01*
X22441D01*
Y105082D01*
X22250D01*
Y105273D01*
X22059D01*
Y105465D01*
X21867D01*
Y105656D01*
X21676D01*
Y105848D01*
X21484D01*
Y106039D01*
X21102D01*
Y106230D01*
X20910D01*
Y106422D01*
X20527D01*
Y106613D01*
X20145D01*
Y106805D01*
X19762D01*
Y106996D01*
X19188D01*
Y107188D01*
X18613D01*
Y107379D01*
X17656D01*
Y107570D01*
X15934D01*
Y107379D01*
X14785D01*
Y107188D01*
X14211D01*
Y106996D01*
X13637D01*
Y106805D01*
X13254D01*
Y106613D01*
X12871D01*
Y106422D01*
X12488D01*
Y106230D01*
X12297D01*
Y106039D01*
X11914D01*
Y105848D01*
X11723D01*
Y105656D01*
X11531D01*
Y105465D01*
X11340D01*
Y105273D01*
X11149D01*
Y105082D01*
X10957D01*
Y104891D01*
X10766D01*
Y104699D01*
X10574D01*
Y104508D01*
X10383D01*
Y104699D01*
X10000D01*
Y104891D01*
X9617D01*
Y105082D01*
X9426D01*
Y105273D01*
X9043D01*
Y105465D01*
X8660D01*
Y105656D01*
X8277D01*
Y105848D01*
X8086D01*
Y106039D01*
X7703D01*
Y106230D01*
X7894D01*
Y106422D01*
X8086D01*
Y106613D01*
X8277D01*
Y106996D01*
X8469D01*
Y107188D01*
X8660D01*
Y107379D01*
X8852D01*
Y107570D01*
X9043D01*
Y107762D01*
X9234D01*
Y107953D01*
X9617D01*
Y108145D01*
X9809D01*
Y108336D01*
X10000D01*
Y108527D01*
X10191D01*
Y108719D01*
X10574D01*
Y108910D01*
X10766D01*
Y109102D01*
X11149D01*
Y109293D01*
X11531D01*
Y109484D01*
X11914D01*
Y109676D01*
X12297D01*
Y109867D01*
X12680D01*
Y110059D01*
X13254D01*
Y110250D01*
X14020D01*
Y110441D01*
X14785D01*
Y110633D01*
X18613D01*
Y110441D01*
D02*
G37*
G36*
X-910Y104891D02*
X-719D01*
Y104699D01*
X-527D01*
Y104508D01*
X-336D01*
Y104316D01*
X-144D01*
Y104125D01*
X47D01*
Y103934D01*
X238D01*
Y103742D01*
X430D01*
Y103551D01*
X621D01*
Y103359D01*
X812D01*
Y103168D01*
X1004D01*
Y102977D01*
X1195D01*
Y102785D01*
X1578D01*
Y102594D01*
X1769D01*
Y102402D01*
X1961D01*
Y88430D01*
X-11437D01*
Y91492D01*
X-1102D01*
Y105082D01*
X-910D01*
Y104891D01*
D02*
G37*
G36*
X-21582Y110250D02*
X-21391D01*
Y109676D01*
X-21199D01*
Y109293D01*
X-21008D01*
Y108719D01*
X-20816D01*
Y108336D01*
X-20625D01*
Y107762D01*
X-20434D01*
Y107379D01*
X-20242D01*
Y106805D01*
X-20051D01*
Y106230D01*
X-19859D01*
Y105848D01*
X-19668D01*
Y105273D01*
X-19476D01*
Y104891D01*
X-19285D01*
Y104316D01*
X-19094D01*
Y103934D01*
X-18902D01*
Y103359D01*
X-18711D01*
Y102977D01*
X-18520D01*
Y102402D01*
X-18328D01*
Y102020D01*
X-18137D01*
Y101445D01*
X-17945D01*
Y101062D01*
X-17754D01*
Y100488D01*
X-17563D01*
Y100105D01*
X-17371D01*
Y99531D01*
X-17180D01*
Y99148D01*
X-16988D01*
Y98574D01*
X-16797D01*
Y98191D01*
X-16605D01*
Y97617D01*
X-16414D01*
Y97043D01*
X-16223D01*
Y96660D01*
X-16031D01*
Y96086D01*
X-15840D01*
Y95703D01*
X-15648D01*
Y95129D01*
X-15457D01*
Y94746D01*
X-15266D01*
Y94172D01*
X-15074D01*
Y93789D01*
X-14883D01*
Y93215D01*
X-14691D01*
Y92832D01*
X-14500D01*
Y92258D01*
X-14309D01*
Y91875D01*
X-14117D01*
Y91301D01*
X-13926D01*
Y90918D01*
X-13734D01*
Y90344D01*
X-13543D01*
Y89961D01*
X-13352D01*
Y89387D01*
X-13160D01*
Y89004D01*
X-12969D01*
Y88430D01*
X-16223D01*
Y88621D01*
X-16414D01*
Y89004D01*
X-16605D01*
Y89578D01*
X-16797D01*
Y89961D01*
X-16988D01*
Y90535D01*
X-17180D01*
Y90918D01*
X-17371D01*
Y91492D01*
X-17563D01*
Y91875D01*
X-17754D01*
Y92449D01*
X-17945D01*
Y92832D01*
X-18137D01*
Y93215D01*
X-18328D01*
Y93789D01*
X-18520D01*
Y94172D01*
X-18711D01*
Y94746D01*
X-18902D01*
Y94937D01*
X-26750D01*
Y94746D01*
X-26941D01*
Y94363D01*
X-27133D01*
Y93981D01*
X-27324D01*
Y93406D01*
X-27516D01*
Y93024D01*
X-27707D01*
Y92449D01*
X-27898D01*
Y92066D01*
X-28090D01*
Y91492D01*
X-28281D01*
Y91109D01*
X-28473D01*
Y90535D01*
X-28664D01*
Y90152D01*
X-28855D01*
Y89578D01*
X-29047D01*
Y89195D01*
X-29238D01*
Y88813D01*
X-29430D01*
Y88430D01*
X-32875D01*
Y88621D01*
X-32684D01*
Y89004D01*
X-32492D01*
Y89578D01*
X-32301D01*
Y89961D01*
X-32109D01*
Y90535D01*
X-31918D01*
Y90918D01*
X-31727D01*
Y91492D01*
X-31535D01*
Y91875D01*
X-31344D01*
Y92449D01*
X-31152D01*
Y92832D01*
X-30961D01*
Y93406D01*
X-30770D01*
Y93789D01*
X-30578D01*
Y94363D01*
X-30387D01*
Y94746D01*
X-30195D01*
Y95320D01*
X-30004D01*
Y95703D01*
X-29813D01*
Y96277D01*
X-29621D01*
Y96852D01*
X-29430D01*
Y97234D01*
X-29238D01*
Y97809D01*
X-29047D01*
Y98191D01*
X-28855D01*
Y98766D01*
X-28664D01*
Y99148D01*
X-28473D01*
Y99723D01*
X-28281D01*
Y100105D01*
X-28090D01*
Y100680D01*
X-27898D01*
Y101062D01*
X-27707D01*
Y101637D01*
X-27516D01*
Y102020D01*
X-27324D01*
Y102594D01*
X-27133D01*
Y102977D01*
X-26941D01*
Y103551D01*
X-26750D01*
Y103934D01*
X-26559D01*
Y104508D01*
X-26367D01*
Y104891D01*
X-26176D01*
Y105465D01*
X-25984D01*
Y106039D01*
X-25793D01*
Y106422D01*
X-25601D01*
Y106996D01*
X-25410D01*
Y107379D01*
X-25219D01*
Y107953D01*
X-25027D01*
Y108336D01*
X-24836D01*
Y108910D01*
X-24644D01*
Y109293D01*
X-24453D01*
Y109867D01*
X-24262D01*
Y110250D01*
X-24070D01*
Y110633D01*
X-21582D01*
Y110250D01*
D02*
G37*
G36*
X-34789Y88430D02*
X-37852D01*
Y107188D01*
X-43976D01*
Y106996D01*
X-44551D01*
Y106805D01*
X-44934D01*
Y106613D01*
X-45316D01*
Y106422D01*
X-45508D01*
Y106230D01*
X-45699D01*
Y106039D01*
X-45891D01*
Y105848D01*
X-46082D01*
Y105656D01*
X-46273D01*
Y105273D01*
X-46465D01*
Y104891D01*
X-46656D01*
Y104125D01*
X-46848D01*
Y102594D01*
X-46656D01*
Y102020D01*
X-46465D01*
Y101445D01*
X-46273D01*
Y101254D01*
X-46082D01*
Y100871D01*
X-45891D01*
Y100680D01*
X-45699D01*
Y100488D01*
X-45508D01*
Y100297D01*
X-45125D01*
Y100105D01*
X-44742D01*
Y99914D01*
X-44359D01*
Y99723D01*
X-43594D01*
Y99531D01*
X-39191D01*
Y97809D01*
X-39383D01*
Y97617D01*
X-39574D01*
Y97426D01*
X-39766D01*
Y97234D01*
X-39957D01*
Y96852D01*
X-40148D01*
Y96660D01*
X-40340D01*
Y96469D01*
X-40531D01*
Y96277D01*
X-40723D01*
Y96086D01*
X-40914D01*
Y95703D01*
X-41105D01*
Y95512D01*
X-41297D01*
Y95320D01*
X-41488D01*
Y95129D01*
X-41680D01*
Y94937D01*
X-41871D01*
Y94555D01*
X-42063D01*
Y94363D01*
X-42254D01*
Y94172D01*
X-42445D01*
Y93981D01*
X-42637D01*
Y93789D01*
X-42828D01*
Y93406D01*
X-43019D01*
Y93215D01*
X-43211D01*
Y93024D01*
X-43402D01*
Y92832D01*
X-43594D01*
Y92641D01*
X-43785D01*
Y92258D01*
X-43976D01*
Y92066D01*
X-44168D01*
Y91875D01*
X-44359D01*
Y91684D01*
X-44551D01*
Y91492D01*
X-44742D01*
Y91109D01*
X-44934D01*
Y90918D01*
X-45125D01*
Y90727D01*
X-45316D01*
Y90535D01*
X-45508D01*
Y90152D01*
X-45699D01*
Y89961D01*
X-45891D01*
Y89769D01*
X-46082D01*
Y89578D01*
X-46273D01*
Y89387D01*
X-46465D01*
Y89004D01*
X-46656D01*
Y88813D01*
X-46848D01*
Y88621D01*
X-47039D01*
Y88430D01*
X-51059D01*
Y88813D01*
X-50867D01*
Y89004D01*
X-50676D01*
Y89195D01*
X-50484D01*
Y89387D01*
X-50293D01*
Y89578D01*
X-50102D01*
Y89769D01*
X-49910D01*
Y90152D01*
X-49719D01*
Y90344D01*
X-49527D01*
Y90535D01*
X-49336D01*
Y90727D01*
X-49145D01*
Y90918D01*
X-48953D01*
Y91301D01*
X-48762D01*
Y91492D01*
X-48570D01*
Y91684D01*
X-48379D01*
Y91875D01*
X-48187D01*
Y92066D01*
X-47996D01*
Y92449D01*
X-47805D01*
Y92641D01*
X-47613D01*
Y92832D01*
X-47422D01*
Y93024D01*
X-47231D01*
Y93215D01*
X-47039D01*
Y93598D01*
X-46848D01*
Y93789D01*
X-46656D01*
Y93981D01*
X-46465D01*
Y94172D01*
X-46273D01*
Y94363D01*
X-46082D01*
Y94555D01*
X-45891D01*
Y94937D01*
X-45699D01*
Y95129D01*
X-45508D01*
Y95320D01*
X-45316D01*
Y95512D01*
X-45125D01*
Y95703D01*
X-44934D01*
Y96086D01*
X-44742D01*
Y96277D01*
X-44551D01*
Y96469D01*
X-44359D01*
Y96660D01*
X-44551D01*
Y96852D01*
X-45316D01*
Y97043D01*
X-45891D01*
Y97234D01*
X-46273D01*
Y97426D01*
X-46656D01*
Y97617D01*
X-47039D01*
Y97809D01*
X-47231D01*
Y98000D01*
X-47613D01*
Y98191D01*
X-47805D01*
Y98383D01*
X-47996D01*
Y98574D01*
X-48187D01*
Y98766D01*
X-48379D01*
Y98957D01*
X-48570D01*
Y99340D01*
X-48762D01*
Y99531D01*
X-48953D01*
Y99914D01*
X-49145D01*
Y100297D01*
X-49336D01*
Y100680D01*
X-49527D01*
Y101254D01*
X-49719D01*
Y101828D01*
X-49910D01*
Y104891D01*
X-49719D01*
Y105656D01*
X-49527D01*
Y106230D01*
X-49336D01*
Y106613D01*
X-49145D01*
Y106996D01*
X-48953D01*
Y107379D01*
X-48762D01*
Y107570D01*
X-48570D01*
Y107953D01*
X-48379D01*
Y108145D01*
X-48187D01*
Y108336D01*
X-47996D01*
Y108527D01*
X-47805D01*
Y108719D01*
X-47613D01*
Y108910D01*
X-47422D01*
Y109102D01*
X-47039D01*
Y109293D01*
X-46848D01*
Y109484D01*
X-46465D01*
Y109676D01*
X-46082D01*
Y109867D01*
X-45508D01*
Y110059D01*
X-44934D01*
Y110250D01*
X-43976D01*
Y110441D01*
X-34789D01*
Y88430D01*
D02*
G37*
G36*
X40051Y110441D02*
X41008D01*
Y110250D01*
X41773D01*
Y110059D01*
X42348D01*
Y109867D01*
X42730D01*
Y109676D01*
X43113D01*
Y109484D01*
X43496D01*
Y109293D01*
X43688D01*
Y109102D01*
X44070D01*
Y108910D01*
X44262D01*
Y108719D01*
X44453D01*
Y108527D01*
X44645D01*
Y108336D01*
X44836D01*
Y108145D01*
X45027D01*
Y107953D01*
X45219D01*
Y107762D01*
X45410D01*
Y107570D01*
X45602D01*
Y107188D01*
X45793D01*
Y106805D01*
X45984D01*
Y106422D01*
X46176D01*
Y106039D01*
X46367D01*
Y105273D01*
X46559D01*
Y102977D01*
X46367D01*
Y102020D01*
X46176D01*
Y101637D01*
X45984D01*
Y101254D01*
X45793D01*
Y100871D01*
X45602D01*
Y100488D01*
X45410D01*
Y100297D01*
X45219D01*
Y100105D01*
X45027D01*
Y99914D01*
X44836D01*
Y99723D01*
X44645D01*
Y99531D01*
X44262D01*
Y99340D01*
X44070D01*
Y99148D01*
X43688D01*
Y98957D01*
X43305D01*
Y98766D01*
X42730D01*
Y98574D01*
X42156D01*
Y98383D01*
X41391D01*
Y98191D01*
X40434D01*
Y98000D01*
X38902D01*
Y97809D01*
X37371D01*
Y97617D01*
X36223D01*
Y97426D01*
X35649D01*
Y97234D01*
X35074D01*
Y97043D01*
X34883D01*
Y96852D01*
X34500D01*
Y96660D01*
X34309D01*
Y96469D01*
X34117D01*
Y96086D01*
X33926D01*
Y95320D01*
X33734D01*
Y94555D01*
X33926D01*
Y93789D01*
X34117D01*
Y93406D01*
X34309D01*
Y93215D01*
X34500D01*
Y93024D01*
X34691D01*
Y92832D01*
X34883D01*
Y92641D01*
X35074D01*
Y92449D01*
X35266D01*
Y92258D01*
X35649D01*
Y92066D01*
X36031D01*
Y91875D01*
X36414D01*
Y91684D01*
X36988D01*
Y91492D01*
X37945D01*
Y91301D01*
X39477D01*
Y91492D01*
X40434D01*
Y91684D01*
X41008D01*
Y91875D01*
X41582D01*
Y92066D01*
X41773D01*
Y92258D01*
X42156D01*
Y92449D01*
X42348D01*
Y92641D01*
X42539D01*
Y92832D01*
X42730D01*
Y93024D01*
X42922D01*
Y93215D01*
X43113D01*
Y93406D01*
X43305D01*
Y93981D01*
X43496D01*
Y94746D01*
X46750D01*
Y93789D01*
X46559D01*
Y93024D01*
X46367D01*
Y92449D01*
X46176D01*
Y92066D01*
X45984D01*
Y91684D01*
X45793D01*
Y91492D01*
X45602D01*
Y91109D01*
X45410D01*
Y90918D01*
X45219D01*
Y90727D01*
X45027D01*
Y90535D01*
X44836D01*
Y90344D01*
X44645D01*
Y90152D01*
X44262D01*
Y89961D01*
X44070D01*
Y89769D01*
X43879D01*
Y89578D01*
X43496D01*
Y89387D01*
X43113D01*
Y89195D01*
X42730D01*
Y89004D01*
X42348D01*
Y88813D01*
X41773D01*
Y88621D01*
X41199D01*
Y88430D01*
X40242D01*
Y88238D01*
X37371D01*
Y88430D01*
X36414D01*
Y88621D01*
X35649D01*
Y88813D01*
X35266D01*
Y89004D01*
X34691D01*
Y89195D01*
X34309D01*
Y89387D01*
X33926D01*
Y89578D01*
X33734D01*
Y89769D01*
X33352D01*
Y89961D01*
X33160D01*
Y90152D01*
X32969D01*
Y90344D01*
X32586D01*
Y90535D01*
X32395D01*
Y90727D01*
X32203D01*
Y90918D01*
X32012D01*
Y91301D01*
X31820D01*
Y91492D01*
X31629D01*
Y91684D01*
X31437D01*
Y92066D01*
X31246D01*
Y92449D01*
X31055D01*
Y93024D01*
X30863D01*
Y93598D01*
X30672D01*
Y96277D01*
X30863D01*
Y96852D01*
X31055D01*
Y97426D01*
X31246D01*
Y97809D01*
X31437D01*
Y98000D01*
X31629D01*
Y98383D01*
X31820D01*
Y98574D01*
X32012D01*
Y98766D01*
X32203D01*
Y98957D01*
X32395D01*
Y99148D01*
X32777D01*
Y99340D01*
X32969D01*
Y99531D01*
X33352D01*
Y99723D01*
X33734D01*
Y99914D01*
X34117D01*
Y100105D01*
X34500D01*
Y100297D01*
X35074D01*
Y100488D01*
X35840D01*
Y100680D01*
X36606D01*
Y100871D01*
X37754D01*
Y101062D01*
X39477D01*
Y101254D01*
X40625D01*
Y101445D01*
X41391D01*
Y101637D01*
X41965D01*
Y101828D01*
X42156D01*
Y102020D01*
X42539D01*
Y102211D01*
X42730D01*
Y102402D01*
X42922D01*
Y102594D01*
X43113D01*
Y102977D01*
X43305D01*
Y103934D01*
X43496D01*
Y104316D01*
X43305D01*
Y105273D01*
X43113D01*
Y105656D01*
X42922D01*
Y105848D01*
X42730D01*
Y106039D01*
X42539D01*
Y106230D01*
X42348D01*
Y106422D01*
X42156D01*
Y106613D01*
X41965D01*
Y106805D01*
X41582D01*
Y106996D01*
X41199D01*
Y107188D01*
X40625D01*
Y107379D01*
X39859D01*
Y107570D01*
X37754D01*
Y107379D01*
X36988D01*
Y107188D01*
X36414D01*
Y106996D01*
X36031D01*
Y106805D01*
X35649D01*
Y106613D01*
X35457D01*
Y106422D01*
X35266D01*
Y106230D01*
X35074D01*
Y106039D01*
X34883D01*
Y105848D01*
X34691D01*
Y105465D01*
X34500D01*
Y104891D01*
X34309D01*
Y104699D01*
X33160D01*
Y104891D01*
X31246D01*
Y105465D01*
X31437D01*
Y106230D01*
X31629D01*
Y106613D01*
X31820D01*
Y106996D01*
X32012D01*
Y107379D01*
X32203D01*
Y107762D01*
X32395D01*
Y107953D01*
X32586D01*
Y108145D01*
X32777D01*
Y108336D01*
X32969D01*
Y108527D01*
X33160D01*
Y108719D01*
X33352D01*
Y108910D01*
X33543D01*
Y109102D01*
X33734D01*
Y109293D01*
X34117D01*
Y109484D01*
X34500D01*
Y109676D01*
X34691D01*
Y109867D01*
X35266D01*
Y110059D01*
X35649D01*
Y110250D01*
X36414D01*
Y110441D01*
X37180D01*
Y110633D01*
X40051D01*
Y110441D01*
D02*
G37*
G36*
X-8184Y119438D02*
X-7992D01*
Y119055D01*
X-7801D01*
Y118863D01*
X-7609D01*
Y118481D01*
X-7418D01*
Y118289D01*
X-7227D01*
Y117906D01*
X-7035D01*
Y117715D01*
X-6844D01*
Y117332D01*
X-6652D01*
Y117141D01*
X-6461D01*
Y116949D01*
X-6270D01*
Y116566D01*
X-6078D01*
Y116375D01*
X-5887D01*
Y115992D01*
X-5695D01*
Y115801D01*
X-5504D01*
Y115609D01*
X-5312D01*
Y115418D01*
X-5121D01*
Y115035D01*
X-4930D01*
Y114844D01*
X-4738D01*
Y114652D01*
X-4547D01*
Y114461D01*
X-4355D01*
Y114270D01*
X-4164D01*
Y114078D01*
X-3973D01*
Y113695D01*
X-3781D01*
Y113504D01*
X-3590D01*
Y113313D01*
X-3398D01*
Y113121D01*
X-3207D01*
Y112930D01*
X-3016D01*
Y112738D01*
X-2824D01*
Y112547D01*
X-2633D01*
Y112355D01*
X-2441D01*
Y112164D01*
X-2250D01*
Y111973D01*
X-2059D01*
Y111781D01*
X-1867D01*
Y111590D01*
X-1676D01*
Y111398D01*
X-1484D01*
Y111207D01*
X-1293D01*
Y111016D01*
X-1102D01*
Y110824D01*
X-910D01*
Y110633D01*
X-719D01*
Y110441D01*
X-527D01*
Y110250D01*
X-144D01*
Y110059D01*
X47D01*
Y109867D01*
X238D01*
Y109676D01*
X430D01*
Y109484D01*
X621D01*
Y109293D01*
X812D01*
Y109102D01*
X1195D01*
Y108910D01*
X1387D01*
Y108719D01*
X1578D01*
Y108527D01*
X1769D01*
Y108336D01*
X2152D01*
Y108145D01*
X2344D01*
Y107953D01*
X2535D01*
Y107762D01*
X2918D01*
Y107570D01*
X3109D01*
Y107379D01*
X3301D01*
Y107188D01*
X3684D01*
Y106996D01*
X3875D01*
Y106805D01*
X4258D01*
Y106613D01*
X4449D01*
Y106422D01*
X4832D01*
Y106230D01*
X5023D01*
Y106039D01*
X5406D01*
Y105848D01*
X5598D01*
Y105656D01*
X5980D01*
Y105465D01*
X6363D01*
Y105273D01*
X6555D01*
Y105082D01*
X6938D01*
Y104891D01*
X7320D01*
Y104699D01*
X7512D01*
Y104508D01*
X7894D01*
Y104316D01*
X8277D01*
Y104125D01*
X8660D01*
Y103934D01*
X8852D01*
Y103742D01*
X9234D01*
Y103551D01*
X9617D01*
Y103359D01*
X10000D01*
Y103168D01*
X10383D01*
Y102977D01*
X10766D01*
Y102785D01*
X11149D01*
Y102594D01*
X11723D01*
Y102402D01*
X12105D01*
Y102211D01*
X12488D01*
Y102020D01*
X12871D01*
Y101828D01*
X13445D01*
Y101637D01*
X13828D01*
Y101445D01*
X14402D01*
Y101254D01*
X14785D01*
Y101062D01*
X15359D01*
Y100871D01*
X15934D01*
Y100680D01*
X16508D01*
Y100488D01*
X17082D01*
Y100297D01*
X17656D01*
Y100105D01*
X18231D01*
Y99914D01*
X18996D01*
Y99723D01*
X19762D01*
Y99531D01*
X20527D01*
Y99340D01*
X21293D01*
Y99148D01*
X22250D01*
Y98957D01*
X23207D01*
Y98766D01*
X24355D01*
Y98574D01*
X25887D01*
Y98383D01*
X27801D01*
Y97426D01*
X27609D01*
Y96469D01*
X27418D01*
Y95895D01*
X27227D01*
Y95320D01*
X27035D01*
Y94746D01*
X26844D01*
Y94363D01*
X26652D01*
Y93981D01*
X26461D01*
Y93789D01*
X26270D01*
Y93406D01*
X26078D01*
Y93215D01*
X25887D01*
Y92832D01*
X25695D01*
Y92641D01*
X25504D01*
Y92258D01*
X25312D01*
Y92066D01*
X25121D01*
Y91875D01*
X24930D01*
Y91684D01*
X24738D01*
Y91492D01*
X24547D01*
Y91301D01*
X24355D01*
Y91109D01*
X24164D01*
Y90918D01*
X23973D01*
Y90727D01*
X23781D01*
Y90535D01*
X23590D01*
Y90344D01*
X23207D01*
Y90152D01*
X23016D01*
Y89961D01*
X22633D01*
Y89769D01*
X22441D01*
Y89578D01*
X22059D01*
Y89387D01*
X21676D01*
Y89195D01*
X21293D01*
Y89004D01*
X20910D01*
Y88813D01*
X20336D01*
Y88621D01*
X19762D01*
Y88430D01*
X18805D01*
Y88238D01*
X17273D01*
Y88047D01*
X16316D01*
Y88238D01*
X14594D01*
Y88430D01*
X13828D01*
Y88621D01*
X13062D01*
Y88813D01*
X12680D01*
Y89004D01*
X12105D01*
Y89195D01*
X11723D01*
Y89387D01*
X11340D01*
Y89578D01*
X11149D01*
Y89769D01*
X10766D01*
Y89961D01*
X10383D01*
Y90152D01*
X10191D01*
Y90344D01*
X10000D01*
Y90535D01*
X9617D01*
Y90727D01*
X9426D01*
Y90918D01*
X9234D01*
Y91109D01*
X9043D01*
Y91301D01*
X8852D01*
Y91492D01*
X8660D01*
Y91684D01*
X8469D01*
Y91875D01*
X8277D01*
Y92066D01*
X8086D01*
Y92449D01*
X7894D01*
Y92641D01*
X7703D01*
Y92832D01*
X7512D01*
Y93215D01*
X7320D01*
Y93406D01*
X7129D01*
Y93789D01*
X6938D01*
Y94172D01*
X6746D01*
Y94555D01*
X6555D01*
Y94937D01*
X6363D01*
Y95512D01*
X6172D01*
Y95895D01*
X5980D01*
Y96660D01*
X5789D01*
Y97426D01*
X5598D01*
Y101062D01*
X5406D01*
Y101254D01*
X5215D01*
Y101445D01*
X5023D01*
Y101637D01*
X4641D01*
Y101828D01*
X4449D01*
Y102020D01*
X4258D01*
Y102211D01*
X4066D01*
Y102402D01*
X3875D01*
Y102594D01*
X3492D01*
Y102785D01*
X3301D01*
Y102977D01*
X3109D01*
Y103168D01*
X2918D01*
Y103359D01*
X2727D01*
Y103551D01*
X2535D01*
Y103742D01*
X2344D01*
Y103934D01*
X1961D01*
Y104125D01*
X1769D01*
Y104316D01*
X1578D01*
Y104508D01*
X1387D01*
Y104699D01*
X1195D01*
Y104891D01*
X1004D01*
Y105082D01*
X812D01*
Y105273D01*
X621D01*
Y105465D01*
X430D01*
Y105656D01*
X238D01*
Y105848D01*
X47D01*
Y106039D01*
X-144D01*
Y106230D01*
X-336D01*
Y106422D01*
X-527D01*
Y106805D01*
X-719D01*
Y106996D01*
X-910D01*
Y107188D01*
X-1102D01*
Y107379D01*
X-1293D01*
Y107570D01*
X-1484D01*
Y107762D01*
X-1676D01*
Y107953D01*
X-1867D01*
Y108336D01*
X-2059D01*
Y108527D01*
X-2250D01*
Y108719D01*
X-2441D01*
Y108910D01*
X-2633D01*
Y109293D01*
X-2824D01*
Y109484D01*
X-3016D01*
Y109676D01*
X-3207D01*
Y110059D01*
X-3398D01*
Y110250D01*
X-3590D01*
Y110441D01*
X-3781D01*
Y110824D01*
X-3973D01*
Y111016D01*
X-4164D01*
Y111398D01*
X-4355D01*
Y111590D01*
X-4547D01*
Y111973D01*
X-4738D01*
Y112164D01*
X-4930D01*
Y112547D01*
X-5121D01*
Y112930D01*
X-5312D01*
Y113121D01*
X-5504D01*
Y113504D01*
X-5695D01*
Y113887D01*
X-5887D01*
Y114270D01*
X-6078D01*
Y114652D01*
X-6270D01*
Y114844D01*
X-6461D01*
Y115227D01*
X-6652D01*
Y115801D01*
X-6844D01*
Y116184D01*
X-7035D01*
Y116566D01*
X-7227D01*
Y116949D01*
X-7418D01*
Y117332D01*
X-7609D01*
Y117906D01*
X-7801D01*
Y118289D01*
X-7992D01*
Y118863D01*
X-8184D01*
Y119438D01*
X-8375D01*
Y119629D01*
Y119820D01*
X-8184D01*
Y119438D01*
D02*
G37*
G36*
X-39000Y79051D02*
X-39766D01*
Y83262D01*
X-39957D01*
Y83070D01*
X-40148D01*
Y82879D01*
X-40340D01*
Y82496D01*
X-40531D01*
Y82305D01*
X-40723D01*
Y81922D01*
X-40914D01*
Y81730D01*
X-41105D01*
Y81348D01*
X-41297D01*
Y81156D01*
X-41488D01*
Y80773D01*
X-41680D01*
Y80582D01*
X-41871D01*
Y80391D01*
X-42063D01*
Y80008D01*
X-42254D01*
Y79816D01*
X-42445D01*
Y79434D01*
X-42637D01*
Y79242D01*
X-42828D01*
Y79051D01*
X-43594D01*
Y81539D01*
Y81730D01*
Y85176D01*
X-42637D01*
Y80965D01*
X-42445D01*
Y81348D01*
X-42254D01*
Y81539D01*
X-42063D01*
Y81922D01*
X-41871D01*
Y82113D01*
X-41680D01*
Y82305D01*
X-41488D01*
Y82688D01*
X-41297D01*
Y82879D01*
X-41105D01*
Y83262D01*
X-40914D01*
Y83453D01*
X-40723D01*
Y83836D01*
X-40531D01*
Y84027D01*
X-40340D01*
Y84410D01*
X-40148D01*
Y84602D01*
X-39957D01*
Y84793D01*
X-39766D01*
Y85176D01*
X-39000D01*
Y79051D01*
D02*
G37*
G36*
X-14691D02*
X-15648D01*
Y81156D01*
X-17754D01*
Y81348D01*
X-18137D01*
Y81539D01*
X-18328D01*
Y81730D01*
X-18520D01*
Y81922D01*
X-18711D01*
Y82305D01*
X-18902D01*
Y84027D01*
X-18711D01*
Y84410D01*
X-18520D01*
Y84602D01*
X-18328D01*
Y84793D01*
X-18137D01*
Y84984D01*
X-17563D01*
Y85176D01*
X-14691D01*
Y79051D01*
D02*
G37*
G36*
X-22731D02*
X-26559D01*
Y80008D01*
X-23688D01*
Y85176D01*
X-22731D01*
Y79051D01*
D02*
G37*
G36*
X-32301Y84793D02*
X-32109D01*
Y84410D01*
X-31918D01*
Y83836D01*
X-31727D01*
Y83453D01*
X-31535D01*
Y82879D01*
X-31344D01*
Y82496D01*
X-31152D01*
Y81922D01*
X-30961D01*
Y81539D01*
X-30770D01*
Y80965D01*
X-30578D01*
Y80582D01*
X-30387D01*
Y80008D01*
X-30195D01*
Y79434D01*
X-30004D01*
Y79051D01*
X-30961D01*
Y79625D01*
X-31152D01*
Y80008D01*
X-31344D01*
Y80582D01*
X-31535D01*
Y80773D01*
X-31727D01*
Y80965D01*
X-33641D01*
Y80773D01*
X-33832D01*
Y80582D01*
X-34023D01*
Y80008D01*
X-34215D01*
Y79625D01*
X-34406D01*
Y79242D01*
X-34598D01*
Y79051D01*
X-35363D01*
Y79434D01*
X-35172D01*
Y80008D01*
X-34980D01*
Y80582D01*
X-34789D01*
Y80965D01*
X-34598D01*
Y81539D01*
X-34406D01*
Y81922D01*
X-34215D01*
Y82496D01*
X-34023D01*
Y82879D01*
X-33832D01*
Y83453D01*
X-33641D01*
Y83836D01*
X-33449D01*
Y84410D01*
X-33258D01*
Y84793D01*
X-33066D01*
Y85176D01*
X-32301D01*
Y84793D01*
D02*
G37*
G36*
X-47613Y79051D02*
X-51250D01*
Y80008D01*
X-48379D01*
Y81730D01*
X-51250D01*
Y82496D01*
X-48379D01*
Y84219D01*
X-51250D01*
Y85176D01*
X-47613D01*
Y79051D01*
D02*
G37*
G36*
X38432Y-120691D02*
X38732Y-120746D01*
X38987Y-120835D01*
X39209Y-120924D01*
X39309Y-120980D01*
X39386Y-121024D01*
X39464Y-121068D01*
X39520Y-121113D01*
X39564Y-121146D01*
X39597Y-121168D01*
X39620Y-121179D01*
X39631Y-121191D01*
X39841Y-121401D01*
X40008Y-121635D01*
X40141Y-121879D01*
X40252Y-122123D01*
X40319Y-122334D01*
X40352Y-122423D01*
X40374Y-122500D01*
X40385Y-122567D01*
X40396Y-122611D01*
X40408Y-122645D01*
Y-122656D01*
X39464Y-122822D01*
X39420Y-122578D01*
X39353Y-122367D01*
X39275Y-122189D01*
X39198Y-122045D01*
X39120Y-121934D01*
X39053Y-121856D01*
X39009Y-121801D01*
X38998Y-121790D01*
X38854Y-121679D01*
X38698Y-121590D01*
X38554Y-121535D01*
X38410Y-121490D01*
X38276Y-121468D01*
X38177Y-121446D01*
X38088D01*
X37888Y-121457D01*
X37710Y-121501D01*
X37555Y-121557D01*
X37422Y-121612D01*
X37322Y-121679D01*
X37244Y-121734D01*
X37189Y-121779D01*
X37178Y-121790D01*
X37055Y-121923D01*
X36967Y-122067D01*
X36911Y-122212D01*
X36867Y-122345D01*
X36844Y-122467D01*
X36822Y-122556D01*
Y-122622D01*
Y-122633D01*
Y-122645D01*
Y-122767D01*
X36844Y-122878D01*
X36900Y-123066D01*
X36978Y-123233D01*
X37067Y-123377D01*
X37155Y-123477D01*
X37233Y-123555D01*
X37288Y-123599D01*
X37300Y-123610D01*
X37311D01*
X37499Y-123710D01*
X37677Y-123788D01*
X37866Y-123843D01*
X38032Y-123877D01*
X38177Y-123899D01*
X38299Y-123921D01*
X38443D01*
X38487Y-123910D01*
X38543D01*
X38654Y-124742D01*
X38510Y-124709D01*
X38376Y-124687D01*
X38265Y-124665D01*
X38165Y-124654D01*
X38088Y-124642D01*
X37988D01*
X37755Y-124665D01*
X37544Y-124709D01*
X37355Y-124776D01*
X37200Y-124853D01*
X37078Y-124931D01*
X36989Y-124998D01*
X36933Y-125042D01*
X36911Y-125064D01*
X36767Y-125231D01*
X36656Y-125408D01*
X36578Y-125586D01*
X36534Y-125764D01*
X36500Y-125908D01*
X36489Y-126030D01*
X36478Y-126074D01*
Y-126108D01*
Y-126130D01*
Y-126141D01*
X36500Y-126385D01*
X36556Y-126607D01*
X36623Y-126796D01*
X36711Y-126962D01*
X36800Y-127096D01*
X36867Y-127196D01*
X36922Y-127262D01*
X36944Y-127284D01*
X37122Y-127440D01*
X37311Y-127551D01*
X37499Y-127628D01*
X37677Y-127684D01*
X37832Y-127717D01*
X37954Y-127728D01*
X37999Y-127739D01*
X38066D01*
X38265Y-127728D01*
X38454Y-127684D01*
X38621Y-127628D01*
X38754Y-127562D01*
X38865Y-127506D01*
X38953Y-127451D01*
X38998Y-127406D01*
X39020Y-127395D01*
X39153Y-127240D01*
X39264Y-127062D01*
X39364Y-126874D01*
X39442Y-126674D01*
X39497Y-126507D01*
X39520Y-126430D01*
X39531Y-126363D01*
X39542Y-126307D01*
X39553Y-126263D01*
X39564Y-126241D01*
Y-126230D01*
X40507Y-126352D01*
X40485Y-126530D01*
X40452Y-126696D01*
X40352Y-127007D01*
X40230Y-127273D01*
X40163Y-127384D01*
X40097Y-127495D01*
X40030Y-127595D01*
X39964Y-127673D01*
X39908Y-127750D01*
X39852Y-127806D01*
X39819Y-127850D01*
X39786Y-127884D01*
X39764Y-127906D01*
X39753Y-127917D01*
X39620Y-128017D01*
X39486Y-128117D01*
X39353Y-128194D01*
X39209Y-128261D01*
X38931Y-128372D01*
X38665Y-128439D01*
X38543Y-128461D01*
X38432Y-128483D01*
X38332Y-128494D01*
X38243Y-128505D01*
X38177Y-128516D01*
X38077D01*
X37866Y-128505D01*
X37677Y-128483D01*
X37488Y-128450D01*
X37311Y-128405D01*
X37144Y-128350D01*
X37000Y-128294D01*
X36856Y-128228D01*
X36734Y-128161D01*
X36611Y-128106D01*
X36511Y-128039D01*
X36423Y-127984D01*
X36356Y-127928D01*
X36301Y-127884D01*
X36256Y-127850D01*
X36234Y-127828D01*
X36223Y-127817D01*
X36090Y-127684D01*
X35979Y-127540D01*
X35879Y-127395D01*
X35790Y-127251D01*
X35723Y-127118D01*
X35657Y-126973D01*
X35568Y-126707D01*
X35546Y-126585D01*
X35524Y-126474D01*
X35501Y-126374D01*
X35490Y-126285D01*
X35479Y-126219D01*
Y-126163D01*
Y-126130D01*
Y-126119D01*
X35490Y-125852D01*
X35535Y-125608D01*
X35601Y-125397D01*
X35668Y-125220D01*
X35735Y-125075D01*
X35801Y-124964D01*
X35845Y-124898D01*
X35857Y-124876D01*
X36012Y-124709D01*
X36179Y-124565D01*
X36356Y-124454D01*
X36534Y-124365D01*
X36689Y-124298D01*
X36811Y-124254D01*
X36856Y-124243D01*
X36889Y-124232D01*
X36911Y-124221D01*
X36922D01*
X36734Y-124121D01*
X36578Y-124021D01*
X36445Y-123910D01*
X36334Y-123810D01*
X36245Y-123721D01*
X36179Y-123644D01*
X36145Y-123599D01*
X36134Y-123577D01*
X36045Y-123421D01*
X35979Y-123266D01*
X35923Y-123111D01*
X35890Y-122966D01*
X35868Y-122844D01*
X35857Y-122755D01*
Y-122689D01*
Y-122667D01*
X35868Y-122478D01*
X35901Y-122289D01*
X35945Y-122123D01*
X36001Y-121979D01*
X36056Y-121856D01*
X36101Y-121757D01*
X36134Y-121701D01*
X36145Y-121679D01*
X36256Y-121512D01*
X36389Y-121368D01*
X36523Y-121246D01*
X36656Y-121135D01*
X36767Y-121057D01*
X36867Y-120991D01*
X36933Y-120957D01*
X36944Y-120946D01*
X36955D01*
X37155Y-120857D01*
X37355Y-120791D01*
X37555Y-120735D01*
X37733Y-120702D01*
X37877Y-120680D01*
X37999Y-120669D01*
X38276D01*
X38432Y-120691D01*
D02*
G37*
G36*
X65427Y-124754D02*
X64538Y-124876D01*
X64461Y-124754D01*
X64361Y-124654D01*
X64272Y-124554D01*
X64183Y-124476D01*
X64095Y-124420D01*
X64028Y-124365D01*
X63983Y-124343D01*
X63972Y-124332D01*
X63828Y-124265D01*
X63684Y-124210D01*
X63551Y-124176D01*
X63417Y-124143D01*
X63306Y-124132D01*
X63218Y-124121D01*
X63007D01*
X62874Y-124143D01*
X62640Y-124199D01*
X62441Y-124276D01*
X62263Y-124354D01*
X62130Y-124443D01*
X62030Y-124520D01*
X61975Y-124576D01*
X61952Y-124587D01*
Y-124598D01*
X61797Y-124787D01*
X61686Y-124987D01*
X61608Y-125197D01*
X61553Y-125408D01*
X61519Y-125586D01*
X61508Y-125664D01*
Y-125730D01*
X61497Y-125786D01*
Y-125830D01*
Y-125852D01*
Y-125864D01*
Y-126019D01*
X61519Y-126163D01*
X61575Y-126441D01*
X61653Y-126674D01*
X61730Y-126862D01*
X61819Y-127018D01*
X61897Y-127140D01*
X61930Y-127173D01*
X61952Y-127207D01*
X61963Y-127218D01*
X61975Y-127229D01*
X62063Y-127318D01*
X62152Y-127395D01*
X62352Y-127528D01*
X62540Y-127617D01*
X62729Y-127673D01*
X62885Y-127717D01*
X63018Y-127728D01*
X63062Y-127739D01*
X63129D01*
X63340Y-127728D01*
X63528Y-127684D01*
X63695Y-127628D01*
X63828Y-127562D01*
X63950Y-127495D01*
X64039Y-127440D01*
X64083Y-127395D01*
X64106Y-127384D01*
X64239Y-127229D01*
X64350Y-127062D01*
X64439Y-126874D01*
X64505Y-126707D01*
X64550Y-126541D01*
X64583Y-126419D01*
X64594Y-126363D01*
X64605Y-126330D01*
Y-126307D01*
Y-126296D01*
X65593Y-126374D01*
X65571Y-126552D01*
X65538Y-126718D01*
X65438Y-127029D01*
X65315Y-127295D01*
X65249Y-127417D01*
X65182Y-127517D01*
X65127Y-127617D01*
X65060Y-127706D01*
X65005Y-127773D01*
X64949Y-127828D01*
X64905Y-127872D01*
X64883Y-127917D01*
X64860Y-127928D01*
X64849Y-127939D01*
X64716Y-128039D01*
X64583Y-128128D01*
X64439Y-128205D01*
X64294Y-128272D01*
X64017Y-128372D01*
X63739Y-128439D01*
X63617Y-128472D01*
X63495Y-128483D01*
X63395Y-128494D01*
X63306Y-128505D01*
X63229Y-128516D01*
X63129D01*
X62896Y-128505D01*
X62674Y-128472D01*
X62463Y-128427D01*
X62274Y-128372D01*
X62097Y-128294D01*
X61930Y-128217D01*
X61775Y-128139D01*
X61642Y-128050D01*
X61519Y-127961D01*
X61408Y-127884D01*
X61320Y-127795D01*
X61242Y-127728D01*
X61186Y-127673D01*
X61142Y-127628D01*
X61120Y-127595D01*
X61109Y-127584D01*
X60998Y-127440D01*
X60909Y-127284D01*
X60820Y-127140D01*
X60753Y-126985D01*
X60642Y-126685D01*
X60576Y-126396D01*
X60554Y-126274D01*
X60532Y-126152D01*
X60520Y-126052D01*
X60509Y-125963D01*
X60498Y-125886D01*
Y-125830D01*
Y-125797D01*
Y-125786D01*
X60509Y-125586D01*
X60532Y-125397D01*
X60565Y-125209D01*
X60609Y-125042D01*
X60665Y-124887D01*
X60720Y-124731D01*
X60787Y-124598D01*
X60842Y-124476D01*
X60909Y-124365D01*
X60975Y-124265D01*
X61031Y-124187D01*
X61087Y-124110D01*
X61131Y-124054D01*
X61164Y-124021D01*
X61186Y-123999D01*
X61198Y-123988D01*
X61331Y-123865D01*
X61464Y-123755D01*
X61608Y-123666D01*
X61753Y-123588D01*
X61897Y-123510D01*
X62041Y-123455D01*
X62307Y-123377D01*
X62429Y-123344D01*
X62540Y-123322D01*
X62640Y-123310D01*
X62729Y-123299D01*
X62796Y-123288D01*
X63040D01*
X63173Y-123310D01*
X63440Y-123366D01*
X63684Y-123444D01*
X63906Y-123532D01*
X64083Y-123621D01*
X64161Y-123666D01*
X64228Y-123699D01*
X64283Y-123732D01*
X64317Y-123755D01*
X64339Y-123766D01*
X64350Y-123777D01*
X63939Y-121701D01*
X60865D01*
Y-120802D01*
X64683D01*
X65427Y-124754D01*
D02*
G37*
G36*
X11703D02*
X10816Y-124876D01*
X10738Y-124754D01*
X10638Y-124654D01*
X10549Y-124554D01*
X10460Y-124476D01*
X10372Y-124420D01*
X10305Y-124365D01*
X10260Y-124343D01*
X10249Y-124332D01*
X10105Y-124265D01*
X9961Y-124210D01*
X9828Y-124176D01*
X9694Y-124143D01*
X9583Y-124132D01*
X9495Y-124121D01*
X9284D01*
X9151Y-124143D01*
X8917Y-124199D01*
X8718Y-124276D01*
X8540Y-124354D01*
X8407Y-124443D01*
X8307Y-124520D01*
X8251Y-124576D01*
X8229Y-124587D01*
Y-124598D01*
X8074Y-124787D01*
X7963Y-124987D01*
X7885Y-125197D01*
X7830Y-125408D01*
X7796Y-125586D01*
X7785Y-125664D01*
Y-125730D01*
X7774Y-125786D01*
Y-125830D01*
Y-125852D01*
Y-125864D01*
Y-126019D01*
X7796Y-126163D01*
X7852Y-126441D01*
X7929Y-126674D01*
X8007Y-126862D01*
X8096Y-127018D01*
X8174Y-127140D01*
X8207Y-127173D01*
X8229Y-127207D01*
X8240Y-127218D01*
X8251Y-127229D01*
X8340Y-127318D01*
X8429Y-127395D01*
X8629Y-127528D01*
X8817Y-127617D01*
X9006Y-127673D01*
X9162Y-127717D01*
X9295Y-127728D01*
X9339Y-127739D01*
X9406D01*
X9617Y-127728D01*
X9805Y-127684D01*
X9972Y-127628D01*
X10105Y-127562D01*
X10227Y-127495D01*
X10316Y-127440D01*
X10360Y-127395D01*
X10383Y-127384D01*
X10516Y-127229D01*
X10627Y-127062D01*
X10716Y-126874D01*
X10782Y-126707D01*
X10827Y-126541D01*
X10860Y-126419D01*
X10871Y-126363D01*
X10882Y-126330D01*
Y-126307D01*
Y-126296D01*
X11870Y-126374D01*
X11848Y-126552D01*
X11815Y-126718D01*
X11715Y-127029D01*
X11593Y-127295D01*
X11526Y-127417D01*
X11459Y-127517D01*
X11404Y-127617D01*
X11337Y-127706D01*
X11282Y-127773D01*
X11226Y-127828D01*
X11182Y-127872D01*
X11160Y-127917D01*
X11137Y-127928D01*
X11126Y-127939D01*
X10993Y-128039D01*
X10860Y-128128D01*
X10716Y-128205D01*
X10571Y-128272D01*
X10294Y-128372D01*
X10016Y-128439D01*
X9894Y-128472D01*
X9772Y-128483D01*
X9672Y-128494D01*
X9583Y-128505D01*
X9506Y-128516D01*
X9406D01*
X9173Y-128505D01*
X8951Y-128472D01*
X8740Y-128427D01*
X8551Y-128372D01*
X8374Y-128294D01*
X8207Y-128217D01*
X8052Y-128139D01*
X7918Y-128050D01*
X7796Y-127961D01*
X7685Y-127884D01*
X7596Y-127795D01*
X7519Y-127728D01*
X7463Y-127673D01*
X7419Y-127628D01*
X7397Y-127595D01*
X7386Y-127584D01*
X7275Y-127440D01*
X7186Y-127284D01*
X7097Y-127140D01*
X7030Y-126985D01*
X6919Y-126685D01*
X6853Y-126396D01*
X6831Y-126274D01*
X6808Y-126152D01*
X6797Y-126052D01*
X6786Y-125963D01*
X6775Y-125886D01*
Y-125830D01*
Y-125797D01*
Y-125786D01*
X6786Y-125586D01*
X6808Y-125397D01*
X6842Y-125209D01*
X6886Y-125042D01*
X6942Y-124887D01*
X6997Y-124731D01*
X7064Y-124598D01*
X7119Y-124476D01*
X7186Y-124365D01*
X7252Y-124265D01*
X7308Y-124187D01*
X7363Y-124110D01*
X7408Y-124054D01*
X7441Y-124021D01*
X7463Y-123999D01*
X7474Y-123988D01*
X7608Y-123865D01*
X7741Y-123755D01*
X7885Y-123666D01*
X8029Y-123588D01*
X8174Y-123510D01*
X8318Y-123455D01*
X8584Y-123377D01*
X8706Y-123344D01*
X8817Y-123322D01*
X8917Y-123310D01*
X9006Y-123299D01*
X9073Y-123288D01*
X9317D01*
X9450Y-123310D01*
X9717Y-123366D01*
X9961Y-123444D01*
X10183Y-123532D01*
X10360Y-123621D01*
X10438Y-123666D01*
X10505Y-123699D01*
X10560Y-123732D01*
X10594Y-123755D01*
X10616Y-123766D01*
X10627Y-123777D01*
X10216Y-121701D01*
X7141D01*
Y-120802D01*
X10960D01*
X11703Y-124754D01*
D02*
G37*
G36*
X-45727Y-128383D02*
X-46748D01*
Y-125719D01*
X-48002Y-124509D01*
X-50733Y-128383D01*
X-52076D01*
X-48713Y-123821D01*
X-51932Y-120702D01*
X-50544D01*
X-46748Y-124520D01*
Y-120702D01*
X-45727D01*
Y-128383D01*
D02*
G37*
G36*
X18541Y-126074D02*
X15622D01*
Y-125131D01*
X18541D01*
Y-126074D01*
D02*
G37*
G36*
X26011Y-128383D02*
X24957D01*
X21949Y-120702D01*
X22981D01*
X25068Y-126285D01*
X25156Y-126518D01*
X25234Y-126740D01*
X25301Y-126951D01*
X25356Y-127140D01*
X25412Y-127306D01*
X25445Y-127429D01*
X25456Y-127473D01*
X25467Y-127506D01*
X25478Y-127528D01*
Y-127540D01*
X25612Y-127096D01*
X25678Y-126885D01*
X25745Y-126696D01*
X25800Y-126530D01*
X25822Y-126463D01*
X25833Y-126396D01*
X25856Y-126352D01*
X25867Y-126319D01*
X25878Y-126296D01*
Y-126285D01*
X27876Y-120702D01*
X28986D01*
X26011Y-128383D01*
D02*
G37*
G36*
X3334D02*
X2280D01*
X-728Y-120702D01*
X304D01*
X2391Y-126285D01*
X2480Y-126518D01*
X2557Y-126740D01*
X2624Y-126951D01*
X2679Y-127140D01*
X2735Y-127306D01*
X2768Y-127429D01*
X2779Y-127473D01*
X2790Y-127506D01*
X2801Y-127528D01*
Y-127540D01*
X2935Y-127096D01*
X3001Y-126885D01*
X3068Y-126696D01*
X3123Y-126530D01*
X3146Y-126463D01*
X3157Y-126396D01*
X3179Y-126352D01*
X3190Y-126319D01*
X3201Y-126296D01*
Y-126285D01*
X5199Y-120702D01*
X6309D01*
X3334Y-128383D01*
D02*
G37*
G36*
X-30287Y-125142D02*
Y-125364D01*
X-30298Y-125575D01*
X-30309Y-125775D01*
X-30331Y-125963D01*
X-30354Y-126130D01*
X-30376Y-126285D01*
X-30409Y-126430D01*
X-30431Y-126563D01*
X-30454Y-126685D01*
X-30487Y-126785D01*
X-30509Y-126874D01*
X-30531Y-126940D01*
X-30554Y-126996D01*
X-30565Y-127040D01*
X-30576Y-127062D01*
Y-127073D01*
X-30698Y-127318D01*
X-30853Y-127540D01*
X-31009Y-127717D01*
X-31175Y-127872D01*
X-31319Y-127995D01*
X-31442Y-128083D01*
X-31486Y-128106D01*
X-31519Y-128128D01*
X-31541Y-128150D01*
X-31553D01*
X-31830Y-128272D01*
X-32119Y-128361D01*
X-32418Y-128427D01*
X-32696Y-128472D01*
X-32818Y-128483D01*
X-32940Y-128494D01*
X-33051Y-128505D01*
X-33140D01*
X-33217Y-128516D01*
X-33317D01*
X-33717Y-128494D01*
X-33895Y-128472D01*
X-34061Y-128450D01*
X-34227Y-128416D01*
X-34372Y-128383D01*
X-34505Y-128350D01*
X-34627Y-128305D01*
X-34738Y-128261D01*
X-34827Y-128228D01*
X-34916Y-128194D01*
X-34982Y-128161D01*
X-35038Y-128128D01*
X-35071Y-128117D01*
X-35093Y-128095D01*
X-35104D01*
X-35349Y-127928D01*
X-35548Y-127739D01*
X-35704Y-127562D01*
X-35837Y-127384D01*
X-35937Y-127229D01*
X-36003Y-127107D01*
X-36026Y-127062D01*
X-36048Y-127029D01*
X-36059Y-127007D01*
Y-126996D01*
X-36103Y-126862D01*
X-36148Y-126718D01*
X-36214Y-126419D01*
X-36259Y-126108D01*
X-36292Y-125808D01*
X-36303Y-125675D01*
X-36314Y-125542D01*
Y-125431D01*
X-36325Y-125331D01*
Y-125253D01*
Y-125197D01*
Y-125153D01*
Y-125142D01*
Y-120702D01*
X-35304D01*
Y-125142D01*
Y-125397D01*
X-35282Y-125641D01*
X-35260Y-125852D01*
X-35227Y-126052D01*
X-35193Y-126230D01*
X-35149Y-126396D01*
X-35115Y-126541D01*
X-35071Y-126663D01*
X-35027Y-126763D01*
X-34982Y-126862D01*
X-34938Y-126929D01*
X-34905Y-126996D01*
X-34871Y-127040D01*
X-34849Y-127073D01*
X-34838Y-127085D01*
X-34827Y-127096D01*
X-34727Y-127184D01*
X-34616Y-127262D01*
X-34372Y-127384D01*
X-34116Y-127473D01*
X-33850Y-127528D01*
X-33606Y-127573D01*
X-33506Y-127584D01*
X-33406D01*
X-33340Y-127595D01*
X-33228D01*
X-32995Y-127584D01*
X-32785Y-127551D01*
X-32585Y-127517D01*
X-32429Y-127462D01*
X-32296Y-127417D01*
X-32196Y-127384D01*
X-32141Y-127351D01*
X-32119Y-127340D01*
X-31963Y-127240D01*
X-31830Y-127118D01*
X-31719Y-126996D01*
X-31641Y-126885D01*
X-31575Y-126774D01*
X-31519Y-126696D01*
X-31497Y-126641D01*
X-31486Y-126618D01*
X-31453Y-126518D01*
X-31430Y-126419D01*
X-31386Y-126185D01*
X-31353Y-125941D01*
X-31330Y-125697D01*
X-31319Y-125486D01*
Y-125386D01*
X-31308Y-125309D01*
Y-125242D01*
Y-125186D01*
Y-125153D01*
Y-125142D01*
Y-120702D01*
X-30287D01*
Y-125142D01*
D02*
G37*
G36*
X-15336Y-120591D02*
X-14980Y-120647D01*
X-14670Y-120713D01*
X-14525Y-120758D01*
X-14392Y-120802D01*
X-14270Y-120846D01*
X-14159Y-120891D01*
X-14070Y-120924D01*
X-13981Y-120957D01*
X-13926Y-120991D01*
X-13882Y-121013D01*
X-13848Y-121024D01*
X-13837Y-121035D01*
X-13537Y-121224D01*
X-13282Y-121446D01*
X-13060Y-121668D01*
X-12872Y-121890D01*
X-12727Y-122090D01*
X-12672Y-122178D01*
X-12627Y-122256D01*
X-12583Y-122311D01*
X-12561Y-122356D01*
X-12550Y-122389D01*
X-12538Y-122400D01*
X-12383Y-122744D01*
X-12272Y-123100D01*
X-12194Y-123455D01*
X-12139Y-123777D01*
X-12117Y-123921D01*
X-12106Y-124065D01*
X-12095Y-124176D01*
Y-124287D01*
X-12083Y-124365D01*
Y-124432D01*
Y-124476D01*
Y-124487D01*
X-12106Y-124887D01*
X-12150Y-125275D01*
X-12205Y-125619D01*
X-12250Y-125786D01*
X-12283Y-125930D01*
X-12316Y-126063D01*
X-12361Y-126185D01*
X-12394Y-126296D01*
X-12416Y-126385D01*
X-12450Y-126452D01*
X-12461Y-126507D01*
X-12483Y-126541D01*
Y-126552D01*
X-12650Y-126885D01*
X-12838Y-127184D01*
X-13038Y-127440D01*
X-13138Y-127540D01*
X-13227Y-127639D01*
X-13316Y-127728D01*
X-13404Y-127806D01*
X-13482Y-127872D01*
X-13549Y-127917D01*
X-13593Y-127961D01*
X-13637Y-127995D01*
X-13660Y-128006D01*
X-13671Y-128017D01*
X-13826Y-128106D01*
X-13981Y-128183D01*
X-14315Y-128305D01*
X-14648Y-128394D01*
X-14969Y-128450D01*
X-15125Y-128472D01*
X-15258Y-128494D01*
X-15380Y-128505D01*
X-15480D01*
X-15569Y-128516D01*
X-15691D01*
X-15913Y-128505D01*
X-16124Y-128483D01*
X-16323Y-128461D01*
X-16512Y-128416D01*
X-16690Y-128361D01*
X-16856Y-128305D01*
X-17012Y-128250D01*
X-17156Y-128183D01*
X-17278Y-128128D01*
X-17400Y-128072D01*
X-17489Y-128017D01*
X-17578Y-127961D01*
X-17633Y-127917D01*
X-17689Y-127895D01*
X-17711Y-127872D01*
X-17722Y-127861D01*
X-17878Y-127728D01*
X-18011Y-127595D01*
X-18133Y-127440D01*
X-18255Y-127284D01*
X-18455Y-126973D01*
X-18610Y-126663D01*
X-18677Y-126518D01*
X-18732Y-126385D01*
X-18777Y-126263D01*
X-18810Y-126163D01*
X-18843Y-126074D01*
X-18865Y-126008D01*
X-18877Y-125963D01*
Y-125952D01*
X-17855Y-125697D01*
X-17811Y-125875D01*
X-17755Y-126041D01*
X-17700Y-126196D01*
X-17644Y-126341D01*
X-17578Y-126474D01*
X-17511Y-126585D01*
X-17434Y-126696D01*
X-17367Y-126796D01*
X-17311Y-126885D01*
X-17245Y-126951D01*
X-17189Y-127018D01*
X-17145Y-127073D01*
X-17100Y-127107D01*
X-17067Y-127140D01*
X-17056Y-127151D01*
X-17045Y-127162D01*
X-16934Y-127251D01*
X-16812Y-127318D01*
X-16568Y-127440D01*
X-16335Y-127528D01*
X-16101Y-127584D01*
X-15902Y-127628D01*
X-15824Y-127639D01*
X-15746D01*
X-15680Y-127650D01*
X-15602D01*
X-15347Y-127639D01*
X-15103Y-127595D01*
X-14881Y-127540D01*
X-14681Y-127473D01*
X-14525Y-127406D01*
X-14459Y-127373D01*
X-14403Y-127351D01*
X-14359Y-127329D01*
X-14326Y-127306D01*
X-14303Y-127295D01*
X-14292D01*
X-14081Y-127140D01*
X-13904Y-126973D01*
X-13748Y-126785D01*
X-13626Y-126607D01*
X-13526Y-126452D01*
X-13460Y-126319D01*
X-13438Y-126263D01*
X-13415Y-126230D01*
X-13404Y-126208D01*
Y-126196D01*
X-13316Y-125908D01*
X-13249Y-125619D01*
X-13193Y-125331D01*
X-13160Y-125064D01*
X-13149Y-124942D01*
X-13138Y-124831D01*
Y-124731D01*
X-13127Y-124654D01*
Y-124587D01*
Y-124531D01*
Y-124498D01*
Y-124487D01*
X-13138Y-124199D01*
X-13160Y-123932D01*
X-13204Y-123688D01*
X-13249Y-123466D01*
X-13282Y-123277D01*
X-13304Y-123200D01*
X-13327Y-123133D01*
X-13338Y-123077D01*
X-13349Y-123044D01*
X-13360Y-123022D01*
Y-123011D01*
X-13471Y-122755D01*
X-13593Y-122522D01*
X-13726Y-122334D01*
X-13871Y-122167D01*
X-13993Y-122034D01*
X-14093Y-121945D01*
X-14170Y-121890D01*
X-14181Y-121868D01*
X-14192D01*
X-14425Y-121723D01*
X-14681Y-121612D01*
X-14925Y-121535D01*
X-15158Y-121490D01*
X-15369Y-121457D01*
X-15458Y-121446D01*
X-15536D01*
X-15591Y-121435D01*
X-15680D01*
X-15957Y-121446D01*
X-16213Y-121490D01*
X-16423Y-121557D01*
X-16612Y-121623D01*
X-16756Y-121701D01*
X-16867Y-121757D01*
X-16934Y-121801D01*
X-16956Y-121823D01*
X-17134Y-121990D01*
X-17300Y-122178D01*
X-17434Y-122378D01*
X-17544Y-122578D01*
X-17633Y-122755D01*
X-17667Y-122844D01*
X-17689Y-122911D01*
X-17711Y-122966D01*
X-17733Y-123011D01*
X-17744Y-123033D01*
Y-123044D01*
X-18743Y-122811D01*
X-18677Y-122611D01*
X-18610Y-122434D01*
X-18521Y-122267D01*
X-18444Y-122101D01*
X-18355Y-121956D01*
X-18255Y-121823D01*
X-18166Y-121690D01*
X-18077Y-121579D01*
X-17989Y-121490D01*
X-17911Y-121401D01*
X-17833Y-121324D01*
X-17778Y-121268D01*
X-17722Y-121213D01*
X-17678Y-121179D01*
X-17656Y-121168D01*
X-17644Y-121157D01*
X-17489Y-121057D01*
X-17334Y-120957D01*
X-17178Y-120880D01*
X-17012Y-120813D01*
X-16679Y-120713D01*
X-16379Y-120647D01*
X-16235Y-120613D01*
X-16113Y-120602D01*
X-15991Y-120591D01*
X-15891Y-120580D01*
X-15813Y-120569D01*
X-15702D01*
X-15336Y-120591D01*
D02*
G37*
G36*
X-40976D02*
X-40621Y-120647D01*
X-40310Y-120713D01*
X-40166Y-120758D01*
X-40033Y-120802D01*
X-39911Y-120846D01*
X-39800Y-120891D01*
X-39711Y-120924D01*
X-39622Y-120957D01*
X-39567Y-120991D01*
X-39522Y-121013D01*
X-39489Y-121024D01*
X-39478Y-121035D01*
X-39178Y-121224D01*
X-38923Y-121446D01*
X-38701Y-121668D01*
X-38512Y-121890D01*
X-38368Y-122090D01*
X-38312Y-122178D01*
X-38268Y-122256D01*
X-38223Y-122311D01*
X-38201Y-122356D01*
X-38190Y-122389D01*
X-38179Y-122400D01*
X-38024Y-122744D01*
X-37913Y-123100D01*
X-37835Y-123455D01*
X-37780Y-123777D01*
X-37757Y-123921D01*
X-37746Y-124065D01*
X-37735Y-124176D01*
Y-124287D01*
X-37724Y-124365D01*
Y-124432D01*
Y-124476D01*
Y-124487D01*
X-37746Y-124887D01*
X-37791Y-125275D01*
X-37846Y-125619D01*
X-37890Y-125786D01*
X-37924Y-125930D01*
X-37957Y-126063D01*
X-38001Y-126185D01*
X-38035Y-126296D01*
X-38057Y-126385D01*
X-38090Y-126452D01*
X-38101Y-126507D01*
X-38124Y-126541D01*
Y-126552D01*
X-38290Y-126885D01*
X-38479Y-127184D01*
X-38679Y-127440D01*
X-38778Y-127540D01*
X-38867Y-127639D01*
X-38956Y-127728D01*
X-39045Y-127806D01*
X-39123Y-127872D01*
X-39189Y-127917D01*
X-39234Y-127961D01*
X-39278Y-127995D01*
X-39300Y-128006D01*
X-39311Y-128017D01*
X-39467Y-128106D01*
X-39622Y-128183D01*
X-39955Y-128305D01*
X-40288Y-128394D01*
X-40610Y-128450D01*
X-40765Y-128472D01*
X-40898Y-128494D01*
X-41021Y-128505D01*
X-41121D01*
X-41209Y-128516D01*
X-41331D01*
X-41553Y-128505D01*
X-41764Y-128483D01*
X-41964Y-128461D01*
X-42153Y-128416D01*
X-42330Y-128361D01*
X-42497Y-128305D01*
X-42652Y-128250D01*
X-42797Y-128183D01*
X-42919Y-128128D01*
X-43041Y-128072D01*
X-43130Y-128017D01*
X-43218Y-127961D01*
X-43274Y-127917D01*
X-43329Y-127895D01*
X-43352Y-127872D01*
X-43363Y-127861D01*
X-43518Y-127728D01*
X-43651Y-127595D01*
X-43773Y-127440D01*
X-43895Y-127284D01*
X-44095Y-126973D01*
X-44251Y-126663D01*
X-44317Y-126518D01*
X-44373Y-126385D01*
X-44417Y-126263D01*
X-44450Y-126163D01*
X-44484Y-126074D01*
X-44506Y-126008D01*
X-44517Y-125963D01*
Y-125952D01*
X-43496Y-125697D01*
X-43451Y-125875D01*
X-43396Y-126041D01*
X-43341Y-126196D01*
X-43285Y-126341D01*
X-43218Y-126474D01*
X-43152Y-126585D01*
X-43074Y-126696D01*
X-43007Y-126796D01*
X-42952Y-126885D01*
X-42885Y-126951D01*
X-42830Y-127018D01*
X-42786Y-127073D01*
X-42741Y-127107D01*
X-42708Y-127140D01*
X-42697Y-127151D01*
X-42686Y-127162D01*
X-42575Y-127251D01*
X-42453Y-127318D01*
X-42208Y-127440D01*
X-41975Y-127528D01*
X-41742Y-127584D01*
X-41542Y-127628D01*
X-41465Y-127639D01*
X-41387D01*
X-41320Y-127650D01*
X-41243D01*
X-40987Y-127639D01*
X-40743Y-127595D01*
X-40521Y-127540D01*
X-40321Y-127473D01*
X-40166Y-127406D01*
X-40099Y-127373D01*
X-40044Y-127351D01*
X-39999Y-127329D01*
X-39966Y-127306D01*
X-39944Y-127295D01*
X-39933D01*
X-39722Y-127140D01*
X-39544Y-126973D01*
X-39389Y-126785D01*
X-39267Y-126607D01*
X-39167Y-126452D01*
X-39100Y-126319D01*
X-39078Y-126263D01*
X-39056Y-126230D01*
X-39045Y-126208D01*
Y-126196D01*
X-38956Y-125908D01*
X-38889Y-125619D01*
X-38834Y-125331D01*
X-38801Y-125064D01*
X-38790Y-124942D01*
X-38778Y-124831D01*
Y-124731D01*
X-38767Y-124654D01*
Y-124587D01*
Y-124531D01*
Y-124498D01*
Y-124487D01*
X-38778Y-124199D01*
X-38801Y-123932D01*
X-38845Y-123688D01*
X-38889Y-123466D01*
X-38923Y-123277D01*
X-38945Y-123200D01*
X-38967Y-123133D01*
X-38978Y-123077D01*
X-38989Y-123044D01*
X-39000Y-123022D01*
Y-123011D01*
X-39111Y-122755D01*
X-39234Y-122522D01*
X-39367Y-122334D01*
X-39511Y-122167D01*
X-39633Y-122034D01*
X-39733Y-121945D01*
X-39811Y-121890D01*
X-39822Y-121868D01*
X-39833D01*
X-40066Y-121723D01*
X-40321Y-121612D01*
X-40566Y-121535D01*
X-40799Y-121490D01*
X-41009Y-121457D01*
X-41098Y-121446D01*
X-41176D01*
X-41231Y-121435D01*
X-41320D01*
X-41598Y-121446D01*
X-41853Y-121490D01*
X-42064Y-121557D01*
X-42253Y-121623D01*
X-42397Y-121701D01*
X-42508Y-121757D01*
X-42575Y-121801D01*
X-42597Y-121823D01*
X-42774Y-121990D01*
X-42941Y-122178D01*
X-43074Y-122378D01*
X-43185Y-122578D01*
X-43274Y-122755D01*
X-43307Y-122844D01*
X-43329Y-122911D01*
X-43352Y-122966D01*
X-43374Y-123011D01*
X-43385Y-123033D01*
Y-123044D01*
X-44384Y-122811D01*
X-44317Y-122611D01*
X-44251Y-122434D01*
X-44162Y-122267D01*
X-44084Y-122101D01*
X-43995Y-121956D01*
X-43895Y-121823D01*
X-43807Y-121690D01*
X-43718Y-121579D01*
X-43629Y-121490D01*
X-43551Y-121401D01*
X-43474Y-121324D01*
X-43418Y-121268D01*
X-43363Y-121213D01*
X-43318Y-121179D01*
X-43296Y-121168D01*
X-43285Y-121157D01*
X-43130Y-121057D01*
X-42974Y-120957D01*
X-42819Y-120880D01*
X-42652Y-120813D01*
X-42319Y-120713D01*
X-42020Y-120647D01*
X-41875Y-120613D01*
X-41753Y-120602D01*
X-41631Y-120591D01*
X-41531Y-120580D01*
X-41453Y-120569D01*
X-41343D01*
X-40976Y-120591D01*
D02*
G37*
G36*
X60076Y-128383D02*
X59000D01*
X58167Y-126052D01*
X54948D01*
X54049Y-128383D01*
X52895D01*
X56036Y-120702D01*
X57146D01*
X60076Y-128383D01*
D02*
G37*
G36*
X49409Y-121712D02*
X45647D01*
X45913Y-122034D01*
X46168Y-122378D01*
X46390Y-122711D01*
X46601Y-123033D01*
X46690Y-123177D01*
X46768Y-123310D01*
X46845Y-123433D01*
X46901Y-123532D01*
X46945Y-123621D01*
X46979Y-123677D01*
X47001Y-123721D01*
X47012Y-123732D01*
X47234Y-124176D01*
X47434Y-124620D01*
X47600Y-125042D01*
X47667Y-125231D01*
X47733Y-125420D01*
X47800Y-125586D01*
X47844Y-125741D01*
X47889Y-125875D01*
X47922Y-125986D01*
X47955Y-126086D01*
X47978Y-126152D01*
X47989Y-126196D01*
Y-126208D01*
X48100Y-126663D01*
X48144Y-126885D01*
X48177Y-127085D01*
X48211Y-127273D01*
X48244Y-127462D01*
X48266Y-127617D01*
X48288Y-127773D01*
X48299Y-127906D01*
X48311Y-128028D01*
X48322Y-128139D01*
Y-128228D01*
X48333Y-128294D01*
Y-128339D01*
Y-128372D01*
Y-128383D01*
X47367D01*
X47334Y-127961D01*
X47278Y-127573D01*
X47223Y-127218D01*
X47189Y-127051D01*
X47156Y-126896D01*
X47134Y-126763D01*
X47101Y-126641D01*
X47078Y-126530D01*
X47056Y-126441D01*
X47034Y-126374D01*
X47023Y-126319D01*
X47012Y-126285D01*
Y-126274D01*
X46845Y-125764D01*
X46668Y-125286D01*
X46579Y-125053D01*
X46490Y-124831D01*
X46390Y-124631D01*
X46301Y-124432D01*
X46224Y-124254D01*
X46146Y-124099D01*
X46080Y-123965D01*
X46024Y-123843D01*
X45968Y-123743D01*
X45935Y-123677D01*
X45913Y-123632D01*
X45902Y-123621D01*
X45769Y-123388D01*
X45635Y-123155D01*
X45502Y-122944D01*
X45369Y-122744D01*
X45247Y-122567D01*
X45125Y-122389D01*
X45003Y-122234D01*
X44903Y-122101D01*
X44803Y-121967D01*
X44714Y-121856D01*
X44626Y-121768D01*
X44559Y-121690D01*
X44514Y-121623D01*
X44470Y-121579D01*
X44448Y-121557D01*
X44437Y-121546D01*
Y-120802D01*
X49409D01*
Y-121712D01*
D02*
G37*
G36*
X-4635Y-128383D02*
X-7399D01*
X-7655Y-128372D01*
X-7888Y-128361D01*
X-8099Y-128339D01*
X-8276Y-128316D01*
X-8432Y-128294D01*
X-8543Y-128283D01*
X-8576Y-128272D01*
X-8609Y-128261D01*
X-8631D01*
X-8831Y-128205D01*
X-9009Y-128139D01*
X-9164Y-128083D01*
X-9297Y-128017D01*
X-9408Y-127961D01*
X-9486Y-127917D01*
X-9531Y-127884D01*
X-9553Y-127872D01*
X-9697Y-127773D01*
X-9819Y-127650D01*
X-9941Y-127540D01*
X-10041Y-127429D01*
X-10130Y-127329D01*
X-10196Y-127251D01*
X-10241Y-127196D01*
X-10252Y-127173D01*
X-10363Y-126996D01*
X-10474Y-126807D01*
X-10563Y-126629D01*
X-10629Y-126452D01*
X-10696Y-126296D01*
X-10740Y-126174D01*
X-10751Y-126130D01*
X-10762Y-126097D01*
X-10774Y-126074D01*
Y-126063D01*
X-10840Y-125797D01*
X-10896Y-125531D01*
X-10929Y-125275D01*
X-10962Y-125031D01*
X-10973Y-124820D01*
Y-124731D01*
X-10984Y-124654D01*
Y-124598D01*
Y-124543D01*
Y-124520D01*
Y-124509D01*
X-10973Y-124132D01*
X-10940Y-123788D01*
X-10885Y-123477D01*
X-10862Y-123333D01*
X-10829Y-123211D01*
X-10796Y-123089D01*
X-10774Y-122989D01*
X-10751Y-122900D01*
X-10718Y-122822D01*
X-10707Y-122755D01*
X-10685Y-122711D01*
X-10674Y-122689D01*
Y-122678D01*
X-10552Y-122389D01*
X-10407Y-122134D01*
X-10252Y-121912D01*
X-10108Y-121723D01*
X-9974Y-121568D01*
X-9863Y-121457D01*
X-9819Y-121424D01*
X-9786Y-121390D01*
X-9775Y-121379D01*
X-9764Y-121368D01*
X-9586Y-121224D01*
X-9397Y-121113D01*
X-9209Y-121013D01*
X-9031Y-120935D01*
X-8876Y-120880D01*
X-8753Y-120846D01*
X-8709Y-120824D01*
X-8676D01*
X-8654Y-120813D01*
X-8643D01*
X-8454Y-120780D01*
X-8232Y-120746D01*
X-8010Y-120724D01*
X-7788Y-120713D01*
X-7588Y-120702D01*
X-4635D01*
Y-128383D01*
D02*
G37*
G36*
X-23072D02*
X-26003D01*
X-26269Y-128372D01*
X-26502Y-128361D01*
X-26713Y-128339D01*
X-26890Y-128316D01*
X-27035Y-128294D01*
X-27146Y-128283D01*
X-27212Y-128261D01*
X-27235D01*
X-27423Y-128205D01*
X-27579Y-128150D01*
X-27723Y-128083D01*
X-27845Y-128017D01*
X-27945Y-127972D01*
X-28023Y-127928D01*
X-28067Y-127895D01*
X-28078Y-127884D01*
X-28200Y-127784D01*
X-28311Y-127662D01*
X-28400Y-127540D01*
X-28489Y-127429D01*
X-28556Y-127318D01*
X-28600Y-127240D01*
X-28633Y-127184D01*
X-28644Y-127162D01*
X-28722Y-126985D01*
X-28777Y-126807D01*
X-28822Y-126641D01*
X-28844Y-126485D01*
X-28866Y-126352D01*
X-28877Y-126241D01*
Y-126174D01*
Y-126163D01*
Y-126152D01*
X-28866Y-125908D01*
X-28822Y-125686D01*
X-28755Y-125497D01*
X-28689Y-125320D01*
X-28622Y-125186D01*
X-28556Y-125086D01*
X-28511Y-125020D01*
X-28500Y-124998D01*
X-28345Y-124820D01*
X-28178Y-124676D01*
X-27989Y-124554D01*
X-27823Y-124454D01*
X-27668Y-124376D01*
X-27534Y-124332D01*
X-27490Y-124310D01*
X-27457Y-124298D01*
X-27434Y-124287D01*
X-27423D01*
X-27612Y-124176D01*
X-27778Y-124065D01*
X-27912Y-123943D01*
X-28023Y-123832D01*
X-28112Y-123743D01*
X-28178Y-123655D01*
X-28211Y-123610D01*
X-28222Y-123588D01*
X-28311Y-123421D01*
X-28378Y-123266D01*
X-28433Y-123111D01*
X-28467Y-122966D01*
X-28489Y-122844D01*
X-28500Y-122744D01*
Y-122689D01*
Y-122667D01*
X-28489Y-122478D01*
X-28456Y-122289D01*
X-28400Y-122123D01*
X-28345Y-121967D01*
X-28289Y-121834D01*
X-28234Y-121746D01*
X-28200Y-121679D01*
X-28189Y-121657D01*
X-28067Y-121490D01*
X-27934Y-121335D01*
X-27790Y-121213D01*
X-27656Y-121113D01*
X-27545Y-121035D01*
X-27445Y-120980D01*
X-27379Y-120946D01*
X-27368Y-120935D01*
X-27357D01*
X-27146Y-120857D01*
X-26913Y-120802D01*
X-26680Y-120758D01*
X-26458Y-120735D01*
X-26258Y-120713D01*
X-26169D01*
X-26091Y-120702D01*
X-23072D01*
Y-128383D01*
D02*
G37*
G36*
X43948Y-128516D02*
X43194D01*
X40963Y-120569D01*
X41717D01*
X43948Y-128516D01*
D02*
G37*
G36*
X32338Y-120691D02*
X32615Y-120735D01*
X32849Y-120813D01*
X33048Y-120891D01*
X33215Y-120980D01*
X33282Y-121013D01*
X33337Y-121057D01*
X33381Y-121080D01*
X33415Y-121102D01*
X33426Y-121124D01*
X33437D01*
X33637Y-121301D01*
X33803Y-121512D01*
X33948Y-121723D01*
X34058Y-121923D01*
X34147Y-122112D01*
X34192Y-122189D01*
X34214Y-122267D01*
X34236Y-122323D01*
X34258Y-122367D01*
X34269Y-122389D01*
Y-122400D01*
X34314Y-122567D01*
X34358Y-122733D01*
X34425Y-123100D01*
X34480Y-123466D01*
X34513Y-123810D01*
X34525Y-123976D01*
X34536Y-124121D01*
Y-124254D01*
X34547Y-124376D01*
Y-124465D01*
Y-124543D01*
Y-124587D01*
Y-124598D01*
X34536Y-124987D01*
X34513Y-125353D01*
X34480Y-125686D01*
X34425Y-125997D01*
X34369Y-126285D01*
X34303Y-126541D01*
X34236Y-126774D01*
X34169Y-126973D01*
X34103Y-127151D01*
X34025Y-127306D01*
X33970Y-127440D01*
X33914Y-127540D01*
X33859Y-127628D01*
X33825Y-127684D01*
X33803Y-127717D01*
X33792Y-127728D01*
X33670Y-127861D01*
X33537Y-127984D01*
X33393Y-128095D01*
X33248Y-128183D01*
X33104Y-128261D01*
X32960Y-128328D01*
X32815Y-128372D01*
X32682Y-128416D01*
X32549Y-128450D01*
X32427Y-128472D01*
X32316Y-128494D01*
X32227Y-128505D01*
X32149Y-128516D01*
X32038D01*
X31739Y-128494D01*
X31461Y-128450D01*
X31228Y-128372D01*
X31028Y-128294D01*
X30862Y-128217D01*
X30806Y-128172D01*
X30751Y-128139D01*
X30706Y-128117D01*
X30673Y-128095D01*
X30662Y-128072D01*
X30651D01*
X30451Y-127884D01*
X30285Y-127684D01*
X30140Y-127462D01*
X30029Y-127262D01*
X29940Y-127073D01*
X29896Y-126996D01*
X29874Y-126918D01*
X29852Y-126862D01*
X29829Y-126818D01*
X29818Y-126796D01*
Y-126785D01*
X29763Y-126618D01*
X29718Y-126452D01*
X29652Y-126097D01*
X29596Y-125730D01*
X29563Y-125375D01*
X29552Y-125220D01*
X29541Y-125075D01*
Y-124942D01*
X29530Y-124820D01*
Y-124731D01*
Y-124654D01*
Y-124609D01*
Y-124598D01*
Y-124387D01*
X29541Y-124187D01*
Y-124010D01*
X29552Y-123832D01*
X29574Y-123677D01*
X29585Y-123521D01*
X29596Y-123388D01*
X29618Y-123266D01*
X29630Y-123155D01*
X29652Y-123055D01*
X29663Y-122978D01*
X29674Y-122911D01*
X29685Y-122855D01*
X29696Y-122822D01*
X29707Y-122800D01*
Y-122789D01*
X29774Y-122545D01*
X29852Y-122323D01*
X29940Y-122134D01*
X30007Y-121967D01*
X30085Y-121823D01*
X30129Y-121723D01*
X30173Y-121668D01*
X30185Y-121646D01*
X30307Y-121479D01*
X30429Y-121335D01*
X30562Y-121213D01*
X30684Y-121102D01*
X30795Y-121024D01*
X30884Y-120969D01*
X30939Y-120935D01*
X30951Y-120924D01*
X30962D01*
X31139Y-120835D01*
X31328Y-120780D01*
X31505Y-120735D01*
X31672Y-120702D01*
X31816Y-120680D01*
X31938Y-120669D01*
X32038D01*
X32338Y-120691D01*
D02*
G37*
G36*
X49210Y-137867D02*
X48233D01*
Y-131840D01*
X44215Y-137867D01*
X43160D01*
Y-130186D01*
X44137D01*
Y-136224D01*
X48166Y-130186D01*
X49210D01*
Y-137867D01*
D02*
G37*
G36*
X39275D02*
X38221D01*
X35213Y-130186D01*
X36245D01*
X38332Y-135769D01*
X38421Y-136002D01*
X38498Y-136224D01*
X38565Y-136435D01*
X38621Y-136624D01*
X38676Y-136790D01*
X38709Y-136912D01*
X38720Y-136957D01*
X38732Y-136990D01*
X38743Y-137012D01*
Y-137023D01*
X38876Y-136579D01*
X38942Y-136368D01*
X39009Y-136180D01*
X39065Y-136013D01*
X39087Y-135947D01*
X39098Y-135880D01*
X39120Y-135836D01*
X39131Y-135802D01*
X39142Y-135780D01*
Y-135769D01*
X41140Y-130186D01*
X42250D01*
X39275Y-137867D01*
D02*
G37*
G36*
X62341Y-130075D02*
X62696Y-130130D01*
X63007Y-130197D01*
X63151Y-130241D01*
X63284Y-130286D01*
X63406Y-130330D01*
X63517Y-130374D01*
X63606Y-130408D01*
X63695Y-130441D01*
X63750Y-130474D01*
X63795Y-130497D01*
X63828Y-130508D01*
X63839Y-130519D01*
X64139Y-130707D01*
X64394Y-130929D01*
X64616Y-131151D01*
X64805Y-131373D01*
X64949Y-131573D01*
X65005Y-131662D01*
X65049Y-131740D01*
X65093Y-131795D01*
X65116Y-131840D01*
X65127Y-131873D01*
X65138Y-131884D01*
X65293Y-132228D01*
X65404Y-132583D01*
X65482Y-132938D01*
X65538Y-133260D01*
X65560Y-133405D01*
X65571Y-133549D01*
X65582Y-133660D01*
Y-133771D01*
X65593Y-133849D01*
Y-133915D01*
Y-133960D01*
Y-133971D01*
X65571Y-134370D01*
X65526Y-134759D01*
X65471Y-135103D01*
X65427Y-135269D01*
X65393Y-135414D01*
X65360Y-135547D01*
X65315Y-135669D01*
X65282Y-135780D01*
X65260Y-135869D01*
X65227Y-135935D01*
X65216Y-135991D01*
X65193Y-136024D01*
Y-136035D01*
X65027Y-136368D01*
X64838Y-136668D01*
X64638Y-136923D01*
X64538Y-137023D01*
X64450Y-137123D01*
X64361Y-137212D01*
X64272Y-137290D01*
X64194Y-137356D01*
X64128Y-137401D01*
X64083Y-137445D01*
X64039Y-137478D01*
X64017Y-137489D01*
X64006Y-137500D01*
X63850Y-137589D01*
X63695Y-137667D01*
X63362Y-137789D01*
X63029Y-137878D01*
X62707Y-137933D01*
X62552Y-137956D01*
X62418Y-137978D01*
X62296Y-137989D01*
X62196D01*
X62108Y-138000D01*
X61986D01*
X61764Y-137989D01*
X61553Y-137967D01*
X61353Y-137944D01*
X61164Y-137900D01*
X60987Y-137845D01*
X60820Y-137789D01*
X60665Y-137734D01*
X60520Y-137667D01*
X60398Y-137612D01*
X60276Y-137556D01*
X60187Y-137500D01*
X60099Y-137445D01*
X60043Y-137401D01*
X59988Y-137378D01*
X59965Y-137356D01*
X59954Y-137345D01*
X59799Y-137212D01*
X59666Y-137079D01*
X59544Y-136923D01*
X59422Y-136768D01*
X59222Y-136457D01*
X59066Y-136146D01*
X59000Y-136002D01*
X58944Y-135869D01*
X58900Y-135747D01*
X58867Y-135647D01*
X58833Y-135558D01*
X58811Y-135491D01*
X58800Y-135447D01*
Y-135436D01*
X59821Y-135181D01*
X59865Y-135358D01*
X59921Y-135525D01*
X59977Y-135680D01*
X60032Y-135824D01*
X60099Y-135958D01*
X60165Y-136069D01*
X60243Y-136180D01*
X60310Y-136279D01*
X60365Y-136368D01*
X60432Y-136435D01*
X60487Y-136502D01*
X60532Y-136557D01*
X60576Y-136590D01*
X60609Y-136624D01*
X60620Y-136635D01*
X60631Y-136646D01*
X60742Y-136735D01*
X60865Y-136801D01*
X61109Y-136923D01*
X61342Y-137012D01*
X61575Y-137068D01*
X61775Y-137112D01*
X61852Y-137123D01*
X61930D01*
X61997Y-137134D01*
X62074D01*
X62330Y-137123D01*
X62574Y-137079D01*
X62796Y-137023D01*
X62996Y-136957D01*
X63151Y-136890D01*
X63218Y-136857D01*
X63273Y-136834D01*
X63317Y-136812D01*
X63351Y-136790D01*
X63373Y-136779D01*
X63384D01*
X63595Y-136624D01*
X63773Y-136457D01*
X63928Y-136268D01*
X64050Y-136091D01*
X64150Y-135935D01*
X64217Y-135802D01*
X64239Y-135747D01*
X64261Y-135713D01*
X64272Y-135691D01*
Y-135680D01*
X64361Y-135392D01*
X64427Y-135103D01*
X64483Y-134814D01*
X64516Y-134548D01*
X64527Y-134426D01*
X64538Y-134315D01*
Y-134215D01*
X64550Y-134137D01*
Y-134071D01*
Y-134015D01*
Y-133982D01*
Y-133971D01*
X64538Y-133682D01*
X64516Y-133416D01*
X64472Y-133172D01*
X64427Y-132950D01*
X64394Y-132761D01*
X64372Y-132683D01*
X64350Y-132617D01*
X64339Y-132561D01*
X64328Y-132528D01*
X64317Y-132506D01*
Y-132494D01*
X64205Y-132239D01*
X64083Y-132006D01*
X63950Y-131817D01*
X63806Y-131651D01*
X63684Y-131518D01*
X63584Y-131429D01*
X63506Y-131373D01*
X63495Y-131351D01*
X63484D01*
X63251Y-131207D01*
X62996Y-131096D01*
X62751Y-131018D01*
X62518Y-130974D01*
X62307Y-130941D01*
X62219Y-130929D01*
X62141D01*
X62085Y-130918D01*
X61997D01*
X61719Y-130929D01*
X61464Y-130974D01*
X61253Y-131040D01*
X61064Y-131107D01*
X60920Y-131185D01*
X60809Y-131240D01*
X60742Y-131285D01*
X60720Y-131307D01*
X60543Y-131473D01*
X60376Y-131662D01*
X60243Y-131862D01*
X60132Y-132062D01*
X60043Y-132239D01*
X60010Y-132328D01*
X59988Y-132395D01*
X59965Y-132450D01*
X59943Y-132494D01*
X59932Y-132517D01*
Y-132528D01*
X58933Y-132295D01*
X59000Y-132095D01*
X59066Y-131917D01*
X59155Y-131751D01*
X59233Y-131584D01*
X59322Y-131440D01*
X59422Y-131307D01*
X59510Y-131174D01*
X59599Y-131063D01*
X59688Y-130974D01*
X59766Y-130885D01*
X59843Y-130807D01*
X59899Y-130752D01*
X59954Y-130696D01*
X59999Y-130663D01*
X60021Y-130652D01*
X60032Y-130641D01*
X60187Y-130541D01*
X60343Y-130441D01*
X60498Y-130363D01*
X60665Y-130297D01*
X60998Y-130197D01*
X61297Y-130130D01*
X61442Y-130097D01*
X61564Y-130086D01*
X61686Y-130075D01*
X61786Y-130064D01*
X61863Y-130052D01*
X61975D01*
X62341Y-130075D01*
D02*
G37*
G36*
X34280Y-137867D02*
X28542D01*
Y-136957D01*
X33259D01*
Y-134348D01*
X29008D01*
Y-133438D01*
X33259D01*
Y-131096D01*
X28719D01*
Y-130186D01*
X34280D01*
Y-137867D01*
D02*
G37*
G36*
X27121D02*
X26100D01*
Y-134459D01*
X24790D01*
X24668Y-134470D01*
X24579D01*
X24502Y-134481D01*
X24446Y-134493D01*
X24402D01*
X24379Y-134504D01*
X24368D01*
X24191Y-134559D01*
X24113Y-134592D01*
X24046Y-134626D01*
X23980Y-134659D01*
X23935Y-134681D01*
X23913Y-134692D01*
X23902Y-134703D01*
X23813Y-134770D01*
X23725Y-134848D01*
X23558Y-135014D01*
X23480Y-135092D01*
X23425Y-135159D01*
X23391Y-135203D01*
X23380Y-135214D01*
X23269Y-135369D01*
X23147Y-135536D01*
X23025Y-135713D01*
X22903Y-135880D01*
X22803Y-136035D01*
X22726Y-136157D01*
X22692Y-136202D01*
X22670Y-136235D01*
X22648Y-136257D01*
Y-136268D01*
X21638Y-137867D01*
X20372D01*
X21693Y-135780D01*
X21849Y-135558D01*
X21993Y-135358D01*
X22137Y-135192D01*
X22259Y-135036D01*
X22370Y-134925D01*
X22459Y-134837D01*
X22515Y-134781D01*
X22537Y-134759D01*
X22626Y-134692D01*
X22726Y-134615D01*
X22925Y-134493D01*
X23014Y-134448D01*
X23081Y-134404D01*
X23125Y-134382D01*
X23147Y-134370D01*
X22948Y-134337D01*
X22759Y-134304D01*
X22592Y-134248D01*
X22426Y-134204D01*
X22282Y-134148D01*
X22148Y-134082D01*
X22026Y-134026D01*
X21915Y-133971D01*
X21827Y-133904D01*
X21738Y-133849D01*
X21671Y-133804D01*
X21616Y-133760D01*
X21571Y-133727D01*
X21538Y-133693D01*
X21527Y-133682D01*
X21516Y-133671D01*
X21427Y-133560D01*
X21338Y-133449D01*
X21205Y-133216D01*
X21116Y-132983D01*
X21049Y-132761D01*
X21005Y-132572D01*
X20994Y-132494D01*
Y-132417D01*
X20983Y-132361D01*
Y-132317D01*
Y-132295D01*
Y-132284D01*
X20994Y-132051D01*
X21027Y-131840D01*
X21083Y-131640D01*
X21138Y-131473D01*
X21205Y-131329D01*
X21249Y-131218D01*
X21294Y-131151D01*
X21305Y-131140D01*
Y-131129D01*
X21438Y-130952D01*
X21571Y-130796D01*
X21716Y-130663D01*
X21849Y-130563D01*
X21971Y-130485D01*
X22071Y-130441D01*
X22137Y-130408D01*
X22148Y-130397D01*
X22160D01*
X22259Y-130363D01*
X22381Y-130330D01*
X22626Y-130274D01*
X22892Y-130241D01*
X23136Y-130208D01*
X23369Y-130197D01*
X23469D01*
X23558Y-130186D01*
X27121D01*
Y-137867D01*
D02*
G37*
G36*
X19962Y-131096D02*
X17431D01*
Y-137867D01*
X16410D01*
Y-131096D01*
X13879D01*
Y-130186D01*
X19962D01*
Y-131096D01*
D02*
G37*
G36*
X12813Y-137867D02*
X7075D01*
Y-136957D01*
X11792D01*
Y-134348D01*
X7541D01*
Y-133438D01*
X11792D01*
Y-131096D01*
X7252D01*
Y-130186D01*
X12813D01*
Y-137867D01*
D02*
G37*
G36*
X5654D02*
X4633D01*
Y-134459D01*
X3323D01*
X3201Y-134470D01*
X3112D01*
X3034Y-134481D01*
X2979Y-134493D01*
X2935D01*
X2912Y-134504D01*
X2901D01*
X2724Y-134559D01*
X2646Y-134592D01*
X2579Y-134626D01*
X2513Y-134659D01*
X2468Y-134681D01*
X2446Y-134692D01*
X2435Y-134703D01*
X2346Y-134770D01*
X2257Y-134848D01*
X2091Y-135014D01*
X2013Y-135092D01*
X1958Y-135159D01*
X1925Y-135203D01*
X1913Y-135214D01*
X1802Y-135369D01*
X1680Y-135536D01*
X1558Y-135713D01*
X1436Y-135880D01*
X1336Y-136035D01*
X1259Y-136157D01*
X1225Y-136202D01*
X1203Y-136235D01*
X1181Y-136257D01*
Y-136268D01*
X171Y-137867D01*
X-1095D01*
X226Y-135780D01*
X382Y-135558D01*
X526Y-135358D01*
X670Y-135192D01*
X792Y-135036D01*
X903Y-134925D01*
X992Y-134837D01*
X1048Y-134781D01*
X1070Y-134759D01*
X1159Y-134692D01*
X1259Y-134615D01*
X1458Y-134493D01*
X1547Y-134448D01*
X1614Y-134404D01*
X1658Y-134382D01*
X1680Y-134370D01*
X1480Y-134337D01*
X1292Y-134304D01*
X1125Y-134248D01*
X959Y-134204D01*
X815Y-134148D01*
X681Y-134082D01*
X559Y-134026D01*
X448Y-133971D01*
X360Y-133904D01*
X271Y-133849D01*
X204Y-133804D01*
X149Y-133760D01*
X104Y-133727D01*
X71Y-133693D01*
X60Y-133682D01*
X49Y-133671D01*
X-40Y-133560D01*
X-129Y-133449D01*
X-262Y-133216D01*
X-351Y-132983D01*
X-417Y-132761D01*
X-462Y-132572D01*
X-473Y-132494D01*
Y-132417D01*
X-484Y-132361D01*
Y-132317D01*
Y-132295D01*
Y-132284D01*
X-473Y-132051D01*
X-440Y-131840D01*
X-384Y-131640D01*
X-329Y-131473D01*
X-262Y-131329D01*
X-218Y-131218D01*
X-173Y-131151D01*
X-162Y-131140D01*
Y-131129D01*
X-29Y-130952D01*
X104Y-130796D01*
X248Y-130663D01*
X382Y-130563D01*
X504Y-130485D01*
X604Y-130441D01*
X670Y-130408D01*
X681Y-130397D01*
X693D01*
X792Y-130363D01*
X914Y-130330D01*
X1159Y-130274D01*
X1425Y-130241D01*
X1669Y-130208D01*
X1902Y-130197D01*
X2002D01*
X2091Y-130186D01*
X5654D01*
Y-137867D01*
D02*
G37*
G36*
X54482Y-130064D02*
X54760Y-130097D01*
X55026Y-130152D01*
X55281Y-130219D01*
X55514Y-130308D01*
X55736Y-130397D01*
X55936Y-130497D01*
X56114Y-130596D01*
X56280Y-130696D01*
X56425Y-130796D01*
X56547Y-130885D01*
X56646Y-130974D01*
X56724Y-131040D01*
X56791Y-131096D01*
X56824Y-131129D01*
X56835Y-131140D01*
X57013Y-131351D01*
X57168Y-131573D01*
X57312Y-131817D01*
X57424Y-132062D01*
X57523Y-132317D01*
X57612Y-132561D01*
X57679Y-132805D01*
X57723Y-133038D01*
X57768Y-133260D01*
X57801Y-133471D01*
X57823Y-133660D01*
X57845Y-133815D01*
Y-133949D01*
X57856Y-134049D01*
Y-134115D01*
Y-134126D01*
Y-134137D01*
X57834Y-134515D01*
X57790Y-134859D01*
X57723Y-135192D01*
X57679Y-135336D01*
X57634Y-135480D01*
X57601Y-135602D01*
X57557Y-135713D01*
X57523Y-135813D01*
X57490Y-135902D01*
X57468Y-135969D01*
X57446Y-136013D01*
X57424Y-136046D01*
Y-136058D01*
X57235Y-136379D01*
X57035Y-136657D01*
X56813Y-136901D01*
X56602Y-137101D01*
X56413Y-137267D01*
X56336Y-137334D01*
X56269Y-137378D01*
X56203Y-137423D01*
X56158Y-137456D01*
X56136Y-137467D01*
X56125Y-137478D01*
X55958Y-137567D01*
X55792Y-137645D01*
X55459Y-137778D01*
X55137Y-137867D01*
X54837Y-137933D01*
X54693Y-137956D01*
X54571Y-137967D01*
X54460Y-137989D01*
X54360D01*
X54293Y-138000D01*
X54182D01*
X53816Y-137978D01*
X53472Y-137922D01*
X53150Y-137856D01*
X53006Y-137811D01*
X52873Y-137767D01*
X52751Y-137723D01*
X52639Y-137678D01*
X52551Y-137645D01*
X52473Y-137612D01*
X52406Y-137578D01*
X52351Y-137556D01*
X52329Y-137534D01*
X52318D01*
X52007Y-137334D01*
X51740Y-137112D01*
X51518Y-136879D01*
X51330Y-136657D01*
X51174Y-136446D01*
X51119Y-136368D01*
X51074Y-136291D01*
X51030Y-136224D01*
X51008Y-136180D01*
X50986Y-136146D01*
Y-136135D01*
X50897Y-135958D01*
X50830Y-135780D01*
X50708Y-135425D01*
X50619Y-135070D01*
X50564Y-134748D01*
X50553Y-134604D01*
X50531Y-134470D01*
X50519Y-134348D01*
Y-134248D01*
X50508Y-134159D01*
Y-134104D01*
Y-134060D01*
Y-134049D01*
X50531Y-133627D01*
X50575Y-133238D01*
X50608Y-133061D01*
X50653Y-132883D01*
X50697Y-132728D01*
X50730Y-132583D01*
X50775Y-132450D01*
X50819Y-132328D01*
X50852Y-132228D01*
X50897Y-132139D01*
X50919Y-132073D01*
X50941Y-132028D01*
X50963Y-131995D01*
Y-131984D01*
X51141Y-131662D01*
X51352Y-131373D01*
X51574Y-131129D01*
X51774Y-130929D01*
X51962Y-130774D01*
X52051Y-130707D01*
X52118Y-130652D01*
X52184Y-130619D01*
X52229Y-130585D01*
X52251Y-130574D01*
X52262Y-130563D01*
X52429Y-130474D01*
X52595Y-130397D01*
X52917Y-130263D01*
X53250Y-130175D01*
X53539Y-130119D01*
X53672Y-130097D01*
X53805Y-130075D01*
X53905Y-130064D01*
X54005D01*
X54082Y-130052D01*
X54182D01*
X54482Y-130064D01*
D02*
G37*
%LPC*%
G36*
X43879Y118289D02*
X43688D01*
Y118098D01*
X43496D01*
Y117715D01*
X43305D01*
Y117141D01*
X43113D01*
Y116566D01*
X42922D01*
Y116184D01*
X44453D01*
Y116758D01*
X44262D01*
Y117332D01*
X44070D01*
Y117523D01*
Y117715D01*
X43879D01*
Y118289D01*
D02*
G37*
G36*
X-22731Y105465D02*
X-22922D01*
Y105273D01*
X-23113D01*
Y104699D01*
X-23305D01*
Y104125D01*
X-23496D01*
Y103551D01*
X-23688D01*
Y103168D01*
X-23879D01*
Y102594D01*
X-24070D01*
Y102020D01*
X-24262D01*
Y101445D01*
X-24453D01*
Y100871D01*
X-24644D01*
Y100297D01*
X-24836D01*
Y99723D01*
X-25027D01*
Y99148D01*
X-25219D01*
Y98766D01*
X-25410D01*
Y98191D01*
X-25601D01*
Y97809D01*
X-20242D01*
Y98574D01*
X-20434D01*
Y99148D01*
X-20625D01*
Y99531D01*
X-20816D01*
Y100105D01*
X-21008D01*
Y100680D01*
X-21199D01*
Y101254D01*
X-21391D01*
Y101828D01*
X-21582D01*
Y102402D01*
X-21773D01*
Y102785D01*
X-21965D01*
Y103359D01*
X-22156D01*
Y103934D01*
X-22348D01*
Y104508D01*
X-22539D01*
Y105082D01*
X-22731D01*
Y105273D01*
Y105465D01*
D02*
G37*
G36*
X9043Y98766D02*
X8660D01*
Y98574D01*
X8852D01*
Y97426D01*
X9043D01*
Y96852D01*
X9234D01*
Y96277D01*
X9426D01*
Y95895D01*
X9617D01*
Y95512D01*
X9809D01*
Y95129D01*
X10000D01*
Y94937D01*
X10191D01*
Y94555D01*
X10383D01*
Y94363D01*
X10574D01*
Y94172D01*
X10766D01*
Y93981D01*
X10957D01*
Y93789D01*
X11149D01*
Y93598D01*
X11340D01*
Y93406D01*
X11531D01*
Y93215D01*
X11723D01*
Y93024D01*
X11914D01*
Y92832D01*
X12297D01*
Y92641D01*
X12488D01*
Y92449D01*
X12871D01*
Y92258D01*
X13254D01*
Y92066D01*
X13637D01*
Y91875D01*
X14020D01*
Y91684D01*
X14594D01*
Y91492D01*
X15551D01*
Y91301D01*
X17848D01*
Y91492D01*
X18805D01*
Y91684D01*
X19379D01*
Y91875D01*
X19953D01*
Y92066D01*
X20336D01*
Y92258D01*
X20719D01*
Y92449D01*
X20910D01*
Y92641D01*
X21293D01*
Y92832D01*
X21484D01*
Y93024D01*
X21293D01*
Y93215D01*
X20527D01*
Y93406D01*
X19953D01*
Y93598D01*
X19379D01*
Y93789D01*
X18805D01*
Y93981D01*
X18422D01*
Y94172D01*
X17848D01*
Y94363D01*
X17273D01*
Y94555D01*
X16891D01*
Y94746D01*
X16508D01*
Y94937D01*
X15934D01*
Y95129D01*
X15551D01*
Y95320D01*
X15168D01*
Y95512D01*
X14594D01*
Y95703D01*
X14211D01*
Y95895D01*
X13828D01*
Y96086D01*
X13445D01*
Y96277D01*
X13062D01*
Y96469D01*
X12680D01*
Y96660D01*
X12297D01*
Y96852D01*
X11914D01*
Y97043D01*
X11723D01*
Y97234D01*
X11340D01*
Y97426D01*
X10957D01*
Y97617D01*
X10574D01*
Y97809D01*
X10383D01*
Y98000D01*
X10000D01*
Y98191D01*
X9617D01*
Y98383D01*
X9426D01*
Y98574D01*
X9043D01*
Y98766D01*
D02*
G37*
G36*
X-15648Y84219D02*
X-17563D01*
Y84027D01*
X-17754D01*
Y83836D01*
X-17945D01*
Y83645D01*
X-18137D01*
Y82688D01*
X-17945D01*
Y82305D01*
X-17754D01*
Y82113D01*
X-17371D01*
Y81922D01*
X-15648D01*
Y84219D01*
D02*
G37*
G36*
X-32492Y83645D02*
X-32875D01*
Y83070D01*
X-33066D01*
Y82496D01*
X-33258D01*
Y81922D01*
X-33449D01*
Y81730D01*
X-31918D01*
Y81922D01*
X-32109D01*
Y82496D01*
X-32301D01*
Y82688D01*
Y82879D01*
Y83070D01*
X-32492D01*
Y83645D01*
D02*
G37*
G36*
X56613Y-121501D02*
X56536Y-121757D01*
X56447Y-122023D01*
X56358Y-122289D01*
X56269Y-122545D01*
X56225Y-122656D01*
X56192Y-122767D01*
X56158Y-122866D01*
X56125Y-122944D01*
X56103Y-123011D01*
X56080Y-123066D01*
X56069Y-123100D01*
Y-123111D01*
X55270Y-125220D01*
X57867D01*
X57035Y-122978D01*
X56935Y-122700D01*
X56857Y-122434D01*
X56780Y-122189D01*
X56724Y-121967D01*
X56680Y-121779D01*
X56658Y-121701D01*
X56646Y-121623D01*
X56624Y-121579D01*
Y-121535D01*
X56613Y-121512D01*
Y-121501D01*
D02*
G37*
G36*
X-5657Y-121612D02*
X-7433D01*
X-7577Y-121623D01*
X-7721D01*
X-7854Y-121635D01*
X-8076Y-121668D01*
X-8254Y-121690D01*
X-8398Y-121723D01*
X-8498Y-121757D01*
X-8554Y-121768D01*
X-8576Y-121779D01*
X-8776Y-121879D01*
X-8964Y-122001D01*
X-9131Y-122145D01*
X-9275Y-122289D01*
X-9386Y-122423D01*
X-9475Y-122534D01*
X-9497Y-122578D01*
X-9519Y-122611D01*
X-9542Y-122633D01*
Y-122645D01*
X-9608Y-122767D01*
X-9675Y-122911D01*
X-9775Y-123200D01*
X-9841Y-123510D01*
X-9897Y-123810D01*
X-9908Y-123943D01*
X-9919Y-124076D01*
X-9930Y-124187D01*
Y-124287D01*
X-9941Y-124376D01*
Y-124432D01*
Y-124476D01*
Y-124487D01*
X-9930Y-124798D01*
X-9908Y-125086D01*
X-9875Y-125342D01*
X-9841Y-125564D01*
X-9819Y-125653D01*
X-9797Y-125730D01*
X-9775Y-125808D01*
X-9764Y-125864D01*
X-9753Y-125908D01*
X-9741Y-125941D01*
X-9730Y-125963D01*
Y-125975D01*
X-9653Y-126185D01*
X-9564Y-126374D01*
X-9464Y-126541D01*
X-9375Y-126685D01*
X-9297Y-126796D01*
X-9231Y-126874D01*
X-9186Y-126918D01*
X-9175Y-126940D01*
X-9064Y-127029D01*
X-8953Y-127107D01*
X-8842Y-127173D01*
X-8731Y-127240D01*
X-8631Y-127284D01*
X-8554Y-127318D01*
X-8498Y-127329D01*
X-8476Y-127340D01*
X-8310Y-127384D01*
X-8110Y-127417D01*
X-7910Y-127440D01*
X-7721Y-127451D01*
X-7555Y-127462D01*
X-7477Y-127473D01*
X-5657D01*
Y-121612D01*
D02*
G37*
G36*
X-24093D02*
X-25914D01*
X-26158Y-121635D01*
X-26347Y-121646D01*
X-26513Y-121668D01*
X-26635Y-121690D01*
X-26713Y-121701D01*
X-26769Y-121723D01*
X-26780D01*
X-26902Y-121768D01*
X-27013Y-121834D01*
X-27101Y-121901D01*
X-27179Y-121967D01*
X-27235Y-122023D01*
X-27279Y-122078D01*
X-27301Y-122112D01*
X-27312Y-122123D01*
X-27379Y-122234D01*
X-27423Y-122345D01*
X-27457Y-122456D01*
X-27479Y-122567D01*
X-27490Y-122656D01*
X-27501Y-122722D01*
Y-122767D01*
Y-122789D01*
X-27490Y-122933D01*
X-27468Y-123066D01*
X-27434Y-123177D01*
X-27401Y-123266D01*
X-27368Y-123344D01*
X-27334Y-123410D01*
X-27312Y-123444D01*
X-27301Y-123455D01*
X-27223Y-123544D01*
X-27124Y-123632D01*
X-27024Y-123699D01*
X-26935Y-123743D01*
X-26846Y-123788D01*
X-26780Y-123821D01*
X-26735Y-123832D01*
X-26713Y-123843D01*
X-26591Y-123865D01*
X-26435Y-123888D01*
X-26280Y-123899D01*
X-26125Y-123910D01*
X-25980Y-123921D01*
X-24093D01*
Y-121612D01*
D02*
G37*
G36*
Y-124831D02*
X-26114D01*
X-26347Y-124853D01*
X-26535Y-124876D01*
X-26691Y-124898D01*
X-26813Y-124920D01*
X-26913Y-124942D01*
X-26957Y-124953D01*
X-26979Y-124964D01*
X-27124Y-125020D01*
X-27246Y-125086D01*
X-27357Y-125164D01*
X-27445Y-125242D01*
X-27512Y-125309D01*
X-27557Y-125364D01*
X-27590Y-125408D01*
X-27601Y-125420D01*
X-27679Y-125542D01*
X-27734Y-125664D01*
X-27778Y-125786D01*
X-27801Y-125897D01*
X-27823Y-125997D01*
X-27834Y-126086D01*
Y-126130D01*
Y-126152D01*
X-27823Y-126285D01*
X-27812Y-126419D01*
X-27790Y-126530D01*
X-27756Y-126618D01*
X-27723Y-126696D01*
X-27701Y-126763D01*
X-27690Y-126796D01*
X-27679Y-126807D01*
X-27612Y-126907D01*
X-27557Y-126996D01*
X-27479Y-127062D01*
X-27423Y-127129D01*
X-27368Y-127173D01*
X-27323Y-127207D01*
X-27290Y-127229D01*
X-27279Y-127240D01*
X-27090Y-127329D01*
X-26902Y-127395D01*
X-26824Y-127417D01*
X-26757Y-127429D01*
X-26713Y-127440D01*
X-26702D01*
X-26613Y-127451D01*
X-26513Y-127462D01*
X-26280Y-127473D01*
X-24093D01*
Y-124831D01*
D02*
G37*
G36*
X32116Y-121446D02*
X32049D01*
X31927Y-121457D01*
X31805Y-121468D01*
X31694Y-121501D01*
X31594Y-121546D01*
X31406Y-121646D01*
X31239Y-121757D01*
X31117Y-121879D01*
X31017Y-121979D01*
X30984Y-122023D01*
X30962Y-122056D01*
X30939Y-122067D01*
Y-122078D01*
X30862Y-122212D01*
X30795Y-122367D01*
X30728Y-122545D01*
X30684Y-122733D01*
X30640Y-122933D01*
X30606Y-123144D01*
X30551Y-123566D01*
X30529Y-123777D01*
X30518Y-123965D01*
X30506Y-124143D01*
Y-124287D01*
X30495Y-124420D01*
Y-124520D01*
Y-124576D01*
Y-124587D01*
Y-124598D01*
Y-124942D01*
X30518Y-125253D01*
X30540Y-125531D01*
X30562Y-125797D01*
X30595Y-126019D01*
X30640Y-126230D01*
X30684Y-126407D01*
X30717Y-126574D01*
X30762Y-126707D01*
X30806Y-126818D01*
X30840Y-126918D01*
X30884Y-126996D01*
X30906Y-127051D01*
X30928Y-127085D01*
X30951Y-127107D01*
Y-127118D01*
X31039Y-127229D01*
X31128Y-127318D01*
X31217Y-127406D01*
X31306Y-127473D01*
X31494Y-127584D01*
X31661Y-127662D01*
X31816Y-127706D01*
X31927Y-127728D01*
X31972Y-127739D01*
X32038D01*
X32160Y-127728D01*
X32271Y-127717D01*
X32482Y-127639D01*
X32671Y-127540D01*
X32838Y-127429D01*
X32960Y-127318D01*
X33059Y-127218D01*
X33115Y-127140D01*
X33137Y-127129D01*
Y-127118D01*
X33215Y-126985D01*
X33282Y-126829D01*
X33348Y-126652D01*
X33393Y-126463D01*
X33437Y-126263D01*
X33470Y-126052D01*
X33526Y-125619D01*
X33548Y-125420D01*
X33559Y-125231D01*
X33570Y-125053D01*
Y-124909D01*
X33581Y-124776D01*
Y-124676D01*
Y-124620D01*
Y-124598D01*
X33570Y-124254D01*
X33559Y-123943D01*
X33537Y-123655D01*
X33503Y-123388D01*
X33470Y-123155D01*
X33426Y-122944D01*
X33381Y-122755D01*
X33337Y-122589D01*
X33293Y-122445D01*
X33259Y-122323D01*
X33215Y-122223D01*
X33182Y-122134D01*
X33148Y-122078D01*
X33126Y-122034D01*
X33104Y-122012D01*
Y-122001D01*
X33026Y-121901D01*
X32949Y-121812D01*
X32860Y-121746D01*
X32771Y-121679D01*
X32593Y-121579D01*
X32427Y-121512D01*
X32283Y-121479D01*
X32160Y-121457D01*
X32116Y-121446D01*
D02*
G37*
G36*
X26100Y-131040D02*
X23680D01*
X23380Y-131052D01*
X23125Y-131096D01*
X22903Y-131151D01*
X22737Y-131218D01*
X22592Y-131285D01*
X22504Y-131340D01*
X22448Y-131384D01*
X22426Y-131396D01*
X22293Y-131540D01*
X22193Y-131684D01*
X22126Y-131840D01*
X22071Y-131973D01*
X22048Y-132106D01*
X22037Y-132206D01*
X22026Y-132273D01*
Y-132284D01*
Y-132295D01*
X22037Y-132428D01*
X22060Y-132561D01*
X22093Y-132672D01*
X22126Y-132772D01*
X22171Y-132861D01*
X22204Y-132927D01*
X22226Y-132972D01*
X22237Y-132983D01*
X22315Y-133094D01*
X22415Y-133194D01*
X22515Y-133272D01*
X22615Y-133338D01*
X22703Y-133383D01*
X22770Y-133416D01*
X22814Y-133438D01*
X22837Y-133449D01*
X22992Y-133493D01*
X23170Y-133527D01*
X23347Y-133549D01*
X23525Y-133560D01*
X23680Y-133571D01*
X23813Y-133582D01*
X26100D01*
Y-131040D01*
D02*
G37*
G36*
X4633D02*
X2213D01*
X1913Y-131052D01*
X1658Y-131096D01*
X1436Y-131151D01*
X1270Y-131218D01*
X1125Y-131285D01*
X1037Y-131340D01*
X981Y-131384D01*
X959Y-131396D01*
X826Y-131540D01*
X726Y-131684D01*
X659Y-131840D01*
X604Y-131973D01*
X582Y-132106D01*
X570Y-132206D01*
X559Y-132273D01*
Y-132284D01*
Y-132295D01*
X570Y-132428D01*
X593Y-132561D01*
X626Y-132672D01*
X659Y-132772D01*
X704Y-132861D01*
X737Y-132927D01*
X759Y-132972D01*
X770Y-132983D01*
X848Y-133094D01*
X948Y-133194D01*
X1048Y-133272D01*
X1147Y-133338D01*
X1236Y-133383D01*
X1303Y-133416D01*
X1347Y-133438D01*
X1370Y-133449D01*
X1525Y-133493D01*
X1702Y-133527D01*
X1880Y-133549D01*
X2058Y-133560D01*
X2213Y-133571D01*
X2346Y-133582D01*
X4633D01*
Y-131040D01*
D02*
G37*
G36*
X54282Y-130929D02*
X54182D01*
X53905Y-130941D01*
X53639Y-130985D01*
X53405Y-131052D01*
X53206Y-131118D01*
X53039Y-131196D01*
X52972Y-131229D01*
X52917Y-131251D01*
X52861Y-131285D01*
X52828Y-131296D01*
X52817Y-131318D01*
X52806D01*
X52595Y-131473D01*
X52406Y-131651D01*
X52240Y-131828D01*
X52107Y-132006D01*
X52007Y-132162D01*
X51929Y-132295D01*
X51907Y-132339D01*
X51885Y-132372D01*
X51874Y-132395D01*
Y-132406D01*
X51763Y-132672D01*
X51685Y-132961D01*
X51629Y-133227D01*
X51596Y-133482D01*
X51574Y-133604D01*
X51563Y-133704D01*
Y-133804D01*
X51552Y-133882D01*
Y-133949D01*
Y-133993D01*
Y-134026D01*
Y-134037D01*
X51563Y-134304D01*
X51585Y-134559D01*
X51618Y-134803D01*
X51663Y-135025D01*
X51729Y-135225D01*
X51785Y-135414D01*
X51851Y-135591D01*
X51918Y-135747D01*
X51996Y-135880D01*
X52062Y-136002D01*
X52118Y-136102D01*
X52173Y-136180D01*
X52229Y-136246D01*
X52262Y-136302D01*
X52284Y-136324D01*
X52295Y-136335D01*
X52440Y-136479D01*
X52595Y-136601D01*
X52751Y-136701D01*
X52906Y-136801D01*
X53061Y-136879D01*
X53228Y-136934D01*
X53372Y-136990D01*
X53527Y-137034D01*
X53661Y-137068D01*
X53794Y-137090D01*
X53905Y-137112D01*
X54005Y-137123D01*
X54082D01*
X54138Y-137134D01*
X54194D01*
X54404Y-137123D01*
X54604Y-137101D01*
X54782Y-137057D01*
X54959Y-137012D01*
X55126Y-136945D01*
X55281Y-136879D01*
X55426Y-136812D01*
X55559Y-136735D01*
X55670Y-136657D01*
X55770Y-136590D01*
X55858Y-136524D01*
X55936Y-136457D01*
X55992Y-136413D01*
X56036Y-136368D01*
X56058Y-136346D01*
X56069Y-136335D01*
X56203Y-136180D01*
X56314Y-136013D01*
X56413Y-135836D01*
X56502Y-135658D01*
X56569Y-135469D01*
X56635Y-135292D01*
X56724Y-134937D01*
X56746Y-134781D01*
X56769Y-134626D01*
X56791Y-134493D01*
X56802Y-134382D01*
X56813Y-134282D01*
Y-134204D01*
Y-134159D01*
Y-134148D01*
X56802Y-133838D01*
X56780Y-133549D01*
X56746Y-133272D01*
X56691Y-133027D01*
X56635Y-132805D01*
X56569Y-132605D01*
X56491Y-132417D01*
X56425Y-132261D01*
X56347Y-132117D01*
X56280Y-131995D01*
X56214Y-131895D01*
X56158Y-131817D01*
X56103Y-131751D01*
X56069Y-131706D01*
X56047Y-131684D01*
X56036Y-131673D01*
X55892Y-131540D01*
X55736Y-131429D01*
X55581Y-131329D01*
X55415Y-131240D01*
X55259Y-131174D01*
X55104Y-131107D01*
X54815Y-131018D01*
X54682Y-130996D01*
X54560Y-130974D01*
X54460Y-130952D01*
X54360Y-130941D01*
X54282Y-130929D01*
D02*
G37*
%LPD*%
M02*
