G04*
G04 #@! TF.GenerationSoftware,Altium Limited,Altium Designer,26.3.0 (6)*
G04*
G04 Layer_Color=255*
%FSLAX44Y44*%
%MOMM*%
G71*
G04*
G04 #@! TF.SameCoordinates,A5D2DF9F-5289-4556-85AE-B0E70FB24680*
G04*
G04*
G04 #@! TF.FilePolarity,Positive*
G04*
G01*
G75*
%ADD19R,1.6000X3.2000*%
%ADD28R,2.2000X0.5000*%
G04:AMPARAMS|DCode=36|XSize=1.778mm|YSize=2.54mm|CornerRadius=0.4445mm|HoleSize=0mm|Usage=FLASHONLY|Rotation=90.000|XOffset=0mm|YOffset=0mm|HoleType=Round|Shape=RoundedRectangle|*
%AMROUNDEDRECTD36*
21,1,1.7780,1.6510,0,0,90.0*
21,1,0.8890,2.5400,0,0,90.0*
1,1,0.8890,0.8255,0.4445*
1,1,0.8890,0.8255,-0.4445*
1,1,0.8890,-0.8255,-0.4445*
1,1,0.8890,-0.8255,0.4445*
%
%ADD36ROUNDEDRECTD36*%
G04:AMPARAMS|DCode=37|XSize=0.55mm|YSize=0.5mm|CornerRadius=0.0625mm|HoleSize=0mm|Usage=FLASHONLY|Rotation=0.000|XOffset=0mm|YOffset=0mm|HoleType=Round|Shape=RoundedRectangle|*
%AMROUNDEDRECTD37*
21,1,0.5500,0.3750,0,0,0.0*
21,1,0.4250,0.5000,0,0,0.0*
1,1,0.1250,0.2125,-0.1875*
1,1,0.1250,-0.2125,-0.1875*
1,1,0.1250,-0.2125,0.1875*
1,1,0.1250,0.2125,0.1875*
%
%ADD37ROUNDEDRECTD37*%
G04:AMPARAMS|DCode=38|XSize=0.55mm|YSize=0.5mm|CornerRadius=0.0625mm|HoleSize=0mm|Usage=FLASHONLY|Rotation=270.000|XOffset=0mm|YOffset=0mm|HoleType=Round|Shape=RoundedRectangle|*
%AMROUNDEDRECTD38*
21,1,0.5500,0.3750,0,0,270.0*
21,1,0.4250,0.5000,0,0,270.0*
1,1,0.1250,-0.1875,-0.2125*
1,1,0.1250,-0.1875,0.2125*
1,1,0.1250,0.1875,0.2125*
1,1,0.1250,0.1875,-0.2125*
%
%ADD38ROUNDEDRECTD38*%
G04:AMPARAMS|DCode=39|XSize=1.4mm|YSize=2.4mm|CornerRadius=0.175mm|HoleSize=0mm|Usage=FLASHONLY|Rotation=270.000|XOffset=0mm|YOffset=0mm|HoleType=Round|Shape=RoundedRectangle|*
%AMROUNDEDRECTD39*
21,1,1.4000,2.0500,0,0,270.0*
21,1,1.0500,2.4000,0,0,270.0*
1,1,0.3500,-1.0250,-0.5250*
1,1,0.3500,-1.0250,0.5250*
1,1,0.3500,1.0250,0.5250*
1,1,0.3500,1.0250,-0.5250*
%
%ADD39ROUNDEDRECTD39*%
%ADD40R,0.6500X0.6500*%
G04:AMPARAMS|DCode=41|XSize=1.3mm|YSize=0.76mm|CornerRadius=0.095mm|HoleSize=0mm|Usage=FLASHONLY|Rotation=180.000|XOffset=0mm|YOffset=0mm|HoleType=Round|Shape=RoundedRectangle|*
%AMROUNDEDRECTD41*
21,1,1.3000,0.5700,0,0,180.0*
21,1,1.1100,0.7600,0,0,180.0*
1,1,0.1900,-0.5550,0.2850*
1,1,0.1900,0.5550,0.2850*
1,1,0.1900,0.5550,-0.2850*
1,1,0.1900,-0.5550,-0.2850*
%
%ADD41ROUNDEDRECTD41*%
%ADD42R,1.8000X1.3000*%
%ADD43R,2.9500X4.9000*%
%ADD44R,0.6500X0.6500*%
G04:AMPARAMS|DCode=45|XSize=2mm|YSize=3.5mm|CornerRadius=0.08mm|HoleSize=0mm|Usage=FLASHONLY|Rotation=180.000|XOffset=0mm|YOffset=0mm|HoleType=Round|Shape=RoundedRectangle|*
%AMROUNDEDRECTD45*
21,1,2.0000,3.3400,0,0,180.0*
21,1,1.8400,3.5000,0,0,180.0*
1,1,0.1600,-0.9200,1.6700*
1,1,0.1600,0.9200,1.6700*
1,1,0.1600,0.9200,-1.6700*
1,1,0.1600,-0.9200,-1.6700*
%
%ADD45ROUNDEDRECTD45*%
%ADD51R,6.0000X6.0000*%
%ADD52C,6.0000*%
%ADD53C,1.5240*%
D19*
X-80314Y-13716D02*
D03*
Y36284D02*
D03*
D28*
X-32734Y-61650D02*
D03*
X24766D02*
D03*
X-32734Y-48950D02*
D03*
Y-74350D02*
D03*
Y-87050D02*
D03*
X24766D02*
D03*
Y-74350D02*
D03*
Y-48950D02*
D03*
D36*
X131200Y-62678D02*
D03*
Y-23308D02*
D03*
X134240Y67217D02*
D03*
X-133245Y67976D02*
D03*
X-131706Y-13207D02*
D03*
X-133245Y28606D02*
D03*
X134240Y27847D02*
D03*
X-131706Y-52577D02*
D03*
D37*
X-72083Y-55149D02*
D03*
X-59739D02*
D03*
X-63220Y-68022D02*
D03*
X-77314D02*
D03*
X83820Y-61650D02*
D03*
X46750D02*
D03*
X-59739Y-46149D02*
D03*
X-63220Y-77022D02*
D03*
X-72083Y-46149D02*
D03*
X-77314Y-77022D02*
D03*
X-39000Y-118074D02*
D03*
X83820Y-70650D02*
D03*
X46750D02*
D03*
X-39000Y-109074D02*
D03*
D38*
X-76124Y-136000D02*
D03*
X-61971Y-106324D02*
D03*
X-67124Y-136000D02*
D03*
X-52970Y-106324D02*
D03*
X-24635Y-32310D02*
D03*
X-33635D02*
D03*
D39*
X59782Y-25850D02*
D03*
Y19650D02*
D03*
D40*
X70593Y-91620D02*
D03*
X60593D02*
D03*
X60424Y-73000D02*
D03*
X70424D02*
D03*
D41*
X22342Y5970D02*
D03*
X88Y5970D02*
D03*
Y23870D02*
D03*
X22342Y23870D02*
D03*
D42*
X-26154Y-30D02*
D03*
Y27970D02*
D03*
D43*
X-3984Y-68000D02*
D03*
D44*
X46750Y-96620D02*
D03*
Y-86620D02*
D03*
D45*
X-24977Y87000D02*
D03*
X34023D02*
D03*
D51*
X-35814Y194818D02*
D03*
D52*
X36186D02*
D03*
D53*
X100000Y-100000D02*
D03*
X-100000D02*
D03*
X100000Y100000D02*
D03*
X-100000D02*
D03*
M02*
