G04*
G04 #@! TF.GenerationSoftware,Altium Limited,Altium Designer,26.3.0 (6)*
G04*
G04 Layer_Color=16711935*
%FSLAX44Y44*%
%MOMM*%
G71*
G04*
G04 #@! TF.SameCoordinates,A5D2DF9F-5289-4556-85AE-B0E70FB24680*
G04*
G04*
G04 #@! TF.FilePolarity,Negative*
G04*
G01*
G75*
%ADD29R,6.5080X6.5080*%
%ADD30C,6.5080*%
%ADD31C,2.0320*%
%ADD32C,1.1080*%
%ADD33C,0.6300*%
%ADD34C,1.0160*%
D29*
X-35814Y194818D02*
D03*
D30*
X36186D02*
D03*
D31*
X100000Y-100000D02*
D03*
X-100000D02*
D03*
X100000Y100000D02*
D03*
X-100000D02*
D03*
D32*
X-127946Y-108306D02*
D03*
X-128000Y-97146D02*
D03*
X-139000D02*
D03*
X-149463D02*
D03*
X-138946Y-108306D02*
D03*
X-149409Y-108344D02*
D03*
X25527Y-12802D02*
D03*
X24889Y-29310D02*
D03*
X9735Y-12802D02*
D03*
X9838Y-29310D02*
D03*
X70534Y54219D02*
D03*
X-51432Y-136000D02*
D03*
X-12135Y-20600D02*
D03*
X71043Y41998D02*
D03*
X-36666Y-20600D02*
D03*
X58373Y42376D02*
D03*
X-12135Y-32957D02*
D03*
X-24635Y-20600D02*
D03*
X58373Y54359D02*
D03*
D33*
X2516Y-55000D02*
D03*
Y-68000D02*
D03*
X-10484D02*
D03*
Y-55000D02*
D03*
X2516Y-81000D02*
D03*
X-10484D02*
D03*
D34*
X-55239Y-85348D02*
D03*
M02*
