G04*
G04 #@! TF.GenerationSoftware,Altium Limited,Altium Designer,26.3.0 (6)*
G04*
G04 Layer_Color=255*
%FSLAX44Y44*%
%MOMM*%
G71*
G04*
G04 #@! TF.SameCoordinates,F0C73554-34DE-494A-A34D-94DED9C52F24*
G04*
G04*
G04 #@! TF.FilePolarity,Positive*
G04*
G01*
G75*
%ADD37C,4.9160*%
%ADD38R,4.9160X4.9160*%
%ADD39O,1.3000X2.6000*%
%ADD40C,1.5240*%
%ADD44R,6.0000X6.0000*%
%ADD45C,6.0000*%
D37*
X441850Y2124024D02*
D03*
X822850D02*
D03*
X1203850D02*
D03*
X1584850D02*
D03*
X1965850D02*
D03*
X446930Y1568470D02*
D03*
X827930D02*
D03*
X1208930D02*
D03*
X1589930D02*
D03*
X1970930D02*
D03*
D38*
X332850Y2124024D02*
D03*
X713850D02*
D03*
X1094850D02*
D03*
X1475850D02*
D03*
X1856850D02*
D03*
X337930Y1568470D02*
D03*
X718930D02*
D03*
X1099930D02*
D03*
X1480930D02*
D03*
X1861930D02*
D03*
D39*
X292850Y2030024D02*
D03*
X481850D02*
D03*
X673850D02*
D03*
X862850D02*
D03*
X1054850D02*
D03*
X1243850D02*
D03*
X1435850D02*
D03*
X1624850D02*
D03*
X1816850D02*
D03*
X2005850D02*
D03*
X297930Y1474470D02*
D03*
X486930D02*
D03*
X678930D02*
D03*
X867930D02*
D03*
X1059930D02*
D03*
X1248930D02*
D03*
X1440930D02*
D03*
X1629930D02*
D03*
X1821930D02*
D03*
X2010930D02*
D03*
D40*
X289550Y2434824D02*
D03*
Y2234824D02*
D03*
X489550Y2434824D02*
D03*
Y2234824D02*
D03*
X670550Y2434824D02*
D03*
Y2234824D02*
D03*
X870550Y2434824D02*
D03*
Y2234824D02*
D03*
X1051550Y2434824D02*
D03*
Y2234824D02*
D03*
X1251550Y2434824D02*
D03*
Y2234824D02*
D03*
X1432550Y2434824D02*
D03*
Y2234824D02*
D03*
X1632550Y2434824D02*
D03*
Y2234824D02*
D03*
X1813550Y2434824D02*
D03*
Y2234824D02*
D03*
X2013550Y2434824D02*
D03*
Y2234824D02*
D03*
X495892Y1044324D02*
D03*
X295892D02*
D03*
X495892Y1244324D02*
D03*
X295892D02*
D03*
X876892Y1044324D02*
D03*
X676892D02*
D03*
X876892Y1244324D02*
D03*
X676892D02*
D03*
X1257892Y1044324D02*
D03*
X1057892D02*
D03*
X1257892Y1244324D02*
D03*
X1057892D02*
D03*
X1638892Y1044324D02*
D03*
X1438892D02*
D03*
X1638892Y1244324D02*
D03*
X1438892D02*
D03*
X2019892Y1044324D02*
D03*
X1819892D02*
D03*
X2019892Y1244324D02*
D03*
X1819892D02*
D03*
X294630Y1879270D02*
D03*
Y1679270D02*
D03*
X494630Y1879270D02*
D03*
Y1679270D02*
D03*
X675630Y1879270D02*
D03*
Y1679270D02*
D03*
X875630Y1879270D02*
D03*
Y1679270D02*
D03*
X1056630Y1879270D02*
D03*
Y1679270D02*
D03*
X1256630Y1879270D02*
D03*
Y1679270D02*
D03*
X1437630Y1879270D02*
D03*
Y1679270D02*
D03*
X1637630Y1879270D02*
D03*
Y1679270D02*
D03*
X1818630Y1879270D02*
D03*
Y1679270D02*
D03*
X2018630Y1879270D02*
D03*
Y1679270D02*
D03*
D44*
X360078Y1339142D02*
D03*
X741078D02*
D03*
X1122078D02*
D03*
X1503078D02*
D03*
X1884078D02*
D03*
D45*
X432078D02*
D03*
X813078D02*
D03*
X1194078D02*
D03*
X1575078D02*
D03*
X1956078D02*
D03*
M02*
