G04*
G04 #@! TF.GenerationSoftware,Altium Limited,Altium Designer,26.3.0 (6)*
G04*
G04 Layer_Color=16711935*
%FSLAX44Y44*%
%MOMM*%
G71*
G04*
G04 #@! TF.SameCoordinates,F0C73554-34DE-494A-A34D-94DED9C52F24*
G04*
G04*
G04 #@! TF.FilePolarity,Positive*
G04*
G01*
G75*
%ADD50C,0.2000*%
%ADD51C,0.1270*%
%ADD79C,0.1000*%
%ADD80C,0.0254*%
G36*
X1917879Y2292145D02*
Y2292136D01*
Y2292099D01*
Y2292052D01*
Y2291988D01*
X1917870Y2291904D01*
Y2291812D01*
X1917861Y2291701D01*
X1917852Y2291590D01*
X1917824Y2291341D01*
X1917787Y2291082D01*
X1917731Y2290832D01*
X1917695Y2290712D01*
X1917658Y2290601D01*
Y2290592D01*
X1917648Y2290573D01*
X1917630Y2290545D01*
X1917611Y2290508D01*
X1917556Y2290407D01*
X1917473Y2290277D01*
X1917362Y2290129D01*
X1917232Y2289981D01*
X1917066Y2289824D01*
X1916862Y2289686D01*
X1916853D01*
X1916835Y2289667D01*
X1916807Y2289658D01*
X1916761Y2289630D01*
X1916705Y2289602D01*
X1916631Y2289575D01*
X1916557Y2289547D01*
X1916465Y2289510D01*
X1916363Y2289473D01*
X1916252Y2289445D01*
X1916132Y2289418D01*
X1915993Y2289390D01*
X1915855Y2289371D01*
X1915707Y2289353D01*
X1915374Y2289334D01*
X1915291D01*
X1915226Y2289344D01*
X1915152D01*
X1915060Y2289353D01*
X1914958Y2289362D01*
X1914856Y2289371D01*
X1914625Y2289408D01*
X1914375Y2289464D01*
X1914135Y2289538D01*
X1913904Y2289639D01*
X1913895D01*
X1913876Y2289658D01*
X1913848Y2289676D01*
X1913811Y2289695D01*
X1913710Y2289769D01*
X1913589Y2289870D01*
X1913451Y2290000D01*
X1913321Y2290148D01*
X1913192Y2290333D01*
X1913090Y2290536D01*
Y2290545D01*
X1913081Y2290564D01*
X1913072Y2290601D01*
X1913053Y2290647D01*
X1913035Y2290703D01*
X1913016Y2290777D01*
X1912989Y2290860D01*
X1912970Y2290961D01*
X1912952Y2291072D01*
X1912924Y2291193D01*
X1912905Y2291322D01*
X1912887Y2291461D01*
X1912868Y2291618D01*
X1912859Y2291784D01*
X1912850Y2291960D01*
Y2292145D01*
Y2295843D01*
X1913701D01*
Y2292145D01*
Y2292136D01*
Y2292108D01*
Y2292062D01*
Y2292006D01*
X1913710Y2291942D01*
Y2291858D01*
X1913719Y2291683D01*
X1913737Y2291479D01*
X1913765Y2291276D01*
X1913802Y2291082D01*
X1913821Y2290999D01*
X1913848Y2290915D01*
X1913858Y2290897D01*
X1913876Y2290851D01*
X1913922Y2290786D01*
X1913978Y2290693D01*
X1914043Y2290601D01*
X1914135Y2290499D01*
X1914246Y2290397D01*
X1914375Y2290314D01*
X1914394Y2290305D01*
X1914440Y2290277D01*
X1914523Y2290250D01*
X1914634Y2290213D01*
X1914764Y2290166D01*
X1914930Y2290139D01*
X1915106Y2290111D01*
X1915300Y2290102D01*
X1915392D01*
X1915448Y2290111D01*
X1915531D01*
X1915614Y2290120D01*
X1915818Y2290157D01*
X1916040Y2290203D01*
X1916252Y2290277D01*
X1916456Y2290379D01*
X1916548Y2290444D01*
X1916631Y2290518D01*
X1916641Y2290527D01*
X1916650Y2290536D01*
X1916668Y2290564D01*
X1916696Y2290601D01*
X1916724Y2290656D01*
X1916761Y2290712D01*
X1916798Y2290795D01*
X1916835Y2290878D01*
X1916872Y2290980D01*
X1916899Y2291100D01*
X1916936Y2291239D01*
X1916964Y2291387D01*
X1916992Y2291553D01*
X1917010Y2291729D01*
X1917029Y2291932D01*
Y2292145D01*
Y2295843D01*
X1917879D01*
Y2292145D01*
D02*
G37*
G36*
X1536879D02*
Y2292136D01*
Y2292099D01*
Y2292052D01*
Y2291988D01*
X1536870Y2291904D01*
Y2291812D01*
X1536861Y2291701D01*
X1536852Y2291590D01*
X1536824Y2291341D01*
X1536787Y2291082D01*
X1536732Y2290832D01*
X1536695Y2290712D01*
X1536658Y2290601D01*
Y2290592D01*
X1536648Y2290573D01*
X1536630Y2290545D01*
X1536611Y2290508D01*
X1536556Y2290407D01*
X1536473Y2290277D01*
X1536362Y2290129D01*
X1536232Y2289981D01*
X1536066Y2289824D01*
X1535862Y2289686D01*
X1535853D01*
X1535835Y2289667D01*
X1535807Y2289658D01*
X1535761Y2289630D01*
X1535705Y2289602D01*
X1535631Y2289575D01*
X1535557Y2289547D01*
X1535465Y2289510D01*
X1535363Y2289473D01*
X1535252Y2289445D01*
X1535132Y2289418D01*
X1534993Y2289390D01*
X1534855Y2289371D01*
X1534707Y2289353D01*
X1534374Y2289334D01*
X1534291D01*
X1534226Y2289344D01*
X1534152D01*
X1534060Y2289353D01*
X1533958Y2289362D01*
X1533856Y2289371D01*
X1533625Y2289408D01*
X1533375Y2289464D01*
X1533135Y2289538D01*
X1532904Y2289639D01*
X1532895D01*
X1532876Y2289658D01*
X1532848Y2289676D01*
X1532811Y2289695D01*
X1532710Y2289769D01*
X1532590Y2289870D01*
X1532451Y2290000D01*
X1532321Y2290148D01*
X1532192Y2290333D01*
X1532090Y2290536D01*
Y2290545D01*
X1532081Y2290564D01*
X1532072Y2290601D01*
X1532053Y2290647D01*
X1532035Y2290703D01*
X1532016Y2290777D01*
X1531989Y2290860D01*
X1531970Y2290961D01*
X1531952Y2291072D01*
X1531924Y2291193D01*
X1531905Y2291322D01*
X1531887Y2291461D01*
X1531868Y2291618D01*
X1531859Y2291784D01*
X1531850Y2291960D01*
Y2292145D01*
Y2295843D01*
X1532701D01*
Y2292145D01*
Y2292136D01*
Y2292108D01*
Y2292062D01*
Y2292006D01*
X1532710Y2291942D01*
Y2291858D01*
X1532719Y2291683D01*
X1532737Y2291479D01*
X1532765Y2291276D01*
X1532802Y2291082D01*
X1532821Y2290999D01*
X1532848Y2290915D01*
X1532858Y2290897D01*
X1532876Y2290851D01*
X1532922Y2290786D01*
X1532978Y2290693D01*
X1533043Y2290601D01*
X1533135Y2290499D01*
X1533246Y2290397D01*
X1533375Y2290314D01*
X1533394Y2290305D01*
X1533440Y2290277D01*
X1533523Y2290250D01*
X1533634Y2290213D01*
X1533764Y2290166D01*
X1533930Y2290139D01*
X1534106Y2290111D01*
X1534300Y2290102D01*
X1534392D01*
X1534448Y2290111D01*
X1534531D01*
X1534614Y2290120D01*
X1534818Y2290157D01*
X1535040Y2290203D01*
X1535252Y2290277D01*
X1535456Y2290379D01*
X1535548Y2290444D01*
X1535631Y2290518D01*
X1535641Y2290527D01*
X1535650Y2290536D01*
X1535668Y2290564D01*
X1535696Y2290601D01*
X1535724Y2290656D01*
X1535761Y2290712D01*
X1535798Y2290795D01*
X1535835Y2290878D01*
X1535872Y2290980D01*
X1535899Y2291100D01*
X1535936Y2291239D01*
X1535964Y2291387D01*
X1535992Y2291553D01*
X1536010Y2291729D01*
X1536029Y2291932D01*
Y2292145D01*
Y2295843D01*
X1536879D01*
Y2292145D01*
D02*
G37*
G36*
X1155880D02*
Y2292136D01*
Y2292099D01*
Y2292052D01*
Y2291988D01*
X1155870Y2291904D01*
Y2291812D01*
X1155861Y2291701D01*
X1155852Y2291590D01*
X1155824Y2291341D01*
X1155787Y2291082D01*
X1155732Y2290832D01*
X1155695Y2290712D01*
X1155658Y2290601D01*
Y2290592D01*
X1155648Y2290573D01*
X1155630Y2290545D01*
X1155611Y2290508D01*
X1155556Y2290407D01*
X1155473Y2290277D01*
X1155362Y2290129D01*
X1155232Y2289981D01*
X1155066Y2289824D01*
X1154863Y2289686D01*
X1154853D01*
X1154835Y2289667D01*
X1154807Y2289658D01*
X1154761Y2289630D01*
X1154705Y2289602D01*
X1154631Y2289575D01*
X1154557Y2289547D01*
X1154465Y2289510D01*
X1154363Y2289473D01*
X1154252Y2289445D01*
X1154132Y2289418D01*
X1153993Y2289390D01*
X1153855Y2289371D01*
X1153707Y2289353D01*
X1153374Y2289334D01*
X1153291D01*
X1153226Y2289344D01*
X1153152D01*
X1153060Y2289353D01*
X1152958Y2289362D01*
X1152856Y2289371D01*
X1152625Y2289408D01*
X1152375Y2289464D01*
X1152135Y2289538D01*
X1151904Y2289639D01*
X1151895D01*
X1151876Y2289658D01*
X1151848Y2289676D01*
X1151811Y2289695D01*
X1151710Y2289769D01*
X1151590Y2289870D01*
X1151451Y2290000D01*
X1151321Y2290148D01*
X1151192Y2290333D01*
X1151090Y2290536D01*
Y2290545D01*
X1151081Y2290564D01*
X1151072Y2290601D01*
X1151053Y2290647D01*
X1151035Y2290703D01*
X1151016Y2290777D01*
X1150989Y2290860D01*
X1150970Y2290961D01*
X1150952Y2291072D01*
X1150924Y2291193D01*
X1150905Y2291322D01*
X1150887Y2291461D01*
X1150868Y2291618D01*
X1150859Y2291784D01*
X1150850Y2291960D01*
Y2292145D01*
Y2295843D01*
X1151701D01*
Y2292145D01*
Y2292136D01*
Y2292108D01*
Y2292062D01*
Y2292006D01*
X1151710Y2291942D01*
Y2291858D01*
X1151719Y2291683D01*
X1151737Y2291479D01*
X1151765Y2291276D01*
X1151802Y2291082D01*
X1151821Y2290999D01*
X1151848Y2290915D01*
X1151858Y2290897D01*
X1151876Y2290851D01*
X1151922Y2290786D01*
X1151978Y2290693D01*
X1152043Y2290601D01*
X1152135Y2290499D01*
X1152246Y2290397D01*
X1152375Y2290314D01*
X1152394Y2290305D01*
X1152440Y2290277D01*
X1152523Y2290250D01*
X1152634Y2290213D01*
X1152764Y2290166D01*
X1152930Y2290139D01*
X1153106Y2290111D01*
X1153300Y2290102D01*
X1153392D01*
X1153448Y2290111D01*
X1153531D01*
X1153614Y2290120D01*
X1153818Y2290157D01*
X1154040Y2290203D01*
X1154252Y2290277D01*
X1154456Y2290379D01*
X1154548Y2290444D01*
X1154631Y2290518D01*
X1154641Y2290527D01*
X1154650Y2290536D01*
X1154668Y2290564D01*
X1154696Y2290601D01*
X1154724Y2290656D01*
X1154761Y2290712D01*
X1154798Y2290795D01*
X1154835Y2290878D01*
X1154872Y2290980D01*
X1154899Y2291100D01*
X1154936Y2291239D01*
X1154964Y2291387D01*
X1154992Y2291553D01*
X1155010Y2291729D01*
X1155029Y2291932D01*
Y2292145D01*
Y2295843D01*
X1155880D01*
Y2292145D01*
D02*
G37*
G36*
X774880D02*
Y2292136D01*
Y2292099D01*
Y2292052D01*
Y2291988D01*
X774870Y2291904D01*
Y2291812D01*
X774861Y2291701D01*
X774852Y2291590D01*
X774824Y2291341D01*
X774787Y2291082D01*
X774732Y2290832D01*
X774695Y2290712D01*
X774658Y2290601D01*
Y2290592D01*
X774648Y2290573D01*
X774630Y2290545D01*
X774611Y2290508D01*
X774556Y2290407D01*
X774473Y2290277D01*
X774362Y2290129D01*
X774232Y2289981D01*
X774066Y2289824D01*
X773863Y2289686D01*
X773853D01*
X773835Y2289667D01*
X773807Y2289658D01*
X773761Y2289630D01*
X773705Y2289602D01*
X773631Y2289575D01*
X773557Y2289547D01*
X773465Y2289510D01*
X773363Y2289473D01*
X773252Y2289445D01*
X773132Y2289418D01*
X772993Y2289390D01*
X772855Y2289371D01*
X772707Y2289353D01*
X772374Y2289334D01*
X772291D01*
X772226Y2289344D01*
X772152D01*
X772060Y2289353D01*
X771958Y2289362D01*
X771856Y2289371D01*
X771625Y2289408D01*
X771375Y2289464D01*
X771135Y2289538D01*
X770904Y2289639D01*
X770895D01*
X770876Y2289658D01*
X770848Y2289676D01*
X770811Y2289695D01*
X770710Y2289769D01*
X770590Y2289870D01*
X770451Y2290000D01*
X770321Y2290148D01*
X770192Y2290333D01*
X770090Y2290536D01*
Y2290545D01*
X770081Y2290564D01*
X770072Y2290601D01*
X770053Y2290647D01*
X770035Y2290703D01*
X770016Y2290777D01*
X769989Y2290860D01*
X769970Y2290961D01*
X769952Y2291072D01*
X769924Y2291193D01*
X769905Y2291322D01*
X769887Y2291461D01*
X769868Y2291618D01*
X769859Y2291784D01*
X769850Y2291960D01*
Y2292145D01*
Y2295843D01*
X770701D01*
Y2292145D01*
Y2292136D01*
Y2292108D01*
Y2292062D01*
Y2292006D01*
X770710Y2291942D01*
Y2291858D01*
X770719Y2291683D01*
X770737Y2291479D01*
X770765Y2291276D01*
X770802Y2291082D01*
X770821Y2290999D01*
X770848Y2290915D01*
X770858Y2290897D01*
X770876Y2290851D01*
X770922Y2290786D01*
X770978Y2290693D01*
X771043Y2290601D01*
X771135Y2290499D01*
X771246Y2290397D01*
X771375Y2290314D01*
X771394Y2290305D01*
X771440Y2290277D01*
X771523Y2290250D01*
X771634Y2290213D01*
X771764Y2290166D01*
X771930Y2290139D01*
X772106Y2290111D01*
X772300Y2290102D01*
X772392D01*
X772448Y2290111D01*
X772531D01*
X772614Y2290120D01*
X772818Y2290157D01*
X773040Y2290203D01*
X773252Y2290277D01*
X773456Y2290379D01*
X773548Y2290444D01*
X773631Y2290518D01*
X773641Y2290527D01*
X773650Y2290536D01*
X773668Y2290564D01*
X773696Y2290601D01*
X773724Y2290656D01*
X773761Y2290712D01*
X773798Y2290795D01*
X773835Y2290878D01*
X773872Y2290980D01*
X773899Y2291100D01*
X773936Y2291239D01*
X773964Y2291387D01*
X773992Y2291553D01*
X774010Y2291729D01*
X774029Y2291932D01*
Y2292145D01*
Y2295843D01*
X774880D01*
Y2292145D01*
D02*
G37*
G36*
X393880D02*
Y2292136D01*
Y2292099D01*
Y2292052D01*
Y2291988D01*
X393870Y2291904D01*
Y2291812D01*
X393861Y2291701D01*
X393852Y2291590D01*
X393824Y2291341D01*
X393787Y2291082D01*
X393731Y2290832D01*
X393695Y2290712D01*
X393658Y2290601D01*
Y2290592D01*
X393648Y2290573D01*
X393630Y2290545D01*
X393611Y2290508D01*
X393556Y2290407D01*
X393473Y2290277D01*
X393362Y2290129D01*
X393232Y2289981D01*
X393066Y2289824D01*
X392863Y2289686D01*
X392853D01*
X392835Y2289667D01*
X392807Y2289658D01*
X392761Y2289630D01*
X392705Y2289602D01*
X392631Y2289575D01*
X392557Y2289547D01*
X392465Y2289510D01*
X392363Y2289473D01*
X392252Y2289445D01*
X392132Y2289418D01*
X391993Y2289390D01*
X391855Y2289371D01*
X391707Y2289353D01*
X391374Y2289334D01*
X391291D01*
X391226Y2289344D01*
X391152D01*
X391060Y2289353D01*
X390958Y2289362D01*
X390856Y2289371D01*
X390625Y2289408D01*
X390375Y2289464D01*
X390135Y2289538D01*
X389904Y2289639D01*
X389895D01*
X389876Y2289658D01*
X389848Y2289676D01*
X389811Y2289695D01*
X389710Y2289769D01*
X389590Y2289870D01*
X389451Y2290000D01*
X389321Y2290148D01*
X389192Y2290333D01*
X389090Y2290536D01*
Y2290545D01*
X389081Y2290564D01*
X389072Y2290601D01*
X389053Y2290647D01*
X389035Y2290703D01*
X389016Y2290777D01*
X388989Y2290860D01*
X388970Y2290961D01*
X388952Y2291072D01*
X388924Y2291193D01*
X388905Y2291322D01*
X388887Y2291461D01*
X388868Y2291618D01*
X388859Y2291784D01*
X388850Y2291960D01*
Y2292145D01*
Y2295843D01*
X389701D01*
Y2292145D01*
Y2292136D01*
Y2292108D01*
Y2292062D01*
Y2292006D01*
X389710Y2291942D01*
Y2291858D01*
X389719Y2291683D01*
X389737Y2291479D01*
X389765Y2291276D01*
X389802Y2291082D01*
X389821Y2290999D01*
X389848Y2290915D01*
X389858Y2290897D01*
X389876Y2290851D01*
X389922Y2290786D01*
X389978Y2290693D01*
X390043Y2290601D01*
X390135Y2290499D01*
X390246Y2290397D01*
X390375Y2290314D01*
X390394Y2290305D01*
X390440Y2290277D01*
X390523Y2290250D01*
X390634Y2290213D01*
X390764Y2290166D01*
X390930Y2290139D01*
X391106Y2290111D01*
X391300Y2290102D01*
X391392D01*
X391448Y2290111D01*
X391531D01*
X391614Y2290120D01*
X391818Y2290157D01*
X392040Y2290203D01*
X392252Y2290277D01*
X392456Y2290379D01*
X392548Y2290444D01*
X392631Y2290518D01*
X392641Y2290527D01*
X392650Y2290536D01*
X392668Y2290564D01*
X392696Y2290601D01*
X392724Y2290656D01*
X392761Y2290712D01*
X392798Y2290795D01*
X392835Y2290878D01*
X392872Y2290980D01*
X392899Y2291100D01*
X392936Y2291239D01*
X392964Y2291387D01*
X392992Y2291553D01*
X393010Y2291729D01*
X393029Y2291932D01*
Y2292145D01*
Y2295843D01*
X393880D01*
Y2292145D01*
D02*
G37*
G36*
X1921929Y2289445D02*
X1921143D01*
Y2294447D01*
X1921134Y2294438D01*
X1921088Y2294401D01*
X1921032Y2294345D01*
X1920940Y2294281D01*
X1920838Y2294197D01*
X1920709Y2294105D01*
X1920561Y2294003D01*
X1920394Y2293902D01*
X1920385D01*
X1920376Y2293892D01*
X1920320Y2293855D01*
X1920228Y2293809D01*
X1920117Y2293754D01*
X1919987Y2293689D01*
X1919849Y2293624D01*
X1919710Y2293560D01*
X1919571Y2293504D01*
Y2294262D01*
X1919581D01*
X1919599Y2294281D01*
X1919636Y2294290D01*
X1919682Y2294318D01*
X1919738Y2294345D01*
X1919803Y2294382D01*
X1919960Y2294475D01*
X1920145Y2294577D01*
X1920330Y2294706D01*
X1920524Y2294854D01*
X1920718Y2295011D01*
X1920727Y2295020D01*
X1920736Y2295029D01*
X1920764Y2295057D01*
X1920801Y2295085D01*
X1920884Y2295177D01*
X1920995Y2295288D01*
X1921106Y2295418D01*
X1921226Y2295566D01*
X1921328Y2295714D01*
X1921420Y2295871D01*
X1921929D01*
Y2289445D01*
D02*
G37*
G36*
X1540929D02*
X1540143D01*
Y2294447D01*
X1540134Y2294438D01*
X1540088Y2294401D01*
X1540032Y2294345D01*
X1539940Y2294281D01*
X1539838Y2294197D01*
X1539709Y2294105D01*
X1539561Y2294003D01*
X1539394Y2293902D01*
X1539385D01*
X1539376Y2293892D01*
X1539320Y2293855D01*
X1539228Y2293809D01*
X1539117Y2293754D01*
X1538987Y2293689D01*
X1538849Y2293624D01*
X1538710Y2293560D01*
X1538571Y2293504D01*
Y2294262D01*
X1538581D01*
X1538599Y2294281D01*
X1538636Y2294290D01*
X1538682Y2294318D01*
X1538738Y2294345D01*
X1538803Y2294382D01*
X1538960Y2294475D01*
X1539145Y2294577D01*
X1539330Y2294706D01*
X1539524Y2294854D01*
X1539718Y2295011D01*
X1539727Y2295020D01*
X1539736Y2295029D01*
X1539764Y2295057D01*
X1539801Y2295085D01*
X1539884Y2295177D01*
X1539995Y2295288D01*
X1540106Y2295418D01*
X1540226Y2295566D01*
X1540328Y2295714D01*
X1540421Y2295871D01*
X1540929D01*
Y2289445D01*
D02*
G37*
G36*
X1159929D02*
X1159143D01*
Y2294447D01*
X1159134Y2294438D01*
X1159088Y2294401D01*
X1159032Y2294345D01*
X1158940Y2294281D01*
X1158838Y2294197D01*
X1158709Y2294105D01*
X1158561Y2294003D01*
X1158394Y2293902D01*
X1158385D01*
X1158376Y2293892D01*
X1158320Y2293855D01*
X1158228Y2293809D01*
X1158117Y2293754D01*
X1157988Y2293689D01*
X1157849Y2293624D01*
X1157710Y2293560D01*
X1157571Y2293504D01*
Y2294262D01*
X1157581D01*
X1157599Y2294281D01*
X1157636Y2294290D01*
X1157682Y2294318D01*
X1157738Y2294345D01*
X1157803Y2294382D01*
X1157960Y2294475D01*
X1158145Y2294577D01*
X1158330Y2294706D01*
X1158524Y2294854D01*
X1158718Y2295011D01*
X1158727Y2295020D01*
X1158736Y2295029D01*
X1158764Y2295057D01*
X1158801Y2295085D01*
X1158884Y2295177D01*
X1158995Y2295288D01*
X1159106Y2295418D01*
X1159226Y2295566D01*
X1159328Y2295714D01*
X1159420Y2295871D01*
X1159929D01*
Y2289445D01*
D02*
G37*
G36*
X778929D02*
X778143D01*
Y2294447D01*
X778134Y2294438D01*
X778088Y2294401D01*
X778032Y2294345D01*
X777940Y2294281D01*
X777838Y2294197D01*
X777709Y2294105D01*
X777561Y2294003D01*
X777394Y2293902D01*
X777385D01*
X777376Y2293892D01*
X777320Y2293855D01*
X777228Y2293809D01*
X777117Y2293754D01*
X776988Y2293689D01*
X776849Y2293624D01*
X776710Y2293560D01*
X776571Y2293504D01*
Y2294262D01*
X776581D01*
X776599Y2294281D01*
X776636Y2294290D01*
X776682Y2294318D01*
X776738Y2294345D01*
X776803Y2294382D01*
X776960Y2294475D01*
X777145Y2294577D01*
X777330Y2294706D01*
X777524Y2294854D01*
X777718Y2295011D01*
X777727Y2295020D01*
X777736Y2295029D01*
X777764Y2295057D01*
X777801Y2295085D01*
X777884Y2295177D01*
X777995Y2295288D01*
X778106Y2295418D01*
X778226Y2295566D01*
X778328Y2295714D01*
X778420Y2295871D01*
X778929D01*
Y2289445D01*
D02*
G37*
G36*
X397929D02*
X397143D01*
Y2294447D01*
X397134Y2294438D01*
X397088Y2294401D01*
X397032Y2294345D01*
X396940Y2294281D01*
X396838Y2294197D01*
X396709Y2294105D01*
X396561Y2294003D01*
X396394Y2293902D01*
X396385D01*
X396376Y2293892D01*
X396320Y2293855D01*
X396228Y2293809D01*
X396117Y2293754D01*
X395988Y2293689D01*
X395849Y2293624D01*
X395710Y2293560D01*
X395571Y2293504D01*
Y2294262D01*
X395581D01*
X395599Y2294281D01*
X395636Y2294290D01*
X395682Y2294318D01*
X395738Y2294345D01*
X395803Y2294382D01*
X395960Y2294475D01*
X396145Y2294577D01*
X396330Y2294706D01*
X396524Y2294854D01*
X396718Y2295011D01*
X396727Y2295020D01*
X396736Y2295029D01*
X396764Y2295057D01*
X396801Y2295085D01*
X396884Y2295177D01*
X396995Y2295288D01*
X397106Y2295418D01*
X397226Y2295566D01*
X397328Y2295714D01*
X397421Y2295871D01*
X397929D01*
Y2289445D01*
D02*
G37*
G36*
X1922959Y1736591D02*
Y1736581D01*
Y1736544D01*
Y1736498D01*
Y1736433D01*
X1922950Y1736350D01*
Y1736258D01*
X1922941Y1736147D01*
X1922932Y1736036D01*
X1922904Y1735786D01*
X1922867Y1735527D01*
X1922811Y1735278D01*
X1922775Y1735157D01*
X1922738Y1735047D01*
Y1735037D01*
X1922728Y1735019D01*
X1922710Y1734991D01*
X1922691Y1734954D01*
X1922636Y1734852D01*
X1922553Y1734723D01*
X1922442Y1734575D01*
X1922312Y1734427D01*
X1922146Y1734270D01*
X1921942Y1734131D01*
X1921933D01*
X1921915Y1734113D01*
X1921887Y1734104D01*
X1921841Y1734076D01*
X1921785Y1734048D01*
X1921711Y1734020D01*
X1921637Y1733992D01*
X1921545Y1733956D01*
X1921443Y1733919D01*
X1921332Y1733891D01*
X1921212Y1733863D01*
X1921073Y1733835D01*
X1920935Y1733817D01*
X1920787Y1733798D01*
X1920454Y1733780D01*
X1920371D01*
X1920306Y1733789D01*
X1920232D01*
X1920140Y1733798D01*
X1920038Y1733808D01*
X1919936Y1733817D01*
X1919705Y1733854D01*
X1919455Y1733909D01*
X1919215Y1733983D01*
X1918984Y1734085D01*
X1918975D01*
X1918956Y1734104D01*
X1918928Y1734122D01*
X1918891Y1734140D01*
X1918790Y1734214D01*
X1918669Y1734316D01*
X1918531Y1734446D01*
X1918401Y1734594D01*
X1918272Y1734778D01*
X1918170Y1734982D01*
Y1734991D01*
X1918161Y1735009D01*
X1918152Y1735047D01*
X1918133Y1735093D01*
X1918115Y1735148D01*
X1918096Y1735222D01*
X1918069Y1735305D01*
X1918050Y1735407D01*
X1918032Y1735518D01*
X1918004Y1735638D01*
X1917985Y1735768D01*
X1917967Y1735906D01*
X1917948Y1736064D01*
X1917939Y1736230D01*
X1917930Y1736406D01*
Y1736591D01*
Y1740289D01*
X1918781D01*
Y1736591D01*
Y1736581D01*
Y1736553D01*
Y1736507D01*
Y1736452D01*
X1918790Y1736387D01*
Y1736304D01*
X1918799Y1736128D01*
X1918817Y1735925D01*
X1918845Y1735721D01*
X1918882Y1735527D01*
X1918901Y1735444D01*
X1918928Y1735361D01*
X1918938Y1735342D01*
X1918956Y1735296D01*
X1919002Y1735231D01*
X1919058Y1735139D01*
X1919123Y1735047D01*
X1919215Y1734945D01*
X1919326Y1734843D01*
X1919455Y1734760D01*
X1919474Y1734751D01*
X1919520Y1734723D01*
X1919603Y1734695D01*
X1919714Y1734658D01*
X1919844Y1734612D01*
X1920010Y1734584D01*
X1920186Y1734556D01*
X1920380Y1734547D01*
X1920472D01*
X1920528Y1734556D01*
X1920611D01*
X1920694Y1734566D01*
X1920898Y1734603D01*
X1921120Y1734649D01*
X1921332Y1734723D01*
X1921536Y1734825D01*
X1921628Y1734889D01*
X1921711Y1734963D01*
X1921721Y1734973D01*
X1921730Y1734982D01*
X1921748Y1735009D01*
X1921776Y1735047D01*
X1921804Y1735102D01*
X1921841Y1735157D01*
X1921878Y1735241D01*
X1921915Y1735324D01*
X1921952Y1735426D01*
X1921979Y1735546D01*
X1922016Y1735685D01*
X1922044Y1735832D01*
X1922072Y1735999D01*
X1922090Y1736174D01*
X1922109Y1736378D01*
Y1736591D01*
Y1740289D01*
X1922959D01*
Y1736591D01*
D02*
G37*
G36*
X1541960D02*
Y1736581D01*
Y1736544D01*
Y1736498D01*
Y1736433D01*
X1541950Y1736350D01*
Y1736258D01*
X1541941Y1736147D01*
X1541932Y1736036D01*
X1541904Y1735786D01*
X1541867Y1735527D01*
X1541812Y1735278D01*
X1541775Y1735157D01*
X1541738Y1735047D01*
Y1735037D01*
X1541728Y1735019D01*
X1541710Y1734991D01*
X1541691Y1734954D01*
X1541636Y1734852D01*
X1541553Y1734723D01*
X1541442Y1734575D01*
X1541312Y1734427D01*
X1541146Y1734270D01*
X1540943Y1734131D01*
X1540933D01*
X1540915Y1734113D01*
X1540887Y1734104D01*
X1540841Y1734076D01*
X1540785Y1734048D01*
X1540711Y1734020D01*
X1540637Y1733992D01*
X1540545Y1733956D01*
X1540443Y1733919D01*
X1540332Y1733891D01*
X1540212Y1733863D01*
X1540073Y1733835D01*
X1539935Y1733817D01*
X1539787Y1733798D01*
X1539454Y1733780D01*
X1539371D01*
X1539306Y1733789D01*
X1539232D01*
X1539140Y1733798D01*
X1539038Y1733808D01*
X1538936Y1733817D01*
X1538705Y1733854D01*
X1538455Y1733909D01*
X1538215Y1733983D01*
X1537984Y1734085D01*
X1537975D01*
X1537956Y1734104D01*
X1537928Y1734122D01*
X1537891Y1734140D01*
X1537790Y1734214D01*
X1537670Y1734316D01*
X1537531Y1734446D01*
X1537401Y1734594D01*
X1537272Y1734778D01*
X1537170Y1734982D01*
Y1734991D01*
X1537161Y1735009D01*
X1537152Y1735047D01*
X1537133Y1735093D01*
X1537115Y1735148D01*
X1537096Y1735222D01*
X1537069Y1735305D01*
X1537050Y1735407D01*
X1537032Y1735518D01*
X1537004Y1735638D01*
X1536985Y1735768D01*
X1536967Y1735906D01*
X1536948Y1736064D01*
X1536939Y1736230D01*
X1536930Y1736406D01*
Y1736591D01*
Y1740289D01*
X1537780D01*
Y1736591D01*
Y1736581D01*
Y1736553D01*
Y1736507D01*
Y1736452D01*
X1537790Y1736387D01*
Y1736304D01*
X1537799Y1736128D01*
X1537817Y1735925D01*
X1537845Y1735721D01*
X1537882Y1735527D01*
X1537901Y1735444D01*
X1537928Y1735361D01*
X1537938Y1735342D01*
X1537956Y1735296D01*
X1538002Y1735231D01*
X1538058Y1735139D01*
X1538123Y1735047D01*
X1538215Y1734945D01*
X1538326Y1734843D01*
X1538455Y1734760D01*
X1538474Y1734751D01*
X1538520Y1734723D01*
X1538603Y1734695D01*
X1538714Y1734658D01*
X1538844Y1734612D01*
X1539010Y1734584D01*
X1539186Y1734556D01*
X1539380Y1734547D01*
X1539472D01*
X1539528Y1734556D01*
X1539611D01*
X1539694Y1734566D01*
X1539898Y1734603D01*
X1540120Y1734649D01*
X1540332Y1734723D01*
X1540536Y1734825D01*
X1540628Y1734889D01*
X1540711Y1734963D01*
X1540721Y1734973D01*
X1540730Y1734982D01*
X1540748Y1735009D01*
X1540776Y1735047D01*
X1540804Y1735102D01*
X1540841Y1735157D01*
X1540878Y1735241D01*
X1540915Y1735324D01*
X1540952Y1735426D01*
X1540979Y1735546D01*
X1541016Y1735685D01*
X1541044Y1735832D01*
X1541072Y1735999D01*
X1541090Y1736174D01*
X1541109Y1736378D01*
Y1736591D01*
Y1740289D01*
X1541960D01*
Y1736591D01*
D02*
G37*
G36*
X1160959D02*
Y1736581D01*
Y1736544D01*
Y1736498D01*
Y1736433D01*
X1160950Y1736350D01*
Y1736258D01*
X1160941Y1736147D01*
X1160932Y1736036D01*
X1160904Y1735786D01*
X1160867Y1735527D01*
X1160811Y1735278D01*
X1160775Y1735157D01*
X1160738Y1735047D01*
Y1735037D01*
X1160728Y1735019D01*
X1160710Y1734991D01*
X1160691Y1734954D01*
X1160636Y1734852D01*
X1160553Y1734723D01*
X1160442Y1734575D01*
X1160312Y1734427D01*
X1160146Y1734270D01*
X1159942Y1734131D01*
X1159933D01*
X1159915Y1734113D01*
X1159887Y1734104D01*
X1159841Y1734076D01*
X1159785Y1734048D01*
X1159711Y1734020D01*
X1159637Y1733992D01*
X1159545Y1733956D01*
X1159443Y1733919D01*
X1159332Y1733891D01*
X1159212Y1733863D01*
X1159073Y1733835D01*
X1158935Y1733817D01*
X1158787Y1733798D01*
X1158454Y1733780D01*
X1158371D01*
X1158306Y1733789D01*
X1158232D01*
X1158140Y1733798D01*
X1158038Y1733808D01*
X1157936Y1733817D01*
X1157705Y1733854D01*
X1157455Y1733909D01*
X1157215Y1733983D01*
X1156984Y1734085D01*
X1156975D01*
X1156956Y1734104D01*
X1156928Y1734122D01*
X1156891Y1734140D01*
X1156790Y1734214D01*
X1156669Y1734316D01*
X1156531Y1734446D01*
X1156401Y1734594D01*
X1156272Y1734778D01*
X1156170Y1734982D01*
Y1734991D01*
X1156161Y1735009D01*
X1156152Y1735047D01*
X1156133Y1735093D01*
X1156115Y1735148D01*
X1156096Y1735222D01*
X1156069Y1735305D01*
X1156050Y1735407D01*
X1156032Y1735518D01*
X1156004Y1735638D01*
X1155985Y1735768D01*
X1155967Y1735906D01*
X1155948Y1736064D01*
X1155939Y1736230D01*
X1155930Y1736406D01*
Y1736591D01*
Y1740289D01*
X1156780D01*
Y1736591D01*
Y1736581D01*
Y1736553D01*
Y1736507D01*
Y1736452D01*
X1156790Y1736387D01*
Y1736304D01*
X1156799Y1736128D01*
X1156817Y1735925D01*
X1156845Y1735721D01*
X1156882Y1735527D01*
X1156901Y1735444D01*
X1156928Y1735361D01*
X1156938Y1735342D01*
X1156956Y1735296D01*
X1157002Y1735231D01*
X1157058Y1735139D01*
X1157123Y1735047D01*
X1157215Y1734945D01*
X1157326Y1734843D01*
X1157455Y1734760D01*
X1157474Y1734751D01*
X1157520Y1734723D01*
X1157603Y1734695D01*
X1157714Y1734658D01*
X1157844Y1734612D01*
X1158010Y1734584D01*
X1158186Y1734556D01*
X1158380Y1734547D01*
X1158472D01*
X1158528Y1734556D01*
X1158611D01*
X1158694Y1734566D01*
X1158898Y1734603D01*
X1159120Y1734649D01*
X1159332Y1734723D01*
X1159536Y1734825D01*
X1159628Y1734889D01*
X1159711Y1734963D01*
X1159721Y1734973D01*
X1159730Y1734982D01*
X1159748Y1735009D01*
X1159776Y1735047D01*
X1159804Y1735102D01*
X1159841Y1735157D01*
X1159878Y1735241D01*
X1159915Y1735324D01*
X1159952Y1735426D01*
X1159979Y1735546D01*
X1160016Y1735685D01*
X1160044Y1735832D01*
X1160072Y1735999D01*
X1160090Y1736174D01*
X1160109Y1736378D01*
Y1736591D01*
Y1740289D01*
X1160959D01*
Y1736591D01*
D02*
G37*
G36*
X779959D02*
Y1736581D01*
Y1736544D01*
Y1736498D01*
Y1736433D01*
X779950Y1736350D01*
Y1736258D01*
X779941Y1736147D01*
X779932Y1736036D01*
X779904Y1735786D01*
X779867Y1735527D01*
X779811Y1735278D01*
X779775Y1735157D01*
X779738Y1735047D01*
Y1735037D01*
X779728Y1735019D01*
X779710Y1734991D01*
X779691Y1734954D01*
X779636Y1734852D01*
X779553Y1734723D01*
X779442Y1734575D01*
X779312Y1734427D01*
X779146Y1734270D01*
X778942Y1734131D01*
X778933D01*
X778915Y1734113D01*
X778887Y1734104D01*
X778841Y1734076D01*
X778785Y1734048D01*
X778711Y1734020D01*
X778637Y1733992D01*
X778545Y1733956D01*
X778443Y1733919D01*
X778332Y1733891D01*
X778212Y1733863D01*
X778073Y1733835D01*
X777935Y1733817D01*
X777787Y1733798D01*
X777454Y1733780D01*
X777371D01*
X777306Y1733789D01*
X777232D01*
X777140Y1733798D01*
X777038Y1733808D01*
X776936Y1733817D01*
X776705Y1733854D01*
X776455Y1733909D01*
X776215Y1733983D01*
X775984Y1734085D01*
X775975D01*
X775956Y1734104D01*
X775928Y1734122D01*
X775891Y1734140D01*
X775790Y1734214D01*
X775669Y1734316D01*
X775531Y1734446D01*
X775401Y1734594D01*
X775272Y1734778D01*
X775170Y1734982D01*
Y1734991D01*
X775161Y1735009D01*
X775152Y1735047D01*
X775133Y1735093D01*
X775115Y1735148D01*
X775096Y1735222D01*
X775069Y1735305D01*
X775050Y1735407D01*
X775032Y1735518D01*
X775004Y1735638D01*
X774985Y1735768D01*
X774967Y1735906D01*
X774948Y1736064D01*
X774939Y1736230D01*
X774930Y1736406D01*
Y1736591D01*
Y1740289D01*
X775780D01*
Y1736591D01*
Y1736581D01*
Y1736553D01*
Y1736507D01*
Y1736452D01*
X775790Y1736387D01*
Y1736304D01*
X775799Y1736128D01*
X775817Y1735925D01*
X775845Y1735721D01*
X775882Y1735527D01*
X775901Y1735444D01*
X775928Y1735361D01*
X775938Y1735342D01*
X775956Y1735296D01*
X776002Y1735231D01*
X776058Y1735139D01*
X776123Y1735047D01*
X776215Y1734945D01*
X776326Y1734843D01*
X776455Y1734760D01*
X776474Y1734751D01*
X776520Y1734723D01*
X776603Y1734695D01*
X776714Y1734658D01*
X776844Y1734612D01*
X777010Y1734584D01*
X777186Y1734556D01*
X777380Y1734547D01*
X777472D01*
X777528Y1734556D01*
X777611D01*
X777694Y1734566D01*
X777898Y1734603D01*
X778120Y1734649D01*
X778332Y1734723D01*
X778536Y1734825D01*
X778628Y1734889D01*
X778711Y1734963D01*
X778721Y1734973D01*
X778730Y1734982D01*
X778748Y1735009D01*
X778776Y1735047D01*
X778804Y1735102D01*
X778841Y1735157D01*
X778878Y1735241D01*
X778915Y1735324D01*
X778952Y1735426D01*
X778979Y1735546D01*
X779016Y1735685D01*
X779044Y1735832D01*
X779072Y1735999D01*
X779090Y1736174D01*
X779109Y1736378D01*
Y1736591D01*
Y1740289D01*
X779959D01*
Y1736591D01*
D02*
G37*
G36*
X398960D02*
Y1736581D01*
Y1736544D01*
Y1736498D01*
Y1736433D01*
X398950Y1736350D01*
Y1736258D01*
X398941Y1736147D01*
X398932Y1736036D01*
X398904Y1735786D01*
X398867Y1735527D01*
X398811Y1735278D01*
X398775Y1735157D01*
X398738Y1735047D01*
Y1735037D01*
X398728Y1735019D01*
X398710Y1734991D01*
X398691Y1734954D01*
X398636Y1734852D01*
X398553Y1734723D01*
X398442Y1734575D01*
X398312Y1734427D01*
X398146Y1734270D01*
X397943Y1734131D01*
X397933D01*
X397915Y1734113D01*
X397887Y1734104D01*
X397841Y1734076D01*
X397785Y1734048D01*
X397711Y1734020D01*
X397637Y1733992D01*
X397545Y1733956D01*
X397443Y1733919D01*
X397332Y1733891D01*
X397212Y1733863D01*
X397073Y1733835D01*
X396935Y1733817D01*
X396787Y1733798D01*
X396454Y1733780D01*
X396371D01*
X396306Y1733789D01*
X396232D01*
X396140Y1733798D01*
X396038Y1733808D01*
X395936Y1733817D01*
X395705Y1733854D01*
X395455Y1733909D01*
X395215Y1733983D01*
X394984Y1734085D01*
X394975D01*
X394956Y1734104D01*
X394928Y1734122D01*
X394891Y1734140D01*
X394790Y1734214D01*
X394669Y1734316D01*
X394531Y1734446D01*
X394401Y1734594D01*
X394272Y1734778D01*
X394170Y1734982D01*
Y1734991D01*
X394161Y1735009D01*
X394152Y1735047D01*
X394133Y1735093D01*
X394115Y1735148D01*
X394096Y1735222D01*
X394069Y1735305D01*
X394050Y1735407D01*
X394032Y1735518D01*
X394004Y1735638D01*
X393985Y1735768D01*
X393967Y1735906D01*
X393948Y1736064D01*
X393939Y1736230D01*
X393930Y1736406D01*
Y1736591D01*
Y1740289D01*
X394781D01*
Y1736591D01*
Y1736581D01*
Y1736553D01*
Y1736507D01*
Y1736452D01*
X394790Y1736387D01*
Y1736304D01*
X394799Y1736128D01*
X394817Y1735925D01*
X394845Y1735721D01*
X394882Y1735527D01*
X394901Y1735444D01*
X394928Y1735361D01*
X394938Y1735342D01*
X394956Y1735296D01*
X395002Y1735231D01*
X395058Y1735139D01*
X395123Y1735047D01*
X395215Y1734945D01*
X395326Y1734843D01*
X395455Y1734760D01*
X395474Y1734751D01*
X395520Y1734723D01*
X395603Y1734695D01*
X395714Y1734658D01*
X395844Y1734612D01*
X396010Y1734584D01*
X396186Y1734556D01*
X396380Y1734547D01*
X396472D01*
X396528Y1734556D01*
X396611D01*
X396694Y1734566D01*
X396898Y1734603D01*
X397120Y1734649D01*
X397332Y1734723D01*
X397536Y1734825D01*
X397628Y1734889D01*
X397711Y1734963D01*
X397721Y1734973D01*
X397730Y1734982D01*
X397748Y1735009D01*
X397776Y1735047D01*
X397804Y1735102D01*
X397841Y1735157D01*
X397878Y1735241D01*
X397915Y1735324D01*
X397952Y1735426D01*
X397979Y1735546D01*
X398016Y1735685D01*
X398044Y1735832D01*
X398072Y1735999D01*
X398090Y1736174D01*
X398109Y1736378D01*
Y1736591D01*
Y1740289D01*
X398960D01*
Y1736591D01*
D02*
G37*
G36*
X1927009Y1733891D02*
X1926223D01*
Y1738893D01*
X1926214Y1738883D01*
X1926168Y1738846D01*
X1926112Y1738791D01*
X1926020Y1738726D01*
X1925918Y1738643D01*
X1925789Y1738551D01*
X1925641Y1738449D01*
X1925474Y1738347D01*
X1925465D01*
X1925456Y1738338D01*
X1925400Y1738301D01*
X1925308Y1738255D01*
X1925197Y1738199D01*
X1925067Y1738134D01*
X1924929Y1738070D01*
X1924790Y1738005D01*
X1924651Y1737950D01*
Y1738708D01*
X1924661D01*
X1924679Y1738726D01*
X1924716Y1738736D01*
X1924762Y1738763D01*
X1924818Y1738791D01*
X1924883Y1738828D01*
X1925040Y1738920D01*
X1925225Y1739022D01*
X1925410Y1739152D01*
X1925604Y1739299D01*
X1925798Y1739457D01*
X1925807Y1739466D01*
X1925816Y1739475D01*
X1925844Y1739503D01*
X1925881Y1739531D01*
X1925964Y1739623D01*
X1926075Y1739734D01*
X1926186Y1739863D01*
X1926306Y1740011D01*
X1926408Y1740159D01*
X1926501Y1740316D01*
X1927009D01*
Y1733891D01*
D02*
G37*
G36*
X1546009D02*
X1545223D01*
Y1738893D01*
X1545214Y1738883D01*
X1545168Y1738846D01*
X1545112Y1738791D01*
X1545020Y1738726D01*
X1544918Y1738643D01*
X1544789Y1738551D01*
X1544641Y1738449D01*
X1544474Y1738347D01*
X1544465D01*
X1544456Y1738338D01*
X1544400Y1738301D01*
X1544308Y1738255D01*
X1544197Y1738199D01*
X1544068Y1738134D01*
X1543929Y1738070D01*
X1543790Y1738005D01*
X1543651Y1737950D01*
Y1738708D01*
X1543661D01*
X1543679Y1738726D01*
X1543716Y1738736D01*
X1543762Y1738763D01*
X1543818Y1738791D01*
X1543883Y1738828D01*
X1544040Y1738920D01*
X1544225Y1739022D01*
X1544410Y1739152D01*
X1544604Y1739299D01*
X1544798Y1739457D01*
X1544807Y1739466D01*
X1544816Y1739475D01*
X1544844Y1739503D01*
X1544881Y1739531D01*
X1544964Y1739623D01*
X1545075Y1739734D01*
X1545186Y1739863D01*
X1545306Y1740011D01*
X1545408Y1740159D01*
X1545500Y1740316D01*
X1546009D01*
Y1733891D01*
D02*
G37*
G36*
X1165009D02*
X1164223D01*
Y1738893D01*
X1164214Y1738883D01*
X1164168Y1738846D01*
X1164112Y1738791D01*
X1164020Y1738726D01*
X1163918Y1738643D01*
X1163789Y1738551D01*
X1163641Y1738449D01*
X1163474Y1738347D01*
X1163465D01*
X1163456Y1738338D01*
X1163400Y1738301D01*
X1163308Y1738255D01*
X1163197Y1738199D01*
X1163067Y1738134D01*
X1162929Y1738070D01*
X1162790Y1738005D01*
X1162651Y1737950D01*
Y1738708D01*
X1162661D01*
X1162679Y1738726D01*
X1162716Y1738736D01*
X1162762Y1738763D01*
X1162818Y1738791D01*
X1162883Y1738828D01*
X1163040Y1738920D01*
X1163225Y1739022D01*
X1163410Y1739152D01*
X1163604Y1739299D01*
X1163798Y1739457D01*
X1163807Y1739466D01*
X1163816Y1739475D01*
X1163844Y1739503D01*
X1163881Y1739531D01*
X1163964Y1739623D01*
X1164075Y1739734D01*
X1164186Y1739863D01*
X1164306Y1740011D01*
X1164408Y1740159D01*
X1164501Y1740316D01*
X1165009D01*
Y1733891D01*
D02*
G37*
G36*
X784009D02*
X783223D01*
Y1738893D01*
X783214Y1738883D01*
X783168Y1738846D01*
X783112Y1738791D01*
X783020Y1738726D01*
X782918Y1738643D01*
X782789Y1738551D01*
X782641Y1738449D01*
X782474Y1738347D01*
X782465D01*
X782456Y1738338D01*
X782400Y1738301D01*
X782308Y1738255D01*
X782197Y1738199D01*
X782067Y1738134D01*
X781929Y1738070D01*
X781790Y1738005D01*
X781651Y1737950D01*
Y1738708D01*
X781661D01*
X781679Y1738726D01*
X781716Y1738736D01*
X781762Y1738763D01*
X781818Y1738791D01*
X781883Y1738828D01*
X782040Y1738920D01*
X782225Y1739022D01*
X782410Y1739152D01*
X782604Y1739299D01*
X782798Y1739457D01*
X782807Y1739466D01*
X782816Y1739475D01*
X782844Y1739503D01*
X782881Y1739531D01*
X782964Y1739623D01*
X783075Y1739734D01*
X783186Y1739863D01*
X783306Y1740011D01*
X783408Y1740159D01*
X783501Y1740316D01*
X784009D01*
Y1733891D01*
D02*
G37*
G36*
X403009D02*
X402223D01*
Y1738893D01*
X402214Y1738883D01*
X402168Y1738846D01*
X402112Y1738791D01*
X402020Y1738726D01*
X401918Y1738643D01*
X401789Y1738551D01*
X401641Y1738449D01*
X401474Y1738347D01*
X401465D01*
X401456Y1738338D01*
X401400Y1738301D01*
X401308Y1738255D01*
X401197Y1738199D01*
X401068Y1738134D01*
X400929Y1738070D01*
X400790Y1738005D01*
X400651Y1737950D01*
Y1738708D01*
X400661D01*
X400679Y1738726D01*
X400716Y1738736D01*
X400762Y1738763D01*
X400818Y1738791D01*
X400883Y1738828D01*
X401040Y1738920D01*
X401225Y1739022D01*
X401410Y1739152D01*
X401604Y1739299D01*
X401798Y1739457D01*
X401807Y1739466D01*
X401816Y1739475D01*
X401844Y1739503D01*
X401881Y1739531D01*
X401964Y1739623D01*
X402075Y1739734D01*
X402186Y1739863D01*
X402306Y1740011D01*
X402408Y1740159D01*
X402500Y1740316D01*
X403009D01*
Y1733891D01*
D02*
G37*
G36*
X1843101Y1155599D02*
X1843193D01*
X1843286Y1155590D01*
X1843406Y1155580D01*
X1843526Y1155562D01*
X1843794Y1155516D01*
X1844090Y1155451D01*
X1844386Y1155358D01*
X1844673Y1155229D01*
X1844682Y1155220D01*
X1844709Y1155210D01*
X1844747Y1155192D01*
X1844793Y1155155D01*
X1844857Y1155118D01*
X1844931Y1155072D01*
X1845098Y1154952D01*
X1845283Y1154794D01*
X1845468Y1154610D01*
X1845653Y1154397D01*
X1845810Y1154147D01*
X1845819Y1154138D01*
X1845828Y1154110D01*
X1845847Y1154073D01*
X1845874Y1154027D01*
X1845902Y1153953D01*
X1845930Y1153879D01*
X1845967Y1153787D01*
X1846004Y1153685D01*
X1846041Y1153574D01*
X1846078Y1153454D01*
X1846133Y1153195D01*
X1846180Y1152899D01*
X1846198Y1152594D01*
Y1152502D01*
X1846189Y1152437D01*
X1846180Y1152354D01*
X1846170Y1152252D01*
X1846161Y1152150D01*
X1846133Y1152030D01*
X1846078Y1151780D01*
X1845995Y1151503D01*
X1845939Y1151364D01*
X1845874Y1151235D01*
X1845791Y1151105D01*
X1845708Y1150976D01*
X1845699Y1150967D01*
X1845690Y1150948D01*
X1845662Y1150911D01*
X1845616Y1150865D01*
X1845569Y1150819D01*
X1845505Y1150754D01*
X1845431Y1150689D01*
X1845357Y1150615D01*
X1845264Y1150542D01*
X1845153Y1150468D01*
X1845042Y1150384D01*
X1844922Y1150310D01*
X1844783Y1150246D01*
X1844645Y1150172D01*
X1844497Y1150116D01*
X1844330Y1150061D01*
X1844136Y1150893D01*
X1844146D01*
X1844164Y1150902D01*
X1844201Y1150920D01*
X1844247Y1150939D01*
X1844303Y1150957D01*
X1844377Y1150985D01*
X1844525Y1151059D01*
X1844691Y1151152D01*
X1844857Y1151263D01*
X1845015Y1151401D01*
X1845153Y1151549D01*
X1845172Y1151568D01*
X1845209Y1151623D01*
X1845255Y1151716D01*
X1845320Y1151836D01*
X1845375Y1151993D01*
X1845431Y1152169D01*
X1845468Y1152381D01*
X1845477Y1152613D01*
Y1152686D01*
X1845468Y1152733D01*
Y1152797D01*
X1845458Y1152871D01*
X1845431Y1153047D01*
X1845394Y1153241D01*
X1845329Y1153445D01*
X1845237Y1153657D01*
X1845116Y1153851D01*
Y1153861D01*
X1845098Y1153870D01*
X1845052Y1153935D01*
X1844978Y1154018D01*
X1844867Y1154119D01*
X1844728Y1154240D01*
X1844571Y1154351D01*
X1844377Y1154452D01*
X1844164Y1154545D01*
X1844155D01*
X1844136Y1154554D01*
X1844109Y1154563D01*
X1844062Y1154573D01*
X1844007Y1154591D01*
X1843942Y1154610D01*
X1843785Y1154637D01*
X1843600Y1154674D01*
X1843397Y1154711D01*
X1843175Y1154730D01*
X1842934Y1154739D01*
X1842925D01*
X1842897D01*
X1842851D01*
X1842796D01*
X1842731Y1154730D01*
X1842648D01*
X1842555Y1154721D01*
X1842454Y1154711D01*
X1842232Y1154684D01*
X1841991Y1154637D01*
X1841751Y1154582D01*
X1841511Y1154508D01*
X1841501D01*
X1841483Y1154499D01*
X1841455Y1154480D01*
X1841409Y1154462D01*
X1841298Y1154406D01*
X1841169Y1154323D01*
X1841021Y1154221D01*
X1840863Y1154092D01*
X1840725Y1153944D01*
X1840595Y1153768D01*
Y1153759D01*
X1840586Y1153740D01*
X1840567Y1153713D01*
X1840549Y1153676D01*
X1840531Y1153630D01*
X1840503Y1153574D01*
X1840447Y1153445D01*
X1840392Y1153278D01*
X1840346Y1153093D01*
X1840309Y1152890D01*
X1840299Y1152677D01*
Y1152613D01*
X1840309Y1152557D01*
Y1152492D01*
X1840318Y1152428D01*
X1840355Y1152261D01*
X1840401Y1152067D01*
X1840475Y1151873D01*
X1840577Y1151669D01*
X1840632Y1151568D01*
X1840706Y1151475D01*
X1840715Y1151466D01*
X1840725Y1151457D01*
X1840752Y1151429D01*
X1840780Y1151392D01*
X1840826Y1151355D01*
X1840882Y1151309D01*
X1840937Y1151253D01*
X1841011Y1151207D01*
X1841095Y1151152D01*
X1841187Y1151087D01*
X1841279Y1151031D01*
X1841390Y1150976D01*
X1841511Y1150930D01*
X1841640Y1150884D01*
X1841779Y1150837D01*
X1841927Y1150800D01*
X1841714Y1149950D01*
X1841705D01*
X1841668Y1149959D01*
X1841612Y1149977D01*
X1841538Y1150005D01*
X1841455Y1150033D01*
X1841353Y1150070D01*
X1841242Y1150116D01*
X1841122Y1150172D01*
X1840863Y1150301D01*
X1840605Y1150468D01*
X1840475Y1150569D01*
X1840346Y1150671D01*
X1840235Y1150782D01*
X1840124Y1150911D01*
X1840114Y1150920D01*
X1840096Y1150939D01*
X1840078Y1150985D01*
X1840040Y1151031D01*
X1839994Y1151105D01*
X1839948Y1151179D01*
X1839902Y1151281D01*
X1839856Y1151383D01*
X1839800Y1151503D01*
X1839754Y1151632D01*
X1839708Y1151771D01*
X1839661Y1151919D01*
X1839624Y1152076D01*
X1839606Y1152243D01*
X1839588Y1152418D01*
X1839578Y1152603D01*
Y1152705D01*
X1839588Y1152779D01*
Y1152862D01*
X1839597Y1152964D01*
X1839615Y1153075D01*
X1839634Y1153204D01*
X1839680Y1153472D01*
X1839754Y1153750D01*
X1839856Y1154027D01*
X1839920Y1154156D01*
X1839994Y1154286D01*
X1840004Y1154295D01*
X1840013Y1154314D01*
X1840040Y1154351D01*
X1840078Y1154388D01*
X1840114Y1154443D01*
X1840170Y1154508D01*
X1840235Y1154582D01*
X1840309Y1154656D01*
X1840392Y1154730D01*
X1840475Y1154813D01*
X1840688Y1154979D01*
X1840937Y1155136D01*
X1841215Y1155275D01*
X1841224D01*
X1841252Y1155294D01*
X1841298Y1155303D01*
X1841353Y1155331D01*
X1841427Y1155349D01*
X1841520Y1155377D01*
X1841622Y1155414D01*
X1841732Y1155442D01*
X1841853Y1155469D01*
X1841991Y1155506D01*
X1842278Y1155553D01*
X1842601Y1155590D01*
X1842934Y1155608D01*
X1842944D01*
X1842981D01*
X1843036D01*
X1843101Y1155599D01*
D02*
G37*
G36*
X1462101D02*
X1462193D01*
X1462286Y1155590D01*
X1462406Y1155580D01*
X1462526Y1155562D01*
X1462794Y1155516D01*
X1463090Y1155451D01*
X1463386Y1155358D01*
X1463673Y1155229D01*
X1463682Y1155220D01*
X1463710Y1155210D01*
X1463746Y1155192D01*
X1463793Y1155155D01*
X1463858Y1155118D01*
X1463931Y1155072D01*
X1464098Y1154952D01*
X1464283Y1154794D01*
X1464468Y1154610D01*
X1464653Y1154397D01*
X1464810Y1154147D01*
X1464819Y1154138D01*
X1464828Y1154110D01*
X1464847Y1154073D01*
X1464875Y1154027D01*
X1464902Y1153953D01*
X1464930Y1153879D01*
X1464967Y1153787D01*
X1465004Y1153685D01*
X1465041Y1153574D01*
X1465078Y1153454D01*
X1465133Y1153195D01*
X1465180Y1152899D01*
X1465198Y1152594D01*
Y1152502D01*
X1465189Y1152437D01*
X1465180Y1152354D01*
X1465170Y1152252D01*
X1465161Y1152150D01*
X1465133Y1152030D01*
X1465078Y1151780D01*
X1464995Y1151503D01*
X1464939Y1151364D01*
X1464875Y1151235D01*
X1464791Y1151105D01*
X1464708Y1150976D01*
X1464699Y1150967D01*
X1464690Y1150948D01*
X1464662Y1150911D01*
X1464616Y1150865D01*
X1464569Y1150819D01*
X1464505Y1150754D01*
X1464431Y1150689D01*
X1464357Y1150615D01*
X1464264Y1150542D01*
X1464153Y1150468D01*
X1464042Y1150384D01*
X1463922Y1150310D01*
X1463784Y1150246D01*
X1463645Y1150172D01*
X1463497Y1150116D01*
X1463331Y1150061D01*
X1463136Y1150893D01*
X1463146D01*
X1463164Y1150902D01*
X1463201Y1150920D01*
X1463247Y1150939D01*
X1463303Y1150957D01*
X1463377Y1150985D01*
X1463525Y1151059D01*
X1463691Y1151152D01*
X1463858Y1151263D01*
X1464015Y1151401D01*
X1464153Y1151549D01*
X1464172Y1151568D01*
X1464209Y1151623D01*
X1464255Y1151716D01*
X1464320Y1151836D01*
X1464375Y1151993D01*
X1464431Y1152169D01*
X1464468Y1152381D01*
X1464477Y1152613D01*
Y1152686D01*
X1464468Y1152733D01*
Y1152797D01*
X1464458Y1152871D01*
X1464431Y1153047D01*
X1464394Y1153241D01*
X1464329Y1153445D01*
X1464236Y1153657D01*
X1464116Y1153851D01*
Y1153861D01*
X1464098Y1153870D01*
X1464052Y1153935D01*
X1463978Y1154018D01*
X1463867Y1154119D01*
X1463728Y1154240D01*
X1463571Y1154351D01*
X1463377Y1154452D01*
X1463164Y1154545D01*
X1463155D01*
X1463136Y1154554D01*
X1463109Y1154563D01*
X1463062Y1154573D01*
X1463007Y1154591D01*
X1462942Y1154610D01*
X1462785Y1154637D01*
X1462600Y1154674D01*
X1462397Y1154711D01*
X1462175Y1154730D01*
X1461934Y1154739D01*
X1461925D01*
X1461897D01*
X1461851D01*
X1461796D01*
X1461731Y1154730D01*
X1461648D01*
X1461555Y1154721D01*
X1461454Y1154711D01*
X1461232Y1154684D01*
X1460991Y1154637D01*
X1460751Y1154582D01*
X1460511Y1154508D01*
X1460501D01*
X1460483Y1154499D01*
X1460455Y1154480D01*
X1460409Y1154462D01*
X1460298Y1154406D01*
X1460168Y1154323D01*
X1460020Y1154221D01*
X1459863Y1154092D01*
X1459725Y1153944D01*
X1459595Y1153768D01*
Y1153759D01*
X1459586Y1153740D01*
X1459568Y1153713D01*
X1459549Y1153676D01*
X1459530Y1153630D01*
X1459503Y1153574D01*
X1459447Y1153445D01*
X1459392Y1153278D01*
X1459346Y1153093D01*
X1459309Y1152890D01*
X1459299Y1152677D01*
Y1152613D01*
X1459309Y1152557D01*
Y1152492D01*
X1459318Y1152428D01*
X1459355Y1152261D01*
X1459401Y1152067D01*
X1459475Y1151873D01*
X1459577Y1151669D01*
X1459632Y1151568D01*
X1459706Y1151475D01*
X1459715Y1151466D01*
X1459725Y1151457D01*
X1459752Y1151429D01*
X1459780Y1151392D01*
X1459826Y1151355D01*
X1459882Y1151309D01*
X1459937Y1151253D01*
X1460011Y1151207D01*
X1460094Y1151152D01*
X1460187Y1151087D01*
X1460279Y1151031D01*
X1460390Y1150976D01*
X1460511Y1150930D01*
X1460640Y1150884D01*
X1460779Y1150837D01*
X1460927Y1150800D01*
X1460714Y1149950D01*
X1460705D01*
X1460668Y1149959D01*
X1460612Y1149977D01*
X1460538Y1150005D01*
X1460455Y1150033D01*
X1460353Y1150070D01*
X1460242Y1150116D01*
X1460122Y1150172D01*
X1459863Y1150301D01*
X1459604Y1150468D01*
X1459475Y1150569D01*
X1459346Y1150671D01*
X1459235Y1150782D01*
X1459124Y1150911D01*
X1459115Y1150920D01*
X1459096Y1150939D01*
X1459077Y1150985D01*
X1459041Y1151031D01*
X1458994Y1151105D01*
X1458948Y1151179D01*
X1458902Y1151281D01*
X1458856Y1151383D01*
X1458800Y1151503D01*
X1458754Y1151632D01*
X1458708Y1151771D01*
X1458661Y1151919D01*
X1458625Y1152076D01*
X1458606Y1152243D01*
X1458587Y1152418D01*
X1458578Y1152603D01*
Y1152705D01*
X1458587Y1152779D01*
Y1152862D01*
X1458597Y1152964D01*
X1458615Y1153075D01*
X1458634Y1153204D01*
X1458680Y1153472D01*
X1458754Y1153750D01*
X1458856Y1154027D01*
X1458920Y1154156D01*
X1458994Y1154286D01*
X1459003Y1154295D01*
X1459013Y1154314D01*
X1459041Y1154351D01*
X1459077Y1154388D01*
X1459115Y1154443D01*
X1459170Y1154508D01*
X1459235Y1154582D01*
X1459309Y1154656D01*
X1459392Y1154730D01*
X1459475Y1154813D01*
X1459688Y1154979D01*
X1459937Y1155136D01*
X1460215Y1155275D01*
X1460224D01*
X1460252Y1155294D01*
X1460298Y1155303D01*
X1460353Y1155331D01*
X1460427Y1155349D01*
X1460520Y1155377D01*
X1460621Y1155414D01*
X1460733Y1155442D01*
X1460853Y1155469D01*
X1460991Y1155506D01*
X1461278Y1155553D01*
X1461602Y1155590D01*
X1461934Y1155608D01*
X1461944D01*
X1461981D01*
X1462036D01*
X1462101Y1155599D01*
D02*
G37*
G36*
X1081101D02*
X1081193D01*
X1081286Y1155590D01*
X1081406Y1155580D01*
X1081526Y1155562D01*
X1081794Y1155516D01*
X1082090Y1155451D01*
X1082386Y1155358D01*
X1082673Y1155229D01*
X1082682Y1155220D01*
X1082710Y1155210D01*
X1082747Y1155192D01*
X1082793Y1155155D01*
X1082858Y1155118D01*
X1082931Y1155072D01*
X1083098Y1154952D01*
X1083283Y1154794D01*
X1083468Y1154610D01*
X1083653Y1154397D01*
X1083810Y1154147D01*
X1083819Y1154138D01*
X1083828Y1154110D01*
X1083847Y1154073D01*
X1083875Y1154027D01*
X1083902Y1153953D01*
X1083930Y1153879D01*
X1083967Y1153787D01*
X1084004Y1153685D01*
X1084041Y1153574D01*
X1084078Y1153454D01*
X1084133Y1153195D01*
X1084180Y1152899D01*
X1084198Y1152594D01*
Y1152502D01*
X1084189Y1152437D01*
X1084180Y1152354D01*
X1084170Y1152252D01*
X1084161Y1152150D01*
X1084133Y1152030D01*
X1084078Y1151780D01*
X1083995Y1151503D01*
X1083939Y1151364D01*
X1083875Y1151235D01*
X1083791Y1151105D01*
X1083708Y1150976D01*
X1083699Y1150967D01*
X1083690Y1150948D01*
X1083662Y1150911D01*
X1083616Y1150865D01*
X1083569Y1150819D01*
X1083505Y1150754D01*
X1083431Y1150689D01*
X1083357Y1150615D01*
X1083264Y1150542D01*
X1083153Y1150468D01*
X1083042Y1150384D01*
X1082922Y1150310D01*
X1082784Y1150246D01*
X1082645Y1150172D01*
X1082497Y1150116D01*
X1082330Y1150061D01*
X1082136Y1150893D01*
X1082146D01*
X1082164Y1150902D01*
X1082201Y1150920D01*
X1082247Y1150939D01*
X1082303Y1150957D01*
X1082377Y1150985D01*
X1082525Y1151059D01*
X1082691Y1151152D01*
X1082858Y1151263D01*
X1083015Y1151401D01*
X1083153Y1151549D01*
X1083172Y1151568D01*
X1083209Y1151623D01*
X1083255Y1151716D01*
X1083320Y1151836D01*
X1083375Y1151993D01*
X1083431Y1152169D01*
X1083468Y1152381D01*
X1083477Y1152613D01*
Y1152686D01*
X1083468Y1152733D01*
Y1152797D01*
X1083458Y1152871D01*
X1083431Y1153047D01*
X1083394Y1153241D01*
X1083329Y1153445D01*
X1083236Y1153657D01*
X1083116Y1153851D01*
Y1153861D01*
X1083098Y1153870D01*
X1083052Y1153935D01*
X1082978Y1154018D01*
X1082867Y1154119D01*
X1082728Y1154240D01*
X1082571Y1154351D01*
X1082377Y1154452D01*
X1082164Y1154545D01*
X1082155D01*
X1082136Y1154554D01*
X1082109Y1154563D01*
X1082062Y1154573D01*
X1082007Y1154591D01*
X1081942Y1154610D01*
X1081785Y1154637D01*
X1081600Y1154674D01*
X1081397Y1154711D01*
X1081175Y1154730D01*
X1080934Y1154739D01*
X1080925D01*
X1080897D01*
X1080851D01*
X1080796D01*
X1080731Y1154730D01*
X1080648D01*
X1080555Y1154721D01*
X1080454Y1154711D01*
X1080232Y1154684D01*
X1079991Y1154637D01*
X1079751Y1154582D01*
X1079511Y1154508D01*
X1079501D01*
X1079483Y1154499D01*
X1079455Y1154480D01*
X1079409Y1154462D01*
X1079298Y1154406D01*
X1079168Y1154323D01*
X1079020Y1154221D01*
X1078863Y1154092D01*
X1078725Y1153944D01*
X1078595Y1153768D01*
Y1153759D01*
X1078586Y1153740D01*
X1078568Y1153713D01*
X1078549Y1153676D01*
X1078531Y1153630D01*
X1078503Y1153574D01*
X1078447Y1153445D01*
X1078392Y1153278D01*
X1078346Y1153093D01*
X1078309Y1152890D01*
X1078299Y1152677D01*
Y1152613D01*
X1078309Y1152557D01*
Y1152492D01*
X1078318Y1152428D01*
X1078355Y1152261D01*
X1078401Y1152067D01*
X1078475Y1151873D01*
X1078577Y1151669D01*
X1078632Y1151568D01*
X1078706Y1151475D01*
X1078715Y1151466D01*
X1078725Y1151457D01*
X1078752Y1151429D01*
X1078780Y1151392D01*
X1078826Y1151355D01*
X1078882Y1151309D01*
X1078937Y1151253D01*
X1079011Y1151207D01*
X1079094Y1151152D01*
X1079187Y1151087D01*
X1079279Y1151031D01*
X1079390Y1150976D01*
X1079511Y1150930D01*
X1079640Y1150884D01*
X1079779Y1150837D01*
X1079927Y1150800D01*
X1079714Y1149950D01*
X1079705D01*
X1079668Y1149959D01*
X1079612Y1149977D01*
X1079538Y1150005D01*
X1079455Y1150033D01*
X1079353Y1150070D01*
X1079242Y1150116D01*
X1079122Y1150172D01*
X1078863Y1150301D01*
X1078605Y1150468D01*
X1078475Y1150569D01*
X1078346Y1150671D01*
X1078235Y1150782D01*
X1078124Y1150911D01*
X1078114Y1150920D01*
X1078096Y1150939D01*
X1078077Y1150985D01*
X1078040Y1151031D01*
X1077994Y1151105D01*
X1077948Y1151179D01*
X1077902Y1151281D01*
X1077856Y1151383D01*
X1077800Y1151503D01*
X1077754Y1151632D01*
X1077708Y1151771D01*
X1077661Y1151919D01*
X1077625Y1152076D01*
X1077606Y1152243D01*
X1077588Y1152418D01*
X1077578Y1152603D01*
Y1152705D01*
X1077588Y1152779D01*
Y1152862D01*
X1077597Y1152964D01*
X1077615Y1153075D01*
X1077634Y1153204D01*
X1077680Y1153472D01*
X1077754Y1153750D01*
X1077856Y1154027D01*
X1077920Y1154156D01*
X1077994Y1154286D01*
X1078003Y1154295D01*
X1078013Y1154314D01*
X1078040Y1154351D01*
X1078077Y1154388D01*
X1078114Y1154443D01*
X1078170Y1154508D01*
X1078235Y1154582D01*
X1078309Y1154656D01*
X1078392Y1154730D01*
X1078475Y1154813D01*
X1078688Y1154979D01*
X1078937Y1155136D01*
X1079215Y1155275D01*
X1079224D01*
X1079252Y1155294D01*
X1079298Y1155303D01*
X1079353Y1155331D01*
X1079427Y1155349D01*
X1079520Y1155377D01*
X1079622Y1155414D01*
X1079733Y1155442D01*
X1079853Y1155469D01*
X1079991Y1155506D01*
X1080278Y1155553D01*
X1080602Y1155590D01*
X1080934Y1155608D01*
X1080944D01*
X1080981D01*
X1081036D01*
X1081101Y1155599D01*
D02*
G37*
G36*
X700101D02*
X700193D01*
X700286Y1155590D01*
X700406Y1155580D01*
X700526Y1155562D01*
X700794Y1155516D01*
X701090Y1155451D01*
X701386Y1155358D01*
X701673Y1155229D01*
X701682Y1155220D01*
X701710Y1155210D01*
X701747Y1155192D01*
X701793Y1155155D01*
X701858Y1155118D01*
X701931Y1155072D01*
X702098Y1154952D01*
X702283Y1154794D01*
X702468Y1154610D01*
X702653Y1154397D01*
X702810Y1154147D01*
X702819Y1154138D01*
X702828Y1154110D01*
X702847Y1154073D01*
X702875Y1154027D01*
X702902Y1153953D01*
X702930Y1153879D01*
X702967Y1153787D01*
X703004Y1153685D01*
X703041Y1153574D01*
X703078Y1153454D01*
X703133Y1153195D01*
X703180Y1152899D01*
X703198Y1152594D01*
Y1152502D01*
X703189Y1152437D01*
X703180Y1152354D01*
X703170Y1152252D01*
X703161Y1152150D01*
X703133Y1152030D01*
X703078Y1151780D01*
X702995Y1151503D01*
X702939Y1151364D01*
X702875Y1151235D01*
X702791Y1151105D01*
X702708Y1150976D01*
X702699Y1150967D01*
X702690Y1150948D01*
X702662Y1150911D01*
X702616Y1150865D01*
X702569Y1150819D01*
X702505Y1150754D01*
X702431Y1150689D01*
X702357Y1150615D01*
X702264Y1150542D01*
X702153Y1150468D01*
X702042Y1150384D01*
X701922Y1150310D01*
X701784Y1150246D01*
X701645Y1150172D01*
X701497Y1150116D01*
X701330Y1150061D01*
X701136Y1150893D01*
X701146D01*
X701164Y1150902D01*
X701201Y1150920D01*
X701247Y1150939D01*
X701303Y1150957D01*
X701377Y1150985D01*
X701525Y1151059D01*
X701691Y1151152D01*
X701858Y1151263D01*
X702015Y1151401D01*
X702153Y1151549D01*
X702172Y1151568D01*
X702209Y1151623D01*
X702255Y1151716D01*
X702320Y1151836D01*
X702375Y1151993D01*
X702431Y1152169D01*
X702468Y1152381D01*
X702477Y1152613D01*
Y1152686D01*
X702468Y1152733D01*
Y1152797D01*
X702458Y1152871D01*
X702431Y1153047D01*
X702394Y1153241D01*
X702329Y1153445D01*
X702236Y1153657D01*
X702116Y1153851D01*
Y1153861D01*
X702098Y1153870D01*
X702052Y1153935D01*
X701978Y1154018D01*
X701867Y1154119D01*
X701728Y1154240D01*
X701571Y1154351D01*
X701377Y1154452D01*
X701164Y1154545D01*
X701155D01*
X701136Y1154554D01*
X701109Y1154563D01*
X701062Y1154573D01*
X701007Y1154591D01*
X700942Y1154610D01*
X700785Y1154637D01*
X700600Y1154674D01*
X700397Y1154711D01*
X700175Y1154730D01*
X699934Y1154739D01*
X699925D01*
X699897D01*
X699851D01*
X699796D01*
X699731Y1154730D01*
X699648D01*
X699555Y1154721D01*
X699454Y1154711D01*
X699232Y1154684D01*
X698991Y1154637D01*
X698751Y1154582D01*
X698511Y1154508D01*
X698501D01*
X698483Y1154499D01*
X698455Y1154480D01*
X698409Y1154462D01*
X698298Y1154406D01*
X698168Y1154323D01*
X698020Y1154221D01*
X697863Y1154092D01*
X697725Y1153944D01*
X697595Y1153768D01*
Y1153759D01*
X697586Y1153740D01*
X697568Y1153713D01*
X697549Y1153676D01*
X697531Y1153630D01*
X697503Y1153574D01*
X697447Y1153445D01*
X697392Y1153278D01*
X697346Y1153093D01*
X697309Y1152890D01*
X697299Y1152677D01*
Y1152613D01*
X697309Y1152557D01*
Y1152492D01*
X697318Y1152428D01*
X697355Y1152261D01*
X697401Y1152067D01*
X697475Y1151873D01*
X697577Y1151669D01*
X697632Y1151568D01*
X697706Y1151475D01*
X697715Y1151466D01*
X697725Y1151457D01*
X697752Y1151429D01*
X697780Y1151392D01*
X697826Y1151355D01*
X697882Y1151309D01*
X697937Y1151253D01*
X698011Y1151207D01*
X698094Y1151152D01*
X698187Y1151087D01*
X698279Y1151031D01*
X698390Y1150976D01*
X698511Y1150930D01*
X698640Y1150884D01*
X698779Y1150837D01*
X698927Y1150800D01*
X698714Y1149950D01*
X698705D01*
X698668Y1149959D01*
X698612Y1149977D01*
X698538Y1150005D01*
X698455Y1150033D01*
X698353Y1150070D01*
X698242Y1150116D01*
X698122Y1150172D01*
X697863Y1150301D01*
X697605Y1150468D01*
X697475Y1150569D01*
X697346Y1150671D01*
X697235Y1150782D01*
X697124Y1150911D01*
X697114Y1150920D01*
X697096Y1150939D01*
X697077Y1150985D01*
X697040Y1151031D01*
X696994Y1151105D01*
X696948Y1151179D01*
X696902Y1151281D01*
X696856Y1151383D01*
X696800Y1151503D01*
X696754Y1151632D01*
X696708Y1151771D01*
X696661Y1151919D01*
X696625Y1152076D01*
X696606Y1152243D01*
X696588Y1152418D01*
X696578Y1152603D01*
Y1152705D01*
X696588Y1152779D01*
Y1152862D01*
X696597Y1152964D01*
X696615Y1153075D01*
X696634Y1153204D01*
X696680Y1153472D01*
X696754Y1153750D01*
X696856Y1154027D01*
X696920Y1154156D01*
X696994Y1154286D01*
X697003Y1154295D01*
X697013Y1154314D01*
X697040Y1154351D01*
X697077Y1154388D01*
X697114Y1154443D01*
X697170Y1154508D01*
X697235Y1154582D01*
X697309Y1154656D01*
X697392Y1154730D01*
X697475Y1154813D01*
X697688Y1154979D01*
X697937Y1155136D01*
X698215Y1155275D01*
X698224D01*
X698252Y1155294D01*
X698298Y1155303D01*
X698353Y1155331D01*
X698427Y1155349D01*
X698520Y1155377D01*
X698622Y1155414D01*
X698733Y1155442D01*
X698853Y1155469D01*
X698991Y1155506D01*
X699278Y1155553D01*
X699602Y1155590D01*
X699934Y1155608D01*
X699944D01*
X699981D01*
X700036D01*
X700101Y1155599D01*
D02*
G37*
G36*
X319101D02*
X319193D01*
X319286Y1155590D01*
X319406Y1155580D01*
X319526Y1155562D01*
X319794Y1155516D01*
X320090Y1155451D01*
X320386Y1155358D01*
X320673Y1155229D01*
X320682Y1155220D01*
X320709Y1155210D01*
X320746Y1155192D01*
X320793Y1155155D01*
X320858Y1155118D01*
X320931Y1155072D01*
X321098Y1154952D01*
X321283Y1154794D01*
X321468Y1154610D01*
X321653Y1154397D01*
X321810Y1154147D01*
X321819Y1154138D01*
X321828Y1154110D01*
X321847Y1154073D01*
X321875Y1154027D01*
X321902Y1153953D01*
X321930Y1153879D01*
X321967Y1153787D01*
X322004Y1153685D01*
X322041Y1153574D01*
X322078Y1153454D01*
X322133Y1153195D01*
X322180Y1152899D01*
X322198Y1152594D01*
Y1152502D01*
X322189Y1152437D01*
X322180Y1152354D01*
X322170Y1152252D01*
X322161Y1152150D01*
X322133Y1152030D01*
X322078Y1151780D01*
X321995Y1151503D01*
X321939Y1151364D01*
X321875Y1151235D01*
X321791Y1151105D01*
X321708Y1150976D01*
X321699Y1150967D01*
X321690Y1150948D01*
X321662Y1150911D01*
X321616Y1150865D01*
X321569Y1150819D01*
X321505Y1150754D01*
X321431Y1150689D01*
X321357Y1150615D01*
X321264Y1150542D01*
X321153Y1150468D01*
X321042Y1150384D01*
X320922Y1150310D01*
X320784Y1150246D01*
X320645Y1150172D01*
X320497Y1150116D01*
X320331Y1150061D01*
X320136Y1150893D01*
X320146D01*
X320164Y1150902D01*
X320201Y1150920D01*
X320247Y1150939D01*
X320303Y1150957D01*
X320377Y1150985D01*
X320525Y1151059D01*
X320691Y1151152D01*
X320858Y1151263D01*
X321015Y1151401D01*
X321153Y1151549D01*
X321172Y1151568D01*
X321209Y1151623D01*
X321255Y1151716D01*
X321320Y1151836D01*
X321375Y1151993D01*
X321431Y1152169D01*
X321468Y1152381D01*
X321477Y1152613D01*
Y1152686D01*
X321468Y1152733D01*
Y1152797D01*
X321458Y1152871D01*
X321431Y1153047D01*
X321394Y1153241D01*
X321329Y1153445D01*
X321236Y1153657D01*
X321116Y1153851D01*
Y1153861D01*
X321098Y1153870D01*
X321052Y1153935D01*
X320978Y1154018D01*
X320867Y1154119D01*
X320728Y1154240D01*
X320571Y1154351D01*
X320377Y1154452D01*
X320164Y1154545D01*
X320155D01*
X320136Y1154554D01*
X320109Y1154563D01*
X320062Y1154573D01*
X320007Y1154591D01*
X319942Y1154610D01*
X319785Y1154637D01*
X319600Y1154674D01*
X319397Y1154711D01*
X319175Y1154730D01*
X318934Y1154739D01*
X318925D01*
X318897D01*
X318851D01*
X318796D01*
X318731Y1154730D01*
X318648D01*
X318555Y1154721D01*
X318454Y1154711D01*
X318232Y1154684D01*
X317991Y1154637D01*
X317751Y1154582D01*
X317511Y1154508D01*
X317501D01*
X317483Y1154499D01*
X317455Y1154480D01*
X317409Y1154462D01*
X317298Y1154406D01*
X317169Y1154323D01*
X317020Y1154221D01*
X316863Y1154092D01*
X316725Y1153944D01*
X316595Y1153768D01*
Y1153759D01*
X316586Y1153740D01*
X316567Y1153713D01*
X316549Y1153676D01*
X316530Y1153630D01*
X316503Y1153574D01*
X316447Y1153445D01*
X316392Y1153278D01*
X316346Y1153093D01*
X316309Y1152890D01*
X316299Y1152677D01*
Y1152613D01*
X316309Y1152557D01*
Y1152492D01*
X316318Y1152428D01*
X316355Y1152261D01*
X316401Y1152067D01*
X316475Y1151873D01*
X316577Y1151669D01*
X316632Y1151568D01*
X316706Y1151475D01*
X316715Y1151466D01*
X316725Y1151457D01*
X316752Y1151429D01*
X316780Y1151392D01*
X316826Y1151355D01*
X316882Y1151309D01*
X316937Y1151253D01*
X317011Y1151207D01*
X317094Y1151152D01*
X317187Y1151087D01*
X317279Y1151031D01*
X317390Y1150976D01*
X317511Y1150930D01*
X317640Y1150884D01*
X317779Y1150837D01*
X317927Y1150800D01*
X317714Y1149950D01*
X317705D01*
X317668Y1149959D01*
X317612Y1149977D01*
X317538Y1150005D01*
X317455Y1150033D01*
X317353Y1150070D01*
X317242Y1150116D01*
X317122Y1150172D01*
X316863Y1150301D01*
X316604Y1150468D01*
X316475Y1150569D01*
X316346Y1150671D01*
X316235Y1150782D01*
X316124Y1150911D01*
X316115Y1150920D01*
X316096Y1150939D01*
X316077Y1150985D01*
X316040Y1151031D01*
X315994Y1151105D01*
X315948Y1151179D01*
X315902Y1151281D01*
X315856Y1151383D01*
X315800Y1151503D01*
X315754Y1151632D01*
X315708Y1151771D01*
X315661Y1151919D01*
X315625Y1152076D01*
X315606Y1152243D01*
X315588Y1152418D01*
X315578Y1152603D01*
Y1152705D01*
X315588Y1152779D01*
Y1152862D01*
X315597Y1152964D01*
X315615Y1153075D01*
X315634Y1153204D01*
X315680Y1153472D01*
X315754Y1153750D01*
X315856Y1154027D01*
X315920Y1154156D01*
X315994Y1154286D01*
X316003Y1154295D01*
X316013Y1154314D01*
X316040Y1154351D01*
X316077Y1154388D01*
X316115Y1154443D01*
X316170Y1154508D01*
X316235Y1154582D01*
X316309Y1154656D01*
X316392Y1154730D01*
X316475Y1154813D01*
X316688Y1154979D01*
X316937Y1155136D01*
X317215Y1155275D01*
X317224D01*
X317252Y1155294D01*
X317298Y1155303D01*
X317353Y1155331D01*
X317427Y1155349D01*
X317520Y1155377D01*
X317621Y1155414D01*
X317733Y1155442D01*
X317853Y1155469D01*
X317991Y1155506D01*
X318278Y1155553D01*
X318601Y1155590D01*
X318934Y1155608D01*
X318944D01*
X318981D01*
X319036D01*
X319101Y1155599D01*
D02*
G37*
G36*
X1844506Y1148618D02*
X1844525Y1148600D01*
X1844534Y1148563D01*
X1844562Y1148517D01*
X1844589Y1148461D01*
X1844626Y1148397D01*
X1844719Y1148239D01*
X1844821Y1148054D01*
X1844950Y1147869D01*
X1845098Y1147675D01*
X1845255Y1147481D01*
X1845264Y1147472D01*
X1845273Y1147463D01*
X1845301Y1147435D01*
X1845329Y1147398D01*
X1845421Y1147315D01*
X1845532Y1147204D01*
X1845662Y1147093D01*
X1845810Y1146973D01*
X1845958Y1146871D01*
X1846115Y1146778D01*
Y1146270D01*
X1839689D01*
Y1147056D01*
X1844691D01*
X1844682Y1147065D01*
X1844645Y1147111D01*
X1844589Y1147167D01*
X1844525Y1147259D01*
X1844441Y1147361D01*
X1844349Y1147490D01*
X1844247Y1147638D01*
X1844146Y1147805D01*
Y1147814D01*
X1844136Y1147823D01*
X1844099Y1147879D01*
X1844053Y1147971D01*
X1843998Y1148082D01*
X1843933Y1148212D01*
X1843868Y1148350D01*
X1843804Y1148489D01*
X1843748Y1148628D01*
X1844506D01*
Y1148618D01*
D02*
G37*
G36*
X1463506D02*
X1463525Y1148600D01*
X1463534Y1148563D01*
X1463562Y1148517D01*
X1463589Y1148461D01*
X1463626Y1148397D01*
X1463719Y1148239D01*
X1463820Y1148054D01*
X1463950Y1147869D01*
X1464098Y1147675D01*
X1464255Y1147481D01*
X1464264Y1147472D01*
X1464274Y1147463D01*
X1464301Y1147435D01*
X1464329Y1147398D01*
X1464422Y1147315D01*
X1464532Y1147204D01*
X1464662Y1147093D01*
X1464810Y1146973D01*
X1464958Y1146871D01*
X1465115Y1146778D01*
Y1146270D01*
X1458689D01*
Y1147056D01*
X1463691D01*
X1463682Y1147065D01*
X1463645Y1147111D01*
X1463589Y1147167D01*
X1463525Y1147259D01*
X1463441Y1147361D01*
X1463349Y1147490D01*
X1463247Y1147638D01*
X1463146Y1147805D01*
Y1147814D01*
X1463136Y1147823D01*
X1463099Y1147879D01*
X1463053Y1147971D01*
X1462998Y1148082D01*
X1462933Y1148212D01*
X1462868Y1148350D01*
X1462803Y1148489D01*
X1462748Y1148628D01*
X1463506D01*
Y1148618D01*
D02*
G37*
G36*
X1082506D02*
X1082525Y1148600D01*
X1082534Y1148563D01*
X1082562Y1148517D01*
X1082589Y1148461D01*
X1082626Y1148397D01*
X1082719Y1148239D01*
X1082821Y1148054D01*
X1082950Y1147869D01*
X1083098Y1147675D01*
X1083255Y1147481D01*
X1083264Y1147472D01*
X1083273Y1147463D01*
X1083301Y1147435D01*
X1083329Y1147398D01*
X1083421Y1147315D01*
X1083532Y1147204D01*
X1083662Y1147093D01*
X1083810Y1146973D01*
X1083958Y1146871D01*
X1084115Y1146778D01*
Y1146270D01*
X1077689D01*
Y1147056D01*
X1082691D01*
X1082682Y1147065D01*
X1082645Y1147111D01*
X1082589Y1147167D01*
X1082525Y1147259D01*
X1082441Y1147361D01*
X1082349Y1147490D01*
X1082247Y1147638D01*
X1082146Y1147805D01*
Y1147814D01*
X1082136Y1147823D01*
X1082099Y1147879D01*
X1082053Y1147971D01*
X1081998Y1148082D01*
X1081933Y1148212D01*
X1081868Y1148350D01*
X1081804Y1148489D01*
X1081748Y1148628D01*
X1082506D01*
Y1148618D01*
D02*
G37*
G36*
X701506D02*
X701525Y1148600D01*
X701534Y1148563D01*
X701562Y1148517D01*
X701589Y1148461D01*
X701626Y1148397D01*
X701719Y1148239D01*
X701821Y1148054D01*
X701950Y1147869D01*
X702098Y1147675D01*
X702255Y1147481D01*
X702264Y1147472D01*
X702273Y1147463D01*
X702301Y1147435D01*
X702329Y1147398D01*
X702421Y1147315D01*
X702532Y1147204D01*
X702662Y1147093D01*
X702810Y1146973D01*
X702958Y1146871D01*
X703115Y1146778D01*
Y1146270D01*
X696689D01*
Y1147056D01*
X701691D01*
X701682Y1147065D01*
X701645Y1147111D01*
X701589Y1147167D01*
X701525Y1147259D01*
X701441Y1147361D01*
X701349Y1147490D01*
X701247Y1147638D01*
X701146Y1147805D01*
Y1147814D01*
X701136Y1147823D01*
X701099Y1147879D01*
X701053Y1147971D01*
X700998Y1148082D01*
X700933Y1148212D01*
X700868Y1148350D01*
X700804Y1148489D01*
X700748Y1148628D01*
X701506D01*
Y1148618D01*
D02*
G37*
G36*
X320506D02*
X320525Y1148600D01*
X320534Y1148563D01*
X320562Y1148517D01*
X320589Y1148461D01*
X320626Y1148397D01*
X320719Y1148239D01*
X320821Y1148054D01*
X320950Y1147869D01*
X321098Y1147675D01*
X321255Y1147481D01*
X321264Y1147472D01*
X321273Y1147463D01*
X321301Y1147435D01*
X321329Y1147398D01*
X321422Y1147315D01*
X321532Y1147204D01*
X321662Y1147093D01*
X321810Y1146973D01*
X321958Y1146871D01*
X322115Y1146778D01*
Y1146270D01*
X315689D01*
Y1147056D01*
X320691D01*
X320682Y1147065D01*
X320645Y1147111D01*
X320589Y1147167D01*
X320525Y1147259D01*
X320441Y1147361D01*
X320349Y1147490D01*
X320247Y1147638D01*
X320146Y1147805D01*
Y1147814D01*
X320136Y1147823D01*
X320099Y1147879D01*
X320053Y1147971D01*
X319998Y1148082D01*
X319933Y1148212D01*
X319868Y1148350D01*
X319804Y1148489D01*
X319748Y1148628D01*
X320506D01*
Y1148618D01*
D02*
G37*
G36*
X1839865Y1144356D02*
X1839948Y1144347D01*
X1840040Y1144328D01*
X1840133Y1144310D01*
X1840235Y1144273D01*
X1840244D01*
X1840253Y1144264D01*
X1840309Y1144245D01*
X1840392Y1144208D01*
X1840503Y1144153D01*
X1840632Y1144079D01*
X1840780Y1143986D01*
X1840928Y1143885D01*
X1841085Y1143755D01*
X1841095D01*
X1841104Y1143737D01*
X1841159Y1143690D01*
X1841242Y1143607D01*
X1841363Y1143487D01*
X1841501Y1143348D01*
X1841668Y1143173D01*
X1841853Y1142960D01*
X1842047Y1142729D01*
X1842056Y1142720D01*
X1842084Y1142683D01*
X1842130Y1142627D01*
X1842186Y1142562D01*
X1842260Y1142479D01*
X1842343Y1142378D01*
X1842435Y1142276D01*
X1842537Y1142156D01*
X1842759Y1141925D01*
X1842981Y1141693D01*
X1843092Y1141582D01*
X1843203Y1141481D01*
X1843304Y1141388D01*
X1843406Y1141314D01*
X1843415D01*
X1843424Y1141296D01*
X1843452Y1141277D01*
X1843489Y1141259D01*
X1843591Y1141194D01*
X1843711Y1141120D01*
X1843859Y1141056D01*
X1844016Y1140991D01*
X1844192Y1140954D01*
X1844358Y1140935D01*
X1844368D01*
X1844377D01*
X1844432Y1140945D01*
X1844525Y1140954D01*
X1844626Y1140982D01*
X1844756Y1141019D01*
X1844885Y1141083D01*
X1845015Y1141166D01*
X1845144Y1141277D01*
X1845163Y1141296D01*
X1845200Y1141342D01*
X1845246Y1141407D01*
X1845311Y1141508D01*
X1845366Y1141638D01*
X1845421Y1141786D01*
X1845458Y1141962D01*
X1845468Y1142156D01*
Y1142211D01*
X1845458Y1142248D01*
X1845449Y1142359D01*
X1845421Y1142488D01*
X1845385Y1142627D01*
X1845320Y1142784D01*
X1845237Y1142932D01*
X1845126Y1143071D01*
X1845107Y1143090D01*
X1845061Y1143127D01*
X1844987Y1143182D01*
X1844876Y1143237D01*
X1844747Y1143302D01*
X1844580Y1143358D01*
X1844395Y1143395D01*
X1844182Y1143413D01*
X1844266Y1144218D01*
X1844275D01*
X1844303Y1144208D01*
X1844349D01*
X1844414Y1144199D01*
X1844488Y1144181D01*
X1844571Y1144162D01*
X1844673Y1144134D01*
X1844774Y1144107D01*
X1844996Y1144033D01*
X1845218Y1143922D01*
X1845329Y1143857D01*
X1845440Y1143774D01*
X1845542Y1143690D01*
X1845634Y1143598D01*
X1845643Y1143589D01*
X1845653Y1143570D01*
X1845680Y1143542D01*
X1845708Y1143496D01*
X1845745Y1143441D01*
X1845782Y1143376D01*
X1845828Y1143302D01*
X1845874Y1143210D01*
X1845921Y1143108D01*
X1845967Y1142997D01*
X1846004Y1142877D01*
X1846041Y1142747D01*
X1846069Y1142609D01*
X1846096Y1142461D01*
X1846106Y1142304D01*
X1846115Y1142137D01*
Y1142045D01*
X1846106Y1141980D01*
X1846096Y1141906D01*
X1846087Y1141814D01*
X1846069Y1141712D01*
X1846050Y1141610D01*
X1845985Y1141370D01*
X1845893Y1141129D01*
X1845838Y1141009D01*
X1845773Y1140889D01*
X1845690Y1140778D01*
X1845597Y1140676D01*
X1845588Y1140667D01*
X1845579Y1140649D01*
X1845542Y1140630D01*
X1845505Y1140593D01*
X1845458Y1140547D01*
X1845394Y1140501D01*
X1845329Y1140454D01*
X1845246Y1140399D01*
X1845070Y1140307D01*
X1844848Y1140214D01*
X1844737Y1140177D01*
X1844608Y1140159D01*
X1844478Y1140140D01*
X1844340Y1140131D01*
X1844321D01*
X1844275D01*
X1844201Y1140140D01*
X1844099Y1140149D01*
X1843988Y1140168D01*
X1843859Y1140205D01*
X1843720Y1140242D01*
X1843582Y1140297D01*
X1843563Y1140307D01*
X1843517Y1140325D01*
X1843443Y1140362D01*
X1843341Y1140417D01*
X1843230Y1140491D01*
X1843092Y1140584D01*
X1842953Y1140695D01*
X1842796Y1140824D01*
X1842777Y1140843D01*
X1842722Y1140889D01*
X1842675Y1140935D01*
X1842629Y1140982D01*
X1842574Y1141037D01*
X1842500Y1141111D01*
X1842426Y1141185D01*
X1842343Y1141277D01*
X1842250Y1141370D01*
X1842148Y1141481D01*
X1842047Y1141601D01*
X1841927Y1141730D01*
X1841806Y1141878D01*
X1841677Y1142026D01*
X1841668Y1142036D01*
X1841649Y1142054D01*
X1841622Y1142091D01*
X1841584Y1142137D01*
X1841529Y1142193D01*
X1841474Y1142257D01*
X1841353Y1142405D01*
X1841215Y1142562D01*
X1841076Y1142710D01*
X1840956Y1142840D01*
X1840910Y1142895D01*
X1840863Y1142942D01*
X1840854Y1142951D01*
X1840826Y1142979D01*
X1840789Y1143016D01*
X1840734Y1143062D01*
X1840669Y1143108D01*
X1840605Y1143164D01*
X1840447Y1143274D01*
Y1140122D01*
X1839689D01*
Y1144365D01*
X1839698D01*
X1839735D01*
X1839791D01*
X1839865Y1144356D01*
D02*
G37*
G36*
X1458865D02*
X1458948Y1144347D01*
X1459041Y1144328D01*
X1459133Y1144310D01*
X1459235Y1144273D01*
X1459244D01*
X1459253Y1144264D01*
X1459309Y1144245D01*
X1459392Y1144208D01*
X1459503Y1144153D01*
X1459632Y1144079D01*
X1459780Y1143986D01*
X1459928Y1143885D01*
X1460085Y1143755D01*
X1460094D01*
X1460104Y1143737D01*
X1460159Y1143690D01*
X1460242Y1143607D01*
X1460363Y1143487D01*
X1460501Y1143348D01*
X1460668Y1143173D01*
X1460853Y1142960D01*
X1461047Y1142729D01*
X1461056Y1142720D01*
X1461084Y1142683D01*
X1461130Y1142627D01*
X1461185Y1142562D01*
X1461259Y1142479D01*
X1461343Y1142378D01*
X1461435Y1142276D01*
X1461537Y1142156D01*
X1461759Y1141925D01*
X1461981Y1141693D01*
X1462092Y1141582D01*
X1462202Y1141481D01*
X1462304Y1141388D01*
X1462406Y1141314D01*
X1462415D01*
X1462424Y1141296D01*
X1462452Y1141277D01*
X1462489Y1141259D01*
X1462591Y1141194D01*
X1462711Y1141120D01*
X1462859Y1141056D01*
X1463016Y1140991D01*
X1463192Y1140954D01*
X1463358Y1140935D01*
X1463367D01*
X1463377D01*
X1463432Y1140945D01*
X1463525Y1140954D01*
X1463626Y1140982D01*
X1463756Y1141019D01*
X1463885Y1141083D01*
X1464015Y1141166D01*
X1464144Y1141277D01*
X1464163Y1141296D01*
X1464200Y1141342D01*
X1464246Y1141407D01*
X1464310Y1141508D01*
X1464366Y1141638D01*
X1464422Y1141786D01*
X1464458Y1141962D01*
X1464468Y1142156D01*
Y1142211D01*
X1464458Y1142248D01*
X1464449Y1142359D01*
X1464422Y1142488D01*
X1464384Y1142627D01*
X1464320Y1142784D01*
X1464236Y1142932D01*
X1464126Y1143071D01*
X1464107Y1143090D01*
X1464061Y1143127D01*
X1463987Y1143182D01*
X1463876Y1143237D01*
X1463746Y1143302D01*
X1463580Y1143358D01*
X1463395Y1143395D01*
X1463183Y1143413D01*
X1463266Y1144218D01*
X1463275D01*
X1463303Y1144208D01*
X1463349D01*
X1463414Y1144199D01*
X1463488Y1144181D01*
X1463571Y1144162D01*
X1463673Y1144134D01*
X1463774Y1144107D01*
X1463996Y1144033D01*
X1464218Y1143922D01*
X1464329Y1143857D01*
X1464440Y1143774D01*
X1464542Y1143690D01*
X1464634Y1143598D01*
X1464643Y1143589D01*
X1464653Y1143570D01*
X1464680Y1143542D01*
X1464708Y1143496D01*
X1464745Y1143441D01*
X1464782Y1143376D01*
X1464828Y1143302D01*
X1464875Y1143210D01*
X1464921Y1143108D01*
X1464967Y1142997D01*
X1465004Y1142877D01*
X1465041Y1142747D01*
X1465069Y1142609D01*
X1465096Y1142461D01*
X1465106Y1142304D01*
X1465115Y1142137D01*
Y1142045D01*
X1465106Y1141980D01*
X1465096Y1141906D01*
X1465087Y1141814D01*
X1465069Y1141712D01*
X1465050Y1141610D01*
X1464985Y1141370D01*
X1464893Y1141129D01*
X1464837Y1141009D01*
X1464773Y1140889D01*
X1464690Y1140778D01*
X1464597Y1140676D01*
X1464588Y1140667D01*
X1464579Y1140649D01*
X1464542Y1140630D01*
X1464505Y1140593D01*
X1464458Y1140547D01*
X1464394Y1140501D01*
X1464329Y1140454D01*
X1464246Y1140399D01*
X1464070Y1140307D01*
X1463848Y1140214D01*
X1463737Y1140177D01*
X1463608Y1140159D01*
X1463478Y1140140D01*
X1463340Y1140131D01*
X1463321D01*
X1463275D01*
X1463201Y1140140D01*
X1463099Y1140149D01*
X1462988Y1140168D01*
X1462859Y1140205D01*
X1462720Y1140242D01*
X1462582Y1140297D01*
X1462563Y1140307D01*
X1462517Y1140325D01*
X1462443Y1140362D01*
X1462341Y1140417D01*
X1462230Y1140491D01*
X1462092Y1140584D01*
X1461953Y1140695D01*
X1461796Y1140824D01*
X1461777Y1140843D01*
X1461722Y1140889D01*
X1461676Y1140935D01*
X1461629Y1140982D01*
X1461574Y1141037D01*
X1461500Y1141111D01*
X1461426Y1141185D01*
X1461343Y1141277D01*
X1461250Y1141370D01*
X1461149Y1141481D01*
X1461047Y1141601D01*
X1460927Y1141730D01*
X1460806Y1141878D01*
X1460677Y1142026D01*
X1460668Y1142036D01*
X1460649Y1142054D01*
X1460621Y1142091D01*
X1460585Y1142137D01*
X1460529Y1142193D01*
X1460474Y1142257D01*
X1460353Y1142405D01*
X1460215Y1142562D01*
X1460076Y1142710D01*
X1459956Y1142840D01*
X1459910Y1142895D01*
X1459863Y1142942D01*
X1459854Y1142951D01*
X1459826Y1142979D01*
X1459789Y1143016D01*
X1459734Y1143062D01*
X1459669Y1143108D01*
X1459604Y1143164D01*
X1459447Y1143274D01*
Y1140122D01*
X1458689D01*
Y1144365D01*
X1458698D01*
X1458735D01*
X1458791D01*
X1458865Y1144356D01*
D02*
G37*
G36*
X1077865D02*
X1077948Y1144347D01*
X1078040Y1144328D01*
X1078133Y1144310D01*
X1078235Y1144273D01*
X1078244D01*
X1078253Y1144264D01*
X1078309Y1144245D01*
X1078392Y1144208D01*
X1078503Y1144153D01*
X1078632Y1144079D01*
X1078780Y1143986D01*
X1078928Y1143885D01*
X1079085Y1143755D01*
X1079094D01*
X1079104Y1143737D01*
X1079159Y1143690D01*
X1079242Y1143607D01*
X1079363Y1143487D01*
X1079501Y1143348D01*
X1079668Y1143173D01*
X1079853Y1142960D01*
X1080047Y1142729D01*
X1080056Y1142720D01*
X1080084Y1142683D01*
X1080130Y1142627D01*
X1080185Y1142562D01*
X1080259Y1142479D01*
X1080343Y1142378D01*
X1080435Y1142276D01*
X1080537Y1142156D01*
X1080759Y1141925D01*
X1080981Y1141693D01*
X1081092Y1141582D01*
X1081202Y1141481D01*
X1081304Y1141388D01*
X1081406Y1141314D01*
X1081415D01*
X1081424Y1141296D01*
X1081452Y1141277D01*
X1081489Y1141259D01*
X1081591Y1141194D01*
X1081711Y1141120D01*
X1081859Y1141056D01*
X1082016Y1140991D01*
X1082192Y1140954D01*
X1082358Y1140935D01*
X1082367D01*
X1082377D01*
X1082432Y1140945D01*
X1082525Y1140954D01*
X1082626Y1140982D01*
X1082756Y1141019D01*
X1082885Y1141083D01*
X1083015Y1141166D01*
X1083144Y1141277D01*
X1083163Y1141296D01*
X1083200Y1141342D01*
X1083246Y1141407D01*
X1083310Y1141508D01*
X1083366Y1141638D01*
X1083421Y1141786D01*
X1083458Y1141962D01*
X1083468Y1142156D01*
Y1142211D01*
X1083458Y1142248D01*
X1083449Y1142359D01*
X1083421Y1142488D01*
X1083384Y1142627D01*
X1083320Y1142784D01*
X1083236Y1142932D01*
X1083126Y1143071D01*
X1083107Y1143090D01*
X1083061Y1143127D01*
X1082987Y1143182D01*
X1082876Y1143237D01*
X1082747Y1143302D01*
X1082580Y1143358D01*
X1082395Y1143395D01*
X1082182Y1143413D01*
X1082266Y1144218D01*
X1082275D01*
X1082303Y1144208D01*
X1082349D01*
X1082414Y1144199D01*
X1082488Y1144181D01*
X1082571Y1144162D01*
X1082673Y1144134D01*
X1082774Y1144107D01*
X1082996Y1144033D01*
X1083218Y1143922D01*
X1083329Y1143857D01*
X1083440Y1143774D01*
X1083542Y1143690D01*
X1083634Y1143598D01*
X1083643Y1143589D01*
X1083653Y1143570D01*
X1083680Y1143542D01*
X1083708Y1143496D01*
X1083745Y1143441D01*
X1083782Y1143376D01*
X1083828Y1143302D01*
X1083875Y1143210D01*
X1083921Y1143108D01*
X1083967Y1142997D01*
X1084004Y1142877D01*
X1084041Y1142747D01*
X1084069Y1142609D01*
X1084096Y1142461D01*
X1084106Y1142304D01*
X1084115Y1142137D01*
Y1142045D01*
X1084106Y1141980D01*
X1084096Y1141906D01*
X1084087Y1141814D01*
X1084069Y1141712D01*
X1084050Y1141610D01*
X1083985Y1141370D01*
X1083893Y1141129D01*
X1083838Y1141009D01*
X1083773Y1140889D01*
X1083690Y1140778D01*
X1083597Y1140676D01*
X1083588Y1140667D01*
X1083579Y1140649D01*
X1083542Y1140630D01*
X1083505Y1140593D01*
X1083458Y1140547D01*
X1083394Y1140501D01*
X1083329Y1140454D01*
X1083246Y1140399D01*
X1083070Y1140307D01*
X1082848Y1140214D01*
X1082737Y1140177D01*
X1082608Y1140159D01*
X1082478Y1140140D01*
X1082340Y1140131D01*
X1082321D01*
X1082275D01*
X1082201Y1140140D01*
X1082099Y1140149D01*
X1081988Y1140168D01*
X1081859Y1140205D01*
X1081720Y1140242D01*
X1081582Y1140297D01*
X1081563Y1140307D01*
X1081517Y1140325D01*
X1081443Y1140362D01*
X1081341Y1140417D01*
X1081230Y1140491D01*
X1081092Y1140584D01*
X1080953Y1140695D01*
X1080796Y1140824D01*
X1080777Y1140843D01*
X1080722Y1140889D01*
X1080676Y1140935D01*
X1080629Y1140982D01*
X1080574Y1141037D01*
X1080500Y1141111D01*
X1080426Y1141185D01*
X1080343Y1141277D01*
X1080250Y1141370D01*
X1080148Y1141481D01*
X1080047Y1141601D01*
X1079927Y1141730D01*
X1079806Y1141878D01*
X1079677Y1142026D01*
X1079668Y1142036D01*
X1079649Y1142054D01*
X1079622Y1142091D01*
X1079585Y1142137D01*
X1079529Y1142193D01*
X1079474Y1142257D01*
X1079353Y1142405D01*
X1079215Y1142562D01*
X1079076Y1142710D01*
X1078956Y1142840D01*
X1078910Y1142895D01*
X1078863Y1142942D01*
X1078854Y1142951D01*
X1078826Y1142979D01*
X1078789Y1143016D01*
X1078734Y1143062D01*
X1078669Y1143108D01*
X1078605Y1143164D01*
X1078447Y1143274D01*
Y1140122D01*
X1077689D01*
Y1144365D01*
X1077698D01*
X1077735D01*
X1077791D01*
X1077865Y1144356D01*
D02*
G37*
G36*
X696865D02*
X696948Y1144347D01*
X697040Y1144328D01*
X697133Y1144310D01*
X697235Y1144273D01*
X697244D01*
X697253Y1144264D01*
X697309Y1144245D01*
X697392Y1144208D01*
X697503Y1144153D01*
X697632Y1144079D01*
X697780Y1143986D01*
X697928Y1143885D01*
X698085Y1143755D01*
X698094D01*
X698104Y1143737D01*
X698159Y1143690D01*
X698242Y1143607D01*
X698363Y1143487D01*
X698501Y1143348D01*
X698668Y1143173D01*
X698853Y1142960D01*
X699047Y1142729D01*
X699056Y1142720D01*
X699084Y1142683D01*
X699130Y1142627D01*
X699185Y1142562D01*
X699259Y1142479D01*
X699343Y1142378D01*
X699435Y1142276D01*
X699537Y1142156D01*
X699759Y1141925D01*
X699981Y1141693D01*
X700092Y1141582D01*
X700202Y1141481D01*
X700304Y1141388D01*
X700406Y1141314D01*
X700415D01*
X700424Y1141296D01*
X700452Y1141277D01*
X700489Y1141259D01*
X700591Y1141194D01*
X700711Y1141120D01*
X700859Y1141056D01*
X701016Y1140991D01*
X701192Y1140954D01*
X701358Y1140935D01*
X701367D01*
X701377D01*
X701432Y1140945D01*
X701525Y1140954D01*
X701626Y1140982D01*
X701756Y1141019D01*
X701885Y1141083D01*
X702015Y1141166D01*
X702144Y1141277D01*
X702163Y1141296D01*
X702200Y1141342D01*
X702246Y1141407D01*
X702310Y1141508D01*
X702366Y1141638D01*
X702421Y1141786D01*
X702458Y1141962D01*
X702468Y1142156D01*
Y1142211D01*
X702458Y1142248D01*
X702449Y1142359D01*
X702421Y1142488D01*
X702384Y1142627D01*
X702320Y1142784D01*
X702236Y1142932D01*
X702126Y1143071D01*
X702107Y1143090D01*
X702061Y1143127D01*
X701987Y1143182D01*
X701876Y1143237D01*
X701747Y1143302D01*
X701580Y1143358D01*
X701395Y1143395D01*
X701182Y1143413D01*
X701266Y1144218D01*
X701275D01*
X701303Y1144208D01*
X701349D01*
X701414Y1144199D01*
X701488Y1144181D01*
X701571Y1144162D01*
X701673Y1144134D01*
X701774Y1144107D01*
X701996Y1144033D01*
X702218Y1143922D01*
X702329Y1143857D01*
X702440Y1143774D01*
X702542Y1143690D01*
X702634Y1143598D01*
X702643Y1143589D01*
X702653Y1143570D01*
X702680Y1143542D01*
X702708Y1143496D01*
X702745Y1143441D01*
X702782Y1143376D01*
X702828Y1143302D01*
X702875Y1143210D01*
X702921Y1143108D01*
X702967Y1142997D01*
X703004Y1142877D01*
X703041Y1142747D01*
X703069Y1142609D01*
X703096Y1142461D01*
X703106Y1142304D01*
X703115Y1142137D01*
Y1142045D01*
X703106Y1141980D01*
X703096Y1141906D01*
X703087Y1141814D01*
X703069Y1141712D01*
X703050Y1141610D01*
X702985Y1141370D01*
X702893Y1141129D01*
X702838Y1141009D01*
X702773Y1140889D01*
X702690Y1140778D01*
X702597Y1140676D01*
X702588Y1140667D01*
X702579Y1140649D01*
X702542Y1140630D01*
X702505Y1140593D01*
X702458Y1140547D01*
X702394Y1140501D01*
X702329Y1140454D01*
X702246Y1140399D01*
X702070Y1140307D01*
X701848Y1140214D01*
X701737Y1140177D01*
X701608Y1140159D01*
X701478Y1140140D01*
X701340Y1140131D01*
X701321D01*
X701275D01*
X701201Y1140140D01*
X701099Y1140149D01*
X700988Y1140168D01*
X700859Y1140205D01*
X700720Y1140242D01*
X700582Y1140297D01*
X700563Y1140307D01*
X700517Y1140325D01*
X700443Y1140362D01*
X700341Y1140417D01*
X700230Y1140491D01*
X700092Y1140584D01*
X699953Y1140695D01*
X699796Y1140824D01*
X699777Y1140843D01*
X699722Y1140889D01*
X699676Y1140935D01*
X699629Y1140982D01*
X699574Y1141037D01*
X699500Y1141111D01*
X699426Y1141185D01*
X699343Y1141277D01*
X699250Y1141370D01*
X699148Y1141481D01*
X699047Y1141601D01*
X698927Y1141730D01*
X698806Y1141878D01*
X698677Y1142026D01*
X698668Y1142036D01*
X698649Y1142054D01*
X698622Y1142091D01*
X698585Y1142137D01*
X698529Y1142193D01*
X698474Y1142257D01*
X698353Y1142405D01*
X698215Y1142562D01*
X698076Y1142710D01*
X697956Y1142840D01*
X697910Y1142895D01*
X697863Y1142942D01*
X697854Y1142951D01*
X697826Y1142979D01*
X697789Y1143016D01*
X697734Y1143062D01*
X697669Y1143108D01*
X697605Y1143164D01*
X697447Y1143274D01*
Y1140122D01*
X696689D01*
Y1144365D01*
X696698D01*
X696735D01*
X696791D01*
X696865Y1144356D01*
D02*
G37*
G36*
X315865D02*
X315948Y1144347D01*
X316040Y1144328D01*
X316133Y1144310D01*
X316235Y1144273D01*
X316244D01*
X316253Y1144264D01*
X316309Y1144245D01*
X316392Y1144208D01*
X316503Y1144153D01*
X316632Y1144079D01*
X316780Y1143986D01*
X316928Y1143885D01*
X317085Y1143755D01*
X317094D01*
X317104Y1143737D01*
X317159Y1143690D01*
X317242Y1143607D01*
X317363Y1143487D01*
X317501Y1143348D01*
X317668Y1143173D01*
X317853Y1142960D01*
X318047Y1142729D01*
X318056Y1142720D01*
X318084Y1142683D01*
X318130Y1142627D01*
X318186Y1142562D01*
X318260Y1142479D01*
X318343Y1142378D01*
X318435Y1142276D01*
X318537Y1142156D01*
X318759Y1141925D01*
X318981Y1141693D01*
X319092Y1141582D01*
X319202Y1141481D01*
X319304Y1141388D01*
X319406Y1141314D01*
X319415D01*
X319424Y1141296D01*
X319452Y1141277D01*
X319489Y1141259D01*
X319591Y1141194D01*
X319711Y1141120D01*
X319859Y1141056D01*
X320016Y1140991D01*
X320192Y1140954D01*
X320358Y1140935D01*
X320368D01*
X320377D01*
X320432Y1140945D01*
X320525Y1140954D01*
X320626Y1140982D01*
X320756Y1141019D01*
X320885Y1141083D01*
X321015Y1141166D01*
X321144Y1141277D01*
X321163Y1141296D01*
X321200Y1141342D01*
X321246Y1141407D01*
X321311Y1141508D01*
X321366Y1141638D01*
X321422Y1141786D01*
X321458Y1141962D01*
X321468Y1142156D01*
Y1142211D01*
X321458Y1142248D01*
X321449Y1142359D01*
X321422Y1142488D01*
X321385Y1142627D01*
X321320Y1142784D01*
X321236Y1142932D01*
X321126Y1143071D01*
X321107Y1143090D01*
X321061Y1143127D01*
X320987Y1143182D01*
X320876Y1143237D01*
X320746Y1143302D01*
X320580Y1143358D01*
X320395Y1143395D01*
X320182Y1143413D01*
X320266Y1144218D01*
X320275D01*
X320303Y1144208D01*
X320349D01*
X320414Y1144199D01*
X320488Y1144181D01*
X320571Y1144162D01*
X320673Y1144134D01*
X320774Y1144107D01*
X320996Y1144033D01*
X321218Y1143922D01*
X321329Y1143857D01*
X321440Y1143774D01*
X321542Y1143690D01*
X321634Y1143598D01*
X321643Y1143589D01*
X321653Y1143570D01*
X321680Y1143542D01*
X321708Y1143496D01*
X321745Y1143441D01*
X321782Y1143376D01*
X321828Y1143302D01*
X321875Y1143210D01*
X321921Y1143108D01*
X321967Y1142997D01*
X322004Y1142877D01*
X322041Y1142747D01*
X322069Y1142609D01*
X322096Y1142461D01*
X322106Y1142304D01*
X322115Y1142137D01*
Y1142045D01*
X322106Y1141980D01*
X322096Y1141906D01*
X322087Y1141814D01*
X322069Y1141712D01*
X322050Y1141610D01*
X321985Y1141370D01*
X321893Y1141129D01*
X321838Y1141009D01*
X321773Y1140889D01*
X321690Y1140778D01*
X321597Y1140676D01*
X321588Y1140667D01*
X321579Y1140649D01*
X321542Y1140630D01*
X321505Y1140593D01*
X321458Y1140547D01*
X321394Y1140501D01*
X321329Y1140454D01*
X321246Y1140399D01*
X321070Y1140307D01*
X320848Y1140214D01*
X320737Y1140177D01*
X320608Y1140159D01*
X320478Y1140140D01*
X320340Y1140131D01*
X320321D01*
X320275D01*
X320201Y1140140D01*
X320099Y1140149D01*
X319988Y1140168D01*
X319859Y1140205D01*
X319720Y1140242D01*
X319582Y1140297D01*
X319563Y1140307D01*
X319517Y1140325D01*
X319443Y1140362D01*
X319341Y1140417D01*
X319230Y1140491D01*
X319092Y1140584D01*
X318953Y1140695D01*
X318796Y1140824D01*
X318777Y1140843D01*
X318722Y1140889D01*
X318675Y1140935D01*
X318629Y1140982D01*
X318574Y1141037D01*
X318500Y1141111D01*
X318426Y1141185D01*
X318343Y1141277D01*
X318250Y1141370D01*
X318148Y1141481D01*
X318047Y1141601D01*
X317927Y1141730D01*
X317806Y1141878D01*
X317677Y1142026D01*
X317668Y1142036D01*
X317649Y1142054D01*
X317621Y1142091D01*
X317584Y1142137D01*
X317529Y1142193D01*
X317474Y1142257D01*
X317353Y1142405D01*
X317215Y1142562D01*
X317076Y1142710D01*
X316956Y1142840D01*
X316910Y1142895D01*
X316863Y1142942D01*
X316854Y1142951D01*
X316826Y1142979D01*
X316789Y1143016D01*
X316734Y1143062D01*
X316669Y1143108D01*
X316604Y1143164D01*
X316447Y1143274D01*
Y1140122D01*
X315689D01*
Y1144365D01*
X315698D01*
X315735D01*
X315791D01*
X315865Y1144356D01*
D02*
G37*
G36*
X1920938Y1079134D02*
Y1079125D01*
Y1079088D01*
Y1079042D01*
Y1078977D01*
X1920929Y1078894D01*
Y1078801D01*
X1920919Y1078690D01*
X1920910Y1078580D01*
X1920882Y1078330D01*
X1920845Y1078071D01*
X1920790Y1077821D01*
X1920753Y1077701D01*
X1920716Y1077590D01*
Y1077581D01*
X1920707Y1077562D01*
X1920688Y1077535D01*
X1920670Y1077498D01*
X1920614Y1077396D01*
X1920531Y1077267D01*
X1920420Y1077119D01*
X1920291Y1076971D01*
X1920124Y1076814D01*
X1919921Y1076675D01*
X1919912D01*
X1919893Y1076656D01*
X1919865Y1076647D01*
X1919819Y1076619D01*
X1919764Y1076592D01*
X1919690Y1076564D01*
X1919616Y1076536D01*
X1919523Y1076499D01*
X1919422Y1076462D01*
X1919311Y1076435D01*
X1919190Y1076407D01*
X1919052Y1076379D01*
X1918913Y1076361D01*
X1918765Y1076342D01*
X1918432Y1076324D01*
X1918349D01*
X1918284Y1076333D01*
X1918210D01*
X1918118Y1076342D01*
X1918016Y1076351D01*
X1917914Y1076361D01*
X1917683Y1076398D01*
X1917434Y1076453D01*
X1917193Y1076527D01*
X1916962Y1076629D01*
X1916953D01*
X1916935Y1076647D01*
X1916907Y1076666D01*
X1916870Y1076684D01*
X1916768Y1076758D01*
X1916648Y1076860D01*
X1916509Y1076989D01*
X1916380Y1077137D01*
X1916250Y1077322D01*
X1916149Y1077526D01*
Y1077535D01*
X1916139Y1077553D01*
X1916130Y1077590D01*
X1916112Y1077636D01*
X1916093Y1077692D01*
X1916075Y1077766D01*
X1916047Y1077849D01*
X1916028Y1077951D01*
X1916010Y1078062D01*
X1915982Y1078182D01*
X1915964Y1078311D01*
X1915945Y1078450D01*
X1915927Y1078607D01*
X1915918Y1078774D01*
X1915908Y1078949D01*
Y1079134D01*
Y1082832D01*
X1916759D01*
Y1079134D01*
Y1079125D01*
Y1079097D01*
Y1079051D01*
Y1078996D01*
X1916768Y1078931D01*
Y1078848D01*
X1916777Y1078672D01*
X1916796Y1078469D01*
X1916823Y1078265D01*
X1916861Y1078071D01*
X1916879Y1077988D01*
X1916907Y1077905D01*
X1916916Y1077886D01*
X1916935Y1077840D01*
X1916981Y1077775D01*
X1917036Y1077683D01*
X1917101Y1077590D01*
X1917193Y1077489D01*
X1917304Y1077387D01*
X1917434Y1077304D01*
X1917452Y1077294D01*
X1917498Y1077267D01*
X1917582Y1077239D01*
X1917693Y1077202D01*
X1917822Y1077156D01*
X1917988Y1077128D01*
X1918164Y1077100D01*
X1918358Y1077091D01*
X1918451D01*
X1918506Y1077100D01*
X1918589D01*
X1918673Y1077110D01*
X1918876Y1077147D01*
X1919098Y1077193D01*
X1919311Y1077267D01*
X1919514Y1077368D01*
X1919606Y1077433D01*
X1919690Y1077507D01*
X1919699Y1077516D01*
X1919708Y1077526D01*
X1919727Y1077553D01*
X1919754Y1077590D01*
X1919782Y1077646D01*
X1919819Y1077701D01*
X1919856Y1077784D01*
X1919893Y1077868D01*
X1919930Y1077969D01*
X1919958Y1078090D01*
X1919995Y1078228D01*
X1920022Y1078376D01*
X1920050Y1078543D01*
X1920069Y1078718D01*
X1920087Y1078922D01*
Y1079134D01*
Y1082832D01*
X1920938D01*
Y1079134D01*
D02*
G37*
G36*
X1539938D02*
Y1079125D01*
Y1079088D01*
Y1079042D01*
Y1078977D01*
X1539929Y1078894D01*
Y1078801D01*
X1539919Y1078690D01*
X1539910Y1078580D01*
X1539882Y1078330D01*
X1539845Y1078071D01*
X1539790Y1077821D01*
X1539753Y1077701D01*
X1539716Y1077590D01*
Y1077581D01*
X1539707Y1077562D01*
X1539688Y1077535D01*
X1539670Y1077498D01*
X1539614Y1077396D01*
X1539531Y1077267D01*
X1539420Y1077119D01*
X1539291Y1076971D01*
X1539124Y1076814D01*
X1538921Y1076675D01*
X1538912D01*
X1538893Y1076656D01*
X1538865Y1076647D01*
X1538819Y1076619D01*
X1538764Y1076592D01*
X1538690Y1076564D01*
X1538616Y1076536D01*
X1538523Y1076499D01*
X1538421Y1076462D01*
X1538311Y1076435D01*
X1538190Y1076407D01*
X1538052Y1076379D01*
X1537913Y1076361D01*
X1537765Y1076342D01*
X1537432Y1076324D01*
X1537349D01*
X1537284Y1076333D01*
X1537210D01*
X1537118Y1076342D01*
X1537016Y1076351D01*
X1536915Y1076361D01*
X1536683Y1076398D01*
X1536434Y1076453D01*
X1536193Y1076527D01*
X1535962Y1076629D01*
X1535953D01*
X1535934Y1076647D01*
X1535907Y1076666D01*
X1535870Y1076684D01*
X1535768Y1076758D01*
X1535648Y1076860D01*
X1535509Y1076989D01*
X1535380Y1077137D01*
X1535250Y1077322D01*
X1535149Y1077526D01*
Y1077535D01*
X1535139Y1077553D01*
X1535130Y1077590D01*
X1535112Y1077636D01*
X1535093Y1077692D01*
X1535075Y1077766D01*
X1535047Y1077849D01*
X1535028Y1077951D01*
X1535010Y1078062D01*
X1534982Y1078182D01*
X1534964Y1078311D01*
X1534945Y1078450D01*
X1534927Y1078607D01*
X1534917Y1078774D01*
X1534908Y1078949D01*
Y1079134D01*
Y1082832D01*
X1535759D01*
Y1079134D01*
Y1079125D01*
Y1079097D01*
Y1079051D01*
Y1078996D01*
X1535768Y1078931D01*
Y1078848D01*
X1535777Y1078672D01*
X1535796Y1078469D01*
X1535824Y1078265D01*
X1535860Y1078071D01*
X1535879Y1077988D01*
X1535907Y1077905D01*
X1535916Y1077886D01*
X1535934Y1077840D01*
X1535981Y1077775D01*
X1536036Y1077683D01*
X1536101Y1077590D01*
X1536193Y1077489D01*
X1536304Y1077387D01*
X1536434Y1077304D01*
X1536452Y1077294D01*
X1536499Y1077267D01*
X1536582Y1077239D01*
X1536693Y1077202D01*
X1536822Y1077156D01*
X1536989Y1077128D01*
X1537164Y1077100D01*
X1537358Y1077091D01*
X1537451D01*
X1537506Y1077100D01*
X1537589D01*
X1537673Y1077110D01*
X1537876Y1077147D01*
X1538098Y1077193D01*
X1538311Y1077267D01*
X1538514Y1077368D01*
X1538606Y1077433D01*
X1538690Y1077507D01*
X1538699Y1077516D01*
X1538708Y1077526D01*
X1538727Y1077553D01*
X1538754Y1077590D01*
X1538782Y1077646D01*
X1538819Y1077701D01*
X1538856Y1077784D01*
X1538893Y1077868D01*
X1538930Y1077969D01*
X1538958Y1078090D01*
X1538995Y1078228D01*
X1539023Y1078376D01*
X1539050Y1078543D01*
X1539069Y1078718D01*
X1539087Y1078922D01*
Y1079134D01*
Y1082832D01*
X1539938D01*
Y1079134D01*
D02*
G37*
G36*
X1158938D02*
Y1079125D01*
Y1079088D01*
Y1079042D01*
Y1078977D01*
X1158929Y1078894D01*
Y1078801D01*
X1158919Y1078690D01*
X1158910Y1078580D01*
X1158882Y1078330D01*
X1158845Y1078071D01*
X1158790Y1077821D01*
X1158753Y1077701D01*
X1158716Y1077590D01*
Y1077581D01*
X1158707Y1077562D01*
X1158688Y1077535D01*
X1158670Y1077498D01*
X1158614Y1077396D01*
X1158531Y1077267D01*
X1158420Y1077119D01*
X1158291Y1076971D01*
X1158124Y1076814D01*
X1157921Y1076675D01*
X1157912D01*
X1157893Y1076656D01*
X1157865Y1076647D01*
X1157819Y1076619D01*
X1157764Y1076592D01*
X1157690Y1076564D01*
X1157616Y1076536D01*
X1157523Y1076499D01*
X1157421Y1076462D01*
X1157311Y1076435D01*
X1157190Y1076407D01*
X1157052Y1076379D01*
X1156913Y1076361D01*
X1156765Y1076342D01*
X1156432Y1076324D01*
X1156349D01*
X1156284Y1076333D01*
X1156210D01*
X1156118Y1076342D01*
X1156016Y1076351D01*
X1155915Y1076361D01*
X1155683Y1076398D01*
X1155434Y1076453D01*
X1155193Y1076527D01*
X1154962Y1076629D01*
X1154953D01*
X1154934Y1076647D01*
X1154907Y1076666D01*
X1154870Y1076684D01*
X1154768Y1076758D01*
X1154648Y1076860D01*
X1154509Y1076989D01*
X1154380Y1077137D01*
X1154250Y1077322D01*
X1154149Y1077526D01*
Y1077535D01*
X1154139Y1077553D01*
X1154130Y1077590D01*
X1154112Y1077636D01*
X1154093Y1077692D01*
X1154075Y1077766D01*
X1154047Y1077849D01*
X1154028Y1077951D01*
X1154010Y1078062D01*
X1153982Y1078182D01*
X1153964Y1078311D01*
X1153945Y1078450D01*
X1153927Y1078607D01*
X1153917Y1078774D01*
X1153908Y1078949D01*
Y1079134D01*
Y1082832D01*
X1154759D01*
Y1079134D01*
Y1079125D01*
Y1079097D01*
Y1079051D01*
Y1078996D01*
X1154768Y1078931D01*
Y1078848D01*
X1154777Y1078672D01*
X1154796Y1078469D01*
X1154824Y1078265D01*
X1154861Y1078071D01*
X1154879Y1077988D01*
X1154907Y1077905D01*
X1154916Y1077886D01*
X1154934Y1077840D01*
X1154981Y1077775D01*
X1155036Y1077683D01*
X1155101Y1077590D01*
X1155193Y1077489D01*
X1155304Y1077387D01*
X1155434Y1077304D01*
X1155452Y1077294D01*
X1155499Y1077267D01*
X1155582Y1077239D01*
X1155693Y1077202D01*
X1155822Y1077156D01*
X1155988Y1077128D01*
X1156164Y1077100D01*
X1156358Y1077091D01*
X1156451D01*
X1156506Y1077100D01*
X1156589D01*
X1156673Y1077110D01*
X1156876Y1077147D01*
X1157098Y1077193D01*
X1157311Y1077267D01*
X1157514Y1077368D01*
X1157606Y1077433D01*
X1157690Y1077507D01*
X1157699Y1077516D01*
X1157708Y1077526D01*
X1157727Y1077553D01*
X1157754Y1077590D01*
X1157782Y1077646D01*
X1157819Y1077701D01*
X1157856Y1077784D01*
X1157893Y1077868D01*
X1157930Y1077969D01*
X1157958Y1078090D01*
X1157995Y1078228D01*
X1158023Y1078376D01*
X1158050Y1078543D01*
X1158069Y1078718D01*
X1158087Y1078922D01*
Y1079134D01*
Y1082832D01*
X1158938D01*
Y1079134D01*
D02*
G37*
G36*
X777938D02*
Y1079125D01*
Y1079088D01*
Y1079042D01*
Y1078977D01*
X777929Y1078894D01*
Y1078801D01*
X777919Y1078690D01*
X777910Y1078580D01*
X777882Y1078330D01*
X777845Y1078071D01*
X777790Y1077821D01*
X777753Y1077701D01*
X777716Y1077590D01*
Y1077581D01*
X777707Y1077562D01*
X777688Y1077535D01*
X777670Y1077498D01*
X777614Y1077396D01*
X777531Y1077267D01*
X777420Y1077119D01*
X777291Y1076971D01*
X777124Y1076814D01*
X776921Y1076675D01*
X776912D01*
X776893Y1076656D01*
X776865Y1076647D01*
X776819Y1076619D01*
X776764Y1076592D01*
X776690Y1076564D01*
X776616Y1076536D01*
X776523Y1076499D01*
X776422Y1076462D01*
X776311Y1076435D01*
X776190Y1076407D01*
X776052Y1076379D01*
X775913Y1076361D01*
X775765Y1076342D01*
X775432Y1076324D01*
X775349D01*
X775284Y1076333D01*
X775210D01*
X775118Y1076342D01*
X775016Y1076351D01*
X774914Y1076361D01*
X774683Y1076398D01*
X774434Y1076453D01*
X774193Y1076527D01*
X773962Y1076629D01*
X773953D01*
X773934Y1076647D01*
X773907Y1076666D01*
X773870Y1076684D01*
X773768Y1076758D01*
X773648Y1076860D01*
X773509Y1076989D01*
X773380Y1077137D01*
X773250Y1077322D01*
X773149Y1077526D01*
Y1077535D01*
X773139Y1077553D01*
X773130Y1077590D01*
X773112Y1077636D01*
X773093Y1077692D01*
X773075Y1077766D01*
X773047Y1077849D01*
X773028Y1077951D01*
X773010Y1078062D01*
X772982Y1078182D01*
X772964Y1078311D01*
X772945Y1078450D01*
X772927Y1078607D01*
X772917Y1078774D01*
X772908Y1078949D01*
Y1079134D01*
Y1082832D01*
X773759D01*
Y1079134D01*
Y1079125D01*
Y1079097D01*
Y1079051D01*
Y1078996D01*
X773768Y1078931D01*
Y1078848D01*
X773777Y1078672D01*
X773796Y1078469D01*
X773823Y1078265D01*
X773860Y1078071D01*
X773879Y1077988D01*
X773907Y1077905D01*
X773916Y1077886D01*
X773934Y1077840D01*
X773981Y1077775D01*
X774036Y1077683D01*
X774101Y1077590D01*
X774193Y1077489D01*
X774304Y1077387D01*
X774434Y1077304D01*
X774452Y1077294D01*
X774499Y1077267D01*
X774582Y1077239D01*
X774693Y1077202D01*
X774822Y1077156D01*
X774988Y1077128D01*
X775164Y1077100D01*
X775358Y1077091D01*
X775451D01*
X775506Y1077100D01*
X775589D01*
X775673Y1077110D01*
X775876Y1077147D01*
X776098Y1077193D01*
X776311Y1077267D01*
X776514Y1077368D01*
X776606Y1077433D01*
X776690Y1077507D01*
X776699Y1077516D01*
X776708Y1077526D01*
X776727Y1077553D01*
X776754Y1077590D01*
X776782Y1077646D01*
X776819Y1077701D01*
X776856Y1077784D01*
X776893Y1077868D01*
X776930Y1077969D01*
X776958Y1078090D01*
X776995Y1078228D01*
X777022Y1078376D01*
X777050Y1078543D01*
X777069Y1078718D01*
X777087Y1078922D01*
Y1079134D01*
Y1082832D01*
X777938D01*
Y1079134D01*
D02*
G37*
G36*
X396938D02*
Y1079125D01*
Y1079088D01*
Y1079042D01*
Y1078977D01*
X396929Y1078894D01*
Y1078801D01*
X396919Y1078690D01*
X396910Y1078580D01*
X396882Y1078330D01*
X396845Y1078071D01*
X396790Y1077821D01*
X396753Y1077701D01*
X396716Y1077590D01*
Y1077581D01*
X396707Y1077562D01*
X396688Y1077535D01*
X396670Y1077498D01*
X396614Y1077396D01*
X396531Y1077267D01*
X396420Y1077119D01*
X396291Y1076971D01*
X396124Y1076814D01*
X395921Y1076675D01*
X395912D01*
X395893Y1076656D01*
X395865Y1076647D01*
X395819Y1076619D01*
X395764Y1076592D01*
X395690Y1076564D01*
X395616Y1076536D01*
X395523Y1076499D01*
X395421Y1076462D01*
X395311Y1076435D01*
X395190Y1076407D01*
X395052Y1076379D01*
X394913Y1076361D01*
X394765Y1076342D01*
X394432Y1076324D01*
X394349D01*
X394284Y1076333D01*
X394210D01*
X394118Y1076342D01*
X394016Y1076351D01*
X393914Y1076361D01*
X393683Y1076398D01*
X393434Y1076453D01*
X393193Y1076527D01*
X392962Y1076629D01*
X392953D01*
X392934Y1076647D01*
X392907Y1076666D01*
X392870Y1076684D01*
X392768Y1076758D01*
X392648Y1076860D01*
X392509Y1076989D01*
X392380Y1077137D01*
X392250Y1077322D01*
X392149Y1077526D01*
Y1077535D01*
X392139Y1077553D01*
X392130Y1077590D01*
X392112Y1077636D01*
X392093Y1077692D01*
X392075Y1077766D01*
X392047Y1077849D01*
X392028Y1077951D01*
X392010Y1078062D01*
X391982Y1078182D01*
X391964Y1078311D01*
X391945Y1078450D01*
X391927Y1078607D01*
X391917Y1078774D01*
X391908Y1078949D01*
Y1079134D01*
Y1082832D01*
X392759D01*
Y1079134D01*
Y1079125D01*
Y1079097D01*
Y1079051D01*
Y1078996D01*
X392768Y1078931D01*
Y1078848D01*
X392777Y1078672D01*
X392796Y1078469D01*
X392823Y1078265D01*
X392860Y1078071D01*
X392879Y1077988D01*
X392907Y1077905D01*
X392916Y1077886D01*
X392934Y1077840D01*
X392981Y1077775D01*
X393036Y1077683D01*
X393101Y1077590D01*
X393193Y1077489D01*
X393304Y1077387D01*
X393434Y1077304D01*
X393452Y1077294D01*
X393498Y1077267D01*
X393582Y1077239D01*
X393693Y1077202D01*
X393822Y1077156D01*
X393988Y1077128D01*
X394164Y1077100D01*
X394358Y1077091D01*
X394451D01*
X394506Y1077100D01*
X394589D01*
X394673Y1077110D01*
X394876Y1077147D01*
X395098Y1077193D01*
X395311Y1077267D01*
X395514Y1077368D01*
X395606Y1077433D01*
X395690Y1077507D01*
X395699Y1077516D01*
X395708Y1077526D01*
X395727Y1077553D01*
X395754Y1077590D01*
X395782Y1077646D01*
X395819Y1077701D01*
X395856Y1077784D01*
X395893Y1077868D01*
X395930Y1077969D01*
X395958Y1078090D01*
X395995Y1078228D01*
X396022Y1078376D01*
X396050Y1078543D01*
X396069Y1078718D01*
X396087Y1078922D01*
Y1079134D01*
Y1082832D01*
X396938D01*
Y1079134D01*
D02*
G37*
G36*
X1924987Y1076435D02*
X1924202D01*
Y1081436D01*
X1924192Y1081427D01*
X1924146Y1081390D01*
X1924091Y1081335D01*
X1923998Y1081270D01*
X1923896Y1081187D01*
X1923767Y1081094D01*
X1923619Y1080993D01*
X1923453Y1080891D01*
X1923443D01*
X1923434Y1080882D01*
X1923379Y1080845D01*
X1923286Y1080798D01*
X1923175Y1080743D01*
X1923046Y1080678D01*
X1922907Y1080614D01*
X1922768Y1080549D01*
X1922630Y1080493D01*
Y1081252D01*
X1922639D01*
X1922657Y1081270D01*
X1922695Y1081279D01*
X1922741Y1081307D01*
X1922796Y1081335D01*
X1922861Y1081372D01*
X1923018Y1081464D01*
X1923203Y1081566D01*
X1923388Y1081695D01*
X1923582Y1081843D01*
X1923776Y1082000D01*
X1923786Y1082010D01*
X1923795Y1082019D01*
X1923822Y1082047D01*
X1923859Y1082074D01*
X1923943Y1082167D01*
X1924054Y1082278D01*
X1924164Y1082407D01*
X1924285Y1082555D01*
X1924386Y1082703D01*
X1924479Y1082860D01*
X1924987D01*
Y1076435D01*
D02*
G37*
G36*
X1543987D02*
X1543201D01*
Y1081436D01*
X1543192Y1081427D01*
X1543146Y1081390D01*
X1543091Y1081335D01*
X1542998Y1081270D01*
X1542896Y1081187D01*
X1542767Y1081094D01*
X1542619Y1080993D01*
X1542453Y1080891D01*
X1542443D01*
X1542434Y1080882D01*
X1542379Y1080845D01*
X1542286Y1080798D01*
X1542175Y1080743D01*
X1542046Y1080678D01*
X1541907Y1080614D01*
X1541768Y1080549D01*
X1541630Y1080493D01*
Y1081252D01*
X1541639D01*
X1541658Y1081270D01*
X1541694Y1081279D01*
X1541741Y1081307D01*
X1541796Y1081335D01*
X1541861Y1081372D01*
X1542018Y1081464D01*
X1542203Y1081566D01*
X1542388Y1081695D01*
X1542582Y1081843D01*
X1542776Y1082000D01*
X1542785Y1082010D01*
X1542795Y1082019D01*
X1542822Y1082047D01*
X1542859Y1082074D01*
X1542943Y1082167D01*
X1543054Y1082278D01*
X1543165Y1082407D01*
X1543285Y1082555D01*
X1543386Y1082703D01*
X1543479Y1082860D01*
X1543987D01*
Y1076435D01*
D02*
G37*
G36*
X1162987D02*
X1162202D01*
Y1081436D01*
X1162192Y1081427D01*
X1162146Y1081390D01*
X1162091Y1081335D01*
X1161998Y1081270D01*
X1161896Y1081187D01*
X1161767Y1081094D01*
X1161619Y1080993D01*
X1161453Y1080891D01*
X1161443D01*
X1161434Y1080882D01*
X1161379Y1080845D01*
X1161286Y1080798D01*
X1161175Y1080743D01*
X1161046Y1080678D01*
X1160907Y1080614D01*
X1160768Y1080549D01*
X1160630Y1080493D01*
Y1081252D01*
X1160639D01*
X1160658Y1081270D01*
X1160695Y1081279D01*
X1160741Y1081307D01*
X1160796Y1081335D01*
X1160861Y1081372D01*
X1161018Y1081464D01*
X1161203Y1081566D01*
X1161388Y1081695D01*
X1161582Y1081843D01*
X1161776Y1082000D01*
X1161786Y1082010D01*
X1161795Y1082019D01*
X1161822Y1082047D01*
X1161859Y1082074D01*
X1161943Y1082167D01*
X1162054Y1082278D01*
X1162165Y1082407D01*
X1162285Y1082555D01*
X1162386Y1082703D01*
X1162479Y1082860D01*
X1162987D01*
Y1076435D01*
D02*
G37*
G36*
X781987D02*
X781201D01*
Y1081436D01*
X781192Y1081427D01*
X781146Y1081390D01*
X781091Y1081335D01*
X780998Y1081270D01*
X780896Y1081187D01*
X780767Y1081094D01*
X780619Y1080993D01*
X780453Y1080891D01*
X780443D01*
X780434Y1080882D01*
X780379Y1080845D01*
X780286Y1080798D01*
X780175Y1080743D01*
X780046Y1080678D01*
X779907Y1080614D01*
X779768Y1080549D01*
X779630Y1080493D01*
Y1081252D01*
X779639D01*
X779658Y1081270D01*
X779695Y1081279D01*
X779741Y1081307D01*
X779796Y1081335D01*
X779861Y1081372D01*
X780018Y1081464D01*
X780203Y1081566D01*
X780388Y1081695D01*
X780582Y1081843D01*
X780776Y1082000D01*
X780786Y1082010D01*
X780795Y1082019D01*
X780822Y1082047D01*
X780859Y1082074D01*
X780943Y1082167D01*
X781054Y1082278D01*
X781164Y1082407D01*
X781285Y1082555D01*
X781386Y1082703D01*
X781479Y1082860D01*
X781987D01*
Y1076435D01*
D02*
G37*
G36*
X400987D02*
X400201D01*
Y1081436D01*
X400192Y1081427D01*
X400146Y1081390D01*
X400091Y1081335D01*
X399998Y1081270D01*
X399896Y1081187D01*
X399767Y1081094D01*
X399619Y1080993D01*
X399453Y1080891D01*
X399443D01*
X399434Y1080882D01*
X399379Y1080845D01*
X399286Y1080798D01*
X399175Y1080743D01*
X399046Y1080678D01*
X398907Y1080614D01*
X398768Y1080549D01*
X398630Y1080493D01*
Y1081252D01*
X398639D01*
X398657Y1081270D01*
X398694Y1081279D01*
X398741Y1081307D01*
X398796Y1081335D01*
X398861Y1081372D01*
X399018Y1081464D01*
X399203Y1081566D01*
X399388Y1081695D01*
X399582Y1081843D01*
X399776Y1082000D01*
X399785Y1082010D01*
X399795Y1082019D01*
X399822Y1082047D01*
X399859Y1082074D01*
X399943Y1082167D01*
X400054Y1082278D01*
X400164Y1082407D01*
X400285Y1082555D01*
X400386Y1082703D01*
X400479Y1082860D01*
X400987D01*
Y1076435D01*
D02*
G37*
D50*
X348100Y2262584D02*
Y2316084D01*
Y2262584D02*
X429600D01*
Y2316084D01*
X348100D02*
X429600D01*
X729100Y2262584D02*
Y2316084D01*
Y2262584D02*
X810600D01*
Y2316084D01*
X729100D02*
X810600D01*
X1110100Y2262584D02*
Y2316084D01*
Y2262584D02*
X1191600D01*
Y2316084D01*
X1110100D02*
X1191600D01*
X1491100Y2262584D02*
Y2316084D01*
Y2262584D02*
X1572600D01*
Y2316084D01*
X1491100D02*
X1572600D01*
X1872100Y2262584D02*
Y2316084D01*
Y2262584D02*
X1953600D01*
Y2316084D01*
X1872100D02*
X1953600D01*
X279078Y1199108D02*
X352078D01*
X279078Y1112108D02*
Y1199108D01*
Y1112108D02*
X352078D01*
Y1199108D01*
X351158Y1103074D02*
X432658D01*
Y1049574D02*
Y1103074D01*
X351158Y1049574D02*
X432658D01*
X351158D02*
Y1103074D01*
X660078Y1199108D02*
X733078D01*
X660078Y1112108D02*
Y1199108D01*
Y1112108D02*
X733078D01*
Y1199108D01*
X732158Y1103074D02*
X813658D01*
Y1049574D02*
Y1103074D01*
X732158Y1049574D02*
X813658D01*
X732158D02*
Y1103074D01*
X1041078Y1199108D02*
X1114078D01*
X1041078Y1112108D02*
Y1199108D01*
Y1112108D02*
X1114078D01*
Y1199108D01*
X1113158Y1103074D02*
X1194658D01*
Y1049574D02*
Y1103074D01*
X1113158Y1049574D02*
X1194658D01*
X1113158D02*
Y1103074D01*
X1422078Y1199108D02*
X1495078D01*
X1422078Y1112108D02*
Y1199108D01*
Y1112108D02*
X1495078D01*
Y1199108D01*
X1494158Y1103074D02*
X1575658D01*
Y1049574D02*
Y1103074D01*
X1494158Y1049574D02*
X1575658D01*
X1494158D02*
Y1103074D01*
X1803078Y1199108D02*
X1876078D01*
X1803078Y1112108D02*
Y1199108D01*
Y1112108D02*
X1876078D01*
Y1199108D01*
X1875158Y1103074D02*
X1956658D01*
Y1049574D02*
Y1103074D01*
X1875158Y1049574D02*
X1956658D01*
X1875158D02*
Y1103074D01*
X353180Y1707030D02*
Y1760530D01*
Y1707030D02*
X434680D01*
Y1760530D01*
X353180D02*
X434680D01*
X734180Y1707030D02*
Y1760530D01*
Y1707030D02*
X815680D01*
Y1760530D01*
X734180D02*
X815680D01*
X1115180Y1707030D02*
Y1760530D01*
Y1707030D02*
X1196680D01*
Y1760530D01*
X1115180D02*
X1196680D01*
X1496180Y1707030D02*
Y1760530D01*
Y1707030D02*
X1577680D01*
Y1760530D01*
X1496180D02*
X1577680D01*
X1877180Y1707030D02*
Y1760530D01*
Y1707030D02*
X1958680D01*
Y1760530D01*
X1877180D02*
X1958680D01*
D51*
X283350Y2151024D02*
X491350D01*
Y1880024D02*
Y2151024D01*
X283350Y1880024D02*
X491350D01*
X283350D02*
Y2151024D01*
X499850Y2125024D02*
X509850D01*
X269850Y2120024D02*
Y2130024D01*
X264850Y2125024D02*
X274850D01*
X664350Y2151024D02*
X872350D01*
Y1880024D02*
Y2151024D01*
X664350Y1880024D02*
X872350D01*
X664350D02*
Y2151024D01*
X880850Y2125024D02*
X890850D01*
X650850Y2120024D02*
Y2130024D01*
X645850Y2125024D02*
X655850D01*
X1045350Y2151024D02*
X1253350D01*
Y1880024D02*
Y2151024D01*
X1045350Y1880024D02*
X1253350D01*
X1045350D02*
Y2151024D01*
X1261850Y2125024D02*
X1271850D01*
X1031850Y2120024D02*
Y2130024D01*
X1026850Y2125024D02*
X1036850D01*
X1426350Y2151024D02*
X1634350D01*
Y1880024D02*
Y2151024D01*
X1426350Y1880024D02*
X1634350D01*
X1426350D02*
Y2151024D01*
X1642850Y2125024D02*
X1652850D01*
X1412850Y2120024D02*
Y2130024D01*
X1407850Y2125024D02*
X1417850D01*
X1807350Y2151024D02*
X2015350D01*
Y1880024D02*
Y2151024D01*
X1807350Y1880024D02*
X2015350D01*
X1807350D02*
Y2151024D01*
X2023850Y2125024D02*
X2033850D01*
X1793850Y2120024D02*
Y2130024D01*
X1788850Y2125024D02*
X1798850D01*
X318578Y1379642D02*
X445578D01*
X473578Y1323142D02*
Y1355142D01*
X318578Y1298642D02*
X445578D01*
X318578D02*
Y1379642D01*
X445578Y1298642D02*
X473578Y1323142D01*
X445578Y1379642D02*
X473578Y1355142D01*
X481078Y1339142D02*
X491078D01*
X301078D02*
X311078D01*
X306078Y1334142D02*
Y1344142D01*
X699578Y1379642D02*
X826578D01*
X854578Y1323142D02*
Y1355142D01*
X699578Y1298642D02*
X826578D01*
X699578D02*
Y1379642D01*
X826578Y1298642D02*
X854578Y1323142D01*
X826578Y1379642D02*
X854578Y1355142D01*
X862078Y1339142D02*
X872078D01*
X682078D02*
X692078D01*
X687078Y1334142D02*
Y1344142D01*
X1080578Y1379642D02*
X1207578D01*
X1235578Y1323142D02*
Y1355142D01*
X1080578Y1298642D02*
X1207578D01*
X1080578D02*
Y1379642D01*
X1207578Y1298642D02*
X1235578Y1323142D01*
X1207578Y1379642D02*
X1235578Y1355142D01*
X1243078Y1339142D02*
X1253078D01*
X1063078D02*
X1073078D01*
X1068078Y1334142D02*
Y1344142D01*
X1461578Y1379642D02*
X1588578D01*
X1616578Y1323142D02*
Y1355142D01*
X1461578Y1298642D02*
X1588578D01*
X1461578D02*
Y1379642D01*
X1588578Y1298642D02*
X1616578Y1323142D01*
X1588578Y1379642D02*
X1616578Y1355142D01*
X1624078Y1339142D02*
X1634078D01*
X1444078D02*
X1454078D01*
X1449078Y1334142D02*
Y1344142D01*
X1842578Y1379642D02*
X1969578D01*
X1997578Y1323142D02*
Y1355142D01*
X1842578Y1298642D02*
X1969578D01*
X1842578D02*
Y1379642D01*
X1969578Y1298642D02*
X1997578Y1323142D01*
X1969578Y1379642D02*
X1997578Y1355142D01*
X2005078Y1339142D02*
X2015078D01*
X1825078D02*
X1835078D01*
X1830078Y1334142D02*
Y1344142D01*
X288430Y1595470D02*
X496430D01*
Y1324470D02*
Y1595470D01*
X288430Y1324470D02*
X496430D01*
X288430D02*
Y1595470D01*
X504930Y1569470D02*
X514930D01*
X274930Y1564470D02*
Y1574470D01*
X269930Y1569470D02*
X279930D01*
X669430Y1595470D02*
X877430D01*
Y1324470D02*
Y1595470D01*
X669430Y1324470D02*
X877430D01*
X669430D02*
Y1595470D01*
X885930Y1569470D02*
X895930D01*
X655930Y1564470D02*
Y1574470D01*
X650930Y1569470D02*
X660930D01*
X1050430Y1595470D02*
X1258430D01*
Y1324470D02*
Y1595470D01*
X1050430Y1324470D02*
X1258430D01*
X1050430D02*
Y1595470D01*
X1266930Y1569470D02*
X1276930D01*
X1036930Y1564470D02*
Y1574470D01*
X1031930Y1569470D02*
X1041930D01*
X1431430Y1595470D02*
X1639430D01*
Y1324470D02*
Y1595470D01*
X1431430Y1324470D02*
X1639430D01*
X1431430D02*
Y1595470D01*
X1647930Y1569470D02*
X1657930D01*
X1417930Y1564470D02*
Y1574470D01*
X1412930Y1569470D02*
X1422930D01*
X1812430Y1595470D02*
X2020430D01*
Y1324470D02*
Y1595470D01*
X1812430Y1324470D02*
X2020430D01*
X1812430D02*
Y1595470D01*
X2028930Y1569470D02*
X2038930D01*
X1798930Y1564470D02*
Y1574470D01*
X1793930Y1569470D02*
X1803930D01*
D79*
X361509Y2241754D02*
Y2255254D01*
X383509Y2241754D02*
Y2255254D01*
X361509D02*
X383509D01*
X361509Y2241754D02*
X383509D01*
X334476Y2253204D02*
X347976D01*
X334476Y2231204D02*
X347976D01*
Y2253204D01*
X334476Y2231204D02*
Y2253204D01*
X322205Y2288598D02*
X335705D01*
X322205Y2266598D02*
X335705D01*
Y2288598D01*
X322205Y2266598D02*
Y2288598D01*
X237814Y2266598D02*
Y2288598D01*
X252314Y2266598D02*
Y2288598D01*
X237814Y2266598D02*
X252314D01*
X237814Y2288598D02*
X252314D01*
X258434Y2266598D02*
Y2288598D01*
X272934Y2266598D02*
Y2288598D01*
X258434Y2266598D02*
X272934D01*
X258434Y2288598D02*
X272934D01*
X299685Y2266598D02*
Y2288598D01*
X314185Y2266598D02*
Y2288598D01*
X299685Y2266598D02*
X314185D01*
X299685Y2288598D02*
X314185D01*
X279054Y2266598D02*
Y2288598D01*
X293554Y2266598D02*
Y2288598D01*
X279054Y2266598D02*
X293554D01*
X279054Y2288598D02*
X293554D01*
X359474Y2320164D02*
Y2342164D01*
X344974Y2320164D02*
Y2342164D01*
X359474D01*
X344974Y2320164D02*
X359474D01*
X462720Y2282101D02*
Y2287601D01*
X452220Y2282101D02*
Y2287601D01*
Y2282101D02*
X462720D01*
X452220Y2287601D02*
X462720D01*
X486960Y2292707D02*
X492460D01*
X486960Y2282207D02*
X492460D01*
Y2292707D01*
X486960Y2282207D02*
Y2292707D01*
X501080Y2282207D02*
X506580D01*
X501080Y2292707D02*
X506580D01*
X501080Y2282207D02*
Y2292707D01*
X506580Y2282207D02*
Y2292707D01*
X505452Y2313734D02*
Y2391734D01*
X438451D02*
X505452D01*
X438451Y2313734D02*
Y2391734D01*
Y2313734D02*
X505452D01*
X473090Y2283788D02*
Y2294788D01*
X479090Y2283788D02*
Y2294788D01*
X473090Y2283788D02*
X479090D01*
X473090Y2294788D02*
X479090D01*
X435850Y2283945D02*
Y2294945D01*
X441850Y2283945D02*
Y2294945D01*
X435850Y2283945D02*
X441850D01*
X435850Y2294945D02*
X441850D01*
X406331Y2373337D02*
Y2395337D01*
X391831Y2373337D02*
Y2395337D01*
X406331D01*
X391831Y2373337D02*
X406331D01*
X385712Y2373337D02*
Y2395337D01*
X371212Y2373337D02*
Y2395337D01*
X385712D01*
X371212Y2373337D02*
X385712D01*
X413161Y2372164D02*
X431161D01*
X413161Y2406164D02*
X431161D01*
X413161Y2372164D02*
Y2406164D01*
X431161Y2372164D02*
Y2406164D01*
X742509Y2241754D02*
Y2255254D01*
X764509Y2241754D02*
Y2255254D01*
X742509D02*
X764509D01*
X742509Y2241754D02*
X764509D01*
X715476Y2253204D02*
X728976D01*
X715476Y2231204D02*
X728976D01*
Y2253204D01*
X715476Y2231204D02*
Y2253204D01*
X703205Y2288598D02*
X716705D01*
X703205Y2266598D02*
X716705D01*
Y2288598D01*
X703205Y2266598D02*
Y2288598D01*
X618814Y2266598D02*
Y2288598D01*
X633314Y2266598D02*
Y2288598D01*
X618814Y2266598D02*
X633314D01*
X618814Y2288598D02*
X633314D01*
X639434Y2266598D02*
Y2288598D01*
X653934Y2266598D02*
Y2288598D01*
X639434Y2266598D02*
X653934D01*
X639434Y2288598D02*
X653934D01*
X680685Y2266598D02*
Y2288598D01*
X695185Y2266598D02*
Y2288598D01*
X680685Y2266598D02*
X695185D01*
X680685Y2288598D02*
X695185D01*
X660054Y2266598D02*
Y2288598D01*
X674554Y2266598D02*
Y2288598D01*
X660054Y2266598D02*
X674554D01*
X660054Y2288598D02*
X674554D01*
X740474Y2320164D02*
Y2342164D01*
X725974Y2320164D02*
Y2342164D01*
X740474D01*
X725974Y2320164D02*
X740474D01*
X843720Y2282101D02*
Y2287601D01*
X833220Y2282101D02*
Y2287601D01*
Y2282101D02*
X843720D01*
X833220Y2287601D02*
X843720D01*
X867960Y2292707D02*
X873460D01*
X867960Y2282207D02*
X873460D01*
Y2292707D01*
X867960Y2282207D02*
Y2292707D01*
X882080Y2282207D02*
X887580D01*
X882080Y2292707D02*
X887580D01*
X882080Y2282207D02*
Y2292707D01*
X887580Y2282207D02*
Y2292707D01*
X886451Y2313734D02*
Y2391734D01*
X819451D02*
X886451D01*
X819451Y2313734D02*
Y2391734D01*
Y2313734D02*
X886451D01*
X854090Y2283788D02*
Y2294788D01*
X860090Y2283788D02*
Y2294788D01*
X854090Y2283788D02*
X860090D01*
X854090Y2294788D02*
X860090D01*
X816850Y2283945D02*
Y2294945D01*
X822850Y2283945D02*
Y2294945D01*
X816850Y2283945D02*
X822850D01*
X816850Y2294945D02*
X822850D01*
X787331Y2373337D02*
Y2395337D01*
X772831Y2373337D02*
Y2395337D01*
X787331D01*
X772831Y2373337D02*
X787331D01*
X766712Y2373337D02*
Y2395337D01*
X752212Y2373337D02*
Y2395337D01*
X766712D01*
X752212Y2373337D02*
X766712D01*
X794161Y2372164D02*
X812161D01*
X794161Y2406164D02*
X812161D01*
X794161Y2372164D02*
Y2406164D01*
X812161Y2372164D02*
Y2406164D01*
X1123509Y2241754D02*
Y2255254D01*
X1145509Y2241754D02*
Y2255254D01*
X1123509D02*
X1145509D01*
X1123509Y2241754D02*
X1145509D01*
X1096476Y2253204D02*
X1109976D01*
X1096476Y2231204D02*
X1109976D01*
Y2253204D01*
X1096476Y2231204D02*
Y2253204D01*
X1084205Y2288598D02*
X1097705D01*
X1084205Y2266598D02*
X1097705D01*
Y2288598D01*
X1084205Y2266598D02*
Y2288598D01*
X999814Y2266598D02*
Y2288598D01*
X1014314Y2266598D02*
Y2288598D01*
X999814Y2266598D02*
X1014314D01*
X999814Y2288598D02*
X1014314D01*
X1020434Y2266598D02*
Y2288598D01*
X1034934Y2266598D02*
Y2288598D01*
X1020434Y2266598D02*
X1034934D01*
X1020434Y2288598D02*
X1034934D01*
X1061685Y2266598D02*
Y2288598D01*
X1076185Y2266598D02*
Y2288598D01*
X1061685Y2266598D02*
X1076185D01*
X1061685Y2288598D02*
X1076185D01*
X1041054Y2266598D02*
Y2288598D01*
X1055554Y2266598D02*
Y2288598D01*
X1041054Y2266598D02*
X1055554D01*
X1041054Y2288598D02*
X1055554D01*
X1121474Y2320164D02*
Y2342164D01*
X1106974Y2320164D02*
Y2342164D01*
X1121474D01*
X1106974Y2320164D02*
X1121474D01*
X1224720Y2282101D02*
Y2287601D01*
X1214220Y2282101D02*
Y2287601D01*
Y2282101D02*
X1224720D01*
X1214220Y2287601D02*
X1224720D01*
X1248960Y2292707D02*
X1254460D01*
X1248960Y2282207D02*
X1254460D01*
Y2292707D01*
X1248960Y2282207D02*
Y2292707D01*
X1263080Y2282207D02*
X1268580D01*
X1263080Y2292707D02*
X1268580D01*
X1263080Y2282207D02*
Y2292707D01*
X1268580Y2282207D02*
Y2292707D01*
X1267451Y2313734D02*
Y2391734D01*
X1200451D02*
X1267451D01*
X1200451Y2313734D02*
Y2391734D01*
Y2313734D02*
X1267451D01*
X1235090Y2283788D02*
Y2294788D01*
X1241090Y2283788D02*
Y2294788D01*
X1235090Y2283788D02*
X1241090D01*
X1235090Y2294788D02*
X1241090D01*
X1197850Y2283945D02*
Y2294945D01*
X1203850Y2283945D02*
Y2294945D01*
X1197850Y2283945D02*
X1203850D01*
X1197850Y2294945D02*
X1203850D01*
X1168331Y2373337D02*
Y2395337D01*
X1153831Y2373337D02*
Y2395337D01*
X1168331D01*
X1153831Y2373337D02*
X1168331D01*
X1147711Y2373337D02*
Y2395337D01*
X1133212Y2373337D02*
Y2395337D01*
X1147711D01*
X1133212Y2373337D02*
X1147711D01*
X1175161Y2372164D02*
X1193161D01*
X1175161Y2406164D02*
X1193161D01*
X1175161Y2372164D02*
Y2406164D01*
X1193161Y2372164D02*
Y2406164D01*
X1504509Y2241754D02*
Y2255254D01*
X1526509Y2241754D02*
Y2255254D01*
X1504509D02*
X1526509D01*
X1504509Y2241754D02*
X1526509D01*
X1477476Y2253204D02*
X1490976D01*
X1477476Y2231204D02*
X1490976D01*
Y2253204D01*
X1477476Y2231204D02*
Y2253204D01*
X1465205Y2288598D02*
X1478705D01*
X1465205Y2266598D02*
X1478705D01*
Y2288598D01*
X1465205Y2266598D02*
Y2288598D01*
X1380814Y2266598D02*
Y2288598D01*
X1395314Y2266598D02*
Y2288598D01*
X1380814Y2266598D02*
X1395314D01*
X1380814Y2288598D02*
X1395314D01*
X1401434Y2266598D02*
Y2288598D01*
X1415934Y2266598D02*
Y2288598D01*
X1401434Y2266598D02*
X1415934D01*
X1401434Y2288598D02*
X1415934D01*
X1442685Y2266598D02*
Y2288598D01*
X1457185Y2266598D02*
Y2288598D01*
X1442685Y2266598D02*
X1457185D01*
X1442685Y2288598D02*
X1457185D01*
X1422054Y2266598D02*
Y2288598D01*
X1436554Y2266598D02*
Y2288598D01*
X1422054Y2266598D02*
X1436554D01*
X1422054Y2288598D02*
X1436554D01*
X1502474Y2320164D02*
Y2342164D01*
X1487974Y2320164D02*
Y2342164D01*
X1502474D01*
X1487974Y2320164D02*
X1502474D01*
X1605720Y2282101D02*
Y2287601D01*
X1595220Y2282101D02*
Y2287601D01*
Y2282101D02*
X1605720D01*
X1595220Y2287601D02*
X1605720D01*
X1629960Y2292707D02*
X1635460D01*
X1629960Y2282207D02*
X1635460D01*
Y2292707D01*
X1629960Y2282207D02*
Y2292707D01*
X1644080Y2282207D02*
X1649580D01*
X1644080Y2292707D02*
X1649580D01*
X1644080Y2282207D02*
Y2292707D01*
X1649580Y2282207D02*
Y2292707D01*
X1648452Y2313734D02*
Y2391734D01*
X1581451D02*
X1648452D01*
X1581451Y2313734D02*
Y2391734D01*
Y2313734D02*
X1648452D01*
X1616090Y2283788D02*
Y2294788D01*
X1622090Y2283788D02*
Y2294788D01*
X1616090Y2283788D02*
X1622090D01*
X1616090Y2294788D02*
X1622090D01*
X1578850Y2283945D02*
Y2294945D01*
X1584850Y2283945D02*
Y2294945D01*
X1578850Y2283945D02*
X1584850D01*
X1578850Y2294945D02*
X1584850D01*
X1549331Y2373337D02*
Y2395337D01*
X1534831Y2373337D02*
Y2395337D01*
X1549331D01*
X1534831Y2373337D02*
X1549331D01*
X1528712Y2373337D02*
Y2395337D01*
X1514211Y2373337D02*
Y2395337D01*
X1528712D01*
X1514211Y2373337D02*
X1528712D01*
X1556161Y2372164D02*
X1574161D01*
X1556161Y2406164D02*
X1574161D01*
X1556161Y2372164D02*
Y2406164D01*
X1574161Y2372164D02*
Y2406164D01*
X1885509Y2241754D02*
Y2255254D01*
X1907509Y2241754D02*
Y2255254D01*
X1885509D02*
X1907509D01*
X1885509Y2241754D02*
X1907509D01*
X1858476Y2253204D02*
X1871976D01*
X1858476Y2231204D02*
X1871976D01*
Y2253204D01*
X1858476Y2231204D02*
Y2253204D01*
X1846205Y2288598D02*
X1859705D01*
X1846205Y2266598D02*
X1859705D01*
Y2288598D01*
X1846205Y2266598D02*
Y2288598D01*
X1761814Y2266598D02*
Y2288598D01*
X1776314Y2266598D02*
Y2288598D01*
X1761814Y2266598D02*
X1776314D01*
X1761814Y2288598D02*
X1776314D01*
X1782434Y2266598D02*
Y2288598D01*
X1796934Y2266598D02*
Y2288598D01*
X1782434Y2266598D02*
X1796934D01*
X1782434Y2288598D02*
X1796934D01*
X1823685Y2266598D02*
Y2288598D01*
X1838185Y2266598D02*
Y2288598D01*
X1823685Y2266598D02*
X1838185D01*
X1823685Y2288598D02*
X1838185D01*
X1803054Y2266598D02*
Y2288598D01*
X1817554Y2266598D02*
Y2288598D01*
X1803054Y2266598D02*
X1817554D01*
X1803054Y2288598D02*
X1817554D01*
X1883474Y2320164D02*
Y2342164D01*
X1868974Y2320164D02*
Y2342164D01*
X1883474D01*
X1868974Y2320164D02*
X1883474D01*
X1986720Y2282101D02*
Y2287601D01*
X1976220Y2282101D02*
Y2287601D01*
Y2282101D02*
X1986720D01*
X1976220Y2287601D02*
X1986720D01*
X2010960Y2292707D02*
X2016460D01*
X2010960Y2282207D02*
X2016460D01*
Y2292707D01*
X2010960Y2282207D02*
Y2292707D01*
X2025080Y2282207D02*
X2030580D01*
X2025080Y2292707D02*
X2030580D01*
X2025080Y2282207D02*
Y2292707D01*
X2030580Y2282207D02*
Y2292707D01*
X2029451Y2313734D02*
Y2391734D01*
X1962451D02*
X2029451D01*
X1962451Y2313734D02*
Y2391734D01*
Y2313734D02*
X2029451D01*
X1997090Y2283788D02*
Y2294788D01*
X2003090Y2283788D02*
Y2294788D01*
X1997090Y2283788D02*
X2003090D01*
X1997090Y2294788D02*
X2003090D01*
X1959850Y2283945D02*
Y2294945D01*
X1965850Y2283945D02*
Y2294945D01*
X1959850Y2283945D02*
X1965850D01*
X1959850Y2294945D02*
X1965850D01*
X1930331Y2373337D02*
Y2395337D01*
X1915831Y2373337D02*
Y2395337D01*
X1930331D01*
X1915831Y2373337D02*
X1930331D01*
X1909711Y2373337D02*
Y2395337D01*
X1895211Y2373337D02*
Y2395337D01*
X1909711D01*
X1895211Y2373337D02*
X1909711D01*
X1937161Y2372164D02*
X1955161D01*
X1937161Y2406164D02*
X1955161D01*
X1937161Y2372164D02*
Y2406164D01*
X1955161Y2372164D02*
Y2406164D01*
X319018Y1011074D02*
X329518D01*
X319018Y1005574D02*
X329518D01*
X319018D02*
Y1011074D01*
X329518Y1005574D02*
Y1011074D01*
X476712Y1072674D02*
Y1083674D01*
X482712Y1072674D02*
Y1083674D01*
X476712Y1072674D02*
X482712D01*
X476712Y1083674D02*
X482712D01*
X388730Y1148294D02*
X403230D01*
X388730Y1170294D02*
X403230D01*
X388730Y1148294D02*
Y1170294D01*
X403230Y1148294D02*
Y1170294D01*
X410984Y1148294D02*
X425484D01*
X410984Y1170294D02*
X425484D01*
X410984Y1148294D02*
Y1170294D01*
X425484Y1148294D02*
Y1170294D01*
X439892Y1047454D02*
Y1057954D01*
X445392Y1047454D02*
Y1057954D01*
X439892Y1047454D02*
X445392D01*
X439892Y1057954D02*
X445392D01*
X439416Y1197824D02*
Y1264824D01*
X361416Y1197824D02*
X439416D01*
X361416D02*
Y1264824D01*
X439416D01*
X378738Y1141294D02*
Y1175294D01*
X360738Y1141294D02*
Y1175294D01*
X378738D01*
X360738Y1141294D02*
X378738D01*
X333172Y1035250D02*
Y1040750D01*
X343672Y1035250D02*
Y1040750D01*
X333172D02*
X343672D01*
X333172Y1035250D02*
X343672D01*
X333153Y1099175D02*
X339153D01*
X333153Y1088175D02*
X339153D01*
Y1099175D01*
X333153Y1088175D02*
Y1099175D01*
X320810D02*
X326810D01*
X320810Y1088175D02*
X326810D01*
Y1099175D01*
X320810Y1088175D02*
Y1099175D01*
X329672Y1066302D02*
X335672D01*
X329672Y1077302D02*
X335672D01*
X329672Y1066302D02*
Y1077302D01*
X335672Y1066302D02*
Y1077302D01*
X315578Y1066302D02*
X321578D01*
X315578Y1077302D02*
X321578D01*
X315578Y1066302D02*
Y1077302D01*
X321578Y1066302D02*
Y1077302D01*
X439642Y1083674D02*
X445642D01*
X439642Y1072674D02*
X445642D01*
Y1083674D01*
X439642Y1072674D02*
Y1083674D01*
X456235Y1055454D02*
X466735D01*
X456235Y1049954D02*
X466735D01*
X456235D02*
Y1055454D01*
X466735Y1049954D02*
Y1055454D01*
X372257Y1109014D02*
Y1115014D01*
X361258Y1109014D02*
Y1115014D01*
Y1109014D02*
X372257D01*
X361258Y1115014D02*
X372257D01*
X456066Y1074074D02*
X466567D01*
X456066Y1068574D02*
X466567D01*
X456066D02*
Y1074074D01*
X466567Y1068574D02*
Y1074074D01*
X354142Y1025500D02*
X359642D01*
X354142Y1036000D02*
X359642D01*
X354142Y1025500D02*
Y1036000D01*
X359642Y1025500D02*
Y1036000D01*
X700018Y1011074D02*
X710518D01*
X700018Y1005574D02*
X710518D01*
X700018D02*
Y1011074D01*
X710518Y1005574D02*
Y1011074D01*
X857712Y1072674D02*
Y1083674D01*
X863712Y1072674D02*
Y1083674D01*
X857712Y1072674D02*
X863712D01*
X857712Y1083674D02*
X863712D01*
X769730Y1148294D02*
X784230D01*
X769730Y1170294D02*
X784230D01*
X769730Y1148294D02*
Y1170294D01*
X784230Y1148294D02*
Y1170294D01*
X791984Y1148294D02*
X806484D01*
X791984Y1170294D02*
X806484D01*
X791984Y1148294D02*
Y1170294D01*
X806484Y1148294D02*
Y1170294D01*
X820892Y1047454D02*
Y1057954D01*
X826392Y1047454D02*
Y1057954D01*
X820892Y1047454D02*
X826392D01*
X820892Y1057954D02*
X826392D01*
X820416Y1197824D02*
Y1264824D01*
X742416Y1197824D02*
X820416D01*
X742416D02*
Y1264824D01*
X820416D01*
X759738Y1141294D02*
Y1175294D01*
X741738Y1141294D02*
Y1175294D01*
X759738D01*
X741738Y1141294D02*
X759738D01*
X714172Y1035250D02*
Y1040750D01*
X724672Y1035250D02*
Y1040750D01*
X714172D02*
X724672D01*
X714172Y1035250D02*
X724672D01*
X714153Y1099175D02*
X720153D01*
X714153Y1088175D02*
X720153D01*
Y1099175D01*
X714153Y1088175D02*
Y1099175D01*
X701810D02*
X707810D01*
X701810Y1088175D02*
X707810D01*
Y1099175D01*
X701810Y1088175D02*
Y1099175D01*
X710672Y1066302D02*
X716672D01*
X710672Y1077302D02*
X716672D01*
X710672Y1066302D02*
Y1077302D01*
X716672Y1066302D02*
Y1077302D01*
X696578Y1066302D02*
X702578D01*
X696578Y1077302D02*
X702578D01*
X696578Y1066302D02*
Y1077302D01*
X702578Y1066302D02*
Y1077302D01*
X820642Y1083674D02*
X826642D01*
X820642Y1072674D02*
X826642D01*
Y1083674D01*
X820642Y1072674D02*
Y1083674D01*
X837235Y1055454D02*
X847735D01*
X837235Y1049954D02*
X847735D01*
X837235D02*
Y1055454D01*
X847735Y1049954D02*
Y1055454D01*
X753258Y1109014D02*
Y1115014D01*
X742258Y1109014D02*
Y1115014D01*
Y1109014D02*
X753258D01*
X742258Y1115014D02*
X753258D01*
X837066Y1074074D02*
X847567D01*
X837066Y1068574D02*
X847567D01*
X837066D02*
Y1074074D01*
X847567Y1068574D02*
Y1074074D01*
X735142Y1025500D02*
X740642D01*
X735142Y1036000D02*
X740642D01*
X735142Y1025500D02*
Y1036000D01*
X740642Y1025500D02*
Y1036000D01*
X1081018Y1011074D02*
X1091518D01*
X1081018Y1005574D02*
X1091518D01*
X1081018D02*
Y1011074D01*
X1091518Y1005574D02*
Y1011074D01*
X1238712Y1072674D02*
Y1083674D01*
X1244712Y1072674D02*
Y1083674D01*
X1238712Y1072674D02*
X1244712D01*
X1238712Y1083674D02*
X1244712D01*
X1150730Y1148294D02*
X1165230D01*
X1150730Y1170294D02*
X1165230D01*
X1150730Y1148294D02*
Y1170294D01*
X1165230Y1148294D02*
Y1170294D01*
X1172984Y1148294D02*
X1187484D01*
X1172984Y1170294D02*
X1187484D01*
X1172984Y1148294D02*
Y1170294D01*
X1187484Y1148294D02*
Y1170294D01*
X1201892Y1047454D02*
Y1057954D01*
X1207392Y1047454D02*
Y1057954D01*
X1201892Y1047454D02*
X1207392D01*
X1201892Y1057954D02*
X1207392D01*
X1201416Y1197824D02*
Y1264824D01*
X1123416Y1197824D02*
X1201416D01*
X1123416D02*
Y1264824D01*
X1201416D01*
X1140738Y1141294D02*
Y1175294D01*
X1122738Y1141294D02*
Y1175294D01*
X1140738D01*
X1122738Y1141294D02*
X1140738D01*
X1095172Y1035250D02*
Y1040750D01*
X1105672Y1035250D02*
Y1040750D01*
X1095172D02*
X1105672D01*
X1095172Y1035250D02*
X1105672D01*
X1095153Y1099175D02*
X1101153D01*
X1095153Y1088175D02*
X1101153D01*
Y1099175D01*
X1095153Y1088175D02*
Y1099175D01*
X1082810D02*
X1088810D01*
X1082810Y1088175D02*
X1088810D01*
Y1099175D01*
X1082810Y1088175D02*
Y1099175D01*
X1091672Y1066302D02*
X1097672D01*
X1091672Y1077302D02*
X1097672D01*
X1091672Y1066302D02*
Y1077302D01*
X1097672Y1066302D02*
Y1077302D01*
X1077578Y1066302D02*
X1083578D01*
X1077578Y1077302D02*
X1083578D01*
X1077578Y1066302D02*
Y1077302D01*
X1083578Y1066302D02*
Y1077302D01*
X1201642Y1083674D02*
X1207642D01*
X1201642Y1072674D02*
X1207642D01*
Y1083674D01*
X1201642Y1072674D02*
Y1083674D01*
X1218235Y1055454D02*
X1228735D01*
X1218235Y1049954D02*
X1228735D01*
X1218235D02*
Y1055454D01*
X1228735Y1049954D02*
Y1055454D01*
X1134258Y1109014D02*
Y1115014D01*
X1123258Y1109014D02*
Y1115014D01*
Y1109014D02*
X1134258D01*
X1123258Y1115014D02*
X1134258D01*
X1218066Y1074074D02*
X1228567D01*
X1218066Y1068574D02*
X1228567D01*
X1218066D02*
Y1074074D01*
X1228567Y1068574D02*
Y1074074D01*
X1116142Y1025500D02*
X1121642D01*
X1116142Y1036000D02*
X1121642D01*
X1116142Y1025500D02*
Y1036000D01*
X1121642Y1025500D02*
Y1036000D01*
X1462018Y1011074D02*
X1472518D01*
X1462018Y1005574D02*
X1472518D01*
X1462018D02*
Y1011074D01*
X1472518Y1005574D02*
Y1011074D01*
X1619712Y1072674D02*
Y1083674D01*
X1625712Y1072674D02*
Y1083674D01*
X1619712Y1072674D02*
X1625712D01*
X1619712Y1083674D02*
X1625712D01*
X1531730Y1148294D02*
X1546230D01*
X1531730Y1170294D02*
X1546230D01*
X1531730Y1148294D02*
Y1170294D01*
X1546230Y1148294D02*
Y1170294D01*
X1553984Y1148294D02*
X1568484D01*
X1553984Y1170294D02*
X1568484D01*
X1553984Y1148294D02*
Y1170294D01*
X1568484Y1148294D02*
Y1170294D01*
X1582892Y1047454D02*
Y1057954D01*
X1588392Y1047454D02*
Y1057954D01*
X1582892Y1047454D02*
X1588392D01*
X1582892Y1057954D02*
X1588392D01*
X1582416Y1197824D02*
Y1264824D01*
X1504416Y1197824D02*
X1582416D01*
X1504416D02*
Y1264824D01*
X1582416D01*
X1521738Y1141294D02*
Y1175294D01*
X1503738Y1141294D02*
Y1175294D01*
X1521738D01*
X1503738Y1141294D02*
X1521738D01*
X1476172Y1035250D02*
Y1040750D01*
X1486672Y1035250D02*
Y1040750D01*
X1476172D02*
X1486672D01*
X1476172Y1035250D02*
X1486672D01*
X1476153Y1099175D02*
X1482153D01*
X1476153Y1088175D02*
X1482153D01*
Y1099175D01*
X1476153Y1088175D02*
Y1099175D01*
X1463810D02*
X1469810D01*
X1463810Y1088175D02*
X1469810D01*
Y1099175D01*
X1463810Y1088175D02*
Y1099175D01*
X1472672Y1066302D02*
X1478672D01*
X1472672Y1077302D02*
X1478672D01*
X1472672Y1066302D02*
Y1077302D01*
X1478672Y1066302D02*
Y1077302D01*
X1458578Y1066302D02*
X1464578D01*
X1458578Y1077302D02*
X1464578D01*
X1458578Y1066302D02*
Y1077302D01*
X1464578Y1066302D02*
Y1077302D01*
X1582642Y1083674D02*
X1588642D01*
X1582642Y1072674D02*
X1588642D01*
Y1083674D01*
X1582642Y1072674D02*
Y1083674D01*
X1599235Y1055454D02*
X1609735D01*
X1599235Y1049954D02*
X1609735D01*
X1599235D02*
Y1055454D01*
X1609735Y1049954D02*
Y1055454D01*
X1515258Y1109014D02*
Y1115014D01*
X1504258Y1109014D02*
Y1115014D01*
Y1109014D02*
X1515258D01*
X1504258Y1115014D02*
X1515258D01*
X1599066Y1074074D02*
X1609566D01*
X1599066Y1068574D02*
X1609566D01*
X1599066D02*
Y1074074D01*
X1609566Y1068574D02*
Y1074074D01*
X1497142Y1025500D02*
X1502642D01*
X1497142Y1036000D02*
X1502642D01*
X1497142Y1025500D02*
Y1036000D01*
X1502642Y1025500D02*
Y1036000D01*
X1843018Y1011074D02*
X1853518D01*
X1843018Y1005574D02*
X1853518D01*
X1843018D02*
Y1011074D01*
X1853518Y1005574D02*
Y1011074D01*
X2000712Y1072674D02*
Y1083674D01*
X2006712Y1072674D02*
Y1083674D01*
X2000712Y1072674D02*
X2006712D01*
X2000712Y1083674D02*
X2006712D01*
X1912730Y1148294D02*
X1927230D01*
X1912730Y1170294D02*
X1927230D01*
X1912730Y1148294D02*
Y1170294D01*
X1927230Y1148294D02*
Y1170294D01*
X1934984Y1148294D02*
X1949484D01*
X1934984Y1170294D02*
X1949484D01*
X1934984Y1148294D02*
Y1170294D01*
X1949484Y1148294D02*
Y1170294D01*
X1963892Y1047454D02*
Y1057954D01*
X1969392Y1047454D02*
Y1057954D01*
X1963892Y1047454D02*
X1969392D01*
X1963892Y1057954D02*
X1969392D01*
X1963416Y1197824D02*
Y1264824D01*
X1885416Y1197824D02*
X1963416D01*
X1885416D02*
Y1264824D01*
X1963416D01*
X1902738Y1141294D02*
Y1175294D01*
X1884738Y1141294D02*
Y1175294D01*
X1902738D01*
X1884738Y1141294D02*
X1902738D01*
X1857172Y1035250D02*
Y1040750D01*
X1867672Y1035250D02*
Y1040750D01*
X1857172D02*
X1867672D01*
X1857172Y1035250D02*
X1867672D01*
X1857153Y1099175D02*
X1863153D01*
X1857153Y1088175D02*
X1863153D01*
Y1099175D01*
X1857153Y1088175D02*
Y1099175D01*
X1844810D02*
X1850810D01*
X1844810Y1088175D02*
X1850810D01*
Y1099175D01*
X1844810Y1088175D02*
Y1099175D01*
X1853672Y1066302D02*
X1859672D01*
X1853672Y1077302D02*
X1859672D01*
X1853672Y1066302D02*
Y1077302D01*
X1859672Y1066302D02*
Y1077302D01*
X1839578Y1066302D02*
X1845578D01*
X1839578Y1077302D02*
X1845578D01*
X1839578Y1066302D02*
Y1077302D01*
X1845578Y1066302D02*
Y1077302D01*
X1963642Y1083674D02*
X1969642D01*
X1963642Y1072674D02*
X1969642D01*
Y1083674D01*
X1963642Y1072674D02*
Y1083674D01*
X1980235Y1055454D02*
X1990735D01*
X1980235Y1049954D02*
X1990735D01*
X1980235D02*
Y1055454D01*
X1990735Y1049954D02*
Y1055454D01*
X1896257Y1109014D02*
Y1115014D01*
X1885258Y1109014D02*
Y1115014D01*
Y1109014D02*
X1896257D01*
X1885258Y1115014D02*
X1896257D01*
X1980066Y1074074D02*
X1990567D01*
X1980066Y1068574D02*
X1990567D01*
X1980066D02*
Y1074074D01*
X1990567Y1068574D02*
Y1074074D01*
X1878142Y1025500D02*
X1883642D01*
X1878142Y1036000D02*
X1883642D01*
X1878142Y1025500D02*
Y1036000D01*
X1883642Y1025500D02*
Y1036000D01*
X366589Y1686200D02*
Y1699700D01*
X388589Y1686200D02*
Y1699700D01*
X366589D02*
X388589D01*
X366589Y1686200D02*
X388589D01*
X339556Y1697650D02*
X353056D01*
X339556Y1675650D02*
X353056D01*
Y1697650D01*
X339556Y1675650D02*
Y1697650D01*
X327285Y1733044D02*
X340785D01*
X327285Y1711044D02*
X340785D01*
Y1733044D01*
X327285Y1711044D02*
Y1733044D01*
X242894Y1711044D02*
Y1733044D01*
X257394Y1711044D02*
Y1733044D01*
X242894Y1711044D02*
X257394D01*
X242894Y1733044D02*
X257394D01*
X263514Y1711044D02*
Y1733044D01*
X278014Y1711044D02*
Y1733044D01*
X263514Y1711044D02*
X278014D01*
X263514Y1733044D02*
X278014D01*
X304765Y1711044D02*
Y1733044D01*
X319265Y1711044D02*
Y1733044D01*
X304765Y1711044D02*
X319265D01*
X304765Y1733044D02*
X319265D01*
X284134Y1711044D02*
Y1733044D01*
X298634Y1711044D02*
Y1733044D01*
X284134Y1711044D02*
X298634D01*
X284134Y1733044D02*
X298634D01*
X364554Y1764610D02*
Y1786610D01*
X350054Y1764610D02*
Y1786610D01*
X364554D01*
X350054Y1764610D02*
X364554D01*
X467800Y1726547D02*
Y1732047D01*
X457300Y1726547D02*
Y1732047D01*
Y1726547D02*
X467800D01*
X457300Y1732047D02*
X467800D01*
X492040Y1737153D02*
X497540D01*
X492040Y1726653D02*
X497540D01*
Y1737153D01*
X492040Y1726653D02*
Y1737153D01*
X506160Y1726653D02*
X511660D01*
X506160Y1737153D02*
X511660D01*
X506160Y1726653D02*
Y1737153D01*
X511660Y1726653D02*
Y1737153D01*
X510532Y1758180D02*
Y1836180D01*
X443531D02*
X510532D01*
X443531Y1758180D02*
Y1836180D01*
Y1758180D02*
X510532D01*
X478170Y1728234D02*
Y1739234D01*
X484170Y1728234D02*
Y1739234D01*
X478170Y1728234D02*
X484170D01*
X478170Y1739234D02*
X484170D01*
X440930Y1728391D02*
Y1739391D01*
X446930Y1728391D02*
Y1739391D01*
X440930Y1728391D02*
X446930D01*
X440930Y1739391D02*
X446930D01*
X411411Y1817783D02*
Y1839783D01*
X396911Y1817783D02*
Y1839783D01*
X411411D01*
X396911Y1817783D02*
X411411D01*
X390792Y1817783D02*
Y1839783D01*
X376292Y1817783D02*
Y1839783D01*
X390792D01*
X376292Y1817783D02*
X390792D01*
X418241Y1816610D02*
X436241D01*
X418241Y1850610D02*
X436241D01*
X418241Y1816610D02*
Y1850610D01*
X436241Y1816610D02*
Y1850610D01*
X747589Y1686200D02*
Y1699700D01*
X769589Y1686200D02*
Y1699700D01*
X747589D02*
X769589D01*
X747589Y1686200D02*
X769589D01*
X720556Y1697650D02*
X734056D01*
X720556Y1675650D02*
X734056D01*
Y1697650D01*
X720556Y1675650D02*
Y1697650D01*
X708285Y1733044D02*
X721785D01*
X708285Y1711044D02*
X721785D01*
Y1733044D01*
X708285Y1711044D02*
Y1733044D01*
X623894Y1711044D02*
Y1733044D01*
X638394Y1711044D02*
Y1733044D01*
X623894Y1711044D02*
X638394D01*
X623894Y1733044D02*
X638394D01*
X644514Y1711044D02*
Y1733044D01*
X659014Y1711044D02*
Y1733044D01*
X644514Y1711044D02*
X659014D01*
X644514Y1733044D02*
X659014D01*
X685765Y1711044D02*
Y1733044D01*
X700265Y1711044D02*
Y1733044D01*
X685765Y1711044D02*
X700265D01*
X685765Y1733044D02*
X700265D01*
X665134Y1711044D02*
Y1733044D01*
X679634Y1711044D02*
Y1733044D01*
X665134Y1711044D02*
X679634D01*
X665134Y1733044D02*
X679634D01*
X745554Y1764610D02*
Y1786610D01*
X731054Y1764610D02*
Y1786610D01*
X745554D01*
X731054Y1764610D02*
X745554D01*
X848800Y1726547D02*
Y1732047D01*
X838300Y1726547D02*
Y1732047D01*
Y1726547D02*
X848800D01*
X838300Y1732047D02*
X848800D01*
X873040Y1737153D02*
X878540D01*
X873040Y1726653D02*
X878540D01*
Y1737153D01*
X873040Y1726653D02*
Y1737153D01*
X887160Y1726653D02*
X892660D01*
X887160Y1737153D02*
X892660D01*
X887160Y1726653D02*
Y1737153D01*
X892660Y1726653D02*
Y1737153D01*
X891532Y1758180D02*
Y1836180D01*
X824531D02*
X891532D01*
X824531Y1758180D02*
Y1836180D01*
Y1758180D02*
X891532D01*
X859170Y1728234D02*
Y1739234D01*
X865170Y1728234D02*
Y1739234D01*
X859170Y1728234D02*
X865170D01*
X859170Y1739234D02*
X865170D01*
X821930Y1728391D02*
Y1739391D01*
X827930Y1728391D02*
Y1739391D01*
X821930Y1728391D02*
X827930D01*
X821930Y1739391D02*
X827930D01*
X792411Y1817783D02*
Y1839783D01*
X777911Y1817783D02*
Y1839783D01*
X792411D01*
X777911Y1817783D02*
X792411D01*
X771792Y1817783D02*
Y1839783D01*
X757291Y1817783D02*
Y1839783D01*
X771792D01*
X757291Y1817783D02*
X771792D01*
X799241Y1816610D02*
X817241D01*
X799241Y1850610D02*
X817241D01*
X799241Y1816610D02*
Y1850610D01*
X817241Y1816610D02*
Y1850610D01*
X1128589Y1686200D02*
Y1699700D01*
X1150589Y1686200D02*
Y1699700D01*
X1128589D02*
X1150589D01*
X1128589Y1686200D02*
X1150589D01*
X1101556Y1697650D02*
X1115056D01*
X1101556Y1675650D02*
X1115056D01*
Y1697650D01*
X1101556Y1675650D02*
Y1697650D01*
X1089285Y1733044D02*
X1102785D01*
X1089285Y1711044D02*
X1102785D01*
Y1733044D01*
X1089285Y1711044D02*
Y1733044D01*
X1004894Y1711044D02*
Y1733044D01*
X1019394Y1711044D02*
Y1733044D01*
X1004894Y1711044D02*
X1019394D01*
X1004894Y1733044D02*
X1019394D01*
X1025514Y1711044D02*
Y1733044D01*
X1040014Y1711044D02*
Y1733044D01*
X1025514Y1711044D02*
X1040014D01*
X1025514Y1733044D02*
X1040014D01*
X1066765Y1711044D02*
Y1733044D01*
X1081265Y1711044D02*
Y1733044D01*
X1066765Y1711044D02*
X1081265D01*
X1066765Y1733044D02*
X1081265D01*
X1046134Y1711044D02*
Y1733044D01*
X1060634Y1711044D02*
Y1733044D01*
X1046134Y1711044D02*
X1060634D01*
X1046134Y1733044D02*
X1060634D01*
X1126554Y1764610D02*
Y1786610D01*
X1112054Y1764610D02*
Y1786610D01*
X1126554D01*
X1112054Y1764610D02*
X1126554D01*
X1229800Y1726547D02*
Y1732047D01*
X1219300Y1726547D02*
Y1732047D01*
Y1726547D02*
X1229800D01*
X1219300Y1732047D02*
X1229800D01*
X1254040Y1737153D02*
X1259540D01*
X1254040Y1726653D02*
X1259540D01*
Y1737153D01*
X1254040Y1726653D02*
Y1737153D01*
X1268160Y1726653D02*
X1273660D01*
X1268160Y1737153D02*
X1273660D01*
X1268160Y1726653D02*
Y1737153D01*
X1273660Y1726653D02*
Y1737153D01*
X1272532Y1758180D02*
Y1836180D01*
X1205531D02*
X1272532D01*
X1205531Y1758180D02*
Y1836180D01*
Y1758180D02*
X1272532D01*
X1240170Y1728234D02*
Y1739234D01*
X1246170Y1728234D02*
Y1739234D01*
X1240170Y1728234D02*
X1246170D01*
X1240170Y1739234D02*
X1246170D01*
X1202930Y1728391D02*
Y1739391D01*
X1208930Y1728391D02*
Y1739391D01*
X1202930Y1728391D02*
X1208930D01*
X1202930Y1739391D02*
X1208930D01*
X1173411Y1817783D02*
Y1839783D01*
X1158911Y1817783D02*
Y1839783D01*
X1173411D01*
X1158911Y1817783D02*
X1173411D01*
X1152792Y1817783D02*
Y1839783D01*
X1138291Y1817783D02*
Y1839783D01*
X1152792D01*
X1138291Y1817783D02*
X1152792D01*
X1180241Y1816610D02*
X1198241D01*
X1180241Y1850610D02*
X1198241D01*
X1180241Y1816610D02*
Y1850610D01*
X1198241Y1816610D02*
Y1850610D01*
X1509589Y1686200D02*
Y1699700D01*
X1531589Y1686200D02*
Y1699700D01*
X1509589D02*
X1531589D01*
X1509589Y1686200D02*
X1531589D01*
X1482556Y1697650D02*
X1496056D01*
X1482556Y1675650D02*
X1496056D01*
Y1697650D01*
X1482556Y1675650D02*
Y1697650D01*
X1470285Y1733044D02*
X1483785D01*
X1470285Y1711044D02*
X1483785D01*
Y1733044D01*
X1470285Y1711044D02*
Y1733044D01*
X1385894Y1711044D02*
Y1733044D01*
X1400394Y1711044D02*
Y1733044D01*
X1385894Y1711044D02*
X1400394D01*
X1385894Y1733044D02*
X1400394D01*
X1406514Y1711044D02*
Y1733044D01*
X1421014Y1711044D02*
Y1733044D01*
X1406514Y1711044D02*
X1421014D01*
X1406514Y1733044D02*
X1421014D01*
X1447765Y1711044D02*
Y1733044D01*
X1462265Y1711044D02*
Y1733044D01*
X1447765Y1711044D02*
X1462265D01*
X1447765Y1733044D02*
X1462265D01*
X1427134Y1711044D02*
Y1733044D01*
X1441634Y1711044D02*
Y1733044D01*
X1427134Y1711044D02*
X1441634D01*
X1427134Y1733044D02*
X1441634D01*
X1507554Y1764610D02*
Y1786610D01*
X1493054Y1764610D02*
Y1786610D01*
X1507554D01*
X1493054Y1764610D02*
X1507554D01*
X1610800Y1726547D02*
Y1732047D01*
X1600300Y1726547D02*
Y1732047D01*
Y1726547D02*
X1610800D01*
X1600300Y1732047D02*
X1610800D01*
X1635040Y1737153D02*
X1640540D01*
X1635040Y1726653D02*
X1640540D01*
Y1737153D01*
X1635040Y1726653D02*
Y1737153D01*
X1649160Y1726653D02*
X1654660D01*
X1649160Y1737153D02*
X1654660D01*
X1649160Y1726653D02*
Y1737153D01*
X1654660Y1726653D02*
Y1737153D01*
X1653531Y1758180D02*
Y1836180D01*
X1586531D02*
X1653531D01*
X1586531Y1758180D02*
Y1836180D01*
Y1758180D02*
X1653531D01*
X1621170Y1728234D02*
Y1739234D01*
X1627170Y1728234D02*
Y1739234D01*
X1621170Y1728234D02*
X1627170D01*
X1621170Y1739234D02*
X1627170D01*
X1583930Y1728391D02*
Y1739391D01*
X1589930Y1728391D02*
Y1739391D01*
X1583930Y1728391D02*
X1589930D01*
X1583930Y1739391D02*
X1589930D01*
X1554411Y1817783D02*
Y1839783D01*
X1539911Y1817783D02*
Y1839783D01*
X1554411D01*
X1539911Y1817783D02*
X1554411D01*
X1533792Y1817783D02*
Y1839783D01*
X1519292Y1817783D02*
Y1839783D01*
X1533792D01*
X1519292Y1817783D02*
X1533792D01*
X1561241Y1816610D02*
X1579241D01*
X1561241Y1850610D02*
X1579241D01*
X1561241Y1816610D02*
Y1850610D01*
X1579241Y1816610D02*
Y1850610D01*
X1890589Y1686200D02*
Y1699700D01*
X1912589Y1686200D02*
Y1699700D01*
X1890589D02*
X1912589D01*
X1890589Y1686200D02*
X1912589D01*
X1863556Y1697650D02*
X1877056D01*
X1863556Y1675650D02*
X1877056D01*
Y1697650D01*
X1863556Y1675650D02*
Y1697650D01*
X1851285Y1733044D02*
X1864785D01*
X1851285Y1711044D02*
X1864785D01*
Y1733044D01*
X1851285Y1711044D02*
Y1733044D01*
X1766894Y1711044D02*
Y1733044D01*
X1781394Y1711044D02*
Y1733044D01*
X1766894Y1711044D02*
X1781394D01*
X1766894Y1733044D02*
X1781394D01*
X1787514Y1711044D02*
Y1733044D01*
X1802014Y1711044D02*
Y1733044D01*
X1787514Y1711044D02*
X1802014D01*
X1787514Y1733044D02*
X1802014D01*
X1828765Y1711044D02*
Y1733044D01*
X1843265Y1711044D02*
Y1733044D01*
X1828765Y1711044D02*
X1843265D01*
X1828765Y1733044D02*
X1843265D01*
X1808134Y1711044D02*
Y1733044D01*
X1822634Y1711044D02*
Y1733044D01*
X1808134Y1711044D02*
X1822634D01*
X1808134Y1733044D02*
X1822634D01*
X1888554Y1764610D02*
Y1786610D01*
X1874054Y1764610D02*
Y1786610D01*
X1888554D01*
X1874054Y1764610D02*
X1888554D01*
X1991800Y1726547D02*
Y1732047D01*
X1981300Y1726547D02*
Y1732047D01*
Y1726547D02*
X1991800D01*
X1981300Y1732047D02*
X1991800D01*
X2016040Y1737153D02*
X2021540D01*
X2016040Y1726653D02*
X2021540D01*
Y1737153D01*
X2016040Y1726653D02*
Y1737153D01*
X2030160Y1726653D02*
X2035660D01*
X2030160Y1737153D02*
X2035660D01*
X2030160Y1726653D02*
Y1737153D01*
X2035660Y1726653D02*
Y1737153D01*
X2034532Y1758180D02*
Y1836180D01*
X1967531D02*
X2034532D01*
X1967531Y1758180D02*
Y1836180D01*
Y1758180D02*
X2034532D01*
X2002170Y1728234D02*
Y1739234D01*
X2008170Y1728234D02*
Y1739234D01*
X2002170Y1728234D02*
X2008170D01*
X2002170Y1739234D02*
X2008170D01*
X1964930Y1728391D02*
Y1739391D01*
X1970930Y1728391D02*
Y1739391D01*
X1964930Y1728391D02*
X1970930D01*
X1964930Y1739391D02*
X1970930D01*
X1935411Y1817783D02*
Y1839783D01*
X1920911Y1817783D02*
Y1839783D01*
X1935411D01*
X1920911Y1817783D02*
X1935411D01*
X1914792Y1817783D02*
Y1839783D01*
X1900291Y1817783D02*
Y1839783D01*
X1914792D01*
X1900291Y1817783D02*
X1914792D01*
X1942241Y1816610D02*
X1960241D01*
X1942241Y1850610D02*
X1960241D01*
X1942241Y1816610D02*
Y1850610D01*
X1960241Y1816610D02*
Y1850610D01*
D80*
X268814Y2308733D02*
X336886D01*
X268814D02*
Y2376805D01*
X336886D01*
Y2308733D02*
Y2376805D01*
X319868Y2308733D02*
X336886Y2325751D01*
X268814D02*
X285832Y2308733D01*
X649814D02*
X717886D01*
X649814D02*
Y2376805D01*
X717886D01*
Y2308733D02*
Y2376805D01*
X700868Y2308733D02*
X717886Y2325751D01*
X649814D02*
X666832Y2308733D01*
X1030814D02*
X1098886D01*
X1030814D02*
Y2376805D01*
X1098886D01*
Y2308733D02*
Y2376805D01*
X1081868Y2308733D02*
X1098886Y2325751D01*
X1030814D02*
X1047832Y2308733D01*
X1411814D02*
X1479886D01*
X1411814D02*
Y2376805D01*
X1479886D01*
Y2308733D02*
Y2376805D01*
X1462868Y2308733D02*
X1479886Y2325751D01*
X1411814D02*
X1428832Y2308733D01*
X1792814D02*
X1860886D01*
X1792814D02*
Y2376805D01*
X1860886D01*
Y2308733D02*
Y2376805D01*
X1843868Y2308733D02*
X1860886Y2325751D01*
X1792814D02*
X1809832Y2308733D01*
X273894Y1753179D02*
X341966D01*
X273894D02*
Y1821251D01*
X341966D01*
Y1753179D02*
Y1821251D01*
X324948Y1753179D02*
X341966Y1770197D01*
X273894D02*
X290912Y1753179D01*
X654894D02*
X722966D01*
X654894D02*
Y1821251D01*
X722966D01*
Y1753179D02*
Y1821251D01*
X705948Y1753179D02*
X722966Y1770197D01*
X654894D02*
X671912Y1753179D01*
X1035894D02*
X1103966D01*
X1035894D02*
Y1821251D01*
X1103966D01*
Y1753179D02*
Y1821251D01*
X1086948Y1753179D02*
X1103966Y1770197D01*
X1035894D02*
X1052912Y1753179D01*
X1416894D02*
X1484966D01*
X1416894D02*
Y1821251D01*
X1484966D01*
Y1753179D02*
Y1821251D01*
X1467948Y1753179D02*
X1484966Y1770197D01*
X1416894D02*
X1433912Y1753179D01*
X1797894D02*
X1865966D01*
X1797894D02*
Y1821251D01*
X1865966D01*
Y1753179D02*
Y1821251D01*
X1848948Y1753179D02*
X1865966Y1770197D01*
X1797894D02*
X1814912Y1753179D01*
M02*
