G04*
G04 #@! TF.GenerationSoftware,Altium Limited,Altium Designer,26.3.0 (6)*
G04*
G04 Layer_Color=8388736*
%FSLAX44Y44*%
%MOMM*%
G71*
G04*
G04 #@! TF.SameCoordinates,F0C73554-34DE-494A-A34D-94DED9C52F24*
G04*
G04*
G04 #@! TF.FilePolarity,Negative*
G04*
G01*
G75*
%ADD13R,2.2000X0.5000*%
%ADD18R,1.1620X2.9908*%
%ADD30R,1.6000X3.2000*%
%ADD41C,0.7112*%
%ADD42C,0.6300*%
%ADD56R,2.4000X3.1000*%
G04:AMPARAMS|DCode=57|XSize=1.808mm|YSize=1.268mm|CornerRadius=0.349mm|HoleSize=0mm|Usage=FLASHONLY|Rotation=90.000|XOffset=0mm|YOffset=0mm|HoleType=Round|Shape=RoundedRectangle|*
%AMROUNDEDRECTD57*
21,1,1.8080,0.5700,0,0,90.0*
21,1,1.1100,1.2680,0,0,90.0*
1,1,0.6980,0.2850,0.5550*
1,1,0.6980,0.2850,-0.5550*
1,1,0.6980,-0.2850,-0.5550*
1,1,0.6980,-0.2850,0.5550*
%
%ADD57ROUNDEDRECTD57*%
G04:AMPARAMS|DCode=58|XSize=1.808mm|YSize=1.268mm|CornerRadius=0.349mm|HoleSize=0mm|Usage=FLASHONLY|Rotation=0.000|XOffset=0mm|YOffset=0mm|HoleType=Round|Shape=RoundedRectangle|*
%AMROUNDEDRECTD58*
21,1,1.8080,0.5700,0,0,0.0*
21,1,1.1100,1.2680,0,0,0.0*
1,1,0.6980,0.5550,-0.2850*
1,1,0.6980,-0.5550,-0.2850*
1,1,0.6980,-0.5550,0.2850*
1,1,0.6980,0.5550,0.2850*
%
%ADD58ROUNDEDRECTD58*%
G04:AMPARAMS|DCode=59|XSize=2.286mm|YSize=3.048mm|CornerRadius=0.6985mm|HoleSize=0mm|Usage=FLASHONLY|Rotation=180.000|XOffset=0mm|YOffset=0mm|HoleType=Round|Shape=RoundedRectangle|*
%AMROUNDEDRECTD59*
21,1,2.2860,1.6510,0,0,180.0*
21,1,0.8890,3.0480,0,0,180.0*
1,1,1.3970,-0.4445,0.8255*
1,1,1.3970,0.4445,0.8255*
1,1,1.3970,0.4445,-0.8255*
1,1,1.3970,-0.4445,-0.8255*
%
%ADD59ROUNDEDRECTD59*%
%ADD60R,1.1580X1.1580*%
G04:AMPARAMS|DCode=61|XSize=1.908mm|YSize=2.908mm|CornerRadius=0.429mm|HoleSize=0mm|Usage=FLASHONLY|Rotation=180.000|XOffset=0mm|YOffset=0mm|HoleType=Round|Shape=RoundedRectangle|*
%AMROUNDEDRECTD61*
21,1,1.9080,2.0500,0,0,180.0*
21,1,1.0500,2.9080,0,0,180.0*
1,1,0.8580,-0.5250,1.0250*
1,1,0.8580,0.5250,1.0250*
1,1,0.8580,0.5250,-1.0250*
1,1,0.8580,-0.5250,-1.0250*
%
%ADD61ROUNDEDRECTD61*%
G04:AMPARAMS|DCode=62|XSize=1.058mm|YSize=1.008mm|CornerRadius=0.3165mm|HoleSize=0mm|Usage=FLASHONLY|Rotation=0.000|XOffset=0mm|YOffset=0mm|HoleType=Round|Shape=RoundedRectangle|*
%AMROUNDEDRECTD62*
21,1,1.0580,0.3750,0,0,0.0*
21,1,0.4250,1.0080,0,0,0.0*
1,1,0.6330,0.2125,-0.1875*
1,1,0.6330,-0.2125,-0.1875*
1,1,0.6330,-0.2125,0.1875*
1,1,0.6330,0.2125,0.1875*
%
%ADD62ROUNDEDRECTD62*%
%ADD63R,2.3080X1.8080*%
G04:AMPARAMS|DCode=64|XSize=4.508mm|YSize=4.508mm|CornerRadius=1.254mm|HoleSize=0mm|Usage=FLASHONLY|Rotation=0.000|XOffset=0mm|YOffset=0mm|HoleType=Round|Shape=RoundedRectangle|*
%AMROUNDEDRECTD64*
21,1,4.5080,2.0000,0,0,0.0*
21,1,2.0000,4.5080,0,0,0.0*
1,1,2.5080,1.0000,-1.0000*
1,1,2.5080,-1.0000,-1.0000*
1,1,2.5080,-1.0000,1.0000*
1,1,2.5080,1.0000,1.0000*
%
%ADD64ROUNDEDRECTD64*%
G04:AMPARAMS|DCode=65|XSize=2.508mm|YSize=4.008mm|CornerRadius=0.334mm|HoleSize=0mm|Usage=FLASHONLY|Rotation=90.000|XOffset=0mm|YOffset=0mm|HoleType=Round|Shape=RoundedRectangle|*
%AMROUNDEDRECTD65*
21,1,2.5080,3.3400,0,0,90.0*
21,1,1.8400,4.0080,0,0,90.0*
1,1,0.6680,1.6700,0.9200*
1,1,0.6680,1.6700,-0.9200*
1,1,0.6680,-1.6700,-0.9200*
1,1,0.6680,-1.6700,0.9200*
%
%ADD65ROUNDEDRECTD65*%
%ADD66R,1.1580X1.1580*%
G04:AMPARAMS|DCode=67|XSize=2.286mm|YSize=3.048mm|CornerRadius=0.6985mm|HoleSize=0mm|Usage=FLASHONLY|Rotation=90.000|XOffset=0mm|YOffset=0mm|HoleType=Round|Shape=RoundedRectangle|*
%AMROUNDEDRECTD67*
21,1,2.2860,1.6510,0,0,90.0*
21,1,0.8890,3.0480,0,0,90.0*
1,1,1.3970,0.8255,0.4445*
1,1,1.3970,0.8255,-0.4445*
1,1,1.3970,-0.8255,-0.4445*
1,1,1.3970,-0.8255,0.4445*
%
%ADD67ROUNDEDRECTD67*%
G04:AMPARAMS|DCode=68|XSize=1.058mm|YSize=1.008mm|CornerRadius=0.3165mm|HoleSize=0mm|Usage=FLASHONLY|Rotation=270.000|XOffset=0mm|YOffset=0mm|HoleType=Round|Shape=RoundedRectangle|*
%AMROUNDEDRECTD68*
21,1,1.0580,0.3750,0,0,270.0*
21,1,0.4250,1.0080,0,0,270.0*
1,1,0.6330,-0.1875,-0.2125*
1,1,0.6330,-0.1875,0.2125*
1,1,0.6330,0.1875,0.2125*
1,1,0.6330,0.1875,-0.2125*
%
%ADD68ROUNDEDRECTD68*%
G04:AMPARAMS|DCode=69|XSize=1.908mm|YSize=2.908mm|CornerRadius=0.429mm|HoleSize=0mm|Usage=FLASHONLY|Rotation=270.000|XOffset=0mm|YOffset=0mm|HoleType=Round|Shape=RoundedRectangle|*
%AMROUNDEDRECTD69*
21,1,1.9080,2.0500,0,0,270.0*
21,1,1.0500,2.9080,0,0,270.0*
1,1,0.8580,-1.0250,-0.5250*
1,1,0.8580,-1.0250,0.5250*
1,1,0.8580,1.0250,0.5250*
1,1,0.8580,1.0250,-0.5250*
%
%ADD69ROUNDEDRECTD69*%
G04:AMPARAMS|DCode=70|XSize=2.508mm|YSize=4.008mm|CornerRadius=0.334mm|HoleSize=0mm|Usage=FLASHONLY|Rotation=180.000|XOffset=0mm|YOffset=0mm|HoleType=Round|Shape=RoundedRectangle|*
%AMROUNDEDRECTD70*
21,1,2.5080,3.3400,0,0,180.0*
21,1,1.8400,4.0080,0,0,180.0*
1,1,0.6680,-0.9200,1.6700*
1,1,0.6680,0.9200,1.6700*
1,1,0.6680,0.9200,-1.6700*
1,1,0.6680,-0.9200,-1.6700*
%
%ADD70ROUNDEDRECTD70*%
%ADD71C,5.4240*%
%ADD72R,5.4240X5.4240*%
%ADD73O,1.8080X3.1080*%
%ADD74C,2.0320*%
%ADD75R,6.5080X6.5080*%
%ADD76C,6.5080*%
%ADD77C,1.1080*%
%ADD78C,1.0160*%
D13*
X417600Y2295684D02*
D03*
Y2308384D02*
D03*
X360100Y2295684D02*
D03*
Y2270284D02*
D03*
Y2308384D02*
D03*
Y2282984D02*
D03*
X417600D02*
D03*
Y2270284D02*
D03*
X798600Y2295684D02*
D03*
Y2308384D02*
D03*
X741100Y2295684D02*
D03*
Y2270284D02*
D03*
Y2308384D02*
D03*
Y2282984D02*
D03*
X798600D02*
D03*
Y2270284D02*
D03*
X1179600Y2295684D02*
D03*
Y2308384D02*
D03*
X1122100Y2295684D02*
D03*
Y2270284D02*
D03*
Y2308384D02*
D03*
Y2282984D02*
D03*
X1179600D02*
D03*
Y2270284D02*
D03*
X1560600Y2295684D02*
D03*
Y2308384D02*
D03*
X1503100Y2295684D02*
D03*
Y2270284D02*
D03*
Y2308384D02*
D03*
Y2282984D02*
D03*
X1560600D02*
D03*
Y2270284D02*
D03*
X1941600Y2295684D02*
D03*
Y2308384D02*
D03*
X1884100Y2295684D02*
D03*
Y2270284D02*
D03*
Y2308384D02*
D03*
Y2282984D02*
D03*
X1941600D02*
D03*
Y2270284D02*
D03*
X363158Y1082674D02*
D03*
X420658D02*
D03*
X363158Y1095374D02*
D03*
Y1069974D02*
D03*
Y1057274D02*
D03*
X420658D02*
D03*
Y1069974D02*
D03*
Y1095374D02*
D03*
X744158Y1082674D02*
D03*
X801658D02*
D03*
X744158Y1095374D02*
D03*
Y1069974D02*
D03*
Y1057274D02*
D03*
X801658D02*
D03*
Y1069974D02*
D03*
Y1095374D02*
D03*
X1125158Y1082674D02*
D03*
X1182658D02*
D03*
X1125158Y1095374D02*
D03*
Y1069974D02*
D03*
Y1057274D02*
D03*
X1182658D02*
D03*
Y1069974D02*
D03*
Y1095374D02*
D03*
X1506158Y1082674D02*
D03*
X1563658D02*
D03*
X1506158Y1095374D02*
D03*
Y1069974D02*
D03*
Y1057274D02*
D03*
X1563658D02*
D03*
Y1069974D02*
D03*
Y1095374D02*
D03*
X1887158Y1082674D02*
D03*
X1944658D02*
D03*
X1887158Y1095374D02*
D03*
Y1069974D02*
D03*
Y1057274D02*
D03*
X1944658D02*
D03*
Y1069974D02*
D03*
Y1095374D02*
D03*
X422680Y1740130D02*
D03*
Y1752830D02*
D03*
X365180Y1740130D02*
D03*
Y1714730D02*
D03*
Y1752830D02*
D03*
Y1727430D02*
D03*
X422680D02*
D03*
Y1714730D02*
D03*
X803680Y1740130D02*
D03*
Y1752830D02*
D03*
X746180Y1740130D02*
D03*
Y1714730D02*
D03*
Y1752830D02*
D03*
Y1727430D02*
D03*
X803680D02*
D03*
Y1714730D02*
D03*
X1184680Y1740130D02*
D03*
Y1752830D02*
D03*
X1127180Y1740130D02*
D03*
Y1714730D02*
D03*
Y1752830D02*
D03*
Y1727430D02*
D03*
X1184680D02*
D03*
Y1714730D02*
D03*
X1565680Y1740130D02*
D03*
Y1752830D02*
D03*
X1508180Y1740130D02*
D03*
Y1714730D02*
D03*
Y1752830D02*
D03*
Y1727430D02*
D03*
X1565680D02*
D03*
Y1714730D02*
D03*
X1946680Y1740130D02*
D03*
Y1752830D02*
D03*
X1889180Y1740130D02*
D03*
Y1714730D02*
D03*
Y1752830D02*
D03*
Y1727430D02*
D03*
X1946680D02*
D03*
Y1714730D02*
D03*
D18*
X302850Y2371804D02*
D03*
Y2313734D02*
D03*
X683850Y2371804D02*
D03*
Y2313734D02*
D03*
X1064850Y2371804D02*
D03*
Y2313734D02*
D03*
X1445850Y2371804D02*
D03*
Y2313734D02*
D03*
X1826850Y2371804D02*
D03*
Y2313734D02*
D03*
X307930Y1816250D02*
D03*
Y1758180D02*
D03*
X688930Y1816250D02*
D03*
Y1758180D02*
D03*
X1069930Y1816250D02*
D03*
Y1758180D02*
D03*
X1450930Y1816250D02*
D03*
Y1758180D02*
D03*
X1831930Y1816250D02*
D03*
Y1758180D02*
D03*
D30*
X315578Y1130608D02*
D03*
Y1180608D02*
D03*
X696578Y1130608D02*
D03*
Y1180608D02*
D03*
X1077578Y1130608D02*
D03*
Y1180608D02*
D03*
X1458578Y1130608D02*
D03*
Y1180608D02*
D03*
X1839578Y1130608D02*
D03*
Y1180608D02*
D03*
D41*
X547912Y2497204D02*
D03*
X555532Y2481964D02*
D03*
X547912Y2466724D02*
D03*
Y2405764D02*
D03*
X555532Y2390524D02*
D03*
X547912Y2375284D02*
D03*
X555532Y2360044D02*
D03*
X547912Y2344804D02*
D03*
X555532Y2329564D02*
D03*
X547912Y2314324D02*
D03*
X555532Y2299084D02*
D03*
X547912Y2283844D02*
D03*
X555532Y2268604D02*
D03*
X532672Y2497204D02*
D03*
X540292Y2481964D02*
D03*
X532672Y2466724D02*
D03*
Y2405764D02*
D03*
X540292Y2390524D02*
D03*
X532672Y2375284D02*
D03*
X540292Y2360044D02*
D03*
X532672Y2344804D02*
D03*
X540292Y2329564D02*
D03*
X532672Y2314324D02*
D03*
X540292Y2299084D02*
D03*
X532672Y2283844D02*
D03*
X540292Y2268604D02*
D03*
X525052Y2481964D02*
D03*
Y2390524D02*
D03*
Y2360044D02*
D03*
Y2329564D02*
D03*
Y2299084D02*
D03*
Y2268604D02*
D03*
X365032Y2192404D02*
D03*
X372652Y2177164D02*
D03*
X365032Y2161924D02*
D03*
X372652Y2146684D02*
D03*
X365032Y2131444D02*
D03*
X372652Y2116204D02*
D03*
X365032Y2100964D02*
D03*
X372652Y2085724D02*
D03*
X365032Y2070484D02*
D03*
X372652Y2055244D02*
D03*
X365032Y2040004D02*
D03*
X372652Y2024764D02*
D03*
X349792Y2192404D02*
D03*
X357412Y2177164D02*
D03*
X349792Y2161924D02*
D03*
X357412Y2085724D02*
D03*
X349792Y2070484D02*
D03*
X357412Y2055244D02*
D03*
X349792Y2040004D02*
D03*
X357412Y2024764D02*
D03*
X334552Y2192404D02*
D03*
Y2161924D02*
D03*
X342172Y2085724D02*
D03*
X334552Y2070484D02*
D03*
X342172Y2055244D02*
D03*
X334552Y2040004D02*
D03*
X342172Y2024764D02*
D03*
X326932Y2329564D02*
D03*
X319312Y2314324D02*
D03*
X326932Y2299084D02*
D03*
X319312Y2192404D02*
D03*
Y2161924D02*
D03*
X326932Y2085724D02*
D03*
X319312Y2070484D02*
D03*
X326932Y2055244D02*
D03*
X319312Y2040004D02*
D03*
X326932Y2024764D02*
D03*
X311692Y2085724D02*
D03*
X304072Y2070484D02*
D03*
X311692Y2055244D02*
D03*
Y2024764D02*
D03*
X288832Y2314324D02*
D03*
X296452Y2146684D02*
D03*
X288832Y2131444D02*
D03*
X296452Y2116204D02*
D03*
X288832Y2100964D02*
D03*
X296452Y2085724D02*
D03*
X288832Y2070484D02*
D03*
X296452Y2055244D02*
D03*
X281212Y2329564D02*
D03*
X273592Y2314324D02*
D03*
X281212Y2299084D02*
D03*
Y2146684D02*
D03*
X273592Y2131444D02*
D03*
X281212Y2116204D02*
D03*
X273592Y2100964D02*
D03*
X281212Y2085724D02*
D03*
X273592Y2070484D02*
D03*
X281212Y2055244D02*
D03*
X273592Y2040004D02*
D03*
X265972Y2329564D02*
D03*
X258352Y2314324D02*
D03*
X265972Y2299084D02*
D03*
X258352Y2192404D02*
D03*
Y2161924D02*
D03*
X265972Y2146684D02*
D03*
Y2085724D02*
D03*
X243112Y2405764D02*
D03*
X250732Y2390524D02*
D03*
X243112Y2375284D02*
D03*
X250732Y2360044D02*
D03*
X243112Y2344804D02*
D03*
X250732Y2329564D02*
D03*
X243112Y2314324D02*
D03*
X250732Y2299084D02*
D03*
X243112Y2192404D02*
D03*
X250732Y2177164D02*
D03*
X243112Y2161924D02*
D03*
X227872Y2405764D02*
D03*
X235492Y2390524D02*
D03*
X227872Y2375284D02*
D03*
X235492Y2360044D02*
D03*
X227872Y2344804D02*
D03*
X235492Y2329564D02*
D03*
X227872Y2314324D02*
D03*
X235492Y2299084D02*
D03*
X227872Y2192404D02*
D03*
Y2161924D02*
D03*
X525052Y2177164D02*
D03*
X547912Y2192404D02*
D03*
Y2161924D02*
D03*
X532672Y2192404D02*
D03*
Y2161924D02*
D03*
X517432Y2192404D02*
D03*
Y2161924D02*
D03*
Y2100964D02*
D03*
X502192Y2405764D02*
D03*
X509812Y2146684D02*
D03*
X502192Y2131444D02*
D03*
X509812Y2116204D02*
D03*
X502192Y2100964D02*
D03*
X509812Y2085724D02*
D03*
X502192Y2070484D02*
D03*
Y2040004D02*
D03*
X486952Y2405764D02*
D03*
X494572Y2268604D02*
D03*
Y2146684D02*
D03*
X486952Y2131444D02*
D03*
X494572Y2116204D02*
D03*
X486952Y2100964D02*
D03*
X494572Y2085724D02*
D03*
X486952Y2070484D02*
D03*
X494572Y2055244D02*
D03*
X471712Y2405764D02*
D03*
X479332Y2146684D02*
D03*
Y2116204D02*
D03*
X471712Y2100964D02*
D03*
X479332Y2085724D02*
D03*
X471712Y2070484D02*
D03*
X479332Y2055244D02*
D03*
X456472Y2497204D02*
D03*
Y2466724D02*
D03*
X464092Y2451484D02*
D03*
X456472Y2436244D02*
D03*
X464092Y2421004D02*
D03*
Y2299084D02*
D03*
X456472Y2192404D02*
D03*
Y2161924D02*
D03*
X464092Y2085724D02*
D03*
X456472Y2070484D02*
D03*
X464092Y2055244D02*
D03*
X456472Y2040004D02*
D03*
X464092Y2024764D02*
D03*
X441232Y2497204D02*
D03*
X448852Y2481964D02*
D03*
X441232Y2466724D02*
D03*
X448852Y2451484D02*
D03*
X441232Y2436244D02*
D03*
X448852Y2421004D02*
D03*
X441232Y2192404D02*
D03*
Y2161924D02*
D03*
X448852Y2085724D02*
D03*
X441232Y2070484D02*
D03*
X448852Y2055244D02*
D03*
X441232Y2040004D02*
D03*
X448852Y2024764D02*
D03*
X425992Y2497204D02*
D03*
X433612Y2481964D02*
D03*
X425992Y2466724D02*
D03*
X433612Y2451484D02*
D03*
X425992Y2436244D02*
D03*
X433612Y2421004D02*
D03*
Y2360044D02*
D03*
Y2329564D02*
D03*
X425992Y2192404D02*
D03*
Y2161924D02*
D03*
X433612Y2085724D02*
D03*
X425992Y2070484D02*
D03*
X433612Y2055244D02*
D03*
X425992Y2040004D02*
D03*
X433612Y2024764D02*
D03*
X410752Y2497204D02*
D03*
Y2192404D02*
D03*
X418372Y2177164D02*
D03*
X410752Y2161924D02*
D03*
X418372Y2146684D02*
D03*
X410752Y2100964D02*
D03*
X418372Y2085724D02*
D03*
X410752Y2070484D02*
D03*
X418372Y2055244D02*
D03*
X410752Y2040004D02*
D03*
X418372Y2024764D02*
D03*
X395512Y2497204D02*
D03*
Y2192404D02*
D03*
X403132Y2177164D02*
D03*
X395512Y2161924D02*
D03*
X403132Y2146684D02*
D03*
X395512Y2131444D02*
D03*
X403132Y2116204D02*
D03*
X395512Y2100964D02*
D03*
X403132Y2085724D02*
D03*
X395512Y2070484D02*
D03*
X403132Y2055244D02*
D03*
X395512Y2040004D02*
D03*
X403132Y2024764D02*
D03*
X380272Y2497204D02*
D03*
X387892Y2481964D02*
D03*
Y2421004D02*
D03*
Y2360044D02*
D03*
Y2329564D02*
D03*
X365032Y2497204D02*
D03*
X349792D02*
D03*
X357412Y2481964D02*
D03*
X334552Y2497204D02*
D03*
X342172Y2481964D02*
D03*
X319312Y2497204D02*
D03*
X326932Y2481964D02*
D03*
X235492Y2268604D02*
D03*
X928912Y2497204D02*
D03*
X936532Y2481964D02*
D03*
X928912Y2466724D02*
D03*
Y2405764D02*
D03*
X936532Y2390524D02*
D03*
X928912Y2375284D02*
D03*
X936532Y2360044D02*
D03*
X928912Y2344804D02*
D03*
X936532Y2329564D02*
D03*
X928912Y2314324D02*
D03*
X936532Y2299084D02*
D03*
X928912Y2283844D02*
D03*
X936532Y2268604D02*
D03*
X913672Y2497204D02*
D03*
X921292Y2481964D02*
D03*
X913672Y2466724D02*
D03*
Y2405764D02*
D03*
X921292Y2390524D02*
D03*
X913672Y2375284D02*
D03*
X921292Y2360044D02*
D03*
X913672Y2344804D02*
D03*
X921292Y2329564D02*
D03*
X913672Y2314324D02*
D03*
X921292Y2299084D02*
D03*
X913672Y2283844D02*
D03*
X921292Y2268604D02*
D03*
X906052Y2481964D02*
D03*
Y2390524D02*
D03*
Y2360044D02*
D03*
Y2329564D02*
D03*
Y2299084D02*
D03*
Y2268604D02*
D03*
X746032Y2192404D02*
D03*
X753652Y2177164D02*
D03*
X746032Y2161924D02*
D03*
X753652Y2146684D02*
D03*
X746032Y2131444D02*
D03*
X753652Y2116204D02*
D03*
X746032Y2100964D02*
D03*
X753652Y2085724D02*
D03*
X746032Y2070484D02*
D03*
X753652Y2055244D02*
D03*
X746032Y2040004D02*
D03*
X753652Y2024764D02*
D03*
X730792Y2192404D02*
D03*
X738412Y2177164D02*
D03*
X730792Y2161924D02*
D03*
X738412Y2085724D02*
D03*
X730792Y2070484D02*
D03*
X738412Y2055244D02*
D03*
X730792Y2040004D02*
D03*
X738412Y2024764D02*
D03*
X715552Y2192404D02*
D03*
Y2161924D02*
D03*
X723172Y2085724D02*
D03*
X715552Y2070484D02*
D03*
X723172Y2055244D02*
D03*
X715552Y2040004D02*
D03*
X723172Y2024764D02*
D03*
X707932Y2329564D02*
D03*
X700312Y2314324D02*
D03*
X707932Y2299084D02*
D03*
X700312Y2192404D02*
D03*
Y2161924D02*
D03*
X707932Y2085724D02*
D03*
X700312Y2070484D02*
D03*
X707932Y2055244D02*
D03*
X700312Y2040004D02*
D03*
X707932Y2024764D02*
D03*
X692692Y2085724D02*
D03*
X685072Y2070484D02*
D03*
X692692Y2055244D02*
D03*
Y2024764D02*
D03*
X669832Y2314324D02*
D03*
X677452Y2146684D02*
D03*
X669832Y2131444D02*
D03*
X677452Y2116204D02*
D03*
X669832Y2100964D02*
D03*
X677452Y2085724D02*
D03*
X669832Y2070484D02*
D03*
X677452Y2055244D02*
D03*
X662212Y2329564D02*
D03*
X654592Y2314324D02*
D03*
X662212Y2299084D02*
D03*
Y2146684D02*
D03*
X654592Y2131444D02*
D03*
X662212Y2116204D02*
D03*
X654592Y2100964D02*
D03*
X662212Y2085724D02*
D03*
X654592Y2070484D02*
D03*
X662212Y2055244D02*
D03*
X654592Y2040004D02*
D03*
X646972Y2329564D02*
D03*
X639352Y2314324D02*
D03*
X646972Y2299084D02*
D03*
X639352Y2192404D02*
D03*
Y2161924D02*
D03*
X646972Y2146684D02*
D03*
Y2085724D02*
D03*
X624112Y2405764D02*
D03*
X631732Y2390524D02*
D03*
X624112Y2375284D02*
D03*
X631732Y2360044D02*
D03*
X624112Y2344804D02*
D03*
X631732Y2329564D02*
D03*
X624112Y2314324D02*
D03*
X631732Y2299084D02*
D03*
X624112Y2192404D02*
D03*
X631732Y2177164D02*
D03*
X624112Y2161924D02*
D03*
X608872Y2405764D02*
D03*
X616492Y2390524D02*
D03*
X608872Y2375284D02*
D03*
X616492Y2360044D02*
D03*
X608872Y2344804D02*
D03*
X616492Y2329564D02*
D03*
X608872Y2314324D02*
D03*
X616492Y2299084D02*
D03*
X608872Y2192404D02*
D03*
Y2161924D02*
D03*
X906052Y2177164D02*
D03*
X928912Y2192404D02*
D03*
Y2161924D02*
D03*
X913672Y2192404D02*
D03*
Y2161924D02*
D03*
X898432Y2192404D02*
D03*
Y2161924D02*
D03*
Y2100964D02*
D03*
X883192Y2405764D02*
D03*
X890812Y2146684D02*
D03*
X883192Y2131444D02*
D03*
X890812Y2116204D02*
D03*
X883192Y2100964D02*
D03*
X890812Y2085724D02*
D03*
X883192Y2070484D02*
D03*
Y2040004D02*
D03*
X867952Y2405764D02*
D03*
X875572Y2268604D02*
D03*
Y2146684D02*
D03*
X867952Y2131444D02*
D03*
X875572Y2116204D02*
D03*
X867952Y2100964D02*
D03*
X875572Y2085724D02*
D03*
X867952Y2070484D02*
D03*
X875572Y2055244D02*
D03*
X852712Y2405764D02*
D03*
X860332Y2146684D02*
D03*
Y2116204D02*
D03*
X852712Y2100964D02*
D03*
X860332Y2085724D02*
D03*
X852712Y2070484D02*
D03*
X860332Y2055244D02*
D03*
X837472Y2497204D02*
D03*
Y2466724D02*
D03*
X845092Y2451484D02*
D03*
X837472Y2436244D02*
D03*
X845092Y2421004D02*
D03*
Y2299084D02*
D03*
X837472Y2192404D02*
D03*
Y2161924D02*
D03*
X845092Y2085724D02*
D03*
X837472Y2070484D02*
D03*
X845092Y2055244D02*
D03*
X837472Y2040004D02*
D03*
X845092Y2024764D02*
D03*
X822232Y2497204D02*
D03*
X829852Y2481964D02*
D03*
X822232Y2466724D02*
D03*
X829852Y2451484D02*
D03*
X822232Y2436244D02*
D03*
X829852Y2421004D02*
D03*
X822232Y2192404D02*
D03*
Y2161924D02*
D03*
X829852Y2085724D02*
D03*
X822232Y2070484D02*
D03*
X829852Y2055244D02*
D03*
X822232Y2040004D02*
D03*
X829852Y2024764D02*
D03*
X806992Y2497204D02*
D03*
X814612Y2481964D02*
D03*
X806992Y2466724D02*
D03*
X814612Y2451484D02*
D03*
X806992Y2436244D02*
D03*
X814612Y2421004D02*
D03*
Y2360044D02*
D03*
Y2329564D02*
D03*
X806992Y2192404D02*
D03*
Y2161924D02*
D03*
X814612Y2085724D02*
D03*
X806992Y2070484D02*
D03*
X814612Y2055244D02*
D03*
X806992Y2040004D02*
D03*
X814612Y2024764D02*
D03*
X791752Y2497204D02*
D03*
Y2192404D02*
D03*
X799372Y2177164D02*
D03*
X791752Y2161924D02*
D03*
X799372Y2146684D02*
D03*
X791752Y2100964D02*
D03*
X799372Y2085724D02*
D03*
X791752Y2070484D02*
D03*
X799372Y2055244D02*
D03*
X791752Y2040004D02*
D03*
X799372Y2024764D02*
D03*
X776512Y2497204D02*
D03*
Y2192404D02*
D03*
X784132Y2177164D02*
D03*
X776512Y2161924D02*
D03*
X784132Y2146684D02*
D03*
X776512Y2131444D02*
D03*
X784132Y2116204D02*
D03*
X776512Y2100964D02*
D03*
X784132Y2085724D02*
D03*
X776512Y2070484D02*
D03*
X784132Y2055244D02*
D03*
X776512Y2040004D02*
D03*
X784132Y2024764D02*
D03*
X761272Y2497204D02*
D03*
X768892Y2481964D02*
D03*
Y2421004D02*
D03*
Y2360044D02*
D03*
Y2329564D02*
D03*
X746032Y2497204D02*
D03*
X730792D02*
D03*
X738412Y2481964D02*
D03*
X715552Y2497204D02*
D03*
X723172Y2481964D02*
D03*
X700312Y2497204D02*
D03*
X707932Y2481964D02*
D03*
X616492Y2268604D02*
D03*
X1309912Y2497204D02*
D03*
X1317532Y2481964D02*
D03*
X1309912Y2466724D02*
D03*
Y2405764D02*
D03*
X1317532Y2390524D02*
D03*
X1309912Y2375284D02*
D03*
X1317532Y2360044D02*
D03*
X1309912Y2344804D02*
D03*
X1317532Y2329564D02*
D03*
X1309912Y2314324D02*
D03*
X1317532Y2299084D02*
D03*
X1309912Y2283844D02*
D03*
X1317532Y2268604D02*
D03*
X1294672Y2497204D02*
D03*
X1302292Y2481964D02*
D03*
X1294672Y2466724D02*
D03*
Y2405764D02*
D03*
X1302292Y2390524D02*
D03*
X1294672Y2375284D02*
D03*
X1302292Y2360044D02*
D03*
X1294672Y2344804D02*
D03*
X1302292Y2329564D02*
D03*
X1294672Y2314324D02*
D03*
X1302292Y2299084D02*
D03*
X1294672Y2283844D02*
D03*
X1302292Y2268604D02*
D03*
X1287052Y2481964D02*
D03*
Y2390524D02*
D03*
Y2360044D02*
D03*
Y2329564D02*
D03*
Y2299084D02*
D03*
Y2268604D02*
D03*
X1127032Y2192404D02*
D03*
X1134652Y2177164D02*
D03*
X1127032Y2161924D02*
D03*
X1134652Y2146684D02*
D03*
X1127032Y2131444D02*
D03*
X1134652Y2116204D02*
D03*
X1127032Y2100964D02*
D03*
X1134652Y2085724D02*
D03*
X1127032Y2070484D02*
D03*
X1134652Y2055244D02*
D03*
X1127032Y2040004D02*
D03*
X1134652Y2024764D02*
D03*
X1111792Y2192404D02*
D03*
X1119412Y2177164D02*
D03*
X1111792Y2161924D02*
D03*
X1119412Y2085724D02*
D03*
X1111792Y2070484D02*
D03*
X1119412Y2055244D02*
D03*
X1111792Y2040004D02*
D03*
X1119412Y2024764D02*
D03*
X1096552Y2192404D02*
D03*
Y2161924D02*
D03*
X1104172Y2085724D02*
D03*
X1096552Y2070484D02*
D03*
X1104172Y2055244D02*
D03*
X1096552Y2040004D02*
D03*
X1104172Y2024764D02*
D03*
X1088932Y2329564D02*
D03*
X1081312Y2314324D02*
D03*
X1088932Y2299084D02*
D03*
X1081312Y2192404D02*
D03*
Y2161924D02*
D03*
X1088932Y2085724D02*
D03*
X1081312Y2070484D02*
D03*
X1088932Y2055244D02*
D03*
X1081312Y2040004D02*
D03*
X1088932Y2024764D02*
D03*
X1073692Y2085724D02*
D03*
X1066072Y2070484D02*
D03*
X1073692Y2055244D02*
D03*
Y2024764D02*
D03*
X1050832Y2314324D02*
D03*
X1058452Y2146684D02*
D03*
X1050832Y2131444D02*
D03*
X1058452Y2116204D02*
D03*
X1050832Y2100964D02*
D03*
X1058452Y2085724D02*
D03*
X1050832Y2070484D02*
D03*
X1058452Y2055244D02*
D03*
X1043212Y2329564D02*
D03*
X1035592Y2314324D02*
D03*
X1043212Y2299084D02*
D03*
Y2146684D02*
D03*
X1035592Y2131444D02*
D03*
X1043212Y2116204D02*
D03*
X1035592Y2100964D02*
D03*
X1043212Y2085724D02*
D03*
X1035592Y2070484D02*
D03*
X1043212Y2055244D02*
D03*
X1035592Y2040004D02*
D03*
X1027972Y2329564D02*
D03*
X1020352Y2314324D02*
D03*
X1027972Y2299084D02*
D03*
X1020352Y2192404D02*
D03*
Y2161924D02*
D03*
X1027972Y2146684D02*
D03*
Y2085724D02*
D03*
X1005112Y2405764D02*
D03*
X1012732Y2390524D02*
D03*
X1005112Y2375284D02*
D03*
X1012732Y2360044D02*
D03*
X1005112Y2344804D02*
D03*
X1012732Y2329564D02*
D03*
X1005112Y2314324D02*
D03*
X1012732Y2299084D02*
D03*
X1005112Y2192404D02*
D03*
X1012732Y2177164D02*
D03*
X1005112Y2161924D02*
D03*
X989872Y2405764D02*
D03*
X997492Y2390524D02*
D03*
X989872Y2375284D02*
D03*
X997492Y2360044D02*
D03*
X989872Y2344804D02*
D03*
X997492Y2329564D02*
D03*
X989872Y2314324D02*
D03*
X997492Y2299084D02*
D03*
X989872Y2192404D02*
D03*
Y2161924D02*
D03*
X1287052Y2177164D02*
D03*
X1309912Y2192404D02*
D03*
Y2161924D02*
D03*
X1294672Y2192404D02*
D03*
Y2161924D02*
D03*
X1279432Y2192404D02*
D03*
Y2161924D02*
D03*
Y2100964D02*
D03*
X1264192Y2405764D02*
D03*
X1271812Y2146684D02*
D03*
X1264192Y2131444D02*
D03*
X1271812Y2116204D02*
D03*
X1264192Y2100964D02*
D03*
X1271812Y2085724D02*
D03*
X1264192Y2070484D02*
D03*
Y2040004D02*
D03*
X1248952Y2405764D02*
D03*
X1256572Y2268604D02*
D03*
Y2146684D02*
D03*
X1248952Y2131444D02*
D03*
X1256572Y2116204D02*
D03*
X1248952Y2100964D02*
D03*
X1256572Y2085724D02*
D03*
X1248952Y2070484D02*
D03*
X1256572Y2055244D02*
D03*
X1233712Y2405764D02*
D03*
X1241332Y2146684D02*
D03*
Y2116204D02*
D03*
X1233712Y2100964D02*
D03*
X1241332Y2085724D02*
D03*
X1233712Y2070484D02*
D03*
X1241332Y2055244D02*
D03*
X1218472Y2497204D02*
D03*
Y2466724D02*
D03*
X1226092Y2451484D02*
D03*
X1218472Y2436244D02*
D03*
X1226092Y2421004D02*
D03*
Y2299084D02*
D03*
X1218472Y2192404D02*
D03*
Y2161924D02*
D03*
X1226092Y2085724D02*
D03*
X1218472Y2070484D02*
D03*
X1226092Y2055244D02*
D03*
X1218472Y2040004D02*
D03*
X1226092Y2024764D02*
D03*
X1203232Y2497204D02*
D03*
X1210852Y2481964D02*
D03*
X1203232Y2466724D02*
D03*
X1210852Y2451484D02*
D03*
X1203232Y2436244D02*
D03*
X1210852Y2421004D02*
D03*
X1203232Y2192404D02*
D03*
Y2161924D02*
D03*
X1210852Y2085724D02*
D03*
X1203232Y2070484D02*
D03*
X1210852Y2055244D02*
D03*
X1203232Y2040004D02*
D03*
X1210852Y2024764D02*
D03*
X1187992Y2497204D02*
D03*
X1195612Y2481964D02*
D03*
X1187992Y2466724D02*
D03*
X1195612Y2451484D02*
D03*
X1187992Y2436244D02*
D03*
X1195612Y2421004D02*
D03*
Y2360044D02*
D03*
Y2329564D02*
D03*
X1187992Y2192404D02*
D03*
Y2161924D02*
D03*
X1195612Y2085724D02*
D03*
X1187992Y2070484D02*
D03*
X1195612Y2055244D02*
D03*
X1187992Y2040004D02*
D03*
X1195612Y2024764D02*
D03*
X1172752Y2497204D02*
D03*
Y2192404D02*
D03*
X1180372Y2177164D02*
D03*
X1172752Y2161924D02*
D03*
X1180372Y2146684D02*
D03*
X1172752Y2100964D02*
D03*
X1180372Y2085724D02*
D03*
X1172752Y2070484D02*
D03*
X1180372Y2055244D02*
D03*
X1172752Y2040004D02*
D03*
X1180372Y2024764D02*
D03*
X1157512Y2497204D02*
D03*
Y2192404D02*
D03*
X1165132Y2177164D02*
D03*
X1157512Y2161924D02*
D03*
X1165132Y2146684D02*
D03*
X1157512Y2131444D02*
D03*
X1165132Y2116204D02*
D03*
X1157512Y2100964D02*
D03*
X1165132Y2085724D02*
D03*
X1157512Y2070484D02*
D03*
X1165132Y2055244D02*
D03*
X1157512Y2040004D02*
D03*
X1165132Y2024764D02*
D03*
X1142272Y2497204D02*
D03*
X1149892Y2481964D02*
D03*
Y2421004D02*
D03*
Y2360044D02*
D03*
Y2329564D02*
D03*
X1127032Y2497204D02*
D03*
X1111792D02*
D03*
X1119412Y2481964D02*
D03*
X1096552Y2497204D02*
D03*
X1104172Y2481964D02*
D03*
X1081312Y2497204D02*
D03*
X1088932Y2481964D02*
D03*
X997492Y2268604D02*
D03*
X1690912Y2497204D02*
D03*
X1698532Y2481964D02*
D03*
X1690912Y2466724D02*
D03*
Y2405764D02*
D03*
X1698532Y2390524D02*
D03*
X1690912Y2375284D02*
D03*
X1698532Y2360044D02*
D03*
X1690912Y2344804D02*
D03*
X1698532Y2329564D02*
D03*
X1690912Y2314324D02*
D03*
X1698532Y2299084D02*
D03*
X1690912Y2283844D02*
D03*
X1698532Y2268604D02*
D03*
X1675672Y2497204D02*
D03*
X1683292Y2481964D02*
D03*
X1675672Y2466724D02*
D03*
Y2405764D02*
D03*
X1683292Y2390524D02*
D03*
X1675672Y2375284D02*
D03*
X1683292Y2360044D02*
D03*
X1675672Y2344804D02*
D03*
X1683292Y2329564D02*
D03*
X1675672Y2314324D02*
D03*
X1683292Y2299084D02*
D03*
X1675672Y2283844D02*
D03*
X1683292Y2268604D02*
D03*
X1668052Y2481964D02*
D03*
Y2390524D02*
D03*
Y2360044D02*
D03*
Y2329564D02*
D03*
Y2299084D02*
D03*
Y2268604D02*
D03*
X1508032Y2192404D02*
D03*
X1515652Y2177164D02*
D03*
X1508032Y2161924D02*
D03*
X1515652Y2146684D02*
D03*
X1508032Y2131444D02*
D03*
X1515652Y2116204D02*
D03*
X1508032Y2100964D02*
D03*
X1515652Y2085724D02*
D03*
X1508032Y2070484D02*
D03*
X1515652Y2055244D02*
D03*
X1508032Y2040004D02*
D03*
X1515652Y2024764D02*
D03*
X1492792Y2192404D02*
D03*
X1500412Y2177164D02*
D03*
X1492792Y2161924D02*
D03*
X1500412Y2085724D02*
D03*
X1492792Y2070484D02*
D03*
X1500412Y2055244D02*
D03*
X1492792Y2040004D02*
D03*
X1500412Y2024764D02*
D03*
X1477552Y2192404D02*
D03*
Y2161924D02*
D03*
X1485172Y2085724D02*
D03*
X1477552Y2070484D02*
D03*
X1485172Y2055244D02*
D03*
X1477552Y2040004D02*
D03*
X1485172Y2024764D02*
D03*
X1469932Y2329564D02*
D03*
X1462312Y2314324D02*
D03*
X1469932Y2299084D02*
D03*
X1462312Y2192404D02*
D03*
Y2161924D02*
D03*
X1469932Y2085724D02*
D03*
X1462312Y2070484D02*
D03*
X1469932Y2055244D02*
D03*
X1462312Y2040004D02*
D03*
X1469932Y2024764D02*
D03*
X1454692Y2085724D02*
D03*
X1447072Y2070484D02*
D03*
X1454692Y2055244D02*
D03*
Y2024764D02*
D03*
X1431832Y2314324D02*
D03*
X1439452Y2146684D02*
D03*
X1431832Y2131444D02*
D03*
X1439452Y2116204D02*
D03*
X1431832Y2100964D02*
D03*
X1439452Y2085724D02*
D03*
X1431832Y2070484D02*
D03*
X1439452Y2055244D02*
D03*
X1424212Y2329564D02*
D03*
X1416592Y2314324D02*
D03*
X1424212Y2299084D02*
D03*
Y2146684D02*
D03*
X1416592Y2131444D02*
D03*
X1424212Y2116204D02*
D03*
X1416592Y2100964D02*
D03*
X1424212Y2085724D02*
D03*
X1416592Y2070484D02*
D03*
X1424212Y2055244D02*
D03*
X1416592Y2040004D02*
D03*
X1408972Y2329564D02*
D03*
X1401352Y2314324D02*
D03*
X1408972Y2299084D02*
D03*
X1401352Y2192404D02*
D03*
Y2161924D02*
D03*
X1408972Y2146684D02*
D03*
Y2085724D02*
D03*
X1386112Y2405764D02*
D03*
X1393732Y2390524D02*
D03*
X1386112Y2375284D02*
D03*
X1393732Y2360044D02*
D03*
X1386112Y2344804D02*
D03*
X1393732Y2329564D02*
D03*
X1386112Y2314324D02*
D03*
X1393732Y2299084D02*
D03*
X1386112Y2192404D02*
D03*
X1393732Y2177164D02*
D03*
X1386112Y2161924D02*
D03*
X1370872Y2405764D02*
D03*
X1378492Y2390524D02*
D03*
X1370872Y2375284D02*
D03*
X1378492Y2360044D02*
D03*
X1370872Y2344804D02*
D03*
X1378492Y2329564D02*
D03*
X1370872Y2314324D02*
D03*
X1378492Y2299084D02*
D03*
X1370872Y2192404D02*
D03*
Y2161924D02*
D03*
X1668052Y2177164D02*
D03*
X1690912Y2192404D02*
D03*
Y2161924D02*
D03*
X1675672Y2192404D02*
D03*
Y2161924D02*
D03*
X1660432Y2192404D02*
D03*
Y2161924D02*
D03*
Y2100964D02*
D03*
X1645192Y2405764D02*
D03*
X1652812Y2146684D02*
D03*
X1645192Y2131444D02*
D03*
X1652812Y2116204D02*
D03*
X1645192Y2100964D02*
D03*
X1652812Y2085724D02*
D03*
X1645192Y2070484D02*
D03*
Y2040004D02*
D03*
X1629952Y2405764D02*
D03*
X1637572Y2268604D02*
D03*
Y2146684D02*
D03*
X1629952Y2131444D02*
D03*
X1637572Y2116204D02*
D03*
X1629952Y2100964D02*
D03*
X1637572Y2085724D02*
D03*
X1629952Y2070484D02*
D03*
X1637572Y2055244D02*
D03*
X1614712Y2405764D02*
D03*
X1622332Y2146684D02*
D03*
Y2116204D02*
D03*
X1614712Y2100964D02*
D03*
X1622332Y2085724D02*
D03*
X1614712Y2070484D02*
D03*
X1622332Y2055244D02*
D03*
X1599472Y2497204D02*
D03*
Y2466724D02*
D03*
X1607092Y2451484D02*
D03*
X1599472Y2436244D02*
D03*
X1607092Y2421004D02*
D03*
Y2299084D02*
D03*
X1599472Y2192404D02*
D03*
Y2161924D02*
D03*
X1607092Y2085724D02*
D03*
X1599472Y2070484D02*
D03*
X1607092Y2055244D02*
D03*
X1599472Y2040004D02*
D03*
X1607092Y2024764D02*
D03*
X1584232Y2497204D02*
D03*
X1591852Y2481964D02*
D03*
X1584232Y2466724D02*
D03*
X1591852Y2451484D02*
D03*
X1584232Y2436244D02*
D03*
X1591852Y2421004D02*
D03*
X1584232Y2192404D02*
D03*
Y2161924D02*
D03*
X1591852Y2085724D02*
D03*
X1584232Y2070484D02*
D03*
X1591852Y2055244D02*
D03*
X1584232Y2040004D02*
D03*
X1591852Y2024764D02*
D03*
X1568992Y2497204D02*
D03*
X1576612Y2481964D02*
D03*
X1568992Y2466724D02*
D03*
X1576612Y2451484D02*
D03*
X1568992Y2436244D02*
D03*
X1576612Y2421004D02*
D03*
Y2360044D02*
D03*
Y2329564D02*
D03*
X1568992Y2192404D02*
D03*
Y2161924D02*
D03*
X1576612Y2085724D02*
D03*
X1568992Y2070484D02*
D03*
X1576612Y2055244D02*
D03*
X1568992Y2040004D02*
D03*
X1576612Y2024764D02*
D03*
X1553752Y2497204D02*
D03*
Y2192404D02*
D03*
X1561372Y2177164D02*
D03*
X1553752Y2161924D02*
D03*
X1561372Y2146684D02*
D03*
X1553752Y2100964D02*
D03*
X1561372Y2085724D02*
D03*
X1553752Y2070484D02*
D03*
X1561372Y2055244D02*
D03*
X1553752Y2040004D02*
D03*
X1561372Y2024764D02*
D03*
X1538512Y2497204D02*
D03*
Y2192404D02*
D03*
X1546132Y2177164D02*
D03*
X1538512Y2161924D02*
D03*
X1546132Y2146684D02*
D03*
X1538512Y2131444D02*
D03*
X1546132Y2116204D02*
D03*
X1538512Y2100964D02*
D03*
X1546132Y2085724D02*
D03*
X1538512Y2070484D02*
D03*
X1546132Y2055244D02*
D03*
X1538512Y2040004D02*
D03*
X1546132Y2024764D02*
D03*
X1523272Y2497204D02*
D03*
X1530892Y2481964D02*
D03*
Y2421004D02*
D03*
Y2360044D02*
D03*
Y2329564D02*
D03*
X1508032Y2497204D02*
D03*
X1492792D02*
D03*
X1500412Y2481964D02*
D03*
X1477552Y2497204D02*
D03*
X1485172Y2481964D02*
D03*
X1462312Y2497204D02*
D03*
X1469932Y2481964D02*
D03*
X1378492Y2268604D02*
D03*
X2071912Y2497204D02*
D03*
X2079532Y2481964D02*
D03*
X2071912Y2466724D02*
D03*
Y2405764D02*
D03*
X2079532Y2390524D02*
D03*
X2071912Y2375284D02*
D03*
X2079532Y2360044D02*
D03*
X2071912Y2344804D02*
D03*
X2079532Y2329564D02*
D03*
X2071912Y2314324D02*
D03*
X2079532Y2299084D02*
D03*
X2071912Y2283844D02*
D03*
X2079532Y2268604D02*
D03*
X2056672Y2497204D02*
D03*
X2064292Y2481964D02*
D03*
X2056672Y2466724D02*
D03*
Y2405764D02*
D03*
X2064292Y2390524D02*
D03*
X2056672Y2375284D02*
D03*
X2064292Y2360044D02*
D03*
X2056672Y2344804D02*
D03*
X2064292Y2329564D02*
D03*
X2056672Y2314324D02*
D03*
X2064292Y2299084D02*
D03*
X2056672Y2283844D02*
D03*
X2064292Y2268604D02*
D03*
X2049052Y2481964D02*
D03*
Y2390524D02*
D03*
Y2360044D02*
D03*
Y2329564D02*
D03*
Y2299084D02*
D03*
Y2268604D02*
D03*
X1889032Y2192404D02*
D03*
X1896652Y2177164D02*
D03*
X1889032Y2161924D02*
D03*
X1896652Y2146684D02*
D03*
X1889032Y2131444D02*
D03*
X1896652Y2116204D02*
D03*
X1889032Y2100964D02*
D03*
X1896652Y2085724D02*
D03*
X1889032Y2070484D02*
D03*
X1896652Y2055244D02*
D03*
X1889032Y2040004D02*
D03*
X1896652Y2024764D02*
D03*
X1873792Y2192404D02*
D03*
X1881412Y2177164D02*
D03*
X1873792Y2161924D02*
D03*
X1881412Y2085724D02*
D03*
X1873792Y2070484D02*
D03*
X1881412Y2055244D02*
D03*
X1873792Y2040004D02*
D03*
X1881412Y2024764D02*
D03*
X1858552Y2192404D02*
D03*
Y2161924D02*
D03*
X1866172Y2085724D02*
D03*
X1858552Y2070484D02*
D03*
X1866172Y2055244D02*
D03*
X1858552Y2040004D02*
D03*
X1866172Y2024764D02*
D03*
X1850932Y2329564D02*
D03*
X1843312Y2314324D02*
D03*
X1850932Y2299084D02*
D03*
X1843312Y2192404D02*
D03*
Y2161924D02*
D03*
X1850932Y2085724D02*
D03*
X1843312Y2070484D02*
D03*
X1850932Y2055244D02*
D03*
X1843312Y2040004D02*
D03*
X1850932Y2024764D02*
D03*
X1835692Y2085724D02*
D03*
X1828072Y2070484D02*
D03*
X1835692Y2055244D02*
D03*
Y2024764D02*
D03*
X1812832Y2314324D02*
D03*
X1820452Y2146684D02*
D03*
X1812832Y2131444D02*
D03*
X1820452Y2116204D02*
D03*
X1812832Y2100964D02*
D03*
X1820452Y2085724D02*
D03*
X1812832Y2070484D02*
D03*
X1820452Y2055244D02*
D03*
X1805212Y2329564D02*
D03*
X1797592Y2314324D02*
D03*
X1805212Y2299084D02*
D03*
Y2146684D02*
D03*
X1797592Y2131444D02*
D03*
X1805212Y2116204D02*
D03*
X1797592Y2100964D02*
D03*
X1805212Y2085724D02*
D03*
X1797592Y2070484D02*
D03*
X1805212Y2055244D02*
D03*
X1797592Y2040004D02*
D03*
X1789972Y2329564D02*
D03*
X1782352Y2314324D02*
D03*
X1789972Y2299084D02*
D03*
X1782352Y2192404D02*
D03*
Y2161924D02*
D03*
X1789972Y2146684D02*
D03*
Y2085724D02*
D03*
X1767112Y2405764D02*
D03*
X1774732Y2390524D02*
D03*
X1767112Y2375284D02*
D03*
X1774732Y2360044D02*
D03*
X1767112Y2344804D02*
D03*
X1774732Y2329564D02*
D03*
X1767112Y2314324D02*
D03*
X1774732Y2299084D02*
D03*
X1767112Y2192404D02*
D03*
X1774732Y2177164D02*
D03*
X1767112Y2161924D02*
D03*
X1751872Y2405764D02*
D03*
X1759492Y2390524D02*
D03*
X1751872Y2375284D02*
D03*
X1759492Y2360044D02*
D03*
X1751872Y2344804D02*
D03*
X1759492Y2329564D02*
D03*
X1751872Y2314324D02*
D03*
X1759492Y2299084D02*
D03*
X1751872Y2192404D02*
D03*
Y2161924D02*
D03*
X2049052Y2177164D02*
D03*
X2071912Y2192404D02*
D03*
Y2161924D02*
D03*
X2056672Y2192404D02*
D03*
Y2161924D02*
D03*
X2041432Y2192404D02*
D03*
Y2161924D02*
D03*
Y2100964D02*
D03*
X2026192Y2405764D02*
D03*
X2033812Y2146684D02*
D03*
X2026192Y2131444D02*
D03*
X2033812Y2116204D02*
D03*
X2026192Y2100964D02*
D03*
X2033812Y2085724D02*
D03*
X2026192Y2070484D02*
D03*
Y2040004D02*
D03*
X2010952Y2405764D02*
D03*
X2018572Y2268604D02*
D03*
Y2146684D02*
D03*
X2010952Y2131444D02*
D03*
X2018572Y2116204D02*
D03*
X2010952Y2100964D02*
D03*
X2018572Y2085724D02*
D03*
X2010952Y2070484D02*
D03*
X2018572Y2055244D02*
D03*
X1995712Y2405764D02*
D03*
X2003332Y2146684D02*
D03*
Y2116204D02*
D03*
X1995712Y2100964D02*
D03*
X2003332Y2085724D02*
D03*
X1995712Y2070484D02*
D03*
X2003332Y2055244D02*
D03*
X1980472Y2497204D02*
D03*
Y2466724D02*
D03*
X1988092Y2451484D02*
D03*
X1980472Y2436244D02*
D03*
X1988092Y2421004D02*
D03*
Y2299084D02*
D03*
X1980472Y2192404D02*
D03*
Y2161924D02*
D03*
X1988092Y2085724D02*
D03*
X1980472Y2070484D02*
D03*
X1988092Y2055244D02*
D03*
X1980472Y2040004D02*
D03*
X1988092Y2024764D02*
D03*
X1965232Y2497204D02*
D03*
X1972852Y2481964D02*
D03*
X1965232Y2466724D02*
D03*
X1972852Y2451484D02*
D03*
X1965232Y2436244D02*
D03*
X1972852Y2421004D02*
D03*
X1965232Y2192404D02*
D03*
Y2161924D02*
D03*
X1972852Y2085724D02*
D03*
X1965232Y2070484D02*
D03*
X1972852Y2055244D02*
D03*
X1965232Y2040004D02*
D03*
X1972852Y2024764D02*
D03*
X1949992Y2497204D02*
D03*
X1957612Y2481964D02*
D03*
X1949992Y2466724D02*
D03*
X1957612Y2451484D02*
D03*
X1949992Y2436244D02*
D03*
X1957612Y2421004D02*
D03*
Y2360044D02*
D03*
Y2329564D02*
D03*
X1949992Y2192404D02*
D03*
Y2161924D02*
D03*
X1957612Y2085724D02*
D03*
X1949992Y2070484D02*
D03*
X1957612Y2055244D02*
D03*
X1949992Y2040004D02*
D03*
X1957612Y2024764D02*
D03*
X1934752Y2497204D02*
D03*
Y2192404D02*
D03*
X1942372Y2177164D02*
D03*
X1934752Y2161924D02*
D03*
X1942372Y2146684D02*
D03*
X1934752Y2100964D02*
D03*
X1942372Y2085724D02*
D03*
X1934752Y2070484D02*
D03*
X1942372Y2055244D02*
D03*
X1934752Y2040004D02*
D03*
X1942372Y2024764D02*
D03*
X1919512Y2497204D02*
D03*
Y2192404D02*
D03*
X1927132Y2177164D02*
D03*
X1919512Y2161924D02*
D03*
X1927132Y2146684D02*
D03*
X1919512Y2131444D02*
D03*
X1927132Y2116204D02*
D03*
X1919512Y2100964D02*
D03*
X1927132Y2085724D02*
D03*
X1919512Y2070484D02*
D03*
X1927132Y2055244D02*
D03*
X1919512Y2040004D02*
D03*
X1927132Y2024764D02*
D03*
X1904272Y2497204D02*
D03*
X1911892Y2481964D02*
D03*
Y2421004D02*
D03*
Y2360044D02*
D03*
Y2329564D02*
D03*
X1889032Y2497204D02*
D03*
X1873792D02*
D03*
X1881412Y2481964D02*
D03*
X1858552Y2497204D02*
D03*
X1866172Y2481964D02*
D03*
X1843312Y2497204D02*
D03*
X1850932Y2481964D02*
D03*
X1759492Y2268604D02*
D03*
X552992Y1941650D02*
D03*
X560612Y1926410D02*
D03*
X552992Y1911170D02*
D03*
Y1850210D02*
D03*
X560612Y1834970D02*
D03*
X552992Y1819730D02*
D03*
X560612Y1804490D02*
D03*
X552992Y1789250D02*
D03*
X560612Y1774010D02*
D03*
X552992Y1758770D02*
D03*
X560612Y1743530D02*
D03*
X552992Y1728290D02*
D03*
X560612Y1713050D02*
D03*
X537752Y1941650D02*
D03*
X545372Y1926410D02*
D03*
X537752Y1911170D02*
D03*
Y1850210D02*
D03*
X545372Y1834970D02*
D03*
X537752Y1819730D02*
D03*
X545372Y1804490D02*
D03*
X537752Y1789250D02*
D03*
X545372Y1774010D02*
D03*
X537752Y1758770D02*
D03*
X545372Y1743530D02*
D03*
X537752Y1728290D02*
D03*
X545372Y1713050D02*
D03*
X530132Y1926410D02*
D03*
Y1834970D02*
D03*
Y1804490D02*
D03*
Y1774010D02*
D03*
Y1743530D02*
D03*
Y1713050D02*
D03*
X370112Y1636850D02*
D03*
X377732Y1621610D02*
D03*
X370112Y1606370D02*
D03*
X377732Y1591130D02*
D03*
X370112Y1575890D02*
D03*
X377732Y1560650D02*
D03*
X370112Y1545410D02*
D03*
X377732Y1530170D02*
D03*
X370112Y1514930D02*
D03*
X377732Y1499690D02*
D03*
X370112Y1484450D02*
D03*
X377732Y1469210D02*
D03*
X354872Y1636850D02*
D03*
X362492Y1621610D02*
D03*
X354872Y1606370D02*
D03*
X362492Y1530170D02*
D03*
X354872Y1514930D02*
D03*
X362492Y1499690D02*
D03*
X354872Y1484450D02*
D03*
X362492Y1469210D02*
D03*
X339632Y1636850D02*
D03*
Y1606370D02*
D03*
X347252Y1530170D02*
D03*
X339632Y1514930D02*
D03*
X347252Y1499690D02*
D03*
X339632Y1484450D02*
D03*
X347252Y1469210D02*
D03*
X332012Y1774010D02*
D03*
X324392Y1758770D02*
D03*
X332012Y1743530D02*
D03*
X324392Y1636850D02*
D03*
Y1606370D02*
D03*
X332012Y1530170D02*
D03*
X324392Y1514930D02*
D03*
X332012Y1499690D02*
D03*
X324392Y1484450D02*
D03*
X332012Y1469210D02*
D03*
X316772Y1530170D02*
D03*
X309152Y1514930D02*
D03*
X316772Y1499690D02*
D03*
Y1469210D02*
D03*
X293912Y1758770D02*
D03*
X301532Y1591130D02*
D03*
X293912Y1575890D02*
D03*
X301532Y1560650D02*
D03*
X293912Y1545410D02*
D03*
X301532Y1530170D02*
D03*
X293912Y1514930D02*
D03*
X301532Y1499690D02*
D03*
X286292Y1774010D02*
D03*
X278672Y1758770D02*
D03*
X286292Y1743530D02*
D03*
Y1591130D02*
D03*
X278672Y1575890D02*
D03*
X286292Y1560650D02*
D03*
X278672Y1545410D02*
D03*
X286292Y1530170D02*
D03*
X278672Y1514930D02*
D03*
X286292Y1499690D02*
D03*
X278672Y1484450D02*
D03*
X271052Y1774010D02*
D03*
X263432Y1758770D02*
D03*
X271052Y1743530D02*
D03*
X263432Y1636850D02*
D03*
Y1606370D02*
D03*
X271052Y1591130D02*
D03*
Y1530170D02*
D03*
X248192Y1850210D02*
D03*
X255812Y1834970D02*
D03*
X248192Y1819730D02*
D03*
X255812Y1804490D02*
D03*
X248192Y1789250D02*
D03*
X255812Y1774010D02*
D03*
X248192Y1758770D02*
D03*
X255812Y1743530D02*
D03*
X248192Y1636850D02*
D03*
X255812Y1621610D02*
D03*
X248192Y1606370D02*
D03*
X232952Y1850210D02*
D03*
X240572Y1834970D02*
D03*
X232952Y1819730D02*
D03*
X240572Y1804490D02*
D03*
X232952Y1789250D02*
D03*
X240572Y1774010D02*
D03*
X232952Y1758770D02*
D03*
X240572Y1743530D02*
D03*
X232952Y1636850D02*
D03*
Y1606370D02*
D03*
X530132Y1621610D02*
D03*
X552992Y1636850D02*
D03*
Y1606370D02*
D03*
X537752Y1636850D02*
D03*
Y1606370D02*
D03*
X522512Y1636850D02*
D03*
Y1606370D02*
D03*
Y1545410D02*
D03*
X507272Y1850210D02*
D03*
X514892Y1591130D02*
D03*
X507272Y1575890D02*
D03*
X514892Y1560650D02*
D03*
X507272Y1545410D02*
D03*
X514892Y1530170D02*
D03*
X507272Y1514930D02*
D03*
Y1484450D02*
D03*
X492032Y1850210D02*
D03*
X499652Y1713050D02*
D03*
Y1591130D02*
D03*
X492032Y1575890D02*
D03*
X499652Y1560650D02*
D03*
X492032Y1545410D02*
D03*
X499652Y1530170D02*
D03*
X492032Y1514930D02*
D03*
X499652Y1499690D02*
D03*
X476792Y1850210D02*
D03*
X484412Y1591130D02*
D03*
Y1560650D02*
D03*
X476792Y1545410D02*
D03*
X484412Y1530170D02*
D03*
X476792Y1514930D02*
D03*
X484412Y1499690D02*
D03*
X461552Y1941650D02*
D03*
Y1911170D02*
D03*
X469172Y1895930D02*
D03*
X461552Y1880690D02*
D03*
X469172Y1865450D02*
D03*
Y1743530D02*
D03*
X461552Y1636850D02*
D03*
Y1606370D02*
D03*
X469172Y1530170D02*
D03*
X461552Y1514930D02*
D03*
X469172Y1499690D02*
D03*
X461552Y1484450D02*
D03*
X469172Y1469210D02*
D03*
X446312Y1941650D02*
D03*
X453932Y1926410D02*
D03*
X446312Y1911170D02*
D03*
X453932Y1895930D02*
D03*
X446312Y1880690D02*
D03*
X453932Y1865450D02*
D03*
X446312Y1636850D02*
D03*
Y1606370D02*
D03*
X453932Y1530170D02*
D03*
X446312Y1514930D02*
D03*
X453932Y1499690D02*
D03*
X446312Y1484450D02*
D03*
X453932Y1469210D02*
D03*
X431072Y1941650D02*
D03*
X438692Y1926410D02*
D03*
X431072Y1911170D02*
D03*
X438692Y1895930D02*
D03*
X431072Y1880690D02*
D03*
X438692Y1865450D02*
D03*
Y1804490D02*
D03*
Y1774010D02*
D03*
X431072Y1636850D02*
D03*
Y1606370D02*
D03*
X438692Y1530170D02*
D03*
X431072Y1514930D02*
D03*
X438692Y1499690D02*
D03*
X431072Y1484450D02*
D03*
X438692Y1469210D02*
D03*
X415832Y1941650D02*
D03*
Y1636850D02*
D03*
X423452Y1621610D02*
D03*
X415832Y1606370D02*
D03*
X423452Y1591130D02*
D03*
X415832Y1545410D02*
D03*
X423452Y1530170D02*
D03*
X415832Y1514930D02*
D03*
X423452Y1499690D02*
D03*
X415832Y1484450D02*
D03*
X423452Y1469210D02*
D03*
X400592Y1941650D02*
D03*
Y1636850D02*
D03*
X408212Y1621610D02*
D03*
X400592Y1606370D02*
D03*
X408212Y1591130D02*
D03*
X400592Y1575890D02*
D03*
X408212Y1560650D02*
D03*
X400592Y1545410D02*
D03*
X408212Y1530170D02*
D03*
X400592Y1514930D02*
D03*
X408212Y1499690D02*
D03*
X400592Y1484450D02*
D03*
X408212Y1469210D02*
D03*
X385352Y1941650D02*
D03*
X392972Y1926410D02*
D03*
Y1865450D02*
D03*
Y1804490D02*
D03*
Y1774010D02*
D03*
X370112Y1941650D02*
D03*
X354872D02*
D03*
X362492Y1926410D02*
D03*
X339632Y1941650D02*
D03*
X347252Y1926410D02*
D03*
X324392Y1941650D02*
D03*
X332012Y1926410D02*
D03*
X240572Y1713050D02*
D03*
X933992Y1941650D02*
D03*
X941612Y1926410D02*
D03*
X933992Y1911170D02*
D03*
Y1850210D02*
D03*
X941612Y1834970D02*
D03*
X933992Y1819730D02*
D03*
X941612Y1804490D02*
D03*
X933992Y1789250D02*
D03*
X941612Y1774010D02*
D03*
X933992Y1758770D02*
D03*
X941612Y1743530D02*
D03*
X933992Y1728290D02*
D03*
X941612Y1713050D02*
D03*
X918752Y1941650D02*
D03*
X926372Y1926410D02*
D03*
X918752Y1911170D02*
D03*
Y1850210D02*
D03*
X926372Y1834970D02*
D03*
X918752Y1819730D02*
D03*
X926372Y1804490D02*
D03*
X918752Y1789250D02*
D03*
X926372Y1774010D02*
D03*
X918752Y1758770D02*
D03*
X926372Y1743530D02*
D03*
X918752Y1728290D02*
D03*
X926372Y1713050D02*
D03*
X911132Y1926410D02*
D03*
Y1834970D02*
D03*
Y1804490D02*
D03*
Y1774010D02*
D03*
Y1743530D02*
D03*
Y1713050D02*
D03*
X751112Y1636850D02*
D03*
X758732Y1621610D02*
D03*
X751112Y1606370D02*
D03*
X758732Y1591130D02*
D03*
X751112Y1575890D02*
D03*
X758732Y1560650D02*
D03*
X751112Y1545410D02*
D03*
X758732Y1530170D02*
D03*
X751112Y1514930D02*
D03*
X758732Y1499690D02*
D03*
X751112Y1484450D02*
D03*
X758732Y1469210D02*
D03*
X735872Y1636850D02*
D03*
X743492Y1621610D02*
D03*
X735872Y1606370D02*
D03*
X743492Y1530170D02*
D03*
X735872Y1514930D02*
D03*
X743492Y1499690D02*
D03*
X735872Y1484450D02*
D03*
X743492Y1469210D02*
D03*
X720632Y1636850D02*
D03*
Y1606370D02*
D03*
X728252Y1530170D02*
D03*
X720632Y1514930D02*
D03*
X728252Y1499690D02*
D03*
X720632Y1484450D02*
D03*
X728252Y1469210D02*
D03*
X713012Y1774010D02*
D03*
X705392Y1758770D02*
D03*
X713012Y1743530D02*
D03*
X705392Y1636850D02*
D03*
Y1606370D02*
D03*
X713012Y1530170D02*
D03*
X705392Y1514930D02*
D03*
X713012Y1499690D02*
D03*
X705392Y1484450D02*
D03*
X713012Y1469210D02*
D03*
X697772Y1530170D02*
D03*
X690152Y1514930D02*
D03*
X697772Y1499690D02*
D03*
Y1469210D02*
D03*
X674912Y1758770D02*
D03*
X682532Y1591130D02*
D03*
X674912Y1575890D02*
D03*
X682532Y1560650D02*
D03*
X674912Y1545410D02*
D03*
X682532Y1530170D02*
D03*
X674912Y1514930D02*
D03*
X682532Y1499690D02*
D03*
X667292Y1774010D02*
D03*
X659672Y1758770D02*
D03*
X667292Y1743530D02*
D03*
Y1591130D02*
D03*
X659672Y1575890D02*
D03*
X667292Y1560650D02*
D03*
X659672Y1545410D02*
D03*
X667292Y1530170D02*
D03*
X659672Y1514930D02*
D03*
X667292Y1499690D02*
D03*
X659672Y1484450D02*
D03*
X652052Y1774010D02*
D03*
X644432Y1758770D02*
D03*
X652052Y1743530D02*
D03*
X644432Y1636850D02*
D03*
Y1606370D02*
D03*
X652052Y1591130D02*
D03*
Y1530170D02*
D03*
X629192Y1850210D02*
D03*
X636812Y1834970D02*
D03*
X629192Y1819730D02*
D03*
X636812Y1804490D02*
D03*
X629192Y1789250D02*
D03*
X636812Y1774010D02*
D03*
X629192Y1758770D02*
D03*
X636812Y1743530D02*
D03*
X629192Y1636850D02*
D03*
X636812Y1621610D02*
D03*
X629192Y1606370D02*
D03*
X613952Y1850210D02*
D03*
X621572Y1834970D02*
D03*
X613952Y1819730D02*
D03*
X621572Y1804490D02*
D03*
X613952Y1789250D02*
D03*
X621572Y1774010D02*
D03*
X613952Y1758770D02*
D03*
X621572Y1743530D02*
D03*
X613952Y1636850D02*
D03*
Y1606370D02*
D03*
X911132Y1621610D02*
D03*
X933992Y1636850D02*
D03*
Y1606370D02*
D03*
X918752Y1636850D02*
D03*
Y1606370D02*
D03*
X903512Y1636850D02*
D03*
Y1606370D02*
D03*
Y1545410D02*
D03*
X888272Y1850210D02*
D03*
X895892Y1591130D02*
D03*
X888272Y1575890D02*
D03*
X895892Y1560650D02*
D03*
X888272Y1545410D02*
D03*
X895892Y1530170D02*
D03*
X888272Y1514930D02*
D03*
Y1484450D02*
D03*
X873032Y1850210D02*
D03*
X880652Y1713050D02*
D03*
Y1591130D02*
D03*
X873032Y1575890D02*
D03*
X880652Y1560650D02*
D03*
X873032Y1545410D02*
D03*
X880652Y1530170D02*
D03*
X873032Y1514930D02*
D03*
X880652Y1499690D02*
D03*
X857792Y1850210D02*
D03*
X865412Y1591130D02*
D03*
Y1560650D02*
D03*
X857792Y1545410D02*
D03*
X865412Y1530170D02*
D03*
X857792Y1514930D02*
D03*
X865412Y1499690D02*
D03*
X842552Y1941650D02*
D03*
Y1911170D02*
D03*
X850172Y1895930D02*
D03*
X842552Y1880690D02*
D03*
X850172Y1865450D02*
D03*
Y1743530D02*
D03*
X842552Y1636850D02*
D03*
Y1606370D02*
D03*
X850172Y1530170D02*
D03*
X842552Y1514930D02*
D03*
X850172Y1499690D02*
D03*
X842552Y1484450D02*
D03*
X850172Y1469210D02*
D03*
X827312Y1941650D02*
D03*
X834932Y1926410D02*
D03*
X827312Y1911170D02*
D03*
X834932Y1895930D02*
D03*
X827312Y1880690D02*
D03*
X834932Y1865450D02*
D03*
X827312Y1636850D02*
D03*
Y1606370D02*
D03*
X834932Y1530170D02*
D03*
X827312Y1514930D02*
D03*
X834932Y1499690D02*
D03*
X827312Y1484450D02*
D03*
X834932Y1469210D02*
D03*
X812072Y1941650D02*
D03*
X819692Y1926410D02*
D03*
X812072Y1911170D02*
D03*
X819692Y1895930D02*
D03*
X812072Y1880690D02*
D03*
X819692Y1865450D02*
D03*
Y1804490D02*
D03*
Y1774010D02*
D03*
X812072Y1636850D02*
D03*
Y1606370D02*
D03*
X819692Y1530170D02*
D03*
X812072Y1514930D02*
D03*
X819692Y1499690D02*
D03*
X812072Y1484450D02*
D03*
X819692Y1469210D02*
D03*
X796832Y1941650D02*
D03*
Y1636850D02*
D03*
X804452Y1621610D02*
D03*
X796832Y1606370D02*
D03*
X804452Y1591130D02*
D03*
X796832Y1545410D02*
D03*
X804452Y1530170D02*
D03*
X796832Y1514930D02*
D03*
X804452Y1499690D02*
D03*
X796832Y1484450D02*
D03*
X804452Y1469210D02*
D03*
X781592Y1941650D02*
D03*
Y1636850D02*
D03*
X789212Y1621610D02*
D03*
X781592Y1606370D02*
D03*
X789212Y1591130D02*
D03*
X781592Y1575890D02*
D03*
X789212Y1560650D02*
D03*
X781592Y1545410D02*
D03*
X789212Y1530170D02*
D03*
X781592Y1514930D02*
D03*
X789212Y1499690D02*
D03*
X781592Y1484450D02*
D03*
X789212Y1469210D02*
D03*
X766352Y1941650D02*
D03*
X773972Y1926410D02*
D03*
Y1865450D02*
D03*
Y1804490D02*
D03*
Y1774010D02*
D03*
X751112Y1941650D02*
D03*
X735872D02*
D03*
X743492Y1926410D02*
D03*
X720632Y1941650D02*
D03*
X728252Y1926410D02*
D03*
X705392Y1941650D02*
D03*
X713012Y1926410D02*
D03*
X621572Y1713050D02*
D03*
X1314992Y1941650D02*
D03*
X1322612Y1926410D02*
D03*
X1314992Y1911170D02*
D03*
Y1850210D02*
D03*
X1322612Y1834970D02*
D03*
X1314992Y1819730D02*
D03*
X1322612Y1804490D02*
D03*
X1314992Y1789250D02*
D03*
X1322612Y1774010D02*
D03*
X1314992Y1758770D02*
D03*
X1322612Y1743530D02*
D03*
X1314992Y1728290D02*
D03*
X1322612Y1713050D02*
D03*
X1299752Y1941650D02*
D03*
X1307372Y1926410D02*
D03*
X1299752Y1911170D02*
D03*
Y1850210D02*
D03*
X1307372Y1834970D02*
D03*
X1299752Y1819730D02*
D03*
X1307372Y1804490D02*
D03*
X1299752Y1789250D02*
D03*
X1307372Y1774010D02*
D03*
X1299752Y1758770D02*
D03*
X1307372Y1743530D02*
D03*
X1299752Y1728290D02*
D03*
X1307372Y1713050D02*
D03*
X1292132Y1926410D02*
D03*
Y1834970D02*
D03*
Y1804490D02*
D03*
Y1774010D02*
D03*
Y1743530D02*
D03*
Y1713050D02*
D03*
X1132112Y1636850D02*
D03*
X1139732Y1621610D02*
D03*
X1132112Y1606370D02*
D03*
X1139732Y1591130D02*
D03*
X1132112Y1575890D02*
D03*
X1139732Y1560650D02*
D03*
X1132112Y1545410D02*
D03*
X1139732Y1530170D02*
D03*
X1132112Y1514930D02*
D03*
X1139732Y1499690D02*
D03*
X1132112Y1484450D02*
D03*
X1139732Y1469210D02*
D03*
X1116872Y1636850D02*
D03*
X1124492Y1621610D02*
D03*
X1116872Y1606370D02*
D03*
X1124492Y1530170D02*
D03*
X1116872Y1514930D02*
D03*
X1124492Y1499690D02*
D03*
X1116872Y1484450D02*
D03*
X1124492Y1469210D02*
D03*
X1101632Y1636850D02*
D03*
Y1606370D02*
D03*
X1109252Y1530170D02*
D03*
X1101632Y1514930D02*
D03*
X1109252Y1499690D02*
D03*
X1101632Y1484450D02*
D03*
X1109252Y1469210D02*
D03*
X1094012Y1774010D02*
D03*
X1086392Y1758770D02*
D03*
X1094012Y1743530D02*
D03*
X1086392Y1636850D02*
D03*
Y1606370D02*
D03*
X1094012Y1530170D02*
D03*
X1086392Y1514930D02*
D03*
X1094012Y1499690D02*
D03*
X1086392Y1484450D02*
D03*
X1094012Y1469210D02*
D03*
X1078772Y1530170D02*
D03*
X1071152Y1514930D02*
D03*
X1078772Y1499690D02*
D03*
Y1469210D02*
D03*
X1055912Y1758770D02*
D03*
X1063532Y1591130D02*
D03*
X1055912Y1575890D02*
D03*
X1063532Y1560650D02*
D03*
X1055912Y1545410D02*
D03*
X1063532Y1530170D02*
D03*
X1055912Y1514930D02*
D03*
X1063532Y1499690D02*
D03*
X1048292Y1774010D02*
D03*
X1040672Y1758770D02*
D03*
X1048292Y1743530D02*
D03*
Y1591130D02*
D03*
X1040672Y1575890D02*
D03*
X1048292Y1560650D02*
D03*
X1040672Y1545410D02*
D03*
X1048292Y1530170D02*
D03*
X1040672Y1514930D02*
D03*
X1048292Y1499690D02*
D03*
X1040672Y1484450D02*
D03*
X1033052Y1774010D02*
D03*
X1025432Y1758770D02*
D03*
X1033052Y1743530D02*
D03*
X1025432Y1636850D02*
D03*
Y1606370D02*
D03*
X1033052Y1591130D02*
D03*
Y1530170D02*
D03*
X1010192Y1850210D02*
D03*
X1017812Y1834970D02*
D03*
X1010192Y1819730D02*
D03*
X1017812Y1804490D02*
D03*
X1010192Y1789250D02*
D03*
X1017812Y1774010D02*
D03*
X1010192Y1758770D02*
D03*
X1017812Y1743530D02*
D03*
X1010192Y1636850D02*
D03*
X1017812Y1621610D02*
D03*
X1010192Y1606370D02*
D03*
X994952Y1850210D02*
D03*
X1002572Y1834970D02*
D03*
X994952Y1819730D02*
D03*
X1002572Y1804490D02*
D03*
X994952Y1789250D02*
D03*
X1002572Y1774010D02*
D03*
X994952Y1758770D02*
D03*
X1002572Y1743530D02*
D03*
X994952Y1636850D02*
D03*
Y1606370D02*
D03*
X1292132Y1621610D02*
D03*
X1314992Y1636850D02*
D03*
Y1606370D02*
D03*
X1299752Y1636850D02*
D03*
Y1606370D02*
D03*
X1284512Y1636850D02*
D03*
Y1606370D02*
D03*
Y1545410D02*
D03*
X1269272Y1850210D02*
D03*
X1276892Y1591130D02*
D03*
X1269272Y1575890D02*
D03*
X1276892Y1560650D02*
D03*
X1269272Y1545410D02*
D03*
X1276892Y1530170D02*
D03*
X1269272Y1514930D02*
D03*
Y1484450D02*
D03*
X1254032Y1850210D02*
D03*
X1261652Y1713050D02*
D03*
Y1591130D02*
D03*
X1254032Y1575890D02*
D03*
X1261652Y1560650D02*
D03*
X1254032Y1545410D02*
D03*
X1261652Y1530170D02*
D03*
X1254032Y1514930D02*
D03*
X1261652Y1499690D02*
D03*
X1238792Y1850210D02*
D03*
X1246412Y1591130D02*
D03*
Y1560650D02*
D03*
X1238792Y1545410D02*
D03*
X1246412Y1530170D02*
D03*
X1238792Y1514930D02*
D03*
X1246412Y1499690D02*
D03*
X1223552Y1941650D02*
D03*
Y1911170D02*
D03*
X1231172Y1895930D02*
D03*
X1223552Y1880690D02*
D03*
X1231172Y1865450D02*
D03*
Y1743530D02*
D03*
X1223552Y1636850D02*
D03*
Y1606370D02*
D03*
X1231172Y1530170D02*
D03*
X1223552Y1514930D02*
D03*
X1231172Y1499690D02*
D03*
X1223552Y1484450D02*
D03*
X1231172Y1469210D02*
D03*
X1208312Y1941650D02*
D03*
X1215932Y1926410D02*
D03*
X1208312Y1911170D02*
D03*
X1215932Y1895930D02*
D03*
X1208312Y1880690D02*
D03*
X1215932Y1865450D02*
D03*
X1208312Y1636850D02*
D03*
Y1606370D02*
D03*
X1215932Y1530170D02*
D03*
X1208312Y1514930D02*
D03*
X1215932Y1499690D02*
D03*
X1208312Y1484450D02*
D03*
X1215932Y1469210D02*
D03*
X1193072Y1941650D02*
D03*
X1200692Y1926410D02*
D03*
X1193072Y1911170D02*
D03*
X1200692Y1895930D02*
D03*
X1193072Y1880690D02*
D03*
X1200692Y1865450D02*
D03*
Y1804490D02*
D03*
Y1774010D02*
D03*
X1193072Y1636850D02*
D03*
Y1606370D02*
D03*
X1200692Y1530170D02*
D03*
X1193072Y1514930D02*
D03*
X1200692Y1499690D02*
D03*
X1193072Y1484450D02*
D03*
X1200692Y1469210D02*
D03*
X1177832Y1941650D02*
D03*
Y1636850D02*
D03*
X1185452Y1621610D02*
D03*
X1177832Y1606370D02*
D03*
X1185452Y1591130D02*
D03*
X1177832Y1545410D02*
D03*
X1185452Y1530170D02*
D03*
X1177832Y1514930D02*
D03*
X1185452Y1499690D02*
D03*
X1177832Y1484450D02*
D03*
X1185452Y1469210D02*
D03*
X1162592Y1941650D02*
D03*
Y1636850D02*
D03*
X1170212Y1621610D02*
D03*
X1162592Y1606370D02*
D03*
X1170212Y1591130D02*
D03*
X1162592Y1575890D02*
D03*
X1170212Y1560650D02*
D03*
X1162592Y1545410D02*
D03*
X1170212Y1530170D02*
D03*
X1162592Y1514930D02*
D03*
X1170212Y1499690D02*
D03*
X1162592Y1484450D02*
D03*
X1170212Y1469210D02*
D03*
X1147352Y1941650D02*
D03*
X1154972Y1926410D02*
D03*
Y1865450D02*
D03*
Y1804490D02*
D03*
Y1774010D02*
D03*
X1132112Y1941650D02*
D03*
X1116872D02*
D03*
X1124492Y1926410D02*
D03*
X1101632Y1941650D02*
D03*
X1109252Y1926410D02*
D03*
X1086392Y1941650D02*
D03*
X1094012Y1926410D02*
D03*
X1002572Y1713050D02*
D03*
X1695992Y1941650D02*
D03*
X1703612Y1926410D02*
D03*
X1695992Y1911170D02*
D03*
Y1850210D02*
D03*
X1703612Y1834970D02*
D03*
X1695992Y1819730D02*
D03*
X1703612Y1804490D02*
D03*
X1695992Y1789250D02*
D03*
X1703612Y1774010D02*
D03*
X1695992Y1758770D02*
D03*
X1703612Y1743530D02*
D03*
X1695992Y1728290D02*
D03*
X1703612Y1713050D02*
D03*
X1680752Y1941650D02*
D03*
X1688372Y1926410D02*
D03*
X1680752Y1911170D02*
D03*
Y1850210D02*
D03*
X1688372Y1834970D02*
D03*
X1680752Y1819730D02*
D03*
X1688372Y1804490D02*
D03*
X1680752Y1789250D02*
D03*
X1688372Y1774010D02*
D03*
X1680752Y1758770D02*
D03*
X1688372Y1743530D02*
D03*
X1680752Y1728290D02*
D03*
X1688372Y1713050D02*
D03*
X1673132Y1926410D02*
D03*
Y1834970D02*
D03*
Y1804490D02*
D03*
Y1774010D02*
D03*
Y1743530D02*
D03*
Y1713050D02*
D03*
X1513112Y1636850D02*
D03*
X1520732Y1621610D02*
D03*
X1513112Y1606370D02*
D03*
X1520732Y1591130D02*
D03*
X1513112Y1575890D02*
D03*
X1520732Y1560650D02*
D03*
X1513112Y1545410D02*
D03*
X1520732Y1530170D02*
D03*
X1513112Y1514930D02*
D03*
X1520732Y1499690D02*
D03*
X1513112Y1484450D02*
D03*
X1520732Y1469210D02*
D03*
X1497872Y1636850D02*
D03*
X1505492Y1621610D02*
D03*
X1497872Y1606370D02*
D03*
X1505492Y1530170D02*
D03*
X1497872Y1514930D02*
D03*
X1505492Y1499690D02*
D03*
X1497872Y1484450D02*
D03*
X1505492Y1469210D02*
D03*
X1482632Y1636850D02*
D03*
Y1606370D02*
D03*
X1490252Y1530170D02*
D03*
X1482632Y1514930D02*
D03*
X1490252Y1499690D02*
D03*
X1482632Y1484450D02*
D03*
X1490252Y1469210D02*
D03*
X1475012Y1774010D02*
D03*
X1467392Y1758770D02*
D03*
X1475012Y1743530D02*
D03*
X1467392Y1636850D02*
D03*
Y1606370D02*
D03*
X1475012Y1530170D02*
D03*
X1467392Y1514930D02*
D03*
X1475012Y1499690D02*
D03*
X1467392Y1484450D02*
D03*
X1475012Y1469210D02*
D03*
X1459772Y1530170D02*
D03*
X1452152Y1514930D02*
D03*
X1459772Y1499690D02*
D03*
Y1469210D02*
D03*
X1436912Y1758770D02*
D03*
X1444532Y1591130D02*
D03*
X1436912Y1575890D02*
D03*
X1444532Y1560650D02*
D03*
X1436912Y1545410D02*
D03*
X1444532Y1530170D02*
D03*
X1436912Y1514930D02*
D03*
X1444532Y1499690D02*
D03*
X1429292Y1774010D02*
D03*
X1421672Y1758770D02*
D03*
X1429292Y1743530D02*
D03*
Y1591130D02*
D03*
X1421672Y1575890D02*
D03*
X1429292Y1560650D02*
D03*
X1421672Y1545410D02*
D03*
X1429292Y1530170D02*
D03*
X1421672Y1514930D02*
D03*
X1429292Y1499690D02*
D03*
X1421672Y1484450D02*
D03*
X1414052Y1774010D02*
D03*
X1406432Y1758770D02*
D03*
X1414052Y1743530D02*
D03*
X1406432Y1636850D02*
D03*
Y1606370D02*
D03*
X1414052Y1591130D02*
D03*
Y1530170D02*
D03*
X1391192Y1850210D02*
D03*
X1398812Y1834970D02*
D03*
X1391192Y1819730D02*
D03*
X1398812Y1804490D02*
D03*
X1391192Y1789250D02*
D03*
X1398812Y1774010D02*
D03*
X1391192Y1758770D02*
D03*
X1398812Y1743530D02*
D03*
X1391192Y1636850D02*
D03*
X1398812Y1621610D02*
D03*
X1391192Y1606370D02*
D03*
X1375952Y1850210D02*
D03*
X1383572Y1834970D02*
D03*
X1375952Y1819730D02*
D03*
X1383572Y1804490D02*
D03*
X1375952Y1789250D02*
D03*
X1383572Y1774010D02*
D03*
X1375952Y1758770D02*
D03*
X1383572Y1743530D02*
D03*
X1375952Y1636850D02*
D03*
Y1606370D02*
D03*
X1673132Y1621610D02*
D03*
X1695992Y1636850D02*
D03*
Y1606370D02*
D03*
X1680752Y1636850D02*
D03*
Y1606370D02*
D03*
X1665512Y1636850D02*
D03*
Y1606370D02*
D03*
Y1545410D02*
D03*
X1650272Y1850210D02*
D03*
X1657892Y1591130D02*
D03*
X1650272Y1575890D02*
D03*
X1657892Y1560650D02*
D03*
X1650272Y1545410D02*
D03*
X1657892Y1530170D02*
D03*
X1650272Y1514930D02*
D03*
Y1484450D02*
D03*
X1635032Y1850210D02*
D03*
X1642652Y1713050D02*
D03*
Y1591130D02*
D03*
X1635032Y1575890D02*
D03*
X1642652Y1560650D02*
D03*
X1635032Y1545410D02*
D03*
X1642652Y1530170D02*
D03*
X1635032Y1514930D02*
D03*
X1642652Y1499690D02*
D03*
X1619792Y1850210D02*
D03*
X1627412Y1591130D02*
D03*
Y1560650D02*
D03*
X1619792Y1545410D02*
D03*
X1627412Y1530170D02*
D03*
X1619792Y1514930D02*
D03*
X1627412Y1499690D02*
D03*
X1604552Y1941650D02*
D03*
Y1911170D02*
D03*
X1612172Y1895930D02*
D03*
X1604552Y1880690D02*
D03*
X1612172Y1865450D02*
D03*
Y1743530D02*
D03*
X1604552Y1636850D02*
D03*
Y1606370D02*
D03*
X1612172Y1530170D02*
D03*
X1604552Y1514930D02*
D03*
X1612172Y1499690D02*
D03*
X1604552Y1484450D02*
D03*
X1612172Y1469210D02*
D03*
X1589312Y1941650D02*
D03*
X1596932Y1926410D02*
D03*
X1589312Y1911170D02*
D03*
X1596932Y1895930D02*
D03*
X1589312Y1880690D02*
D03*
X1596932Y1865450D02*
D03*
X1589312Y1636850D02*
D03*
Y1606370D02*
D03*
X1596932Y1530170D02*
D03*
X1589312Y1514930D02*
D03*
X1596932Y1499690D02*
D03*
X1589312Y1484450D02*
D03*
X1596932Y1469210D02*
D03*
X1574072Y1941650D02*
D03*
X1581692Y1926410D02*
D03*
X1574072Y1911170D02*
D03*
X1581692Y1895930D02*
D03*
X1574072Y1880690D02*
D03*
X1581692Y1865450D02*
D03*
Y1804490D02*
D03*
Y1774010D02*
D03*
X1574072Y1636850D02*
D03*
Y1606370D02*
D03*
X1581692Y1530170D02*
D03*
X1574072Y1514930D02*
D03*
X1581692Y1499690D02*
D03*
X1574072Y1484450D02*
D03*
X1581692Y1469210D02*
D03*
X1558832Y1941650D02*
D03*
Y1636850D02*
D03*
X1566452Y1621610D02*
D03*
X1558832Y1606370D02*
D03*
X1566452Y1591130D02*
D03*
X1558832Y1545410D02*
D03*
X1566452Y1530170D02*
D03*
X1558832Y1514930D02*
D03*
X1566452Y1499690D02*
D03*
X1558832Y1484450D02*
D03*
X1566452Y1469210D02*
D03*
X1543592Y1941650D02*
D03*
Y1636850D02*
D03*
X1551212Y1621610D02*
D03*
X1543592Y1606370D02*
D03*
X1551212Y1591130D02*
D03*
X1543592Y1575890D02*
D03*
X1551212Y1560650D02*
D03*
X1543592Y1545410D02*
D03*
X1551212Y1530170D02*
D03*
X1543592Y1514930D02*
D03*
X1551212Y1499690D02*
D03*
X1543592Y1484450D02*
D03*
X1551212Y1469210D02*
D03*
X1528352Y1941650D02*
D03*
X1535972Y1926410D02*
D03*
Y1865450D02*
D03*
Y1804490D02*
D03*
Y1774010D02*
D03*
X1513112Y1941650D02*
D03*
X1497872D02*
D03*
X1505492Y1926410D02*
D03*
X1482632Y1941650D02*
D03*
X1490252Y1926410D02*
D03*
X1467392Y1941650D02*
D03*
X1475012Y1926410D02*
D03*
X1383572Y1713050D02*
D03*
X2076992Y1941650D02*
D03*
X2084612Y1926410D02*
D03*
X2076992Y1911170D02*
D03*
Y1850210D02*
D03*
X2084612Y1834970D02*
D03*
X2076992Y1819730D02*
D03*
X2084612Y1804490D02*
D03*
X2076992Y1789250D02*
D03*
X2084612Y1774010D02*
D03*
X2076992Y1758770D02*
D03*
X2084612Y1743530D02*
D03*
X2076992Y1728290D02*
D03*
X2084612Y1713050D02*
D03*
X2061752Y1941650D02*
D03*
X2069372Y1926410D02*
D03*
X2061752Y1911170D02*
D03*
Y1850210D02*
D03*
X2069372Y1834970D02*
D03*
X2061752Y1819730D02*
D03*
X2069372Y1804490D02*
D03*
X2061752Y1789250D02*
D03*
X2069372Y1774010D02*
D03*
X2061752Y1758770D02*
D03*
X2069372Y1743530D02*
D03*
X2061752Y1728290D02*
D03*
X2069372Y1713050D02*
D03*
X2054132Y1926410D02*
D03*
Y1834970D02*
D03*
Y1804490D02*
D03*
Y1774010D02*
D03*
Y1743530D02*
D03*
Y1713050D02*
D03*
X1894112Y1636850D02*
D03*
X1901732Y1621610D02*
D03*
X1894112Y1606370D02*
D03*
X1901732Y1591130D02*
D03*
X1894112Y1575890D02*
D03*
X1901732Y1560650D02*
D03*
X1894112Y1545410D02*
D03*
X1901732Y1530170D02*
D03*
X1894112Y1514930D02*
D03*
X1901732Y1499690D02*
D03*
X1894112Y1484450D02*
D03*
X1901732Y1469210D02*
D03*
X1878872Y1636850D02*
D03*
X1886492Y1621610D02*
D03*
X1878872Y1606370D02*
D03*
X1886492Y1530170D02*
D03*
X1878872Y1514930D02*
D03*
X1886492Y1499690D02*
D03*
X1878872Y1484450D02*
D03*
X1886492Y1469210D02*
D03*
X1863632Y1636850D02*
D03*
Y1606370D02*
D03*
X1871252Y1530170D02*
D03*
X1863632Y1514930D02*
D03*
X1871252Y1499690D02*
D03*
X1863632Y1484450D02*
D03*
X1871252Y1469210D02*
D03*
X1856012Y1774010D02*
D03*
X1848392Y1758770D02*
D03*
X1856012Y1743530D02*
D03*
X1848392Y1636850D02*
D03*
Y1606370D02*
D03*
X1856012Y1530170D02*
D03*
X1848392Y1514930D02*
D03*
X1856012Y1499690D02*
D03*
X1848392Y1484450D02*
D03*
X1856012Y1469210D02*
D03*
X1840772Y1530170D02*
D03*
X1833152Y1514930D02*
D03*
X1840772Y1499690D02*
D03*
Y1469210D02*
D03*
X1817912Y1758770D02*
D03*
X1825532Y1591130D02*
D03*
X1817912Y1575890D02*
D03*
X1825532Y1560650D02*
D03*
X1817912Y1545410D02*
D03*
X1825532Y1530170D02*
D03*
X1817912Y1514930D02*
D03*
X1825532Y1499690D02*
D03*
X1810292Y1774010D02*
D03*
X1802672Y1758770D02*
D03*
X1810292Y1743530D02*
D03*
Y1591130D02*
D03*
X1802672Y1575890D02*
D03*
X1810292Y1560650D02*
D03*
X1802672Y1545410D02*
D03*
X1810292Y1530170D02*
D03*
X1802672Y1514930D02*
D03*
X1810292Y1499690D02*
D03*
X1802672Y1484450D02*
D03*
X1795052Y1774010D02*
D03*
X1787432Y1758770D02*
D03*
X1795052Y1743530D02*
D03*
X1787432Y1636850D02*
D03*
Y1606370D02*
D03*
X1795052Y1591130D02*
D03*
Y1530170D02*
D03*
X1772192Y1850210D02*
D03*
X1779812Y1834970D02*
D03*
X1772192Y1819730D02*
D03*
X1779812Y1804490D02*
D03*
X1772192Y1789250D02*
D03*
X1779812Y1774010D02*
D03*
X1772192Y1758770D02*
D03*
X1779812Y1743530D02*
D03*
X1772192Y1636850D02*
D03*
X1779812Y1621610D02*
D03*
X1772192Y1606370D02*
D03*
X1756952Y1850210D02*
D03*
X1764572Y1834970D02*
D03*
X1756952Y1819730D02*
D03*
X1764572Y1804490D02*
D03*
X1756952Y1789250D02*
D03*
X1764572Y1774010D02*
D03*
X1756952Y1758770D02*
D03*
X1764572Y1743530D02*
D03*
X1756952Y1636850D02*
D03*
Y1606370D02*
D03*
X2054132Y1621610D02*
D03*
X2076992Y1636850D02*
D03*
Y1606370D02*
D03*
X2061752Y1636850D02*
D03*
Y1606370D02*
D03*
X2046512Y1636850D02*
D03*
Y1606370D02*
D03*
Y1545410D02*
D03*
X2031272Y1850210D02*
D03*
X2038892Y1591130D02*
D03*
X2031272Y1575890D02*
D03*
X2038892Y1560650D02*
D03*
X2031272Y1545410D02*
D03*
X2038892Y1530170D02*
D03*
X2031272Y1514930D02*
D03*
Y1484450D02*
D03*
X2016032Y1850210D02*
D03*
X2023652Y1713050D02*
D03*
Y1591130D02*
D03*
X2016032Y1575890D02*
D03*
X2023652Y1560650D02*
D03*
X2016032Y1545410D02*
D03*
X2023652Y1530170D02*
D03*
X2016032Y1514930D02*
D03*
X2023652Y1499690D02*
D03*
X2000792Y1850210D02*
D03*
X2008412Y1591130D02*
D03*
Y1560650D02*
D03*
X2000792Y1545410D02*
D03*
X2008412Y1530170D02*
D03*
X2000792Y1514930D02*
D03*
X2008412Y1499690D02*
D03*
X1985552Y1941650D02*
D03*
Y1911170D02*
D03*
X1993172Y1895930D02*
D03*
X1985552Y1880690D02*
D03*
X1993172Y1865450D02*
D03*
Y1743530D02*
D03*
X1985552Y1636850D02*
D03*
Y1606370D02*
D03*
X1993172Y1530170D02*
D03*
X1985552Y1514930D02*
D03*
X1993172Y1499690D02*
D03*
X1985552Y1484450D02*
D03*
X1993172Y1469210D02*
D03*
X1970312Y1941650D02*
D03*
X1977932Y1926410D02*
D03*
X1970312Y1911170D02*
D03*
X1977932Y1895930D02*
D03*
X1970312Y1880690D02*
D03*
X1977932Y1865450D02*
D03*
X1970312Y1636850D02*
D03*
Y1606370D02*
D03*
X1977932Y1530170D02*
D03*
X1970312Y1514930D02*
D03*
X1977932Y1499690D02*
D03*
X1970312Y1484450D02*
D03*
X1977932Y1469210D02*
D03*
X1955072Y1941650D02*
D03*
X1962692Y1926410D02*
D03*
X1955072Y1911170D02*
D03*
X1962692Y1895930D02*
D03*
X1955072Y1880690D02*
D03*
X1962692Y1865450D02*
D03*
Y1804490D02*
D03*
Y1774010D02*
D03*
X1955072Y1636850D02*
D03*
Y1606370D02*
D03*
X1962692Y1530170D02*
D03*
X1955072Y1514930D02*
D03*
X1962692Y1499690D02*
D03*
X1955072Y1484450D02*
D03*
X1962692Y1469210D02*
D03*
X1939832Y1941650D02*
D03*
Y1636850D02*
D03*
X1947452Y1621610D02*
D03*
X1939832Y1606370D02*
D03*
X1947452Y1591130D02*
D03*
X1939832Y1545410D02*
D03*
X1947452Y1530170D02*
D03*
X1939832Y1514930D02*
D03*
X1947452Y1499690D02*
D03*
X1939832Y1484450D02*
D03*
X1947452Y1469210D02*
D03*
X1924592Y1941650D02*
D03*
Y1636850D02*
D03*
X1932212Y1621610D02*
D03*
X1924592Y1606370D02*
D03*
X1932212Y1591130D02*
D03*
X1924592Y1575890D02*
D03*
X1932212Y1560650D02*
D03*
X1924592Y1545410D02*
D03*
X1932212Y1530170D02*
D03*
X1924592Y1514930D02*
D03*
X1932212Y1499690D02*
D03*
X1924592Y1484450D02*
D03*
X1932212Y1469210D02*
D03*
X1909352Y1941650D02*
D03*
X1916972Y1926410D02*
D03*
Y1865450D02*
D03*
Y1804490D02*
D03*
Y1774010D02*
D03*
X1894112Y1941650D02*
D03*
X1878872D02*
D03*
X1886492Y1926410D02*
D03*
X1863632Y1941650D02*
D03*
X1871252Y1926410D02*
D03*
X1848392Y1941650D02*
D03*
X1856012Y1926410D02*
D03*
X1764572Y1713050D02*
D03*
D42*
X382350Y2289334D02*
D03*
Y2302334D02*
D03*
Y2276334D02*
D03*
X395350D02*
D03*
Y2289334D02*
D03*
Y2302334D02*
D03*
X763350Y2289334D02*
D03*
Y2302334D02*
D03*
Y2276334D02*
D03*
X776350D02*
D03*
Y2289334D02*
D03*
Y2302334D02*
D03*
X1144350Y2289334D02*
D03*
Y2302334D02*
D03*
Y2276334D02*
D03*
X1157350D02*
D03*
Y2289334D02*
D03*
Y2302334D02*
D03*
X1525350Y2289334D02*
D03*
Y2302334D02*
D03*
Y2276334D02*
D03*
X1538350D02*
D03*
Y2289334D02*
D03*
Y2302334D02*
D03*
X1906350Y2289334D02*
D03*
Y2302334D02*
D03*
Y2276334D02*
D03*
X1919350D02*
D03*
Y2289334D02*
D03*
Y2302334D02*
D03*
X398408Y1089324D02*
D03*
Y1076324D02*
D03*
X385408D02*
D03*
Y1089324D02*
D03*
X398408Y1063324D02*
D03*
X385408D02*
D03*
X779408Y1089324D02*
D03*
Y1076324D02*
D03*
X766408D02*
D03*
Y1089324D02*
D03*
X779408Y1063324D02*
D03*
X766408D02*
D03*
X1160408Y1089324D02*
D03*
Y1076324D02*
D03*
X1147408D02*
D03*
Y1089324D02*
D03*
X1160408Y1063324D02*
D03*
X1147408D02*
D03*
X1541408Y1089324D02*
D03*
Y1076324D02*
D03*
X1528408D02*
D03*
Y1089324D02*
D03*
X1541408Y1063324D02*
D03*
X1528408D02*
D03*
X1922408Y1089324D02*
D03*
Y1076324D02*
D03*
X1909408D02*
D03*
Y1089324D02*
D03*
X1922408Y1063324D02*
D03*
X1909408D02*
D03*
X387430Y1733780D02*
D03*
Y1746780D02*
D03*
Y1720780D02*
D03*
X400430D02*
D03*
Y1733780D02*
D03*
Y1746780D02*
D03*
X768430Y1733780D02*
D03*
Y1746780D02*
D03*
Y1720780D02*
D03*
X781430D02*
D03*
Y1733780D02*
D03*
Y1746780D02*
D03*
X1149430Y1733780D02*
D03*
Y1746780D02*
D03*
Y1720780D02*
D03*
X1162430D02*
D03*
Y1733780D02*
D03*
Y1746780D02*
D03*
X1530430Y1733780D02*
D03*
Y1746780D02*
D03*
Y1720780D02*
D03*
X1543430D02*
D03*
Y1733780D02*
D03*
Y1746780D02*
D03*
X1911430Y1733780D02*
D03*
Y1746780D02*
D03*
Y1720780D02*
D03*
X1924430D02*
D03*
Y1733780D02*
D03*
Y1746780D02*
D03*
D56*
X388850Y2289334D02*
D03*
X769850D02*
D03*
X1150850D02*
D03*
X1531850D02*
D03*
X1912850D02*
D03*
X391908Y1076324D02*
D03*
X772908D02*
D03*
X1153908D02*
D03*
X1534908D02*
D03*
X1915908D02*
D03*
X393930Y1733780D02*
D03*
X774930D02*
D03*
X1155930D02*
D03*
X1536930D02*
D03*
X1917930D02*
D03*
D57*
X381409Y2248504D02*
D03*
X363509D02*
D03*
X762409D02*
D03*
X744509D02*
D03*
X1143409D02*
D03*
X1125509D02*
D03*
X1524409D02*
D03*
X1506509D02*
D03*
X1905409D02*
D03*
X1887509D02*
D03*
X386489Y1692950D02*
D03*
X368589D02*
D03*
X767489D02*
D03*
X749589D02*
D03*
X1148489D02*
D03*
X1130589D02*
D03*
X1529489D02*
D03*
X1511589D02*
D03*
X1910489D02*
D03*
X1892589D02*
D03*
D58*
X341226Y2233304D02*
D03*
X245064Y2268698D02*
D03*
X265684Y2268698D02*
D03*
X306935Y2268698D02*
D03*
X286304Y2268698D02*
D03*
X399081Y2375337D02*
D03*
X378461Y2375337D02*
D03*
X352224Y2340064D02*
D03*
X328955Y2286598D02*
D03*
X245064Y2286598D02*
D03*
X265684Y2286598D02*
D03*
X306935Y2286598D02*
D03*
X286304Y2286598D02*
D03*
X352224Y2322164D02*
D03*
X341226Y2251204D02*
D03*
X328955Y2268698D02*
D03*
X399081Y2393237D02*
D03*
X378461Y2393237D02*
D03*
X722226Y2233304D02*
D03*
X626064Y2268698D02*
D03*
X646684Y2268698D02*
D03*
X687935Y2268698D02*
D03*
X667304Y2268698D02*
D03*
X780081Y2375337D02*
D03*
X759462Y2375337D02*
D03*
X733224Y2340064D02*
D03*
X709955Y2286598D02*
D03*
X626064Y2286598D02*
D03*
X646684Y2286598D02*
D03*
X687935Y2286598D02*
D03*
X667304Y2286598D02*
D03*
X733224Y2322164D02*
D03*
X722226Y2251204D02*
D03*
X709955Y2268698D02*
D03*
X780081Y2393237D02*
D03*
X759462Y2393237D02*
D03*
X1103226Y2233304D02*
D03*
X1007064Y2268698D02*
D03*
X1027684Y2268698D02*
D03*
X1068935Y2268698D02*
D03*
X1048304Y2268698D02*
D03*
X1161081Y2375337D02*
D03*
X1140462Y2375337D02*
D03*
X1114224Y2340064D02*
D03*
X1090955Y2286598D02*
D03*
X1007064Y2286598D02*
D03*
X1027684Y2286598D02*
D03*
X1068935Y2286598D02*
D03*
X1048304Y2286598D02*
D03*
X1114224Y2322164D02*
D03*
X1103226Y2251204D02*
D03*
X1090955Y2268698D02*
D03*
X1161081Y2393237D02*
D03*
X1140462Y2393237D02*
D03*
X1484226Y2233304D02*
D03*
X1388064Y2268698D02*
D03*
X1408684Y2268698D02*
D03*
X1449935Y2268698D02*
D03*
X1429304Y2268698D02*
D03*
X1542081Y2375337D02*
D03*
X1521461Y2375337D02*
D03*
X1495224Y2340064D02*
D03*
X1471955Y2286598D02*
D03*
X1388064Y2286598D02*
D03*
X1408684Y2286598D02*
D03*
X1449935Y2286598D02*
D03*
X1429304Y2286598D02*
D03*
X1495224Y2322164D02*
D03*
X1484226Y2251204D02*
D03*
X1471955Y2268698D02*
D03*
X1542081Y2393237D02*
D03*
X1521461Y2393237D02*
D03*
X1865226Y2233304D02*
D03*
X1769064Y2268698D02*
D03*
X1789684Y2268698D02*
D03*
X1830935Y2268698D02*
D03*
X1810304Y2268698D02*
D03*
X1923081Y2375337D02*
D03*
X1902462Y2375337D02*
D03*
X1876224Y2340064D02*
D03*
X1852955Y2286598D02*
D03*
X1769064Y2286598D02*
D03*
X1789684Y2286598D02*
D03*
X1830935Y2286598D02*
D03*
X1810304Y2286598D02*
D03*
X1876224Y2322164D02*
D03*
X1865226Y2251204D02*
D03*
X1852955Y2268698D02*
D03*
X1923081Y2393237D02*
D03*
X1902462Y2393237D02*
D03*
X418234Y1150294D02*
D03*
X395980Y1150294D02*
D03*
Y1168194D02*
D03*
X418234Y1168194D02*
D03*
X799234Y1150294D02*
D03*
X776980Y1150294D02*
D03*
Y1168194D02*
D03*
X799234Y1168194D02*
D03*
X1180234Y1150294D02*
D03*
X1157980Y1150294D02*
D03*
Y1168194D02*
D03*
X1180234Y1168194D02*
D03*
X1561234Y1150294D02*
D03*
X1538980Y1150294D02*
D03*
Y1168194D02*
D03*
X1561234Y1168194D02*
D03*
X1942234Y1150294D02*
D03*
X1919980Y1150294D02*
D03*
Y1168194D02*
D03*
X1942234Y1168194D02*
D03*
X346306Y1677750D02*
D03*
X250144Y1713144D02*
D03*
X270764Y1713144D02*
D03*
X312015Y1713144D02*
D03*
X291384Y1713144D02*
D03*
X404161Y1819783D02*
D03*
X383541Y1819783D02*
D03*
X357304Y1784510D02*
D03*
X334035Y1731044D02*
D03*
X250144Y1731044D02*
D03*
X270764Y1731044D02*
D03*
X312015Y1731044D02*
D03*
X291384Y1731044D02*
D03*
X357304Y1766610D02*
D03*
X346306Y1695650D02*
D03*
X334035Y1713144D02*
D03*
X404161Y1837683D02*
D03*
X383541Y1837683D02*
D03*
X727306Y1677750D02*
D03*
X631144Y1713144D02*
D03*
X651764Y1713144D02*
D03*
X693015Y1713144D02*
D03*
X672384Y1713144D02*
D03*
X785161Y1819783D02*
D03*
X764541Y1819783D02*
D03*
X738304Y1784510D02*
D03*
X715035Y1731044D02*
D03*
X631144Y1731044D02*
D03*
X651764Y1731044D02*
D03*
X693015Y1731044D02*
D03*
X672384Y1731044D02*
D03*
X738304Y1766610D02*
D03*
X727306Y1695650D02*
D03*
X715035Y1713144D02*
D03*
X785161Y1837683D02*
D03*
X764541Y1837683D02*
D03*
X1108306Y1677750D02*
D03*
X1012144Y1713144D02*
D03*
X1032764Y1713144D02*
D03*
X1074015Y1713144D02*
D03*
X1053384Y1713144D02*
D03*
X1166161Y1819783D02*
D03*
X1145542Y1819783D02*
D03*
X1119304Y1784510D02*
D03*
X1096035Y1731044D02*
D03*
X1012144Y1731044D02*
D03*
X1032764Y1731044D02*
D03*
X1074015Y1731044D02*
D03*
X1053384Y1731044D02*
D03*
X1119304Y1766610D02*
D03*
X1108306Y1695650D02*
D03*
X1096035Y1713144D02*
D03*
X1166161Y1837683D02*
D03*
X1145542Y1837683D02*
D03*
X1489306Y1677750D02*
D03*
X1393144Y1713144D02*
D03*
X1413764Y1713144D02*
D03*
X1455015Y1713144D02*
D03*
X1434384Y1713144D02*
D03*
X1547161Y1819783D02*
D03*
X1526541Y1819783D02*
D03*
X1500304Y1784510D02*
D03*
X1477035Y1731044D02*
D03*
X1393144Y1731044D02*
D03*
X1413764Y1731044D02*
D03*
X1455015Y1731044D02*
D03*
X1434384Y1731044D02*
D03*
X1500304Y1766610D02*
D03*
X1489306Y1695650D02*
D03*
X1477035Y1713144D02*
D03*
X1547161Y1837683D02*
D03*
X1526541Y1837683D02*
D03*
X1870306Y1677750D02*
D03*
X1774144Y1713144D02*
D03*
X1794764Y1713144D02*
D03*
X1836015Y1713144D02*
D03*
X1815384Y1713144D02*
D03*
X1928161Y1819783D02*
D03*
X1907542Y1819783D02*
D03*
X1881304Y1784510D02*
D03*
X1858035Y1731044D02*
D03*
X1774144Y1731044D02*
D03*
X1794764Y1731044D02*
D03*
X1836015Y1731044D02*
D03*
X1815384Y1731044D02*
D03*
X1881304Y1766610D02*
D03*
X1870306Y1695650D02*
D03*
X1858035Y1713144D02*
D03*
X1928161Y1837683D02*
D03*
X1907542Y1837683D02*
D03*
D59*
X368300Y2457074D02*
D03*
X407670D02*
D03*
X749300D02*
D03*
X788670D02*
D03*
X1130300D02*
D03*
X1169670D02*
D03*
X1511300D02*
D03*
X1550670D02*
D03*
X1892300D02*
D03*
X1931670D02*
D03*
X373380Y1901520D02*
D03*
X412750D02*
D03*
X754380D02*
D03*
X793750D02*
D03*
X1135380D02*
D03*
X1174750D02*
D03*
X1516380D02*
D03*
X1555750D02*
D03*
X1897380D02*
D03*
X1936750D02*
D03*
D60*
X489710Y2292457D02*
D03*
Y2282457D02*
D03*
X503830Y2282457D02*
D03*
Y2292457D02*
D03*
X870710Y2292457D02*
D03*
Y2282457D02*
D03*
X884830Y2282457D02*
D03*
Y2292457D02*
D03*
X1251710Y2292457D02*
D03*
Y2282457D02*
D03*
X1265830Y2282457D02*
D03*
Y2292457D02*
D03*
X1632710Y2292457D02*
D03*
Y2282457D02*
D03*
X1646830Y2282457D02*
D03*
Y2292457D02*
D03*
X2013710Y2292457D02*
D03*
Y2282457D02*
D03*
X2027830Y2282457D02*
D03*
Y2292457D02*
D03*
X442642Y1047704D02*
D03*
Y1057704D02*
D03*
X823642Y1047704D02*
D03*
Y1057704D02*
D03*
X1204642Y1047704D02*
D03*
Y1057704D02*
D03*
X1585642Y1047704D02*
D03*
Y1057704D02*
D03*
X1966642Y1047704D02*
D03*
Y1057704D02*
D03*
X494790Y1736903D02*
D03*
Y1726903D02*
D03*
X508910Y1726903D02*
D03*
Y1736903D02*
D03*
X875790Y1736903D02*
D03*
Y1726903D02*
D03*
X889910Y1726903D02*
D03*
Y1736903D02*
D03*
X1256790Y1736903D02*
D03*
Y1726903D02*
D03*
X1270910Y1726903D02*
D03*
Y1736903D02*
D03*
X1637790Y1736903D02*
D03*
Y1726903D02*
D03*
X1651910Y1726903D02*
D03*
Y1736903D02*
D03*
X2018790Y1736903D02*
D03*
Y1726903D02*
D03*
X2032910Y1726903D02*
D03*
Y1736903D02*
D03*
D61*
X369840Y2342624D02*
D03*
X415340D02*
D03*
X750840D02*
D03*
X796340D02*
D03*
X1131840D02*
D03*
X1177340D02*
D03*
X1512840D02*
D03*
X1558340D02*
D03*
X1893840D02*
D03*
X1939340D02*
D03*
X374920Y1787070D02*
D03*
X420420D02*
D03*
X755920D02*
D03*
X801420D02*
D03*
X1136920D02*
D03*
X1182420D02*
D03*
X1517920D02*
D03*
X1563420D02*
D03*
X1898920D02*
D03*
X1944420D02*
D03*
D62*
X476090Y2293788D02*
D03*
X438850Y2293945D02*
D03*
X476090Y2284788D02*
D03*
X438850Y2284945D02*
D03*
X857090Y2293788D02*
D03*
X819850Y2293945D02*
D03*
X857090Y2284788D02*
D03*
X819850Y2284945D02*
D03*
X1238090Y2293788D02*
D03*
X1200850Y2293945D02*
D03*
X1238090Y2284788D02*
D03*
X1200850Y2284945D02*
D03*
X1619090Y2293788D02*
D03*
X1581850Y2293945D02*
D03*
X1619090Y2284788D02*
D03*
X1581850Y2284945D02*
D03*
X2000090Y2293788D02*
D03*
X1962850Y2293945D02*
D03*
X2000090Y2284788D02*
D03*
X1962850Y2284945D02*
D03*
X323810Y1089175D02*
D03*
X336153D02*
D03*
X332672Y1076302D02*
D03*
X318578D02*
D03*
X479712Y1082674D02*
D03*
X442642D02*
D03*
X336153Y1098175D02*
D03*
X332672Y1067302D02*
D03*
X323810Y1098175D02*
D03*
X318578Y1067302D02*
D03*
X356892Y1026250D02*
D03*
X479712Y1073674D02*
D03*
X442642D02*
D03*
X356892Y1035250D02*
D03*
X704810Y1089175D02*
D03*
X717153D02*
D03*
X713672Y1076302D02*
D03*
X699578D02*
D03*
X860712Y1082674D02*
D03*
X823642D02*
D03*
X717153Y1098175D02*
D03*
X713672Y1067302D02*
D03*
X704810Y1098175D02*
D03*
X699578Y1067302D02*
D03*
X737892Y1026250D02*
D03*
X860712Y1073674D02*
D03*
X823642D02*
D03*
X737892Y1035250D02*
D03*
X1085810Y1089175D02*
D03*
X1098153D02*
D03*
X1094672Y1076302D02*
D03*
X1080578D02*
D03*
X1241712Y1082674D02*
D03*
X1204642D02*
D03*
X1098153Y1098175D02*
D03*
X1094672Y1067302D02*
D03*
X1085810Y1098175D02*
D03*
X1080578Y1067302D02*
D03*
X1118892Y1026250D02*
D03*
X1241712Y1073674D02*
D03*
X1204642D02*
D03*
X1118892Y1035250D02*
D03*
X1466810Y1089175D02*
D03*
X1479153D02*
D03*
X1475672Y1076302D02*
D03*
X1461578D02*
D03*
X1622712Y1082674D02*
D03*
X1585642D02*
D03*
X1479153Y1098175D02*
D03*
X1475672Y1067302D02*
D03*
X1466810Y1098175D02*
D03*
X1461578Y1067302D02*
D03*
X1499892Y1026250D02*
D03*
X1622712Y1073674D02*
D03*
X1585642D02*
D03*
X1499892Y1035250D02*
D03*
X1847810Y1089175D02*
D03*
X1860153D02*
D03*
X1856672Y1076302D02*
D03*
X1842578D02*
D03*
X2003712Y1082674D02*
D03*
X1966642D02*
D03*
X1860153Y1098175D02*
D03*
X1856672Y1067302D02*
D03*
X1847810Y1098175D02*
D03*
X1842578Y1067302D02*
D03*
X1880892Y1026250D02*
D03*
X2003712Y1073674D02*
D03*
X1966642D02*
D03*
X1880892Y1035250D02*
D03*
X481170Y1738234D02*
D03*
X443930Y1738391D02*
D03*
X481170Y1729234D02*
D03*
X443930Y1729391D02*
D03*
X862170Y1738234D02*
D03*
X824930Y1738391D02*
D03*
X862170Y1729234D02*
D03*
X824930Y1729391D02*
D03*
X1243170Y1738234D02*
D03*
X1205930Y1738391D02*
D03*
X1243170Y1729234D02*
D03*
X1205930Y1729391D02*
D03*
X1624170Y1738234D02*
D03*
X1586930Y1738391D02*
D03*
X1624170Y1729234D02*
D03*
X1586930Y1729391D02*
D03*
X2005170Y1738234D02*
D03*
X1967930Y1738391D02*
D03*
X2005170Y1729234D02*
D03*
X1967930Y1729391D02*
D03*
D63*
X422161Y2375164D02*
D03*
Y2403164D02*
D03*
X803161Y2375164D02*
D03*
Y2403164D02*
D03*
X1184161Y2375164D02*
D03*
Y2403164D02*
D03*
X1565161Y2375164D02*
D03*
Y2403164D02*
D03*
X1946161Y2375164D02*
D03*
Y2403164D02*
D03*
X369738Y1144294D02*
D03*
Y1172294D02*
D03*
X750738Y1144294D02*
D03*
Y1172294D02*
D03*
X1131738Y1144294D02*
D03*
Y1172294D02*
D03*
X1512738Y1144294D02*
D03*
Y1172294D02*
D03*
X1893738Y1144294D02*
D03*
Y1172294D02*
D03*
X427241Y1819610D02*
D03*
Y1847610D02*
D03*
X808241Y1819610D02*
D03*
Y1847610D02*
D03*
X1189241Y1819610D02*
D03*
Y1847610D02*
D03*
X1570241Y1819610D02*
D03*
Y1847610D02*
D03*
X1951241Y1819610D02*
D03*
Y1847610D02*
D03*
D64*
X539750Y2125024D02*
D03*
X232410Y2233717D02*
D03*
X289550Y2489764D02*
D03*
X489550D02*
D03*
X489710Y2180824D02*
D03*
X547370Y2234824D02*
D03*
X288943Y2178854D02*
D03*
X232410Y2434824D02*
D03*
X239135Y2125688D02*
D03*
X547370Y2434824D02*
D03*
X920750Y2125024D02*
D03*
X613410Y2233717D02*
D03*
X670550Y2489764D02*
D03*
X870550D02*
D03*
X870710Y2180824D02*
D03*
X928370Y2234824D02*
D03*
X669943Y2178854D02*
D03*
X613410Y2434824D02*
D03*
X620135Y2125688D02*
D03*
X928370Y2434824D02*
D03*
X1301750Y2125024D02*
D03*
X994410Y2233717D02*
D03*
X1051550Y2489764D02*
D03*
X1251550D02*
D03*
X1251710Y2180824D02*
D03*
X1309370Y2234824D02*
D03*
X1050943Y2178854D02*
D03*
X994410Y2434824D02*
D03*
X1001135Y2125688D02*
D03*
X1309370Y2434824D02*
D03*
X1682750Y2125024D02*
D03*
X1375410Y2233717D02*
D03*
X1432550Y2489764D02*
D03*
X1632550D02*
D03*
X1632710Y2180824D02*
D03*
X1690370Y2234824D02*
D03*
X1431943Y2178854D02*
D03*
X1375410Y2434824D02*
D03*
X1382135Y2125688D02*
D03*
X1690370Y2434824D02*
D03*
X2063750Y2125024D02*
D03*
X1756410Y2233717D02*
D03*
X1813550Y2489764D02*
D03*
X2013550D02*
D03*
X2013710Y2180824D02*
D03*
X2071370Y2234824D02*
D03*
X1812943Y2178854D02*
D03*
X1756410Y2434824D02*
D03*
X1763135Y2125688D02*
D03*
X2071370Y2434824D02*
D03*
X544830Y1569470D02*
D03*
X237490Y1678162D02*
D03*
X294630Y1934210D02*
D03*
X494630D02*
D03*
X494790Y1625270D02*
D03*
X552450Y1679270D02*
D03*
X294023Y1623300D02*
D03*
X237490Y1879270D02*
D03*
X244215Y1570133D02*
D03*
X552450Y1879270D02*
D03*
X925830Y1569470D02*
D03*
X618490Y1678162D02*
D03*
X675630Y1934210D02*
D03*
X875630D02*
D03*
X875790Y1625270D02*
D03*
X933450Y1679270D02*
D03*
X675023Y1623300D02*
D03*
X618490Y1879270D02*
D03*
X625215Y1570133D02*
D03*
X933450Y1879270D02*
D03*
X1306830Y1569470D02*
D03*
X999490Y1678162D02*
D03*
X1056630Y1934210D02*
D03*
X1256630D02*
D03*
X1256790Y1625270D02*
D03*
X1314450Y1679270D02*
D03*
X1056023Y1623300D02*
D03*
X999490Y1879270D02*
D03*
X1006215Y1570133D02*
D03*
X1314450Y1879270D02*
D03*
X1687830Y1569470D02*
D03*
X1380490Y1678162D02*
D03*
X1437630Y1934210D02*
D03*
X1637630D02*
D03*
X1637790Y1625270D02*
D03*
X1695450Y1679270D02*
D03*
X1437023Y1623300D02*
D03*
X1380490Y1879270D02*
D03*
X1387215Y1570133D02*
D03*
X1695450Y1879270D02*
D03*
X2068830Y1569470D02*
D03*
X1761490Y1678162D02*
D03*
X1818630Y1934210D02*
D03*
X2018630D02*
D03*
X2018790Y1625270D02*
D03*
X2076450Y1679270D02*
D03*
X1818023Y1623300D02*
D03*
X1761490Y1879270D02*
D03*
X1768215Y1570133D02*
D03*
X2076450Y1879270D02*
D03*
D65*
X471951Y2323234D02*
D03*
Y2382234D02*
D03*
X852952Y2323234D02*
D03*
Y2382234D02*
D03*
X1233951Y2323234D02*
D03*
Y2382234D02*
D03*
X1614951Y2323234D02*
D03*
Y2382234D02*
D03*
X1995952Y2323234D02*
D03*
Y2382234D02*
D03*
X477032Y1767680D02*
D03*
Y1826680D02*
D03*
X858031Y1767680D02*
D03*
Y1826680D02*
D03*
X1239032Y1767680D02*
D03*
Y1826680D02*
D03*
X1620031Y1767680D02*
D03*
Y1826680D02*
D03*
X2001031Y1767680D02*
D03*
Y1826680D02*
D03*
D66*
X462470Y2284851D02*
D03*
X452470D02*
D03*
X843470D02*
D03*
X833470D02*
D03*
X1224470D02*
D03*
X1214470D02*
D03*
X1605470D02*
D03*
X1595470D02*
D03*
X1986470D02*
D03*
X1976470D02*
D03*
X466485Y1052704D02*
D03*
X456485D02*
D03*
X456316Y1071324D02*
D03*
X466316D02*
D03*
X847485Y1052704D02*
D03*
X837485D02*
D03*
X837316Y1071324D02*
D03*
X847316D02*
D03*
X1228485Y1052704D02*
D03*
X1218485D02*
D03*
X1218316Y1071324D02*
D03*
X1228316D02*
D03*
X1609485Y1052704D02*
D03*
X1599485D02*
D03*
X1599316Y1071324D02*
D03*
X1609316D02*
D03*
X1990485Y1052704D02*
D03*
X1980485D02*
D03*
X1980316Y1071324D02*
D03*
X1990316D02*
D03*
X467550Y1729297D02*
D03*
X457550D02*
D03*
X848550D02*
D03*
X838550D02*
D03*
X1229550D02*
D03*
X1219550D02*
D03*
X1610550D02*
D03*
X1600550D02*
D03*
X1991550D02*
D03*
X1981550D02*
D03*
D67*
X527093Y1081646D02*
D03*
Y1121016D02*
D03*
X530132Y1211541D02*
D03*
X262647Y1212300D02*
D03*
X264186Y1131117D02*
D03*
X262647Y1172930D02*
D03*
X530132Y1172171D02*
D03*
X264186Y1091747D02*
D03*
X908092Y1081646D02*
D03*
Y1121016D02*
D03*
X911132Y1211541D02*
D03*
X643647Y1212300D02*
D03*
X645186Y1131117D02*
D03*
X643647Y1172930D02*
D03*
X911132Y1172171D02*
D03*
X645186Y1091747D02*
D03*
X1289093Y1081646D02*
D03*
Y1121016D02*
D03*
X1292132Y1211541D02*
D03*
X1024647Y1212300D02*
D03*
X1026186Y1131117D02*
D03*
X1024647Y1172930D02*
D03*
X1292132Y1172171D02*
D03*
X1026186Y1091747D02*
D03*
X1670092Y1081646D02*
D03*
Y1121016D02*
D03*
X1673132Y1211541D02*
D03*
X1405647Y1212300D02*
D03*
X1407186Y1131117D02*
D03*
X1405647Y1172930D02*
D03*
X1673132Y1172171D02*
D03*
X1407186Y1091747D02*
D03*
X2051093Y1081646D02*
D03*
Y1121016D02*
D03*
X2054132Y1211541D02*
D03*
X1786647Y1212300D02*
D03*
X1788186Y1131117D02*
D03*
X1786647Y1172930D02*
D03*
X2054132Y1172171D02*
D03*
X1788186Y1091747D02*
D03*
D68*
X319768Y1008324D02*
D03*
X333922Y1038000D02*
D03*
X328768Y1008324D02*
D03*
X342922Y1038000D02*
D03*
X371258Y1112014D02*
D03*
X362257D02*
D03*
X700768Y1008324D02*
D03*
X714922Y1038000D02*
D03*
X709768Y1008324D02*
D03*
X723922Y1038000D02*
D03*
X752258Y1112014D02*
D03*
X743258D02*
D03*
X1081768Y1008324D02*
D03*
X1095922Y1038000D02*
D03*
X1090768Y1008324D02*
D03*
X1104922Y1038000D02*
D03*
X1133258Y1112014D02*
D03*
X1124258D02*
D03*
X1462768Y1008324D02*
D03*
X1476922Y1038000D02*
D03*
X1471768Y1008324D02*
D03*
X1485922Y1038000D02*
D03*
X1514258Y1112014D02*
D03*
X1505258D02*
D03*
X1843768Y1008324D02*
D03*
X1857922Y1038000D02*
D03*
X1852768Y1008324D02*
D03*
X1866922Y1038000D02*
D03*
X1895258Y1112014D02*
D03*
X1886257D02*
D03*
D69*
X455674Y1118474D02*
D03*
Y1163974D02*
D03*
X836674Y1118474D02*
D03*
Y1163974D02*
D03*
X1217674Y1118474D02*
D03*
Y1163974D02*
D03*
X1598674Y1118474D02*
D03*
Y1163974D02*
D03*
X1979674Y1118474D02*
D03*
Y1163974D02*
D03*
D70*
X370916Y1231324D02*
D03*
X429916D02*
D03*
X751916D02*
D03*
X810916D02*
D03*
X1132916D02*
D03*
X1191916D02*
D03*
X1513916D02*
D03*
X1572916D02*
D03*
X1894916D02*
D03*
X1953916D02*
D03*
D71*
X441850Y2124024D02*
D03*
X822850D02*
D03*
X1203850D02*
D03*
X1584850D02*
D03*
X1965850D02*
D03*
X446930Y1568470D02*
D03*
X827930D02*
D03*
X1208930D02*
D03*
X1589930D02*
D03*
X1970930D02*
D03*
D72*
X332850Y2124024D02*
D03*
X713850D02*
D03*
X1094850D02*
D03*
X1475850D02*
D03*
X1856850D02*
D03*
X337930Y1568470D02*
D03*
X718930D02*
D03*
X1099930D02*
D03*
X1480930D02*
D03*
X1861930D02*
D03*
D73*
X292850Y2030024D02*
D03*
X481850D02*
D03*
X673850D02*
D03*
X862850D02*
D03*
X1054850D02*
D03*
X1243850D02*
D03*
X1435850D02*
D03*
X1624850D02*
D03*
X1816850D02*
D03*
X2005850D02*
D03*
X297930Y1474470D02*
D03*
X486930D02*
D03*
X678930D02*
D03*
X867930D02*
D03*
X1059930D02*
D03*
X1248930D02*
D03*
X1440930D02*
D03*
X1629930D02*
D03*
X1821930D02*
D03*
X2010930D02*
D03*
D74*
X289550Y2434824D02*
D03*
Y2234824D02*
D03*
X489550Y2434824D02*
D03*
Y2234824D02*
D03*
X670550Y2434824D02*
D03*
Y2234824D02*
D03*
X870550Y2434824D02*
D03*
Y2234824D02*
D03*
X1051550Y2434824D02*
D03*
Y2234824D02*
D03*
X1251550Y2434824D02*
D03*
Y2234824D02*
D03*
X1432550Y2434824D02*
D03*
Y2234824D02*
D03*
X1632550Y2434824D02*
D03*
Y2234824D02*
D03*
X1813550Y2434824D02*
D03*
Y2234824D02*
D03*
X2013550Y2434824D02*
D03*
Y2234824D02*
D03*
X495892Y1044324D02*
D03*
X295892D02*
D03*
X495892Y1244324D02*
D03*
X295892D02*
D03*
X876892Y1044324D02*
D03*
X676892D02*
D03*
X876892Y1244324D02*
D03*
X676892D02*
D03*
X1257892Y1044324D02*
D03*
X1057892D02*
D03*
X1257892Y1244324D02*
D03*
X1057892D02*
D03*
X1638892Y1044324D02*
D03*
X1438892D02*
D03*
X1638892Y1244324D02*
D03*
X1438892D02*
D03*
X2019892Y1044324D02*
D03*
X1819892D02*
D03*
X2019892Y1244324D02*
D03*
X1819892D02*
D03*
X294630Y1879270D02*
D03*
Y1679270D02*
D03*
X494630Y1879270D02*
D03*
Y1679270D02*
D03*
X675630Y1879270D02*
D03*
Y1679270D02*
D03*
X875630Y1879270D02*
D03*
Y1679270D02*
D03*
X1056630Y1879270D02*
D03*
Y1679270D02*
D03*
X1256630Y1879270D02*
D03*
Y1679270D02*
D03*
X1437630Y1879270D02*
D03*
Y1679270D02*
D03*
X1637630Y1879270D02*
D03*
Y1679270D02*
D03*
X1818630Y1879270D02*
D03*
Y1679270D02*
D03*
X2018630Y1879270D02*
D03*
Y1679270D02*
D03*
D75*
X360078Y1339142D02*
D03*
X741078D02*
D03*
X1122078D02*
D03*
X1503078D02*
D03*
X1884078D02*
D03*
D76*
X432078D02*
D03*
X813078D02*
D03*
X1194078D02*
D03*
X1575078D02*
D03*
X1956078D02*
D03*
D77*
X267946Y1036018D02*
D03*
X267892Y1047177D02*
D03*
X256892D02*
D03*
X246430D02*
D03*
X256946Y1036018D02*
D03*
X246484Y1035979D02*
D03*
X421420Y1131522D02*
D03*
X420782Y1115014D02*
D03*
X405627Y1131522D02*
D03*
X405730Y1115014D02*
D03*
X466427Y1198542D02*
D03*
X344461Y1008324D02*
D03*
X383757Y1123724D02*
D03*
X466936Y1186321D02*
D03*
X359226Y1123724D02*
D03*
X454265Y1186700D02*
D03*
X383757Y1111367D02*
D03*
X371258Y1123724D02*
D03*
X454265Y1198682D02*
D03*
X648946Y1036018D02*
D03*
X648892Y1047177D02*
D03*
X637892D02*
D03*
X627430D02*
D03*
X637946Y1036018D02*
D03*
X627484Y1035979D02*
D03*
X802420Y1131522D02*
D03*
X801782Y1115014D02*
D03*
X786627Y1131522D02*
D03*
X786730Y1115014D02*
D03*
X847427Y1198542D02*
D03*
X725461Y1008324D02*
D03*
X764757Y1123724D02*
D03*
X847935Y1186321D02*
D03*
X740226Y1123724D02*
D03*
X835265Y1186700D02*
D03*
X764757Y1111367D02*
D03*
X752258Y1123724D02*
D03*
X835265Y1198682D02*
D03*
X1029946Y1036018D02*
D03*
X1029892Y1047177D02*
D03*
X1018892D02*
D03*
X1008429D02*
D03*
X1018946Y1036018D02*
D03*
X1008484Y1035979D02*
D03*
X1183420Y1131522D02*
D03*
X1182782Y1115014D02*
D03*
X1167627Y1131522D02*
D03*
X1167730Y1115014D02*
D03*
X1228427Y1198542D02*
D03*
X1106461Y1008324D02*
D03*
X1145757Y1123724D02*
D03*
X1228935Y1186321D02*
D03*
X1121226Y1123724D02*
D03*
X1216265Y1186700D02*
D03*
X1145757Y1111367D02*
D03*
X1133258Y1123724D02*
D03*
X1216265Y1198682D02*
D03*
X1410946Y1036018D02*
D03*
X1410892Y1047177D02*
D03*
X1399892D02*
D03*
X1389429D02*
D03*
X1399946Y1036018D02*
D03*
X1389484Y1035979D02*
D03*
X1564420Y1131522D02*
D03*
X1563782Y1115014D02*
D03*
X1548627Y1131522D02*
D03*
X1548730Y1115014D02*
D03*
X1609427Y1198542D02*
D03*
X1487461Y1008324D02*
D03*
X1526757Y1123724D02*
D03*
X1609935Y1186321D02*
D03*
X1502226Y1123724D02*
D03*
X1597265Y1186700D02*
D03*
X1526757Y1111367D02*
D03*
X1514258Y1123724D02*
D03*
X1597265Y1198682D02*
D03*
X1791946Y1036018D02*
D03*
X1791892Y1047177D02*
D03*
X1780892D02*
D03*
X1770430D02*
D03*
X1780946Y1036018D02*
D03*
X1770484Y1035979D02*
D03*
X1945420Y1131522D02*
D03*
X1944782Y1115014D02*
D03*
X1929627Y1131522D02*
D03*
X1929730Y1115014D02*
D03*
X1990427Y1198542D02*
D03*
X1868461Y1008324D02*
D03*
X1907757Y1123724D02*
D03*
X1990936Y1186321D02*
D03*
X1883226Y1123724D02*
D03*
X1978265Y1186700D02*
D03*
X1907757Y1111367D02*
D03*
X1895258Y1123724D02*
D03*
X1978265Y1198682D02*
D03*
D78*
X340653Y1058975D02*
D03*
X721653D02*
D03*
X1102653D02*
D03*
X1483653D02*
D03*
X1864653D02*
D03*
M02*
