G04*
G04 #@! TF.GenerationSoftware,Altium Limited,Altium Designer,26.3.0 (6)*
G04*
G04 Layer_Color=16711935*
%FSLAX44Y44*%
%MOMM*%
G71*
G04*
G04 #@! TF.SameCoordinates,F0C73554-34DE-494A-A34D-94DED9C52F24*
G04*
G04*
G04 #@! TF.FilePolarity,Negative*
G04*
G01*
G75*
%ADD42C,0.6300*%
%ADD71C,5.4240*%
%ADD72R,5.4240X5.4240*%
%ADD73O,1.8080X3.1080*%
%ADD74C,2.0320*%
%ADD75R,6.5080X6.5080*%
%ADD76C,6.5080*%
%ADD77C,1.1080*%
%ADD78C,1.0160*%
D42*
X382350Y2289334D02*
D03*
Y2302334D02*
D03*
Y2276334D02*
D03*
X395350D02*
D03*
Y2289334D02*
D03*
Y2302334D02*
D03*
X763350Y2289334D02*
D03*
Y2302334D02*
D03*
Y2276334D02*
D03*
X776350D02*
D03*
Y2289334D02*
D03*
Y2302334D02*
D03*
X1144350Y2289334D02*
D03*
Y2302334D02*
D03*
Y2276334D02*
D03*
X1157350D02*
D03*
Y2289334D02*
D03*
Y2302334D02*
D03*
X1525350Y2289334D02*
D03*
Y2302334D02*
D03*
Y2276334D02*
D03*
X1538350D02*
D03*
Y2289334D02*
D03*
Y2302334D02*
D03*
X1906350Y2289334D02*
D03*
Y2302334D02*
D03*
Y2276334D02*
D03*
X1919350D02*
D03*
Y2289334D02*
D03*
Y2302334D02*
D03*
X398408Y1089324D02*
D03*
Y1076324D02*
D03*
X385408D02*
D03*
Y1089324D02*
D03*
X398408Y1063324D02*
D03*
X385408D02*
D03*
X779408Y1089324D02*
D03*
Y1076324D02*
D03*
X766408D02*
D03*
Y1089324D02*
D03*
X779408Y1063324D02*
D03*
X766408D02*
D03*
X1160408Y1089324D02*
D03*
Y1076324D02*
D03*
X1147408D02*
D03*
Y1089324D02*
D03*
X1160408Y1063324D02*
D03*
X1147408D02*
D03*
X1541408Y1089324D02*
D03*
Y1076324D02*
D03*
X1528408D02*
D03*
Y1089324D02*
D03*
X1541408Y1063324D02*
D03*
X1528408D02*
D03*
X1922408Y1089324D02*
D03*
Y1076324D02*
D03*
X1909408D02*
D03*
Y1089324D02*
D03*
X1922408Y1063324D02*
D03*
X1909408D02*
D03*
X387430Y1733780D02*
D03*
Y1746780D02*
D03*
Y1720780D02*
D03*
X400430D02*
D03*
Y1733780D02*
D03*
Y1746780D02*
D03*
X768430Y1733780D02*
D03*
Y1746780D02*
D03*
Y1720780D02*
D03*
X781430D02*
D03*
Y1733780D02*
D03*
Y1746780D02*
D03*
X1149430Y1733780D02*
D03*
Y1746780D02*
D03*
Y1720780D02*
D03*
X1162430D02*
D03*
Y1733780D02*
D03*
Y1746780D02*
D03*
X1530430Y1733780D02*
D03*
Y1746780D02*
D03*
Y1720780D02*
D03*
X1543430D02*
D03*
Y1733780D02*
D03*
Y1746780D02*
D03*
X1911430Y1733780D02*
D03*
Y1746780D02*
D03*
Y1720780D02*
D03*
X1924430D02*
D03*
Y1733780D02*
D03*
Y1746780D02*
D03*
D71*
X441850Y2124024D02*
D03*
X822850D02*
D03*
X1203850D02*
D03*
X1584850D02*
D03*
X1965850D02*
D03*
X446930Y1568470D02*
D03*
X827930D02*
D03*
X1208930D02*
D03*
X1589930D02*
D03*
X1970930D02*
D03*
D72*
X332850Y2124024D02*
D03*
X713850D02*
D03*
X1094850D02*
D03*
X1475850D02*
D03*
X1856850D02*
D03*
X337930Y1568470D02*
D03*
X718930D02*
D03*
X1099930D02*
D03*
X1480930D02*
D03*
X1861930D02*
D03*
D73*
X292850Y2030024D02*
D03*
X481850D02*
D03*
X673850D02*
D03*
X862850D02*
D03*
X1054850D02*
D03*
X1243850D02*
D03*
X1435850D02*
D03*
X1624850D02*
D03*
X1816850D02*
D03*
X2005850D02*
D03*
X297930Y1474470D02*
D03*
X486930D02*
D03*
X678930D02*
D03*
X867930D02*
D03*
X1059930D02*
D03*
X1248930D02*
D03*
X1440930D02*
D03*
X1629930D02*
D03*
X1821930D02*
D03*
X2010930D02*
D03*
D74*
X289550Y2434824D02*
D03*
Y2234824D02*
D03*
X489550Y2434824D02*
D03*
Y2234824D02*
D03*
X670550Y2434824D02*
D03*
Y2234824D02*
D03*
X870550Y2434824D02*
D03*
Y2234824D02*
D03*
X1051550Y2434824D02*
D03*
Y2234824D02*
D03*
X1251550Y2434824D02*
D03*
Y2234824D02*
D03*
X1432550Y2434824D02*
D03*
Y2234824D02*
D03*
X1632550Y2434824D02*
D03*
Y2234824D02*
D03*
X1813550Y2434824D02*
D03*
Y2234824D02*
D03*
X2013550Y2434824D02*
D03*
Y2234824D02*
D03*
X495892Y1044324D02*
D03*
X295892D02*
D03*
X495892Y1244324D02*
D03*
X295892D02*
D03*
X876892Y1044324D02*
D03*
X676892D02*
D03*
X876892Y1244324D02*
D03*
X676892D02*
D03*
X1257892Y1044324D02*
D03*
X1057892D02*
D03*
X1257892Y1244324D02*
D03*
X1057892D02*
D03*
X1638892Y1044324D02*
D03*
X1438892D02*
D03*
X1638892Y1244324D02*
D03*
X1438892D02*
D03*
X2019892Y1044324D02*
D03*
X1819892D02*
D03*
X2019892Y1244324D02*
D03*
X1819892D02*
D03*
X294630Y1879270D02*
D03*
Y1679270D02*
D03*
X494630Y1879270D02*
D03*
Y1679270D02*
D03*
X675630Y1879270D02*
D03*
Y1679270D02*
D03*
X875630Y1879270D02*
D03*
Y1679270D02*
D03*
X1056630Y1879270D02*
D03*
Y1679270D02*
D03*
X1256630Y1879270D02*
D03*
Y1679270D02*
D03*
X1437630Y1879270D02*
D03*
Y1679270D02*
D03*
X1637630Y1879270D02*
D03*
Y1679270D02*
D03*
X1818630Y1879270D02*
D03*
Y1679270D02*
D03*
X2018630Y1879270D02*
D03*
Y1679270D02*
D03*
D75*
X360078Y1339142D02*
D03*
X741078D02*
D03*
X1122078D02*
D03*
X1503078D02*
D03*
X1884078D02*
D03*
D76*
X432078D02*
D03*
X813078D02*
D03*
X1194078D02*
D03*
X1575078D02*
D03*
X1956078D02*
D03*
D77*
X267946Y1036018D02*
D03*
X267892Y1047177D02*
D03*
X256892D02*
D03*
X246430D02*
D03*
X256946Y1036018D02*
D03*
X246484Y1035979D02*
D03*
X421420Y1131522D02*
D03*
X420782Y1115014D02*
D03*
X405627Y1131522D02*
D03*
X405730Y1115014D02*
D03*
X466427Y1198542D02*
D03*
X344461Y1008324D02*
D03*
X383757Y1123724D02*
D03*
X466936Y1186321D02*
D03*
X359226Y1123724D02*
D03*
X454265Y1186700D02*
D03*
X383757Y1111367D02*
D03*
X371258Y1123724D02*
D03*
X454265Y1198682D02*
D03*
X648946Y1036018D02*
D03*
X648892Y1047177D02*
D03*
X637892D02*
D03*
X627430D02*
D03*
X637946Y1036018D02*
D03*
X627484Y1035979D02*
D03*
X802420Y1131522D02*
D03*
X801782Y1115014D02*
D03*
X786627Y1131522D02*
D03*
X786730Y1115014D02*
D03*
X847427Y1198542D02*
D03*
X725461Y1008324D02*
D03*
X764757Y1123724D02*
D03*
X847935Y1186321D02*
D03*
X740226Y1123724D02*
D03*
X835265Y1186700D02*
D03*
X764757Y1111367D02*
D03*
X752258Y1123724D02*
D03*
X835265Y1198682D02*
D03*
X1029946Y1036018D02*
D03*
X1029892Y1047177D02*
D03*
X1018892D02*
D03*
X1008429D02*
D03*
X1018946Y1036018D02*
D03*
X1008484Y1035979D02*
D03*
X1183420Y1131522D02*
D03*
X1182782Y1115014D02*
D03*
X1167627Y1131522D02*
D03*
X1167730Y1115014D02*
D03*
X1228427Y1198542D02*
D03*
X1106461Y1008324D02*
D03*
X1145757Y1123724D02*
D03*
X1228935Y1186321D02*
D03*
X1121226Y1123724D02*
D03*
X1216265Y1186700D02*
D03*
X1145757Y1111367D02*
D03*
X1133258Y1123724D02*
D03*
X1216265Y1198682D02*
D03*
X1410946Y1036018D02*
D03*
X1410892Y1047177D02*
D03*
X1399892D02*
D03*
X1389429D02*
D03*
X1399946Y1036018D02*
D03*
X1389484Y1035979D02*
D03*
X1564420Y1131522D02*
D03*
X1563782Y1115014D02*
D03*
X1548627Y1131522D02*
D03*
X1548730Y1115014D02*
D03*
X1609427Y1198542D02*
D03*
X1487461Y1008324D02*
D03*
X1526757Y1123724D02*
D03*
X1609935Y1186321D02*
D03*
X1502226Y1123724D02*
D03*
X1597265Y1186700D02*
D03*
X1526757Y1111367D02*
D03*
X1514258Y1123724D02*
D03*
X1597265Y1198682D02*
D03*
X1791946Y1036018D02*
D03*
X1791892Y1047177D02*
D03*
X1780892D02*
D03*
X1770430D02*
D03*
X1780946Y1036018D02*
D03*
X1770484Y1035979D02*
D03*
X1945420Y1131522D02*
D03*
X1944782Y1115014D02*
D03*
X1929627Y1131522D02*
D03*
X1929730Y1115014D02*
D03*
X1990427Y1198542D02*
D03*
X1868461Y1008324D02*
D03*
X1907757Y1123724D02*
D03*
X1990936Y1186321D02*
D03*
X1883226Y1123724D02*
D03*
X1978265Y1186700D02*
D03*
X1907757Y1111367D02*
D03*
X1895258Y1123724D02*
D03*
X1978265Y1198682D02*
D03*
D78*
X340653Y1058975D02*
D03*
X721653D02*
D03*
X1102653D02*
D03*
X1483653D02*
D03*
X1864653D02*
D03*
M02*
