G04*
G04 #@! TF.GenerationSoftware,Altium Limited,Altium Designer,26.3.0 (6)*
G04*
G04 Layer_Color=32768*
%FSLAX44Y44*%
%MOMM*%
G71*
G04*
G04 #@! TF.SameCoordinates,F0C73554-34DE-494A-A34D-94DED9C52F24*
G04*
G04*
G04 #@! TF.FilePolarity,Positive*
G04*
G01*
G75*
%ADD23C,0.2540*%
%ADD50C,0.2000*%
%ADD52C,0.1524*%
%ADD79C,0.1000*%
%ADD81C,0.0500*%
G36*
X1835200Y2379345D02*
X1863426D01*
Y2306193D01*
X1835200D01*
Y2296240D01*
X1818500D01*
Y2306193D01*
X1790274D01*
Y2379345D01*
X1818500D01*
Y2389298D01*
X1835200D01*
Y2379345D01*
D02*
G37*
G36*
X1454200D02*
X1482426D01*
Y2306193D01*
X1454200D01*
Y2296240D01*
X1437500D01*
Y2306193D01*
X1409274D01*
Y2379345D01*
X1437500D01*
Y2389298D01*
X1454200D01*
Y2379345D01*
D02*
G37*
G36*
X1073200D02*
X1101426D01*
Y2306193D01*
X1073200D01*
Y2296240D01*
X1056500D01*
Y2306193D01*
X1028274D01*
Y2379345D01*
X1056500D01*
Y2389298D01*
X1073200D01*
Y2379345D01*
D02*
G37*
G36*
X692200D02*
X720426D01*
Y2306193D01*
X692200D01*
Y2296240D01*
X675500D01*
Y2306193D01*
X647274D01*
Y2379345D01*
X675500D01*
Y2389298D01*
X692200D01*
Y2379345D01*
D02*
G37*
G36*
X311200D02*
X339426D01*
Y2306193D01*
X311200D01*
Y2296240D01*
X294500D01*
Y2306193D01*
X266274D01*
Y2379345D01*
X294500D01*
Y2389298D01*
X311200D01*
Y2379345D01*
D02*
G37*
G36*
X1840280Y1823791D02*
X1868506D01*
Y1750639D01*
X1840280D01*
Y1740686D01*
X1823580D01*
Y1750639D01*
X1795354D01*
Y1823791D01*
X1823580D01*
Y1833744D01*
X1840280D01*
Y1823791D01*
D02*
G37*
G36*
X1459280D02*
X1487506D01*
Y1750639D01*
X1459280D01*
Y1740686D01*
X1442580D01*
Y1750639D01*
X1414354D01*
Y1823791D01*
X1442580D01*
Y1833744D01*
X1459280D01*
Y1823791D01*
D02*
G37*
G36*
X1078280D02*
X1106506D01*
Y1750639D01*
X1078280D01*
Y1740686D01*
X1061580D01*
Y1750639D01*
X1033354D01*
Y1823791D01*
X1061580D01*
Y1833744D01*
X1078280D01*
Y1823791D01*
D02*
G37*
G36*
X697280D02*
X725506D01*
Y1750639D01*
X697280D01*
Y1740686D01*
X680580D01*
Y1750639D01*
X652354D01*
Y1823791D01*
X680580D01*
Y1833744D01*
X697280D01*
Y1823791D01*
D02*
G37*
G36*
X316280D02*
X344506D01*
Y1750639D01*
X316280D01*
Y1740686D01*
X299580D01*
Y1750639D01*
X271354D01*
Y1823791D01*
X299580D01*
Y1833744D01*
X316280D01*
Y1823791D01*
D02*
G37*
D23*
X358140Y2443104D02*
X417830D01*
X358140D02*
Y2471044D01*
X417830D01*
Y2443104D02*
Y2471044D01*
X739140Y2443104D02*
X798830D01*
X739140D02*
Y2471044D01*
X798830D01*
Y2443104D02*
Y2471044D01*
X1120140Y2443104D02*
X1179830D01*
X1120140D02*
Y2471044D01*
X1179830D01*
Y2443104D02*
Y2471044D01*
X1501140Y2443104D02*
X1560830D01*
X1501140D02*
Y2471044D01*
X1560830D01*
Y2443104D02*
Y2471044D01*
X1882140Y2443104D02*
X1941830D01*
X1882140D02*
Y2471044D01*
X1941830D01*
Y2443104D02*
Y2471044D01*
X513122Y1071486D02*
X541063D01*
Y1131176D01*
X513122D02*
X541063D01*
X513122Y1071486D02*
Y1131176D01*
X248677Y1162770D02*
X276617D01*
Y1222460D01*
X248677D02*
X276617D01*
X248677Y1162770D02*
Y1222460D01*
X516162Y1162011D02*
X544102D01*
Y1221701D01*
X516162D02*
X544102D01*
X516162Y1162011D02*
Y1221701D01*
X250216Y1081587D02*
X278156D01*
Y1141277D01*
X250216D02*
X278156D01*
X250216Y1081587D02*
Y1141277D01*
X894122Y1071486D02*
X922063D01*
Y1131176D01*
X894122D02*
X922063D01*
X894122Y1071486D02*
Y1131176D01*
X629677Y1162770D02*
X657617D01*
Y1222460D01*
X629677D02*
X657617D01*
X629677Y1162770D02*
Y1222460D01*
X897162Y1162011D02*
X925102D01*
Y1221701D01*
X897162D02*
X925102D01*
X897162Y1162011D02*
Y1221701D01*
X631216Y1081587D02*
X659156D01*
Y1141277D01*
X631216D02*
X659156D01*
X631216Y1081587D02*
Y1141277D01*
X1275123Y1071486D02*
X1303062D01*
Y1131176D01*
X1275123D02*
X1303062D01*
X1275123Y1071486D02*
Y1131176D01*
X1010677Y1162770D02*
X1038617D01*
Y1222460D01*
X1010677D02*
X1038617D01*
X1010677Y1162770D02*
Y1222460D01*
X1278162Y1162011D02*
X1306102D01*
Y1221701D01*
X1278162D02*
X1306102D01*
X1278162Y1162011D02*
Y1221701D01*
X1012216Y1081587D02*
X1040156D01*
Y1141277D01*
X1012216D02*
X1040156D01*
X1012216Y1081587D02*
Y1141277D01*
X1656122Y1071486D02*
X1684062D01*
Y1131176D01*
X1656122D02*
X1684062D01*
X1656122Y1071486D02*
Y1131176D01*
X1391677Y1162770D02*
X1419617D01*
Y1222460D01*
X1391677D02*
X1419617D01*
X1391677Y1162770D02*
Y1222460D01*
X1659162Y1162011D02*
X1687102D01*
Y1221701D01*
X1659162D02*
X1687102D01*
X1659162Y1162011D02*
Y1221701D01*
X1393216Y1081587D02*
X1421156D01*
Y1141277D01*
X1393216D02*
X1421156D01*
X1393216Y1081587D02*
Y1141277D01*
X2037122Y1071486D02*
X2065063D01*
Y1131176D01*
X2037122D02*
X2065063D01*
X2037122Y1071486D02*
Y1131176D01*
X1772677Y1162770D02*
X1800617D01*
Y1222460D01*
X1772677D02*
X1800617D01*
X1772677Y1162770D02*
Y1222460D01*
X2040162Y1162011D02*
X2068102D01*
Y1221701D01*
X2040162D02*
X2068102D01*
X2040162Y1162011D02*
Y1221701D01*
X1774216Y1081587D02*
X1802156D01*
Y1141277D01*
X1774216D02*
X1802156D01*
X1774216Y1081587D02*
Y1141277D01*
X363220Y1887550D02*
X422910D01*
X363220D02*
Y1915490D01*
X422910D01*
Y1887550D02*
Y1915490D01*
X744220Y1887550D02*
X803910D01*
X744220D02*
Y1915490D01*
X803910D01*
Y1887550D02*
Y1915490D01*
X1125220Y1887550D02*
X1184910D01*
X1125220D02*
Y1915490D01*
X1184910D01*
Y1887550D02*
Y1915490D01*
X1506220Y1887550D02*
X1565910D01*
X1506220D02*
Y1915490D01*
X1565910D01*
Y1887550D02*
Y1915490D01*
X1887220Y1887550D02*
X1946910D01*
X1887220D02*
Y1915490D01*
X1946910D01*
Y1887550D02*
Y1915490D01*
D50*
X348100Y2262584D02*
Y2316084D01*
Y2262584D02*
X429600D01*
Y2316084D01*
X348100D02*
X429600D01*
X729100Y2262584D02*
Y2316084D01*
Y2262584D02*
X810600D01*
Y2316084D01*
X729100D02*
X810600D01*
X1110100Y2262584D02*
Y2316084D01*
Y2262584D02*
X1191600D01*
Y2316084D01*
X1110100D02*
X1191600D01*
X1491100Y2262584D02*
Y2316084D01*
Y2262584D02*
X1572600D01*
Y2316084D01*
X1491100D02*
X1572600D01*
X1872100Y2262584D02*
Y2316084D01*
Y2262584D02*
X1953600D01*
Y2316084D01*
X1872100D02*
X1953600D01*
X279078Y1199108D02*
X352078D01*
X279078Y1112108D02*
Y1199108D01*
Y1112108D02*
X352078D01*
Y1199108D01*
X351158Y1103074D02*
X432658D01*
Y1049574D02*
Y1103074D01*
X351158Y1049574D02*
X432658D01*
X351158D02*
Y1103074D01*
X660078Y1199108D02*
X733078D01*
X660078Y1112108D02*
Y1199108D01*
Y1112108D02*
X733078D01*
Y1199108D01*
X732158Y1103074D02*
X813658D01*
Y1049574D02*
Y1103074D01*
X732158Y1049574D02*
X813658D01*
X732158D02*
Y1103074D01*
X1041078Y1199108D02*
X1114078D01*
X1041078Y1112108D02*
Y1199108D01*
Y1112108D02*
X1114078D01*
Y1199108D01*
X1113158Y1103074D02*
X1194658D01*
Y1049574D02*
Y1103074D01*
X1113158Y1049574D02*
X1194658D01*
X1113158D02*
Y1103074D01*
X1422078Y1199108D02*
X1495078D01*
X1422078Y1112108D02*
Y1199108D01*
Y1112108D02*
X1495078D01*
Y1199108D01*
X1494158Y1103074D02*
X1575658D01*
Y1049574D02*
Y1103074D01*
X1494158Y1049574D02*
X1575658D01*
X1494158D02*
Y1103074D01*
X1803078Y1199108D02*
X1876078D01*
X1803078Y1112108D02*
Y1199108D01*
Y1112108D02*
X1876078D01*
Y1199108D01*
X1875158Y1103074D02*
X1956658D01*
Y1049574D02*
Y1103074D01*
X1875158Y1049574D02*
X1956658D01*
X1875158D02*
Y1103074D01*
X353180Y1707030D02*
Y1760530D01*
Y1707030D02*
X434680D01*
Y1760530D01*
X353180D02*
X434680D01*
X734180Y1707030D02*
Y1760530D01*
Y1707030D02*
X815680D01*
Y1760530D01*
X734180D02*
X815680D01*
X1115180Y1707030D02*
Y1760530D01*
Y1707030D02*
X1196680D01*
Y1760530D01*
X1115180D02*
X1196680D01*
X1496180Y1707030D02*
Y1760530D01*
Y1707030D02*
X1577680D01*
Y1760530D01*
X1496180D02*
X1577680D01*
X1877180Y1707030D02*
Y1760530D01*
Y1707030D02*
X1958680D01*
Y1760530D01*
X1877180D02*
X1958680D01*
D52*
X339426Y2306193D02*
Y2379345D01*
X311200D02*
X339426D01*
X266274D02*
X294500D01*
X266274Y2306193D02*
Y2379345D01*
Y2306193D02*
X294500D01*
X311200D02*
X339426D01*
X311200Y2296240D02*
Y2306193D01*
Y2379345D02*
Y2389298D01*
X294500D02*
X311200D01*
X294500Y2379345D02*
Y2389298D01*
Y2296240D02*
Y2306193D01*
Y2296240D02*
X311200D01*
X720426Y2306193D02*
Y2379345D01*
X692200D02*
X720426D01*
X647274D02*
X675500D01*
X647274Y2306193D02*
Y2379345D01*
Y2306193D02*
X675500D01*
X692200D02*
X720426D01*
X692200Y2296240D02*
Y2306193D01*
Y2379345D02*
Y2389298D01*
X675500D02*
X692200D01*
X675500Y2379345D02*
Y2389298D01*
Y2296240D02*
Y2306193D01*
Y2296240D02*
X692200D01*
X1101426Y2306193D02*
Y2379345D01*
X1073200D02*
X1101426D01*
X1028274D02*
X1056500D01*
X1028274Y2306193D02*
Y2379345D01*
Y2306193D02*
X1056500D01*
X1073200D02*
X1101426D01*
X1073200Y2296240D02*
Y2306193D01*
Y2379345D02*
Y2389298D01*
X1056500D02*
X1073200D01*
X1056500Y2379345D02*
Y2389298D01*
Y2296240D02*
Y2306193D01*
Y2296240D02*
X1073200D01*
X1482426Y2306193D02*
Y2379345D01*
X1454200D02*
X1482426D01*
X1409274D02*
X1437500D01*
X1409274Y2306193D02*
Y2379345D01*
Y2306193D02*
X1437500D01*
X1454200D02*
X1482426D01*
X1454200Y2296240D02*
Y2306193D01*
Y2379345D02*
Y2389298D01*
X1437500D02*
X1454200D01*
X1437500Y2379345D02*
Y2389298D01*
Y2296240D02*
Y2306193D01*
Y2296240D02*
X1454200D01*
X1863426Y2306193D02*
Y2379345D01*
X1835200D02*
X1863426D01*
X1790274D02*
X1818500D01*
X1790274Y2306193D02*
Y2379345D01*
Y2306193D02*
X1818500D01*
X1835200D02*
X1863426D01*
X1835200Y2296240D02*
Y2306193D01*
Y2379345D02*
Y2389298D01*
X1818500D02*
X1835200D01*
X1818500Y2379345D02*
Y2389298D01*
Y2296240D02*
Y2306193D01*
Y2296240D02*
X1835200D01*
X344506Y1750639D02*
Y1823791D01*
X316280D02*
X344506D01*
X271354D02*
X299580D01*
X271354Y1750639D02*
Y1823791D01*
Y1750639D02*
X299580D01*
X316280D02*
X344506D01*
X316280Y1740686D02*
Y1750639D01*
Y1823791D02*
Y1833744D01*
X299580D02*
X316280D01*
X299580Y1823791D02*
Y1833744D01*
Y1740686D02*
Y1750639D01*
Y1740686D02*
X316280D01*
X725506Y1750639D02*
Y1823791D01*
X697280D02*
X725506D01*
X652354D02*
X680580D01*
X652354Y1750639D02*
Y1823791D01*
Y1750639D02*
X680580D01*
X697280D02*
X725506D01*
X697280Y1740686D02*
Y1750639D01*
Y1823791D02*
Y1833744D01*
X680580D02*
X697280D01*
X680580Y1823791D02*
Y1833744D01*
Y1740686D02*
Y1750639D01*
Y1740686D02*
X697280D01*
X1106506Y1750639D02*
Y1823791D01*
X1078280D02*
X1106506D01*
X1033354D02*
X1061580D01*
X1033354Y1750639D02*
Y1823791D01*
Y1750639D02*
X1061580D01*
X1078280D02*
X1106506D01*
X1078280Y1740686D02*
Y1750639D01*
Y1823791D02*
Y1833744D01*
X1061580D02*
X1078280D01*
X1061580Y1823791D02*
Y1833744D01*
Y1740686D02*
Y1750639D01*
Y1740686D02*
X1078280D01*
X1487506Y1750639D02*
Y1823791D01*
X1459280D02*
X1487506D01*
X1414354D02*
X1442580D01*
X1414354Y1750639D02*
Y1823791D01*
Y1750639D02*
X1442580D01*
X1459280D02*
X1487506D01*
X1459280Y1740686D02*
Y1750639D01*
Y1823791D02*
Y1833744D01*
X1442580D02*
X1459280D01*
X1442580Y1823791D02*
Y1833744D01*
Y1740686D02*
Y1750639D01*
Y1740686D02*
X1459280D01*
X1868506Y1750639D02*
Y1823791D01*
X1840280D02*
X1868506D01*
X1795354D02*
X1823580D01*
X1795354Y1750639D02*
Y1823791D01*
Y1750639D02*
X1823580D01*
X1840280D02*
X1868506D01*
X1840280Y1740686D02*
Y1750639D01*
Y1823791D02*
Y1833744D01*
X1823580D02*
X1840280D01*
X1823580Y1823791D02*
Y1833744D01*
Y1740686D02*
Y1750639D01*
Y1740686D02*
X1840280D01*
D79*
X454720Y2284851D02*
X460220D01*
X457470Y2282101D02*
Y2287601D01*
X489710Y2284707D02*
Y2290207D01*
X486960Y2287457D02*
X492460D01*
X503830Y2284707D02*
Y2290207D01*
X501080Y2287457D02*
X506580D01*
X471951Y2347734D02*
Y2357734D01*
X466951Y2352734D02*
X476951D01*
X361170Y2324704D02*
Y2360544D01*
X424010Y2324704D02*
Y2360544D01*
X361170Y2324704D02*
X424010D01*
X361170Y2360544D02*
X424010D01*
X422161Y2384164D02*
Y2394164D01*
X417161Y2389164D02*
X427161D01*
X835720Y2284851D02*
X841220D01*
X838470Y2282101D02*
Y2287601D01*
X870710Y2284707D02*
Y2290207D01*
X867960Y2287457D02*
X873460D01*
X884830Y2284707D02*
Y2290207D01*
X882080Y2287457D02*
X887580D01*
X852952Y2347734D02*
Y2357734D01*
X847952Y2352734D02*
X857951D01*
X742170Y2324704D02*
Y2360544D01*
X805010Y2324704D02*
Y2360544D01*
X742170Y2324704D02*
X805010D01*
X742170Y2360544D02*
X805010D01*
X803161Y2384164D02*
Y2394164D01*
X798161Y2389164D02*
X808161D01*
X1216720Y2284851D02*
X1222220D01*
X1219470Y2282101D02*
Y2287601D01*
X1251710Y2284707D02*
Y2290207D01*
X1248960Y2287457D02*
X1254460D01*
X1265830Y2284707D02*
Y2290207D01*
X1263080Y2287457D02*
X1268580D01*
X1233951Y2347734D02*
Y2357734D01*
X1228951Y2352734D02*
X1238951D01*
X1123170Y2324704D02*
Y2360544D01*
X1186010Y2324704D02*
Y2360544D01*
X1123170Y2324704D02*
X1186010D01*
X1123170Y2360544D02*
X1186010D01*
X1184161Y2384164D02*
Y2394164D01*
X1179161Y2389164D02*
X1189161D01*
X1597720Y2284851D02*
X1603220D01*
X1600470Y2282101D02*
Y2287601D01*
X1632710Y2284707D02*
Y2290207D01*
X1629960Y2287457D02*
X1635460D01*
X1646830Y2284707D02*
Y2290207D01*
X1644080Y2287457D02*
X1649580D01*
X1614951Y2347734D02*
Y2357734D01*
X1609951Y2352734D02*
X1619951D01*
X1504170Y2324704D02*
Y2360544D01*
X1567010Y2324704D02*
Y2360544D01*
X1504170Y2324704D02*
X1567010D01*
X1504170Y2360544D02*
X1567010D01*
X1565161Y2384164D02*
Y2394164D01*
X1560161Y2389164D02*
X1570161D01*
X1978720Y2284851D02*
X1984220D01*
X1981470Y2282101D02*
Y2287601D01*
X2013710Y2284707D02*
Y2290207D01*
X2010960Y2287457D02*
X2016460D01*
X2027830Y2284707D02*
Y2290207D01*
X2025080Y2287457D02*
X2030580D01*
X1995952Y2347734D02*
Y2357734D01*
X1990952Y2352734D02*
X2000951D01*
X1885170Y2324704D02*
Y2360544D01*
X1948010Y2324704D02*
Y2360544D01*
X1885170Y2324704D02*
X1948010D01*
X1885170Y2360544D02*
X1948010D01*
X1946161Y2384164D02*
Y2394164D01*
X1941161Y2389164D02*
X1951161D01*
X439892Y1052704D02*
X445392D01*
X442642Y1049954D02*
Y1055454D01*
X400416Y1226324D02*
Y1236324D01*
X395416Y1231324D02*
X405416D01*
X364738Y1158294D02*
X374738D01*
X369738Y1153294D02*
Y1163294D01*
X437754Y1109804D02*
X473594D01*
X437754Y1172644D02*
X473594D01*
Y1109804D02*
Y1172644D01*
X437754Y1109804D02*
Y1172644D01*
X461485Y1049954D02*
Y1055454D01*
X458735Y1052704D02*
X464235D01*
X461316Y1068574D02*
Y1074074D01*
X458566Y1071324D02*
X464066D01*
X820892Y1052704D02*
X826392D01*
X823642Y1049954D02*
Y1055454D01*
X781416Y1226324D02*
Y1236324D01*
X776416Y1231324D02*
X786416D01*
X745738Y1158294D02*
X755738D01*
X750738Y1153294D02*
Y1163294D01*
X818754Y1109804D02*
X854594D01*
X818754Y1172644D02*
X854594D01*
Y1109804D02*
Y1172644D01*
X818754Y1109804D02*
Y1172644D01*
X842485Y1049954D02*
Y1055454D01*
X839735Y1052704D02*
X845235D01*
X842317Y1068574D02*
Y1074074D01*
X839566Y1071324D02*
X845066D01*
X1201892Y1052704D02*
X1207392D01*
X1204642Y1049954D02*
Y1055454D01*
X1162416Y1226324D02*
Y1236324D01*
X1157416Y1231324D02*
X1167416D01*
X1126738Y1158294D02*
X1136738D01*
X1131738Y1153294D02*
Y1163294D01*
X1199754Y1109804D02*
X1235594D01*
X1199754Y1172644D02*
X1235594D01*
Y1109804D02*
Y1172644D01*
X1199754Y1109804D02*
Y1172644D01*
X1223485Y1049954D02*
Y1055454D01*
X1220735Y1052704D02*
X1226235D01*
X1223316Y1068574D02*
Y1074074D01*
X1220566Y1071324D02*
X1226066D01*
X1582892Y1052704D02*
X1588392D01*
X1585642Y1049954D02*
Y1055454D01*
X1543416Y1226324D02*
Y1236324D01*
X1538416Y1231324D02*
X1548416D01*
X1507738Y1158294D02*
X1517738D01*
X1512738Y1153294D02*
Y1163294D01*
X1580754Y1109804D02*
X1616594D01*
X1580754Y1172644D02*
X1616594D01*
Y1109804D02*
Y1172644D01*
X1580754Y1109804D02*
Y1172644D01*
X1604485Y1049954D02*
Y1055454D01*
X1601735Y1052704D02*
X1607235D01*
X1604317Y1068574D02*
Y1074074D01*
X1601566Y1071324D02*
X1607066D01*
X1963892Y1052704D02*
X1969392D01*
X1966642Y1049954D02*
Y1055454D01*
X1924416Y1226324D02*
Y1236324D01*
X1919416Y1231324D02*
X1929416D01*
X1888738Y1158294D02*
X1898738D01*
X1893738Y1153294D02*
Y1163294D01*
X1961754Y1109804D02*
X1997594D01*
X1961754Y1172644D02*
X1997594D01*
Y1109804D02*
Y1172644D01*
X1961754Y1109804D02*
Y1172644D01*
X1985485Y1049954D02*
Y1055454D01*
X1982735Y1052704D02*
X1988235D01*
X1985316Y1068574D02*
Y1074074D01*
X1982566Y1071324D02*
X1988066D01*
X459800Y1729297D02*
X465300D01*
X462550Y1726547D02*
Y1732047D01*
X494790Y1729153D02*
Y1734653D01*
X492040Y1731903D02*
X497540D01*
X508910Y1729153D02*
Y1734653D01*
X506160Y1731903D02*
X511660D01*
X477032Y1792180D02*
Y1802180D01*
X472032Y1797180D02*
X482031D01*
X366250Y1769150D02*
Y1804990D01*
X429090Y1769150D02*
Y1804990D01*
X366250Y1769150D02*
X429090D01*
X366250Y1804990D02*
X429090D01*
X427241Y1828610D02*
Y1838610D01*
X422241Y1833610D02*
X432241D01*
X840800Y1729297D02*
X846300D01*
X843550Y1726547D02*
Y1732047D01*
X875790Y1729153D02*
Y1734653D01*
X873040Y1731903D02*
X878540D01*
X889910Y1729153D02*
Y1734653D01*
X887160Y1731903D02*
X892660D01*
X858031Y1792180D02*
Y1802180D01*
X853031Y1797180D02*
X863031D01*
X747250Y1769150D02*
Y1804990D01*
X810090Y1769150D02*
Y1804990D01*
X747250Y1769150D02*
X810090D01*
X747250Y1804990D02*
X810090D01*
X808241Y1828610D02*
Y1838610D01*
X803241Y1833610D02*
X813241D01*
X1221800Y1729297D02*
X1227300D01*
X1224550Y1726547D02*
Y1732047D01*
X1256790Y1729153D02*
Y1734653D01*
X1254040Y1731903D02*
X1259540D01*
X1270910Y1729153D02*
Y1734653D01*
X1268160Y1731903D02*
X1273660D01*
X1239032Y1792180D02*
Y1802180D01*
X1234032Y1797180D02*
X1244031D01*
X1128250Y1769150D02*
Y1804990D01*
X1191090Y1769150D02*
Y1804990D01*
X1128250Y1769150D02*
X1191090D01*
X1128250Y1804990D02*
X1191090D01*
X1189241Y1828610D02*
Y1838610D01*
X1184241Y1833610D02*
X1194241D01*
X1602800Y1729297D02*
X1608300D01*
X1605550Y1726547D02*
Y1732047D01*
X1637790Y1729153D02*
Y1734653D01*
X1635040Y1731903D02*
X1640540D01*
X1651910Y1729153D02*
Y1734653D01*
X1649160Y1731903D02*
X1654660D01*
X1620031Y1792180D02*
Y1802180D01*
X1615031Y1797180D02*
X1625031D01*
X1509250Y1769150D02*
Y1804990D01*
X1572090Y1769150D02*
Y1804990D01*
X1509250Y1769150D02*
X1572090D01*
X1509250Y1804990D02*
X1572090D01*
X1570241Y1828610D02*
Y1838610D01*
X1565241Y1833610D02*
X1575241D01*
X1983800Y1729297D02*
X1989300D01*
X1986550Y1726547D02*
Y1732047D01*
X2018790Y1729153D02*
Y1734653D01*
X2016040Y1731903D02*
X2021540D01*
X2032910Y1729153D02*
Y1734653D01*
X2030160Y1731903D02*
X2035660D01*
X2001031Y1792180D02*
Y1802180D01*
X1996031Y1797180D02*
X2006031D01*
X1890250Y1769150D02*
Y1804990D01*
X1953090Y1769150D02*
Y1804990D01*
X1890250Y1769150D02*
X1953090D01*
X1890250Y1804990D02*
X1953090D01*
X1951241Y1828610D02*
Y1838610D01*
X1946241Y1833610D02*
X1956241D01*
D81*
X357509Y2240004D02*
Y2257004D01*
X387509Y2240004D02*
Y2257004D01*
X367509Y2248504D02*
X377509D01*
X372509Y2243504D02*
Y2253504D01*
X357509Y2240004D02*
X387509D01*
X357509Y2257004D02*
X387509D01*
X332726Y2257204D02*
X349726D01*
X332726Y2227204D02*
X349726D01*
X341226Y2237204D02*
Y2247204D01*
X336226Y2242204D02*
X346226D01*
X332726Y2227204D02*
Y2257204D01*
X349726Y2227204D02*
Y2257204D01*
X320455Y2292598D02*
X337455D01*
X320455Y2262598D02*
X337455D01*
X328955Y2272598D02*
Y2282598D01*
X323955Y2277598D02*
X333955D01*
X320455Y2262598D02*
Y2292598D01*
X337455Y2262598D02*
Y2292598D01*
X236564Y2292598D02*
X253564D01*
X236564Y2262598D02*
X253564D01*
Y2292598D01*
X236564Y2262598D02*
Y2292598D01*
X245064Y2272598D02*
Y2282598D01*
X240064Y2277598D02*
X250064D01*
X257184Y2292598D02*
X274184D01*
X257184Y2262598D02*
X274184D01*
Y2292598D01*
X257184Y2262598D02*
Y2292598D01*
X265684Y2272598D02*
Y2282598D01*
X260684Y2277598D02*
X270684D01*
X298435Y2292598D02*
X315435D01*
X298435Y2262598D02*
X315435D01*
Y2292598D01*
X298435Y2262598D02*
Y2292598D01*
X306935Y2272598D02*
Y2282598D01*
X301935Y2277598D02*
X311935D01*
X277804Y2292598D02*
X294804D01*
X277804Y2262598D02*
X294804D01*
Y2292598D01*
X277804Y2262598D02*
Y2292598D01*
X286304Y2272598D02*
Y2282598D01*
X281304Y2277598D02*
X291304D01*
X343724Y2316164D02*
X360724D01*
X343724Y2346164D02*
X360724D01*
X343724Y2316164D02*
Y2346164D01*
X360724Y2316164D02*
Y2346164D01*
X352224Y2326164D02*
Y2336164D01*
X347224Y2331164D02*
X357224D01*
X467970Y2279351D02*
Y2290351D01*
X446970Y2279351D02*
Y2290351D01*
Y2279351D02*
X467970D01*
X446970Y2290351D02*
X467970D01*
X484210Y2297957D02*
X495210D01*
X484210Y2276957D02*
X495210D01*
Y2297957D01*
X484210Y2276957D02*
Y2297957D01*
X498330Y2276957D02*
X509330D01*
X498330Y2297957D02*
X509330D01*
X498330Y2276957D02*
Y2297957D01*
X509330Y2276957D02*
Y2297957D01*
X436951Y2311734D02*
X506951D01*
X436951Y2393734D02*
X506951D01*
Y2311734D02*
Y2393734D01*
X436951Y2311734D02*
Y2393734D01*
X280850Y2153524D02*
X493850D01*
Y1877524D02*
Y2153524D01*
X280850Y1877524D02*
X493850D01*
X280850D02*
Y2153524D01*
X473340Y2289288D02*
X478840D01*
X476090Y2286538D02*
Y2292038D01*
X471590Y2298288D02*
X480590D01*
X471590Y2280288D02*
X480590D01*
Y2298288D01*
X471590Y2280288D02*
Y2298288D01*
X436100Y2289445D02*
X441600D01*
X438850Y2286695D02*
Y2292195D01*
X434350Y2298445D02*
X443350D01*
X434350Y2280445D02*
X443350D01*
Y2298445D01*
X434350Y2280445D02*
Y2298445D01*
X390581Y2369337D02*
X407581D01*
X390581Y2399337D02*
X407581D01*
X390581Y2369337D02*
Y2399337D01*
X407581Y2369337D02*
Y2399337D01*
X399081Y2379337D02*
Y2389337D01*
X394081Y2384337D02*
X404081D01*
X369962Y2369337D02*
X386962D01*
X369962Y2399337D02*
X386962D01*
X369962Y2369337D02*
Y2399337D01*
X386962Y2369337D02*
Y2399337D01*
X378461Y2379337D02*
Y2389337D01*
X373461Y2384337D02*
X383461D01*
X410661Y2366164D02*
X433661D01*
X410661Y2412164D02*
X433661D01*
X410661Y2366164D02*
Y2412164D01*
X433661Y2366164D02*
Y2412164D01*
X738509Y2240004D02*
Y2257004D01*
X768509Y2240004D02*
Y2257004D01*
X748509Y2248504D02*
X758509D01*
X753509Y2243504D02*
Y2253504D01*
X738509Y2240004D02*
X768509D01*
X738509Y2257004D02*
X768509D01*
X713726Y2257204D02*
X730726D01*
X713726Y2227204D02*
X730726D01*
X722226Y2237204D02*
Y2247204D01*
X717226Y2242204D02*
X727226D01*
X713726Y2227204D02*
Y2257204D01*
X730726Y2227204D02*
Y2257204D01*
X701455Y2292598D02*
X718455D01*
X701455Y2262598D02*
X718455D01*
X709955Y2272598D02*
Y2282598D01*
X704955Y2277598D02*
X714955D01*
X701455Y2262598D02*
Y2292598D01*
X718455Y2262598D02*
Y2292598D01*
X617564Y2292598D02*
X634564D01*
X617564Y2262598D02*
X634564D01*
Y2292598D01*
X617564Y2262598D02*
Y2292598D01*
X626064Y2272598D02*
Y2282598D01*
X621064Y2277598D02*
X631064D01*
X638184Y2292598D02*
X655184D01*
X638184Y2262598D02*
X655184D01*
Y2292598D01*
X638184Y2262598D02*
Y2292598D01*
X646684Y2272598D02*
Y2282598D01*
X641684Y2277598D02*
X651684D01*
X679435Y2292598D02*
X696435D01*
X679435Y2262598D02*
X696435D01*
Y2292598D01*
X679435Y2262598D02*
Y2292598D01*
X687935Y2272598D02*
Y2282598D01*
X682935Y2277598D02*
X692935D01*
X658804Y2292598D02*
X675804D01*
X658804Y2262598D02*
X675804D01*
Y2292598D01*
X658804Y2262598D02*
Y2292598D01*
X667304Y2272598D02*
Y2282598D01*
X662304Y2277598D02*
X672304D01*
X724724Y2316164D02*
X741724D01*
X724724Y2346164D02*
X741724D01*
X724724Y2316164D02*
Y2346164D01*
X741724Y2316164D02*
Y2346164D01*
X733224Y2326164D02*
Y2336164D01*
X728224Y2331164D02*
X738224D01*
X848970Y2279351D02*
Y2290351D01*
X827970Y2279351D02*
Y2290351D01*
Y2279351D02*
X848970D01*
X827970Y2290351D02*
X848970D01*
X865210Y2297957D02*
X876210D01*
X865210Y2276957D02*
X876210D01*
Y2297957D01*
X865210Y2276957D02*
Y2297957D01*
X879330Y2276957D02*
X890330D01*
X879330Y2297957D02*
X890330D01*
X879330Y2276957D02*
Y2297957D01*
X890330Y2276957D02*
Y2297957D01*
X817952Y2311734D02*
X887952D01*
X817952Y2393734D02*
X887952D01*
Y2311734D02*
Y2393734D01*
X817952Y2311734D02*
Y2393734D01*
X661850Y2153524D02*
X874850D01*
Y1877524D02*
Y2153524D01*
X661850Y1877524D02*
X874850D01*
X661850D02*
Y2153524D01*
X854340Y2289288D02*
X859840D01*
X857090Y2286538D02*
Y2292038D01*
X852590Y2298288D02*
X861590D01*
X852590Y2280288D02*
X861590D01*
Y2298288D01*
X852590Y2280288D02*
Y2298288D01*
X817100Y2289445D02*
X822600D01*
X819850Y2286695D02*
Y2292195D01*
X815350Y2298445D02*
X824350D01*
X815350Y2280445D02*
X824350D01*
Y2298445D01*
X815350Y2280445D02*
Y2298445D01*
X771581Y2369337D02*
X788581D01*
X771581Y2399337D02*
X788581D01*
X771581Y2369337D02*
Y2399337D01*
X788581Y2369337D02*
Y2399337D01*
X780081Y2379337D02*
Y2389337D01*
X775081Y2384337D02*
X785081D01*
X750962Y2369337D02*
X767962D01*
X750962Y2399337D02*
X767962D01*
X750962Y2369337D02*
Y2399337D01*
X767962Y2369337D02*
Y2399337D01*
X759462Y2379337D02*
Y2389337D01*
X754462Y2384337D02*
X764462D01*
X791661Y2366164D02*
X814661D01*
X791661Y2412164D02*
X814661D01*
X791661Y2366164D02*
Y2412164D01*
X814661Y2366164D02*
Y2412164D01*
X1119509Y2240004D02*
Y2257004D01*
X1149509Y2240004D02*
Y2257004D01*
X1129509Y2248504D02*
X1139509D01*
X1134509Y2243504D02*
Y2253504D01*
X1119509Y2240004D02*
X1149509D01*
X1119509Y2257004D02*
X1149509D01*
X1094726Y2257204D02*
X1111726D01*
X1094726Y2227204D02*
X1111726D01*
X1103226Y2237204D02*
Y2247204D01*
X1098226Y2242204D02*
X1108226D01*
X1094726Y2227204D02*
Y2257204D01*
X1111726Y2227204D02*
Y2257204D01*
X1082455Y2292598D02*
X1099455D01*
X1082455Y2262598D02*
X1099455D01*
X1090955Y2272598D02*
Y2282598D01*
X1085955Y2277598D02*
X1095955D01*
X1082455Y2262598D02*
Y2292598D01*
X1099455Y2262598D02*
Y2292598D01*
X998564Y2292598D02*
X1015564D01*
X998564Y2262598D02*
X1015564D01*
Y2292598D01*
X998564Y2262598D02*
Y2292598D01*
X1007064Y2272598D02*
Y2282598D01*
X1002064Y2277598D02*
X1012064D01*
X1019184Y2292598D02*
X1036184D01*
X1019184Y2262598D02*
X1036184D01*
Y2292598D01*
X1019184Y2262598D02*
Y2292598D01*
X1027684Y2272598D02*
Y2282598D01*
X1022684Y2277598D02*
X1032684D01*
X1060435Y2292598D02*
X1077435D01*
X1060435Y2262598D02*
X1077435D01*
Y2292598D01*
X1060435Y2262598D02*
Y2292598D01*
X1068935Y2272598D02*
Y2282598D01*
X1063935Y2277598D02*
X1073935D01*
X1039804Y2292598D02*
X1056804D01*
X1039804Y2262598D02*
X1056804D01*
Y2292598D01*
X1039804Y2262598D02*
Y2292598D01*
X1048304Y2272598D02*
Y2282598D01*
X1043304Y2277598D02*
X1053304D01*
X1105724Y2316164D02*
X1122724D01*
X1105724Y2346164D02*
X1122724D01*
X1105724Y2316164D02*
Y2346164D01*
X1122724Y2316164D02*
Y2346164D01*
X1114224Y2326164D02*
Y2336164D01*
X1109224Y2331164D02*
X1119224D01*
X1229970Y2279351D02*
Y2290351D01*
X1208970Y2279351D02*
Y2290351D01*
Y2279351D02*
X1229970D01*
X1208970Y2290351D02*
X1229970D01*
X1246210Y2297957D02*
X1257210D01*
X1246210Y2276957D02*
X1257210D01*
Y2297957D01*
X1246210Y2276957D02*
Y2297957D01*
X1260330Y2276957D02*
X1271330D01*
X1260330Y2297957D02*
X1271330D01*
X1260330Y2276957D02*
Y2297957D01*
X1271330Y2276957D02*
Y2297957D01*
X1198951Y2311734D02*
X1268951D01*
X1198951Y2393734D02*
X1268951D01*
Y2311734D02*
Y2393734D01*
X1198951Y2311734D02*
Y2393734D01*
X1042850Y2153524D02*
X1255850D01*
Y1877524D02*
Y2153524D01*
X1042850Y1877524D02*
X1255850D01*
X1042850D02*
Y2153524D01*
X1235340Y2289288D02*
X1240840D01*
X1238090Y2286538D02*
Y2292038D01*
X1233590Y2298288D02*
X1242590D01*
X1233590Y2280288D02*
X1242590D01*
Y2298288D01*
X1233590Y2280288D02*
Y2298288D01*
X1198100Y2289445D02*
X1203600D01*
X1200850Y2286695D02*
Y2292195D01*
X1196350Y2298445D02*
X1205350D01*
X1196350Y2280445D02*
X1205350D01*
Y2298445D01*
X1196350Y2280445D02*
Y2298445D01*
X1152581Y2369337D02*
X1169582D01*
X1152581Y2399337D02*
X1169582D01*
X1152581Y2369337D02*
Y2399337D01*
X1169582Y2369337D02*
Y2399337D01*
X1161081Y2379337D02*
Y2389337D01*
X1156081Y2384337D02*
X1166081D01*
X1131962Y2369337D02*
X1148961D01*
X1131962Y2399337D02*
X1148961D01*
X1131962Y2369337D02*
Y2399337D01*
X1148961Y2369337D02*
Y2399337D01*
X1140462Y2379337D02*
Y2389337D01*
X1135462Y2384337D02*
X1145462D01*
X1172661Y2366164D02*
X1195661D01*
X1172661Y2412164D02*
X1195661D01*
X1172661Y2366164D02*
Y2412164D01*
X1195661Y2366164D02*
Y2412164D01*
X1500509Y2240004D02*
Y2257004D01*
X1530509Y2240004D02*
Y2257004D01*
X1510509Y2248504D02*
X1520509D01*
X1515509Y2243504D02*
Y2253504D01*
X1500509Y2240004D02*
X1530509D01*
X1500509Y2257004D02*
X1530509D01*
X1475726Y2257204D02*
X1492726D01*
X1475726Y2227204D02*
X1492726D01*
X1484226Y2237204D02*
Y2247204D01*
X1479226Y2242204D02*
X1489226D01*
X1475726Y2227204D02*
Y2257204D01*
X1492726Y2227204D02*
Y2257204D01*
X1463455Y2292598D02*
X1480455D01*
X1463455Y2262598D02*
X1480455D01*
X1471955Y2272598D02*
Y2282598D01*
X1466955Y2277598D02*
X1476955D01*
X1463455Y2262598D02*
Y2292598D01*
X1480455Y2262598D02*
Y2292598D01*
X1379564Y2292598D02*
X1396564D01*
X1379564Y2262598D02*
X1396564D01*
Y2292598D01*
X1379564Y2262598D02*
Y2292598D01*
X1388064Y2272598D02*
Y2282598D01*
X1383064Y2277598D02*
X1393064D01*
X1400184Y2292598D02*
X1417184D01*
X1400184Y2262598D02*
X1417184D01*
Y2292598D01*
X1400184Y2262598D02*
Y2292598D01*
X1408684Y2272598D02*
Y2282598D01*
X1403684Y2277598D02*
X1413684D01*
X1441435Y2292598D02*
X1458435D01*
X1441435Y2262598D02*
X1458435D01*
Y2292598D01*
X1441435Y2262598D02*
Y2292598D01*
X1449935Y2272598D02*
Y2282598D01*
X1444935Y2277598D02*
X1454935D01*
X1420804Y2292598D02*
X1437804D01*
X1420804Y2262598D02*
X1437804D01*
Y2292598D01*
X1420804Y2262598D02*
Y2292598D01*
X1429304Y2272598D02*
Y2282598D01*
X1424304Y2277598D02*
X1434304D01*
X1486724Y2316164D02*
X1503724D01*
X1486724Y2346164D02*
X1503724D01*
X1486724Y2316164D02*
Y2346164D01*
X1503724Y2316164D02*
Y2346164D01*
X1495224Y2326164D02*
Y2336164D01*
X1490224Y2331164D02*
X1500224D01*
X1610970Y2279351D02*
Y2290351D01*
X1589970Y2279351D02*
Y2290351D01*
Y2279351D02*
X1610970D01*
X1589970Y2290351D02*
X1610970D01*
X1627210Y2297957D02*
X1638210D01*
X1627210Y2276957D02*
X1638210D01*
Y2297957D01*
X1627210Y2276957D02*
Y2297957D01*
X1641330Y2276957D02*
X1652330D01*
X1641330Y2297957D02*
X1652330D01*
X1641330Y2276957D02*
Y2297957D01*
X1652330Y2276957D02*
Y2297957D01*
X1579951Y2311734D02*
X1649951D01*
X1579951Y2393734D02*
X1649951D01*
Y2311734D02*
Y2393734D01*
X1579951Y2311734D02*
Y2393734D01*
X1423850Y2153524D02*
X1636850D01*
Y1877524D02*
Y2153524D01*
X1423850Y1877524D02*
X1636850D01*
X1423850D02*
Y2153524D01*
X1616340Y2289288D02*
X1621840D01*
X1619090Y2286538D02*
Y2292038D01*
X1614590Y2298288D02*
X1623590D01*
X1614590Y2280288D02*
X1623590D01*
Y2298288D01*
X1614590Y2280288D02*
Y2298288D01*
X1579100Y2289445D02*
X1584600D01*
X1581850Y2286695D02*
Y2292195D01*
X1577350Y2298445D02*
X1586350D01*
X1577350Y2280445D02*
X1586350D01*
Y2298445D01*
X1577350Y2280445D02*
Y2298445D01*
X1533581Y2369337D02*
X1550582D01*
X1533581Y2399337D02*
X1550582D01*
X1533581Y2369337D02*
Y2399337D01*
X1550582Y2369337D02*
Y2399337D01*
X1542081Y2379337D02*
Y2389337D01*
X1537081Y2384337D02*
X1547081D01*
X1512961Y2369337D02*
X1529962D01*
X1512961Y2399337D02*
X1529962D01*
X1512961Y2369337D02*
Y2399337D01*
X1529962Y2369337D02*
Y2399337D01*
X1521461Y2379337D02*
Y2389337D01*
X1516461Y2384337D02*
X1526461D01*
X1553661Y2366164D02*
X1576661D01*
X1553661Y2412164D02*
X1576661D01*
X1553661Y2366164D02*
Y2412164D01*
X1576661Y2366164D02*
Y2412164D01*
X1881509Y2240004D02*
Y2257004D01*
X1911509Y2240004D02*
Y2257004D01*
X1891509Y2248504D02*
X1901509D01*
X1896509Y2243504D02*
Y2253504D01*
X1881509Y2240004D02*
X1911509D01*
X1881509Y2257004D02*
X1911509D01*
X1856726Y2257204D02*
X1873726D01*
X1856726Y2227204D02*
X1873726D01*
X1865226Y2237204D02*
Y2247204D01*
X1860226Y2242204D02*
X1870226D01*
X1856726Y2227204D02*
Y2257204D01*
X1873726Y2227204D02*
Y2257204D01*
X1844455Y2292598D02*
X1861455D01*
X1844455Y2262598D02*
X1861455D01*
X1852955Y2272598D02*
Y2282598D01*
X1847955Y2277598D02*
X1857955D01*
X1844455Y2262598D02*
Y2292598D01*
X1861455Y2262598D02*
Y2292598D01*
X1760564Y2292598D02*
X1777564D01*
X1760564Y2262598D02*
X1777564D01*
Y2292598D01*
X1760564Y2262598D02*
Y2292598D01*
X1769064Y2272598D02*
Y2282598D01*
X1764064Y2277598D02*
X1774064D01*
X1781184Y2292598D02*
X1798184D01*
X1781184Y2262598D02*
X1798184D01*
Y2292598D01*
X1781184Y2262598D02*
Y2292598D01*
X1789684Y2272598D02*
Y2282598D01*
X1784684Y2277598D02*
X1794684D01*
X1822435Y2292598D02*
X1839435D01*
X1822435Y2262598D02*
X1839435D01*
Y2292598D01*
X1822435Y2262598D02*
Y2292598D01*
X1830935Y2272598D02*
Y2282598D01*
X1825935Y2277598D02*
X1835935D01*
X1801804Y2292598D02*
X1818804D01*
X1801804Y2262598D02*
X1818804D01*
Y2292598D01*
X1801804Y2262598D02*
Y2292598D01*
X1810304Y2272598D02*
Y2282598D01*
X1805304Y2277598D02*
X1815304D01*
X1867724Y2316164D02*
X1884724D01*
X1867724Y2346164D02*
X1884724D01*
X1867724Y2316164D02*
Y2346164D01*
X1884724Y2316164D02*
Y2346164D01*
X1876224Y2326164D02*
Y2336164D01*
X1871224Y2331164D02*
X1881224D01*
X1991970Y2279351D02*
Y2290351D01*
X1970970Y2279351D02*
Y2290351D01*
Y2279351D02*
X1991970D01*
X1970970Y2290351D02*
X1991970D01*
X2008210Y2297957D02*
X2019210D01*
X2008210Y2276957D02*
X2019210D01*
Y2297957D01*
X2008210Y2276957D02*
Y2297957D01*
X2022330Y2276957D02*
X2033330D01*
X2022330Y2297957D02*
X2033330D01*
X2022330Y2276957D02*
Y2297957D01*
X2033330Y2276957D02*
Y2297957D01*
X1960952Y2311734D02*
X2030952D01*
X1960952Y2393734D02*
X2030952D01*
Y2311734D02*
Y2393734D01*
X1960952Y2311734D02*
Y2393734D01*
X1804850Y2153524D02*
X2017850D01*
Y1877524D02*
Y2153524D01*
X1804850Y1877524D02*
X2017850D01*
X1804850D02*
Y2153524D01*
X1997340Y2289288D02*
X2002840D01*
X2000090Y2286538D02*
Y2292038D01*
X1995590Y2298288D02*
X2004590D01*
X1995590Y2280288D02*
X2004590D01*
Y2298288D01*
X1995590Y2280288D02*
Y2298288D01*
X1960100Y2289445D02*
X1965600D01*
X1962850Y2286695D02*
Y2292195D01*
X1958350Y2298445D02*
X1967350D01*
X1958350Y2280445D02*
X1967350D01*
Y2298445D01*
X1958350Y2280445D02*
Y2298445D01*
X1914581Y2369337D02*
X1931582D01*
X1914581Y2399337D02*
X1931582D01*
X1914581Y2369337D02*
Y2399337D01*
X1931582Y2369337D02*
Y2399337D01*
X1923081Y2379337D02*
Y2389337D01*
X1918081Y2384337D02*
X1928081D01*
X1893961Y2369337D02*
X1910961D01*
X1893961Y2399337D02*
X1910961D01*
X1893961Y2369337D02*
Y2399337D01*
X1910961Y2369337D02*
Y2399337D01*
X1902462Y2379337D02*
Y2389337D01*
X1897462Y2384337D02*
X1907462D01*
X1934661Y2366164D02*
X1957661D01*
X1934661Y2412164D02*
X1957661D01*
X1934661Y2366164D02*
Y2412164D01*
X1957661Y2366164D02*
Y2412164D01*
X316078Y1296142D02*
Y1382142D01*
Y1296142D02*
X476078D01*
Y1382142D01*
X316078D02*
X476078D01*
X324268Y1005574D02*
Y1011074D01*
X321518Y1008324D02*
X327018D01*
X315768Y1012824D02*
X332768D01*
X315768Y1003824D02*
X332768D01*
X315768D02*
Y1012824D01*
X332768Y1003824D02*
Y1012824D01*
X476962Y1078174D02*
X482462D01*
X479712Y1075424D02*
Y1080924D01*
X475212Y1087174D02*
X484212D01*
X475212Y1069174D02*
X484212D01*
Y1087174D01*
X475212Y1069174D02*
Y1087174D01*
X390980Y1159294D02*
X400980D01*
X395980Y1154294D02*
Y1164294D01*
X404480Y1144294D02*
Y1174294D01*
X387480Y1144294D02*
Y1174294D01*
X404480D01*
X387480Y1144294D02*
X404480D01*
X413234Y1159294D02*
X423234D01*
X418234Y1154294D02*
Y1164294D01*
X426734Y1144294D02*
Y1174294D01*
X409734Y1144294D02*
Y1174294D01*
X426734D01*
X409734Y1144294D02*
X426734D01*
X437142Y1042204D02*
Y1063204D01*
X448142Y1042204D02*
Y1063204D01*
X437142Y1042204D02*
X448142D01*
X437142Y1063204D02*
X448142D01*
X359416Y1196324D02*
X441416D01*
X359416Y1266324D02*
X441416D01*
X359416Y1196324D02*
Y1266324D01*
X441416Y1196324D02*
Y1266324D01*
X381238Y1135294D02*
Y1181294D01*
X358238Y1135294D02*
Y1181294D01*
X381238D01*
X358238Y1135294D02*
X381238D01*
X329922Y1033500D02*
Y1042500D01*
X346922Y1033500D02*
Y1042500D01*
X329922D02*
X346922D01*
X329922Y1033500D02*
X346922D01*
X335672Y1038000D02*
X341172D01*
X338422Y1035250D02*
Y1040750D01*
X331653Y1084675D02*
Y1102675D01*
X340653Y1084675D02*
Y1102675D01*
X331653Y1084675D02*
X340653D01*
X331653Y1102675D02*
X340653D01*
X336153Y1090925D02*
Y1096425D01*
X333403Y1093675D02*
X338903D01*
X319310Y1084675D02*
Y1102675D01*
X328310Y1084675D02*
Y1102675D01*
X319310Y1084675D02*
X328310D01*
X319310Y1102675D02*
X328310D01*
X323810Y1090925D02*
Y1096425D01*
X321060Y1093675D02*
X326560D01*
X337172Y1062802D02*
Y1080802D01*
X328172Y1062802D02*
Y1080802D01*
X337172D01*
X328172Y1062802D02*
X337172D01*
X332672Y1069052D02*
Y1074552D01*
X329922Y1071802D02*
X335422D01*
X323078Y1062802D02*
Y1080802D01*
X314078Y1062802D02*
Y1080802D01*
X323078D01*
X314078Y1062802D02*
X323078D01*
X318578Y1069052D02*
Y1074552D01*
X315828Y1071802D02*
X321328D01*
X438142Y1069174D02*
Y1087174D01*
X447142Y1069174D02*
Y1087174D01*
X438142Y1069174D02*
X447142D01*
X438142Y1087174D02*
X447142D01*
X442642Y1075424D02*
Y1080924D01*
X439892Y1078174D02*
X445392D01*
X450985Y1058204D02*
X471985D01*
X450985Y1047204D02*
X471985D01*
X450985D02*
Y1058204D01*
X471985Y1047204D02*
Y1058204D01*
X357757Y1116514D02*
X375757D01*
X357757Y1107514D02*
X375757D01*
X357757D02*
Y1116514D01*
X375757Y1107514D02*
Y1116514D01*
X364007Y1112014D02*
X369507D01*
X366758Y1109264D02*
Y1114764D01*
X450816Y1076824D02*
X471816D01*
X450816Y1065824D02*
X471816D01*
X450816D02*
Y1076824D01*
X471816Y1065824D02*
Y1076824D01*
X352392Y1022250D02*
X361392D01*
X352392Y1039250D02*
X361392D01*
X352392Y1022250D02*
Y1039250D01*
X361392Y1022250D02*
Y1039250D01*
X356892Y1028000D02*
Y1033500D01*
X354142Y1030750D02*
X359642D01*
X697078Y1296142D02*
Y1382142D01*
Y1296142D02*
X857078D01*
Y1382142D01*
X697078D02*
X857078D01*
X705268Y1005574D02*
Y1011074D01*
X702518Y1008324D02*
X708018D01*
X696768Y1012824D02*
X713768D01*
X696768Y1003824D02*
X713768D01*
X696768D02*
Y1012824D01*
X713768Y1003824D02*
Y1012824D01*
X857962Y1078174D02*
X863462D01*
X860712Y1075424D02*
Y1080924D01*
X856212Y1087174D02*
X865212D01*
X856212Y1069174D02*
X865212D01*
Y1087174D01*
X856212Y1069174D02*
Y1087174D01*
X771980Y1159294D02*
X781980D01*
X776980Y1154294D02*
Y1164294D01*
X785480Y1144294D02*
Y1174294D01*
X768480Y1144294D02*
Y1174294D01*
X785480D01*
X768480Y1144294D02*
X785480D01*
X794234Y1159294D02*
X804234D01*
X799234Y1154294D02*
Y1164294D01*
X807734Y1144294D02*
Y1174294D01*
X790734Y1144294D02*
Y1174294D01*
X807734D01*
X790734Y1144294D02*
X807734D01*
X818142Y1042204D02*
Y1063204D01*
X829142Y1042204D02*
Y1063204D01*
X818142Y1042204D02*
X829142D01*
X818142Y1063204D02*
X829142D01*
X740416Y1196324D02*
X822416D01*
X740416Y1266324D02*
X822416D01*
X740416Y1196324D02*
Y1266324D01*
X822416Y1196324D02*
Y1266324D01*
X762238Y1135294D02*
Y1181294D01*
X739238Y1135294D02*
Y1181294D01*
X762238D01*
X739238Y1135294D02*
X762238D01*
X710922Y1033500D02*
Y1042500D01*
X727922Y1033500D02*
Y1042500D01*
X710922D02*
X727922D01*
X710922Y1033500D02*
X727922D01*
X716672Y1038000D02*
X722172D01*
X719422Y1035250D02*
Y1040750D01*
X712653Y1084675D02*
Y1102675D01*
X721653Y1084675D02*
Y1102675D01*
X712653Y1084675D02*
X721653D01*
X712653Y1102675D02*
X721653D01*
X717153Y1090925D02*
Y1096425D01*
X714403Y1093675D02*
X719903D01*
X700310Y1084675D02*
Y1102675D01*
X709310Y1084675D02*
Y1102675D01*
X700310Y1084675D02*
X709310D01*
X700310Y1102675D02*
X709310D01*
X704810Y1090925D02*
Y1096425D01*
X702060Y1093675D02*
X707560D01*
X718172Y1062802D02*
Y1080802D01*
X709172Y1062802D02*
Y1080802D01*
X718172D01*
X709172Y1062802D02*
X718172D01*
X713672Y1069052D02*
Y1074552D01*
X710922Y1071802D02*
X716422D01*
X704078Y1062802D02*
Y1080802D01*
X695078Y1062802D02*
Y1080802D01*
X704078D01*
X695078Y1062802D02*
X704078D01*
X699578Y1069052D02*
Y1074552D01*
X696828Y1071802D02*
X702328D01*
X819142Y1069174D02*
Y1087174D01*
X828142Y1069174D02*
Y1087174D01*
X819142Y1069174D02*
X828142D01*
X819142Y1087174D02*
X828142D01*
X823642Y1075424D02*
Y1080924D01*
X820892Y1078174D02*
X826392D01*
X831985Y1058204D02*
X852985D01*
X831985Y1047204D02*
X852985D01*
X831985D02*
Y1058204D01*
X852985Y1047204D02*
Y1058204D01*
X738757Y1116514D02*
X756758D01*
X738757Y1107514D02*
X756758D01*
X738757D02*
Y1116514D01*
X756758Y1107514D02*
Y1116514D01*
X745007Y1112014D02*
X750508D01*
X747757Y1109264D02*
Y1114764D01*
X831816Y1076824D02*
X852816D01*
X831816Y1065824D02*
X852816D01*
X831816D02*
Y1076824D01*
X852816Y1065824D02*
Y1076824D01*
X733392Y1022250D02*
X742392D01*
X733392Y1039250D02*
X742392D01*
X733392Y1022250D02*
Y1039250D01*
X742392Y1022250D02*
Y1039250D01*
X737892Y1028000D02*
Y1033500D01*
X735142Y1030750D02*
X740642D01*
X1078078Y1296142D02*
Y1382142D01*
Y1296142D02*
X1238078D01*
Y1382142D01*
X1078078D02*
X1238078D01*
X1086268Y1005574D02*
Y1011074D01*
X1083518Y1008324D02*
X1089018D01*
X1077768Y1012824D02*
X1094768D01*
X1077768Y1003824D02*
X1094768D01*
X1077768D02*
Y1012824D01*
X1094768Y1003824D02*
Y1012824D01*
X1238962Y1078174D02*
X1244462D01*
X1241712Y1075424D02*
Y1080924D01*
X1237212Y1087174D02*
X1246212D01*
X1237212Y1069174D02*
X1246212D01*
Y1087174D01*
X1237212Y1069174D02*
Y1087174D01*
X1152980Y1159294D02*
X1162980D01*
X1157980Y1154294D02*
Y1164294D01*
X1166480Y1144294D02*
Y1174294D01*
X1149480Y1144294D02*
Y1174294D01*
X1166480D01*
X1149480Y1144294D02*
X1166480D01*
X1175234Y1159294D02*
X1185234D01*
X1180234Y1154294D02*
Y1164294D01*
X1188734Y1144294D02*
Y1174294D01*
X1171734Y1144294D02*
Y1174294D01*
X1188734D01*
X1171734Y1144294D02*
X1188734D01*
X1199142Y1042204D02*
Y1063204D01*
X1210142Y1042204D02*
Y1063204D01*
X1199142Y1042204D02*
X1210142D01*
X1199142Y1063204D02*
X1210142D01*
X1121416Y1196324D02*
X1203416D01*
X1121416Y1266324D02*
X1203416D01*
X1121416Y1196324D02*
Y1266324D01*
X1203416Y1196324D02*
Y1266324D01*
X1143238Y1135294D02*
Y1181294D01*
X1120238Y1135294D02*
Y1181294D01*
X1143238D01*
X1120238Y1135294D02*
X1143238D01*
X1091922Y1033500D02*
Y1042500D01*
X1108922Y1033500D02*
Y1042500D01*
X1091922D02*
X1108922D01*
X1091922Y1033500D02*
X1108922D01*
X1097672Y1038000D02*
X1103172D01*
X1100422Y1035250D02*
Y1040750D01*
X1093653Y1084675D02*
Y1102675D01*
X1102653Y1084675D02*
Y1102675D01*
X1093653Y1084675D02*
X1102653D01*
X1093653Y1102675D02*
X1102653D01*
X1098153Y1090925D02*
Y1096425D01*
X1095403Y1093675D02*
X1100903D01*
X1081310Y1084675D02*
Y1102675D01*
X1090310Y1084675D02*
Y1102675D01*
X1081310Y1084675D02*
X1090310D01*
X1081310Y1102675D02*
X1090310D01*
X1085810Y1090925D02*
Y1096425D01*
X1083060Y1093675D02*
X1088560D01*
X1099172Y1062802D02*
Y1080802D01*
X1090172Y1062802D02*
Y1080802D01*
X1099172D01*
X1090172Y1062802D02*
X1099172D01*
X1094672Y1069052D02*
Y1074552D01*
X1091922Y1071802D02*
X1097422D01*
X1085078Y1062802D02*
Y1080802D01*
X1076078Y1062802D02*
Y1080802D01*
X1085078D01*
X1076078Y1062802D02*
X1085078D01*
X1080578Y1069052D02*
Y1074552D01*
X1077828Y1071802D02*
X1083328D01*
X1200142Y1069174D02*
Y1087174D01*
X1209142Y1069174D02*
Y1087174D01*
X1200142Y1069174D02*
X1209142D01*
X1200142Y1087174D02*
X1209142D01*
X1204642Y1075424D02*
Y1080924D01*
X1201892Y1078174D02*
X1207392D01*
X1212985Y1058204D02*
X1233985D01*
X1212985Y1047204D02*
X1233985D01*
X1212985D02*
Y1058204D01*
X1233985Y1047204D02*
Y1058204D01*
X1119758Y1116514D02*
X1137757D01*
X1119758Y1107514D02*
X1137757D01*
X1119758D02*
Y1116514D01*
X1137757Y1107514D02*
Y1116514D01*
X1126008Y1112014D02*
X1131507D01*
X1128757Y1109264D02*
Y1114764D01*
X1212816Y1076824D02*
X1233816D01*
X1212816Y1065824D02*
X1233816D01*
X1212816D02*
Y1076824D01*
X1233816Y1065824D02*
Y1076824D01*
X1114392Y1022250D02*
X1123392D01*
X1114392Y1039250D02*
X1123392D01*
X1114392Y1022250D02*
Y1039250D01*
X1123392Y1022250D02*
Y1039250D01*
X1118892Y1028000D02*
Y1033500D01*
X1116142Y1030750D02*
X1121642D01*
X1459078Y1296142D02*
Y1382142D01*
Y1296142D02*
X1619078D01*
Y1382142D01*
X1459078D02*
X1619078D01*
X1467268Y1005574D02*
Y1011074D01*
X1464518Y1008324D02*
X1470018D01*
X1458768Y1012824D02*
X1475768D01*
X1458768Y1003824D02*
X1475768D01*
X1458768D02*
Y1012824D01*
X1475768Y1003824D02*
Y1012824D01*
X1619962Y1078174D02*
X1625462D01*
X1622712Y1075424D02*
Y1080924D01*
X1618212Y1087174D02*
X1627212D01*
X1618212Y1069174D02*
X1627212D01*
Y1087174D01*
X1618212Y1069174D02*
Y1087174D01*
X1533980Y1159294D02*
X1543980D01*
X1538980Y1154294D02*
Y1164294D01*
X1547480Y1144294D02*
Y1174294D01*
X1530480Y1144294D02*
Y1174294D01*
X1547480D01*
X1530480Y1144294D02*
X1547480D01*
X1556234Y1159294D02*
X1566234D01*
X1561234Y1154294D02*
Y1164294D01*
X1569734Y1144294D02*
Y1174294D01*
X1552734Y1144294D02*
Y1174294D01*
X1569734D01*
X1552734Y1144294D02*
X1569734D01*
X1580142Y1042204D02*
Y1063204D01*
X1591142Y1042204D02*
Y1063204D01*
X1580142Y1042204D02*
X1591142D01*
X1580142Y1063204D02*
X1591142D01*
X1502416Y1196324D02*
X1584416D01*
X1502416Y1266324D02*
X1584416D01*
X1502416Y1196324D02*
Y1266324D01*
X1584416Y1196324D02*
Y1266324D01*
X1524238Y1135294D02*
Y1181294D01*
X1501238Y1135294D02*
Y1181294D01*
X1524238D01*
X1501238Y1135294D02*
X1524238D01*
X1472922Y1033500D02*
Y1042500D01*
X1489922Y1033500D02*
Y1042500D01*
X1472922D02*
X1489922D01*
X1472922Y1033500D02*
X1489922D01*
X1478672Y1038000D02*
X1484172D01*
X1481422Y1035250D02*
Y1040750D01*
X1474653Y1084675D02*
Y1102675D01*
X1483653Y1084675D02*
Y1102675D01*
X1474653Y1084675D02*
X1483653D01*
X1474653Y1102675D02*
X1483653D01*
X1479153Y1090925D02*
Y1096425D01*
X1476403Y1093675D02*
X1481903D01*
X1462310Y1084675D02*
Y1102675D01*
X1471310Y1084675D02*
Y1102675D01*
X1462310Y1084675D02*
X1471310D01*
X1462310Y1102675D02*
X1471310D01*
X1466810Y1090925D02*
Y1096425D01*
X1464060Y1093675D02*
X1469560D01*
X1480172Y1062802D02*
Y1080802D01*
X1471172Y1062802D02*
Y1080802D01*
X1480172D01*
X1471172Y1062802D02*
X1480172D01*
X1475672Y1069052D02*
Y1074552D01*
X1472922Y1071802D02*
X1478422D01*
X1466078Y1062802D02*
Y1080802D01*
X1457078Y1062802D02*
Y1080802D01*
X1466078D01*
X1457078Y1062802D02*
X1466078D01*
X1461578Y1069052D02*
Y1074552D01*
X1458828Y1071802D02*
X1464328D01*
X1581142Y1069174D02*
Y1087174D01*
X1590142Y1069174D02*
Y1087174D01*
X1581142Y1069174D02*
X1590142D01*
X1581142Y1087174D02*
X1590142D01*
X1585642Y1075424D02*
Y1080924D01*
X1582892Y1078174D02*
X1588392D01*
X1593985Y1058204D02*
X1614985D01*
X1593985Y1047204D02*
X1614985D01*
X1593985D02*
Y1058204D01*
X1614985Y1047204D02*
Y1058204D01*
X1500757Y1116514D02*
X1518757D01*
X1500757Y1107514D02*
X1518757D01*
X1500757D02*
Y1116514D01*
X1518757Y1107514D02*
Y1116514D01*
X1507007Y1112014D02*
X1512507D01*
X1509758Y1109264D02*
Y1114764D01*
X1593816Y1076824D02*
X1614816D01*
X1593816Y1065824D02*
X1614816D01*
X1593816D02*
Y1076824D01*
X1614816Y1065824D02*
Y1076824D01*
X1495392Y1022250D02*
X1504392D01*
X1495392Y1039250D02*
X1504392D01*
X1495392Y1022250D02*
Y1039250D01*
X1504392Y1022250D02*
Y1039250D01*
X1499892Y1028000D02*
Y1033500D01*
X1497142Y1030750D02*
X1502642D01*
X1840078Y1296142D02*
Y1382142D01*
Y1296142D02*
X2000078D01*
Y1382142D01*
X1840078D02*
X2000078D01*
X1848268Y1005574D02*
Y1011074D01*
X1845518Y1008324D02*
X1851018D01*
X1839768Y1012824D02*
X1856768D01*
X1839768Y1003824D02*
X1856768D01*
X1839768D02*
Y1012824D01*
X1856768Y1003824D02*
Y1012824D01*
X2000962Y1078174D02*
X2006462D01*
X2003712Y1075424D02*
Y1080924D01*
X1999212Y1087174D02*
X2008212D01*
X1999212Y1069174D02*
X2008212D01*
Y1087174D01*
X1999212Y1069174D02*
Y1087174D01*
X1914980Y1159294D02*
X1924980D01*
X1919980Y1154294D02*
Y1164294D01*
X1928480Y1144294D02*
Y1174294D01*
X1911480Y1144294D02*
Y1174294D01*
X1928480D01*
X1911480Y1144294D02*
X1928480D01*
X1937234Y1159294D02*
X1947234D01*
X1942234Y1154294D02*
Y1164294D01*
X1950734Y1144294D02*
Y1174294D01*
X1933734Y1144294D02*
Y1174294D01*
X1950734D01*
X1933734Y1144294D02*
X1950734D01*
X1961142Y1042204D02*
Y1063204D01*
X1972142Y1042204D02*
Y1063204D01*
X1961142Y1042204D02*
X1972142D01*
X1961142Y1063204D02*
X1972142D01*
X1883416Y1196324D02*
X1965416D01*
X1883416Y1266324D02*
X1965416D01*
X1883416Y1196324D02*
Y1266324D01*
X1965416Y1196324D02*
Y1266324D01*
X1905238Y1135294D02*
Y1181294D01*
X1882238Y1135294D02*
Y1181294D01*
X1905238D01*
X1882238Y1135294D02*
X1905238D01*
X1853922Y1033500D02*
Y1042500D01*
X1870922Y1033500D02*
Y1042500D01*
X1853922D02*
X1870922D01*
X1853922Y1033500D02*
X1870922D01*
X1859672Y1038000D02*
X1865172D01*
X1862422Y1035250D02*
Y1040750D01*
X1855653Y1084675D02*
Y1102675D01*
X1864653Y1084675D02*
Y1102675D01*
X1855653Y1084675D02*
X1864653D01*
X1855653Y1102675D02*
X1864653D01*
X1860153Y1090925D02*
Y1096425D01*
X1857403Y1093675D02*
X1862903D01*
X1843310Y1084675D02*
Y1102675D01*
X1852310Y1084675D02*
Y1102675D01*
X1843310Y1084675D02*
X1852310D01*
X1843310Y1102675D02*
X1852310D01*
X1847810Y1090925D02*
Y1096425D01*
X1845060Y1093675D02*
X1850560D01*
X1861172Y1062802D02*
Y1080802D01*
X1852172Y1062802D02*
Y1080802D01*
X1861172D01*
X1852172Y1062802D02*
X1861172D01*
X1856672Y1069052D02*
Y1074552D01*
X1853922Y1071802D02*
X1859422D01*
X1847078Y1062802D02*
Y1080802D01*
X1838078Y1062802D02*
Y1080802D01*
X1847078D01*
X1838078Y1062802D02*
X1847078D01*
X1842578Y1069052D02*
Y1074552D01*
X1839828Y1071802D02*
X1845328D01*
X1962142Y1069174D02*
Y1087174D01*
X1971142Y1069174D02*
Y1087174D01*
X1962142Y1069174D02*
X1971142D01*
X1962142Y1087174D02*
X1971142D01*
X1966642Y1075424D02*
Y1080924D01*
X1963892Y1078174D02*
X1969392D01*
X1974985Y1058204D02*
X1995985D01*
X1974985Y1047204D02*
X1995985D01*
X1974985D02*
Y1058204D01*
X1995985Y1047204D02*
Y1058204D01*
X1881758Y1116514D02*
X1899758D01*
X1881758Y1107514D02*
X1899758D01*
X1881758D02*
Y1116514D01*
X1899758Y1107514D02*
Y1116514D01*
X1888008Y1112014D02*
X1893508D01*
X1890757Y1109264D02*
Y1114764D01*
X1974816Y1076824D02*
X1995816D01*
X1974816Y1065824D02*
X1995816D01*
X1974816D02*
Y1076824D01*
X1995816Y1065824D02*
Y1076824D01*
X1876392Y1022250D02*
X1885392D01*
X1876392Y1039250D02*
X1885392D01*
X1876392Y1022250D02*
Y1039250D01*
X1885392Y1022250D02*
Y1039250D01*
X1880892Y1028000D02*
Y1033500D01*
X1878142Y1030750D02*
X1883642D01*
X362589Y1684450D02*
Y1701450D01*
X392589Y1684450D02*
Y1701450D01*
X372589Y1692950D02*
X382589D01*
X377589Y1687950D02*
Y1697950D01*
X362589Y1684450D02*
X392589D01*
X362589Y1701450D02*
X392589D01*
X337806Y1701650D02*
X354806D01*
X337806Y1671650D02*
X354806D01*
X346306Y1681650D02*
Y1691650D01*
X341306Y1686650D02*
X351306D01*
X337806Y1671650D02*
Y1701650D01*
X354806Y1671650D02*
Y1701650D01*
X325535Y1737044D02*
X342535D01*
X325535Y1707044D02*
X342535D01*
X334035Y1717044D02*
Y1727044D01*
X329035Y1722044D02*
X339035D01*
X325535Y1707044D02*
Y1737044D01*
X342535Y1707044D02*
Y1737044D01*
X241644Y1737044D02*
X258644D01*
X241644Y1707044D02*
X258644D01*
Y1737044D01*
X241644Y1707044D02*
Y1737044D01*
X250144Y1717044D02*
Y1727044D01*
X245144Y1722044D02*
X255144D01*
X262264Y1737044D02*
X279264D01*
X262264Y1707044D02*
X279264D01*
Y1737044D01*
X262264Y1707044D02*
Y1737044D01*
X270764Y1717044D02*
Y1727044D01*
X265764Y1722044D02*
X275764D01*
X303515Y1737044D02*
X320515D01*
X303515Y1707044D02*
X320515D01*
Y1737044D01*
X303515Y1707044D02*
Y1737044D01*
X312015Y1717044D02*
Y1727044D01*
X307015Y1722044D02*
X317015D01*
X282884Y1737044D02*
X299884D01*
X282884Y1707044D02*
X299884D01*
Y1737044D01*
X282884Y1707044D02*
Y1737044D01*
X291384Y1717044D02*
Y1727044D01*
X286384Y1722044D02*
X296384D01*
X348804Y1760610D02*
X365804D01*
X348804Y1790610D02*
X365804D01*
X348804Y1760610D02*
Y1790610D01*
X365804Y1760610D02*
Y1790610D01*
X357304Y1770610D02*
Y1780610D01*
X352304Y1775610D02*
X362304D01*
X473050Y1723797D02*
Y1734797D01*
X452050Y1723797D02*
Y1734797D01*
Y1723797D02*
X473050D01*
X452050Y1734797D02*
X473050D01*
X489290Y1742403D02*
X500290D01*
X489290Y1721403D02*
X500290D01*
Y1742403D01*
X489290Y1721403D02*
Y1742403D01*
X503410Y1721403D02*
X514410D01*
X503410Y1742403D02*
X514410D01*
X503410Y1721403D02*
Y1742403D01*
X514410Y1721403D02*
Y1742403D01*
X442032Y1756180D02*
X512032D01*
X442032Y1838180D02*
X512032D01*
Y1756180D02*
Y1838180D01*
X442032Y1756180D02*
Y1838180D01*
X285930Y1597970D02*
X498930D01*
Y1321970D02*
Y1597970D01*
X285930Y1321970D02*
X498930D01*
X285930D02*
Y1597970D01*
X478420Y1733734D02*
X483920D01*
X481170Y1730984D02*
Y1736484D01*
X476670Y1742734D02*
X485670D01*
X476670Y1724734D02*
X485670D01*
Y1742734D01*
X476670Y1724734D02*
Y1742734D01*
X441180Y1733891D02*
X446680D01*
X443930Y1731141D02*
Y1736641D01*
X439430Y1742891D02*
X448430D01*
X439430Y1724891D02*
X448430D01*
Y1742891D01*
X439430Y1724891D02*
Y1742891D01*
X395661Y1813783D02*
X412662D01*
X395661Y1843783D02*
X412662D01*
X395661Y1813783D02*
Y1843783D01*
X412662Y1813783D02*
Y1843783D01*
X404161Y1823783D02*
Y1833783D01*
X399161Y1828783D02*
X409161D01*
X375042Y1813783D02*
X392042D01*
X375042Y1843783D02*
X392042D01*
X375042Y1813783D02*
Y1843783D01*
X392042Y1813783D02*
Y1843783D01*
X383541Y1823783D02*
Y1833783D01*
X378541Y1828783D02*
X388541D01*
X415741Y1810610D02*
X438741D01*
X415741Y1856610D02*
X438741D01*
X415741Y1810610D02*
Y1856610D01*
X438741Y1810610D02*
Y1856610D01*
X743589Y1684450D02*
Y1701450D01*
X773589Y1684450D02*
Y1701450D01*
X753589Y1692950D02*
X763589D01*
X758589Y1687950D02*
Y1697950D01*
X743589Y1684450D02*
X773589D01*
X743589Y1701450D02*
X773589D01*
X718806Y1701650D02*
X735806D01*
X718806Y1671650D02*
X735806D01*
X727306Y1681650D02*
Y1691650D01*
X722306Y1686650D02*
X732306D01*
X718806Y1671650D02*
Y1701650D01*
X735806Y1671650D02*
Y1701650D01*
X706535Y1737044D02*
X723535D01*
X706535Y1707044D02*
X723535D01*
X715035Y1717044D02*
Y1727044D01*
X710035Y1722044D02*
X720035D01*
X706535Y1707044D02*
Y1737044D01*
X723535Y1707044D02*
Y1737044D01*
X622644Y1737044D02*
X639644D01*
X622644Y1707044D02*
X639644D01*
Y1737044D01*
X622644Y1707044D02*
Y1737044D01*
X631144Y1717044D02*
Y1727044D01*
X626144Y1722044D02*
X636144D01*
X643264Y1737044D02*
X660264D01*
X643264Y1707044D02*
X660264D01*
Y1737044D01*
X643264Y1707044D02*
Y1737044D01*
X651764Y1717044D02*
Y1727044D01*
X646764Y1722044D02*
X656764D01*
X684515Y1737044D02*
X701515D01*
X684515Y1707044D02*
X701515D01*
Y1737044D01*
X684515Y1707044D02*
Y1737044D01*
X693015Y1717044D02*
Y1727044D01*
X688015Y1722044D02*
X698015D01*
X663884Y1737044D02*
X680884D01*
X663884Y1707044D02*
X680884D01*
Y1737044D01*
X663884Y1707044D02*
Y1737044D01*
X672384Y1717044D02*
Y1727044D01*
X667384Y1722044D02*
X677384D01*
X729804Y1760610D02*
X746804D01*
X729804Y1790610D02*
X746804D01*
X729804Y1760610D02*
Y1790610D01*
X746804Y1760610D02*
Y1790610D01*
X738304Y1770610D02*
Y1780610D01*
X733304Y1775610D02*
X743304D01*
X854050Y1723797D02*
Y1734797D01*
X833050Y1723797D02*
Y1734797D01*
Y1723797D02*
X854050D01*
X833050Y1734797D02*
X854050D01*
X870290Y1742403D02*
X881290D01*
X870290Y1721403D02*
X881290D01*
Y1742403D01*
X870290Y1721403D02*
Y1742403D01*
X884410Y1721403D02*
X895410D01*
X884410Y1742403D02*
X895410D01*
X884410Y1721403D02*
Y1742403D01*
X895410Y1721403D02*
Y1742403D01*
X823031Y1756180D02*
X893031D01*
X823031Y1838180D02*
X893031D01*
Y1756180D02*
Y1838180D01*
X823031Y1756180D02*
Y1838180D01*
X666930Y1597970D02*
X879930D01*
Y1321970D02*
Y1597970D01*
X666930Y1321970D02*
X879930D01*
X666930D02*
Y1597970D01*
X859420Y1733734D02*
X864920D01*
X862170Y1730984D02*
Y1736484D01*
X857670Y1742734D02*
X866670D01*
X857670Y1724734D02*
X866670D01*
Y1742734D01*
X857670Y1724734D02*
Y1742734D01*
X822180Y1733891D02*
X827680D01*
X824930Y1731141D02*
Y1736641D01*
X820430Y1742891D02*
X829430D01*
X820430Y1724891D02*
X829430D01*
Y1742891D01*
X820430Y1724891D02*
Y1742891D01*
X776661Y1813783D02*
X793661D01*
X776661Y1843783D02*
X793661D01*
X776661Y1813783D02*
Y1843783D01*
X793661Y1813783D02*
Y1843783D01*
X785161Y1823783D02*
Y1833783D01*
X780161Y1828783D02*
X790161D01*
X756041Y1813783D02*
X773042D01*
X756041Y1843783D02*
X773042D01*
X756041Y1813783D02*
Y1843783D01*
X773042Y1813783D02*
Y1843783D01*
X764541Y1823783D02*
Y1833783D01*
X759541Y1828783D02*
X769541D01*
X796741Y1810610D02*
X819741D01*
X796741Y1856610D02*
X819741D01*
X796741Y1810610D02*
Y1856610D01*
X819741Y1810610D02*
Y1856610D01*
X1124589Y1684450D02*
Y1701450D01*
X1154589Y1684450D02*
Y1701450D01*
X1134589Y1692950D02*
X1144589D01*
X1139589Y1687950D02*
Y1697950D01*
X1124589Y1684450D02*
X1154589D01*
X1124589Y1701450D02*
X1154589D01*
X1099806Y1701650D02*
X1116806D01*
X1099806Y1671650D02*
X1116806D01*
X1108306Y1681650D02*
Y1691650D01*
X1103306Y1686650D02*
X1113306D01*
X1099806Y1671650D02*
Y1701650D01*
X1116806Y1671650D02*
Y1701650D01*
X1087535Y1737044D02*
X1104535D01*
X1087535Y1707044D02*
X1104535D01*
X1096035Y1717044D02*
Y1727044D01*
X1091035Y1722044D02*
X1101035D01*
X1087535Y1707044D02*
Y1737044D01*
X1104535Y1707044D02*
Y1737044D01*
X1003644Y1737044D02*
X1020644D01*
X1003644Y1707044D02*
X1020644D01*
Y1737044D01*
X1003644Y1707044D02*
Y1737044D01*
X1012144Y1717044D02*
Y1727044D01*
X1007144Y1722044D02*
X1017144D01*
X1024264Y1737044D02*
X1041264D01*
X1024264Y1707044D02*
X1041264D01*
Y1737044D01*
X1024264Y1707044D02*
Y1737044D01*
X1032764Y1717044D02*
Y1727044D01*
X1027764Y1722044D02*
X1037764D01*
X1065515Y1737044D02*
X1082515D01*
X1065515Y1707044D02*
X1082515D01*
Y1737044D01*
X1065515Y1707044D02*
Y1737044D01*
X1074015Y1717044D02*
Y1727044D01*
X1069015Y1722044D02*
X1079015D01*
X1044884Y1737044D02*
X1061884D01*
X1044884Y1707044D02*
X1061884D01*
Y1737044D01*
X1044884Y1707044D02*
Y1737044D01*
X1053384Y1717044D02*
Y1727044D01*
X1048384Y1722044D02*
X1058384D01*
X1110804Y1760610D02*
X1127804D01*
X1110804Y1790610D02*
X1127804D01*
X1110804Y1760610D02*
Y1790610D01*
X1127804Y1760610D02*
Y1790610D01*
X1119304Y1770610D02*
Y1780610D01*
X1114304Y1775610D02*
X1124304D01*
X1235050Y1723797D02*
Y1734797D01*
X1214050Y1723797D02*
Y1734797D01*
Y1723797D02*
X1235050D01*
X1214050Y1734797D02*
X1235050D01*
X1251290Y1742403D02*
X1262290D01*
X1251290Y1721403D02*
X1262290D01*
Y1742403D01*
X1251290Y1721403D02*
Y1742403D01*
X1265410Y1721403D02*
X1276410D01*
X1265410Y1742403D02*
X1276410D01*
X1265410Y1721403D02*
Y1742403D01*
X1276410Y1721403D02*
Y1742403D01*
X1204032Y1756180D02*
X1274032D01*
X1204032Y1838180D02*
X1274032D01*
Y1756180D02*
Y1838180D01*
X1204032Y1756180D02*
Y1838180D01*
X1047930Y1597970D02*
X1260930D01*
Y1321970D02*
Y1597970D01*
X1047930Y1321970D02*
X1260930D01*
X1047930D02*
Y1597970D01*
X1240420Y1733734D02*
X1245920D01*
X1243170Y1730984D02*
Y1736484D01*
X1238670Y1742734D02*
X1247670D01*
X1238670Y1724734D02*
X1247670D01*
Y1742734D01*
X1238670Y1724734D02*
Y1742734D01*
X1203180Y1733891D02*
X1208680D01*
X1205930Y1731141D02*
Y1736641D01*
X1201430Y1742891D02*
X1210430D01*
X1201430Y1724891D02*
X1210430D01*
Y1742891D01*
X1201430Y1724891D02*
Y1742891D01*
X1157661Y1813783D02*
X1174661D01*
X1157661Y1843783D02*
X1174661D01*
X1157661Y1813783D02*
Y1843783D01*
X1174661Y1813783D02*
Y1843783D01*
X1166161Y1823783D02*
Y1833783D01*
X1161161Y1828783D02*
X1171161D01*
X1137041Y1813783D02*
X1154042D01*
X1137041Y1843783D02*
X1154042D01*
X1137041Y1813783D02*
Y1843783D01*
X1154042Y1813783D02*
Y1843783D01*
X1145542Y1823783D02*
Y1833783D01*
X1140542Y1828783D02*
X1150542D01*
X1177741Y1810610D02*
X1200741D01*
X1177741Y1856610D02*
X1200741D01*
X1177741Y1810610D02*
Y1856610D01*
X1200741Y1810610D02*
Y1856610D01*
X1505589Y1684450D02*
Y1701450D01*
X1535589Y1684450D02*
Y1701450D01*
X1515589Y1692950D02*
X1525589D01*
X1520589Y1687950D02*
Y1697950D01*
X1505589Y1684450D02*
X1535589D01*
X1505589Y1701450D02*
X1535589D01*
X1480806Y1701650D02*
X1497806D01*
X1480806Y1671650D02*
X1497806D01*
X1489306Y1681650D02*
Y1691650D01*
X1484306Y1686650D02*
X1494306D01*
X1480806Y1671650D02*
Y1701650D01*
X1497806Y1671650D02*
Y1701650D01*
X1468535Y1737044D02*
X1485535D01*
X1468535Y1707044D02*
X1485535D01*
X1477035Y1717044D02*
Y1727044D01*
X1472035Y1722044D02*
X1482035D01*
X1468535Y1707044D02*
Y1737044D01*
X1485535Y1707044D02*
Y1737044D01*
X1384644Y1737044D02*
X1401644D01*
X1384644Y1707044D02*
X1401644D01*
Y1737044D01*
X1384644Y1707044D02*
Y1737044D01*
X1393144Y1717044D02*
Y1727044D01*
X1388144Y1722044D02*
X1398144D01*
X1405264Y1737044D02*
X1422264D01*
X1405264Y1707044D02*
X1422264D01*
Y1737044D01*
X1405264Y1707044D02*
Y1737044D01*
X1413764Y1717044D02*
Y1727044D01*
X1408764Y1722044D02*
X1418764D01*
X1446515Y1737044D02*
X1463515D01*
X1446515Y1707044D02*
X1463515D01*
Y1737044D01*
X1446515Y1707044D02*
Y1737044D01*
X1455015Y1717044D02*
Y1727044D01*
X1450015Y1722044D02*
X1460015D01*
X1425884Y1737044D02*
X1442884D01*
X1425884Y1707044D02*
X1442884D01*
Y1737044D01*
X1425884Y1707044D02*
Y1737044D01*
X1434384Y1717044D02*
Y1727044D01*
X1429384Y1722044D02*
X1439384D01*
X1491804Y1760610D02*
X1508804D01*
X1491804Y1790610D02*
X1508804D01*
X1491804Y1760610D02*
Y1790610D01*
X1508804Y1760610D02*
Y1790610D01*
X1500304Y1770610D02*
Y1780610D01*
X1495304Y1775610D02*
X1505304D01*
X1616050Y1723797D02*
Y1734797D01*
X1595050Y1723797D02*
Y1734797D01*
Y1723797D02*
X1616050D01*
X1595050Y1734797D02*
X1616050D01*
X1632290Y1742403D02*
X1643290D01*
X1632290Y1721403D02*
X1643290D01*
Y1742403D01*
X1632290Y1721403D02*
Y1742403D01*
X1646410Y1721403D02*
X1657410D01*
X1646410Y1742403D02*
X1657410D01*
X1646410Y1721403D02*
Y1742403D01*
X1657410Y1721403D02*
Y1742403D01*
X1585031Y1756180D02*
X1655031D01*
X1585031Y1838180D02*
X1655031D01*
Y1756180D02*
Y1838180D01*
X1585031Y1756180D02*
Y1838180D01*
X1428930Y1597970D02*
X1641930D01*
Y1321970D02*
Y1597970D01*
X1428930Y1321970D02*
X1641930D01*
X1428930D02*
Y1597970D01*
X1621420Y1733734D02*
X1626920D01*
X1624170Y1730984D02*
Y1736484D01*
X1619670Y1742734D02*
X1628670D01*
X1619670Y1724734D02*
X1628670D01*
Y1742734D01*
X1619670Y1724734D02*
Y1742734D01*
X1584180Y1733891D02*
X1589680D01*
X1586930Y1731141D02*
Y1736641D01*
X1582430Y1742891D02*
X1591430D01*
X1582430Y1724891D02*
X1591430D01*
Y1742891D01*
X1582430Y1724891D02*
Y1742891D01*
X1538661Y1813783D02*
X1555661D01*
X1538661Y1843783D02*
X1555661D01*
X1538661Y1813783D02*
Y1843783D01*
X1555661Y1813783D02*
Y1843783D01*
X1547161Y1823783D02*
Y1833783D01*
X1542161Y1828783D02*
X1552161D01*
X1518042Y1813783D02*
X1535042D01*
X1518042Y1843783D02*
X1535042D01*
X1518042Y1813783D02*
Y1843783D01*
X1535042Y1813783D02*
Y1843783D01*
X1526541Y1823783D02*
Y1833783D01*
X1521541Y1828783D02*
X1531541D01*
X1558741Y1810610D02*
X1581741D01*
X1558741Y1856610D02*
X1581741D01*
X1558741Y1810610D02*
Y1856610D01*
X1581741Y1810610D02*
Y1856610D01*
X1886589Y1684450D02*
Y1701450D01*
X1916589Y1684450D02*
Y1701450D01*
X1896589Y1692950D02*
X1906589D01*
X1901589Y1687950D02*
Y1697950D01*
X1886589Y1684450D02*
X1916589D01*
X1886589Y1701450D02*
X1916589D01*
X1861806Y1701650D02*
X1878806D01*
X1861806Y1671650D02*
X1878806D01*
X1870306Y1681650D02*
Y1691650D01*
X1865306Y1686650D02*
X1875306D01*
X1861806Y1671650D02*
Y1701650D01*
X1878806Y1671650D02*
Y1701650D01*
X1849535Y1737044D02*
X1866535D01*
X1849535Y1707044D02*
X1866535D01*
X1858035Y1717044D02*
Y1727044D01*
X1853035Y1722044D02*
X1863035D01*
X1849535Y1707044D02*
Y1737044D01*
X1866535Y1707044D02*
Y1737044D01*
X1765644Y1737044D02*
X1782644D01*
X1765644Y1707044D02*
X1782644D01*
Y1737044D01*
X1765644Y1707044D02*
Y1737044D01*
X1774144Y1717044D02*
Y1727044D01*
X1769144Y1722044D02*
X1779144D01*
X1786264Y1737044D02*
X1803264D01*
X1786264Y1707044D02*
X1803264D01*
Y1737044D01*
X1786264Y1707044D02*
Y1737044D01*
X1794764Y1717044D02*
Y1727044D01*
X1789764Y1722044D02*
X1799764D01*
X1827515Y1737044D02*
X1844515D01*
X1827515Y1707044D02*
X1844515D01*
Y1737044D01*
X1827515Y1707044D02*
Y1737044D01*
X1836015Y1717044D02*
Y1727044D01*
X1831015Y1722044D02*
X1841015D01*
X1806884Y1737044D02*
X1823884D01*
X1806884Y1707044D02*
X1823884D01*
Y1737044D01*
X1806884Y1707044D02*
Y1737044D01*
X1815384Y1717044D02*
Y1727044D01*
X1810384Y1722044D02*
X1820384D01*
X1872804Y1760610D02*
X1889804D01*
X1872804Y1790610D02*
X1889804D01*
X1872804Y1760610D02*
Y1790610D01*
X1889804Y1760610D02*
Y1790610D01*
X1881304Y1770610D02*
Y1780610D01*
X1876304Y1775610D02*
X1886304D01*
X1997050Y1723797D02*
Y1734797D01*
X1976050Y1723797D02*
Y1734797D01*
Y1723797D02*
X1997050D01*
X1976050Y1734797D02*
X1997050D01*
X2013290Y1742403D02*
X2024290D01*
X2013290Y1721403D02*
X2024290D01*
Y1742403D01*
X2013290Y1721403D02*
Y1742403D01*
X2027410Y1721403D02*
X2038410D01*
X2027410Y1742403D02*
X2038410D01*
X2027410Y1721403D02*
Y1742403D01*
X2038410Y1721403D02*
Y1742403D01*
X1966031Y1756180D02*
X2036031D01*
X1966031Y1838180D02*
X2036031D01*
Y1756180D02*
Y1838180D01*
X1966031Y1756180D02*
Y1838180D01*
X1809930Y1597970D02*
X2022930D01*
Y1321970D02*
Y1597970D01*
X1809930Y1321970D02*
X2022930D01*
X1809930D02*
Y1597970D01*
X2002420Y1733734D02*
X2007920D01*
X2005170Y1730984D02*
Y1736484D01*
X2000670Y1742734D02*
X2009670D01*
X2000670Y1724734D02*
X2009670D01*
Y1742734D01*
X2000670Y1724734D02*
Y1742734D01*
X1965180Y1733891D02*
X1970680D01*
X1967930Y1731141D02*
Y1736641D01*
X1963430Y1742891D02*
X1972430D01*
X1963430Y1724891D02*
X1972430D01*
Y1742891D01*
X1963430Y1724891D02*
Y1742891D01*
X1919661Y1813783D02*
X1936662D01*
X1919661Y1843783D02*
X1936662D01*
X1919661Y1813783D02*
Y1843783D01*
X1936662Y1813783D02*
Y1843783D01*
X1928161Y1823783D02*
Y1833783D01*
X1923161Y1828783D02*
X1933161D01*
X1899041Y1813783D02*
X1916042D01*
X1899041Y1843783D02*
X1916042D01*
X1899041Y1813783D02*
Y1843783D01*
X1916042Y1813783D02*
Y1843783D01*
X1907542Y1823783D02*
Y1833783D01*
X1902542Y1828783D02*
X1912542D01*
X1939741Y1810610D02*
X1962741D01*
X1939741Y1856610D02*
X1962741D01*
X1939741Y1810610D02*
Y1856610D01*
X1962741Y1810610D02*
Y1856610D01*
M02*
