M48
;Layer_Color=9474304
;FILE_FORMAT=4:2
METRIC,LZ
;TYPE=PLATED
T01F00S00C0.25
T02F00S00C0.30
T03F00S00C0.33
T04F00S00C0.38
T06F00S00C3.20
T07F00S00C3.90
T08F00S00C4.55
%
T01
X003407Y01059
X007217
X011027
X014837
X018647
T02
X002465Y01036
X002569Y01036
X002679
X002679Y010472
X002569
X002464
X003445Y010083
X003592Y011237
X003713
X003838
Y011114
X004057Y01115
X004208
X004214Y011315
X004056
X004543Y011867
X004669Y011863
X006274Y010472
X006379
X006489
X006489Y01036
X006379
X006275Y01036
X007255Y010083
X007402Y011237
X007523
X007648
Y011114
X007867Y01115
X007866Y011315
X008024
X008018Y01115
X008353Y011867
X008479Y011863
X010084Y010472
X010189
X010299
X010299Y01036
X010189
X010085Y01036
X011065Y010083
X011212Y011237
X011333
X011458
Y011114
X011677Y01115
X011828
X011834Y011315
X011676
X012163Y011867
X012289Y011863
X013894Y010472
X013999
X014109
X014109Y01036
X013999
X013895Y01036
X014875Y010083
X015022Y011237
X015143
X015268
Y011114
X015487Y01115
X015638
X015644Y011315
X015486
X015973Y011867
X016099Y011863
X017704Y010472
X017809
X017919
X017919Y01036
X017809
X017705Y01036
X018685Y010083
X018832Y011237
X018953
X019078
Y011114
X019297Y01115
X019448
X019454Y011315
X019296
X019783Y011867
X019909Y011863
X019904Y011985
X019783Y011987
X016094Y011985
X015973Y011987
X012284Y011985
X012163Y011987
X008474Y011985
X008353Y011987
X004664Y011985
X004543Y011987
T03
X003854Y010633
Y010763
Y010893
X003984
Y010763
Y010633
X007664
Y010763
Y010893
X007794
Y010763
Y010633
X011474
Y010763
Y010893
X011604
Y010763
Y010633
X015284
Y010763
Y010893
X015414
Y010763
Y010633
X019094
Y010763
Y010893
X019224
Y010763
Y010633
X003874Y017208
Y017338
Y017468
X004004
Y017338
Y017208
X007684
Y017338
Y017468
X007814
Y017338
Y017208
X011494
Y017338
Y017468
X011624
Y017338
Y017208
X015304
Y017338
Y017468
X015434
Y017338
Y017208
X019114
Y017338
Y017468
X019244
Y017338
Y017208
X019193Y022763
Y022893
Y023023
X019063
Y022893
Y022763
X015384
Y022893
Y023023
X015254
Y022893
Y022763
X011574
Y022893
Y023023
X011443
Y022893
Y022763
X007764
Y022893
Y023023
X007633
Y022893
Y022763
X003953
Y022893
Y023023
X003824
Y022893
Y022763
T04
X019932Y014692
X019856Y014844
X019932Y014997
X020084
X020237
X020313Y015149
X02016
X020008
X019856
X019932Y015302
X020084
X020237
X020389
X020465Y015454
X020313
X02016
X020008
X020084Y015606
X020237
X020389
X020587Y015593
Y015695
X020688
Y015796
X02079
Y015695
Y015593
X020688
X020587Y015796
X020313Y015759
X02016
X020313Y014844
X019703
X019551
X019398
X019246
X019322Y014997
X019475
X019627
X019779
X019703Y015149
X019551
X019398
X019246
X019322Y015302
X019475
X019627
X019779
X019398Y015454
X019246
X019322Y015606
X019246Y015759
X018941
X019017Y015606
X018941Y015454
X019017Y015302
X018865
X018713
X01856
X018408
X018255
X018103
X017951
X018027Y015454
X018179
X018255Y015606
X018103
X018179Y015759
X018027
X017784Y015803
X017682
Y015701
Y0156
X017581
Y015701
Y015803
X017784Y015701
Y0156
X018027Y015149
X018179
X018332
X018484
X018636
X018789
X018941
X019017Y014997
X018865
X018713
X01856
X018408
X018255
X018103
X018027Y014844
X018484
X018636
X018789
X018941
X019017Y014692
X018865
X018713
X01856
X018408
X019322
X019475
X019627
X019779
X016503Y014844
X016427Y014997
X016274
X016122
X015969
X016046Y015149
X016198
X01635
X016503
X016579Y015302
X016427
X016274
X016122
X015969
X015893Y015149
Y014844
X016046
X016122Y014692
X015969
X016198Y015454
X01635
X016503
X016655
X016579Y015606
X016427
X016274
X01635Y015759
X016503
X016777Y015796
X016878
X01698
Y015695
X016878
X016777
Y015593
X016878
X01698
X015817Y015302
X015665
X015512
X015588Y015454
X015436
X015512Y015606
X015436Y015759
X015131
X015207Y015606
X015131Y015454
X015207Y015302
X015055
X014903
X01475
X014598
X014445
X014293
X014141
X014217Y015454
X014369
X014445Y015606
X014293
X014369Y015759
X014217
X013974Y015803
X013872
Y015701
Y0156
X013771
Y015701
Y015803
X013974Y015701
Y0156
X014217Y015149
X014369
X014522
X014674
X014826
X014979
X015131
X015207Y014997
X015055
X014903
X01475
X014598
X014445
X014293
X014217Y014844
X014674
X014826
X014979
X015131
X015207Y014692
X015055
X014903
X01475
X014598
X015512
X015665
X015817
X015741Y014844
X015588
X015436
X015512Y014997
X015665
X015817
X015741Y015149
X015588
X015436
X01317Y015593
Y015695
Y015796
X013068
Y015695
X012967
Y015593
X013068
X012967Y015796
X012693Y015759
X01254
X012617Y015606
X012769
X012845Y015454
X012693
X01254
X012388
X012464Y015606
Y015302
X012617
X012769
X012693Y015149
X01254
X012388
X012236
X012083
X011931
X012007Y015302
X012159
X012312
Y014997
X012464
X012617
X012693Y014844
X012236
X012083
X011931
X012007Y014997
X012159
Y014692
X012312
X012007
X011855
X011702
X011778Y014844
X011626
X011702Y014997
X011855
X011778Y015149
X011626
X011702Y015302
X011855
X011778Y015454
X011626
X011702Y015606
X011626Y015759
X011321
X011397Y015606
X011321Y015454
X011397Y015302
X011245
X011093
X01094
X010788
X010635
X010483
X010331
X010407Y015454
X010559
X010635Y015606
X010483
X010559Y015759
X010407
X010164Y015803
X010062
Y015701
Y0156
X009961
Y015701
Y015803
X010164Y015701
Y0156
X010407Y015149
X010559
X010712
X010864
X011016
X011169
X011321
X011397Y014997
X011245
X011093
X01094
X010788
X010635
X010483
X010407Y014844
X010864
X011016
X011169
X011321
X011397Y014692
X011245
X011093
X01094
X010788
X008883Y014844
X008807Y014997
X008654
X008502
X008349
X008197
X008045
X008121Y015149
X008273
X008426
X008578
X00873
X008883
X008959Y015302
X008807
X008654
X008502
X008349
X008197
X008045
X007968Y015454
Y015149
Y014844
X008121
X008273
X008426
X008502Y014692
X008349
X008197
X008045
X008578Y015454
X00873
X008883
X009035
X008959Y015606
X008807
X008654
X00873Y015759
X008883
X009157Y015796
X009258
X00936
Y015695
X009258
X009157
Y015593
X009258
X00936
X007892Y015606
X007816Y015759
X007511
X007587Y015606
X007511Y015454
X007587Y015302
X007435
X007283
X00713
X006978
X006825
X006673
X006521
X006597Y015454
X006749
X006825Y015606
X006673
X006749Y015759
X006597
X006354Y015803
X006252
Y015701
Y0156
X006151
Y015701
Y015803
X006354Y015701
Y0156
X006597Y015149
X006749
X006902
X007054
X007206
X007359
X007511
X007587Y014997
X007435
X007283
X00713
X006978
X006825
X006673
X006597Y014844
X007054
X007206
X007359
X007511
X007587Y014692
X007435
X007283
X00713
X006978
X007892
X007816Y014844
X007892Y014997
X007816Y015149
X007892Y015302
X007816Y015454
X00555Y015593
Y015695
Y015796
X005448
Y015695
X005347
Y015593
X005448
X005347Y015796
X005073Y015759
X00492
X004997Y015606
X005149
X005225Y015454
X005073
X00492
X004768
X004844Y015606
Y015302
X004997
X005149
X005073Y015149
X00492
X004768
X004616
X004463
X004311
X004158
X004006
X004082Y015302
X004235
X004387
X004539
X004692
Y014997
X004844
X004997
X005073Y014844
X004616
X004463
X004311
X004158
X004006
X004082Y014997
X004235
X004387
X004539
Y014692
X004692
X004387
X004235
X004082
X004158Y015454
X004006
X004082Y015606
X004006Y015759
X003701
X003777Y015606
X003701Y015454
X003777Y015302
X003625
X003473
X00332
X003168
X003015
X002863
X002711
X002787Y015454
X002939
X003015Y015606
X002863
X002939Y015759
X002787
X002544Y015803
X002442
Y015701
Y0156
X002341
Y015701
Y015803
X002544Y015701
Y0156
X002787Y015149
X002939
X003092
X003244
X003396
X003549
X003701
X003777Y014997
X003625
X003473
X00332
X003168
X003015
X002863
X002787Y014844
X003244
X003396
X003549
X003701
X003777Y014692
X003625
X003473
X00332
X003168
X003015Y015911
X002863
X002711
X002634Y016064
X002482
X00233
Y016368
X002482
X002634
X002558Y016216
X002839Y016233
X00294
Y016335
X003042
Y016233
Y016131
X00294
X002839
Y016335
X003244Y016368
X003396
X003549
X003701
X003777Y016216
X003625
X003701Y016064
X003549
X003396
X003244
X003777Y015911
X00332Y017435
X003244Y017588
X00332Y01774
X003573Y017933
X00393Y018045
Y01774
Y018654
X003739Y018834
X003625Y019264
X003473
X00332
X003396Y019416
X003549
X003701
X003854
X00393Y019264
X003244Y019416
X003048Y019444
X002946
Y019342
X003048
Y01924
X002946
X002845
Y019342
Y019444
X002476Y018894
X002375
X002273
Y018793
Y018691
X002375
Y018793
X002476
Y018691
X002482Y018502
X00233
X002406Y01835
X002558
X002482Y018197
X00233
X002406Y018045
X002558
X002482Y017892
X00233
X002406Y01774
X002558
X002711
X002863
X002939Y017588
X002787
X002634
X002482
X00233
X002406Y017435
X002558
X002711
X002863
X002406Y01713
X002375Y016883
X002273
Y016782
X002375
X002476
Y01668
X002375
X002273
X002476Y016883
X004006Y016368
X004158
X004311
X004463
X004616
X004846Y016354
X004948
X005049
Y016253
X004948
X004846
Y016151
X004948
X005049
X005225Y016064
X005378
X00553
Y016368
X005378
X005225
X005301Y016216
X005149Y015911
X004997
X004844
X004616Y016064
X004463
X004311
X004158
X004006
X004082Y016216
X004235
Y015911
X004082
X004204Y017871
X004387Y01774
Y018045
Y018654
X004539
X004692
X004768Y018502
X00492
X005073
X005378
X00553
X005524Y018691
X005626
Y018793
Y018894
X005524
Y018793
X005423
Y018691
Y018894
X005378Y019112
X00553
X005606Y019264
X005454
X005301
X005378Y019416
X00553
X005048Y019444
X004946
Y019342
X005048
Y01924
X004946
X004845
Y019342
Y019444
X004616Y019416
X004463
X004311
X004158
X004006
X004387Y019264
X004539
X004616Y019112
X004463
X004311
X004387Y018959
X004539
X004692
X004616Y018807
X004463
X004311
X005301Y01835
X005454
X005606
X00553Y018197
X005378
X005454Y018045
X005606
X00553Y017892
X005378
X005454Y01774
X005606
X00553Y017588
X005378
X005454Y017435
X005606
X00553Y017283
X005378
X005454Y01713
X005606
X005626Y016894
Y016793
Y016691
X005524
Y016793
Y016894
X005423
Y016793
Y016691
X005301Y01713
Y017435
Y01774
Y018045
X006216
X006368
X006292Y018197
X00614
X006216Y01835
X006368
X006292Y018502
X00614
X006185Y018691
X006083
Y018793
Y018894
X006185
X006287
Y018793
X006185
X006287Y018691
X006292Y017892
X00614
X006216Y01774
X006368
X006521
X006673
X006749Y017588
X006597
X006444
X006292
X00614
X006216Y017435
X006368
X006521
X006673
X00713
X007054Y017588
X00713Y01774
X007383Y017933
X00774Y018045
Y01774
Y018654
X007549Y018834
X007435Y019264
X007283
X00713
X007206Y019416
X007359
X007511
X007664
X007816
X00774Y019264
X007054Y019416
X006858Y019444
X006756
Y019342
X006858
Y01924
X006756
X006655
Y019342
Y019444
X006216Y01713
X006185Y016883
X006083
Y016782
X006185
X006287
Y01668
X006185
X006083
X00614Y016368
X006292
X006444
X006368Y016216
X006444Y016064
X006292
X00614
X006521Y015911
X006673
X006825
X006852Y016131
Y016233
Y016335
X00675
Y016233
X006649
Y016131
X00675
X006649Y016335
X007054Y016368
X007206
X007359
X007511
X007587Y016216
X007435
X007511Y016064
X007359
X007206
X007054
X007587Y015911
X007892
X007816Y016064
X007892Y016216
X007816Y016368
X006287Y016883
X004997Y01713
X004692Y017435
X008014Y017871
X008197Y01774
Y018045
Y018654
X008349
X008502
X008578Y018502
X00873
X008883
X009188
X00934
X009335Y018691
X009436
Y018793
Y018894
X009335
Y018793
X009233
Y018691
Y018894
X009188Y019112
X00934
X009416Y019264
X009264
X009111
X009188Y019416
X00934
X008858Y019444
X008756
Y019342
X008858
Y01924
X008756
X008655
Y019342
Y019444
X008426Y019416
X008273
X008121
X007968
X008197Y019264
X008349
X008426Y019112
X008273
X008121
X008197Y018959
X008349
X008502
X008426Y018807
X008273
X008121
X009111Y01835
X009264
X009416
X00934Y018197
X009188
X009264Y018045
X009416
X00934Y017892
X009188
X009264Y01774
X009416
X00934Y017588
X009188
X009264Y017435
X009416
X00934Y017283
X009188
X009264Y01713
X009416
X009436Y016894
Y016793
Y016691
X009335
Y016793
Y016894
X009233
Y016793
Y016691
X009188Y016368
X00934
Y016064
X009188
X009035
X009111Y016216
X009035Y016368
X008859Y016354
X008758
Y016253
X008859
Y016151
X008758
X008656
Y016253
Y016354
X008426Y016368
X008273
X008121
X007968
X008045Y016216
X008121Y016064
X008273
X008426
X008654Y015911
X008807
X008959
X008045
X007968Y016064
X008807Y01713
X009111
Y017435
Y01774
Y018045
X010026
X010178
X010102Y018197
X00995
X010026Y01835
X010178
X010102Y018502
X00995
X009995Y018691
X009893
Y018793
Y018894
X009995
X010096
Y018793
X009995
X010096Y018691
X010102Y017892
X00995
X010026Y01774
X010178
X010331
X010483
X010559Y017588
X010407
X010254
X010102
X00995
X010026Y017435
X010178
X010331
X010483
X01094
X010864Y017588
X01094Y01774
X011193Y017933
X01155Y018045
Y01774
X011824Y017871
X01155Y018654
X011359Y018834
X011245Y019264
X011093
X01094
X011016Y019416
X011169
X011321
X011474
X011626
X011778
X01155Y019264
X010864Y019416
X010668Y019444
X010566
Y019342
X010668
Y01924
X010566
X010465
Y019342
Y019444
X010026Y01713
X009995Y016883
X009893
Y016782
X009995
X010096
Y01668
X009995
X009893
X00995Y016368
X010102
X010254
X010178Y016216
X010254Y016064
X010102
X00995
X010331Y015911
X010483
X010635
X010662Y016131
Y016233
Y016335
X01056
Y016233
X010459
Y016131
X01056
X010459Y016335
X010864Y016368
X011016
X011169
X011321
X011397Y016216
X011245
X011321Y016064
X011169
X011016
X010864
X011397Y015911
X011702
X011855
X011778Y016064
X011626
X011702Y016216
X011855
X011778Y016368
X011626
X010096Y016883
X008502Y017435
X012312
X012921
X013074
X013226
X01315Y017588
X012998
X013074Y01774
X013226
X01315Y017892
X012998
X013074Y018045
X013226
X01315Y018197
X012998
X013074Y01835
X013226
X01315Y018502
X012998
X012921Y01835
Y018045
Y01774
X012998Y017283
X01315
X013226Y01713
X013074
X012921
X012617
X013043Y016894
X013145
X013246
Y016793
Y016691
X013145
Y016793
X013043
Y016691
X012998Y016368
X01315
Y016064
X012998
X012845
X012921Y016216
X012845Y016368
X012669Y016354
X012568
Y016253
X012669
Y016151
X012568
X012466
Y016253
Y016354
X012236Y016368
X012083
X011931
Y016064
X012083
X012236
X012464Y015911
X012617
X012769
X01376Y016064
X013912
X014064
X014141Y015911
X014293
X014445
X014472Y016131
Y016233
Y016335
X01437
Y016233
X014269
Y016131
X01437
X014269Y016335
X014064Y016368
X013912
X01376
X013805Y01668
X013907
Y016782
Y016883
X013805
X013703
Y016782
X013805
X013703Y01668
X013836Y01713
Y017435
X013988
X014141
X014293
X014369Y017588
X014217
X014064
X013912
X01376
X013836Y01774
X013988
X014141
X014293
X01475
X014674Y017588
X01475Y017435
X015003Y017933
X01536Y018045
Y01774
X015634Y017871
X015817Y01774
Y018045
Y018654
X015741Y018807
X015817Y018959
X015741Y019112
X015817Y019264
X015741Y019416
X015588
X015436
X015284
X015131
X014979
X014826
X014674
X014478Y019444
X014376
Y019342
X014478
Y01924
X014376
X014275
Y019342
Y019444
X01475Y019264
X014903
X015055
X01536
Y018654
X015169Y018834
X013907Y018793
Y018894
X013805
X013703
Y018793
Y018691
X013805
Y018793
X013907Y018691
X013912Y018502
X01376
X013836Y01835
X013988
X013912Y018197
X01376
X013836Y018045
X013988
X013912Y017892
X01376
X013246Y018691
Y018793
Y018894
X013145
Y018793
X013043
Y018691
X013145
X013043Y018894
X012998Y019112
X01315
X013226Y019264
X013074
X012921
X012998Y019416
X01315
X012668Y019444
X012566
Y019342
X012668
Y01924
X012566
X012465
Y019342
Y019444
X012236Y019416
X012083
X011931
X012007Y019264
X012159
X012236Y019112
X012083
X011931
X012007Y018959
X012159
X012312
X012236Y018807
X012083
X011931
X012007Y018654
X012159
X012312
X012388Y018502
X01254
X012693
X012007Y018045
Y01774
X013988Y016216
X014674Y016368
X014826
X014979
X015131
X015207Y016216
X015055
X015131Y016064
X014979
X014826
X014674
X015207Y015911
X015512
X015665
X015741Y016064
X015588
X015436
X015512Y016216
X015665
X015741Y016368
X015588
X015436
X015893
X016046
X016276Y016354
X016378
X016479
Y016253
X016378
X016276
Y016151
X016378
X016479
X016655Y016064
X016808
X01696
Y016368
X016808
X016655
X016731Y016216
X016579Y015911
X016427
X016274
X016046Y016064
X015893
X016853Y016691
Y016793
X016954
X017056
Y016894
X016954
X016853
X016884Y01713
X017036
X01696Y017283
X016808
X016884Y017435
X017036
X01696Y017588
X016808
X016884Y01774
X017036
X01696Y017892
X016808
X016884Y018045
X017036
X01696Y018197
X016808
X016884Y01835
X017036
X01696Y018502
X016808
X016731Y01835
Y018045
Y01774
Y017435
Y01713
X016427
X016122Y017435
X016198Y018502
X01635
X016503
X016122Y018654
X015969
X016046Y018807
X015893
X015969Y018959
X016122
X016046Y019112
X015893
X015969Y019264
X016046Y019416
X015893
X016275Y019444
X016376
X016478
Y019342
X016376
X016275
Y01924
X016376
X016478
X016731Y019264
X016884
X017036
X01696Y019416
X016808
Y019112
X01696
X016954Y018894
X017056
Y018793
Y018691
X016954
Y018793
X016853
Y018691
Y018894
X017513
Y018793
Y018691
X017615
Y018793
Y018894
X017716
Y018793
Y018691
X017722Y018502
X01757
X017646Y01835
X017798
X017722Y018197
X01757
X017646Y018045
X017798
X017722Y017892
X01757
X017646Y01774
X017798
X017951
X018103
X018179Y017588
X018027
X017874
X017722
X01757
X017646Y017435
X017798
X017951
X018103
X01856
X018484Y017588
X01856Y01774
X018813Y017933
X01917Y018045
Y01774
X019444Y017871
X019627Y01774
Y018045
Y018654
X019779
X019703Y018807
X019551
X019627Y018959
X019779
X019703Y019112
X019551
X019627Y019264
X019779
X019703Y019416
X019551
X019398
X019246
X019094
X018941
X018789
X018636
X018484
X018288Y019444
X018186
Y019342
X018288
Y01924
X018186
X018085
Y019342
Y019444
X01856Y019264
X018713
X018865
X01917
Y018654
X018979Y018834
X018941Y016368
X018789
X018636
X018484
X018282Y016335
X01818
Y016233
X018282
Y016131
X01818
X018079
Y016233
Y016335
X017874Y016368
X017722
X01757
Y016064
X017722
X017874
X017951Y015911
X018103
X018255
X018484Y016064
X018636
X018789
X018941
X019017Y016216
X018865
X019017Y015911
X019322
X019475
X019551Y016064
X019703
Y016368
X019551
X019398
X019246
X019322Y016216
X019475
X019398Y016064
X019246
X017798Y016216
X017716Y01668
Y016782
Y016883
X017615
X017513
Y016782
X017615
Y01668
X017513
X017056Y016691
X016954
X017646Y01713
X020237
X020541
X020694
X020846
X02077Y017283
X020618
X020694Y017435
X020846
X02077Y017588
X020618
X020694Y01774
X020846
X02077Y017892
X020618
X020694Y018045
X020846
X02077Y018197
X020618
X020694Y01835
X020846
X02077Y018502
X020618
X020541Y01835
Y018045
Y01774
Y017435
X019932
X020008Y018502
X02016
X020313
X019932Y018654
X019856Y018807
X019932Y018959
X019856Y019112
Y019416
X020085Y019444
X020186
X020288
Y019342
X020186
X020085
Y01924
X020186
X020288
X020541Y019264
X020694
X020846
X02077Y019416
X020618
Y019112
X02077
X020765Y018894
X020866
Y018793
Y018691
X020765
Y018793
X020663
Y018691
Y018894
Y016894
X020765
X020866
Y016793
Y016691
X020765
Y016793
X020663
Y016691
X020618Y016368
X02077
Y016064
X020618
X020465
X020541Y016216
X020465Y016368
X020289Y016354
X020188
Y016253
X020289
Y016151
X020188
X020086
Y016253
Y016354
X019856Y016368
Y016064
X020084Y015911
X020237
X020389
X020262Y0204
X020186Y020552
X020033
X019881
X019957Y020705
X02011
X020262
X020338Y020857
X020186
X020033
X019881
X019957Y02101
X02011
X020262
X020414
X020338Y021162
X020186
X020033
X02011Y021314
X020262
X020338Y021467
X020186
X020033
X020035Y021707
Y021808
X020137
Y02191
X020239
Y021808
Y021707
X020137
X020035Y02191
X020414Y021924
X020567
X020719
Y021619
X020567
X020414
X020491Y021772
X020536Y021352
X020638
X020739
Y02125
X020638
X020536
Y021149
X020638
X020739
X020714Y022247
X020815
Y022348
Y02245
X020714
Y022348
X020612
Y022247
Y02245
X020643Y022686
X020795
X020719Y022838
X020567
X020643Y022991
X020795
X020719Y023143
X020567
X020643Y023296
X020795
X020719Y023448
X020567
X020643Y0236
X020795
X020719Y023753
X020567
X020491Y0236
Y023296
Y022991
Y022686
X020186
X019881Y022991
Y020248
X019729
X019576
X019424
X019271
X019348Y0204
X0195
X019652
X019805
X019729Y020552
X019576
X019424
X019271
X019348Y020705
X0195
X019652
X019805
X019729Y020857
X019576
X019424
X019271
X019348Y02101
X019195
X019271Y021162
X019195Y021314
X019271Y021467
X019424
X0195Y021619
X019652
X019805
Y021924
X019652
X0195
X019348
X019195
X019271Y021772
X019424
X019348Y021619
X019195
X01889
X018738
X018586
X018433
X018231Y021687
Y021789
Y02189
X018129
Y021789
X018028
Y021687
X018129
X018205Y021467
X018052
X0179
X017976Y021314
X018128
X018205Y021162
X018052
X018128Y02101
X017976
X018052Y020857
X018205
X018357
X018509
X018662
X018814
X018967
X01889Y02101
X018967Y021162
X01889Y021314
X018967Y021467
Y021772
X018814
X01889Y021924
X018738
X018586
X018433
X018028Y02189
X017824Y021924
X017671
X017519
Y021619
X017671
X017824
X017747Y021772
X017733Y021358
X017631
Y021257
Y021155
X01753
Y021257
Y021358
X017733Y021257
Y021155
X0179Y020857
X017976Y020705
X018128
X018281
X018433
X018586
X018738
X01889
X018967Y020552
X018814
X018662
X018509
X018357
X018205
X018052
X017976Y0204
X018433
X018586
X018738
X01889
X018967Y020248
X018814
X018662
X018509
X018357
X019195Y0204
Y020705
X019119Y023296
Y0236
X019393Y023426
X019576Y023296
Y0236
X018762Y023488
X018509Y023296
X018433Y023143
X018509Y022991
X018052
X0179
X017747
X017595
X017671Y023143
X017824
X017976
X018128
X018052Y023296
X0179
X017747
X017595
X017671Y023448
X017519
X017595Y0236
X017747
X017671Y023753
X017519
X016909
X016757
X016833Y0236
X016985
X016909Y023448
X016757
X016833Y023296
X016985
X016909Y023143
X016757
X016833Y022991
X016985
X016909Y022838
X016757
X016833Y022686
X016985
X017005Y02245
Y022348
Y022247
X016904
Y022348
Y02245
X016802
Y022348
Y022247
X016757Y021924
X016909
Y021619
X016757
X016604
X016681Y021772
X016604Y021924
X016429Y02191
X016327
Y021808
X016429
Y021707
X016327
X016225
Y021808
Y02191
X015995Y021924
Y021619
X016223Y021467
X016376
X016528
X016452Y021314
X0163
X016376Y021162
X016528
X016726Y021149
Y02125
X016827
Y021352
X016929
Y02125
Y021149
X016827
X016726Y021352
X016604Y02101
X016452
X0163
X016147
X016223Y021162
Y020857
X016376
X016528
X016452Y020705
X0163
X016147
X015995
X016071Y020857
X015919
Y020552
X016071
X016223
X016376
X016452Y0204
X015995
X016071Y020248
X015919
X016376Y022686
X016681
Y022991
Y023296
Y0236
X016071Y022991
X017519Y023143
X017595Y022686
X017564Y022439
X017462
Y022337
X017564
X017666
Y022236
X017564
X017462
X017666Y022439
X015842Y021924
X01569
X015538
X015385
X015461Y021772
X015614
X01569Y021619
X015842
X015538
X015385
X015461Y021467
X015614
X015385Y021314
X015461Y021162
X015538Y02101
X015385
X015461Y020857
X015614
X015766
X015842Y020705
X01569
X015538
X015385
X015461Y020552
X015614
X015766
X015842Y0204
X01569
X015538
X015385
X015461Y020248
X015614
X015766
X015157
X015004
X014852
X014699
X014547
X014623Y0204
X014776
X014928
X01508
X015157Y020552
X015004
X014852
X014699
X014547
X014395
X014242
X014318Y020705
X014471
X014623
X014776
X014928
X01508
X015157Y020857
X015004
X014852
X014699
X014547
X014395
X014242
X01409
X014166Y02101
X014318
X014395Y021162
X014242
X014318Y021314
X014166
X014242Y021467
X014395
X014421Y021687
Y021789
Y02189
X014319
Y021789
X014218
Y021687
X014319
X014218Y02189
X014014Y021924
X013861
X013709
Y021619
X013861
X014014
X01409Y021467
X013923Y021358
X013821
Y021257
Y021155
X01372
Y021257
Y021358
X013923Y021257
Y021155
X013937Y021772
X013856Y022236
Y022337
Y022439
X013754
X013652
Y022337
X013754
Y022236
X013652
X013195Y022247
Y022348
Y02245
X013094
Y022348
X012992
Y022247
X013094
X012992Y02245
X013023Y022686
X013175
X013099Y022838
X012947
X013023Y022991
X013175
X013099Y023143
X012947
X013023Y023296
X013175
X013099Y023448
X012947
X013023Y0236
X013175
X013099Y023753
X012947
X012871Y0236
Y023296
Y022991
Y022686
X012566
X012261Y022991
X011956Y023296
Y0236
X012032Y021924
X012185
X012415Y02191
X012517
X012619
Y021808
X012517
X012415
Y021707
X012517
X012619
X012794Y021619
X012947
X013099
X013119Y021352
X013018
Y02125
X013119
Y021149
X013018
X012916
Y02125
Y021352
X012642Y021314
X01249
X012566Y021467
X012718
Y021162
X012566
X012413
X01249Y02101
X012642
X012794
X012718Y020857
X012566
X012413
X012261
X012109
X011956
X012032Y020705
X012185
X012337
X01249
X012642
X012566Y020552
X012413
X012261
X012109
X011956
X012032Y0204
X012185
X012261Y020248
X012109
X011956
X012642Y0204
X012337Y02101
X012413Y021467
X012185Y021619
X012032
X012871Y021772
X012947Y021924
X013099
X012794
X013785Y022686
Y022991
X013937
X01409
X014242
X014318Y023143
X014166
X014014
X013861
X013709
X013785Y023296
X013937
X01409
X014242
X014699
X014623Y023143
X014699Y022991
X014952Y023488
X015309Y0236
Y023296
X015583Y023426
X015766Y023296
Y0236
X013937
X013785
X013861Y023753
X013709
Y023448
X013861
X014623Y021924
X014776
X014928
X01508
X015157Y021772
X015004
X01508Y021619
X014928
X014776
X014623
X015157Y021467
X01508Y021314
X015157Y021162
X01508Y02101
X014166Y020705
Y0204
X01188
X011728
X011575
X011651Y020552
X011804
X01188Y020705
X011728
X011575
X011651Y020857
X011804
X011728Y02101
X011575
X011651Y021162
X011575Y021314
X011651Y021467
X011804
X01188Y021619
X011728
X011575
X011651Y021772
X011804
X01188Y021924
X011728
X011575
X01127
X011118
X010966
X010813
X010611Y02189
X010509
Y021789
X010611
Y021687
X010509
X010408
Y021789
Y02189
X010204Y021924
X010051
X009899
Y021619
X010051
X010204
X01028Y021467
X010432
X010585
X010508Y021314
X010356
X010432Y021162
X010585
X010508Y02101
X010356
X010432Y020857
X010585
X010737
X010889
X011042
X011194
X011347
X01127Y02101
X011347Y021162
X01127Y021314
X011347Y021467
X01127Y021619
X011118
X010966
X010813
X011194Y021772
X011347
X01127Y020705
X011118
X010966
X010813
X010661
X010508
X010356
X010432Y020552
X010585
X010737
X010889
X011042
X011194
X011347
X01127Y0204
X011118
X010966
X010813
X010889Y020248
X011042
X011194
X011347
X011651
X011804
X010737
X010356Y0204
X01028Y020857
X010113Y021155
X010011
X00991
Y021257
X010011
Y021358
X010113
Y021257
X00991Y021358
X009309Y021352
X009207
Y02125
X009309
Y021149
X009207
X009106
Y02125
Y021352
X009137Y021619
X009289
Y021924
X009137
X008984
X008809Y02191
X008707
Y021808
X008809
Y021707
X008707
X008605
Y021808
Y02191
X008375Y021924
X008222
X00807
X007994Y021772
X00807Y021619
X008222
X008375
X008603Y021467
X008756
X008908
X008984Y021619
X009061Y021772
X009182Y022247
Y022348
X009284
X009385
Y02245
X009284
X009182
X009213Y022686
X009365
X009289Y022838
X009137
X009213Y022991
X009365
X009289Y023143
X009137
X009213Y023296
X009365
X009289Y023448
X009137
X009213Y0236
X009365
X009289Y023753
X009137
X009061Y0236
Y023296
Y022991
Y022686
X008756
X008451Y022991
X008146Y023296
Y0236
X007963Y023426
X009899Y023448
X010051
X010127Y0236
X009975
X010051Y023753
X009899
X009975Y023296
X010127
X01028
X010432
X010508Y023143
X010356
X010204
X010051
X009899
X009975Y022991
X010127
X01028
X010432
X010889
X010813Y023143
X010889Y023296
X011142Y023488
X011499Y0236
Y023296
X011773Y023426
X009975Y022686
X009944Y022439
X009843
Y022337
X009944
X010046
Y022236
X009944
X009843
X010046Y022439
X010127Y021772
X009385Y022247
X009284
X008832Y021314
X00868
X008756Y021162
X008908
X008984Y02101
X008832
X00868
X008527
X008603Y021162
Y020857
X008756
X008908
X008832Y020705
X00868
X008527
X008375
X008222
X00807
X008146Y020857
X008299
X008451
Y020552
X008603
X008756
X008832Y0204
X008375
X008222
X00807
X008146Y020552
X008299
Y020248
X008451
X008146
X007994
Y020552
Y020857
Y021467
X007841
X007918Y021619
X007765
X007841Y021772
X007918Y021924
X007765
X00746
X007308
X007156
X007003
X006801Y02189
X006699
Y021789
X006801
Y021687
X006699
X006598
Y021789
Y02189
X006394Y021924
X006241
X006089
Y021619
X006241
X006394
X00647Y021467
X006622
X006775
X006698Y021314
X006546
X006622Y021162
X006775
X006698Y02101
X006546
X006622Y020857
X006775
X006927
X007079
X007232
X007384
X007537
X00746Y02101
X007537Y021162
X00746Y021314
X007537Y021467
X00746Y021619
X007308
X007156
X007003
X007384Y021772
X007537
X007765Y021314
X007841Y021162
X007918Y02101
X007765
X007841Y020857
X007918Y020705
X007765
X007841Y020552
X007918Y0204
X007765
X007841Y020248
X007537
X007384
X007232
X007079
X006927
X007003Y0204
X007156
X007308
X00746
X007537Y020552
X007384
X007232
X007079
X006927
X006775
X006622
X006698Y020705
X006851
X007003
X007156
X007308
X00746
X006546
X00647Y020857
X006303Y021155
X006201
X0061
Y021257
X006201
Y021358
X006303
Y021257
X0061Y021358
X005499Y021352
X005397
Y02125
X005499
Y021149
X005397
X005296
Y02125
Y021352
X005327Y021619
X005479
Y021924
X005327
X005174
X004999Y02191
X004897
Y021808
X004999
Y021707
X004897
X004795
Y021808
Y02191
X004565Y021924
X004412
X00426
X004108
X004184Y021772
X004031
X004108Y021619
X00426
X004412
X004565
X004793Y021467
X004946
X005098
X005174Y021619
X005251Y021772
X005372Y022247
Y022348
X005474
X005575
Y02245
X005474
X005372
X005403Y022686
X005555
X005479Y022838
X005327
X005403Y022991
X005555
X005479Y023143
X005327
X005403Y023296
X005555
X005479Y023448
X005327
X005403Y0236
X005555
X005479Y023753
X005327
X005251Y0236
Y023296
Y022991
Y022686
X004946
X004641Y022991
X004336Y023296
Y0236
X004153Y023426
X006089Y023448
X006241
X006317Y0236
X006165
X006241Y023753
X006089
X006165Y023296
X006317
X00647
X006622
X006698Y023143
X006546
X006394
X006241
X006089
X006165Y022991
X006317
X00647
X006622
X007079
X007003Y023143
X007079Y023296
X007332Y023488
X007689Y0236
Y023296
X006165Y022686
X006134Y022439
X006033
Y022337
X006134
X006236
Y022236
X006134
X006033
X006236Y022439
X006317Y021772
X005575Y022247
X005474
X005022Y021314
X00487
X004946Y021162
X005098
X005174Y02101
X005022
X00487
X004717
X004793Y021162
Y020857
X004946
X005098
X005022Y020705
X00487
X004717
X004565
X004412
X00426
X004108
X004184Y020857
X004336
X004489
X004641
Y020552
X004793
X004946
X005022Y0204
X004565
X004412
X00426
X004108
X004184Y020552
X004336
X004489
Y020248
X004641
X004336
X004184
X004031
Y020552
Y020857
X004108Y02101
X004031Y021162
Y021467
X004184
X006546Y0204
X003955
X00365
X003498
X003346
X003193
X003269Y020552
X003422
X003574
X003727
X00365Y020705
X003498
X003346
X003193
X003041
X002888
X002736
X002812Y020857
X002965
X003117
X003269
X003422
X003574
X003727
X00365Y02101
X003727Y021162
X00365Y021314
X003727Y021467
X00365Y021619
X003498
X003346
X003193
X002991Y021687
Y021789
Y02189
X002889
Y021789
X002788
Y021687
X002889
X002965Y021467
X002812
X00266
X002736Y021314
X002888
X002965Y021162
X002812
X002888Y02101
X002736
X00266Y020857
X002812Y020552
X002965
X003117
Y020248
X003269
X003422
X003574
X003727
X003955Y020705
Y02101
Y021314
Y021619
Y021924
X00365
X003498
X003346
X003193
X002788Y02189
X002584Y021924
X002431
X002279
Y021619
X002431
X002584
X002507Y021772
X002493Y021358
X002391
Y021257
Y021155
X00229
Y021257
Y021358
X002493Y021257
Y021155
X002736Y0204
X002426Y022236
Y022337
Y022439
X002324
X002223
Y022337
X002324
Y022236
X002223
X002355Y022686
Y022991
X002507
X00266
X002812
X002888Y023143
X002736
X002584
X002431
X002279
X002355Y023296
X002507
X00266
X002812
X003269
X003193Y023143
X003269Y022991
X003522Y023488
X003879Y0236
Y023296
X002431Y023448
X002279
X002355Y0236
X002507
X002431Y023753
X002279
X003574Y021772
X003727
X003879Y02421
X003688Y02439
X003574Y02482
X003422
X003269
X003346Y024972
X003498
X00365
X003803
X003955
X003879Y02482
X003193Y024972
X002997Y024999
X002895
Y024898
X002997
Y024796
X002895
X002794
Y024898
Y024999
X002426Y02445
X002324
X002223
Y024348
Y024247
X002324
Y024348
X002426
Y024247
X002431Y024058
X002279
X002355Y023905
X002507
X004336Y02421
X004489
X004641
X004717Y024058
X00487
X005022
X005327
X005479
X005474Y024247
X005575
Y024348
Y02445
X005474
Y024348
X005372
Y024247
Y02445
X005327Y024667
X005479
X005555Y02482
X005403
X005251
X005327Y024972
X005479
X004997Y024999
X004896
Y024898
X004997
Y024796
X004896
X004794
Y024898
Y024999
X004565Y024972
X004412
X00426
X004108
X004336Y02482
X004489
X004565Y024667
X004412
X00426
X004336Y024515
X004489
X004641
X004565Y024362
X004412
X00426
X005251Y023905
X005403
X005555
X006165
X006317
X006241Y024058
X006089
X006134Y024247
X006033
Y024348
Y02445
X006134
X006236
Y024348
X006134
X006236Y024247
X006604Y024796
Y024898
X006706
Y024999
X006807
Y024898
Y024796
X006706
X006604Y024999
X007003Y024972
X007156
X007308
X00746
X007613
X007765
X007918
X007689Y02482
X007384
X007232
X007079
X007499Y02439
X007689Y02421
X008146
X008299
X008451
X008527Y024058
X00868
X008832
X009137
X009289
X009284Y024247
X009385
Y024348
Y02445
X009284
Y024348
X009182
Y024247
Y02445
X009137Y024667
X009289
X009365Y02482
X009213
X009061
X009137Y024972
X009289
X008807Y024999
X008706
Y024898
X008807
Y024796
X008706
X008604
Y024898
Y024999
X008375Y024972
X008222
X00807
X008146Y02482
X008299
X008375Y024667
X008222
X00807
X008146Y024515
X008299
X008451
X008375Y024362
X008222
X00807
X009061Y023905
X009213
X009365
X009975
X010127
X010051Y024058
X009899
X009944Y024247
X009843
Y024348
Y02445
X009944
X010046
Y024348
X009944
X010046Y024247
X010414Y024796
Y024898
X010515
Y024999
X010617
Y024898
Y024796
X010515
X010414Y024999
X010813Y024972
X010966
X011118
X01127
X011423
X011575
X011728
X01188
Y024667
Y024362
X011499Y02421
X011308Y02439
X011194Y02482
X011042
X010889
X011499
X011956
X012109
X012185Y024972
X012032
Y024667
X012185
X012261Y024515
X012109
X011956
X012032Y024362
X012185
X012261Y02421
X012109
X011956
X012337Y024058
X01249
X012642
X012947
X013099
X013094Y024247
X013195
Y024348
Y02445
X013094
Y024348
X012992
Y024247
Y02445
X012947Y024667
X013099
X013175Y02482
X013023
X012871
X012947Y024972
X013099
X012617Y024999
X012515
Y024898
X012617
Y024796
X012515
X012414
Y024898
Y024999
X012871Y023905
X013023
X013175
X013785
X013937
X013861Y024058
X013709
X013754Y024247
X013652
Y024348
Y02445
X013754
X013856
Y024348
X013754
X013856Y024247
X014224Y024796
Y024898
X014326
Y024999
X014427
Y024898
Y024796
X014326
X014224Y024999
X014623Y024972
X014776
X014928
X01508
X015233
X015385
X015538
X01569
X015842
X015766Y02482
X015842Y024667
X01569
X015766Y024515
X015842Y024362
X01569
X015766Y02421
X015309
X015118Y02439
X015004Y02482
X014852
X014699
X015309
X015919
X015995Y024972
X016224Y024999
X016326
X016427
Y024898
X016326
X016224
Y024796
X016326
X016427
X016681Y02482
X016833
X016985
X016909Y024972
X016757
Y024667
X016909
X016904Y02445
X017005
Y024348
Y024247
X016904
Y024348
X016802
Y024247
Y02445
X016757Y024058
X016909
X016985Y023905
X016833
X016681
X016452Y024058
X0163
X016147
X016071Y02421
X015919
X015995Y024362
X016071Y024515
X015919
X015995Y024667
X017462Y02445
Y024348
Y024247
X017564
Y024348
Y02445
X017666
Y024348
Y024247
X017671Y024058
X017519
X017595Y023905
X017747
X018034Y024796
Y024898
X018135
Y024999
X018237
Y024898
Y024796
X018135
X018034Y024999
X018433Y024972
X018586
X018738
X01889
X019043
X019195
X019348
X0195
X019652
X019805
X019729Y02482
X019576
X019652Y024667
X019805
X019729Y024515
X019576
X019652Y024362
X019805
X019729Y02421
X019576
X0195Y024362
Y024667
X019119Y02482
X018814
X018662
X018509
X018929Y02439
X019119Y02421
X019881
X019957Y024058
X02011
X020262
X020567
X020719
X020714Y024247
X020815
Y024348
Y02445
X020714
Y024348
X020612
Y024247
Y02445
X020567Y024667
X020719
X020795Y02482
X020643
X020491
X020567Y024972
X020719
X020237Y024999
X020135
Y024898
X020237
Y024796
X020135
X020034
Y024898
Y024999
X019881Y024515
X020491Y023905
X020643
X020795
T06
X002959Y010443
X004959
X006769
X008769
X010579
X012579
X014389
X016389
X018199
X020199
Y012443
X018199
X016389
X014389
X012579
X010579
X008769
X006769
X004959
X002959
X002946Y016793
Y018793
X004946
X006756
Y016793
X004946
X008756
X010566
Y018793
X008756
X012566
X014376
Y016793
X012566
X016376
X018186
Y018793
X016376
X020186
Y016793
X020135Y022348
X018135
X016326
X014326
X012515
X010515
X008706
X006706
X004896
X002895
Y024348
X004896
X006706
X008706
X010515
X012515
X014326
X016326
X018135
X020135
T07
X015899Y015685
X018619
X019709
X014809
X012089
X010999
X008279
X007189
X004469
X003379
X018568Y02124
X019659
X015849
X014759
X012039
X010949
X008229
X007139
X004419
X003328
T08
X018841Y013391
X019561
X015751
X015031
X011941
X011221
X008131
X007411
X004321
X003601
M30
