G04*
G04 #@! TF.GenerationSoftware,Altium Limited,Altium Designer,26.3.0 (6)*
G04*
G04 Layer_Color=39423*
%FSLAX44Y44*%
%MOMM*%
G71*
G04*
G04 #@! TF.SameCoordinates,F0C73554-34DE-494A-A34D-94DED9C52F24*
G04*
G04*
G04 #@! TF.FilePolarity,Positive*
G04*
G01*
G75*
%ADD23C,0.2540*%
D23*
X234950Y2512624D02*
G03*
X209550Y2487224I0J-25400D01*
G01*
X569550D02*
G03*
X544150Y2512624I-25400J0D01*
G01*
X516903Y2080824D02*
G03*
X514350Y2078271I0J-2553D01*
G01*
X209550Y2106224D02*
G03*
X234950Y2080824I25400J0D01*
G01*
X544150Y2080824D02*
G03*
X569550Y2106224I0J25400D01*
G01*
X544150Y2080824D02*
X544150Y2080824D01*
X260350Y2027531D02*
G03*
X283256Y2004624I22906J0D01*
G01*
D02*
G03*
X283350Y2004718I0J93D01*
G01*
X488950Y2004624D02*
G03*
X514350Y2030024I0J25400D01*
G01*
X234950Y2512624D02*
X247650D01*
X209550Y2474524D02*
Y2487224D01*
X247650Y2512624D02*
X539400D01*
X569550Y2245924D02*
Y2482474D01*
Y2487224D01*
Y2110624D02*
Y2245924D01*
X209550Y2106224D02*
Y2474524D01*
X539400Y2512624D02*
X544150D01*
X569550Y2106224D02*
Y2110624D01*
X260350Y2042724D02*
Y2080824D01*
X514350Y2030024D02*
Y2078271D01*
X544150Y2080824D02*
Y2080824D01*
X516903D02*
X539750D01*
X544150D01*
X234950D02*
X260350D01*
Y2027531D02*
Y2042724D01*
X283350Y2004718D02*
X488950Y2004624D01*
X615950Y2512624D02*
G03*
X590550Y2487224I0J-25400D01*
G01*
X950550D02*
G03*
X925150Y2512624I-25400J0D01*
G01*
X897903Y2080824D02*
G03*
X895350Y2078271I0J-2553D01*
G01*
X590550Y2106224D02*
G03*
X615950Y2080824I25400J0D01*
G01*
X925150Y2080824D02*
G03*
X950550Y2106224I0J25400D01*
G01*
X925150Y2080824D02*
X925150Y2080824D01*
X641350Y2027531D02*
G03*
X664257Y2004624I22906J0D01*
G01*
D02*
G03*
X664350Y2004718I0J93D01*
G01*
X869950Y2004624D02*
G03*
X895350Y2030024I0J25400D01*
G01*
X615950Y2512624D02*
X628650D01*
X590550Y2474524D02*
Y2487224D01*
X628650Y2512624D02*
X920400D01*
X950550Y2245924D02*
Y2482474D01*
Y2487224D01*
Y2110624D02*
Y2245924D01*
X590550Y2106224D02*
Y2474524D01*
X920400Y2512624D02*
X925150D01*
X950550Y2106224D02*
Y2110624D01*
X641350Y2042724D02*
Y2080824D01*
X895350Y2030024D02*
Y2078271D01*
X925150Y2080824D02*
Y2080824D01*
X897903D02*
X920750D01*
X925150D01*
X615950D02*
X641350D01*
Y2027531D02*
Y2042724D01*
X664350Y2004718D02*
X869950Y2004624D01*
X996950Y2512624D02*
G03*
X971550Y2487224I0J-25400D01*
G01*
X1331550D02*
G03*
X1306150Y2512624I-25400J0D01*
G01*
X1278903Y2080824D02*
G03*
X1276350Y2078271I0J-2553D01*
G01*
X971550Y2106224D02*
G03*
X996950Y2080824I25400J0D01*
G01*
X1306150Y2080824D02*
G03*
X1331550Y2106224I0J25400D01*
G01*
X1306150Y2080824D02*
X1306150Y2080824D01*
X1022350Y2027531D02*
G03*
X1045257Y2004624I22906J0D01*
G01*
D02*
G03*
X1045350Y2004718I0J93D01*
G01*
X1250950Y2004624D02*
G03*
X1276350Y2030024I0J25400D01*
G01*
X996950Y2512624D02*
X1009650D01*
X971550Y2474524D02*
Y2487224D01*
X1009650Y2512624D02*
X1301400D01*
X1331550Y2245924D02*
Y2482474D01*
Y2487224D01*
Y2110624D02*
Y2245924D01*
X971550Y2106224D02*
Y2474524D01*
X1301400Y2512624D02*
X1306150D01*
X1331550Y2106224D02*
Y2110624D01*
X1022350Y2042724D02*
Y2080824D01*
X1276350Y2030024D02*
Y2078271D01*
X1306150Y2080824D02*
Y2080824D01*
X1278903D02*
X1301750D01*
X1306150D01*
X996950D02*
X1022350D01*
Y2027531D02*
Y2042724D01*
X1045350Y2004718D02*
X1250950Y2004624D01*
X1377950Y2512624D02*
G03*
X1352550Y2487224I0J-25400D01*
G01*
X1712550D02*
G03*
X1687150Y2512624I-25400J0D01*
G01*
X1659903Y2080824D02*
G03*
X1657350Y2078271I0J-2553D01*
G01*
X1352550Y2106224D02*
G03*
X1377950Y2080824I25400J0D01*
G01*
X1687150Y2080824D02*
G03*
X1712550Y2106224I0J25400D01*
G01*
X1687150Y2080824D02*
X1687150Y2080824D01*
X1403350Y2027531D02*
G03*
X1426257Y2004624I22906J0D01*
G01*
D02*
G03*
X1426350Y2004718I0J93D01*
G01*
X1631950Y2004624D02*
G03*
X1657350Y2030024I0J25400D01*
G01*
X1377950Y2512624D02*
X1390650D01*
X1352550Y2474524D02*
Y2487224D01*
X1390650Y2512624D02*
X1682400D01*
X1712550Y2245924D02*
Y2482474D01*
Y2487224D01*
Y2110624D02*
Y2245924D01*
X1352550Y2106224D02*
Y2474524D01*
X1682400Y2512624D02*
X1687150D01*
X1712550Y2106224D02*
Y2110624D01*
X1403350Y2042724D02*
Y2080824D01*
X1657350Y2030024D02*
Y2078271D01*
X1687150Y2080824D02*
Y2080824D01*
X1659903D02*
X1682750D01*
X1687150D01*
X1377950D02*
X1403350D01*
Y2027531D02*
Y2042724D01*
X1426350Y2004718D02*
X1631950Y2004624D01*
X1758950Y2512624D02*
G03*
X1733550Y2487224I0J-25400D01*
G01*
X2093550D02*
G03*
X2068150Y2512624I-25400J0D01*
G01*
X2040903Y2080824D02*
G03*
X2038350Y2078271I0J-2553D01*
G01*
X1733550Y2106224D02*
G03*
X1758950Y2080824I25400J0D01*
G01*
X2068150Y2080824D02*
G03*
X2093550Y2106224I0J25400D01*
G01*
X2068150Y2080824D02*
X2068150Y2080824D01*
X1784350Y2027531D02*
G03*
X1807256Y2004624I22906J0D01*
G01*
D02*
G03*
X1807350Y2004718I0J93D01*
G01*
X2012950Y2004624D02*
G03*
X2038350Y2030024I0J25400D01*
G01*
X1758950Y2512624D02*
X1771650D01*
X1733550Y2474524D02*
Y2487224D01*
X1771650Y2512624D02*
X2063400D01*
X2093550Y2245924D02*
Y2482474D01*
Y2487224D01*
Y2110624D02*
Y2245924D01*
X1733550Y2106224D02*
Y2474524D01*
X2063400Y2512624D02*
X2068150D01*
X2093550Y2106224D02*
Y2110624D01*
X1784350Y2042724D02*
Y2080824D01*
X2038350Y2030024D02*
Y2078271D01*
X2068150Y2080824D02*
Y2080824D01*
X2040903D02*
X2063750D01*
X2068150D01*
X1758950D02*
X1784350D01*
Y2027531D02*
Y2042724D01*
X1807350Y2004718D02*
X2012950Y2004624D01*
X261144Y1291369D02*
G03*
X231144Y1261369I0J-30000D01*
G01*
X232209Y1027135D02*
G03*
X261120Y998224I28911J0D01*
G01*
X531144D02*
G03*
X561144Y1028224I0J30000D01*
G01*
X560550Y1263342D02*
G03*
X532068Y1291824I-28482J0D01*
G01*
X495892Y1374138D02*
G03*
X475835Y1394138I-20000J0D01*
G01*
X316078Y1394324D02*
G03*
X296078Y1374266I0J-20000D01*
G01*
X495892Y1292408D02*
G03*
X496476Y1291824I584J0D01*
G01*
X261120Y998224D02*
X531144D01*
X561144Y1024993D02*
Y1263342D01*
X560550D02*
X561144D01*
X496513Y1291824D02*
X532068D01*
X295892Y1291369D02*
Y1292154D01*
X261144Y1291369D02*
X295892D01*
X231144Y1261369D02*
X232209Y1027135D01*
X495892Y1292408D02*
Y1374170D01*
X295727Y1292154D02*
X296069Y1374266D01*
X316078Y1394323D02*
X475834Y1394068D01*
X642144Y1291369D02*
G03*
X612144Y1261369I0J-30000D01*
G01*
X613209Y1027135D02*
G03*
X642120Y998224I28911J0D01*
G01*
X912144D02*
G03*
X942144Y1028224I0J30000D01*
G01*
X941550Y1263342D02*
G03*
X913068Y1291824I-28482J0D01*
G01*
X876892Y1374138D02*
G03*
X856834Y1394138I-20000J0D01*
G01*
X697078Y1394324D02*
G03*
X677078Y1374266I0J-20000D01*
G01*
X876892Y1292408D02*
G03*
X877476Y1291824I584J0D01*
G01*
X642120Y998224D02*
X912144D01*
X942144Y1024993D02*
Y1263342D01*
X941550D02*
X942144D01*
X877513Y1291824D02*
X913068D01*
X676892Y1291369D02*
Y1292154D01*
X642144Y1291369D02*
X676892D01*
X612144Y1261369D02*
X613209Y1027135D01*
X876892Y1292408D02*
Y1374170D01*
X676727Y1292154D02*
X677069Y1374266D01*
X697078Y1394323D02*
X856834Y1394068D01*
X1023144Y1291369D02*
G03*
X993144Y1261369I0J-30000D01*
G01*
X994209Y1027135D02*
G03*
X1023120Y998224I28911J0D01*
G01*
X1293144D02*
G03*
X1323144Y1028224I0J30000D01*
G01*
X1322550Y1263342D02*
G03*
X1294068Y1291824I-28482J0D01*
G01*
X1257892Y1374138D02*
G03*
X1237834Y1394138I-20000J0D01*
G01*
X1078078Y1394324D02*
G03*
X1058078Y1374266I0J-20000D01*
G01*
X1257892Y1292408D02*
G03*
X1258476Y1291824I584J0D01*
G01*
X1023120Y998224D02*
X1293144D01*
X1323144Y1024993D02*
Y1263342D01*
X1322550D02*
X1323144D01*
X1258513Y1291824D02*
X1294068D01*
X1057892Y1291369D02*
Y1292154D01*
X1023144Y1291369D02*
X1057892D01*
X993144Y1261369D02*
X994209Y1027135D01*
X1257892Y1292408D02*
Y1374170D01*
X1057727Y1292154D02*
X1058069Y1374266D01*
X1078078Y1394323D02*
X1237834Y1394068D01*
X1404144Y1291369D02*
G03*
X1374144Y1261369I0J-30000D01*
G01*
X1375209Y1027135D02*
G03*
X1404120Y998224I28911J0D01*
G01*
X1674144D02*
G03*
X1704144Y1028224I0J30000D01*
G01*
X1703550Y1263342D02*
G03*
X1675068Y1291824I-28482J0D01*
G01*
X1638892Y1374138D02*
G03*
X1618835Y1394138I-20000J0D01*
G01*
X1459078Y1394324D02*
G03*
X1439078Y1374266I0J-20000D01*
G01*
X1638892Y1292408D02*
G03*
X1639476Y1291824I584J0D01*
G01*
X1404120Y998224D02*
X1674144D01*
X1704144Y1024993D02*
Y1263342D01*
X1703550D02*
X1704144D01*
X1639513Y1291824D02*
X1675068D01*
X1438892Y1291369D02*
Y1292154D01*
X1404144Y1291369D02*
X1438892D01*
X1374144Y1261369D02*
X1375209Y1027135D01*
X1638892Y1292408D02*
Y1374170D01*
X1438727Y1292154D02*
X1439069Y1374266D01*
X1459078Y1394323D02*
X1618834Y1394068D01*
X1785144Y1291369D02*
G03*
X1755144Y1261369I0J-30000D01*
G01*
X1756209Y1027135D02*
G03*
X1785120Y998224I28911J0D01*
G01*
X2055144D02*
G03*
X2085144Y1028224I0J30000D01*
G01*
X2084550Y1263342D02*
G03*
X2056068Y1291824I-28482J0D01*
G01*
X2019892Y1374138D02*
G03*
X1999834Y1394138I-20000J0D01*
G01*
X1840078Y1394324D02*
G03*
X1820078Y1374266I0J-20000D01*
G01*
X2019892Y1292408D02*
G03*
X2020476Y1291824I584J0D01*
G01*
X1785120Y998224D02*
X2055144D01*
X2085144Y1024993D02*
Y1263342D01*
X2084550D02*
X2085144D01*
X2020513Y1291824D02*
X2056068D01*
X1819892Y1291369D02*
Y1292154D01*
X1785144Y1291369D02*
X1819892D01*
X1755144Y1261369D02*
X1756209Y1027135D01*
X2019892Y1292408D02*
Y1374170D01*
X1819727Y1292154D02*
X1820069Y1374266D01*
X1840078Y1394323D02*
X1999834Y1394068D01*
X240030Y1957070D02*
G03*
X214630Y1931670I0J-25400D01*
G01*
X574630D02*
G03*
X549230Y1957070I-25400J0D01*
G01*
X521983Y1525270D02*
G03*
X519430Y1522717I0J-2553D01*
G01*
X214630Y1550670D02*
G03*
X240030Y1525270I25400J0D01*
G01*
X549230Y1525270D02*
G03*
X574630Y1550670I0J25400D01*
G01*
X549230Y1525270D02*
X549230Y1525270D01*
X265430Y1471976D02*
G03*
X288337Y1449070I22906J0D01*
G01*
D02*
G03*
X288430Y1449163I0J93D01*
G01*
X494030Y1449070D02*
G03*
X519430Y1474470I0J25400D01*
G01*
X240030Y1957070D02*
X252730D01*
X214630Y1918970D02*
Y1931670D01*
X252730Y1957070D02*
X544480D01*
X574630Y1690370D02*
Y1926920D01*
Y1931670D01*
Y1555070D02*
Y1690370D01*
X214630Y1550670D02*
Y1918970D01*
X544480Y1957070D02*
X549230D01*
X574630Y1550670D02*
Y1555070D01*
X265430Y1487170D02*
Y1525270D01*
X519430Y1474470D02*
Y1522717D01*
X549230Y1525270D02*
Y1525270D01*
X521983D02*
X544830D01*
X549230D01*
X240030D02*
X265430D01*
Y1471976D02*
Y1487170D01*
X288430Y1449163D02*
X494030Y1449070D01*
X621030Y1957070D02*
G03*
X595630Y1931670I0J-25400D01*
G01*
X955630D02*
G03*
X930230Y1957070I-25400J0D01*
G01*
X902983Y1525270D02*
G03*
X900430Y1522717I0J-2553D01*
G01*
X595630Y1550670D02*
G03*
X621030Y1525270I25400J0D01*
G01*
X930230Y1525270D02*
G03*
X955630Y1550670I0J25400D01*
G01*
X930230Y1525270D02*
X930230Y1525270D01*
X646430Y1471976D02*
G03*
X669336Y1449070I22906J0D01*
G01*
D02*
G03*
X669430Y1449163I0J93D01*
G01*
X875030Y1449070D02*
G03*
X900430Y1474470I0J25400D01*
G01*
X621030Y1957070D02*
X633730D01*
X595630Y1918970D02*
Y1931670D01*
X633730Y1957070D02*
X925480D01*
X955630Y1690370D02*
Y1926920D01*
Y1931670D01*
Y1555070D02*
Y1690370D01*
X595630Y1550670D02*
Y1918970D01*
X925480Y1957070D02*
X930230D01*
X955630Y1550670D02*
Y1555070D01*
X646430Y1487170D02*
Y1525270D01*
X900430Y1474470D02*
Y1522717D01*
X930230Y1525270D02*
Y1525270D01*
X902983D02*
X925830D01*
X930230D01*
X621030D02*
X646430D01*
Y1471976D02*
Y1487170D01*
X669430Y1449163D02*
X875030Y1449070D01*
X1002030Y1957070D02*
G03*
X976630Y1931670I0J-25400D01*
G01*
X1336630D02*
G03*
X1311230Y1957070I-25400J0D01*
G01*
X1283983Y1525270D02*
G03*
X1281430Y1522717I0J-2553D01*
G01*
X976630Y1550670D02*
G03*
X1002030Y1525270I25400J0D01*
G01*
X1311230Y1525270D02*
G03*
X1336630Y1550670I0J25400D01*
G01*
X1311230Y1525270D02*
X1311230Y1525270D01*
X1027430Y1471976D02*
G03*
X1050337Y1449070I22906J0D01*
G01*
D02*
G03*
X1050430Y1449163I0J93D01*
G01*
X1256030Y1449070D02*
G03*
X1281430Y1474470I0J25400D01*
G01*
X1002030Y1957070D02*
X1014730D01*
X976630Y1918970D02*
Y1931670D01*
X1014730Y1957070D02*
X1306480D01*
X1336630Y1690370D02*
Y1926920D01*
Y1931670D01*
Y1555070D02*
Y1690370D01*
X976630Y1550670D02*
Y1918970D01*
X1306480Y1957070D02*
X1311230D01*
X1336630Y1550670D02*
Y1555070D01*
X1027430Y1487170D02*
Y1525270D01*
X1281430Y1474470D02*
Y1522717D01*
X1311230Y1525270D02*
Y1525270D01*
X1283983D02*
X1306830D01*
X1311230D01*
X1002030D02*
X1027430D01*
Y1471976D02*
Y1487170D01*
X1050430Y1449163D02*
X1256030Y1449070D01*
X1383030Y1957070D02*
G03*
X1357630Y1931670I0J-25400D01*
G01*
X1717630D02*
G03*
X1692230Y1957070I-25400J0D01*
G01*
X1664983Y1525270D02*
G03*
X1662430Y1522717I0J-2553D01*
G01*
X1357630Y1550670D02*
G03*
X1383030Y1525270I25400J0D01*
G01*
X1692230Y1525270D02*
G03*
X1717630Y1550670I0J25400D01*
G01*
X1692230Y1525270D02*
X1692230Y1525270D01*
X1408430Y1471976D02*
G03*
X1431337Y1449070I22906J0D01*
G01*
D02*
G03*
X1431430Y1449163I0J93D01*
G01*
X1637030Y1449070D02*
G03*
X1662430Y1474470I0J25400D01*
G01*
X1383030Y1957070D02*
X1395730D01*
X1357630Y1918970D02*
Y1931670D01*
X1395730Y1957070D02*
X1687480D01*
X1717630Y1690370D02*
Y1926920D01*
Y1931670D01*
Y1555070D02*
Y1690370D01*
X1357630Y1550670D02*
Y1918970D01*
X1687480Y1957070D02*
X1692230D01*
X1717630Y1550670D02*
Y1555070D01*
X1408430Y1487170D02*
Y1525270D01*
X1662430Y1474470D02*
Y1522717D01*
X1692230Y1525270D02*
Y1525270D01*
X1664983D02*
X1687830D01*
X1692230D01*
X1383030D02*
X1408430D01*
Y1471976D02*
Y1487170D01*
X1431430Y1449163D02*
X1637030Y1449070D01*
X1764030Y1957070D02*
G03*
X1738630Y1931670I0J-25400D01*
G01*
X2098630D02*
G03*
X2073230Y1957070I-25400J0D01*
G01*
X2045983Y1525270D02*
G03*
X2043430Y1522717I0J-2553D01*
G01*
X1738630Y1550670D02*
G03*
X1764030Y1525270I25400J0D01*
G01*
X2073230Y1525270D02*
G03*
X2098630Y1550670I0J25400D01*
G01*
X2073230Y1525270D02*
X2073230Y1525270D01*
X1789430Y1471976D02*
G03*
X1812336Y1449070I22906J0D01*
G01*
D02*
G03*
X1812430Y1449163I0J93D01*
G01*
X2018030Y1449070D02*
G03*
X2043430Y1474470I0J25400D01*
G01*
X1764030Y1957070D02*
X1776730D01*
X1738630Y1918970D02*
Y1931670D01*
X1776730Y1957070D02*
X2068480D01*
X2098630Y1690370D02*
Y1926920D01*
Y1931670D01*
Y1555070D02*
Y1690370D01*
X1738630Y1550670D02*
Y1918970D01*
X2068480Y1957070D02*
X2073230D01*
X2098630Y1550670D02*
Y1555070D01*
X1789430Y1487170D02*
Y1525270D01*
X2043430Y1474470D02*
Y1522717D01*
X2073230Y1525270D02*
Y1525270D01*
X2045983D02*
X2068830D01*
X2073230D01*
X1764030D02*
X1789430D01*
Y1471976D02*
Y1487170D01*
X1812430Y1449163D02*
X2018030Y1449070D01*
M02*
