M48
;Layer_Color=9474304
;FILE_FORMAT=4:2
METRIC,LZ
;TYPE=PLATED
T05F00S00C0.60
%
G90
G05
T05
G00X020109Y014795
M15
G01Y014695
M16
G00X018219Y014795
M15
G01Y014695
M16
G00X016299Y014795
M15
G01Y014695
M16
G00X014409Y014795
M15
G01Y014695
M16
G00X012489Y014795
M15
G01Y014695
M16
G00X010599Y014795
M15
G01Y014695
M16
G00X008679Y014795
M15
G01Y014695
M16
G00X006789Y014795
M15
G01Y014695
M16
G00X004869Y014795
M15
G01Y014695
M16
G00X002979Y014795
M15
G01Y014695
M16
G00X020059Y02035
M15
G01Y02025
M16
G00X018168Y02035
M15
G01Y02025
M16
G00X016249Y02035
M15
G01Y02025
M16
G00X014359Y02035
M15
G01Y02025
M16
G00X012439Y02035
M15
G01Y02025
M16
G00X010549Y02035
M15
G01Y02025
M16
G00X008629Y02035
M15
G01Y02025
M16
G00X006739Y02035
M15
G01Y02025
M16
G00X004819Y02035
M15
G01Y02025
M16
G00X002928Y02035
M15
G01Y02025
M16
M30
