M48
;Layer_Color=9474304
;FILE_FORMAT=4:2
METRIC,LZ
;TYPE=PLATED
T01F00S00C0.33
T02F00S00C0.38
T04F00S00C3.20
T05F00S00C3.90
%
T01
X-00005Y-000585
Y-000455
Y-000325
X00008
Y-000455
Y-000585
T02
X00031Y-003101
X000463
X000615
X000767
X000691Y-002948
X000539
X000386
X000463Y-002796
X000615
X000767
X00092
X001072
X001148Y-002643
X000996
X000844
X000691
X000539
X000386
X000463Y-002491
X000615
X000767
X00092
X001072
X001225
X001301Y-002339
X001148
X000996
X000844
X00092Y-002186
X001072
X001225
X001422Y-0022
Y-002098
X001524
Y-001996
X001626
Y-002098
Y-0022
X001524
X001422Y-001996
X001453Y-001729
X001606
Y-001424
X001453
X001301
X001125Y-001438
X001024
Y-00154
X001125
Y-001642
X001024
X000922
Y-00154
Y-001438
X000691Y-001424
X000539
X000386
X00031Y-001577
X000386Y-001729
X000539
X000691
X00092Y-001881
X001072
X001225
X001301Y-001729
X001377Y-001577
X001499Y-001102
Y-001
X0016
X001702
Y-000898
X0016
X001499
X001529Y-000662
X001682
X001606Y-00051
X001453
X001529Y-000357
X001682
X001606Y-000205
X001453
X001529Y-000053
X001682
X001606Y0001
X001453
X001529Y000252
X001682
X001606Y000405
X001453
X001377Y000252
Y-000053
Y-000357
Y-000662
X001072
X000767Y-000357
X000463Y-000053
Y000252
X00028Y000078
X00031Y-001881
Y-002491
Y-002796
X001148Y-002948
Y-002034
X000996
X0016Y-001102
X001702
X000234Y-001424
X000082
X000158Y-001577
X000234Y-001729
X000082
X000158Y-001881
X000082Y-002034
X000158Y-002186
X000234Y-002339
X000082
X000158Y-002491
X000234Y-002643
X000082
X000158Y-002796
X000234Y-002948
X000082
X000158Y-003101
X-000147
X-000299
X-000452
X-000604
X-000757
X-00068Y-002948
X-000528
X-000376
X-000223
X-000147Y-002796
X-000299
X-000452
X-000604
X-000757
X-000909
X-001061
X-000985Y-002643
X-000833
X-00068
X-000528
X-000376
X-000223
X-000147Y-002491
X-000299
X-000452
X-000604
X-000757
X-000909
X-001061
X-001214
X-001138Y-002339
X-000985
X-000909Y-002186
X-001061
X-000985Y-002034
X-001138
X-001061Y-001881
X-000909
X-000882Y-001661
Y-00156
Y-001458
X-000984
Y-00156
X-001086
Y-001661
X-000984
X-001086Y-001458
X-00129Y-001424
X-001442
X-001595
Y-001729
X-001442
X-00129
X-001214Y-001881
X-001381Y-00199
X-001482
Y-002091
Y-002193
X-001584
Y-002091
Y-00199
X-001381Y-002091
Y-002193
X-001366Y-001577
X-001448Y-001113
Y-001011
Y-000909
X-001549
X-001651
Y-001011
X-001549
Y-001113
X-001651
X-001519Y-000662
Y-000357
X-001366
X-001214
X-001061
X-000985Y-000205
X-001138
X-00129
X-001442
X-001595
X-001519Y-000053
X-001366
X-001214
X-001061
X-000604
X-00068Y-000205
X-000604Y-000357
X-000351Y00014
X000005Y000252
Y-000053
X-000223Y-001424
X-000376
X-000528
X-00068
Y-001729
X-000528
X-000376
X-000223
X-000147Y-001577
X-000299
X-000147Y-001881
X-000223Y-002034
X-000147Y-002186
X-000223Y-002339
X-001138Y-002643
Y-002948
X-001442Y0001
X-001595
X-001519Y000252
X-001366
X-001442Y000405
X-001595
X-001519Y000557
X-001366
X-001442Y000709
X-001595
X-001549Y000898
X-001651
Y001
Y001102
X-001549
X-001448
Y001
X-001549
X-001448Y000898
X-00108Y001448
Y001549
X-000978
Y001651
X-000876
Y001549
Y001448
X-000978
X-00108Y001651
X-00068Y001624
X-000528
X-000376
X-000223
X-000071
X000082
X000234
X000005Y001471
X-000299
X-000452
X-000604
X-000185Y001041
X000005Y000862
X000463
X000615
X000767
X000844Y000709
X000996
X001148
X001453
X001606
X0016Y000898
X001702
Y001
Y001102
X0016
Y001
X001499
Y000898
Y001102
X001453Y001319
X001606
X001682Y001471
X001529
X001377
X001453Y001624
X001606
X001124Y001651
X001022
Y001549
X001124
Y001448
X001022
X00092
Y001549
Y001651
X000691Y001624
X000539
X000386
X000463Y001471
X000615
X000691Y001319
X000539
X000386
X000463Y001167
X000615
X000767
X000691Y001014
X000539
X000386
X001377Y000557
X001529
X001682
T04
X001022Y-001
X-000978
Y001
X001022
T05
X000545Y-002108
X-000545
M30
