G04*
G04 #@! TF.GenerationSoftware,Altium Limited,Altium Designer,26.3.0 (6)*
G04*
G04 Layer_Color=39423*
%FSLAX44Y44*%
%MOMM*%
G71*
G04*
G04 #@! TF.SameCoordinates,5EB6B969-A1C5-4B9D-BA7F-34D15A1FC759*
G04*
G04*
G04 #@! TF.FilePolarity,Positive*
G04*
G01*
G75*
%ADD12C,0.2540*%
D12*
X-152400Y177800D02*
G03*
X-177800Y152400I0J-25400D01*
G01*
X182200D02*
G03*
X156800Y177800I-25400J0D01*
G01*
X129553Y-254000D02*
G03*
X127000Y-256553I0J-2553D01*
G01*
X-177800Y-228600D02*
G03*
X-152400Y-254000I25400J0D01*
G01*
X156800Y-254000D02*
G03*
X182200Y-228600I0J25400D01*
G01*
X156800Y-254000D02*
X156800Y-254000D01*
X-127000Y-307293D02*
G03*
X-104094Y-330200I22906J0D01*
G01*
D02*
G03*
X-104000Y-330107I0J93D01*
G01*
X101600Y-330200D02*
G03*
X127000Y-304800I0J25400D01*
G01*
X-152400Y177800D02*
X-139700D01*
X-177800Y139700D02*
Y152400D01*
X-139700Y177800D02*
X152050D01*
X182200Y-88900D02*
Y147650D01*
Y152400D01*
Y-224200D02*
Y-88900D01*
X-177800Y-228600D02*
Y139700D01*
X152050Y177800D02*
X156800D01*
X182200Y-228600D02*
Y-224200D01*
X-127000Y-292100D02*
Y-254000D01*
X127000Y-304800D02*
Y-256553D01*
X156800Y-254000D02*
Y-254000D01*
X129553D02*
X152400D01*
X156800D01*
X-152400D02*
X-127000D01*
Y-307293D02*
Y-292100D01*
X-104000Y-330107D02*
X101600Y-330200D01*
M02*
