G04*
G04 #@! TF.GenerationSoftware,Altium Limited,Altium Designer,26.3.0 (6)*
G04*
G04 Layer_Physical_Order=1*
G04 Layer_Color=255*
%FSLAX44Y44*%
%MOMM*%
G71*
G04*
G04 #@! TF.SameCoordinates,5EB6B969-A1C5-4B9D-BA7F-34D15A1FC759*
G04*
G04*
G04 #@! TF.FilePolarity,Positive*
G04*
G01*
G75*
%ADD12C,0.2540*%
%ADD17C,0.3000*%
%ADD26R,1.1620X2.9908*%
%ADD31R,2.2000X0.5000*%
%ADD36C,0.7112*%
%ADD37C,0.6300*%
G04:AMPARAMS|DCode=38|XSize=1.3mm|YSize=0.76mm|CornerRadius=0.095mm|HoleSize=0mm|Usage=FLASHONLY|Rotation=90.000|XOffset=0mm|YOffset=0mm|HoleType=Round|Shape=RoundedRectangle|*
%AMROUNDEDRECTD38*
21,1,1.3000,0.5700,0,0,90.0*
21,1,1.1100,0.7600,0,0,90.0*
1,1,0.1900,0.2850,0.5550*
1,1,0.1900,0.2850,-0.5550*
1,1,0.1900,-0.2850,-0.5550*
1,1,0.1900,-0.2850,0.5550*
%
%ADD38ROUNDEDRECTD38*%
G04:AMPARAMS|DCode=39|XSize=1.3mm|YSize=0.76mm|CornerRadius=0.095mm|HoleSize=0mm|Usage=FLASHONLY|Rotation=0.000|XOffset=0mm|YOffset=0mm|HoleType=Round|Shape=RoundedRectangle|*
%AMROUNDEDRECTD39*
21,1,1.3000,0.5700,0,0,0.0*
21,1,1.1100,0.7600,0,0,0.0*
1,1,0.1900,0.5550,-0.2850*
1,1,0.1900,-0.5550,-0.2850*
1,1,0.1900,-0.5550,0.2850*
1,1,0.1900,0.5550,0.2850*
%
%ADD39ROUNDEDRECTD39*%
G04:AMPARAMS|DCode=40|XSize=1.778mm|YSize=2.54mm|CornerRadius=0.4445mm|HoleSize=0mm|Usage=FLASHONLY|Rotation=180.000|XOffset=0mm|YOffset=0mm|HoleType=Round|Shape=RoundedRectangle|*
%AMROUNDEDRECTD40*
21,1,1.7780,1.6510,0,0,180.0*
21,1,0.8890,2.5400,0,0,180.0*
1,1,0.8890,-0.4445,0.8255*
1,1,0.8890,0.4445,0.8255*
1,1,0.8890,0.4445,-0.8255*
1,1,0.8890,-0.4445,-0.8255*
%
%ADD40ROUNDEDRECTD40*%
%ADD41R,2.9500X4.9000*%
%ADD42R,0.6500X0.6500*%
G04:AMPARAMS|DCode=43|XSize=1.4mm|YSize=2.4mm|CornerRadius=0.175mm|HoleSize=0mm|Usage=FLASHONLY|Rotation=180.000|XOffset=0mm|YOffset=0mm|HoleType=Round|Shape=RoundedRectangle|*
%AMROUNDEDRECTD43*
21,1,1.4000,2.0500,0,0,180.0*
21,1,1.0500,2.4000,0,0,180.0*
1,1,0.3500,-0.5250,1.0250*
1,1,0.3500,0.5250,1.0250*
1,1,0.3500,0.5250,-1.0250*
1,1,0.3500,-0.5250,-1.0250*
%
%ADD43ROUNDEDRECTD43*%
G04:AMPARAMS|DCode=44|XSize=0.55mm|YSize=0.5mm|CornerRadius=0.0625mm|HoleSize=0mm|Usage=FLASHONLY|Rotation=0.000|XOffset=0mm|YOffset=0mm|HoleType=Round|Shape=RoundedRectangle|*
%AMROUNDEDRECTD44*
21,1,0.5500,0.3750,0,0,0.0*
21,1,0.4250,0.5000,0,0,0.0*
1,1,0.1250,0.2125,-0.1875*
1,1,0.1250,-0.2125,-0.1875*
1,1,0.1250,-0.2125,0.1875*
1,1,0.1250,0.2125,0.1875*
%
%ADD44ROUNDEDRECTD44*%
%ADD45R,1.8000X1.3000*%
G04:AMPARAMS|DCode=46|XSize=4mm|YSize=4mm|CornerRadius=1mm|HoleSize=0mm|Usage=FLASHONLY|Rotation=0.000|XOffset=0mm|YOffset=0mm|HoleType=Round|Shape=RoundedRectangle|*
%AMROUNDEDRECTD46*
21,1,4.0000,2.0000,0,0,0.0*
21,1,2.0000,4.0000,0,0,0.0*
1,1,2.0000,1.0000,-1.0000*
1,1,2.0000,-1.0000,-1.0000*
1,1,2.0000,-1.0000,1.0000*
1,1,2.0000,1.0000,1.0000*
%
%ADD46ROUNDEDRECTD46*%
G04:AMPARAMS|DCode=47|XSize=2mm|YSize=3.5mm|CornerRadius=0.08mm|HoleSize=0mm|Usage=FLASHONLY|Rotation=90.000|XOffset=0mm|YOffset=0mm|HoleType=Round|Shape=RoundedRectangle|*
%AMROUNDEDRECTD47*
21,1,2.0000,3.3400,0,0,90.0*
21,1,1.8400,3.5000,0,0,90.0*
1,1,0.1600,1.6700,0.9200*
1,1,0.1600,1.6700,-0.9200*
1,1,0.1600,-1.6700,-0.9200*
1,1,0.1600,-1.6700,0.9200*
%
%ADD47ROUNDEDRECTD47*%
%ADD48R,0.6500X0.6500*%
%ADD49C,1.1000*%
%ADD50C,1.1000*%
%ADD51C,0.7000*%
%ADD52C,4.9160*%
%ADD53R,4.9160X4.9160*%
%ADD54O,1.3000X2.6000*%
%ADD55C,1.5240*%
%ADD56C,0.6350*%
G36*
X-130582Y177727D02*
X-130190Y177432D01*
X-129590Y176565D01*
Y12910D01*
X-129393Y11919D01*
X-128831Y11078D01*
X-127991Y10517D01*
X-127000Y10320D01*
X-51784D01*
Y-27361D01*
X-51587Y-28352D01*
X-51025Y-29193D01*
X-50185Y-29754D01*
X-49829Y-29825D01*
Y-33608D01*
X-49367D01*
X-49194Y-34025D01*
Y-49590D01*
X-129158D01*
X-129214Y-49534D01*
X-129450Y-49436D01*
X-129662Y-49294D01*
X-129912Y-49244D01*
X-130148Y-49147D01*
X-130403D01*
X-130653Y-49097D01*
X-133299D01*
X-133550Y-49147D01*
X-133805D01*
X-134040Y-49244D01*
X-134291Y-49294D01*
X-134503Y-49436D01*
X-134738Y-49534D01*
X-134795Y-49590D01*
X-149778D01*
X-149834Y-49534D01*
X-150070Y-49436D01*
X-150282Y-49294D01*
X-150532Y-49244D01*
X-150768Y-49147D01*
X-151023D01*
X-151273Y-49097D01*
X-151497D01*
X-151916Y-48676D01*
X-177800D01*
Y154902D01*
X-176860Y159246D01*
X-174705Y164551D01*
X-170884Y169821D01*
X-166902Y173253D01*
X-161928Y175945D01*
X-154902Y177800D01*
X-130582Y177727D01*
D02*
G37*
G36*
X128250Y-123208D02*
X124458Y-127000D01*
X181907D01*
X182200Y-128148D01*
Y-228600D01*
Y-231102D01*
X180267Y-241055D01*
X172992Y-248330D01*
X168773Y-251001D01*
X163721Y-253512D01*
X128254D01*
X127000Y-254766D01*
Y-307302D01*
X126512Y-309755D01*
X125067Y-316564D01*
X117792Y-323839D01*
Y-324530D01*
X115712Y-325919D01*
X109864Y-329723D01*
X622D01*
X0Y-328710D01*
Y-127000D01*
X-197Y-126009D01*
X-759Y-125169D01*
X-1599Y-124607D01*
X-2590Y-124410D01*
X-177800D01*
Y-73740D01*
Y-51687D01*
X-151273D01*
X-151124Y-52438D01*
X-150352Y-53593D01*
X-149198Y-54364D01*
X-147836Y-54635D01*
X-136736D01*
X-135375Y-54364D01*
X-134220Y-53593D01*
X-133449Y-52438D01*
X-133299Y-51687D01*
X-133299Y-51687D01*
X-130653D01*
X-130504Y-52438D01*
X-129733Y-53593D01*
X-128578Y-54364D01*
X-127216Y-54635D01*
X-116116D01*
X-114755Y-54364D01*
X-113600Y-53593D01*
X-112829Y-52438D01*
X-112778Y-52180D01*
X-109935D01*
X-109884Y-52438D01*
X-109113Y-53593D01*
X-107958Y-54364D01*
X-106596Y-54635D01*
X-95496D01*
X-94135Y-54364D01*
X-92980Y-53593D01*
X-92209Y-52438D01*
X-92157Y-52180D01*
X-89304D01*
X-89253Y-52438D01*
X-88481Y-53592D01*
X-87327Y-54364D01*
X-85965Y-54635D01*
X-74865D01*
X-73503Y-54364D01*
X-72349Y-53592D01*
X-71578Y-52438D01*
X-71526Y-52180D01*
X-67284D01*
X-67232Y-52438D01*
X-66461Y-53592D01*
X-65307Y-54364D01*
X-63945Y-54635D01*
X-54193D01*
X-53667Y-55905D01*
X-57480Y-59718D01*
X-63945D01*
X-65307Y-59989D01*
X-66461Y-60760D01*
X-67232Y-61915D01*
X-67503Y-63276D01*
Y-68976D01*
X-67232Y-70338D01*
X-66461Y-71492D01*
X-65307Y-72264D01*
X-63945Y-72535D01*
X-57480D01*
X-53614Y-76401D01*
X-53811Y-78000D01*
X-54190Y-78254D01*
X-54962Y-79408D01*
X-55233Y-80770D01*
Y-86470D01*
X-54962Y-87832D01*
X-54190Y-88986D01*
X-53036Y-89757D01*
X-51674Y-90028D01*
X-40574D01*
X-39212Y-89757D01*
X-38058Y-88986D01*
X-37287Y-87832D01*
X-37016Y-86470D01*
Y-80770D01*
X-37287Y-79408D01*
X-38058Y-78254D01*
X-39212Y-77483D01*
X-40574Y-77212D01*
X-42397D01*
X-42438Y-77007D01*
X-43280Y-75747D01*
X-49413Y-69614D01*
X-49286Y-68976D01*
Y-63276D01*
X-49413Y-62639D01*
X-42499Y-55725D01*
X-40790D01*
Y-56880D01*
X-13710D01*
Y-46800D01*
X-15994D01*
Y-44180D01*
X-13710D01*
Y-34100D01*
X-15994D01*
Y-31480D01*
X-13710D01*
Y-21400D01*
X-26796D01*
X-28204Y-19992D01*
X-27847Y-18553D01*
X-27060Y-18026D01*
X-26288Y-16872D01*
X-26017Y-15510D01*
Y-9810D01*
X-26288Y-8448D01*
X-27060Y-7294D01*
X-28214Y-6522D01*
X-29576Y-6252D01*
X-40676D01*
X-42037Y-6522D01*
X-43192Y-7294D01*
X-43963Y-8448D01*
X-44234Y-9810D01*
Y-15510D01*
X-43963Y-16872D01*
X-43192Y-18026D01*
X-42037Y-18798D01*
X-40676Y-19068D01*
X-39218D01*
X-38734Y-20266D01*
X-39341Y-21400D01*
X-40790D01*
Y-27361D01*
X-49104D01*
X-49149Y-27331D01*
X-49194Y-27106D01*
Y10320D01*
Y11640D01*
X-50464Y12910D01*
X-126745D01*
X-126958Y12952D01*
X-127000Y13165D01*
Y176565D01*
X-126638Y177800D01*
X128250D01*
Y-123208D01*
D02*
G37*
G36*
X164364Y176647D02*
X170623Y173709D01*
X175786Y169273D01*
X179228Y164322D01*
X181300Y159100D01*
X182200Y154902D01*
Y-123174D01*
X181906Y-124410D01*
X131895D01*
X130840Y-123208D01*
Y177800D01*
X157985D01*
X164364Y176647D01*
D02*
G37*
G36*
X-2590Y-328710D02*
X-2564Y-328839D01*
X-2560Y-329120D01*
X-3230Y-329912D01*
X-3531Y-330109D01*
X-111207D01*
X-114976Y-326340D01*
X-116820D01*
X-127000Y-316159D01*
Y-254000D01*
X-162231D01*
X-173519Y-242712D01*
X-175867Y-238320D01*
X-177800Y-235033D01*
X-177800Y-127000D01*
X-2590D01*
Y-328710D01*
D02*
G37*
%LPC*%
G36*
X104026Y118540D02*
X100374D01*
X96792Y117828D01*
X93418Y116430D01*
X90381Y114401D01*
X87799Y111819D01*
X85770Y108782D01*
X84373Y105408D01*
X83660Y101826D01*
Y98174D01*
X84373Y94592D01*
X85770Y91218D01*
X87799Y88181D01*
X90381Y85599D01*
X93418Y83570D01*
X96792Y82172D01*
X100374Y81460D01*
X104026D01*
X107608Y82172D01*
X110982Y83570D01*
X114019Y85599D01*
X116601Y88181D01*
X118630Y91218D01*
X120028Y94592D01*
X120740Y98174D01*
Y101826D01*
X120028Y105408D01*
X118630Y108782D01*
X116601Y111819D01*
X114019Y114401D01*
X110982Y116430D01*
X107608Y117828D01*
X104026Y118540D01*
D02*
G37*
G36*
X-95974D02*
X-99626D01*
X-103208Y117828D01*
X-106582Y116430D01*
X-109619Y114401D01*
X-112201Y111819D01*
X-114230Y108782D01*
X-115627Y105408D01*
X-116340Y101826D01*
Y98174D01*
X-115627Y94592D01*
X-114230Y91218D01*
X-112201Y88181D01*
X-109619Y85599D01*
X-106582Y83570D01*
X-103208Y82172D01*
X-99626Y81460D01*
X-95974D01*
X-92392Y82172D01*
X-89018Y83570D01*
X-85981Y85599D01*
X-83399Y88181D01*
X-81370Y91218D01*
X-79973Y94592D01*
X-79260Y98174D01*
Y101826D01*
X-79973Y105408D01*
X-81370Y108782D01*
X-83399Y111819D01*
X-85981Y114401D01*
X-89018Y116430D01*
X-92392Y117828D01*
X-95974Y118540D01*
D02*
G37*
G36*
X-33989Y19716D02*
X-36262D01*
X-38363Y18846D01*
X-39971Y17238D01*
X-40841Y15138D01*
Y12864D01*
X-41633Y11458D01*
X-42037Y11378D01*
X-43192Y10606D01*
X-43963Y9452D01*
X-44234Y8090D01*
Y2390D01*
X-43963Y1028D01*
X-43192Y-126D01*
X-42037Y-897D01*
X-40676Y-1168D01*
X-29576D01*
X-28214Y-897D01*
X-27060Y-126D01*
X-26288Y1028D01*
X-26017Y2390D01*
Y8090D01*
X-26288Y9452D01*
X-27060Y10606D01*
X-28214Y11378D01*
X-28618Y11458D01*
X-29411Y12864D01*
Y15138D01*
X-30281Y17238D01*
X-31888Y18846D01*
X-33989Y19716D01*
D02*
G37*
G36*
X24765Y137550D02*
X15875D01*
X14052Y137310D01*
X12352Y136606D01*
X10893Y135487D01*
X9774Y134028D01*
X9070Y132328D01*
X8830Y130505D01*
Y120476D01*
X8586Y118625D01*
X8830Y116775D01*
Y113995D01*
X9070Y112172D01*
X9774Y110472D01*
X10893Y109013D01*
X12211Y108002D01*
Y86191D01*
X5997Y79977D01*
X4709Y78298D01*
X3898Y76342D01*
X3622Y74243D01*
Y66522D01*
X-8888D01*
X-10987Y66246D01*
X-12943Y65436D01*
X-13744Y64821D01*
X-14439D01*
X-15800Y64550D01*
X-16955Y63779D01*
X-17726Y62625D01*
X-17997Y61263D01*
Y55563D01*
X-17726Y54201D01*
X-16955Y53047D01*
X-15800Y52275D01*
X-14439Y52004D01*
X-13744D01*
X-12943Y51390D01*
X-10987Y50580D01*
X-8888Y50304D01*
X11731D01*
X11731Y50304D01*
X13830Y50580D01*
X15786Y51390D01*
X16587Y52004D01*
X17281D01*
X18643Y52275D01*
X19798Y53047D01*
X20569Y54201D01*
X20840Y55563D01*
Y61263D01*
X20569Y62625D01*
X19841Y63714D01*
Y70046D01*
X21111Y70572D01*
X23272Y68412D01*
Y59300D01*
X46351D01*
Y60231D01*
X59146D01*
X59180Y60180D01*
X58502Y58910D01*
X49601D01*
Y-22555D01*
X43790D01*
Y-21400D01*
X34135D01*
Y-6646D01*
X34914Y-6491D01*
X36333Y-5543D01*
X37281Y-4124D01*
X37614Y-2450D01*
Y18050D01*
X37281Y19724D01*
X36333Y21143D01*
X34914Y22091D01*
X33240Y22424D01*
X22740D01*
X21066Y22091D01*
X19647Y21143D01*
X18699Y19724D01*
X18366Y18050D01*
Y-2450D01*
X18699Y-4124D01*
X19647Y-5543D01*
X21066Y-6491D01*
X22740Y-6824D01*
X26365D01*
Y-21400D01*
X16710D01*
Y-23090D01*
Y-31480D01*
X43790D01*
Y-30325D01*
X69752D01*
X71238Y-30029D01*
X72499Y-29187D01*
X77490Y-24196D01*
X101301D01*
X102605Y-23937D01*
X103709Y-23198D01*
X103782Y-23090D01*
X108371D01*
Y-36867D01*
X108647Y-38966D01*
X109457Y-40922D01*
X110690Y-42529D01*
Y-48483D01*
X108150D01*
Y-46577D01*
X96570D01*
Y-52663D01*
X88578Y-60655D01*
X43790D01*
Y-59500D01*
X16710D01*
Y-69580D01*
X43790D01*
Y-68425D01*
X90187D01*
X91674Y-68129D01*
X92934Y-67287D01*
X102064Y-58157D01*
X108150D01*
Y-56252D01*
X110690D01*
Y-58157D01*
X122270D01*
Y-48157D01*
Y-42529D01*
X123503Y-40922D01*
X124313Y-38966D01*
X124589Y-36867D01*
Y15531D01*
X124313Y17630D01*
X123503Y19586D01*
X122214Y21265D01*
X119601Y23878D01*
Y58910D01*
X103782D01*
X103709Y59018D01*
X102605Y59756D01*
X101301Y60015D01*
X83464D01*
X69405Y74074D01*
X67726Y75363D01*
X65770Y76173D01*
X63671Y76449D01*
X46351D01*
Y77380D01*
X37240D01*
X28429Y86191D01*
Y108002D01*
X29747Y109013D01*
X30866Y110472D01*
X31570Y112172D01*
X31810Y113995D01*
Y130505D01*
X31570Y132328D01*
X30866Y134028D01*
X29747Y135487D01*
X28288Y136606D01*
X26588Y137310D01*
X24765Y137550D01*
D02*
G37*
G36*
X80910Y-44183D02*
X59330D01*
Y-45995D01*
X56089D01*
X55907Y-45722D01*
X54860Y-45023D01*
X53625Y-44777D01*
X49375D01*
X48140Y-45023D01*
X47093Y-45722D01*
X46394Y-46769D01*
X46158Y-47955D01*
X43790D01*
Y-46800D01*
X16710D01*
Y-56880D01*
X43790D01*
Y-55725D01*
X49539D01*
X51026Y-55429D01*
X51696Y-54981D01*
X53625D01*
X54860Y-54735D01*
X55907Y-54036D01*
X56089Y-53764D01*
X59330D01*
Y-55763D01*
X80910D01*
Y-53858D01*
X84109D01*
X84333Y-54193D01*
X85380Y-54893D01*
X86615Y-55138D01*
X90865D01*
X92100Y-54893D01*
X93147Y-54193D01*
X93846Y-53146D01*
X94092Y-51911D01*
Y-48161D01*
X93846Y-46926D01*
X93147Y-45879D01*
X92100Y-45180D01*
X90865Y-44934D01*
X86615D01*
X85380Y-45180D01*
X84333Y-45879D01*
X84193Y-46089D01*
X80910D01*
Y-44183D01*
D02*
G37*
G36*
X-13710Y-59500D02*
X-40790D01*
Y-69580D01*
X-27725D01*
Y-77417D01*
X-28052Y-77483D01*
X-29207Y-78254D01*
X-29978Y-79408D01*
X-30249Y-80770D01*
Y-91870D01*
X-29978Y-93232D01*
X-29207Y-94386D01*
X-28052Y-95157D01*
X-26691Y-95428D01*
X-20991D01*
X-19629Y-95157D01*
X-18475Y-94386D01*
X-17703Y-93232D01*
X-17432Y-91870D01*
Y-80770D01*
X-17703Y-79408D01*
X-18475Y-78254D01*
X-19629Y-77483D01*
X-19956Y-77417D01*
Y-69580D01*
X-13710D01*
Y-59500D01*
D02*
G37*
G36*
X104026Y-81460D02*
X100374D01*
X96792Y-82172D01*
X93418Y-83570D01*
X90381Y-85599D01*
X87799Y-88181D01*
X85770Y-91218D01*
X84373Y-94592D01*
X83660Y-98174D01*
Y-101826D01*
X84373Y-105408D01*
X85770Y-108782D01*
X87799Y-111819D01*
X90381Y-114401D01*
X93418Y-116430D01*
X96792Y-117828D01*
X100374Y-118540D01*
X104026D01*
X107608Y-117828D01*
X110982Y-116430D01*
X114019Y-114401D01*
X116601Y-111819D01*
X118630Y-108782D01*
X120028Y-105408D01*
X120740Y-101826D01*
Y-98174D01*
X120028Y-94592D01*
X118630Y-91218D01*
X116601Y-88181D01*
X114019Y-85599D01*
X110982Y-83570D01*
X107608Y-82172D01*
X104026Y-81460D01*
D02*
G37*
G36*
X-95974D02*
X-99626D01*
X-103208Y-82172D01*
X-106582Y-83570D01*
X-109619Y-85599D01*
X-112201Y-88181D01*
X-114230Y-91218D01*
X-115627Y-94592D01*
X-116340Y-98174D01*
Y-101826D01*
X-115627Y-105408D01*
X-114230Y-108782D01*
X-112201Y-111819D01*
X-109619Y-114401D01*
X-106582Y-116430D01*
X-103208Y-117828D01*
X-99626Y-118540D01*
X-95974D01*
X-92392Y-117828D01*
X-89018Y-116430D01*
X-85981Y-114401D01*
X-83399Y-111819D01*
X-81370Y-108782D01*
X-79973Y-105408D01*
X-79260Y-101826D01*
Y-98174D01*
X-79973Y-94592D01*
X-81370Y-91218D01*
X-83399Y-88181D01*
X-85981Y-85599D01*
X-89018Y-83570D01*
X-92392Y-82172D01*
X-95974Y-81460D01*
D02*
G37*
G36*
X94500Y-289182D02*
X92140Y-289493D01*
X89941Y-290404D01*
X88053Y-291853D01*
X86604Y-293741D01*
X85693Y-295940D01*
X85382Y-298300D01*
Y-311300D01*
X85693Y-313660D01*
X86604Y-315859D01*
X88053Y-317747D01*
X89941Y-319196D01*
X92140Y-320107D01*
X94500Y-320418D01*
X96860Y-320107D01*
X99059Y-319196D01*
X100947Y-317747D01*
X102396Y-315859D01*
X103307Y-313660D01*
X103618Y-311300D01*
Y-298300D01*
X103307Y-295940D01*
X102396Y-293741D01*
X100947Y-291853D01*
X99059Y-290404D01*
X96860Y-289493D01*
X94500Y-289182D01*
D02*
G37*
G36*
X-94500D02*
X-96860Y-289493D01*
X-99059Y-290404D01*
X-100947Y-291853D01*
X-102396Y-293741D01*
X-103307Y-295940D01*
X-103618Y-298300D01*
Y-311300D01*
X-103307Y-313660D01*
X-102396Y-315859D01*
X-100947Y-317747D01*
X-99059Y-319196D01*
X-96860Y-320107D01*
X-94500Y-320418D01*
X-92140Y-320107D01*
X-89941Y-319196D01*
X-88053Y-317747D01*
X-86604Y-315859D01*
X-85693Y-313660D01*
X-85382Y-311300D01*
Y-298300D01*
X-85693Y-295940D01*
X-86604Y-293741D01*
X-88053Y-291853D01*
X-89941Y-290404D01*
X-92140Y-289493D01*
X-94500Y-289182D01*
D02*
G37*
%LPD*%
D12*
X-27250Y-64540D02*
X-23841Y-67949D01*
Y-86320D02*
Y-67949D01*
X-44109Y-51840D02*
X-27250D01*
X-35126Y5240D02*
Y14001D01*
X27990Y7800D02*
X30250Y5540D01*
X69752Y-26440D02*
X84601Y-11590D01*
X30250Y-26440D02*
Y5540D01*
Y-26440D02*
X69752D01*
X-35126Y14001D02*
X-34627Y13502D01*
X-35126Y-18564D02*
Y-12660D01*
Y-18564D02*
X-27250Y-26440D01*
X-58395Y-66126D02*
X-44109Y-51840D01*
X-58395Y-66126D02*
X-53521D01*
X-58395D02*
X-46027Y-78494D01*
Y-79408D02*
Y-78494D01*
X49539Y-51840D02*
X51500Y-49879D01*
X30250Y-51840D02*
X49539D01*
X75120Y-49973D02*
X88677D01*
X116480Y-52367D02*
X116480Y-52367D01*
X65026Y-49879D02*
X65120Y-49973D01*
X88677D02*
X88740Y-50036D01*
X102360Y-52367D02*
X116480D01*
X90187Y-64540D02*
X102360Y-52367D01*
X30250Y-64540D02*
X90187D01*
X51500Y-49879D02*
X65026D01*
D17*
X-56384Y-47187D02*
X-55884D01*
D26*
X-84500Y36980D02*
D03*
Y-21090D02*
D03*
D31*
X30250Y-39140D02*
D03*
Y-26440D02*
D03*
X-27250Y-39140D02*
D03*
Y-64540D02*
D03*
Y-26440D02*
D03*
Y-51840D02*
D03*
X30250D02*
D03*
Y-64540D02*
D03*
D36*
X160562Y162380D02*
D03*
X168182Y147140D02*
D03*
X160562Y131900D02*
D03*
Y70940D02*
D03*
X168182Y55700D02*
D03*
X160562Y40460D02*
D03*
X168182Y25220D02*
D03*
X160562Y9980D02*
D03*
X168182Y-5260D02*
D03*
X160562Y-20500D02*
D03*
X168182Y-35740D02*
D03*
X160562Y-50980D02*
D03*
X168182Y-66220D02*
D03*
X145322Y162380D02*
D03*
X152942Y147140D02*
D03*
X145322Y131900D02*
D03*
Y70940D02*
D03*
X152942Y55700D02*
D03*
X145322Y40460D02*
D03*
X152942Y25220D02*
D03*
X145322Y9980D02*
D03*
X152942Y-5260D02*
D03*
X145322Y-20500D02*
D03*
X152942Y-35740D02*
D03*
X145322Y-50980D02*
D03*
X152942Y-66220D02*
D03*
X137702Y147140D02*
D03*
Y55700D02*
D03*
Y25220D02*
D03*
Y-5260D02*
D03*
Y-35740D02*
D03*
Y-66220D02*
D03*
X-22318Y-142420D02*
D03*
X-14698Y-157660D02*
D03*
X-22318Y-172900D02*
D03*
X-14698Y-188140D02*
D03*
X-22318Y-203380D02*
D03*
X-14698Y-218620D02*
D03*
X-22318Y-233860D02*
D03*
X-14698Y-249100D02*
D03*
X-22318Y-264340D02*
D03*
X-14698Y-279580D02*
D03*
X-22318Y-294820D02*
D03*
X-14698Y-310060D02*
D03*
X-37558Y-142420D02*
D03*
X-29938Y-157660D02*
D03*
X-37558Y-172900D02*
D03*
X-29938Y-249100D02*
D03*
X-37558Y-264340D02*
D03*
X-29938Y-279580D02*
D03*
X-37558Y-294820D02*
D03*
X-29938Y-310060D02*
D03*
X-52798Y-142420D02*
D03*
Y-172900D02*
D03*
X-45178Y-249100D02*
D03*
X-52798Y-264340D02*
D03*
X-45178Y-279580D02*
D03*
X-52798Y-294820D02*
D03*
X-45178Y-310060D02*
D03*
X-60418Y-5260D02*
D03*
X-68038Y-20500D02*
D03*
X-60418Y-35740D02*
D03*
X-68038Y-142420D02*
D03*
Y-172900D02*
D03*
X-60418Y-249100D02*
D03*
X-68038Y-264340D02*
D03*
X-60418Y-279580D02*
D03*
X-68038Y-294820D02*
D03*
X-60418Y-310060D02*
D03*
X-75658Y-249100D02*
D03*
X-83278Y-264340D02*
D03*
X-75658Y-279580D02*
D03*
Y-310060D02*
D03*
X-98518Y-20500D02*
D03*
X-90898Y-188140D02*
D03*
X-98518Y-203380D02*
D03*
X-90898Y-218620D02*
D03*
X-98518Y-233860D02*
D03*
X-90898Y-249100D02*
D03*
X-98518Y-264340D02*
D03*
X-90898Y-279580D02*
D03*
X-106138Y-5260D02*
D03*
X-113758Y-20500D02*
D03*
X-106138Y-35740D02*
D03*
Y-188140D02*
D03*
X-113758Y-203380D02*
D03*
X-106138Y-218620D02*
D03*
X-113758Y-233860D02*
D03*
X-106138Y-249100D02*
D03*
X-113758Y-264340D02*
D03*
X-106138Y-279580D02*
D03*
X-113758Y-294820D02*
D03*
X-121378Y-5260D02*
D03*
X-128998Y-20500D02*
D03*
X-121378Y-35740D02*
D03*
X-128998Y-142420D02*
D03*
Y-172900D02*
D03*
X-121378Y-188140D02*
D03*
Y-249100D02*
D03*
X-144238Y70940D02*
D03*
X-136618Y55700D02*
D03*
X-144238Y40460D02*
D03*
X-136618Y25220D02*
D03*
X-144238Y9980D02*
D03*
X-136618Y-5260D02*
D03*
X-144238Y-20500D02*
D03*
X-136618Y-35740D02*
D03*
X-144238Y-142420D02*
D03*
X-136618Y-157660D02*
D03*
X-144238Y-172900D02*
D03*
X-159478Y70940D02*
D03*
X-151858Y55700D02*
D03*
X-159478Y40460D02*
D03*
X-151858Y25220D02*
D03*
X-159478Y9980D02*
D03*
X-151858Y-5260D02*
D03*
X-159478Y-20500D02*
D03*
X-151858Y-35740D02*
D03*
X-159478Y-142420D02*
D03*
Y-172900D02*
D03*
X137702Y-157660D02*
D03*
X160562Y-142420D02*
D03*
Y-172900D02*
D03*
X145322Y-142420D02*
D03*
Y-172900D02*
D03*
X130082Y-142420D02*
D03*
Y-172900D02*
D03*
Y-233860D02*
D03*
X114842Y70940D02*
D03*
X122462Y-188140D02*
D03*
X114842Y-203380D02*
D03*
X122462Y-218620D02*
D03*
X114842Y-233860D02*
D03*
X122462Y-249100D02*
D03*
X114842Y-264340D02*
D03*
Y-294820D02*
D03*
X99602Y70940D02*
D03*
X107222Y-66220D02*
D03*
Y-188140D02*
D03*
X99602Y-203380D02*
D03*
X107222Y-218620D02*
D03*
X99602Y-233860D02*
D03*
X107222Y-249100D02*
D03*
X99602Y-264340D02*
D03*
X107222Y-279580D02*
D03*
X84362Y70940D02*
D03*
X91982Y-188140D02*
D03*
Y-218620D02*
D03*
X84362Y-233860D02*
D03*
X91982Y-249100D02*
D03*
X84362Y-264340D02*
D03*
X91982Y-279580D02*
D03*
X69122Y162380D02*
D03*
Y131900D02*
D03*
X76742Y116660D02*
D03*
X69122Y101420D02*
D03*
X76742Y86180D02*
D03*
Y-35740D02*
D03*
X69122Y-142420D02*
D03*
Y-172900D02*
D03*
X76742Y-249100D02*
D03*
X69122Y-264340D02*
D03*
X76742Y-279580D02*
D03*
X69122Y-294820D02*
D03*
X76742Y-310060D02*
D03*
X53882Y162380D02*
D03*
X61502Y147140D02*
D03*
X53882Y131900D02*
D03*
X61502Y116660D02*
D03*
X53882Y101420D02*
D03*
X61502Y86180D02*
D03*
X53882Y-142420D02*
D03*
Y-172900D02*
D03*
X61502Y-249100D02*
D03*
X53882Y-264340D02*
D03*
X61502Y-279580D02*
D03*
X53882Y-294820D02*
D03*
X61502Y-310060D02*
D03*
X38642Y162380D02*
D03*
X46262Y147140D02*
D03*
X38642Y131900D02*
D03*
X46262Y116660D02*
D03*
X38642Y101420D02*
D03*
X46262Y86180D02*
D03*
Y25220D02*
D03*
Y-5260D02*
D03*
X38642Y-142420D02*
D03*
Y-172900D02*
D03*
X46262Y-249100D02*
D03*
X38642Y-264340D02*
D03*
X46262Y-279580D02*
D03*
X38642Y-294820D02*
D03*
X46262Y-310060D02*
D03*
X23402Y162380D02*
D03*
Y-142420D02*
D03*
X31022Y-157660D02*
D03*
X23402Y-172900D02*
D03*
X31022Y-188140D02*
D03*
X23402Y-233860D02*
D03*
X31022Y-249100D02*
D03*
X23402Y-264340D02*
D03*
X31022Y-279580D02*
D03*
X23402Y-294820D02*
D03*
X31022Y-310060D02*
D03*
X8162Y162380D02*
D03*
Y-142420D02*
D03*
X15782Y-157660D02*
D03*
X8162Y-172900D02*
D03*
X15782Y-188140D02*
D03*
X8162Y-203380D02*
D03*
X15782Y-218620D02*
D03*
X8162Y-233860D02*
D03*
X15782Y-249100D02*
D03*
X8162Y-264340D02*
D03*
X15782Y-279580D02*
D03*
X8162Y-294820D02*
D03*
X15782Y-310060D02*
D03*
X-7078Y162380D02*
D03*
X542Y147140D02*
D03*
Y86180D02*
D03*
Y25220D02*
D03*
Y-5260D02*
D03*
X-22318Y162380D02*
D03*
X-37558D02*
D03*
X-29938Y147140D02*
D03*
X-52798Y162380D02*
D03*
X-45178Y147140D02*
D03*
X-68038Y162380D02*
D03*
X-60418Y147140D02*
D03*
X-151858Y-66220D02*
D03*
D37*
X-5000Y-45490D02*
D03*
Y-32490D02*
D03*
Y-58490D02*
D03*
X8000D02*
D03*
Y-45490D02*
D03*
Y-32490D02*
D03*
D38*
X-5941Y-86320D02*
D03*
X-23841D02*
D03*
D39*
X-46124Y-101520D02*
D03*
X-142286Y-66126D02*
D03*
X-121666Y-66126D02*
D03*
X-80415Y-66126D02*
D03*
X-101046Y-66126D02*
D03*
X11731Y40513D02*
D03*
X-8888Y40513D02*
D03*
X-35126Y5240D02*
D03*
X-58395Y-48226D02*
D03*
X-142286Y-48226D02*
D03*
X-121666Y-48226D02*
D03*
X-80415Y-48226D02*
D03*
X-101046Y-48226D02*
D03*
X-35126Y-12660D02*
D03*
X-46124Y-83620D02*
D03*
X-58395Y-66126D02*
D03*
X11731Y58413D02*
D03*
X-8888Y58413D02*
D03*
D40*
X-19050Y122250D02*
D03*
X20320D02*
D03*
D41*
X1500Y-45490D02*
D03*
D42*
X102360Y-42367D02*
D03*
Y-52367D02*
D03*
X116480Y-52367D02*
D03*
Y-42367D02*
D03*
D43*
X-17510Y7800D02*
D03*
X27990D02*
D03*
D44*
X88740Y-41036D02*
D03*
X51500Y-40879D02*
D03*
X88740Y-50036D02*
D03*
X51500Y-49879D02*
D03*
D45*
X34811Y40340D02*
D03*
Y68340D02*
D03*
D46*
X152400Y-209800D02*
D03*
X-154940Y-101108D02*
D03*
X-97800Y154940D02*
D03*
X102200D02*
D03*
X102360Y-154000D02*
D03*
X160020Y-100000D02*
D03*
X-98407Y-155970D02*
D03*
X-154940Y100000D02*
D03*
X-148215Y-209137D02*
D03*
X160020Y100000D02*
D03*
D47*
X84601Y-11590D02*
D03*
Y47410D02*
D03*
D48*
X75120Y-49973D02*
D03*
X65120D02*
D03*
D49*
X-19050Y104690D02*
X-18500Y104140D01*
X-19050Y104690D02*
Y122250D01*
D50*
X11904Y40340D02*
X34811D01*
X11731Y40513D02*
X11904Y40340D01*
X1500Y-45490D02*
X7850Y-39140D01*
X30250D01*
X-47837D02*
X-27250D01*
X11731Y74243D02*
X20320Y82831D01*
Y122250D01*
X16695Y118625D02*
X20320Y122250D01*
X116480Y-36867D02*
Y15531D01*
X84601Y47410D02*
X116480Y15531D01*
X34811Y68340D02*
X63671D01*
X84601Y47410D01*
X11731Y58413D02*
Y74243D01*
X11731Y58413D02*
X11731Y58413D01*
X20320Y82831D02*
X34811Y68340D01*
X-8888Y58413D02*
X11731D01*
D51*
X-55884Y-47187D02*
X-47837Y-39140D01*
D52*
X54500Y-210800D02*
D03*
D53*
X-54500D02*
D03*
D54*
X-94500Y-304800D02*
D03*
X94500D02*
D03*
D55*
X-97800Y100000D02*
D03*
Y-100000D02*
D03*
X102200Y100000D02*
D03*
Y-100000D02*
D03*
D56*
X152400Y-199640D02*
D03*
X162560D02*
D03*
Y-209800D02*
D03*
X152400D02*
D03*
X142240D02*
D03*
Y-219960D02*
D03*
X152400D02*
D03*
X142240Y-199640D02*
D03*
X162560Y-219960D02*
D03*
X-144780Y-111268D02*
D03*
X-165100Y-90948D02*
D03*
X-154940D02*
D03*
X-144780D02*
D03*
Y-101108D02*
D03*
X-154940D02*
D03*
X-165100D02*
D03*
Y-111268D02*
D03*
X-154940D02*
D03*
X-97800Y165100D02*
D03*
X-87640D02*
D03*
Y154940D02*
D03*
X-97800D02*
D03*
X-107960D02*
D03*
Y144780D02*
D03*
X-97800D02*
D03*
X-87640D02*
D03*
X-107960Y165100D02*
D03*
X102200D02*
D03*
X112360D02*
D03*
Y154940D02*
D03*
X102200D02*
D03*
X92040D02*
D03*
Y144780D02*
D03*
X102200D02*
D03*
X112360D02*
D03*
X92040Y165100D02*
D03*
X102360Y-143840D02*
D03*
X112520D02*
D03*
Y-154000D02*
D03*
X102360D02*
D03*
X92200D02*
D03*
Y-164160D02*
D03*
X102360D02*
D03*
X112520D02*
D03*
X92200Y-143840D02*
D03*
X-18500Y104140D02*
D03*
X-35126Y14001D02*
D03*
X27990Y7800D02*
D03*
X170180Y-89840D02*
D03*
Y-100000D02*
D03*
Y-110160D02*
D03*
X160020Y-89840D02*
D03*
Y-100000D02*
D03*
X149860D02*
D03*
Y-110160D02*
D03*
X160020D02*
D03*
X149860Y-89840D02*
D03*
X-98407Y-145810D02*
D03*
X-88247D02*
D03*
Y-155970D02*
D03*
X-98407D02*
D03*
X-108567D02*
D03*
Y-166130D02*
D03*
X-98407D02*
D03*
X-88247D02*
D03*
X-108567Y-145810D02*
D03*
X-165100Y100000D02*
D03*
Y89840D02*
D03*
Y110160D02*
D03*
X-154940D02*
D03*
X-144780D02*
D03*
Y100000D02*
D03*
X-154940D02*
D03*
Y89840D02*
D03*
X-144780D02*
D03*
X-158375Y-219297D02*
D03*
X-148215D02*
D03*
X-138055D02*
D03*
X-148215Y-198977D02*
D03*
X-138055D02*
D03*
Y-209137D02*
D03*
X-148215D02*
D03*
X-158375D02*
D03*
Y-198977D02*
D03*
X170180Y110160D02*
D03*
Y100000D02*
D03*
Y89840D02*
D03*
X160020Y110160D02*
D03*
Y100000D02*
D03*
X149860D02*
D03*
Y89840D02*
D03*
X160020D02*
D03*
X149860Y110160D02*
D03*
M02*
