G04*
G04 #@! TF.GenerationSoftware,Altium Limited,Altium Designer,26.3.0 (6)*
G04*
G04 Layer_Color=13421772*
%FSLAX44Y44*%
%MOMM*%
G71*
G04*
G04 #@! TF.SameCoordinates,5EB6B969-A1C5-4B9D-BA7F-34D15A1FC759*
G04*
G04*
G04 #@! TF.FilePolarity,Positive*
G04*
G01*
G75*
%ADD11C,0.1500*%
D11*
X81000Y-88059D02*
Y-81061D01*
X77501D01*
X76335Y-82228D01*
Y-84560D01*
X77501Y-85727D01*
X81000D01*
X72836Y-88059D02*
X70503D01*
X69337Y-86893D01*
Y-84560D01*
X70503Y-83394D01*
X72836D01*
X74002Y-84560D01*
Y-86893D01*
X72836Y-88059D01*
X67004Y-83394D02*
Y-86893D01*
X65838Y-88059D01*
X64672Y-86893D01*
X63506Y-88059D01*
X62339Y-86893D01*
Y-83394D01*
X56508Y-88059D02*
X58840D01*
X60007Y-86893D01*
Y-84560D01*
X58840Y-83394D01*
X56508D01*
X55342Y-84560D01*
Y-85727D01*
X60007D01*
X53009Y-83394D02*
Y-88059D01*
Y-85727D01*
X51843Y-84560D01*
X50676Y-83394D01*
X49510D01*
X39014Y-81061D02*
Y-88059D01*
X35515D01*
X34348Y-86893D01*
Y-82228D01*
X35515Y-81061D01*
X39014D01*
X32016Y-88059D02*
X29683D01*
X30849D01*
Y-83394D01*
X32016D01*
X26184Y-88059D02*
X22685D01*
X21519Y-86893D01*
X22685Y-85727D01*
X25018D01*
X26184Y-84560D01*
X25018Y-83394D01*
X21519D01*
X18020Y-82228D02*
Y-83394D01*
X19187D01*
X16854D01*
X18020D01*
Y-86893D01*
X16854Y-88059D01*
X13355Y-83394D02*
Y-88059D01*
Y-85727D01*
X12189Y-84560D01*
X11022Y-83394D01*
X9856D01*
X6357Y-88059D02*
X4025D01*
X5191D01*
Y-83394D01*
X6357D01*
X526Y-81061D02*
Y-88059D01*
X-2973D01*
X-4139Y-86893D01*
Y-85727D01*
Y-84560D01*
X-2973Y-83394D01*
X526D01*
X-6472D02*
Y-86893D01*
X-7638Y-88059D01*
X-11137D01*
Y-83394D01*
X-14636Y-82228D02*
Y-83394D01*
X-13470D01*
X-15802D01*
X-14636D01*
Y-86893D01*
X-15802Y-88059D01*
X-19301D02*
X-21634D01*
X-20467D01*
Y-83394D01*
X-19301D01*
X-26299Y-88059D02*
X-28631D01*
X-29798Y-86893D01*
Y-84560D01*
X-28631Y-83394D01*
X-26299D01*
X-25133Y-84560D01*
Y-86893D01*
X-26299Y-88059D01*
X-32130D02*
Y-83394D01*
X-35629D01*
X-36795Y-84560D01*
Y-88059D01*
X-46126Y-81061D02*
Y-88059D01*
X-49625D01*
X-50791Y-86893D01*
Y-85727D01*
X-49625Y-84560D01*
X-46126D01*
X-49625D01*
X-50791Y-83394D01*
Y-82228D01*
X-49625Y-81061D01*
X-46126D01*
X-54290Y-88059D02*
X-56622D01*
X-57789Y-86893D01*
Y-84560D01*
X-56622Y-83394D01*
X-54290D01*
X-53123Y-84560D01*
Y-86893D01*
X-54290Y-88059D01*
X-61288Y-83394D02*
X-63620D01*
X-64787Y-84560D01*
Y-88059D01*
X-61288D01*
X-60121Y-86893D01*
X-61288Y-85727D01*
X-64787D01*
X-67119Y-83394D02*
Y-88059D01*
Y-85727D01*
X-68285Y-84560D01*
X-69452Y-83394D01*
X-70618D01*
X-78782Y-81061D02*
Y-88059D01*
X-75283D01*
X-74117Y-86893D01*
Y-84560D01*
X-75283Y-83394D01*
X-78782D01*
X92894Y-67824D02*
X97559D01*
Y-71322D01*
X95226Y-70156D01*
X94060D01*
X92894Y-71322D01*
Y-73655D01*
X94060Y-74821D01*
X96393D01*
X97559Y-73655D01*
X90561Y-74821D02*
Y-70156D01*
X88229Y-67824D01*
X85896Y-70156D01*
Y-74821D01*
Y-71322D01*
X90561D01*
X76566Y-67824D02*
X71901D01*
Y-68990D01*
X76566Y-73655D01*
Y-74821D01*
X69568Y-71322D02*
X64903D01*
X62570Y-68990D02*
X61404Y-67824D01*
X59071D01*
X57905Y-68990D01*
Y-70156D01*
X59071Y-71322D01*
X60238D01*
X59071D01*
X57905Y-72489D01*
Y-73655D01*
X59071Y-74821D01*
X61404D01*
X62570Y-73655D01*
X55573Y-68990D02*
X54406Y-67824D01*
X52074D01*
X50907Y-68990D01*
Y-73655D01*
X52074Y-74821D01*
X54406D01*
X55573Y-73655D01*
Y-68990D01*
X48575Y-67824D02*
Y-72489D01*
X46242Y-74821D01*
X43910Y-72489D01*
Y-67824D01*
X34579D02*
Y-74821D01*
X31080D01*
X29914Y-73655D01*
Y-68990D01*
X31080Y-67824D01*
X34579D01*
X22916Y-68990D02*
X24083Y-67824D01*
X26415D01*
X27582Y-68990D01*
Y-73655D01*
X26415Y-74821D01*
X24083D01*
X22916Y-73655D01*
X20584Y-71322D02*
X15919D01*
X13586Y-67824D02*
Y-74821D01*
X10087D01*
X8921Y-73655D01*
Y-68990D01*
X10087Y-67824D01*
X13586D01*
X1923Y-68990D02*
X3089Y-67824D01*
X5422D01*
X6588Y-68990D01*
Y-73655D01*
X5422Y-74821D01*
X3089D01*
X1923Y-73655D01*
X-7407Y-67824D02*
Y-74821D01*
X-10906D01*
X-12072Y-73655D01*
Y-72489D01*
X-10906Y-71322D01*
X-7407D01*
X-10906D01*
X-12072Y-70156D01*
Y-68990D01*
X-10906Y-67824D01*
X-7407D01*
X-14405Y-70156D02*
Y-73655D01*
X-15571Y-74821D01*
X-19070D01*
Y-70156D01*
X-26068D02*
X-22569D01*
X-21403Y-71322D01*
Y-73655D01*
X-22569Y-74821D01*
X-26068D01*
X-28400D02*
Y-67824D01*
Y-72489D02*
X-31899Y-70156D01*
X-28400Y-72489D02*
X-31899Y-74821D01*
X-47061Y-68990D02*
X-45895Y-67824D01*
X-43562D01*
X-42396Y-68990D01*
Y-73655D01*
X-43562Y-74821D01*
X-45895D01*
X-47061Y-73655D01*
X-50560Y-74821D02*
X-52893D01*
X-54059Y-73655D01*
Y-71322D01*
X-52893Y-70156D01*
X-50560D01*
X-49394Y-71322D01*
Y-73655D01*
X-50560Y-74821D01*
X-56392D02*
Y-70156D01*
X-59890D01*
X-61057Y-71322D01*
Y-74821D01*
X-63389Y-70156D02*
X-65722Y-74821D01*
X-68054Y-70156D01*
X-73886Y-74821D02*
X-71553D01*
X-70387Y-73655D01*
Y-71322D01*
X-71553Y-70156D01*
X-73886D01*
X-75052Y-71322D01*
Y-72489D01*
X-70387D01*
X-77385Y-70156D02*
Y-74821D01*
Y-72489D01*
X-78551Y-71322D01*
X-79717Y-70156D01*
X-80884D01*
X-85549Y-68990D02*
Y-70156D01*
X-84382D01*
X-86715D01*
X-85549D01*
Y-73655D01*
X-86715Y-74821D01*
X-93713D02*
X-91380D01*
X-90214Y-73655D01*
Y-71322D01*
X-91380Y-70156D01*
X-93713D01*
X-94879Y-71322D01*
Y-72489D01*
X-90214D01*
X-97212Y-70156D02*
Y-74821D01*
Y-72489D01*
X-98378Y-71322D01*
X-99544Y-70156D01*
X-100711D01*
X74208Y-95199D02*
X76155D01*
X75181D01*
Y-100066D01*
X76155Y-101039D01*
X77128D01*
X78102Y-100066D01*
X71288Y-97146D02*
X69341D01*
X68368Y-98119D01*
Y-101039D01*
X71288D01*
X72261Y-100066D01*
X71288Y-99092D01*
X68368D01*
X66421Y-101039D02*
Y-95199D01*
Y-99092D02*
X63501Y-97146D01*
X66421Y-99092D02*
X63501Y-101039D01*
X60581Y-97146D02*
Y-100066D01*
X59608Y-101039D01*
X56688D01*
Y-97146D01*
X54741Y-95199D02*
Y-101039D01*
X51821D01*
X50848Y-100066D01*
Y-99092D01*
Y-98119D01*
X51821Y-97146D01*
X54741D01*
X43061Y-95199D02*
Y-101039D01*
Y-99092D01*
X39167Y-95199D01*
X42087Y-98119D01*
X39167Y-101039D01*
X36247D02*
X34301D01*
X33327Y-100066D01*
Y-98119D01*
X34301Y-97146D01*
X36247D01*
X37221Y-98119D01*
Y-100066D01*
X36247Y-101039D01*
X31381D02*
Y-97146D01*
X28461D01*
X27487Y-98119D01*
Y-101039D01*
X25540D02*
X23594D01*
X24567D01*
Y-97146D01*
X25540D01*
X19700Y-101039D02*
X17754D01*
X16780Y-100066D01*
Y-98119D01*
X17754Y-97146D01*
X19700D01*
X20674Y-98119D01*
Y-100066D01*
X19700Y-101039D01*
X14834Y-97146D02*
Y-101039D01*
Y-99092D01*
X13860Y-98119D01*
X12887Y-97146D01*
X11913D01*
X-740Y-101039D02*
X233Y-100066D01*
X1207Y-101039D01*
X2180D01*
X3153Y-100066D01*
Y-99092D01*
X2180Y-98119D01*
X3153Y-97146D01*
Y-96172D01*
X2180Y-95199D01*
X1207D01*
X233Y-96172D01*
Y-97146D01*
X1207Y-98119D01*
X233Y-99092D01*
Y-100066D01*
X-740Y-98119D02*
X233Y-99092D01*
X2180Y-98119D02*
X1207D01*
X-9118Y-95411D02*
Y-101251D01*
Y-99305D01*
X-13012Y-95411D01*
X-10092Y-98331D01*
X-13012Y-101251D01*
X-15932Y-97358D02*
X-17879D01*
X-18852Y-98331D01*
Y-101251D01*
X-15932D01*
X-14959Y-100278D01*
X-15932Y-99305D01*
X-18852D01*
X-20799Y-101251D02*
Y-97358D01*
X-21772D01*
X-22745Y-98331D01*
Y-101251D01*
Y-98331D01*
X-23719Y-97358D01*
X-24692Y-98331D01*
Y-101251D01*
X-26639D02*
X-28586D01*
X-27612D01*
Y-97358D01*
X-26639D01*
X-31506Y-101251D02*
X-33452D01*
X-32479D01*
Y-95411D01*
X-31506D01*
X-42213D02*
Y-101251D01*
Y-99305D01*
X-46106Y-95411D01*
X-43186Y-98331D01*
X-46106Y-101251D01*
X-49026D02*
X-50973D01*
X-51946Y-100278D01*
Y-98331D01*
X-50973Y-97358D01*
X-49026D01*
X-48053Y-98331D01*
Y-100278D01*
X-49026Y-101251D01*
X-53893Y-103198D02*
Y-97358D01*
X-56813D01*
X-57786Y-98331D01*
Y-100278D01*
X-56813Y-101251D01*
X-53893D01*
X-59733Y-97358D02*
Y-100278D01*
X-60706Y-101251D01*
X-63626D01*
Y-102225D01*
X-62653Y-103198D01*
X-61680D01*
X-63626Y-101251D02*
Y-97358D01*
X-65573D02*
Y-101251D01*
Y-99305D01*
X-66546Y-98331D01*
X-67520Y-97358D01*
X-68493D01*
X-72386D02*
X-74333D01*
X-75307Y-98331D01*
Y-101251D01*
X-72386D01*
X-71413Y-100278D01*
X-72386Y-99305D01*
X-75307D01*
M02*
