G04*
G04 #@! TF.GenerationSoftware,Altium Limited,Altium Designer,26.3.0 (6)*
G04*
G04 Layer_Color=0*
%FSLAX44Y44*%
%MOMM*%
G71*
G04*
G04 #@! TF.SameCoordinates,5EB6B969-A1C5-4B9D-BA7F-34D15A1FC759*
G04*
G04*
G04 #@! TF.FilePolarity,Positive*
G04*
G01*
G75*
G36*
X-21898Y-86239D02*
X-21378D01*
Y-86671D01*
X-21898D01*
Y-87590D01*
X-22369D01*
Y-86671D01*
X-24036D01*
Y-86239D01*
X-22280Y-83758D01*
X-21898D01*
Y-86239D01*
D02*
G37*
G36*
X-25719Y-83764D02*
X-25669D01*
X-25553Y-83769D01*
X-25431Y-83786D01*
X-25298Y-83803D01*
X-25176Y-83830D01*
X-25115Y-83847D01*
X-25066Y-83863D01*
X-25060D01*
X-25055Y-83869D01*
X-25021Y-83886D01*
X-24971Y-83908D01*
X-24911Y-83947D01*
X-24844Y-83996D01*
X-24772Y-84063D01*
X-24706Y-84140D01*
X-24639Y-84229D01*
Y-84235D01*
X-24634Y-84240D01*
X-24612Y-84273D01*
X-24589Y-84329D01*
X-24556Y-84401D01*
X-24529Y-84484D01*
X-24501Y-84583D01*
X-24484Y-84689D01*
X-24479Y-84805D01*
Y-84810D01*
Y-84821D01*
Y-84844D01*
X-24484Y-84871D01*
Y-84910D01*
X-24490Y-84949D01*
X-24512Y-85043D01*
X-24545Y-85154D01*
X-24589Y-85270D01*
X-24656Y-85386D01*
X-24700Y-85442D01*
X-24745Y-85497D01*
X-24750Y-85503D01*
X-24756Y-85508D01*
X-24772Y-85525D01*
X-24794Y-85541D01*
X-24822Y-85563D01*
X-24855Y-85585D01*
X-24899Y-85613D01*
X-24944Y-85646D01*
X-24999Y-85674D01*
X-25060Y-85702D01*
X-25127Y-85735D01*
X-25199Y-85763D01*
X-25282Y-85785D01*
X-25365Y-85813D01*
X-25459Y-85829D01*
X-25558Y-85846D01*
X-25547Y-85851D01*
X-25525Y-85862D01*
X-25492Y-85885D01*
X-25448Y-85907D01*
X-25348Y-85968D01*
X-25298Y-86006D01*
X-25254Y-86040D01*
X-25243Y-86051D01*
X-25215Y-86078D01*
X-25171Y-86123D01*
X-25115Y-86178D01*
X-25055Y-86256D01*
X-24983Y-86339D01*
X-24911Y-86438D01*
X-24833Y-86549D01*
X-24174Y-87590D01*
X-24805D01*
X-25309Y-86793D01*
Y-86787D01*
X-25320Y-86776D01*
X-25331Y-86759D01*
X-25348Y-86737D01*
X-25387Y-86676D01*
X-25437Y-86599D01*
X-25498Y-86516D01*
X-25558Y-86427D01*
X-25619Y-86344D01*
X-25675Y-86267D01*
X-25680Y-86261D01*
X-25697Y-86239D01*
X-25725Y-86206D01*
X-25763Y-86167D01*
X-25846Y-86084D01*
X-25891Y-86045D01*
X-25935Y-86012D01*
X-25940Y-86006D01*
X-25952Y-86001D01*
X-25974Y-85990D01*
X-26007Y-85973D01*
X-26040Y-85956D01*
X-26079Y-85940D01*
X-26168Y-85912D01*
X-26173D01*
X-26184Y-85907D01*
X-26206D01*
X-26234Y-85901D01*
X-26273Y-85896D01*
X-26317D01*
X-26378Y-85890D01*
X-27031D01*
Y-87590D01*
X-27541D01*
Y-83758D01*
X-25763D01*
X-25719Y-83764D01*
D02*
G37*
G36*
X-43562Y-81697D02*
X-43568Y-81742D01*
Y-81792D01*
X-43573Y-81908D01*
X-43590Y-82030D01*
X-43607Y-82163D01*
X-43634Y-82284D01*
X-43651Y-82345D01*
X-43668Y-82395D01*
Y-82401D01*
X-43673Y-82406D01*
X-43690Y-82439D01*
X-43712Y-82489D01*
X-43751Y-82550D01*
X-43801Y-82617D01*
X-43867Y-82689D01*
X-43944Y-82755D01*
X-44033Y-82822D01*
X-44039D01*
X-44044Y-82827D01*
X-44077Y-82849D01*
X-44133Y-82871D01*
X-44205Y-82905D01*
X-44288Y-82932D01*
X-44387Y-82960D01*
X-44493Y-82977D01*
X-44609Y-82982D01*
X-44614D01*
X-44626D01*
X-44648D01*
X-44675Y-82977D01*
X-44714D01*
X-44753Y-82971D01*
X-44847Y-82949D01*
X-44958Y-82916D01*
X-45074Y-82871D01*
X-45190Y-82805D01*
X-45246Y-82761D01*
X-45301Y-82716D01*
X-45307Y-82711D01*
X-45312Y-82705D01*
X-45329Y-82689D01*
X-45345Y-82667D01*
X-45367Y-82639D01*
X-45390Y-82605D01*
X-45417Y-82561D01*
X-45451Y-82517D01*
X-45478Y-82462D01*
X-45506Y-82401D01*
X-45539Y-82334D01*
X-45567Y-82262D01*
X-45589Y-82179D01*
X-45617Y-82096D01*
X-45633Y-82002D01*
X-45650Y-81902D01*
X-45655Y-81913D01*
X-45666Y-81936D01*
X-45689Y-81969D01*
X-45711Y-82013D01*
X-45772Y-82113D01*
X-45810Y-82163D01*
X-45844Y-82207D01*
X-45855Y-82218D01*
X-45883Y-82246D01*
X-45927Y-82290D01*
X-45982Y-82345D01*
X-46060Y-82406D01*
X-46143Y-82478D01*
X-46242Y-82550D01*
X-46353Y-82628D01*
X-47394Y-83287D01*
Y-82655D01*
X-46597Y-82151D01*
X-46591D01*
X-46580Y-82140D01*
X-46564Y-82129D01*
X-46541Y-82113D01*
X-46480Y-82074D01*
X-46403Y-82024D01*
X-46320Y-81963D01*
X-46231Y-81902D01*
X-46148Y-81841D01*
X-46071Y-81786D01*
X-46065Y-81781D01*
X-46043Y-81764D01*
X-46010Y-81736D01*
X-45971Y-81697D01*
X-45888Y-81614D01*
X-45849Y-81570D01*
X-45816Y-81526D01*
X-45810Y-81520D01*
X-45805Y-81509D01*
X-45794Y-81487D01*
X-45777Y-81454D01*
X-45761Y-81421D01*
X-45744Y-81382D01*
X-45716Y-81293D01*
Y-81288D01*
X-45711Y-81277D01*
Y-81255D01*
X-45705Y-81227D01*
X-45700Y-81188D01*
Y-81144D01*
X-45694Y-81083D01*
Y-80429D01*
X-47394D01*
Y-79920D01*
X-43562D01*
Y-81697D01*
D02*
G37*
G36*
X-46320Y-84062D02*
X-46325D01*
X-46336Y-84067D01*
X-46359Y-84073D01*
X-46386Y-84078D01*
X-46420Y-84084D01*
X-46458Y-84095D01*
X-46541Y-84123D01*
X-46641Y-84162D01*
X-46735Y-84211D01*
X-46824Y-84267D01*
X-46901Y-84333D01*
X-46907Y-84344D01*
X-46929Y-84366D01*
X-46957Y-84411D01*
X-46984Y-84466D01*
X-47018Y-84532D01*
X-47045Y-84616D01*
X-47067Y-84710D01*
X-47073Y-84809D01*
Y-84843D01*
X-47067Y-84865D01*
X-47062Y-84926D01*
X-47045Y-85003D01*
X-47018Y-85092D01*
X-46979Y-85186D01*
X-46923Y-85280D01*
X-46846Y-85369D01*
X-46835Y-85380D01*
X-46802Y-85407D01*
X-46752Y-85441D01*
X-46685Y-85485D01*
X-46602Y-85529D01*
X-46508Y-85562D01*
X-46397Y-85590D01*
X-46276Y-85601D01*
X-46270D01*
X-46259D01*
X-46242D01*
X-46220Y-85596D01*
X-46159Y-85590D01*
X-46087Y-85574D01*
X-45999Y-85551D01*
X-45910Y-85513D01*
X-45821Y-85457D01*
X-45739Y-85385D01*
X-45727Y-85374D01*
X-45705Y-85346D01*
X-45672Y-85302D01*
X-45633Y-85241D01*
X-45595Y-85164D01*
X-45561Y-85070D01*
X-45539Y-84964D01*
X-45528Y-84848D01*
Y-84798D01*
X-45534Y-84760D01*
X-45539Y-84710D01*
X-45550Y-84654D01*
X-45561Y-84588D01*
X-45578Y-84516D01*
X-45163Y-84571D01*
Y-84599D01*
X-45168Y-84621D01*
Y-84693D01*
X-45157Y-84754D01*
X-45146Y-84826D01*
X-45129Y-84909D01*
X-45102Y-85003D01*
X-45063Y-85092D01*
X-45013Y-85186D01*
Y-85191D01*
X-45008Y-85197D01*
X-44985Y-85225D01*
X-44947Y-85263D01*
X-44897Y-85308D01*
X-44825Y-85352D01*
X-44742Y-85391D01*
X-44648Y-85418D01*
X-44592Y-85429D01*
X-44531D01*
X-44526D01*
X-44520D01*
X-44487D01*
X-44443Y-85418D01*
X-44382Y-85407D01*
X-44315Y-85385D01*
X-44243Y-85358D01*
X-44172Y-85313D01*
X-44105Y-85252D01*
X-44099Y-85247D01*
X-44077Y-85219D01*
X-44050Y-85180D01*
X-44016Y-85131D01*
X-43989Y-85064D01*
X-43961Y-84986D01*
X-43939Y-84898D01*
X-43933Y-84798D01*
Y-84754D01*
X-43944Y-84704D01*
X-43955Y-84638D01*
X-43978Y-84566D01*
X-44005Y-84494D01*
X-44050Y-84416D01*
X-44105Y-84344D01*
X-44111Y-84339D01*
X-44138Y-84317D01*
X-44177Y-84283D01*
X-44232Y-84245D01*
X-44304Y-84206D01*
X-44393Y-84167D01*
X-44498Y-84134D01*
X-44620Y-84112D01*
X-44537Y-83641D01*
X-44531D01*
X-44515Y-83646D01*
X-44493Y-83652D01*
X-44459Y-83658D01*
X-44421Y-83669D01*
X-44376Y-83685D01*
X-44271Y-83719D01*
X-44149Y-83774D01*
X-44028Y-83840D01*
X-43911Y-83923D01*
X-43806Y-84029D01*
X-43801Y-84034D01*
X-43795Y-84045D01*
X-43784Y-84062D01*
X-43767Y-84084D01*
X-43745Y-84112D01*
X-43723Y-84150D01*
X-43701Y-84189D01*
X-43673Y-84239D01*
X-43629Y-84350D01*
X-43584Y-84477D01*
X-43557Y-84627D01*
X-43546Y-84704D01*
Y-84843D01*
X-43551Y-84903D01*
X-43562Y-84976D01*
X-43579Y-85064D01*
X-43607Y-85164D01*
X-43640Y-85263D01*
X-43684Y-85363D01*
Y-85369D01*
X-43690Y-85374D01*
X-43706Y-85407D01*
X-43740Y-85457D01*
X-43778Y-85513D01*
X-43834Y-85579D01*
X-43895Y-85646D01*
X-43967Y-85712D01*
X-44050Y-85767D01*
X-44061Y-85773D01*
X-44088Y-85789D01*
X-44138Y-85812D01*
X-44199Y-85839D01*
X-44271Y-85867D01*
X-44354Y-85889D01*
X-44448Y-85906D01*
X-44542Y-85911D01*
X-44553D01*
X-44587D01*
X-44631Y-85906D01*
X-44692Y-85895D01*
X-44764Y-85878D01*
X-44841Y-85850D01*
X-44919Y-85817D01*
X-44997Y-85773D01*
X-45008Y-85767D01*
X-45030Y-85751D01*
X-45068Y-85717D01*
X-45113Y-85673D01*
X-45163Y-85618D01*
X-45218Y-85551D01*
X-45268Y-85474D01*
X-45318Y-85380D01*
Y-85385D01*
X-45323Y-85396D01*
X-45329Y-85413D01*
X-45334Y-85435D01*
X-45356Y-85496D01*
X-45390Y-85574D01*
X-45434Y-85662D01*
X-45489Y-85751D01*
X-45561Y-85834D01*
X-45644Y-85911D01*
X-45655Y-85917D01*
X-45689Y-85939D01*
X-45744Y-85972D01*
X-45816Y-86005D01*
X-45905Y-86039D01*
X-46010Y-86072D01*
X-46132Y-86094D01*
X-46265Y-86100D01*
X-46270D01*
X-46287D01*
X-46314D01*
X-46348Y-86094D01*
X-46392Y-86088D01*
X-46442Y-86077D01*
X-46497Y-86066D01*
X-46558Y-86055D01*
X-46691Y-86011D01*
X-46763Y-85978D01*
X-46829Y-85944D01*
X-46901Y-85900D01*
X-46973Y-85850D01*
X-47045Y-85795D01*
X-47112Y-85729D01*
X-47117Y-85723D01*
X-47128Y-85712D01*
X-47145Y-85690D01*
X-47167Y-85662D01*
X-47195Y-85629D01*
X-47222Y-85585D01*
X-47256Y-85535D01*
X-47283Y-85474D01*
X-47317Y-85413D01*
X-47350Y-85341D01*
X-47378Y-85269D01*
X-47405Y-85186D01*
X-47427Y-85097D01*
X-47444Y-85003D01*
X-47455Y-84909D01*
X-47461Y-84804D01*
Y-84754D01*
X-47455Y-84721D01*
X-47449Y-84677D01*
X-47444Y-84627D01*
X-47433Y-84571D01*
X-47422Y-84510D01*
X-47389Y-84377D01*
X-47333Y-84239D01*
X-47300Y-84167D01*
X-47261Y-84101D01*
X-47211Y-84034D01*
X-47162Y-83968D01*
X-47156Y-83962D01*
X-47145Y-83951D01*
X-47128Y-83934D01*
X-47106Y-83918D01*
X-47078Y-83890D01*
X-47040Y-83862D01*
X-47001Y-83829D01*
X-46951Y-83796D01*
X-46896Y-83763D01*
X-46840Y-83730D01*
X-46708Y-83669D01*
X-46553Y-83619D01*
X-46469Y-83602D01*
X-46381Y-83591D01*
X-46320Y-84062D01*
D02*
G37*
G36*
X-55833Y-46304D02*
X-55839Y-46348D01*
Y-46398D01*
X-55844Y-46514D01*
X-55861Y-46636D01*
X-55877Y-46769D01*
X-55905Y-46891D01*
X-55922Y-46952D01*
X-55938Y-47001D01*
Y-47007D01*
X-55944Y-47013D01*
X-55960Y-47046D01*
X-55983Y-47096D01*
X-56021Y-47157D01*
X-56071Y-47223D01*
X-56138Y-47295D01*
X-56215Y-47361D01*
X-56304Y-47428D01*
X-56309D01*
X-56315Y-47433D01*
X-56348Y-47456D01*
X-56403Y-47478D01*
X-56475Y-47511D01*
X-56558Y-47538D01*
X-56658Y-47566D01*
X-56763Y-47583D01*
X-56880Y-47588D01*
X-56885D01*
X-56896D01*
X-56918D01*
X-56946Y-47583D01*
X-56985D01*
X-57024Y-47577D01*
X-57118Y-47555D01*
X-57228Y-47522D01*
X-57345Y-47478D01*
X-57461Y-47411D01*
X-57516Y-47367D01*
X-57572Y-47323D01*
X-57577Y-47317D01*
X-57583Y-47312D01*
X-57600Y-47295D01*
X-57616Y-47273D01*
X-57638Y-47245D01*
X-57660Y-47212D01*
X-57688Y-47168D01*
X-57721Y-47123D01*
X-57749Y-47068D01*
X-57777Y-47007D01*
X-57810Y-46940D01*
X-57838Y-46869D01*
X-57860Y-46785D01*
X-57887Y-46702D01*
X-57904Y-46608D01*
X-57921Y-46509D01*
X-57926Y-46520D01*
X-57937Y-46542D01*
X-57959Y-46575D01*
X-57982Y-46619D01*
X-58042Y-46719D01*
X-58081Y-46769D01*
X-58114Y-46813D01*
X-58126Y-46824D01*
X-58153Y-46852D01*
X-58197Y-46896D01*
X-58253Y-46952D01*
X-58330Y-47013D01*
X-58413Y-47084D01*
X-58513Y-47157D01*
X-58624Y-47234D01*
X-59665Y-47893D01*
Y-47262D01*
X-58868Y-46758D01*
X-58862D01*
X-58851Y-46747D01*
X-58834Y-46736D01*
X-58812Y-46719D01*
X-58751Y-46680D01*
X-58674Y-46630D01*
X-58591Y-46569D01*
X-58502Y-46509D01*
X-58419Y-46448D01*
X-58341Y-46392D01*
X-58336Y-46387D01*
X-58314Y-46370D01*
X-58281Y-46343D01*
X-58242Y-46304D01*
X-58159Y-46221D01*
X-58120Y-46176D01*
X-58087Y-46132D01*
X-58081Y-46127D01*
X-58076Y-46115D01*
X-58065Y-46093D01*
X-58048Y-46060D01*
X-58031Y-46027D01*
X-58015Y-45988D01*
X-57987Y-45900D01*
Y-45894D01*
X-57982Y-45883D01*
Y-45861D01*
X-57976Y-45833D01*
X-57970Y-45794D01*
Y-45750D01*
X-57965Y-45689D01*
Y-45036D01*
X-59665D01*
Y-44526D01*
X-55833D01*
Y-46304D01*
D02*
G37*
G36*
X-56780Y-48557D02*
X-56769Y-48569D01*
X-56763Y-48591D01*
X-56747Y-48618D01*
X-56730Y-48651D01*
X-56708Y-48690D01*
X-56653Y-48784D01*
X-56592Y-48895D01*
X-56514Y-49006D01*
X-56426Y-49122D01*
X-56331Y-49239D01*
X-56326Y-49244D01*
X-56320Y-49250D01*
X-56304Y-49266D01*
X-56287Y-49288D01*
X-56232Y-49338D01*
X-56165Y-49405D01*
X-56088Y-49471D01*
X-55999Y-49543D01*
X-55911Y-49604D01*
X-55816Y-49659D01*
Y-49964D01*
X-59665D01*
Y-49493D01*
X-56669D01*
X-56675Y-49488D01*
X-56697Y-49460D01*
X-56730Y-49427D01*
X-56769Y-49371D01*
X-56819Y-49310D01*
X-56874Y-49233D01*
X-56935Y-49144D01*
X-56996Y-49045D01*
Y-49039D01*
X-57001Y-49034D01*
X-57024Y-49000D01*
X-57051Y-48945D01*
X-57084Y-48878D01*
X-57123Y-48801D01*
X-57162Y-48718D01*
X-57201Y-48635D01*
X-57234Y-48552D01*
X-56780D01*
Y-48557D01*
D02*
G37*
G36*
X-141513Y-44532D02*
X-141458D01*
X-141402Y-44537D01*
X-141330Y-44543D01*
X-141258Y-44554D01*
X-141098Y-44582D01*
X-140921Y-44620D01*
X-140744Y-44676D01*
X-140572Y-44753D01*
X-140566Y-44759D01*
X-140550Y-44764D01*
X-140527Y-44776D01*
X-140500Y-44798D01*
X-140461Y-44820D01*
X-140417Y-44847D01*
X-140317Y-44920D01*
X-140206Y-45014D01*
X-140096Y-45124D01*
X-139985Y-45252D01*
X-139891Y-45401D01*
X-139885Y-45407D01*
X-139880Y-45423D01*
X-139869Y-45445D01*
X-139852Y-45473D01*
X-139835Y-45518D01*
X-139819Y-45562D01*
X-139797Y-45617D01*
X-139774Y-45678D01*
X-139752Y-45745D01*
X-139730Y-45816D01*
X-139697Y-45971D01*
X-139669Y-46149D01*
X-139658Y-46332D01*
Y-46387D01*
X-139664Y-46426D01*
X-139669Y-46475D01*
X-139675Y-46536D01*
X-139680Y-46597D01*
X-139697Y-46669D01*
X-139730Y-46819D01*
X-139780Y-46985D01*
X-139813Y-47068D01*
X-139852Y-47145D01*
X-139902Y-47223D01*
X-139952Y-47301D01*
X-139957Y-47306D01*
X-139963Y-47317D01*
X-139979Y-47339D01*
X-140007Y-47367D01*
X-140035Y-47395D01*
X-140073Y-47433D01*
X-140118Y-47472D01*
X-140162Y-47516D01*
X-140217Y-47561D01*
X-140284Y-47605D01*
X-140350Y-47655D01*
X-140422Y-47699D01*
X-140505Y-47738D01*
X-140588Y-47782D01*
X-140677Y-47815D01*
X-140777Y-47849D01*
X-140893Y-47350D01*
X-140887D01*
X-140876Y-47345D01*
X-140854Y-47334D01*
X-140827Y-47323D01*
X-140793Y-47312D01*
X-140749Y-47295D01*
X-140660Y-47251D01*
X-140561Y-47195D01*
X-140461Y-47129D01*
X-140367Y-47046D01*
X-140284Y-46957D01*
X-140273Y-46946D01*
X-140251Y-46913D01*
X-140223Y-46858D01*
X-140184Y-46785D01*
X-140151Y-46691D01*
X-140118Y-46586D01*
X-140096Y-46459D01*
X-140090Y-46320D01*
Y-46276D01*
X-140096Y-46248D01*
Y-46210D01*
X-140101Y-46165D01*
X-140118Y-46060D01*
X-140140Y-45944D01*
X-140179Y-45822D01*
X-140234Y-45695D01*
X-140306Y-45578D01*
Y-45573D01*
X-140317Y-45567D01*
X-140345Y-45529D01*
X-140389Y-45479D01*
X-140456Y-45418D01*
X-140539Y-45346D01*
X-140633Y-45279D01*
X-140749Y-45219D01*
X-140876Y-45163D01*
X-140882D01*
X-140893Y-45158D01*
X-140910Y-45152D01*
X-140937Y-45146D01*
X-140970Y-45135D01*
X-141009Y-45124D01*
X-141103Y-45108D01*
X-141214Y-45086D01*
X-141336Y-45063D01*
X-141469Y-45052D01*
X-141613Y-45047D01*
X-141618D01*
X-141635D01*
X-141663D01*
X-141696D01*
X-141735Y-45052D01*
X-141784D01*
X-141840Y-45058D01*
X-141901Y-45063D01*
X-142034Y-45080D01*
X-142178Y-45108D01*
X-142322Y-45141D01*
X-142465Y-45185D01*
X-142471D01*
X-142482Y-45191D01*
X-142499Y-45202D01*
X-142526Y-45213D01*
X-142593Y-45246D01*
X-142670Y-45296D01*
X-142759Y-45357D01*
X-142853Y-45434D01*
X-142936Y-45523D01*
X-143014Y-45628D01*
Y-45634D01*
X-143019Y-45645D01*
X-143030Y-45662D01*
X-143041Y-45684D01*
X-143053Y-45711D01*
X-143069Y-45745D01*
X-143102Y-45822D01*
X-143135Y-45922D01*
X-143163Y-46032D01*
X-143185Y-46154D01*
X-143191Y-46282D01*
Y-46320D01*
X-143185Y-46354D01*
Y-46392D01*
X-143180Y-46431D01*
X-143158Y-46531D01*
X-143130Y-46647D01*
X-143086Y-46763D01*
X-143025Y-46885D01*
X-142992Y-46946D01*
X-142947Y-47002D01*
X-142942Y-47007D01*
X-142936Y-47013D01*
X-142920Y-47029D01*
X-142903Y-47051D01*
X-142875Y-47073D01*
X-142842Y-47101D01*
X-142809Y-47134D01*
X-142765Y-47162D01*
X-142715Y-47195D01*
X-142659Y-47234D01*
X-142604Y-47267D01*
X-142537Y-47301D01*
X-142465Y-47328D01*
X-142388Y-47356D01*
X-142305Y-47383D01*
X-142216Y-47406D01*
X-142344Y-47915D01*
X-142349D01*
X-142371Y-47910D01*
X-142405Y-47899D01*
X-142449Y-47882D01*
X-142499Y-47865D01*
X-142560Y-47843D01*
X-142626Y-47815D01*
X-142698Y-47782D01*
X-142853Y-47705D01*
X-143008Y-47605D01*
X-143086Y-47544D01*
X-143163Y-47483D01*
X-143230Y-47417D01*
X-143296Y-47339D01*
X-143302Y-47334D01*
X-143313Y-47323D01*
X-143324Y-47295D01*
X-143346Y-47267D01*
X-143374Y-47223D01*
X-143401Y-47179D01*
X-143429Y-47118D01*
X-143457Y-47057D01*
X-143490Y-46985D01*
X-143518Y-46907D01*
X-143545Y-46824D01*
X-143573Y-46736D01*
X-143595Y-46642D01*
X-143606Y-46542D01*
X-143617Y-46437D01*
X-143623Y-46326D01*
Y-46265D01*
X-143617Y-46221D01*
Y-46171D01*
X-143612Y-46110D01*
X-143601Y-46044D01*
X-143590Y-45966D01*
X-143562Y-45805D01*
X-143518Y-45639D01*
X-143457Y-45473D01*
X-143418Y-45396D01*
X-143374Y-45318D01*
X-143368Y-45313D01*
X-143363Y-45301D01*
X-143346Y-45279D01*
X-143324Y-45257D01*
X-143302Y-45224D01*
X-143268Y-45185D01*
X-143230Y-45141D01*
X-143185Y-45097D01*
X-143135Y-45052D01*
X-143086Y-45002D01*
X-142958Y-44903D01*
X-142809Y-44809D01*
X-142643Y-44726D01*
X-142637D01*
X-142621Y-44715D01*
X-142593Y-44709D01*
X-142560Y-44692D01*
X-142515Y-44681D01*
X-142460Y-44665D01*
X-142399Y-44643D01*
X-142333Y-44626D01*
X-142261Y-44609D01*
X-142178Y-44587D01*
X-142006Y-44560D01*
X-141812Y-44537D01*
X-141613Y-44526D01*
X-141607D01*
X-141585D01*
X-141552D01*
X-141513Y-44532D01*
D02*
G37*
G36*
X-140910Y-48352D02*
X-140860Y-48358D01*
X-140799Y-48364D01*
X-140738Y-48375D01*
X-140666Y-48391D01*
X-140522Y-48430D01*
X-140444Y-48458D01*
X-140361Y-48491D01*
X-140284Y-48530D01*
X-140212Y-48580D01*
X-140134Y-48629D01*
X-140068Y-48690D01*
X-140062Y-48696D01*
X-140051Y-48707D01*
X-140035Y-48724D01*
X-140013Y-48751D01*
X-139985Y-48784D01*
X-139952Y-48829D01*
X-139924Y-48873D01*
X-139885Y-48928D01*
X-139852Y-48984D01*
X-139824Y-49050D01*
X-139763Y-49200D01*
X-139741Y-49277D01*
X-139725Y-49366D01*
X-139713Y-49454D01*
X-139708Y-49549D01*
Y-49587D01*
X-139713Y-49615D01*
Y-49643D01*
X-139719Y-49682D01*
X-139736Y-49776D01*
X-139758Y-49881D01*
X-139797Y-49997D01*
X-139846Y-50113D01*
X-139913Y-50230D01*
Y-50235D01*
X-139924Y-50241D01*
X-139935Y-50257D01*
X-139952Y-50279D01*
X-139996Y-50335D01*
X-140057Y-50407D01*
X-140140Y-50479D01*
X-140240Y-50562D01*
X-140356Y-50634D01*
X-140489Y-50700D01*
X-140494D01*
X-140505Y-50706D01*
X-140527Y-50717D01*
X-140555Y-50728D01*
X-140594Y-50739D01*
X-140644Y-50756D01*
X-140699Y-50767D01*
X-140760Y-50783D01*
X-140832Y-50800D01*
X-140915Y-50817D01*
X-141004Y-50828D01*
X-141098Y-50839D01*
X-141203Y-50850D01*
X-141314Y-50861D01*
X-141436Y-50866D01*
X-141563D01*
X-141568D01*
X-141596D01*
X-141635D01*
X-141685D01*
X-141746Y-50861D01*
X-141818D01*
X-141901Y-50855D01*
X-141984Y-50844D01*
X-142172Y-50828D01*
X-142371Y-50800D01*
X-142560Y-50761D01*
X-142654Y-50733D01*
X-142737Y-50706D01*
X-142742D01*
X-142753Y-50700D01*
X-142776Y-50689D01*
X-142809Y-50678D01*
X-142842Y-50662D01*
X-142886Y-50639D01*
X-142980Y-50584D01*
X-143086Y-50518D01*
X-143196Y-50440D01*
X-143302Y-50340D01*
X-143396Y-50230D01*
Y-50224D01*
X-143407Y-50213D01*
X-143418Y-50196D01*
X-143429Y-50174D01*
X-143446Y-50141D01*
X-143468Y-50108D01*
X-143490Y-50064D01*
X-143506Y-50019D01*
X-143551Y-49914D01*
X-143590Y-49787D01*
X-143612Y-49648D01*
X-143623Y-49493D01*
Y-49449D01*
X-143617Y-49421D01*
Y-49383D01*
X-143612Y-49338D01*
X-143590Y-49233D01*
X-143562Y-49117D01*
X-143518Y-48995D01*
X-143457Y-48873D01*
X-143418Y-48812D01*
X-143374Y-48757D01*
X-143368Y-48751D01*
X-143363Y-48746D01*
X-143346Y-48729D01*
X-143329Y-48713D01*
X-143302Y-48690D01*
X-143268Y-48663D01*
X-143191Y-48607D01*
X-143091Y-48552D01*
X-142969Y-48496D01*
X-142831Y-48452D01*
X-142670Y-48419D01*
X-142632Y-48873D01*
X-142637D01*
X-142648Y-48879D01*
X-142659D01*
X-142682Y-48884D01*
X-142742Y-48901D01*
X-142809Y-48923D01*
X-142886Y-48951D01*
X-142964Y-48989D01*
X-143036Y-49034D01*
X-143097Y-49089D01*
X-143102Y-49095D01*
X-143119Y-49117D01*
X-143141Y-49155D01*
X-143163Y-49200D01*
X-143191Y-49261D01*
X-143213Y-49333D01*
X-143230Y-49416D01*
X-143235Y-49504D01*
Y-49543D01*
X-143230Y-49582D01*
X-143224Y-49632D01*
X-143213Y-49693D01*
X-143196Y-49753D01*
X-143174Y-49820D01*
X-143141Y-49881D01*
X-143135Y-49886D01*
X-143125Y-49908D01*
X-143102Y-49942D01*
X-143069Y-49975D01*
X-143030Y-50019D01*
X-142986Y-50064D01*
X-142936Y-50108D01*
X-142875Y-50152D01*
X-142870Y-50158D01*
X-142842Y-50169D01*
X-142803Y-50191D01*
X-142753Y-50213D01*
X-142687Y-50241D01*
X-142610Y-50268D01*
X-142521Y-50296D01*
X-142421Y-50324D01*
X-142416D01*
X-142410Y-50329D01*
X-142394D01*
X-142371Y-50335D01*
X-142316Y-50346D01*
X-142244Y-50363D01*
X-142155Y-50374D01*
X-142061Y-50385D01*
X-141956Y-50390D01*
X-141845Y-50396D01*
X-141840D01*
X-141823D01*
X-141796D01*
X-141751D01*
X-141762Y-50390D01*
X-141790Y-50368D01*
X-141829Y-50335D01*
X-141884Y-50296D01*
X-141939Y-50241D01*
X-142000Y-50174D01*
X-142061Y-50097D01*
X-142117Y-50008D01*
X-142122Y-49997D01*
X-142139Y-49964D01*
X-142161Y-49914D01*
X-142183Y-49853D01*
X-142211Y-49770D01*
X-142233Y-49682D01*
X-142250Y-49582D01*
X-142255Y-49477D01*
Y-49432D01*
X-142250Y-49399D01*
X-142244Y-49355D01*
X-142239Y-49310D01*
X-142227Y-49255D01*
X-142211Y-49200D01*
X-142172Y-49072D01*
X-142144Y-49006D01*
X-142111Y-48939D01*
X-142072Y-48868D01*
X-142023Y-48801D01*
X-141973Y-48735D01*
X-141912Y-48674D01*
X-141906Y-48668D01*
X-141895Y-48657D01*
X-141879Y-48646D01*
X-141851Y-48624D01*
X-141812Y-48596D01*
X-141773Y-48569D01*
X-141723Y-48541D01*
X-141668Y-48513D01*
X-141607Y-48480D01*
X-141541Y-48452D01*
X-141463Y-48425D01*
X-141386Y-48397D01*
X-141297Y-48375D01*
X-141203Y-48364D01*
X-141109Y-48352D01*
X-141004Y-48347D01*
X-140998D01*
X-140976D01*
X-140948D01*
X-140910Y-48352D01*
D02*
G37*
G36*
X-120893Y-44532D02*
X-120838D01*
X-120782Y-44537D01*
X-120710Y-44543D01*
X-120638Y-44554D01*
X-120478Y-44582D01*
X-120301Y-44620D01*
X-120124Y-44676D01*
X-119952Y-44753D01*
X-119946Y-44759D01*
X-119930Y-44764D01*
X-119908Y-44776D01*
X-119880Y-44798D01*
X-119841Y-44820D01*
X-119797Y-44847D01*
X-119697Y-44920D01*
X-119586Y-45014D01*
X-119476Y-45124D01*
X-119365Y-45252D01*
X-119271Y-45401D01*
X-119265Y-45407D01*
X-119260Y-45423D01*
X-119249Y-45445D01*
X-119232Y-45473D01*
X-119215Y-45518D01*
X-119199Y-45562D01*
X-119177Y-45617D01*
X-119155Y-45678D01*
X-119132Y-45745D01*
X-119110Y-45816D01*
X-119077Y-45972D01*
X-119049Y-46149D01*
X-119038Y-46332D01*
Y-46387D01*
X-119044Y-46426D01*
X-119049Y-46475D01*
X-119055Y-46536D01*
X-119060Y-46597D01*
X-119077Y-46669D01*
X-119110Y-46819D01*
X-119160Y-46985D01*
X-119193Y-47068D01*
X-119232Y-47145D01*
X-119282Y-47223D01*
X-119332Y-47301D01*
X-119337Y-47306D01*
X-119343Y-47317D01*
X-119359Y-47339D01*
X-119387Y-47367D01*
X-119415Y-47395D01*
X-119453Y-47433D01*
X-119498Y-47472D01*
X-119542Y-47516D01*
X-119597Y-47561D01*
X-119664Y-47605D01*
X-119730Y-47655D01*
X-119802Y-47699D01*
X-119885Y-47738D01*
X-119968Y-47782D01*
X-120057Y-47815D01*
X-120157Y-47849D01*
X-120273Y-47350D01*
X-120267D01*
X-120256Y-47345D01*
X-120234Y-47334D01*
X-120206Y-47323D01*
X-120173Y-47312D01*
X-120129Y-47295D01*
X-120040Y-47251D01*
X-119941Y-47195D01*
X-119841Y-47129D01*
X-119747Y-47046D01*
X-119664Y-46957D01*
X-119653Y-46946D01*
X-119631Y-46913D01*
X-119603Y-46858D01*
X-119564Y-46785D01*
X-119531Y-46691D01*
X-119498Y-46586D01*
X-119476Y-46459D01*
X-119470Y-46320D01*
Y-46276D01*
X-119476Y-46248D01*
Y-46210D01*
X-119481Y-46165D01*
X-119498Y-46060D01*
X-119520Y-45944D01*
X-119559Y-45822D01*
X-119614Y-45695D01*
X-119686Y-45578D01*
Y-45573D01*
X-119697Y-45567D01*
X-119725Y-45529D01*
X-119769Y-45479D01*
X-119836Y-45418D01*
X-119919Y-45346D01*
X-120013Y-45279D01*
X-120129Y-45219D01*
X-120256Y-45163D01*
X-120262D01*
X-120273Y-45158D01*
X-120290Y-45152D01*
X-120317Y-45146D01*
X-120351Y-45135D01*
X-120389Y-45124D01*
X-120483Y-45108D01*
X-120594Y-45086D01*
X-120716Y-45064D01*
X-120849Y-45052D01*
X-120993Y-45047D01*
X-120998D01*
X-121015D01*
X-121043D01*
X-121076D01*
X-121115Y-45052D01*
X-121165D01*
X-121220Y-45058D01*
X-121281Y-45064D01*
X-121414Y-45080D01*
X-121558Y-45108D01*
X-121702Y-45141D01*
X-121846Y-45185D01*
X-121851D01*
X-121862Y-45191D01*
X-121879Y-45202D01*
X-121906Y-45213D01*
X-121973Y-45246D01*
X-122050Y-45296D01*
X-122139Y-45357D01*
X-122233Y-45434D01*
X-122316Y-45523D01*
X-122394Y-45628D01*
Y-45634D01*
X-122399Y-45645D01*
X-122410Y-45662D01*
X-122421Y-45684D01*
X-122432Y-45711D01*
X-122449Y-45745D01*
X-122482Y-45822D01*
X-122516Y-45922D01*
X-122543Y-46033D01*
X-122565Y-46154D01*
X-122571Y-46282D01*
Y-46320D01*
X-122565Y-46354D01*
Y-46392D01*
X-122560Y-46431D01*
X-122538Y-46531D01*
X-122510Y-46647D01*
X-122466Y-46763D01*
X-122405Y-46885D01*
X-122372Y-46946D01*
X-122327Y-47002D01*
X-122322Y-47007D01*
X-122316Y-47013D01*
X-122300Y-47029D01*
X-122283Y-47051D01*
X-122255Y-47073D01*
X-122222Y-47101D01*
X-122189Y-47134D01*
X-122145Y-47162D01*
X-122095Y-47195D01*
X-122039Y-47234D01*
X-121984Y-47267D01*
X-121917Y-47301D01*
X-121846Y-47328D01*
X-121768Y-47356D01*
X-121685Y-47383D01*
X-121596Y-47406D01*
X-121724Y-47915D01*
X-121729D01*
X-121751Y-47910D01*
X-121785Y-47899D01*
X-121829Y-47882D01*
X-121879Y-47865D01*
X-121940Y-47843D01*
X-122006Y-47815D01*
X-122078Y-47782D01*
X-122233Y-47705D01*
X-122388Y-47605D01*
X-122466Y-47544D01*
X-122543Y-47483D01*
X-122610Y-47417D01*
X-122676Y-47339D01*
X-122682Y-47334D01*
X-122693Y-47323D01*
X-122704Y-47295D01*
X-122726Y-47267D01*
X-122754Y-47223D01*
X-122781Y-47179D01*
X-122809Y-47118D01*
X-122837Y-47057D01*
X-122870Y-46985D01*
X-122898Y-46907D01*
X-122925Y-46824D01*
X-122953Y-46736D01*
X-122975Y-46642D01*
X-122986Y-46542D01*
X-122997Y-46437D01*
X-123003Y-46326D01*
Y-46265D01*
X-122997Y-46221D01*
Y-46171D01*
X-122992Y-46110D01*
X-122981Y-46044D01*
X-122970Y-45966D01*
X-122942Y-45805D01*
X-122898Y-45639D01*
X-122837Y-45473D01*
X-122798Y-45396D01*
X-122754Y-45318D01*
X-122748Y-45313D01*
X-122743Y-45302D01*
X-122726Y-45279D01*
X-122704Y-45257D01*
X-122682Y-45224D01*
X-122648Y-45185D01*
X-122610Y-45141D01*
X-122565Y-45097D01*
X-122516Y-45052D01*
X-122466Y-45003D01*
X-122338Y-44903D01*
X-122189Y-44809D01*
X-122023Y-44726D01*
X-122017D01*
X-122001Y-44715D01*
X-121973Y-44709D01*
X-121940Y-44693D01*
X-121895Y-44681D01*
X-121840Y-44665D01*
X-121779Y-44643D01*
X-121713Y-44626D01*
X-121641Y-44609D01*
X-121558Y-44587D01*
X-121386Y-44560D01*
X-121192Y-44537D01*
X-120993Y-44526D01*
X-120987D01*
X-120965D01*
X-120932D01*
X-120893Y-44532D01*
D02*
G37*
G36*
X-121774Y-48347D02*
X-121740D01*
X-121702Y-48353D01*
X-121613Y-48364D01*
X-121513Y-48386D01*
X-121414Y-48419D01*
X-121308Y-48469D01*
X-121209Y-48530D01*
X-121203D01*
X-121198Y-48541D01*
X-121170Y-48563D01*
X-121126Y-48607D01*
X-121070Y-48668D01*
X-121015Y-48746D01*
X-120954Y-48840D01*
X-120904Y-48945D01*
X-120865Y-49072D01*
Y-49067D01*
X-120860Y-49061D01*
X-120854Y-49045D01*
X-120843Y-49023D01*
X-120821Y-48973D01*
X-120788Y-48906D01*
X-120744Y-48834D01*
X-120688Y-48762D01*
X-120627Y-48696D01*
X-120561Y-48635D01*
X-120550Y-48629D01*
X-120528Y-48613D01*
X-120483Y-48591D01*
X-120428Y-48569D01*
X-120356Y-48541D01*
X-120273Y-48519D01*
X-120179Y-48502D01*
X-120079Y-48496D01*
X-120074D01*
X-120063D01*
X-120040D01*
X-120007Y-48502D01*
X-119974Y-48508D01*
X-119930Y-48513D01*
X-119836Y-48535D01*
X-119725Y-48569D01*
X-119608Y-48624D01*
X-119548Y-48657D01*
X-119487Y-48696D01*
X-119431Y-48746D01*
X-119376Y-48795D01*
X-119370Y-48801D01*
X-119365Y-48812D01*
X-119348Y-48829D01*
X-119332Y-48851D01*
X-119310Y-48879D01*
X-119287Y-48917D01*
X-119260Y-48962D01*
X-119232Y-49006D01*
X-119204Y-49061D01*
X-119177Y-49122D01*
X-119155Y-49189D01*
X-119132Y-49261D01*
X-119099Y-49416D01*
X-119094Y-49504D01*
X-119088Y-49593D01*
Y-49643D01*
X-119094Y-49676D01*
X-119099Y-49720D01*
X-119105Y-49770D01*
X-119110Y-49826D01*
X-119127Y-49881D01*
X-119160Y-50014D01*
X-119210Y-50147D01*
X-119243Y-50213D01*
X-119282Y-50279D01*
X-119332Y-50340D01*
X-119382Y-50401D01*
X-119387Y-50407D01*
X-119393Y-50412D01*
X-119409Y-50429D01*
X-119431Y-50451D01*
X-119465Y-50473D01*
X-119498Y-50501D01*
X-119581Y-50556D01*
X-119686Y-50612D01*
X-119808Y-50662D01*
X-119946Y-50700D01*
X-120018Y-50706D01*
X-120096Y-50711D01*
X-120101D01*
X-120107D01*
X-120140D01*
X-120190Y-50706D01*
X-120251Y-50695D01*
X-120328Y-50678D01*
X-120406Y-50651D01*
X-120483Y-50617D01*
X-120561Y-50567D01*
X-120572Y-50562D01*
X-120594Y-50540D01*
X-120627Y-50507D01*
X-120672Y-50462D01*
X-120722Y-50401D01*
X-120771Y-50329D01*
X-120821Y-50246D01*
X-120865Y-50147D01*
Y-50152D01*
X-120871Y-50163D01*
X-120877Y-50180D01*
X-120888Y-50202D01*
X-120915Y-50268D01*
X-120954Y-50346D01*
X-121009Y-50429D01*
X-121070Y-50518D01*
X-121148Y-50601D01*
X-121236Y-50678D01*
X-121242D01*
X-121248Y-50684D01*
X-121281Y-50706D01*
X-121336Y-50739D01*
X-121408Y-50772D01*
X-121497Y-50806D01*
X-121602Y-50839D01*
X-121718Y-50861D01*
X-121846Y-50866D01*
X-121851D01*
X-121868D01*
X-121895D01*
X-121929Y-50861D01*
X-121967Y-50855D01*
X-122017Y-50850D01*
X-122073Y-50839D01*
X-122134Y-50822D01*
X-122261Y-50783D01*
X-122333Y-50756D01*
X-122399Y-50717D01*
X-122471Y-50678D01*
X-122538Y-50634D01*
X-122604Y-50578D01*
X-122671Y-50518D01*
X-122676Y-50512D01*
X-122687Y-50501D01*
X-122704Y-50484D01*
X-122720Y-50457D01*
X-122748Y-50418D01*
X-122776Y-50379D01*
X-122803Y-50329D01*
X-122837Y-50274D01*
X-122870Y-50213D01*
X-122898Y-50141D01*
X-122925Y-50064D01*
X-122953Y-49986D01*
X-122970Y-49897D01*
X-122986Y-49803D01*
X-122997Y-49709D01*
X-123003Y-49604D01*
Y-49549D01*
X-122997Y-49510D01*
X-122992Y-49460D01*
X-122986Y-49405D01*
X-122975Y-49344D01*
X-122958Y-49277D01*
X-122920Y-49128D01*
X-122892Y-49050D01*
X-122864Y-48978D01*
X-122826Y-48901D01*
X-122781Y-48823D01*
X-122732Y-48751D01*
X-122671Y-48685D01*
X-122665Y-48679D01*
X-122654Y-48668D01*
X-122637Y-48652D01*
X-122610Y-48629D01*
X-122577Y-48607D01*
X-122538Y-48574D01*
X-122493Y-48546D01*
X-122438Y-48513D01*
X-122383Y-48480D01*
X-122316Y-48452D01*
X-122178Y-48397D01*
X-122095Y-48375D01*
X-122012Y-48358D01*
X-121923Y-48347D01*
X-121834Y-48341D01*
X-121829D01*
X-121818D01*
X-121796D01*
X-121774Y-48347D01*
D02*
G37*
G36*
X-79642Y-44532D02*
X-79587D01*
X-79531Y-44537D01*
X-79459Y-44543D01*
X-79387Y-44554D01*
X-79227Y-44582D01*
X-79050Y-44620D01*
X-78872Y-44676D01*
X-78701Y-44753D01*
X-78695Y-44759D01*
X-78678Y-44764D01*
X-78656Y-44776D01*
X-78629Y-44798D01*
X-78590Y-44820D01*
X-78546Y-44847D01*
X-78446Y-44919D01*
X-78335Y-45014D01*
X-78224Y-45124D01*
X-78114Y-45252D01*
X-78020Y-45401D01*
X-78014Y-45407D01*
X-78008Y-45423D01*
X-77997Y-45445D01*
X-77981Y-45473D01*
X-77964Y-45518D01*
X-77948Y-45562D01*
X-77925Y-45617D01*
X-77903Y-45678D01*
X-77881Y-45745D01*
X-77859Y-45816D01*
X-77826Y-45971D01*
X-77798Y-46149D01*
X-77787Y-46331D01*
Y-46387D01*
X-77793Y-46426D01*
X-77798Y-46475D01*
X-77804Y-46536D01*
X-77809Y-46597D01*
X-77826Y-46669D01*
X-77859Y-46819D01*
X-77909Y-46985D01*
X-77942Y-47068D01*
X-77981Y-47145D01*
X-78031Y-47223D01*
X-78081Y-47300D01*
X-78086Y-47306D01*
X-78092Y-47317D01*
X-78108Y-47339D01*
X-78136Y-47367D01*
X-78163Y-47395D01*
X-78202Y-47433D01*
X-78247Y-47472D01*
X-78291Y-47516D01*
X-78346Y-47561D01*
X-78413Y-47605D01*
X-78479Y-47655D01*
X-78551Y-47699D01*
X-78634Y-47738D01*
X-78717Y-47782D01*
X-78806Y-47815D01*
X-78906Y-47849D01*
X-79022Y-47350D01*
X-79016D01*
X-79005Y-47345D01*
X-78983Y-47334D01*
X-78955Y-47323D01*
X-78922Y-47312D01*
X-78878Y-47295D01*
X-78789Y-47251D01*
X-78690Y-47195D01*
X-78590Y-47129D01*
X-78496Y-47046D01*
X-78413Y-46957D01*
X-78402Y-46946D01*
X-78380Y-46913D01*
X-78352Y-46858D01*
X-78313Y-46785D01*
X-78280Y-46691D01*
X-78247Y-46586D01*
X-78224Y-46459D01*
X-78219Y-46320D01*
Y-46276D01*
X-78224Y-46248D01*
Y-46210D01*
X-78230Y-46165D01*
X-78247Y-46060D01*
X-78269Y-45944D01*
X-78307Y-45822D01*
X-78363Y-45695D01*
X-78435Y-45578D01*
Y-45573D01*
X-78446Y-45567D01*
X-78474Y-45528D01*
X-78518Y-45479D01*
X-78584Y-45418D01*
X-78667Y-45346D01*
X-78762Y-45279D01*
X-78878Y-45219D01*
X-79005Y-45163D01*
X-79011D01*
X-79022Y-45157D01*
X-79038Y-45152D01*
X-79066Y-45146D01*
X-79099Y-45135D01*
X-79138Y-45124D01*
X-79232Y-45108D01*
X-79343Y-45086D01*
X-79465Y-45063D01*
X-79598Y-45052D01*
X-79742Y-45047D01*
X-79747D01*
X-79764D01*
X-79791D01*
X-79825D01*
X-79863Y-45052D01*
X-79913D01*
X-79969Y-45058D01*
X-80030Y-45063D01*
X-80162Y-45080D01*
X-80306Y-45108D01*
X-80450Y-45141D01*
X-80594Y-45185D01*
X-80600D01*
X-80611Y-45191D01*
X-80628Y-45202D01*
X-80655Y-45213D01*
X-80722Y-45246D01*
X-80799Y-45296D01*
X-80888Y-45357D01*
X-80982Y-45434D01*
X-81065Y-45523D01*
X-81143Y-45628D01*
Y-45634D01*
X-81148Y-45645D01*
X-81159Y-45661D01*
X-81170Y-45684D01*
X-81181Y-45711D01*
X-81198Y-45745D01*
X-81231Y-45822D01*
X-81264Y-45922D01*
X-81292Y-46032D01*
X-81314Y-46154D01*
X-81320Y-46282D01*
Y-46320D01*
X-81314Y-46354D01*
Y-46392D01*
X-81309Y-46431D01*
X-81286Y-46531D01*
X-81259Y-46647D01*
X-81215Y-46763D01*
X-81154Y-46885D01*
X-81120Y-46946D01*
X-81076Y-47001D01*
X-81071Y-47007D01*
X-81065Y-47013D01*
X-81048Y-47029D01*
X-81032Y-47051D01*
X-81004Y-47073D01*
X-80971Y-47101D01*
X-80938Y-47134D01*
X-80893Y-47162D01*
X-80843Y-47195D01*
X-80788Y-47234D01*
X-80733Y-47267D01*
X-80666Y-47300D01*
X-80594Y-47328D01*
X-80517Y-47356D01*
X-80434Y-47383D01*
X-80345Y-47406D01*
X-80472Y-47915D01*
X-80478D01*
X-80500Y-47909D01*
X-80533Y-47899D01*
X-80578Y-47882D01*
X-80628Y-47865D01*
X-80688Y-47843D01*
X-80755Y-47815D01*
X-80827Y-47782D01*
X-80982Y-47705D01*
X-81137Y-47605D01*
X-81215Y-47544D01*
X-81292Y-47483D01*
X-81358Y-47417D01*
X-81425Y-47339D01*
X-81431Y-47334D01*
X-81441Y-47323D01*
X-81453Y-47295D01*
X-81475Y-47267D01*
X-81503Y-47223D01*
X-81530Y-47179D01*
X-81558Y-47118D01*
X-81586Y-47057D01*
X-81619Y-46985D01*
X-81646Y-46907D01*
X-81674Y-46824D01*
X-81702Y-46736D01*
X-81724Y-46642D01*
X-81735Y-46542D01*
X-81746Y-46437D01*
X-81752Y-46326D01*
Y-46265D01*
X-81746Y-46221D01*
Y-46171D01*
X-81741Y-46110D01*
X-81729Y-46044D01*
X-81718Y-45966D01*
X-81691Y-45805D01*
X-81646Y-45639D01*
X-81586Y-45473D01*
X-81547Y-45396D01*
X-81503Y-45318D01*
X-81497Y-45313D01*
X-81491Y-45301D01*
X-81475Y-45279D01*
X-81453Y-45257D01*
X-81431Y-45224D01*
X-81397Y-45185D01*
X-81358Y-45141D01*
X-81314Y-45097D01*
X-81264Y-45052D01*
X-81215Y-45002D01*
X-81087Y-44903D01*
X-80938Y-44809D01*
X-80772Y-44726D01*
X-80766D01*
X-80749Y-44715D01*
X-80722Y-44709D01*
X-80688Y-44692D01*
X-80644Y-44681D01*
X-80589Y-44665D01*
X-80528Y-44643D01*
X-80462Y-44626D01*
X-80389Y-44609D01*
X-80306Y-44587D01*
X-80135Y-44559D01*
X-79941Y-44537D01*
X-79742Y-44526D01*
X-79736D01*
X-79714D01*
X-79681D01*
X-79642Y-44532D01*
D02*
G37*
G36*
X-77903Y-50861D02*
X-78274D01*
X-78280Y-50855D01*
X-78291Y-50844D01*
X-78313Y-50822D01*
X-78346Y-50800D01*
X-78385Y-50767D01*
X-78429Y-50722D01*
X-78485Y-50678D01*
X-78551Y-50628D01*
X-78618Y-50578D01*
X-78695Y-50518D01*
X-78784Y-50457D01*
X-78872Y-50396D01*
X-78972Y-50329D01*
X-79077Y-50263D01*
X-79193Y-50196D01*
X-79310Y-50130D01*
X-79315Y-50124D01*
X-79337Y-50113D01*
X-79371Y-50097D01*
X-79420Y-50069D01*
X-79481Y-50041D01*
X-79548Y-50008D01*
X-79625Y-49969D01*
X-79714Y-49931D01*
X-79814Y-49886D01*
X-79913Y-49837D01*
X-80024Y-49792D01*
X-80140Y-49748D01*
X-80378Y-49659D01*
X-80633Y-49576D01*
X-80639D01*
X-80655Y-49571D01*
X-80683Y-49565D01*
X-80716Y-49554D01*
X-80760Y-49543D01*
X-80816Y-49532D01*
X-80877Y-49515D01*
X-80943Y-49504D01*
X-81021Y-49488D01*
X-81104Y-49471D01*
X-81281Y-49443D01*
X-81475Y-49416D01*
X-81685Y-49399D01*
Y-48917D01*
X-81680D01*
X-81663D01*
X-81641D01*
X-81608Y-48923D01*
X-81563D01*
X-81508Y-48928D01*
X-81447Y-48934D01*
X-81381Y-48939D01*
X-81303Y-48951D01*
X-81226Y-48962D01*
X-81131Y-48978D01*
X-81037Y-48995D01*
X-80938Y-49011D01*
X-80827Y-49034D01*
X-80600Y-49089D01*
X-80594D01*
X-80572Y-49095D01*
X-80539Y-49106D01*
X-80489Y-49122D01*
X-80434Y-49139D01*
X-80367Y-49161D01*
X-80290Y-49183D01*
X-80207Y-49216D01*
X-80113Y-49250D01*
X-80019Y-49283D01*
X-79808Y-49366D01*
X-79587Y-49465D01*
X-79365Y-49576D01*
X-79360Y-49582D01*
X-79337Y-49593D01*
X-79310Y-49609D01*
X-79265Y-49632D01*
X-79216Y-49659D01*
X-79155Y-49698D01*
X-79088Y-49737D01*
X-79016Y-49781D01*
X-78856Y-49886D01*
X-78690Y-49997D01*
X-78518Y-50124D01*
X-78357Y-50257D01*
Y-48380D01*
X-77903D01*
Y-50861D01*
D02*
G37*
G36*
X-100273Y-44532D02*
X-100218D01*
X-100162Y-44538D01*
X-100091Y-44543D01*
X-100019Y-44554D01*
X-99858Y-44582D01*
X-99681Y-44620D01*
X-99503Y-44676D01*
X-99332Y-44753D01*
X-99326Y-44759D01*
X-99310Y-44764D01*
X-99288Y-44776D01*
X-99260Y-44798D01*
X-99221Y-44820D01*
X-99177Y-44847D01*
X-99077Y-44920D01*
X-98966Y-45014D01*
X-98856Y-45124D01*
X-98745Y-45252D01*
X-98651Y-45401D01*
X-98645Y-45407D01*
X-98640Y-45423D01*
X-98629Y-45446D01*
X-98612Y-45473D01*
X-98595Y-45518D01*
X-98579Y-45562D01*
X-98557Y-45617D01*
X-98534Y-45678D01*
X-98512Y-45745D01*
X-98490Y-45816D01*
X-98457Y-45972D01*
X-98429Y-46149D01*
X-98418Y-46332D01*
Y-46387D01*
X-98424Y-46426D01*
X-98429Y-46476D01*
X-98435Y-46536D01*
X-98440Y-46597D01*
X-98457Y-46669D01*
X-98490Y-46819D01*
X-98540Y-46985D01*
X-98573Y-47068D01*
X-98612Y-47146D01*
X-98662Y-47223D01*
X-98712Y-47301D01*
X-98717Y-47306D01*
X-98723Y-47317D01*
X-98739Y-47339D01*
X-98767Y-47367D01*
X-98795Y-47395D01*
X-98834Y-47433D01*
X-98878Y-47472D01*
X-98922Y-47516D01*
X-98977Y-47561D01*
X-99044Y-47605D01*
X-99110Y-47655D01*
X-99182Y-47699D01*
X-99265Y-47738D01*
X-99348Y-47782D01*
X-99437Y-47815D01*
X-99537Y-47849D01*
X-99653Y-47350D01*
X-99648D01*
X-99636Y-47345D01*
X-99614Y-47334D01*
X-99587Y-47323D01*
X-99553Y-47312D01*
X-99509Y-47295D01*
X-99420Y-47251D01*
X-99321Y-47195D01*
X-99221Y-47129D01*
X-99127Y-47046D01*
X-99044Y-46957D01*
X-99033Y-46946D01*
X-99011Y-46913D01*
X-98983Y-46858D01*
X-98944Y-46786D01*
X-98911Y-46691D01*
X-98878Y-46586D01*
X-98856Y-46459D01*
X-98850Y-46320D01*
Y-46276D01*
X-98856Y-46248D01*
Y-46210D01*
X-98861Y-46165D01*
X-98878Y-46060D01*
X-98900Y-45944D01*
X-98939Y-45822D01*
X-98994Y-45695D01*
X-99066Y-45578D01*
Y-45573D01*
X-99077Y-45567D01*
X-99105Y-45529D01*
X-99149Y-45479D01*
X-99216Y-45418D01*
X-99299Y-45346D01*
X-99393Y-45279D01*
X-99509Y-45219D01*
X-99636Y-45163D01*
X-99642D01*
X-99653Y-45158D01*
X-99670Y-45152D01*
X-99697Y-45146D01*
X-99731Y-45135D01*
X-99769Y-45124D01*
X-99863Y-45108D01*
X-99974Y-45086D01*
X-100096Y-45064D01*
X-100229Y-45052D01*
X-100373Y-45047D01*
X-100378D01*
X-100395D01*
X-100423D01*
X-100456D01*
X-100495Y-45052D01*
X-100545D01*
X-100600Y-45058D01*
X-100661Y-45064D01*
X-100794Y-45080D01*
X-100938Y-45108D01*
X-101082Y-45141D01*
X-101226Y-45185D01*
X-101231D01*
X-101242Y-45191D01*
X-101259Y-45202D01*
X-101286Y-45213D01*
X-101353Y-45246D01*
X-101431Y-45296D01*
X-101519Y-45357D01*
X-101613Y-45434D01*
X-101696Y-45523D01*
X-101774Y-45628D01*
Y-45634D01*
X-101779Y-45645D01*
X-101790Y-45662D01*
X-101801Y-45684D01*
X-101812Y-45711D01*
X-101829Y-45745D01*
X-101862Y-45822D01*
X-101896Y-45922D01*
X-101923Y-46033D01*
X-101945Y-46154D01*
X-101951Y-46282D01*
Y-46320D01*
X-101945Y-46354D01*
Y-46392D01*
X-101940Y-46431D01*
X-101918Y-46531D01*
X-101890Y-46647D01*
X-101846Y-46763D01*
X-101785Y-46885D01*
X-101752Y-46946D01*
X-101707Y-47002D01*
X-101702Y-47007D01*
X-101696Y-47013D01*
X-101680Y-47029D01*
X-101663Y-47051D01*
X-101635Y-47073D01*
X-101602Y-47101D01*
X-101569Y-47134D01*
X-101525Y-47162D01*
X-101475Y-47195D01*
X-101419Y-47234D01*
X-101364Y-47267D01*
X-101298Y-47301D01*
X-101226Y-47328D01*
X-101148Y-47356D01*
X-101065Y-47384D01*
X-100976Y-47406D01*
X-101104Y-47915D01*
X-101109D01*
X-101131Y-47910D01*
X-101165Y-47899D01*
X-101209Y-47882D01*
X-101259Y-47865D01*
X-101320Y-47843D01*
X-101386Y-47815D01*
X-101458Y-47782D01*
X-101613Y-47705D01*
X-101768Y-47605D01*
X-101846Y-47544D01*
X-101923Y-47483D01*
X-101990Y-47417D01*
X-102056Y-47339D01*
X-102062Y-47334D01*
X-102073Y-47323D01*
X-102084Y-47295D01*
X-102106Y-47267D01*
X-102134Y-47223D01*
X-102161Y-47179D01*
X-102189Y-47118D01*
X-102217Y-47057D01*
X-102250Y-46985D01*
X-102278Y-46907D01*
X-102305Y-46824D01*
X-102333Y-46736D01*
X-102355Y-46642D01*
X-102366Y-46542D01*
X-102377Y-46437D01*
X-102383Y-46326D01*
Y-46265D01*
X-102377Y-46221D01*
Y-46171D01*
X-102372Y-46110D01*
X-102361Y-46044D01*
X-102350Y-45966D01*
X-102322Y-45806D01*
X-102278Y-45639D01*
X-102217Y-45473D01*
X-102178Y-45396D01*
X-102134Y-45318D01*
X-102128Y-45313D01*
X-102123Y-45302D01*
X-102106Y-45279D01*
X-102084Y-45257D01*
X-102062Y-45224D01*
X-102029Y-45185D01*
X-101990Y-45141D01*
X-101945Y-45097D01*
X-101896Y-45052D01*
X-101846Y-45003D01*
X-101718Y-44903D01*
X-101569Y-44809D01*
X-101403Y-44726D01*
X-101397D01*
X-101381Y-44715D01*
X-101353Y-44709D01*
X-101320Y-44693D01*
X-101275Y-44681D01*
X-101220Y-44665D01*
X-101159Y-44643D01*
X-101093Y-44626D01*
X-101021Y-44609D01*
X-100938Y-44587D01*
X-100766Y-44560D01*
X-100572Y-44538D01*
X-100373Y-44526D01*
X-100367D01*
X-100345D01*
X-100312D01*
X-100273Y-44532D01*
D02*
G37*
G36*
X-100423Y-48330D02*
X-100345D01*
X-100257Y-48336D01*
X-100151Y-48347D01*
X-100035Y-48358D01*
X-99908Y-48375D01*
X-99780Y-48397D01*
X-99642Y-48425D01*
X-99509Y-48458D01*
X-99376Y-48497D01*
X-99249Y-48546D01*
X-99127Y-48602D01*
X-99011Y-48663D01*
X-98911Y-48735D01*
X-98905Y-48740D01*
X-98894Y-48751D01*
X-98872Y-48773D01*
X-98839Y-48801D01*
X-98806Y-48834D01*
X-98773Y-48879D01*
X-98728Y-48934D01*
X-98689Y-48989D01*
X-98651Y-49056D01*
X-98607Y-49128D01*
X-98573Y-49211D01*
X-98534Y-49294D01*
X-98507Y-49388D01*
X-98485Y-49488D01*
X-98474Y-49593D01*
X-98468Y-49704D01*
Y-49748D01*
X-98474Y-49781D01*
Y-49820D01*
X-98479Y-49864D01*
X-98501Y-49969D01*
X-98529Y-50086D01*
X-98573Y-50208D01*
X-98640Y-50329D01*
X-98679Y-50390D01*
X-98723Y-50446D01*
X-98728Y-50451D01*
X-98734Y-50457D01*
X-98750Y-50473D01*
X-98767Y-50490D01*
X-98795Y-50518D01*
X-98828Y-50540D01*
X-98905Y-50601D01*
X-99005Y-50662D01*
X-99127Y-50717D01*
X-99265Y-50767D01*
X-99420Y-50800D01*
X-99459Y-50329D01*
X-99454D01*
X-99448Y-50324D01*
X-99415Y-50318D01*
X-99365Y-50302D01*
X-99304Y-50279D01*
X-99238Y-50257D01*
X-99171Y-50224D01*
X-99110Y-50185D01*
X-99060Y-50147D01*
X-99050Y-50136D01*
X-99027Y-50113D01*
X-98994Y-50075D01*
X-98955Y-50019D01*
X-98922Y-49947D01*
X-98889Y-49870D01*
X-98867Y-49776D01*
X-98856Y-49676D01*
Y-49637D01*
X-98861Y-49593D01*
X-98872Y-49543D01*
X-98889Y-49477D01*
X-98911Y-49410D01*
X-98939Y-49344D01*
X-98983Y-49277D01*
X-98989Y-49266D01*
X-99011Y-49239D01*
X-99050Y-49200D01*
X-99105Y-49150D01*
X-99171Y-49095D01*
X-99249Y-49034D01*
X-99348Y-48978D01*
X-99459Y-48923D01*
X-99465D01*
X-99476Y-48917D01*
X-99492Y-48912D01*
X-99515Y-48901D01*
X-99548Y-48895D01*
X-99587Y-48884D01*
X-99631Y-48873D01*
X-99686Y-48862D01*
X-99747Y-48845D01*
X-99814Y-48834D01*
X-99886Y-48823D01*
X-99963Y-48818D01*
X-100052Y-48807D01*
X-100140Y-48801D01*
X-100240Y-48796D01*
X-100340D01*
X-100334Y-48801D01*
X-100301Y-48823D01*
X-100257Y-48862D01*
X-100201Y-48912D01*
X-100135Y-48967D01*
X-100074Y-49039D01*
X-100013Y-49117D01*
X-99958Y-49205D01*
Y-49211D01*
X-99952Y-49216D01*
X-99935Y-49250D01*
X-99919Y-49299D01*
X-99891Y-49366D01*
X-99869Y-49443D01*
X-99852Y-49532D01*
X-99836Y-49626D01*
X-99830Y-49726D01*
Y-49770D01*
X-99836Y-49803D01*
X-99841Y-49848D01*
X-99847Y-49892D01*
X-99858Y-49947D01*
X-99874Y-50003D01*
X-99913Y-50130D01*
X-99941Y-50196D01*
X-99980Y-50263D01*
X-100019Y-50329D01*
X-100063Y-50401D01*
X-100118Y-50468D01*
X-100179Y-50529D01*
X-100185Y-50534D01*
X-100196Y-50545D01*
X-100212Y-50562D01*
X-100240Y-50578D01*
X-100279Y-50606D01*
X-100317Y-50634D01*
X-100367Y-50662D01*
X-100423Y-50695D01*
X-100484Y-50728D01*
X-100550Y-50756D01*
X-100628Y-50783D01*
X-100705Y-50811D01*
X-100788Y-50828D01*
X-100882Y-50844D01*
X-100976Y-50855D01*
X-101076Y-50861D01*
X-101082D01*
X-101093D01*
X-101109D01*
X-101137D01*
X-101170Y-50855D01*
X-101203D01*
X-101292Y-50839D01*
X-101397Y-50822D01*
X-101508Y-50795D01*
X-101630Y-50756D01*
X-101746Y-50700D01*
X-101752D01*
X-101757Y-50695D01*
X-101774Y-50684D01*
X-101796Y-50673D01*
X-101851Y-50639D01*
X-101923Y-50590D01*
X-102001Y-50529D01*
X-102078Y-50457D01*
X-102156Y-50368D01*
X-102222Y-50274D01*
Y-50269D01*
X-102228Y-50263D01*
X-102239Y-50246D01*
X-102244Y-50224D01*
X-102272Y-50169D01*
X-102300Y-50097D01*
X-102333Y-50003D01*
X-102355Y-49897D01*
X-102377Y-49781D01*
X-102383Y-49654D01*
Y-49626D01*
X-102377Y-49598D01*
Y-49554D01*
X-102372Y-49504D01*
X-102361Y-49449D01*
X-102344Y-49383D01*
X-102327Y-49316D01*
X-102305Y-49239D01*
X-102278Y-49161D01*
X-102244Y-49083D01*
X-102200Y-49000D01*
X-102150Y-48923D01*
X-102095Y-48845D01*
X-102029Y-48768D01*
X-101951Y-48696D01*
X-101945Y-48690D01*
X-101929Y-48679D01*
X-101907Y-48663D01*
X-101868Y-48640D01*
X-101818Y-48607D01*
X-101763Y-48580D01*
X-101691Y-48546D01*
X-101613Y-48513D01*
X-101519Y-48474D01*
X-101414Y-48441D01*
X-101298Y-48414D01*
X-101170Y-48386D01*
X-101026Y-48358D01*
X-100871Y-48341D01*
X-100705Y-48330D01*
X-100528Y-48325D01*
X-100522D01*
X-100517D01*
X-100500D01*
X-100478D01*
X-100423Y-48330D01*
D02*
G37*
G36*
X-33856Y-11238D02*
X-36851D01*
X-36846Y-11244D01*
X-36823Y-11271D01*
X-36790Y-11305D01*
X-36751Y-11360D01*
X-36702Y-11421D01*
X-36646Y-11498D01*
X-36585Y-11587D01*
X-36525Y-11687D01*
Y-11692D01*
X-36519Y-11698D01*
X-36497Y-11731D01*
X-36469Y-11786D01*
X-36436Y-11853D01*
X-36397Y-11930D01*
X-36358Y-12013D01*
X-36320Y-12096D01*
X-36286Y-12179D01*
X-36741D01*
Y-12174D01*
X-36751Y-12163D01*
X-36757Y-12141D01*
X-36774Y-12113D01*
X-36790Y-12080D01*
X-36812Y-12041D01*
X-36868Y-11947D01*
X-36929Y-11836D01*
X-37006Y-11725D01*
X-37095Y-11609D01*
X-37189Y-11493D01*
X-37194Y-11487D01*
X-37200Y-11482D01*
X-37217Y-11465D01*
X-37233Y-11443D01*
X-37289Y-11393D01*
X-37355Y-11327D01*
X-37433Y-11260D01*
X-37521Y-11188D01*
X-37610Y-11127D01*
X-37704Y-11072D01*
Y-10767D01*
X-33856D01*
Y-11238D01*
D02*
G37*
G36*
X-35041Y-12977D02*
X-35007Y-12988D01*
X-34963Y-13004D01*
X-34913Y-13021D01*
X-34852Y-13043D01*
X-34786Y-13071D01*
X-34714Y-13104D01*
X-34559Y-13182D01*
X-34404Y-13281D01*
X-34326Y-13342D01*
X-34249Y-13403D01*
X-34182Y-13470D01*
X-34116Y-13547D01*
X-34110Y-13553D01*
X-34099Y-13564D01*
X-34088Y-13591D01*
X-34066Y-13619D01*
X-34038Y-13663D01*
X-34011Y-13708D01*
X-33983Y-13769D01*
X-33955Y-13829D01*
X-33922Y-13901D01*
X-33894Y-13979D01*
X-33867Y-14062D01*
X-33839Y-14151D01*
X-33817Y-14245D01*
X-33806Y-14344D01*
X-33795Y-14450D01*
X-33789Y-14560D01*
Y-14621D01*
X-33795Y-14666D01*
Y-14715D01*
X-33800Y-14776D01*
X-33811Y-14843D01*
X-33822Y-14920D01*
X-33850Y-15081D01*
X-33894Y-15247D01*
X-33955Y-15413D01*
X-33994Y-15491D01*
X-34038Y-15568D01*
X-34044Y-15574D01*
X-34049Y-15585D01*
X-34066Y-15607D01*
X-34088Y-15629D01*
X-34110Y-15662D01*
X-34144Y-15701D01*
X-34182Y-15745D01*
X-34227Y-15790D01*
X-34276Y-15834D01*
X-34326Y-15884D01*
X-34454Y-15984D01*
X-34603Y-16078D01*
X-34769Y-16161D01*
X-34775D01*
X-34791Y-16172D01*
X-34819Y-16177D01*
X-34852Y-16194D01*
X-34897Y-16205D01*
X-34952Y-16222D01*
X-35013Y-16244D01*
X-35079Y-16260D01*
X-35151Y-16277D01*
X-35234Y-16299D01*
X-35406Y-16327D01*
X-35600Y-16349D01*
X-35799Y-16360D01*
X-35805D01*
X-35827D01*
X-35860D01*
X-35899Y-16355D01*
X-35954D01*
X-36010Y-16349D01*
X-36082Y-16343D01*
X-36154Y-16332D01*
X-36314Y-16305D01*
X-36491Y-16266D01*
X-36669Y-16211D01*
X-36840Y-16133D01*
X-36846Y-16127D01*
X-36862Y-16122D01*
X-36884Y-16111D01*
X-36912Y-16089D01*
X-36951Y-16066D01*
X-36995Y-16039D01*
X-37095Y-15967D01*
X-37206Y-15873D01*
X-37316Y-15762D01*
X-37427Y-15635D01*
X-37521Y-15485D01*
X-37527Y-15480D01*
X-37532Y-15463D01*
X-37543Y-15441D01*
X-37560Y-15413D01*
X-37577Y-15369D01*
X-37593Y-15324D01*
X-37615Y-15269D01*
X-37638Y-15208D01*
X-37660Y-15142D01*
X-37682Y-15070D01*
X-37715Y-14915D01*
X-37743Y-14738D01*
X-37754Y-14555D01*
Y-14499D01*
X-37748Y-14461D01*
X-37743Y-14411D01*
X-37737Y-14350D01*
X-37732Y-14289D01*
X-37715Y-14217D01*
X-37682Y-14068D01*
X-37632Y-13901D01*
X-37599Y-13818D01*
X-37560Y-13741D01*
X-37510Y-13663D01*
X-37460Y-13586D01*
X-37455Y-13580D01*
X-37449Y-13569D01*
X-37433Y-13547D01*
X-37405Y-13519D01*
X-37377Y-13492D01*
X-37339Y-13453D01*
X-37294Y-13414D01*
X-37250Y-13370D01*
X-37194Y-13326D01*
X-37128Y-13281D01*
X-37062Y-13232D01*
X-36990Y-13187D01*
X-36907Y-13148D01*
X-36823Y-13104D01*
X-36735Y-13071D01*
X-36635Y-13038D01*
X-36519Y-13536D01*
X-36525D01*
X-36536Y-13542D01*
X-36558Y-13553D01*
X-36585Y-13564D01*
X-36619Y-13575D01*
X-36663Y-13591D01*
X-36751Y-13636D01*
X-36851Y-13691D01*
X-36951Y-13757D01*
X-37045Y-13841D01*
X-37128Y-13929D01*
X-37139Y-13940D01*
X-37161Y-13973D01*
X-37189Y-14029D01*
X-37228Y-14101D01*
X-37261Y-14195D01*
X-37294Y-14300D01*
X-37316Y-14427D01*
X-37322Y-14566D01*
Y-14610D01*
X-37316Y-14638D01*
Y-14677D01*
X-37311Y-14721D01*
X-37294Y-14826D01*
X-37272Y-14943D01*
X-37233Y-15064D01*
X-37178Y-15192D01*
X-37106Y-15308D01*
Y-15314D01*
X-37095Y-15319D01*
X-37067Y-15358D01*
X-37023Y-15408D01*
X-36956Y-15468D01*
X-36873Y-15540D01*
X-36779Y-15607D01*
X-36663Y-15668D01*
X-36536Y-15723D01*
X-36530D01*
X-36519Y-15729D01*
X-36502Y-15734D01*
X-36475Y-15740D01*
X-36442Y-15751D01*
X-36403Y-15762D01*
X-36309Y-15779D01*
X-36198Y-15801D01*
X-36076Y-15823D01*
X-35943Y-15834D01*
X-35799Y-15840D01*
X-35794D01*
X-35777D01*
X-35749D01*
X-35716D01*
X-35677Y-15834D01*
X-35628D01*
X-35572Y-15828D01*
X-35511Y-15823D01*
X-35378Y-15806D01*
X-35234Y-15779D01*
X-35090Y-15745D01*
X-34946Y-15701D01*
X-34941D01*
X-34930Y-15696D01*
X-34913Y-15684D01*
X-34885Y-15673D01*
X-34819Y-15640D01*
X-34741Y-15590D01*
X-34653Y-15529D01*
X-34559Y-15452D01*
X-34476Y-15363D01*
X-34398Y-15258D01*
Y-15252D01*
X-34393Y-15242D01*
X-34382Y-15225D01*
X-34371Y-15203D01*
X-34360Y-15175D01*
X-34343Y-15142D01*
X-34310Y-15064D01*
X-34276Y-14965D01*
X-34249Y-14854D01*
X-34227Y-14732D01*
X-34221Y-14605D01*
Y-14566D01*
X-34227Y-14533D01*
Y-14494D01*
X-34232Y-14455D01*
X-34254Y-14355D01*
X-34282Y-14239D01*
X-34326Y-14123D01*
X-34387Y-14001D01*
X-34420Y-13940D01*
X-34465Y-13885D01*
X-34470Y-13879D01*
X-34476Y-13874D01*
X-34492Y-13857D01*
X-34509Y-13835D01*
X-34537Y-13813D01*
X-34570Y-13785D01*
X-34603Y-13752D01*
X-34647Y-13724D01*
X-34697Y-13691D01*
X-34753Y-13652D01*
X-34808Y-13619D01*
X-34874Y-13586D01*
X-34946Y-13558D01*
X-35024Y-13530D01*
X-35107Y-13503D01*
X-35196Y-13481D01*
X-35068Y-12971D01*
X-35063D01*
X-35041Y-12977D01*
D02*
G37*
G36*
X85871Y8048D02*
X82876D01*
X82881Y8043D01*
X82903Y8015D01*
X82937Y7982D01*
X82976Y7926D01*
X83025Y7866D01*
X83081Y7788D01*
X83142Y7699D01*
X83202Y7600D01*
Y7594D01*
X83208Y7589D01*
X83230Y7556D01*
X83258Y7500D01*
X83291Y7434D01*
X83330Y7356D01*
X83369Y7273D01*
X83407Y7190D01*
X83441Y7107D01*
X82987D01*
Y7113D01*
X82976Y7124D01*
X82970Y7146D01*
X82953Y7173D01*
X82937Y7207D01*
X82915Y7245D01*
X82859Y7340D01*
X82798Y7450D01*
X82721Y7561D01*
X82632Y7677D01*
X82538Y7794D01*
X82533Y7799D01*
X82527Y7805D01*
X82510Y7821D01*
X82494Y7843D01*
X82438Y7893D01*
X82372Y7960D01*
X82294Y8026D01*
X82206Y8098D01*
X82117Y8159D01*
X82023Y8214D01*
Y8519D01*
X85871D01*
Y8048D01*
D02*
G37*
G36*
Y3940D02*
X82040D01*
Y4449D01*
X85417D01*
Y6337D01*
X85871D01*
Y3940D01*
D02*
G37*
G36*
X89513Y-32842D02*
X89569D01*
X89624Y-32847D01*
X89696Y-32853D01*
X89768Y-32864D01*
X89929Y-32891D01*
X90106Y-32930D01*
X90283Y-32986D01*
X90455Y-33063D01*
X90460Y-33069D01*
X90477Y-33074D01*
X90499Y-33085D01*
X90527Y-33108D01*
X90565Y-33130D01*
X90610Y-33157D01*
X90709Y-33229D01*
X90820Y-33323D01*
X90931Y-33434D01*
X91041Y-33561D01*
X91136Y-33711D01*
X91141Y-33716D01*
X91147Y-33733D01*
X91158Y-33755D01*
X91174Y-33783D01*
X91191Y-33827D01*
X91208Y-33872D01*
X91230Y-33927D01*
X91252Y-33988D01*
X91274Y-34054D01*
X91296Y-34126D01*
X91329Y-34281D01*
X91357Y-34458D01*
X91368Y-34641D01*
Y-34697D01*
X91363Y-34735D01*
X91357Y-34785D01*
X91351Y-34846D01*
X91346Y-34907D01*
X91329Y-34979D01*
X91296Y-35129D01*
X91246Y-35295D01*
X91213Y-35378D01*
X91174Y-35455D01*
X91124Y-35533D01*
X91075Y-35610D01*
X91069Y-35616D01*
X91064Y-35627D01*
X91047Y-35649D01*
X91019Y-35677D01*
X90992Y-35704D01*
X90953Y-35743D01*
X90909Y-35782D01*
X90864Y-35826D01*
X90809Y-35870D01*
X90742Y-35915D01*
X90676Y-35965D01*
X90604Y-36009D01*
X90521Y-36048D01*
X90438Y-36092D01*
X90349Y-36125D01*
X90250Y-36158D01*
X90133Y-35660D01*
X90139D01*
X90150Y-35655D01*
X90172Y-35643D01*
X90200Y-35632D01*
X90233Y-35621D01*
X90277Y-35605D01*
X90366Y-35560D01*
X90466Y-35505D01*
X90565Y-35439D01*
X90659Y-35356D01*
X90742Y-35267D01*
X90753Y-35256D01*
X90776Y-35223D01*
X90803Y-35167D01*
X90842Y-35095D01*
X90875Y-35001D01*
X90909Y-34896D01*
X90931Y-34769D01*
X90936Y-34630D01*
Y-34586D01*
X90931Y-34558D01*
Y-34519D01*
X90925Y-34475D01*
X90909Y-34370D01*
X90886Y-34254D01*
X90848Y-34132D01*
X90792Y-34004D01*
X90720Y-33888D01*
Y-33883D01*
X90709Y-33877D01*
X90681Y-33838D01*
X90637Y-33788D01*
X90571Y-33728D01*
X90488Y-33656D01*
X90394Y-33589D01*
X90277Y-33528D01*
X90150Y-33473D01*
X90144D01*
X90133Y-33467D01*
X90117Y-33462D01*
X90089Y-33456D01*
X90056Y-33445D01*
X90017Y-33434D01*
X89923Y-33417D01*
X89812Y-33395D01*
X89690Y-33373D01*
X89558Y-33362D01*
X89413Y-33357D01*
X89408D01*
X89391D01*
X89364D01*
X89331D01*
X89292Y-33362D01*
X89242D01*
X89186Y-33368D01*
X89126Y-33373D01*
X88993Y-33390D01*
X88849Y-33417D01*
X88705Y-33451D01*
X88561Y-33495D01*
X88555D01*
X88544Y-33501D01*
X88528Y-33512D01*
X88500Y-33523D01*
X88433Y-33556D01*
X88356Y-33606D01*
X88267Y-33667D01*
X88173Y-33744D01*
X88090Y-33833D01*
X88013Y-33938D01*
Y-33944D01*
X88007Y-33955D01*
X87996Y-33971D01*
X87985Y-33993D01*
X87974Y-34021D01*
X87957Y-34054D01*
X87924Y-34132D01*
X87891Y-34232D01*
X87863Y-34342D01*
X87841Y-34464D01*
X87835Y-34591D01*
Y-34630D01*
X87841Y-34663D01*
Y-34702D01*
X87846Y-34741D01*
X87869Y-34841D01*
X87896Y-34957D01*
X87941Y-35073D01*
X88001Y-35195D01*
X88035Y-35256D01*
X88079Y-35311D01*
X88085Y-35317D01*
X88090Y-35322D01*
X88107Y-35339D01*
X88123Y-35361D01*
X88151Y-35383D01*
X88184Y-35411D01*
X88217Y-35444D01*
X88262Y-35472D01*
X88312Y-35505D01*
X88367Y-35544D01*
X88422Y-35577D01*
X88489Y-35610D01*
X88561Y-35638D01*
X88638Y-35666D01*
X88721Y-35693D01*
X88810Y-35715D01*
X88683Y-36225D01*
X88677D01*
X88655Y-36219D01*
X88622Y-36208D01*
X88577Y-36192D01*
X88528Y-36175D01*
X88467Y-36153D01*
X88400Y-36125D01*
X88328Y-36092D01*
X88173Y-36014D01*
X88018Y-35915D01*
X87941Y-35854D01*
X87863Y-35793D01*
X87797Y-35726D01*
X87730Y-35649D01*
X87725Y-35643D01*
X87714Y-35632D01*
X87703Y-35605D01*
X87680Y-35577D01*
X87653Y-35533D01*
X87625Y-35488D01*
X87597Y-35427D01*
X87570Y-35367D01*
X87536Y-35295D01*
X87509Y-35217D01*
X87481Y-35134D01*
X87453Y-35045D01*
X87431Y-34951D01*
X87420Y-34852D01*
X87409Y-34746D01*
X87403Y-34636D01*
Y-34575D01*
X87409Y-34530D01*
Y-34481D01*
X87415Y-34420D01*
X87426Y-34353D01*
X87437Y-34276D01*
X87464Y-34115D01*
X87509Y-33949D01*
X87570Y-33783D01*
X87608Y-33705D01*
X87653Y-33628D01*
X87658Y-33622D01*
X87664Y-33611D01*
X87680Y-33589D01*
X87703Y-33567D01*
X87725Y-33534D01*
X87758Y-33495D01*
X87797Y-33451D01*
X87841Y-33407D01*
X87891Y-33362D01*
X87941Y-33312D01*
X88068Y-33213D01*
X88217Y-33119D01*
X88384Y-33036D01*
X88389D01*
X88406Y-33024D01*
X88433Y-33019D01*
X88467Y-33002D01*
X88511Y-32991D01*
X88566Y-32975D01*
X88627Y-32952D01*
X88694Y-32936D01*
X88766Y-32919D01*
X88849Y-32897D01*
X89020Y-32869D01*
X89214Y-32847D01*
X89413Y-32836D01*
X89419D01*
X89441D01*
X89474D01*
X89513Y-32842D01*
D02*
G37*
G36*
X90355Y-37022D02*
X90366Y-37033D01*
X90371Y-37055D01*
X90388Y-37083D01*
X90405Y-37116D01*
X90427Y-37155D01*
X90482Y-37249D01*
X90543Y-37360D01*
X90621Y-37471D01*
X90709Y-37587D01*
X90803Y-37703D01*
X90809Y-37709D01*
X90814Y-37714D01*
X90831Y-37731D01*
X90848Y-37753D01*
X90903Y-37803D01*
X90969Y-37869D01*
X91047Y-37936D01*
X91136Y-38008D01*
X91224Y-38069D01*
X91318Y-38124D01*
Y-38429D01*
X87470D01*
Y-37958D01*
X90466D01*
X90460Y-37952D01*
X90438Y-37925D01*
X90405Y-37892D01*
X90366Y-37836D01*
X90316Y-37775D01*
X90261Y-37698D01*
X90200Y-37609D01*
X90139Y-37510D01*
Y-37504D01*
X90133Y-37499D01*
X90111Y-37465D01*
X90084Y-37410D01*
X90050Y-37343D01*
X90012Y-37266D01*
X89973Y-37183D01*
X89934Y-37100D01*
X89901Y-37017D01*
X90355D01*
Y-37022D01*
D02*
G37*
G36*
Y-40001D02*
X90366Y-40012D01*
X90371Y-40034D01*
X90388Y-40062D01*
X90405Y-40095D01*
X90427Y-40134D01*
X90482Y-40228D01*
X90543Y-40339D01*
X90621Y-40450D01*
X90709Y-40566D01*
X90803Y-40682D01*
X90809Y-40688D01*
X90814Y-40693D01*
X90831Y-40710D01*
X90848Y-40732D01*
X90903Y-40782D01*
X90969Y-40848D01*
X91047Y-40915D01*
X91136Y-40987D01*
X91224Y-41048D01*
X91318Y-41103D01*
Y-41408D01*
X87470D01*
Y-40937D01*
X90466D01*
X90460Y-40932D01*
X90438Y-40904D01*
X90405Y-40871D01*
X90366Y-40815D01*
X90316Y-40754D01*
X90261Y-40677D01*
X90200Y-40588D01*
X90139Y-40489D01*
Y-40483D01*
X90133Y-40477D01*
X90111Y-40444D01*
X90084Y-40389D01*
X90050Y-40322D01*
X90012Y-40245D01*
X89973Y-40162D01*
X89934Y-40079D01*
X89901Y-39996D01*
X90355D01*
Y-40001D01*
D02*
G37*
G36*
X52273Y-32685D02*
X52329D01*
X52384Y-32690D01*
X52456Y-32696D01*
X52528Y-32707D01*
X52688Y-32735D01*
X52866Y-32773D01*
X53043Y-32829D01*
X53215Y-32906D01*
X53220Y-32912D01*
X53237Y-32917D01*
X53259Y-32928D01*
X53286Y-32950D01*
X53325Y-32973D01*
X53370Y-33000D01*
X53469Y-33072D01*
X53580Y-33166D01*
X53691Y-33277D01*
X53801Y-33405D01*
X53896Y-33554D01*
X53901Y-33560D01*
X53907Y-33576D01*
X53918Y-33598D01*
X53934Y-33626D01*
X53951Y-33670D01*
X53968Y-33715D01*
X53990Y-33770D01*
X54012Y-33831D01*
X54034Y-33897D01*
X54056Y-33969D01*
X54089Y-34124D01*
X54117Y-34302D01*
X54128Y-34484D01*
Y-34540D01*
X54123Y-34578D01*
X54117Y-34628D01*
X54112Y-34689D01*
X54106Y-34750D01*
X54089Y-34822D01*
X54056Y-34972D01*
X54006Y-35138D01*
X53973Y-35221D01*
X53934Y-35298D01*
X53885Y-35376D01*
X53835Y-35453D01*
X53829Y-35459D01*
X53824Y-35470D01*
X53807Y-35492D01*
X53779Y-35520D01*
X53752Y-35547D01*
X53713Y-35586D01*
X53669Y-35625D01*
X53624Y-35669D01*
X53569Y-35714D01*
X53502Y-35758D01*
X53436Y-35808D01*
X53364Y-35852D01*
X53281Y-35891D01*
X53198Y-35935D01*
X53109Y-35968D01*
X53010Y-36002D01*
X52893Y-35503D01*
X52899D01*
X52910Y-35498D01*
X52932Y-35487D01*
X52960Y-35475D01*
X52993Y-35464D01*
X53037Y-35448D01*
X53126Y-35403D01*
X53226Y-35348D01*
X53325Y-35282D01*
X53419Y-35199D01*
X53502Y-35110D01*
X53513Y-35099D01*
X53536Y-35066D01*
X53563Y-35010D01*
X53602Y-34938D01*
X53635Y-34844D01*
X53669Y-34739D01*
X53691Y-34612D01*
X53696Y-34473D01*
Y-34429D01*
X53691Y-34401D01*
Y-34362D01*
X53685Y-34318D01*
X53669Y-34213D01*
X53646Y-34097D01*
X53608Y-33975D01*
X53552Y-33847D01*
X53480Y-33731D01*
Y-33726D01*
X53469Y-33720D01*
X53442Y-33681D01*
X53397Y-33632D01*
X53331Y-33571D01*
X53248Y-33499D01*
X53154Y-33432D01*
X53037Y-33371D01*
X52910Y-33316D01*
X52904D01*
X52893Y-33310D01*
X52877Y-33305D01*
X52849Y-33299D01*
X52816Y-33288D01*
X52777Y-33277D01*
X52683Y-33261D01*
X52572Y-33238D01*
X52450Y-33216D01*
X52318Y-33205D01*
X52174Y-33200D01*
X52168D01*
X52151D01*
X52124D01*
X52091D01*
X52052Y-33205D01*
X52002D01*
X51947Y-33211D01*
X51886Y-33216D01*
X51753Y-33233D01*
X51609Y-33261D01*
X51465Y-33294D01*
X51321Y-33338D01*
X51315D01*
X51304Y-33344D01*
X51288Y-33355D01*
X51260Y-33366D01*
X51193Y-33399D01*
X51116Y-33449D01*
X51027Y-33510D01*
X50933Y-33587D01*
X50850Y-33676D01*
X50773Y-33781D01*
Y-33787D01*
X50767Y-33798D01*
X50756Y-33814D01*
X50745Y-33837D01*
X50734Y-33864D01*
X50717Y-33897D01*
X50684Y-33975D01*
X50651Y-34075D01*
X50623Y-34185D01*
X50601Y-34307D01*
X50595Y-34434D01*
Y-34473D01*
X50601Y-34506D01*
Y-34545D01*
X50606Y-34584D01*
X50629Y-34684D01*
X50656Y-34800D01*
X50701Y-34916D01*
X50761Y-35038D01*
X50795Y-35099D01*
X50839Y-35154D01*
X50845Y-35160D01*
X50850Y-35165D01*
X50867Y-35182D01*
X50883Y-35204D01*
X50911Y-35226D01*
X50944Y-35254D01*
X50978Y-35287D01*
X51022Y-35315D01*
X51072Y-35348D01*
X51127Y-35387D01*
X51182Y-35420D01*
X51249Y-35453D01*
X51321Y-35481D01*
X51398Y-35509D01*
X51481Y-35536D01*
X51570Y-35559D01*
X51443Y-36068D01*
X51437D01*
X51415Y-36062D01*
X51382Y-36051D01*
X51337Y-36035D01*
X51288Y-36018D01*
X51227Y-35996D01*
X51160Y-35968D01*
X51088Y-35935D01*
X50933Y-35858D01*
X50778Y-35758D01*
X50701Y-35697D01*
X50623Y-35636D01*
X50557Y-35570D01*
X50490Y-35492D01*
X50485Y-35487D01*
X50474Y-35475D01*
X50462Y-35448D01*
X50440Y-35420D01*
X50413Y-35376D01*
X50385Y-35331D01*
X50357Y-35271D01*
X50330Y-35210D01*
X50296Y-35138D01*
X50269Y-35060D01*
X50241Y-34977D01*
X50213Y-34889D01*
X50191Y-34794D01*
X50180Y-34695D01*
X50169Y-34590D01*
X50163Y-34479D01*
Y-34418D01*
X50169Y-34374D01*
Y-34324D01*
X50175Y-34263D01*
X50186Y-34196D01*
X50197Y-34119D01*
X50224Y-33958D01*
X50269Y-33792D01*
X50330Y-33626D01*
X50368Y-33549D01*
X50413Y-33471D01*
X50418Y-33465D01*
X50424Y-33454D01*
X50440Y-33432D01*
X50462Y-33410D01*
X50485Y-33377D01*
X50518Y-33338D01*
X50557Y-33294D01*
X50601Y-33249D01*
X50651Y-33205D01*
X50701Y-33155D01*
X50828Y-33056D01*
X50978Y-32962D01*
X51144Y-32878D01*
X51149D01*
X51166Y-32867D01*
X51193Y-32862D01*
X51227Y-32845D01*
X51271Y-32834D01*
X51326Y-32818D01*
X51387Y-32796D01*
X51454Y-32779D01*
X51526Y-32762D01*
X51609Y-32740D01*
X51780Y-32712D01*
X51974Y-32690D01*
X52174Y-32679D01*
X52179D01*
X52201D01*
X52234D01*
X52273Y-32685D01*
D02*
G37*
G36*
X53115Y-36865D02*
X53126Y-36876D01*
X53131Y-36899D01*
X53148Y-36926D01*
X53165Y-36959D01*
X53187Y-36998D01*
X53242Y-37092D01*
X53303Y-37203D01*
X53381Y-37314D01*
X53469Y-37430D01*
X53563Y-37546D01*
X53569Y-37552D01*
X53574Y-37557D01*
X53591Y-37574D01*
X53608Y-37596D01*
X53663Y-37646D01*
X53730Y-37713D01*
X53807Y-37779D01*
X53896Y-37851D01*
X53984Y-37912D01*
X54078Y-37967D01*
Y-38272D01*
X50230D01*
Y-37801D01*
X53226D01*
X53220Y-37796D01*
X53198Y-37768D01*
X53165Y-37735D01*
X53126Y-37679D01*
X53076Y-37618D01*
X53021Y-37541D01*
X52960Y-37452D01*
X52899Y-37353D01*
Y-37347D01*
X52893Y-37341D01*
X52871Y-37308D01*
X52843Y-37253D01*
X52810Y-37187D01*
X52772Y-37109D01*
X52733Y-37026D01*
X52694Y-36943D01*
X52661Y-36860D01*
X53115D01*
Y-36865D01*
D02*
G37*
G36*
X52290Y-39484D02*
X52356D01*
X52428Y-39490D01*
X52511Y-39495D01*
X52683Y-39512D01*
X52866Y-39540D01*
X53048Y-39573D01*
X53131Y-39595D01*
X53215Y-39617D01*
X53220D01*
X53231Y-39623D01*
X53253Y-39634D01*
X53281Y-39645D01*
X53320Y-39656D01*
X53358Y-39678D01*
X53453Y-39722D01*
X53552Y-39778D01*
X53657Y-39850D01*
X53763Y-39933D01*
X53851Y-40033D01*
Y-40038D01*
X53862Y-40044D01*
X53874Y-40060D01*
X53885Y-40082D01*
X53907Y-40110D01*
X53923Y-40143D01*
X53968Y-40226D01*
X54006Y-40326D01*
X54045Y-40442D01*
X54067Y-40581D01*
X54078Y-40730D01*
Y-40780D01*
X54073Y-40841D01*
X54062Y-40913D01*
X54045Y-40996D01*
X54023Y-41085D01*
X53995Y-41179D01*
X53951Y-41267D01*
Y-41273D01*
X53945Y-41279D01*
X53929Y-41306D01*
X53901Y-41350D01*
X53862Y-41406D01*
X53807Y-41467D01*
X53746Y-41533D01*
X53674Y-41594D01*
X53591Y-41655D01*
X53580Y-41660D01*
X53552Y-41683D01*
X53502Y-41705D01*
X53431Y-41744D01*
X53347Y-41777D01*
X53253Y-41821D01*
X53142Y-41860D01*
X53021Y-41893D01*
X53015D01*
X53004Y-41899D01*
X52987Y-41904D01*
X52960Y-41910D01*
X52927Y-41915D01*
X52888Y-41921D01*
X52838Y-41932D01*
X52783Y-41937D01*
X52722Y-41948D01*
X52655Y-41954D01*
X52578Y-41960D01*
X52500Y-41971D01*
X52412Y-41976D01*
X52323D01*
X52223Y-41982D01*
X52118D01*
X52113D01*
X52091D01*
X52052D01*
X52007D01*
X51947Y-41976D01*
X51880D01*
X51808Y-41971D01*
X51731Y-41965D01*
X51553Y-41948D01*
X51371Y-41921D01*
X51193Y-41887D01*
X51110Y-41865D01*
X51027Y-41838D01*
X51022D01*
X51011Y-41832D01*
X50989Y-41821D01*
X50961Y-41810D01*
X50922Y-41799D01*
X50883Y-41777D01*
X50789Y-41733D01*
X50690Y-41677D01*
X50579Y-41605D01*
X50479Y-41522D01*
X50385Y-41422D01*
Y-41417D01*
X50374Y-41411D01*
X50363Y-41395D01*
X50352Y-41373D01*
X50335Y-41345D01*
X50313Y-41317D01*
X50274Y-41234D01*
X50236Y-41135D01*
X50197Y-41018D01*
X50175Y-40880D01*
X50163Y-40730D01*
Y-40675D01*
X50169Y-40636D01*
X50175Y-40592D01*
X50186Y-40536D01*
X50197Y-40476D01*
X50213Y-40409D01*
X50236Y-40343D01*
X50258Y-40271D01*
X50291Y-40199D01*
X50330Y-40127D01*
X50374Y-40055D01*
X50429Y-39983D01*
X50490Y-39916D01*
X50557Y-39855D01*
X50562Y-39850D01*
X50579Y-39839D01*
X50606Y-39822D01*
X50651Y-39794D01*
X50701Y-39767D01*
X50767Y-39739D01*
X50845Y-39700D01*
X50933Y-39667D01*
X51033Y-39634D01*
X51149Y-39601D01*
X51276Y-39567D01*
X51420Y-39540D01*
X51575Y-39512D01*
X51742Y-39495D01*
X51924Y-39484D01*
X52118Y-39479D01*
X52124D01*
X52146D01*
X52185D01*
X52229D01*
X52290Y-39484D01*
D02*
G37*
G36*
X12082Y42610D02*
X13001D01*
Y42140D01*
X12082D01*
Y40473D01*
X11650D01*
X9170Y42228D01*
Y42610D01*
X11650D01*
Y43131D01*
X12082D01*
Y42610D01*
D02*
G37*
G36*
X11817Y40196D02*
X11850Y40185D01*
X11894Y40168D01*
X11944Y40152D01*
X12005Y40130D01*
X12071Y40102D01*
X12143Y40069D01*
X12298Y39991D01*
X12453Y39892D01*
X12531Y39831D01*
X12608Y39770D01*
X12675Y39703D01*
X12741Y39626D01*
X12747Y39620D01*
X12758Y39609D01*
X12769Y39581D01*
X12791Y39554D01*
X12819Y39509D01*
X12846Y39465D01*
X12874Y39404D01*
X12902Y39343D01*
X12935Y39271D01*
X12963Y39194D01*
X12990Y39111D01*
X13018Y39022D01*
X13040Y38928D01*
X13051Y38828D01*
X13062Y38723D01*
X13068Y38612D01*
Y38551D01*
X13062Y38507D01*
Y38457D01*
X13057Y38396D01*
X13046Y38330D01*
X13035Y38252D01*
X13007Y38092D01*
X12963Y37926D01*
X12902Y37760D01*
X12863Y37682D01*
X12819Y37605D01*
X12813Y37599D01*
X12808Y37588D01*
X12791Y37566D01*
X12769Y37544D01*
X12747Y37510D01*
X12714Y37472D01*
X12675Y37427D01*
X12630Y37383D01*
X12581Y37339D01*
X12531Y37289D01*
X12403Y37189D01*
X12254Y37095D01*
X12088Y37012D01*
X12082D01*
X12066Y37001D01*
X12038Y36996D01*
X12005Y36979D01*
X11961Y36968D01*
X11905Y36951D01*
X11844Y36929D01*
X11778Y36913D01*
X11706Y36896D01*
X11623Y36874D01*
X11451Y36846D01*
X11257Y36824D01*
X11058Y36813D01*
X11052D01*
X11030D01*
X10997D01*
X10958Y36818D01*
X10903D01*
X10848Y36824D01*
X10776Y36829D01*
X10704Y36841D01*
X10543Y36868D01*
X10366Y36907D01*
X10188Y36962D01*
X10017Y37040D01*
X10011Y37045D01*
X9995Y37051D01*
X9973Y37062D01*
X9945Y37084D01*
X9906Y37106D01*
X9862Y37134D01*
X9762Y37206D01*
X9651Y37300D01*
X9541Y37411D01*
X9430Y37538D01*
X9336Y37688D01*
X9330Y37693D01*
X9325Y37710D01*
X9314Y37732D01*
X9297Y37760D01*
X9280Y37804D01*
X9264Y37848D01*
X9242Y37904D01*
X9219Y37965D01*
X9197Y38031D01*
X9175Y38103D01*
X9142Y38258D01*
X9114Y38435D01*
X9103Y38618D01*
Y38673D01*
X9109Y38712D01*
X9114Y38762D01*
X9120Y38823D01*
X9125Y38884D01*
X9142Y38956D01*
X9175Y39105D01*
X9225Y39271D01*
X9258Y39354D01*
X9297Y39432D01*
X9347Y39509D01*
X9397Y39587D01*
X9402Y39592D01*
X9408Y39604D01*
X9424Y39626D01*
X9452Y39653D01*
X9480Y39681D01*
X9518Y39720D01*
X9563Y39759D01*
X9607Y39803D01*
X9663Y39847D01*
X9729Y39892D01*
X9795Y39941D01*
X9867Y39986D01*
X9950Y40024D01*
X10034Y40069D01*
X10122Y40102D01*
X10222Y40135D01*
X10338Y39637D01*
X10332D01*
X10321Y39631D01*
X10299Y39620D01*
X10272Y39609D01*
X10238Y39598D01*
X10194Y39581D01*
X10106Y39537D01*
X10006Y39482D01*
X9906Y39415D01*
X9812Y39332D01*
X9729Y39244D01*
X9718Y39233D01*
X9696Y39199D01*
X9668Y39144D01*
X9629Y39072D01*
X9596Y38978D01*
X9563Y38873D01*
X9541Y38745D01*
X9535Y38607D01*
Y38563D01*
X9541Y38535D01*
Y38496D01*
X9546Y38452D01*
X9563Y38347D01*
X9585Y38230D01*
X9624Y38108D01*
X9679Y37981D01*
X9751Y37865D01*
Y37859D01*
X9762Y37854D01*
X9790Y37815D01*
X9834Y37765D01*
X9901Y37704D01*
X9984Y37632D01*
X10078Y37566D01*
X10194Y37505D01*
X10321Y37450D01*
X10327D01*
X10338Y37444D01*
X10355Y37438D01*
X10382Y37433D01*
X10416Y37422D01*
X10454Y37411D01*
X10548Y37394D01*
X10659Y37372D01*
X10781Y37350D01*
X10914Y37339D01*
X11058Y37333D01*
X11063D01*
X11080D01*
X11108D01*
X11141D01*
X11180Y37339D01*
X11229D01*
X11285Y37344D01*
X11346Y37350D01*
X11479Y37366D01*
X11623Y37394D01*
X11767Y37427D01*
X11911Y37472D01*
X11916D01*
X11927Y37477D01*
X11944Y37488D01*
X11971Y37499D01*
X12038Y37533D01*
X12115Y37582D01*
X12204Y37643D01*
X12298Y37721D01*
X12381Y37810D01*
X12459Y37915D01*
Y37920D01*
X12464Y37931D01*
X12475Y37948D01*
X12486Y37970D01*
X12498Y37998D01*
X12514Y38031D01*
X12547Y38108D01*
X12581Y38208D01*
X12608Y38319D01*
X12630Y38441D01*
X12636Y38568D01*
Y38607D01*
X12630Y38640D01*
Y38679D01*
X12625Y38718D01*
X12603Y38817D01*
X12575Y38934D01*
X12531Y39050D01*
X12470Y39172D01*
X12437Y39233D01*
X12392Y39288D01*
X12387Y39293D01*
X12381Y39299D01*
X12365Y39316D01*
X12348Y39338D01*
X12320Y39360D01*
X12287Y39388D01*
X12254Y39421D01*
X12210Y39448D01*
X12160Y39482D01*
X12104Y39520D01*
X12049Y39554D01*
X11983Y39587D01*
X11911Y39615D01*
X11833Y39642D01*
X11750Y39670D01*
X11661Y39692D01*
X11789Y40202D01*
X11794D01*
X11817Y40196D01*
D02*
G37*
G36*
X-8665Y43142D02*
X-8621Y43136D01*
X-8571Y43125D01*
X-8516Y43114D01*
X-8455Y43103D01*
X-8322Y43059D01*
X-8250Y43026D01*
X-8183Y42992D01*
X-8111Y42948D01*
X-8039Y42898D01*
X-7967Y42843D01*
X-7901Y42776D01*
X-7895Y42771D01*
X-7884Y42760D01*
X-7868Y42738D01*
X-7846Y42710D01*
X-7818Y42677D01*
X-7790Y42632D01*
X-7757Y42583D01*
X-7729Y42522D01*
X-7696Y42461D01*
X-7663Y42389D01*
X-7635Y42317D01*
X-7607Y42234D01*
X-7585Y42145D01*
X-7569Y42051D01*
X-7558Y41957D01*
X-7552Y41852D01*
Y41802D01*
X-7558Y41769D01*
X-7563Y41724D01*
X-7569Y41674D01*
X-7580Y41619D01*
X-7591Y41558D01*
X-7624Y41425D01*
X-7679Y41287D01*
X-7713Y41215D01*
X-7751Y41149D01*
X-7801Y41082D01*
X-7851Y41016D01*
X-7857Y41010D01*
X-7868Y40999D01*
X-7884Y40982D01*
X-7907Y40966D01*
X-7934Y40938D01*
X-7973Y40910D01*
X-8012Y40877D01*
X-8062Y40844D01*
X-8117Y40811D01*
X-8172Y40778D01*
X-8305Y40717D01*
X-8460Y40667D01*
X-8543Y40650D01*
X-8632Y40639D01*
X-8693Y41110D01*
X-8687D01*
X-8676Y41115D01*
X-8654Y41121D01*
X-8626Y41126D01*
X-8593Y41132D01*
X-8554Y41143D01*
X-8471Y41171D01*
X-8372Y41209D01*
X-8278Y41259D01*
X-8189Y41315D01*
X-8111Y41381D01*
X-8106Y41392D01*
X-8084Y41414D01*
X-8056Y41459D01*
X-8028Y41514D01*
X-7995Y41580D01*
X-7967Y41663D01*
X-7945Y41758D01*
X-7940Y41857D01*
Y41891D01*
X-7945Y41913D01*
X-7951Y41974D01*
X-7967Y42051D01*
X-7995Y42140D01*
X-8034Y42234D01*
X-8089Y42328D01*
X-8167Y42417D01*
X-8178Y42428D01*
X-8211Y42455D01*
X-8261Y42488D01*
X-8327Y42533D01*
X-8410Y42577D01*
X-8504Y42610D01*
X-8615Y42638D01*
X-8737Y42649D01*
X-8743D01*
X-8754D01*
X-8770D01*
X-8792Y42643D01*
X-8853Y42638D01*
X-8925Y42621D01*
X-9014Y42599D01*
X-9103Y42561D01*
X-9191Y42505D01*
X-9274Y42433D01*
X-9285Y42422D01*
X-9307Y42394D01*
X-9341Y42350D01*
X-9379Y42289D01*
X-9418Y42212D01*
X-9451Y42118D01*
X-9474Y42012D01*
X-9485Y41896D01*
Y41846D01*
X-9479Y41807D01*
X-9474Y41758D01*
X-9462Y41702D01*
X-9451Y41636D01*
X-9435Y41564D01*
X-9850Y41619D01*
Y41647D01*
X-9844Y41669D01*
Y41741D01*
X-9856Y41802D01*
X-9867Y41874D01*
X-9883Y41957D01*
X-9911Y42051D01*
X-9950Y42140D01*
X-9999Y42234D01*
Y42239D01*
X-10005Y42245D01*
X-10027Y42273D01*
X-10066Y42311D01*
X-10116Y42356D01*
X-10188Y42400D01*
X-10271Y42439D01*
X-10365Y42466D01*
X-10420Y42477D01*
X-10481D01*
X-10487D01*
X-10492D01*
X-10526D01*
X-10570Y42466D01*
X-10631Y42455D01*
X-10697Y42433D01*
X-10769Y42405D01*
X-10841Y42361D01*
X-10908Y42300D01*
X-10913Y42295D01*
X-10935Y42267D01*
X-10963Y42228D01*
X-10996Y42178D01*
X-11024Y42112D01*
X-11052Y42034D01*
X-11074Y41946D01*
X-11079Y41846D01*
Y41802D01*
X-11068Y41752D01*
X-11057Y41686D01*
X-11035Y41614D01*
X-11007Y41542D01*
X-10963Y41464D01*
X-10908Y41392D01*
X-10902Y41387D01*
X-10874Y41364D01*
X-10836Y41331D01*
X-10780Y41292D01*
X-10708Y41254D01*
X-10620Y41215D01*
X-10515Y41182D01*
X-10393Y41160D01*
X-10476Y40689D01*
X-10481D01*
X-10498Y40694D01*
X-10520Y40700D01*
X-10553Y40705D01*
X-10592Y40717D01*
X-10636Y40733D01*
X-10741Y40766D01*
X-10863Y40822D01*
X-10985Y40888D01*
X-11101Y40971D01*
X-11207Y41076D01*
X-11212Y41082D01*
X-11218Y41093D01*
X-11229Y41110D01*
X-11245Y41132D01*
X-11267Y41160D01*
X-11290Y41198D01*
X-11312Y41237D01*
X-11339Y41287D01*
X-11384Y41398D01*
X-11428Y41525D01*
X-11456Y41674D01*
X-11467Y41752D01*
Y41891D01*
X-11461Y41951D01*
X-11450Y42023D01*
X-11434Y42112D01*
X-11406Y42212D01*
X-11373Y42311D01*
X-11329Y42411D01*
Y42417D01*
X-11323Y42422D01*
X-11306Y42455D01*
X-11273Y42505D01*
X-11234Y42561D01*
X-11179Y42627D01*
X-11118Y42693D01*
X-11046Y42760D01*
X-10963Y42815D01*
X-10952Y42821D01*
X-10924Y42837D01*
X-10874Y42860D01*
X-10813Y42887D01*
X-10741Y42915D01*
X-10658Y42937D01*
X-10564Y42954D01*
X-10470Y42959D01*
X-10459D01*
X-10426D01*
X-10382Y42954D01*
X-10321Y42943D01*
X-10249Y42926D01*
X-10171Y42898D01*
X-10094Y42865D01*
X-10016Y42821D01*
X-10005Y42815D01*
X-9983Y42799D01*
X-9944Y42765D01*
X-9900Y42721D01*
X-9850Y42666D01*
X-9795Y42599D01*
X-9745Y42522D01*
X-9695Y42428D01*
Y42433D01*
X-9689Y42444D01*
X-9684Y42461D01*
X-9678Y42483D01*
X-9656Y42544D01*
X-9623Y42621D01*
X-9579Y42710D01*
X-9523Y42799D01*
X-9451Y42882D01*
X-9368Y42959D01*
X-9357Y42965D01*
X-9324Y42987D01*
X-9269Y43020D01*
X-9197Y43053D01*
X-9108Y43087D01*
X-9003Y43120D01*
X-8881Y43142D01*
X-8748Y43147D01*
X-8743D01*
X-8726D01*
X-8698D01*
X-8665Y43142D01*
D02*
G37*
G36*
X-8803Y40196D02*
X-8770Y40185D01*
X-8726Y40168D01*
X-8676Y40152D01*
X-8615Y40130D01*
X-8549Y40102D01*
X-8477Y40069D01*
X-8322Y39991D01*
X-8167Y39892D01*
X-8089Y39831D01*
X-8012Y39770D01*
X-7945Y39703D01*
X-7879Y39626D01*
X-7873Y39620D01*
X-7862Y39609D01*
X-7851Y39581D01*
X-7829Y39554D01*
X-7801Y39509D01*
X-7774Y39465D01*
X-7746Y39404D01*
X-7718Y39343D01*
X-7685Y39271D01*
X-7657Y39194D01*
X-7630Y39111D01*
X-7602Y39022D01*
X-7580Y38928D01*
X-7569Y38828D01*
X-7558Y38723D01*
X-7552Y38612D01*
Y38551D01*
X-7558Y38507D01*
Y38457D01*
X-7563Y38396D01*
X-7574Y38330D01*
X-7585Y38252D01*
X-7613Y38092D01*
X-7657Y37926D01*
X-7718Y37760D01*
X-7757Y37682D01*
X-7801Y37605D01*
X-7807Y37599D01*
X-7812Y37588D01*
X-7829Y37566D01*
X-7851Y37544D01*
X-7873Y37510D01*
X-7907Y37472D01*
X-7945Y37427D01*
X-7990Y37383D01*
X-8039Y37339D01*
X-8089Y37289D01*
X-8217Y37189D01*
X-8366Y37095D01*
X-8532Y37012D01*
X-8538D01*
X-8554Y37001D01*
X-8582Y36996D01*
X-8615Y36979D01*
X-8659Y36968D01*
X-8715Y36951D01*
X-8776Y36929D01*
X-8842Y36913D01*
X-8914Y36896D01*
X-8997Y36874D01*
X-9169Y36846D01*
X-9363Y36824D01*
X-9562Y36813D01*
X-9568D01*
X-9590D01*
X-9623D01*
X-9662Y36818D01*
X-9717D01*
X-9772Y36824D01*
X-9844Y36830D01*
X-9916Y36841D01*
X-10077Y36868D01*
X-10254Y36907D01*
X-10431Y36962D01*
X-10603Y37040D01*
X-10609Y37045D01*
X-10625Y37051D01*
X-10647Y37062D01*
X-10675Y37084D01*
X-10714Y37106D01*
X-10758Y37134D01*
X-10858Y37206D01*
X-10969Y37300D01*
X-11079Y37411D01*
X-11190Y37538D01*
X-11284Y37688D01*
X-11290Y37693D01*
X-11295Y37710D01*
X-11306Y37732D01*
X-11323Y37760D01*
X-11339Y37804D01*
X-11356Y37848D01*
X-11378Y37904D01*
X-11400Y37965D01*
X-11423Y38031D01*
X-11445Y38103D01*
X-11478Y38258D01*
X-11506Y38435D01*
X-11517Y38618D01*
Y38673D01*
X-11511Y38712D01*
X-11506Y38762D01*
X-11500Y38823D01*
X-11495Y38884D01*
X-11478Y38956D01*
X-11445Y39105D01*
X-11395Y39271D01*
X-11362Y39354D01*
X-11323Y39432D01*
X-11273Y39509D01*
X-11223Y39587D01*
X-11218Y39592D01*
X-11212Y39604D01*
X-11196Y39626D01*
X-11168Y39653D01*
X-11140Y39681D01*
X-11101Y39720D01*
X-11057Y39759D01*
X-11013Y39803D01*
X-10957Y39847D01*
X-10891Y39892D01*
X-10825Y39941D01*
X-10753Y39986D01*
X-10669Y40024D01*
X-10587Y40069D01*
X-10498Y40102D01*
X-10398Y40135D01*
X-10282Y39637D01*
X-10287D01*
X-10299Y39631D01*
X-10321Y39620D01*
X-10348Y39609D01*
X-10382Y39598D01*
X-10426Y39581D01*
X-10515Y39537D01*
X-10614Y39482D01*
X-10714Y39415D01*
X-10808Y39332D01*
X-10891Y39244D01*
X-10902Y39233D01*
X-10924Y39199D01*
X-10952Y39144D01*
X-10991Y39072D01*
X-11024Y38978D01*
X-11057Y38873D01*
X-11079Y38745D01*
X-11085Y38607D01*
Y38563D01*
X-11079Y38535D01*
Y38496D01*
X-11074Y38452D01*
X-11057Y38347D01*
X-11035Y38230D01*
X-10996Y38109D01*
X-10941Y37981D01*
X-10869Y37865D01*
Y37859D01*
X-10858Y37854D01*
X-10830Y37815D01*
X-10786Y37765D01*
X-10719Y37704D01*
X-10636Y37632D01*
X-10542Y37566D01*
X-10426Y37505D01*
X-10299Y37450D01*
X-10293D01*
X-10282Y37444D01*
X-10265Y37439D01*
X-10238Y37433D01*
X-10204Y37422D01*
X-10166Y37411D01*
X-10072Y37394D01*
X-9961Y37372D01*
X-9839Y37350D01*
X-9706Y37339D01*
X-9562Y37333D01*
X-9556D01*
X-9540D01*
X-9512D01*
X-9479D01*
X-9440Y37339D01*
X-9390D01*
X-9335Y37344D01*
X-9274Y37350D01*
X-9141Y37367D01*
X-8997Y37394D01*
X-8853Y37427D01*
X-8709Y37472D01*
X-8704D01*
X-8693Y37477D01*
X-8676Y37488D01*
X-8648Y37499D01*
X-8582Y37533D01*
X-8504Y37582D01*
X-8416Y37643D01*
X-8322Y37721D01*
X-8239Y37810D01*
X-8161Y37915D01*
Y37920D01*
X-8156Y37931D01*
X-8145Y37948D01*
X-8134Y37970D01*
X-8122Y37998D01*
X-8106Y38031D01*
X-8073Y38109D01*
X-8039Y38208D01*
X-8012Y38319D01*
X-7990Y38441D01*
X-7984Y38568D01*
Y38607D01*
X-7990Y38640D01*
Y38679D01*
X-7995Y38718D01*
X-8017Y38817D01*
X-8045Y38934D01*
X-8089Y39050D01*
X-8150Y39172D01*
X-8183Y39233D01*
X-8228Y39288D01*
X-8233Y39293D01*
X-8239Y39299D01*
X-8255Y39316D01*
X-8272Y39338D01*
X-8300Y39360D01*
X-8333Y39388D01*
X-8366Y39421D01*
X-8410Y39449D01*
X-8460Y39482D01*
X-8516Y39520D01*
X-8571Y39554D01*
X-8637Y39587D01*
X-8709Y39615D01*
X-8787Y39642D01*
X-8870Y39670D01*
X-8959Y39692D01*
X-8831Y40202D01*
X-8826D01*
X-8803Y40196D01*
D02*
G37*
%LPC*%
G36*
X-22369Y-84522D02*
X-23576Y-86239D01*
X-22369D01*
Y-84522D01*
D02*
G37*
G36*
X-25824Y-84185D02*
X-27031D01*
Y-85453D01*
X-25891D01*
X-25824Y-85447D01*
X-25747Y-85442D01*
X-25658Y-85436D01*
X-25570Y-85425D01*
X-25481Y-85408D01*
X-25403Y-85386D01*
X-25392Y-85381D01*
X-25370Y-85370D01*
X-25337Y-85353D01*
X-25293Y-85331D01*
X-25243Y-85298D01*
X-25193Y-85259D01*
X-25143Y-85209D01*
X-25104Y-85154D01*
X-25099Y-85148D01*
X-25088Y-85126D01*
X-25071Y-85093D01*
X-25049Y-85048D01*
X-25032Y-84999D01*
X-25016Y-84943D01*
X-25005Y-84877D01*
X-24999Y-84810D01*
Y-84805D01*
Y-84799D01*
X-25005Y-84766D01*
X-25010Y-84716D01*
X-25021Y-84650D01*
X-25049Y-84583D01*
X-25082Y-84506D01*
X-25132Y-84434D01*
X-25199Y-84362D01*
X-25210Y-84356D01*
X-25237Y-84334D01*
X-25282Y-84306D01*
X-25354Y-84273D01*
X-25437Y-84240D01*
X-25547Y-84212D01*
X-25675Y-84190D01*
X-25824Y-84185D01*
D02*
G37*
G36*
X-43989Y-80429D02*
X-45257D01*
Y-81570D01*
X-45251Y-81636D01*
X-45246Y-81714D01*
X-45240Y-81803D01*
X-45229Y-81891D01*
X-45212Y-81980D01*
X-45190Y-82057D01*
X-45185Y-82068D01*
X-45174Y-82091D01*
X-45157Y-82124D01*
X-45135Y-82168D01*
X-45102Y-82218D01*
X-45063Y-82268D01*
X-45013Y-82318D01*
X-44958Y-82356D01*
X-44952Y-82362D01*
X-44930Y-82373D01*
X-44897Y-82390D01*
X-44852Y-82412D01*
X-44803Y-82428D01*
X-44747Y-82445D01*
X-44681Y-82456D01*
X-44614Y-82462D01*
X-44609D01*
X-44603D01*
X-44570Y-82456D01*
X-44520Y-82451D01*
X-44454Y-82439D01*
X-44387Y-82412D01*
X-44310Y-82379D01*
X-44238Y-82329D01*
X-44166Y-82262D01*
X-44160Y-82251D01*
X-44138Y-82224D01*
X-44111Y-82179D01*
X-44077Y-82107D01*
X-44044Y-82024D01*
X-44016Y-81913D01*
X-43994Y-81786D01*
X-43989Y-81636D01*
Y-80429D01*
D02*
G37*
G36*
X-56259Y-45036D02*
X-57527D01*
Y-46176D01*
X-57522Y-46243D01*
X-57516Y-46320D01*
X-57511Y-46409D01*
X-57500Y-46498D01*
X-57483Y-46586D01*
X-57461Y-46664D01*
X-57456Y-46675D01*
X-57444Y-46697D01*
X-57428Y-46730D01*
X-57406Y-46774D01*
X-57372Y-46824D01*
X-57334Y-46874D01*
X-57284Y-46924D01*
X-57228Y-46963D01*
X-57223Y-46968D01*
X-57201Y-46979D01*
X-57168Y-46996D01*
X-57123Y-47018D01*
X-57073Y-47035D01*
X-57018Y-47051D01*
X-56952Y-47062D01*
X-56885Y-47068D01*
X-56880D01*
X-56874D01*
X-56841Y-47062D01*
X-56791Y-47057D01*
X-56725Y-47046D01*
X-56658Y-47018D01*
X-56581Y-46985D01*
X-56509Y-46935D01*
X-56437Y-46869D01*
X-56431Y-46858D01*
X-56409Y-46830D01*
X-56381Y-46785D01*
X-56348Y-46714D01*
X-56315Y-46630D01*
X-56287Y-46520D01*
X-56265Y-46392D01*
X-56259Y-46243D01*
Y-45036D01*
D02*
G37*
G36*
X-141020Y-48829D02*
X-141026D01*
X-141037D01*
X-141053D01*
X-141081Y-48834D01*
X-141114D01*
X-141148Y-48840D01*
X-141231Y-48856D01*
X-141325Y-48884D01*
X-141425Y-48917D01*
X-141524Y-48973D01*
X-141613Y-49045D01*
X-141624Y-49056D01*
X-141646Y-49083D01*
X-141685Y-49133D01*
X-141723Y-49194D01*
X-141768Y-49277D01*
X-141807Y-49371D01*
X-141829Y-49477D01*
X-141840Y-49593D01*
Y-49626D01*
X-141834Y-49648D01*
X-141829Y-49709D01*
X-141812Y-49781D01*
X-141784Y-49870D01*
X-141746Y-49958D01*
X-141690Y-50047D01*
X-141613Y-50130D01*
X-141602Y-50141D01*
X-141568Y-50163D01*
X-141519Y-50196D01*
X-141447Y-50241D01*
X-141358Y-50279D01*
X-141253Y-50313D01*
X-141125Y-50335D01*
X-140982Y-50346D01*
X-140976D01*
X-140965D01*
X-140943D01*
X-140915Y-50340D01*
X-140876D01*
X-140838Y-50335D01*
X-140749Y-50318D01*
X-140644Y-50296D01*
X-140533Y-50257D01*
X-140428Y-50202D01*
X-140334Y-50130D01*
X-140328D01*
X-140323Y-50119D01*
X-140295Y-50091D01*
X-140256Y-50047D01*
X-140212Y-49986D01*
X-140173Y-49908D01*
X-140134Y-49820D01*
X-140107Y-49720D01*
X-140096Y-49665D01*
Y-49576D01*
X-140101Y-49554D01*
X-140107Y-49493D01*
X-140129Y-49421D01*
X-140156Y-49333D01*
X-140206Y-49239D01*
X-140267Y-49144D01*
X-140312Y-49100D01*
X-140356Y-49056D01*
X-140361D01*
X-140367Y-49045D01*
X-140384Y-49034D01*
X-140400Y-49022D01*
X-140456Y-48984D01*
X-140533Y-48945D01*
X-140627Y-48901D01*
X-140744Y-48862D01*
X-140876Y-48840D01*
X-141020Y-48829D01*
D02*
G37*
G36*
X-120068Y-48978D02*
X-120074D01*
X-120079D01*
X-120112Y-48984D01*
X-120162Y-48989D01*
X-120223Y-49000D01*
X-120295Y-49023D01*
X-120367Y-49050D01*
X-120445Y-49095D01*
X-120511Y-49150D01*
X-120517Y-49156D01*
X-120539Y-49183D01*
X-120567Y-49222D01*
X-120594Y-49272D01*
X-120627Y-49338D01*
X-120655Y-49416D01*
X-120677Y-49504D01*
X-120683Y-49604D01*
Y-49615D01*
X-120677Y-49648D01*
X-120672Y-49698D01*
X-120661Y-49764D01*
X-120638Y-49837D01*
X-120611Y-49908D01*
X-120567Y-49986D01*
X-120511Y-50052D01*
X-120506Y-50058D01*
X-120478Y-50080D01*
X-120445Y-50108D01*
X-120395Y-50141D01*
X-120334Y-50174D01*
X-120262Y-50202D01*
X-120179Y-50224D01*
X-120090Y-50230D01*
X-120085D01*
X-120079D01*
X-120046D01*
X-119996Y-50219D01*
X-119935Y-50208D01*
X-119869Y-50185D01*
X-119797Y-50152D01*
X-119725Y-50108D01*
X-119653Y-50047D01*
X-119647Y-50041D01*
X-119625Y-50014D01*
X-119597Y-49975D01*
X-119564Y-49925D01*
X-119531Y-49859D01*
X-119503Y-49787D01*
X-119481Y-49698D01*
X-119476Y-49604D01*
Y-49560D01*
X-119487Y-49510D01*
X-119498Y-49443D01*
X-119520Y-49371D01*
X-119548Y-49294D01*
X-119592Y-49222D01*
X-119653Y-49150D01*
X-119658Y-49144D01*
X-119681Y-49122D01*
X-119719Y-49095D01*
X-119769Y-49067D01*
X-119830Y-49034D01*
X-119902Y-49006D01*
X-119979Y-48984D01*
X-120068Y-48978D01*
D02*
G37*
G36*
X-121834Y-48823D02*
X-121846D01*
X-121868D01*
X-121906Y-48829D01*
X-121956Y-48834D01*
X-122017Y-48845D01*
X-122084Y-48862D01*
X-122150Y-48884D01*
X-122222Y-48912D01*
X-122228Y-48917D01*
X-122255Y-48928D01*
X-122289Y-48951D01*
X-122327Y-48984D01*
X-122377Y-49023D01*
X-122427Y-49072D01*
X-122471Y-49128D01*
X-122516Y-49194D01*
X-122521Y-49205D01*
X-122532Y-49227D01*
X-122549Y-49266D01*
X-122565Y-49316D01*
X-122582Y-49377D01*
X-122599Y-49449D01*
X-122610Y-49526D01*
X-122615Y-49604D01*
Y-49637D01*
X-122610Y-49659D01*
X-122604Y-49726D01*
X-122587Y-49803D01*
X-122560Y-49892D01*
X-122527Y-49986D01*
X-122471Y-50075D01*
X-122399Y-50163D01*
X-122388Y-50174D01*
X-122360Y-50196D01*
X-122311Y-50235D01*
X-122250Y-50274D01*
X-122172Y-50313D01*
X-122078Y-50352D01*
X-121967Y-50374D01*
X-121851Y-50385D01*
X-121846D01*
X-121834D01*
X-121818D01*
X-121796Y-50379D01*
X-121735Y-50374D01*
X-121652Y-50357D01*
X-121569Y-50329D01*
X-121475Y-50291D01*
X-121380Y-50235D01*
X-121292Y-50158D01*
X-121281Y-50147D01*
X-121259Y-50119D01*
X-121220Y-50069D01*
X-121176Y-50003D01*
X-121137Y-49920D01*
X-121098Y-49820D01*
X-121076Y-49709D01*
X-121065Y-49587D01*
Y-49554D01*
X-121070Y-49532D01*
X-121076Y-49471D01*
X-121093Y-49394D01*
X-121120Y-49305D01*
X-121159Y-49216D01*
X-121214Y-49122D01*
X-121286Y-49039D01*
X-121297Y-49028D01*
X-121325Y-49006D01*
X-121375Y-48973D01*
X-121436Y-48934D01*
X-121519Y-48890D01*
X-121613Y-48856D01*
X-121718Y-48834D01*
X-121834Y-48823D01*
D02*
G37*
G36*
X-101076Y-48868D02*
X-101087D01*
X-101115D01*
X-101165Y-48873D01*
X-101226Y-48879D01*
X-101298Y-48890D01*
X-101375Y-48912D01*
X-101458Y-48934D01*
X-101541Y-48967D01*
X-101552Y-48973D01*
X-101580Y-48989D01*
X-101619Y-49012D01*
X-101669Y-49045D01*
X-101718Y-49083D01*
X-101779Y-49133D01*
X-101829Y-49189D01*
X-101879Y-49255D01*
X-101884Y-49266D01*
X-101896Y-49288D01*
X-101918Y-49327D01*
X-101934Y-49377D01*
X-101957Y-49432D01*
X-101979Y-49499D01*
X-101990Y-49571D01*
X-101995Y-49648D01*
Y-49676D01*
X-101990Y-49698D01*
X-101984Y-49753D01*
X-101968Y-49826D01*
X-101934Y-49903D01*
X-101896Y-49992D01*
X-101835Y-50080D01*
X-101801Y-50125D01*
X-101757Y-50163D01*
X-101752D01*
X-101746Y-50174D01*
X-101713Y-50196D01*
X-101657Y-50230D01*
X-101586Y-50274D01*
X-101491Y-50313D01*
X-101381Y-50346D01*
X-101253Y-50368D01*
X-101104Y-50379D01*
X-101098D01*
X-101087D01*
X-101065D01*
X-101037Y-50374D01*
X-101004D01*
X-100965Y-50368D01*
X-100877Y-50352D01*
X-100777Y-50329D01*
X-100672Y-50291D01*
X-100572Y-50235D01*
X-100478Y-50163D01*
X-100467Y-50152D01*
X-100439Y-50125D01*
X-100406Y-50080D01*
X-100362Y-50019D01*
X-100317Y-49942D01*
X-100284Y-49853D01*
X-100257Y-49748D01*
X-100246Y-49632D01*
Y-49598D01*
X-100251Y-49576D01*
X-100257Y-49521D01*
X-100273Y-49443D01*
X-100301Y-49360D01*
X-100345Y-49266D01*
X-100400Y-49178D01*
X-100478Y-49089D01*
X-100489Y-49078D01*
X-100517Y-49056D01*
X-100567Y-49017D01*
X-100639Y-48978D01*
X-100722Y-48939D01*
X-100827Y-48901D01*
X-100943Y-48879D01*
X-101076Y-48868D01*
D02*
G37*
G36*
X52118Y-39961D02*
X52107D01*
X52079D01*
X52030D01*
X51963Y-39966D01*
X51891D01*
X51803Y-39972D01*
X51708Y-39977D01*
X51609Y-39988D01*
X51393Y-40016D01*
X51288Y-40033D01*
X51188Y-40055D01*
X51094Y-40077D01*
X51005Y-40110D01*
X50928Y-40143D01*
X50861Y-40182D01*
X50856D01*
X50850Y-40193D01*
X50811Y-40221D01*
X50761Y-40271D01*
X50706Y-40332D01*
X50651Y-40415D01*
X50601Y-40509D01*
X50562Y-40614D01*
X50557Y-40669D01*
X50551Y-40730D01*
Y-40764D01*
X50557Y-40786D01*
X50568Y-40841D01*
X50590Y-40918D01*
X50629Y-41002D01*
X50684Y-41096D01*
X50717Y-41140D01*
X50761Y-41184D01*
X50806Y-41229D01*
X50861Y-41273D01*
X50867D01*
X50878Y-41284D01*
X50894Y-41295D01*
X50922Y-41306D01*
X50961Y-41328D01*
X51011Y-41345D01*
X51066Y-41367D01*
X51132Y-41389D01*
X51216Y-41406D01*
X51304Y-41428D01*
X51409Y-41450D01*
X51520Y-41467D01*
X51653Y-41478D01*
X51792Y-41489D01*
X51947Y-41500D01*
X52118D01*
X52124D01*
X52129D01*
X52157D01*
X52207D01*
X52273Y-41494D01*
X52345D01*
X52434Y-41489D01*
X52528Y-41483D01*
X52633Y-41472D01*
X52843Y-41445D01*
X52949Y-41428D01*
X53048Y-41406D01*
X53142Y-41384D01*
X53231Y-41350D01*
X53309Y-41317D01*
X53375Y-41279D01*
X53381D01*
X53386Y-41267D01*
X53403Y-41256D01*
X53425Y-41240D01*
X53475Y-41190D01*
X53536Y-41129D01*
X53591Y-41046D01*
X53641Y-40952D01*
X53663Y-40902D01*
X53680Y-40847D01*
X53685Y-40786D01*
X53691Y-40725D01*
Y-40691D01*
X53685Y-40669D01*
X53674Y-40609D01*
X53657Y-40536D01*
X53624Y-40453D01*
X53574Y-40365D01*
X53541Y-40321D01*
X53508Y-40276D01*
X53464Y-40237D01*
X53414Y-40199D01*
X53408D01*
X53397Y-40188D01*
X53375Y-40177D01*
X53347Y-40160D01*
X53303Y-40143D01*
X53253Y-40121D01*
X53192Y-40105D01*
X53120Y-40082D01*
X53037Y-40060D01*
X52943Y-40038D01*
X52838Y-40016D01*
X52722Y-39999D01*
X52589Y-39983D01*
X52445Y-39972D01*
X52290Y-39966D01*
X52118Y-39961D01*
D02*
G37*
G36*
X11650Y42140D02*
X9934D01*
X11650Y40932D01*
Y42140D01*
D02*
G37*
%LPD*%
M02*
