G04*
G04 #@! TF.GenerationSoftware,Altium Limited,Altium Designer,26.3.0 (6)*
G04*
G04 Layer_Color=255*
%FSLAX44Y44*%
%MOMM*%
G71*
G04*
G04 #@! TF.SameCoordinates,5EB6B969-A1C5-4B9D-BA7F-34D15A1FC759*
G04*
G04*
G04 #@! TF.FilePolarity,Positive*
G04*
G01*
G75*
%ADD26R,1.1620X2.9908*%
%ADD31R,2.2000X0.5000*%
G04:AMPARAMS|DCode=38|XSize=1.3mm|YSize=0.76mm|CornerRadius=0.095mm|HoleSize=0mm|Usage=FLASHONLY|Rotation=90.000|XOffset=0mm|YOffset=0mm|HoleType=Round|Shape=RoundedRectangle|*
%AMROUNDEDRECTD38*
21,1,1.3000,0.5700,0,0,90.0*
21,1,1.1100,0.7600,0,0,90.0*
1,1,0.1900,0.2850,0.5550*
1,1,0.1900,0.2850,-0.5550*
1,1,0.1900,-0.2850,-0.5550*
1,1,0.1900,-0.2850,0.5550*
%
%ADD38ROUNDEDRECTD38*%
G04:AMPARAMS|DCode=39|XSize=1.3mm|YSize=0.76mm|CornerRadius=0.095mm|HoleSize=0mm|Usage=FLASHONLY|Rotation=0.000|XOffset=0mm|YOffset=0mm|HoleType=Round|Shape=RoundedRectangle|*
%AMROUNDEDRECTD39*
21,1,1.3000,0.5700,0,0,0.0*
21,1,1.1100,0.7600,0,0,0.0*
1,1,0.1900,0.5550,-0.2850*
1,1,0.1900,-0.5550,-0.2850*
1,1,0.1900,-0.5550,0.2850*
1,1,0.1900,0.5550,0.2850*
%
%ADD39ROUNDEDRECTD39*%
G04:AMPARAMS|DCode=40|XSize=1.778mm|YSize=2.54mm|CornerRadius=0.4445mm|HoleSize=0mm|Usage=FLASHONLY|Rotation=180.000|XOffset=0mm|YOffset=0mm|HoleType=Round|Shape=RoundedRectangle|*
%AMROUNDEDRECTD40*
21,1,1.7780,1.6510,0,0,180.0*
21,1,0.8890,2.5400,0,0,180.0*
1,1,0.8890,-0.4445,0.8255*
1,1,0.8890,0.4445,0.8255*
1,1,0.8890,0.4445,-0.8255*
1,1,0.8890,-0.4445,-0.8255*
%
%ADD40ROUNDEDRECTD40*%
%ADD41R,2.9500X4.9000*%
%ADD42R,0.6500X0.6500*%
G04:AMPARAMS|DCode=43|XSize=1.4mm|YSize=2.4mm|CornerRadius=0.175mm|HoleSize=0mm|Usage=FLASHONLY|Rotation=180.000|XOffset=0mm|YOffset=0mm|HoleType=Round|Shape=RoundedRectangle|*
%AMROUNDEDRECTD43*
21,1,1.4000,2.0500,0,0,180.0*
21,1,1.0500,2.4000,0,0,180.0*
1,1,0.3500,-0.5250,1.0250*
1,1,0.3500,0.5250,1.0250*
1,1,0.3500,0.5250,-1.0250*
1,1,0.3500,-0.5250,-1.0250*
%
%ADD43ROUNDEDRECTD43*%
G04:AMPARAMS|DCode=44|XSize=0.55mm|YSize=0.5mm|CornerRadius=0.0625mm|HoleSize=0mm|Usage=FLASHONLY|Rotation=0.000|XOffset=0mm|YOffset=0mm|HoleType=Round|Shape=RoundedRectangle|*
%AMROUNDEDRECTD44*
21,1,0.5500,0.3750,0,0,0.0*
21,1,0.4250,0.5000,0,0,0.0*
1,1,0.1250,0.2125,-0.1875*
1,1,0.1250,-0.2125,-0.1875*
1,1,0.1250,-0.2125,0.1875*
1,1,0.1250,0.2125,0.1875*
%
%ADD44ROUNDEDRECTD44*%
%ADD45R,1.8000X1.3000*%
G04:AMPARAMS|DCode=46|XSize=4mm|YSize=4mm|CornerRadius=1mm|HoleSize=0mm|Usage=FLASHONLY|Rotation=0.000|XOffset=0mm|YOffset=0mm|HoleType=Round|Shape=RoundedRectangle|*
%AMROUNDEDRECTD46*
21,1,4.0000,2.0000,0,0,0.0*
21,1,2.0000,4.0000,0,0,0.0*
1,1,2.0000,1.0000,-1.0000*
1,1,2.0000,-1.0000,-1.0000*
1,1,2.0000,-1.0000,1.0000*
1,1,2.0000,1.0000,1.0000*
%
%ADD46ROUNDEDRECTD46*%
G04:AMPARAMS|DCode=47|XSize=2mm|YSize=3.5mm|CornerRadius=0.08mm|HoleSize=0mm|Usage=FLASHONLY|Rotation=90.000|XOffset=0mm|YOffset=0mm|HoleType=Round|Shape=RoundedRectangle|*
%AMROUNDEDRECTD47*
21,1,2.0000,3.3400,0,0,90.0*
21,1,1.8400,3.5000,0,0,90.0*
1,1,0.1600,1.6700,0.9200*
1,1,0.1600,1.6700,-0.9200*
1,1,0.1600,-1.6700,-0.9200*
1,1,0.1600,-1.6700,0.9200*
%
%ADD47ROUNDEDRECTD47*%
%ADD48R,0.6500X0.6500*%
%ADD52C,4.9160*%
%ADD53R,4.9160X4.9160*%
%ADD54O,1.3000X2.6000*%
%ADD55C,1.5240*%
D26*
X-84500Y36980D02*
D03*
Y-21090D02*
D03*
D31*
X30250Y-39140D02*
D03*
Y-26440D02*
D03*
X-27250Y-39140D02*
D03*
Y-64540D02*
D03*
Y-26440D02*
D03*
Y-51840D02*
D03*
X30250D02*
D03*
Y-64540D02*
D03*
D38*
X-5941Y-86320D02*
D03*
X-23841D02*
D03*
D39*
X-46124Y-101520D02*
D03*
X-142286Y-66126D02*
D03*
X-121666Y-66126D02*
D03*
X-80415Y-66126D02*
D03*
X-101046Y-66126D02*
D03*
X11731Y40513D02*
D03*
X-8888Y40513D02*
D03*
X-35126Y5240D02*
D03*
X-58395Y-48226D02*
D03*
X-142286Y-48226D02*
D03*
X-121666Y-48226D02*
D03*
X-80415Y-48226D02*
D03*
X-101046Y-48226D02*
D03*
X-35126Y-12660D02*
D03*
X-46124Y-83620D02*
D03*
X-58395Y-66126D02*
D03*
X11731Y58413D02*
D03*
X-8888Y58413D02*
D03*
D40*
X-19050Y122250D02*
D03*
X20320D02*
D03*
D41*
X1500Y-45490D02*
D03*
D42*
X102360Y-42367D02*
D03*
Y-52367D02*
D03*
X116480Y-52367D02*
D03*
Y-42367D02*
D03*
D43*
X-17510Y7800D02*
D03*
X27990D02*
D03*
D44*
X88740Y-41036D02*
D03*
X51500Y-40879D02*
D03*
X88740Y-50036D02*
D03*
X51500Y-49879D02*
D03*
D45*
X34811Y40340D02*
D03*
Y68340D02*
D03*
D46*
X152400Y-209800D02*
D03*
X-154940Y-101108D02*
D03*
X-97800Y154940D02*
D03*
X102200D02*
D03*
X102360Y-154000D02*
D03*
X160020Y-100000D02*
D03*
X-98407Y-155970D02*
D03*
X-154940Y100000D02*
D03*
X-148215Y-209137D02*
D03*
X160020Y100000D02*
D03*
D47*
X84601Y-11590D02*
D03*
Y47410D02*
D03*
D48*
X75120Y-49973D02*
D03*
X65120D02*
D03*
D52*
X54500Y-210800D02*
D03*
D53*
X-54500D02*
D03*
D54*
X-94500Y-304800D02*
D03*
X94500D02*
D03*
D55*
X-97800Y100000D02*
D03*
Y-100000D02*
D03*
X102200Y100000D02*
D03*
Y-100000D02*
D03*
M02*
